<svg fill="none" xmlns="http://www.w3.org/2000/svg" viewBox="0 0 239 77"><g clip-path="url(#a)"><path stroke="#6B6D85" d="M11.5 52.5h151v11h-151z"/><path d="M41.112 19.5h-27.4A2.713 2.713 0 0 0 11 22.213v13.883a2.713 2.713 0 0 0 2.713 2.712h27.399a2.713 2.713 0 0 0 2.712-2.712V22.213a2.713 2.713 0 0 0-2.712-2.713Z" fill="#000" fill-opacity=".2"/><path d="M16.912 33.5v-8.76h2.772c.584 0 1.088.108 1.512.324.432.216.768.52 1.008.912.24.384.36.84.36 1.368 0 .576-.148 1.084-.444 1.524-.288.44-.68.752-1.176.936l1.74 3.696h-1.68l-1.524-3.48h-1.068v3.48h-1.5Zm1.5-4.8h1.272c.424 0 .756-.116.996-.348.24-.232.36-.552.36-.96 0-.416-.12-.74-.36-.972-.24-.24-.572-.36-.996-.36h-1.272v2.64Zm5.203 4.8 2.208-8.76h1.932l2.22 8.76H28.44l-.48-2.124h-2.328l-.48 2.124h-1.536Zm2.292-3.348h1.776l-.528-2.352a58.966 58.966 0 0 1-.228-1.056 24.78 24.78 0 0 1-.132-.696 24.78 24.78 0 0 1-.132.696c-.056.312-.132.66-.228 1.044l-.528 2.364Zm5.156 3.348v-8.76h1.776l.852 2.784c.088.28.16.536.216.768.056.232.092.4.108.504.016-.104.052-.272.108-.504.056-.232.124-.488.204-.768l.816-2.784h1.776v8.76h-1.404v-2.724c0-.4.012-.836.036-1.308.024-.472.052-.944.084-1.416.032-.472.068-.92.108-1.344.048-.424.088-.796.12-1.116l-1.176 4.14h-1.368l-1.212-4.14a44.266 44.266 0 0 1 .228 2.4c.04.464.072.936.096 1.416.024.48.036.936.036 1.368V33.5h-1.404Z" fill="#000"/><path d="M48.904 33.5v-.984h2.376V25.64l-2.376 1.776v-1.2l1.98-1.476h1.476v7.776h1.944v.984h-5.4Zm9.727.12c-.56 0-1.051-.116-1.475-.348a2.53 2.53 0 0 1-.972-.996c-.232-.424-.348-.916-.348-1.476 0-.44.06-.872.18-1.296a4.97 4.97 0 0 1 .564-1.224l2.196-3.54h1.2l-2.484 3.984.047.036a1.47 1.47 0 0 1 .624-.516c.265-.12.56-.18.889-.18.48 0 .895.112 1.248.336.352.224.623.54.816.948.191.408.288.892.288 1.452 0 .56-.117 1.052-.349 1.476a2.53 2.53 0 0 1-.971.996c-.409.232-.893.348-1.453.348Zm-.011-.96c.512 0 .924-.168 1.236-.504.311-.344.468-.796.468-1.356s-.157-1.008-.468-1.344c-.313-.344-.724-.516-1.236-.516s-.924.172-1.236.516c-.313.336-.468.784-.468 1.344s.156 1.012.468 1.356c.312.336.724.504 1.236.504Zm7.243.96c-.528 0-.988-.1-1.38-.3a2.178 2.178 0 0 1-.9-.864c-.208-.384-.312-.836-.312-1.356v-3.96c0-.528.104-.98.312-1.356.216-.376.516-.664.9-.864.392-.2.852-.3 1.38-.3.528 0 .984.104 1.368.312.384.2.68.488.888.864.208.376.312.824.312 1.344h-1.08c0-.496-.132-.876-.396-1.14-.256-.272-.62-.408-1.092-.408-.472 0-.844.132-1.116.396-.264.264-.396.644-.396 1.14V31.1c0 .496.132.88.396 1.152.272.272.644.408 1.116.408.472 0 .836-.136 1.092-.408.264-.272.396-.656.396-1.152v-1.08h-1.776v-.984h2.856V31.1c0 .512-.104.96-.312 1.344a2.178 2.178 0 0 1-.888.876c-.384.2-.84.3-1.368.3Zm4.663-.12v-8.76h2.484c.8 0 1.424.2 1.872.6.456.4.684.956.684 1.668 0 .4-.084.748-.252 1.044a1.7 1.7 0 0 1-.72.684c-.304.16-.672.236-1.104.228v-.18c.464-.008.864.08 1.2.264.344.184.608.448.792.792.192.344.288.752.288 1.224 0 .496-.104.928-.312 1.296a2.122 2.122 0 0 1-.888.852c-.384.192-.844.288-1.38.288h-2.664Zm1.056-.972h1.488c.504 0 .9-.132 1.188-.396.296-.272.444-.64.444-1.104 0-.48-.148-.868-.444-1.164-.288-.304-.684-.456-1.188-.456h-1.488v3.12Zm0-4.056h1.416c.464 0 .828-.124 1.092-.372.272-.248.408-.584.408-1.008 0-.424-.132-.76-.396-1.008s-.628-.372-1.092-.372h-1.428v2.76Z" fill="#6B6D85"/></g><rect x=".5" y="14" width="238" height="49" rx="3.5" stroke="#6B6D85"/><defs><clipPath id="a"><rect y="13.5" width="239" height="50" rx="4" fill="#fff"/></clipPath></defs></svg>