<svg fill="none" xmlns="http://www.w3.org/2000/svg" viewBox="0 0 242 128"><path d="M8.5.5H222c10.77 0 19.5 8.73 19.5 19.5v99.5H8.5V.5Z" stroke="#6B6D85"/><circle cx="182.5" cy="58.5" r="40" stroke="#6B6D85"/><circle cx="182.501" cy="58.501" r="15.525" stroke="#6B6D85"/><path fill="#6B6D85" d="M0 0h8v1H0zM8 120h1v8H8z"/><path d="M75.959 20H25.04C22.258 20 20 21.215 20 22.713v13.883c0 1.498 2.257 2.712 5.041 2.712H75.96c2.784 0 5.041-1.214 5.041-2.712V22.713C81 21.215 78.743 20 75.96 20Z" fill="#000" fill-opacity=".2"/><path d="M28.624 34.12c-.6 0-1.12-.1-1.56-.3-.44-.2-.78-.484-1.02-.852-.232-.376-.352-.816-.36-1.32h1.5c0 .36.128.644.384.852.264.2.62.3 1.068.3.432 0 .768-.1 1.008-.3.248-.2.372-.476.372-.828 0-.296-.088-.552-.264-.768-.168-.224-.412-.376-.732-.456l-1.008-.276c-.688-.176-1.22-.492-1.596-.948-.368-.456-.552-1.008-.552-1.656 0-.496.112-.928.336-1.296a2.23 2.23 0 0 1 .948-.852c.416-.2.904-.3 1.464-.3.848 0 1.52.22 2.016.66.496.432.748 1.016.756 1.752h-1.5c0-.344-.112-.612-.336-.804-.224-.2-.54-.3-.948-.3-.392 0-.696.092-.912.276-.216.184-.324.444-.324.78 0 .304.08.564.24.78.168.208.408.356.72.444l1.044.288c.696.176 1.228.492 1.596.948.368.448.552 1.004.552 1.668 0 .496-.12.936-.36 1.32-.24.376-.576.668-1.008.876-.432.208-.94.312-1.524.312Zm6.415-.12v-7.368h-2.292V25.24h6.096v1.392h-2.292V34H35.04Zm7.952.12c-.56 0-1.048-.104-1.464-.312a2.338 2.338 0 0 1-.948-.9c-.216-.392-.324-.852-.324-1.38v-3.816c0-.528.108-.984.324-1.368.224-.392.54-.692.948-.9.416-.216.904-.324 1.464-.324.568 0 1.056.108 1.464.324.408.208.72.508.936.9.224.384.336.836.336 1.356v3.828c0 .528-.112.988-.336 1.38a2.259 2.259 0 0 1-.936.9c-.408.208-.896.312-1.464.312Zm0-1.32c.408 0 .716-.108.924-.324.208-.224.312-.54.312-.948v-3.816c0-.416-.104-.732-.312-.948-.208-.216-.516-.324-.924-.324-.408 0-.716.108-.924.324-.208.216-.312.532-.312.948v3.816c0 .408.104.724.312.948.216.216.524.324.924.324Zm4.507 1.2v-8.76h2.772c.584 0 1.088.108 1.512.324.432.216.768.52 1.008.912.24.384.36.84.36 1.368 0 .576-.148 1.084-.444 1.524-.288.44-.68.752-1.176.936L53.27 34h-1.68l-1.524-3.48h-1.068V34h-1.5Zm1.5-4.8h1.272c.424 0 .756-.116.996-.348.24-.232.36-.552.36-.96 0-.416-.12-.74-.36-.972-.24-.24-.572-.36-.996-.36h-1.272v2.64ZM54.2 34l2.208-8.76h1.932l2.22 8.76h-1.536l-.48-2.124h-2.328L55.737 34h-1.536Zm2.292-3.348h1.776l-.528-2.352a58.966 58.966 0 0 1-.228-1.056 24.78 24.78 0 0 1-.132-.696 24.78 24.78 0 0 1-.132.696c-.056.312-.132.66-.228 1.044l-.528 2.364Zm8.132 3.468c-.56 0-1.052-.104-1.476-.312a2.402 2.402 0 0 1-.972-.9c-.224-.392-.336-.852-.336-1.38v-3.816c0-.536.112-.996.336-1.38.232-.384.556-.68.972-.888.424-.216.916-.324 1.476-.324.568 0 1.056.108 1.464.324.416.208.74.504.972.888.232.384.348.844.348 1.38h-1.512c0-.416-.112-.732-.336-.948-.216-.216-.528-.324-.936-.324-.408 0-.724.108-.948.324-.224.216-.336.528-.336.936v3.828c0 .408.112.724.336.948.224.224.54.336.948.336.408 0 .72-.112.936-.336.224-.224.336-.54.336-.948v-.888h-1.488v-1.296h3v2.184c0 .528-.116.988-.348 1.38a2.402 2.402 0 0 1-.972.9c-.408.208-.896.312-1.464.312Zm4.603-.12v-8.76h5.256v1.308h-3.78v2.28h3.36v1.296h-3.36v2.568h3.78V34h-5.256Z" fill="#000"/><path d="M88.468 34.12c-.528 0-.992-.104-1.392-.312a2.32 2.32 0 0 1-.912-.888c-.216-.376-.324-.816-.324-1.32h1.08c0 .488.136.872.408 1.152.28.272.664.408 1.152.408.496 0 .88-.144 1.152-.432.272-.288.408-.664.408-1.128v-.624c0-.496-.136-.88-.408-1.152-.272-.272-.656-.408-1.152-.408h-.9v-1.08l2.172-2.112H86.2v-.984h4.644v1.08l-2.34 2.268v-.132c.8 0 1.436.228 1.908.684.472.456.708 1.068.708 1.836v.624c0 .504-.112.944-.336 1.32a2.3 2.3 0 0 1-.924.888c-.4.208-.864.312-1.392.312Zm4.831-.12v-1.104l2.676-2.844c.456-.488.788-.92.996-1.296.208-.384.312-.752.312-1.104 0-.488-.136-.872-.408-1.152-.264-.28-.628-.42-1.092-.42-.512 0-.916.144-1.212.432-.288.288-.432.684-.432 1.188h-1.08c.016-.528.136-.984.36-1.368.232-.392.548-.692.948-.9.408-.208.88-.312 1.416-.312.528 0 .984.104 1.368.312.392.2.692.488.9.864.208.376.312.824.312 1.344 0 .496-.132.988-.396 1.476s-.696 1.044-1.296 1.668l-2.16 2.232h3.996V34H93.3Zm9.74.12c-.528 0-.988-.1-1.38-.3a2.178 2.178 0 0 1-.9-.864c-.208-.384-.312-.836-.312-1.356v-3.96c0-.528.104-.98.312-1.356.216-.376.516-.664.9-.864.392-.2.852-.3 1.38-.3.528 0 .984.104 1.368.312.384.2.68.488.888.864.208.376.312.824.312 1.344h-1.08c0-.496-.132-.876-.396-1.14-.256-.272-.62-.408-1.092-.408-.472 0-.844.132-1.116.396-.264.264-.396.644-.396 1.14V31.6c0 .496.132.88.396 1.152.272.272.644.408 1.116.408.472 0 .836-.136 1.092-.408.264-.272.396-.656.396-1.152v-1.08h-1.776v-.984h2.856V31.6c0 .512-.104.96-.312 1.344a2.178 2.178 0 0 1-.888.876c-.384.2-.84.3-1.368.3Zm4.663-.12v-8.76h2.484c.8 0 1.424.2 1.872.6.456.4.684.956.684 1.668 0 .4-.084.748-.252 1.044a1.7 1.7 0 0 1-.72.684c-.304.16-.672.236-1.104.228v-.18c.464-.008.864.08 1.2.264.344.184.608.448.792.792.192.344.288.752.288 1.224 0 .496-.104.928-.312 1.296a2.122 2.122 0 0 1-.888.852c-.384.192-.844.288-1.38.288h-2.664Zm1.056-.972h1.488c.504 0 .9-.132 1.188-.396.296-.272.444-.64.444-1.104 0-.48-.148-.868-.444-1.164-.288-.304-.684-.456-1.188-.456h-1.488v3.12Zm0-4.056h1.416c.464 0 .828-.124 1.092-.372.272-.248.408-.584.408-1.008 0-.424-.132-.76-.396-1.008s-.628-.372-1.092-.372h-1.428v2.76Z" fill="#6B6D85"/><path stroke="#6B6D85" d="M17.5 119.5h81v7h-81zM104.5 119.5h33v7h-33z"/></svg>