<svg viewBox="0 0 132 28" fill="none" xmlns="http://www.w3.org/2000/svg">
<rect width="132" height="28" rx="4.75" fill="#F6F1FF"/>
<path opacity="0.3" d="M29.3505 17V10.0909H32.0763C32.6004 10.0909 33.0468 10.191 33.4157 10.3912C33.7845 10.5891 34.0656 10.8646 34.2591 11.2177C34.4547 11.5685 34.5526 11.9734 34.5526 12.4322C34.5526 12.891 34.4536 13.2958 34.2557 13.6467C34.0578 13.9975 33.771 14.2708 33.3954 14.4664C33.0221 14.6621 32.57 14.7599 32.0392 14.7599H30.3018V13.5893H31.8031C32.0842 13.5893 32.3159 13.541 32.498 13.4442C32.6825 13.3453 32.8197 13.2092 32.9096 13.036C33.0018 12.8606 33.0479 12.6593 33.0479 12.4322C33.0479 12.2028 33.0018 12.0026 32.9096 11.8317C32.8197 11.6585 32.6825 11.5247 32.498 11.4302C32.3136 11.3335 32.0797 11.2852 31.7963 11.2852H30.8113V17H29.3505ZM42.088 13.5455C42.088 14.2989 41.9451 14.9399 41.6595 15.4684C41.3761 15.9969 40.9893 16.4006 40.499 16.6795C40.011 16.9561 39.4622 17.0945 38.8527 17.0945C38.2387 17.0945 37.6877 16.955 37.1996 16.6761C36.7116 16.3973 36.3259 15.9935 36.0425 15.465C35.7591 14.9365 35.6174 14.2966 35.6174 13.5455C35.6174 12.792 35.7591 12.151 36.0425 11.6225C36.3259 11.094 36.7116 10.6914 37.1996 10.4148C37.6877 10.1359 38.2387 9.99645 38.8527 9.99645C39.4622 9.99645 40.011 10.1359 40.499 10.4148C40.9893 10.6914 41.3761 11.094 41.6595 11.6225C41.9451 12.151 42.088 12.792 42.088 13.5455ZM40.607 13.5455C40.607 13.0574 40.5339 12.6458 40.3877 12.3107C40.2437 11.9756 40.0402 11.7215 39.7771 11.5483C39.5139 11.3751 39.2058 11.2885 38.8527 11.2885C38.4996 11.2885 38.1915 11.3751 37.9283 11.5483C37.6652 11.7215 37.4605 11.9756 37.3143 12.3107C37.1704 12.6458 37.0984 13.0574 37.0984 13.5455C37.0984 14.0335 37.1704 14.4451 37.3143 14.7802C37.4605 15.1153 37.6652 15.3694 37.9283 15.5426C38.1915 15.7158 38.4996 15.8024 38.8527 15.8024C39.2058 15.8024 39.5139 15.7158 39.7771 15.5426C40.0402 15.3694 40.2437 15.1153 40.3877 14.7802C40.5339 14.4451 40.607 14.0335 40.607 13.5455ZM44.703 17L42.7261 10.0909H44.3218L45.4654 14.8915H45.5228L46.7845 10.0909H48.1508L49.4091 14.9016H49.4699L50.6135 10.0909H52.2092L50.2323 17H48.8086L47.4929 12.4828H47.439L46.1266 17H44.703ZM53.2285 17V10.0909H57.8841V11.2953H54.6893V12.9416H57.6445V14.146H54.6893V15.7956H57.8976V17H53.2285ZM59.2829 17V10.0909H62.0088C62.5306 10.0909 62.9759 10.1842 63.3447 10.3709C63.7158 10.5553 63.9981 10.8174 64.1915 11.157C64.3871 11.4943 64.485 11.8913 64.485 12.3478C64.485 12.8066 64.386 13.2013 64.1881 13.532C63.9902 13.8603 63.7034 14.1122 63.3278 14.2876C62.9545 14.4631 62.5024 14.5508 61.9717 14.5508H60.1466V13.3768H61.7355C62.0144 13.3768 62.246 13.3385 62.4305 13.2621C62.6149 13.1856 62.7521 13.0709 62.842 12.918C62.9343 12.765 62.9804 12.575 62.9804 12.3478C62.9804 12.1184 62.9343 11.925 62.842 11.7676C62.7521 11.6101 62.6138 11.4909 62.4271 11.41C62.2427 11.3268 62.0099 11.2852 61.7288 11.2852H60.7437V17H59.2829ZM63.0141 13.8558L64.7313 17H63.1187L61.4386 13.8558H63.0141ZM65.7548 17V10.0909H70.4103V11.2953H67.2156V12.9416H70.1708V14.146H67.2156V15.7956H70.4238V17H65.7548ZM74.2584 17H71.8092V10.0909H74.2786C74.9736 10.0909 75.5719 10.2292 76.0734 10.5059C76.5749 10.7802 76.9606 11.175 77.2305 11.69C77.5027 12.205 77.6387 12.8213 77.6387 13.5387C77.6387 14.2584 77.5027 14.8769 77.2305 15.3942C76.9606 15.9115 76.5727 16.3084 76.0666 16.585C75.5629 16.8617 74.9601 17 74.2584 17ZM73.2699 15.7484H74.1977C74.6295 15.7484 74.9927 15.6719 75.2873 15.519C75.5842 15.3638 75.8069 15.1243 75.9553 14.8004C76.106 14.4743 76.1813 14.0537 76.1813 13.5387C76.1813 13.0282 76.106 12.611 75.9553 12.2871C75.8069 11.9632 75.5853 11.7248 75.2907 11.5719C74.9961 11.419 74.6329 11.3425 74.2011 11.3425H73.2699V15.7484ZM81.3945 17V10.0909H84.1609C84.6692 10.0909 85.0931 10.1663 85.4327 10.3169C85.7723 10.4676 86.0276 10.6768 86.1985 10.9444C86.3694 11.2098 86.4549 11.5157 86.4549 11.862C86.4549 12.1319 86.4009 12.3692 86.293 12.5739C86.185 12.7763 86.0366 12.9427 85.8477 13.0732C85.661 13.2013 85.4473 13.2924 85.2067 13.3464V13.4139C85.4698 13.4251 85.7161 13.4993 85.9455 13.6365C86.1772 13.7737 86.3649 13.966 86.5089 14.2134C86.6528 14.4586 86.7248 14.7509 86.7248 15.0906C86.7248 15.4571 86.6337 15.7844 86.4515 16.0723C86.2716 16.3579 86.0051 16.5839 85.652 16.7504C85.2989 16.9168 84.8637 17 84.3464 17H81.3945ZM82.8553 15.8058H84.0462C84.4533 15.8058 84.7501 15.7282 84.9368 15.573C85.1235 15.4155 85.2168 15.2064 85.2168 14.9455C85.2168 14.7543 85.1707 14.5856 85.0785 14.4395C84.9863 14.2933 84.8547 14.1786 84.6838 14.0953C84.5151 14.0121 84.3138 13.9705 84.0799 13.9705H82.8553V15.8058ZM82.8553 12.9821H83.9382C84.1384 12.9821 84.3161 12.9472 84.4712 12.8775C84.6287 12.8055 84.7524 12.7043 84.8423 12.5739C84.9346 12.4434 84.9807 12.2871 84.9807 12.1049C84.9807 11.8553 84.8918 11.654 84.7141 11.5011C84.5387 11.3481 84.2891 11.2717 83.9652 11.2717H82.8553V12.9821ZM87.508 10.0909H89.1442L90.7196 13.0664H90.7871L92.3626 10.0909H93.9987L91.4787 14.5575V17H90.028V14.5575L87.508 10.0909ZM98.6612 17H97.0959L99.481 10.0909H101.363L103.745 17H102.18L100.449 11.6697H100.395L98.6612 17ZM98.5634 14.2843H102.261V15.4245H98.5634V14.2843ZM106.275 10.0909V17H104.814V10.0909H106.275ZM110.164 17H107.714V10.0909H110.184C110.879 10.0909 111.477 10.2292 111.979 10.5059C112.48 10.7802 112.866 11.175 113.136 11.69C113.408 12.205 113.544 12.8213 113.544 13.5387C113.544 14.2584 113.408 14.8769 113.136 15.3942C112.866 15.9115 112.478 16.3084 111.972 16.585C111.468 16.8617 110.865 17 110.164 17ZM109.175 15.7484H110.103C110.535 15.7484 110.898 15.6719 111.193 15.519C111.489 15.3638 111.712 15.1243 111.86 14.8004C112.011 14.4743 112.087 14.0537 112.087 13.5387C112.087 13.0282 112.011 12.611 111.86 12.2871C111.712 11.9632 111.491 11.7248 111.196 11.5719C110.901 11.419 110.538 11.3425 110.106 11.3425H109.175V15.7484ZM115.665 17H114.099L116.484 10.0909H118.367L120.749 17H119.183L117.453 11.6697H117.399L115.665 17ZM115.567 14.2843H119.264V15.4245H115.567V14.2843Z" fill="#6938C0"/>
<g opacity="0.2">
<path fill-rule="evenodd" clip-rule="evenodd" d="M16.6558 8.30212C16.8451 8.16259 17.0506 8.04368 17.2689 7.9487L15.8163 6.49683L14.2043 8.10793C13.3141 8.99772 13.3141 10.4403 14.2043 11.3301L14.4401 11.5658C14.7138 11.3739 15.029 11.2373 15.3697 11.1721V10.8448C15.3697 9.83217 15.8467 8.93092 16.5883 8.35323C16.6106 8.3359 16.6331 8.31886 16.6558 8.30212ZM13.5828 11.9513L13.8238 12.1921C13.6374 12.4673 13.5062 12.783 13.4463 13.1232H13.0901L13.0839 13.1232C11.831 13.116 10.8176 12.0987 10.8176 10.8448V8.56633H12.8749C12.4313 9.699 12.6672 11.0362 13.5828 11.9513ZM13.0972 14.0017H13.4528C13.6381 14.9696 14.4013 15.7323 15.3697 15.9176V16.2802C15.3697 17.5746 16.1489 18.6866 17.264 19.1739L15.8091 20.6281L14.1972 19.017C13.4641 18.2843 13.3342 17.1757 13.8096 16.3101C13.9264 16.0975 13.8486 15.8305 13.6359 15.7137C13.4231 15.597 13.156 15.6747 13.0392 15.8874C12.5867 16.7112 12.5293 17.6943 12.8678 18.5585H10.8105L10.8105 16.2801C10.8105 15.0242 11.8271 14.0057 13.0827 14.0017L13.0972 14.0017ZM16.2486 16.2802V15.924C17.2336 15.7507 18.0131 14.9813 18.2007 14.0017H18.5282C19.7872 14.0017 20.8078 15.0218 20.8078 16.2802V18.5586L18.5282 18.5586C18.3945 18.5586 18.2639 18.5471 18.1371 18.5253C17.0645 18.3402 16.2486 17.405 16.2486 16.2802ZM18.5282 13.1232H18.2071C18.146 12.7761 18.0108 12.4546 17.8183 12.1755L18.0426 11.9514C18.9328 11.0616 20.3762 11.0616 21.2664 11.9514L22.8783 13.5625L21.4235 15.0165C20.9359 13.902 19.8231 13.1232 18.5282 13.1232ZM17.421 11.3302L17.1968 11.5543C16.9176 11.3619 16.5959 11.2268 16.2486 11.1657V10.8448C16.2486 9.58643 17.2692 8.56634 18.5282 8.56634L19.208 8.5663H20.8078V10.6227C19.6745 10.1792 18.3367 10.415 17.421 11.3302ZM10.2018 12.1084C10.4677 12.7162 10.9196 13.2241 11.4854 13.5603C10.9178 13.8956 10.4642 14.4034 10.1969 15.0115L8.74707 13.5624L10.2018 12.1084ZM17.3649 13.5449C17.3649 12.6958 16.6762 12.0075 15.8267 12.0075C14.9772 12.0075 14.2886 12.6958 14.2886 13.5449C14.2886 14.3939 14.9772 15.0822 15.8267 15.0822C16.6762 15.0822 17.3649 14.3939 17.3649 13.5449Z" fill="#6938C0"/>
</g>
</svg>
