<svg fill="none" height="286" viewBox="0 0 544 286" width="544" xmlns="http://www.w3.org/2000/svg" xmlns:xlink="http://www.w3.org/1999/xlink"><linearGradient id="a"><stop offset="0"/><stop offset="1" stop-color="#3e7bfa" stop-opacity="0"/></linearGradient><radialGradient id="b" cx="0" cy="0" gradientTransform="matrix(-.72960107 42.06387298 -90.2466256 -1.56533457 295.252 127.045)" gradientUnits="userSpaceOnUse" r="1" xlink:href="#a"/><radialGradient id="c" cx="0" cy="0" gradientTransform="matrix(-.72960107 42.06387298 -90.2466256 -1.56533457 177.652 211.045)" gradientUnits="userSpaceOnUse" r="1" xlink:href="#a"/><radialGradient id="d" cx="0" cy="0" gradientTransform="matrix(-.72960107 42.06387298 -90.2466256 -1.56533457 390.452 202.644)" gradientUnits="userSpaceOnUse" r="1" xlink:href="#a"/><path d="m447.999 122.5c0 42.526-73.963 77-165.2 77s-165.199-34.474-165.199-77 73.962-77 165.199-77 165.2 34.474 165.2 77z" fill="url(#b)" fill-opacity=".1" opacity=".7"/><path d="m330.399 206.5c0 42.526-73.962 77-165.199 77-91.2376 0-165.2-34.474-165.2-77s73.9624-77 165.2-77c91.237 0 165.199 34.474 165.199 77z" fill="url(#c)" fill-opacity=".1" opacity=".7"/><path d="m543.199 198.099c0 42.526-73.962 77-165.2 77-91.237 0-165.199-34.474-165.199-77 0-42.525 73.962-76.999 165.199-76.999 91.238 0 165.2 34.474 165.2 76.999z" fill="url(#d)" fill-opacity=".1" opacity=".7"/><path clip-rule="evenodd" d="m422.746 72.237c.146.3581-.026.7665-.385.9123-35.938 14.6304-138.546 64.3757-170.749 80.5267-.974.488-1.927.966-2.86 1.433-6.789 3.401-12.493 6.259-16.99 8.73-5.142 2.826-8.6 5.093-10.301 7.025-.844.96-1.172 1.744-1.161 2.399.01.635.343 1.325 1.236 2.097.897.777 2.294 1.574 4.262 2.406 1.96.828 4.447 1.673 7.496 2.563 4.399 1.283 11.449 3.277 20.063 5.713 24.237 6.855 60.856 17.213 85.653 25.091 6.318 2.008 11.692 4.071 15.959 6.209 4.254 2.131 7.464 4.365 9.395 6.737 1.956 2.405 2.622 4.994 1.672 7.704-.927 2.644-3.349 5.277-7.243 7.945-10.241 7.015-51.844 32.468-76.353 46.183-.338.189-.764.069-.953-.269-.189-.337-.068-.764.269-.952 24.49-13.705 66.053-39.135 76.246-46.117 3.807-2.608 5.933-5.03 6.713-7.253.755-2.155.282-4.244-1.437-6.357-1.745-2.145-4.748-4.271-8.936-6.37-4.177-2.092-9.476-4.13-15.756-6.125-24.773-7.871-61.339-18.214-85.577-25.069-8.627-2.44-15.692-4.438-20.107-5.726-3.076-.897-5.62-1.76-7.649-2.618-2.022-.854-3.573-1.719-4.633-2.636-1.066-.921-1.701-1.956-1.72-3.132-.019-1.156.561-2.269 1.51-3.348 1.887-2.143 5.56-4.514 10.677-7.327 4.523-2.485 10.255-5.356 17.038-8.754.933-.468 1.886-.946 2.859-1.433 32.197-16.148 134.852-65.9181 170.85-80.5724.358-.1457.766.0264.912.3844z" fill="#000" fill-rule="evenodd"/><path clip-rule="evenodd" d="m412.223 60.9835c.175.3446.038.766-.307.9412-20.667 10.5086-63.92 30.3159-105.311 49.1443-6.691 3.043-13.333 6.061-19.823 9.01-33.68 15.302-63.276 28.749-74.415 34.298-1.984.988-3.943 1.956-5.86 2.902-4.517 2.231-8.803 4.348-12.649 6.358-5.486 2.867-10.022 5.491-13.025 7.884-1.502 1.198-2.578 2.306-3.203 3.322-.618 1.004-.759 1.857-.522 2.617.245.786.942 1.633 2.349 2.503 1.401.866 3.429 1.708 6.194 2.515 2.872.838 7.097 2.06 12.295 3.563 25.193 7.287 73.26 21.19 101.121 30.042 6.3 2.002 11.881 3.867 16.417 5.697 4.52 1.823 8.077 3.638 10.277 5.563 1.105.967 1.913 1.999 2.304 3.12.398 1.143.342 2.32-.183 3.508-1.016 2.302-3.786 4.633-8.345 7.143-10.777 5.932-24.263 13.712-38.211 21.759-12.405 7.156-25.175 14.523-36.729 20.988-.337.188-.764.068-.953-.269-.188-.338-.068-.764.269-.953 11.505-6.438 24.273-13.803 36.686-20.963 13.974-8.061 27.498-15.863 38.263-21.789 4.541-2.5 6.927-4.642 7.739-6.482.39-.883.416-1.693.142-2.482-.283-.81-.903-1.651-1.903-2.526-2.012-1.76-5.379-3.503-9.879-5.319-4.484-1.808-10.021-3.66-16.318-5.661-27.841-8.846-75.878-22.74-101.076-30.028-5.202-1.505-9.431-2.728-12.308-3.567-2.823-.824-4.986-1.708-6.538-2.669-1.546-.956-2.562-2.035-2.95-3.276-.394-1.266-.088-2.541.667-3.768.747-1.215 1.966-2.441 3.523-3.683 3.117-2.485 7.759-5.161 13.248-8.029 3.862-2.019 8.17-4.147 12.694-6.381 1.914-.945 3.867-1.909 5.84-2.892 11.164-5.562 40.793-19.023 74.469-34.324 6.488-2.948 13.127-5.964 19.813-9.006 41.405-18.8338 84.624-38.6259 105.257-49.1172.344-.1753.766-.0379.941.3067z" fill="#000" fill-rule="evenodd"/><path d="m201.288 208.084-35.628 14.991-31.432-9.898v-39.897l40.82-15.131 26.24 9.908v1.466 8.002z" fill="#fff"/><path clip-rule="evenodd" d="m169.47 157.599c.102-.373.487-.593.859-.491 5.409 1.48 10.924 3.318 16.629 5.24.349.117.7.235 1.051.353 5.384 1.814 10.944 3.688 16.778 5.404.37.109.583.498.474.869-.11.371-.499.583-.87.474-5.86-1.724-11.445-3.606-16.824-5.418-.353-.119-.705-.237-1.056-.356-5.709-1.922-11.187-3.748-16.551-5.216-.373-.102-.593-.487-.49-.859z" fill="#000" fill-rule="evenodd"/><path clip-rule="evenodd" d="m134.227 170.533c.387 0 .7.314.7.7v42.795c0 .386-.313.7-.7.7-.386 0-.7-.314-.7-.7v-42.795c0-.386.314-.7.7-.7z" fill="#000" fill-rule="evenodd"/><path clip-rule="evenodd" d="m201.286 166.625c.387 0 .7.313.7.7v41.223c0 .387-.313.7-.7.7-.386 0-.7-.313-.7-.7v-41.223c0-.387.314-.7.7-.7zm-33.954 11.901c.387 0 .7.314.7.7v44.602c0 .387-.313.7-.7.7s-.7-.313-.7-.7v-44.602c0-.386.313-.7.7-.7z" fill="#000" fill-rule="evenodd"/><path clip-rule="evenodd" d="m132.704 213.839c.102-.373.487-.593.86-.491 5.944 1.627 12.293 3.264 18.933 4.976 5.4 1.393 10.992 2.835 16.714 4.361.374.099.596.483.496.856-.099.374-.483.596-.856.496-5.693-1.518-11.281-2.959-16.683-4.352-6.656-1.716-13.031-3.36-18.974-4.986-.373-.102-.592-.487-.49-.86z" fill="#000" fill-rule="evenodd"/><path clip-rule="evenodd" d="m134.401 173.082c.102-.373.487-.593.86-.491 5.944 1.627 12.294 3.264 18.933 4.976 5.4 1.393 10.992 2.835 16.715 4.361.373.099.595.483.496.856-.1.374-.483.596-.857.496-5.693-1.518-11.28-2.959-16.683-4.352-6.656-1.716-13.031-3.36-18.973-4.986-.373-.102-.593-.487-.491-.86z" fill="#000" fill-rule="evenodd"/><path clip-rule="evenodd" d="m206.188 206.99c.135.362-.05.765-.413.899-7.676 2.846-34.657 13.77-42.219 16.935-.357.149-.767-.019-.916-.376s.019-.767.375-.916c7.566-3.166 34.569-14.099 42.274-16.956.362-.134.765.051.899.414z" fill="#000" fill-rule="evenodd"/><path clip-rule="evenodd" d="m203.341 167.082c.134.362-.051.765-.413.9-5.202 1.928-16.67 6.888-25.885 10.875-4.38 1.894-8.251 3.569-10.699 4.593-.357.149-.767-.019-.916-.375-.15-.357.019-.767.375-.916 2.413-1.01 6.251-2.67 10.607-4.554 9.234-3.994 20.795-8.995 26.031-10.936.363-.134.766.05.9.413z" fill="#000" fill-rule="evenodd"/><path clip-rule="evenodd" d="m174.027 157.553c.135.363-.05.766-.413.9-6.549 2.428-25.071 10.206-35.066 14.403-1.714.72-3.177 1.334-4.286 1.798-.357.149-.767-.019-.916-.376-.149-.356.019-.766.376-.915 1.103-.462 2.56-1.074 4.269-1.792 9.986-4.193 28.555-11.991 35.137-14.431.362-.134.765.051.899.413z" fill="#000" fill-rule="evenodd"/><path clip-rule="evenodd" d="m187.374 162.662c.147.358-.025.767-.383.913-5.091 2.083-12.837 5.485-19.982 8.624-5.466 2.401-10.581 4.647-13.887 6.031-.357.149-.767-.019-.916-.375-.149-.357.019-.767.375-.916 3.239-1.356 8.335-3.594 13.798-5.993 7.187-3.156 15.01-6.592 20.082-8.667.358-.146.767.025.913.383z" fill="#000" fill-rule="evenodd"/><path clip-rule="evenodd" d="m181.614 175.658c.353.153.56.576.463.947-1.845 7.126-4.137 15.125-6.405 23.035l-.075.262c-.026.09-.052.18-.078.27l-6.125 22.01c-.103.369-.47.543-.823.391-.353-.153-.56-.576-.464-.947 1.724-6.658 3.914-14.301 6.13-22.028l6.554-23.549c.102-.369.47-.543.823-.391zm-8.061 3.45c.353.153.559.576.463.947-1.041 4.017-1.961 7.141-2.871 10.228l-.018.062c-.007.021-.013.041-.019.062l-2.783 9.908c-.104.369-.471.542-.824.389-.352-.153-.559-.575-.462-.946.997-3.852 1.892-6.89 2.789-9.931l2.902-10.33c.103-.368.47-.542.823-.389z" fill="#000" fill-rule="evenodd"/><path clip-rule="evenodd" d="m201.911 167.131c.357.15.567.575.47.949l-11.69 45.136c-.097.375-.464.556-.82.406s-.566-.576-.47-.95l11.69-45.136c.097-.374.464-.556.82-.405zm-7.79 4.085c.357.15.567.575.47.949l-11.337 43.776c-.097.374-.465.556-.821.406s-.566-.576-.469-.95l11.337-43.776c.097-.374.464-.555.82-.405zm-6.65 2.758c.357.15.567.575.471.949l-11.418 44.26c-.097.374-.464.556-.82.406-.357-.15-.567-.575-.471-.949l11.418-44.259c.097-.375.464-.557.82-.407zm14.453 16.861c.354.158.557.586.453.958l-5.145 18.418c-.104.372-.475.545-.829.388-.355-.158-.558-.586-.454-.958l5.145-18.418c.104-.372.475-.545.83-.388z" fill="#000" fill-rule="evenodd"/><path d="m157.325 93.3266c-1.482 5.716-6.431 13.0174-11.214 13.3354-10.299.686-10.608-6.649-10.608-12.7292.635-5.7161 5.814-12.7297 10.608-12.7297 6.668 0 12.484 3.0202 11.214 12.1235z" fill="#fff"/><path clip-rule="evenodd" d="m149.978 87.5544c1.003.1208 1.962.8293 2.78 2.0726.212.323.123.757-.2.9695-.323.2124-.757.1229-.97-.2001-.695-1.0572-1.34-1.3994-1.777-1.452-.414-.0499-.821.1389-1.136.5808-.64.8992-.749 2.7324.838 4.253 1.968 1.8846 2.507 4.6218 1.376 6.2928-.593.878-1.594 1.354-2.841 1.231-1.208-.12-2.623-.793-4.203-2.1098-.297-.2475-.337-.6889-.09-.9859.248-.297.689-.3371.986-.0896 1.47 1.2248 2.626 1.7109 3.445 1.7918.78.077 1.262-.2055 1.544-.6217.619-.9162.476-2.9064-1.185-4.4976-2.042-1.9552-2.092-4.5584-1.01-6.0765.547-.7667 1.417-1.2818 2.443-1.1583z" fill="#000" fill-rule="evenodd"/><path clip-rule="evenodd" d="m151.345 86.2874c.372.1035.59.4894.487.8618-1.278 4.5992-3.064 9.9562-4.866 14.8608-.134.363-.536.549-.899.415-.363-.133-.549-.536-.415-.898 1.794-4.8809 3.566-10.2003 4.831-14.7525.103-.3725.489-.5905.862-.4871z" fill="#000" fill-rule="evenodd"/><path clip-rule="evenodd" d="m141.01 82.8591c.102-.3728.487-.5911.86-.4876l4.68 1.3002c.373.1034.592.4895.489.8623-.102.3727-.487.591-.859.4876l-4.681-1.3002c-.372-.1035-.591-.4895-.489-.8623zm2.335-1.2818c.093-.3755.472-.6042.847-.5109 1.032.2567 1.595.4179 2.141.5749l.02.0057c.532.1529 1.052.3023 2.001.5384.375.0933.605.4733.513.8487-.093.3755-.472.6042-.847.5109-.973-.2422-1.512-.3969-2.051-.5518l-.019-.0054c-.538-.1546-1.083-.3108-2.092-.5618-.375-.0933-.605-.4733-.513-.8487z" fill="#000" fill-rule="evenodd"/><path clip-rule="evenodd" d="m136.65 88.2855c.105-.372.492-.5874.863-.4812l4.244 1.2124c.371.1062.588.4938.482.8658-.105.372-.491.5875-.863.4813l-4.243-1.2124c-.372-.1062-.588-.4939-.483-.8659zm1.226-2.1648c.129-.3643.529-.5542.893-.4242l4.243 1.5155c.364.1301.555.5309.426.8952s-.529.5543-.893.4242l-4.243-1.5155c-.364-.13-.555-.5308-.426-.8952zm1.511-1.8044c.121-.367.516-.5654.883-.4431l4.546 1.5154c.367.1223.566.519.445.886s-.517.5654-.883.4431l-4.547-1.5154c-.366-.1223-.566-.519-.444-.886z" fill="#000" fill-rule="evenodd"/><path clip-rule="evenodd" d="m134.83 92.8312c.105-.372.492-.5875.863-.4813l4.244 1.2124c.371.1062.587.4939.482.8659s-.491.5874-.863.4812l-4.243-1.2123c-.372-.1063-.588-.4939-.483-.8659zm.909-2.4246c.105-.372.492-.5874.863-.4812l4.244 1.2122c.371.1062.588.4938.482.8658-.105.372-.491.5875-.863.4813l-4.243-1.2122c-.372-.1062-.588-.4939-.483-.8659zm-1.212 5.7586c.105-.372.491-.5874.863-.4812l4.243 1.2123c.372.1063.588.4939.483.8659s-.492.5875-.863.4812l-4.243-1.2123c-.372-.1063-.588-.4939-.483-.8659z" fill="#000" fill-rule="evenodd"/><path clip-rule="evenodd" d="m134.821 99.2311c.086-.377.461-.6121.837-.5252l3.94.9093c.377.0869.613.4628.527.8398s-.461.612-.838.525l-3.94-.909c-.376-.0869-.612-.4629-.526-.8399zm1.215 2.7159c.093-.376.472-.604.847-.51l3.637.909c.375.094.604.474.511.849-.092.376-.472.604-.847.51l-3.637-.909c-.375-.094-.604-.474-.511-.849z" fill="#000" fill-rule="evenodd"/><path clip-rule="evenodd" d="m144.386 87.1647c-2.081 2.4785-3.605 5.6529-3.945 8.37-.6 4.8013.043 8.1463 1.923 10.0263.029.029.055.06.078.093.198.283.534.503 1.022.641.488.137 1.08.177 1.702.132.619-.045 1.239-.172 1.769-.345.543-.177.941-.386 1.153-.563.05-.042.107-.077.167-.104 1.946-.856 3.726-2.654 5.142-4.952 1.411-2.2888 2.422-5.0129 2.862-7.628.442-2.6283.296-5.0659-.514-6.8288-.784-1.7077-2.201-2.8226-4.501-2.8913-2.242-.0669-4.756 1.5467-6.858 4.0498zm-1.072-.9003c2.194-2.6118 5.08-4.6352 7.971-4.5488 2.855.0852 4.735 1.5357 5.732 3.7063.972 2.1153 1.09 4.8687.623 7.6455-.47 2.7901-1.544 5.6851-3.051 8.1306-1.483 2.407-3.424 4.437-5.685 5.461-.4.309-.951.564-1.534.754-.637.208-1.368.357-2.103.41-.731.053-1.494.013-2.183-.181-.669-.189-1.312-.537-1.751-1.132-2.328-2.368-2.89-6.28-2.281-11.149.38-3.0415 2.048-6.4601 4.262-9.0966z" fill="#000" fill-rule="evenodd"/><path clip-rule="evenodd" d="m139.938 85.6237c-2.014 2.2863-3.455 5.2259-3.739 7.7796-.004.0361-.011.0718-.02.1069-.421 1.5406-.428 3.4736-.065 5.2856.365 1.8232 1.081 3.4152 2.006 4.3402.029.029.055.06.078.093.54.771 1.481 1.464 2.674 2.046 1.181.576 2.551 1.015 3.876 1.31.377.083.615.457.531.835-.084.377-.458.615-.835.531-1.403-.312-2.883-.782-4.186-1.418-1.272-.62-2.435-1.427-3.171-2.45-1.173-1.199-1.958-3.071-2.346-5.0126-.391-1.9572-.402-4.093.073-5.8758.336-2.8874 1.928-6.0617 4.073-8.4963 2.145-2.4344 4.98-4.2811 7.851-4.1954 1.791.0534 3.315.5641 5.643 1.3438.2.0671.407.1362.62.2072.366.1223.565.5187.442.8854-.122.3668-.518.565-.885.4428-.189-.0629-.371-.1238-.547-.1827-2.414-.8071-3.739-1.2501-5.314-1.2972-2.263-.0675-4.732 1.4197-6.759 3.7215z" fill="#000" fill-rule="evenodd"/><path d="m193.725 112.926c-1.482 5.716-6.431 13.017-11.215 13.336-10.298.686-10.608-6.65-10.608-12.73.635-5.716 5.815-12.729 10.608-12.729 6.668 0 12.485 3.02 11.215 12.123z" fill="#fff"/><path clip-rule="evenodd" d="m186.378 107.154c1.003.121 1.961.829 2.779 2.073.213.323.123.757-.2.969-.323.213-.757.123-.969-.2-.696-1.057-1.34-1.399-1.778-1.452-.414-.05-.82.139-1.135.581-.641.899-.75 2.732.838 4.253 1.967 1.884 2.506 4.622 1.376 6.293-.594.877-1.595 1.353-2.842 1.23-1.208-.119-2.622-.792-4.203-2.109-.297-.248-.337-.689-.09-.986.248-.297.689-.337.986-.09 1.47 1.225 2.626 1.711 3.445 1.792.78.077 1.263-.205 1.544-.622.62-.916.476-2.906-1.185-4.497-2.041-1.955-2.091-4.559-1.009-6.077.546-.766 1.417-1.282 2.443-1.158z" fill="#000" fill-rule="evenodd"/><path clip-rule="evenodd" d="m187.744 105.887c.373.104.591.489.487.862-1.277 4.599-3.063 9.956-4.866 14.86-.133.363-.536.549-.899.416-.362-.134-.548-.536-.415-.899 1.794-4.88 3.567-10.2 4.831-14.752.104-.372.49-.59.862-.487z" fill="#000" fill-rule="evenodd"/><path clip-rule="evenodd" d="m177.408 102.459c.103-.373.488-.591.86-.488l4.681 1.3c.372.104.591.49.489.863-.102.372-.487.591-.86.487l-4.681-1.3c-.372-.103-.591-.49-.489-.862zm2.336-1.282c.092-.376.471-.604.846-.511 1.032.257 1.595.418 2.141.575l.02.006c.532.152 1.052.302 2.002.538.375.093.604.473.512.849-.092.375-.471.604-.846.511-.974-.243-1.512-.397-2.052-.552l-.018-.006c-.538-.154-1.084-.31-2.093-.561-.375-.094-.604-.474-.512-.849z" fill="#000" fill-rule="evenodd"/><path clip-rule="evenodd" d="m173.048 107.885c.106-.372.492-.587.864-.481l4.243 1.212c.372.106.588.494.483.866s-.492.588-.864.481l-4.243-1.212c-.372-.106-.588-.494-.483-.866zm1.226-2.165c.129-.364.529-.554.893-.424l4.244 1.516c.364.13.554.53.425.895-.128.364-.528.554-.892.424l-4.244-1.515c-.364-.131-.555-.531-.426-.896zm1.511-1.804c.121-.367.517-.566.884-.443l4.546 1.515c.367.123.566.519.445.886s-.517.566-.884.443l-4.546-1.515c-.367-.122-.566-.519-.445-.886z" fill="#000" fill-rule="evenodd"/><path clip-rule="evenodd" d="m171.229 112.431c.105-.372.492-.588.864-.481l4.243 1.212c.372.106.588.494.483.866s-.492.587-.864.481l-4.243-1.212c-.372-.107-.588-.494-.483-.866zm.909-2.425c.106-.372.492-.587.864-.481l4.243 1.212c.372.106.588.494.483.866s-.492.587-.864.481l-4.243-1.212c-.372-.106-.588-.494-.483-.866zm-1.212 5.759c.105-.372.492-.588.864-.481l4.243 1.212c.371.106.588.494.483.866-.106.372-.492.587-.864.481l-4.243-1.212c-.372-.107-.588-.494-.483-.866z" fill="#000" fill-rule="evenodd"/><path clip-rule="evenodd" d="m171.219 118.831c.086-.377.461-.612.838-.525l3.94.909c.376.087.612.463.526.84-.085.377-.46.612-.837.525l-3.94-.909c-.377-.087-.613-.463-.527-.84zm1.215 2.715c.093-.375.472-.603.847-.51l3.637.91c.375.093.604.474.512.849-.093.375-.472.604-.847.51l-3.637-.909c-.375-.094-.604-.474-.512-.85z" fill="#000" fill-rule="evenodd"/><path clip-rule="evenodd" d="m180.785 106.764c-2.082 2.479-3.606 5.653-3.945 8.37-.6 4.802.042 8.146 1.922 10.027.029.028.055.06.079.093.197.282.534.503 1.022.64.487.138 1.079.178 1.702.133.619-.045 1.238-.172 1.769-.345.543-.177.94-.386 1.152-.563.051-.043.107-.078.167-.104 1.946-.856 3.727-2.654 5.143-4.952 1.41-2.289 2.421-5.013 2.861-7.628.443-2.629.296-5.066-.514-6.829-.784-1.708-2.2-2.823-4.501-2.891-2.242-.067-4.755 1.546-6.857 4.049zm-1.072-.9c2.193-2.612 5.079-4.635 7.971-4.549 2.854.085 4.735 1.536 5.732 3.706.971 2.116 1.089 4.869.622 7.646-.47 2.79-1.543 5.685-3.051 8.131-1.483 2.406-3.423 4.437-5.684 5.46-.401.31-.951.564-1.535.755-.636.207-1.368.357-2.102.41-.731.053-1.495.013-2.184-.181-.669-.189-1.312-.538-1.751-1.133-2.328-2.367-2.889-6.279-2.28-11.148.38-3.042 2.048-6.461 4.262-9.097z" fill="#000" fill-rule="evenodd"/><path clip-rule="evenodd" d="m176.336 105.223c-2.014 2.287-3.455 5.226-3.739 7.78-.004.036-.01.072-.02.107-.42 1.54-.427 3.473-.065 5.285.365 1.824 1.081 3.415 2.006 4.341.029.028.055.06.079.093.54.771 1.481 1.464 2.673 2.046 1.182.576 2.552 1.015 3.876 1.309.377.084.615.458.532.835-.084.378-.458.616-.836.532-1.403-.312-2.882-.782-4.186-1.418-1.272-.621-2.435-1.427-3.171-2.451-1.172-1.198-1.957-3.07-2.345-5.012-.392-1.957-.403-4.093.072-5.876.336-2.887 1.929-6.061 4.074-8.496 2.144-2.434 4.98-4.281 7.851-4.196 1.79.054 3.315.565 5.642 1.344.201.067.407.137.62.208.367.122.565.518.443.885-.123.367-.519.565-.886.443-.188-.063-.37-.124-.547-.183-2.414-.807-3.739-1.25-5.314-1.297-2.263-.068-4.731 1.42-6.759 3.721z" fill="#000" fill-rule="evenodd"/><path d="m190.924 52.726c-1.482 5.716-6.431 13.0171-11.214 13.3358-10.299.6861-10.608-6.6497-10.608-12.7296.635-5.7161 5.814-12.7297 10.608-12.7297 6.667 0 12.484 3.0202 11.214 12.1235z" fill="#fff"/><path clip-rule="evenodd" d="m183.577 46.9538c1.003.1208 1.962.8293 2.779 2.0726.213.323.123.757-.2.9695s-.757.1229-.969-.2001c-.696-1.0572-1.34-1.3994-1.777-1.452-.414-.0498-.821.1389-1.136.5808-.641.8992-.75 2.7325.838 4.253 1.967 1.8846 2.506 4.6218 1.376 6.293-.594.8775-1.594 1.3537-2.841 1.2305-1.208-.1193-2.623-.7923-4.204-2.1095-.297-.2475-.337-.6889-.089-.9859.247-.297.689-.3371.986-.0896 1.469 1.2248 2.625 1.7109 3.444 1.7918.78.077 1.263-.2055 1.544-.6217.62-.9162.477-2.9064-1.185-4.4976-2.041-1.9552-2.091-4.5584-1.009-6.0765.546-.7667 1.417-1.2818 2.443-1.1583z" fill="#000" fill-rule="evenodd"/><path clip-rule="evenodd" d="m184.942 45.6868c.373.1035.591.4894.488.8619-1.278 4.5991-3.064 9.9561-4.867 14.8604-.133.3628-.535.5489-.898.4155s-.549-.5357-.416-.8986c1.794-4.8805 3.567-10.1999 4.832-14.752.103-.3725.489-.5906.861-.4872z" fill="#000" fill-rule="evenodd"/><path clip-rule="evenodd" d="m174.608 42.2595c.102-.3728.487-.5911.859-.4876l4.681 1.3002c.373.1034.592.4895.489.8623-.102.3727-.487.591-.86.4875l-4.68-1.3001c-.373-.1035-.592-.4895-.489-.8623zm2.335-1.2818c.092-.3755.471-.6042.846-.5109 1.032.2566 1.595.4179 2.142.5749l.02.0057c.532.1529 1.052.3023 2.001.5384.375.0933.604.4733.512.8487-.092.3755-.471.6042-.846.5109-.974-.2422-1.512-.3969-2.051-.5518l-.019-.0054c-.538-.1546-1.083-.3108-2.093-.5618-.375-.0933-.604-.4733-.512-.8487z" fill="#000" fill-rule="evenodd"/><path clip-rule="evenodd" d="m170.248 47.6859c.105-.372.491-.5874.863-.4812l4.243 1.2124c.372.1062.588.4938.483.8658s-.492.5875-.863.4813l-4.244-1.2124c-.371-.1062-.588-.4939-.482-.8659zm1.226-2.1648c.129-.3643.528-.5542.893-.4242l4.243 1.5155c.364.1301.555.5308.426.8952-.129.3643-.529.5542-.893.4242l-4.243-1.5155c-.365-.13-.555-.5308-.426-.8952zm1.51-1.8044c.121-.367.517-.5654.884-.4431l4.546 1.5154c.367.1223.566.519.445.886s-.517.5654-.884.4431l-4.546-1.5154c-.367-.1223-.566-.519-.445-.886z" fill="#000" fill-rule="evenodd"/><path clip-rule="evenodd" d="m168.428 52.2316c.106-.372.492-.5875.864-.4813l4.243 1.2124c.372.1062.588.4939.483.8659s-.492.5874-.864.4812l-4.243-1.2124c-.372-.1062-.588-.4938-.483-.8658zm.91-2.4246c.105-.372.491-.5874.863-.4812l4.243 1.2121c.372.1062.588.4939.483.8659s-.492.5875-.863.4813l-4.244-1.2122c-.371-.1062-.587-.4939-.482-.8659zm-1.213 5.7586c.105-.372.492-.5875.864-.4812l4.243 1.2123c.372.1063.588.4939.483.8659s-.492.5875-.864.4812l-4.243-1.2123c-.372-.1063-.588-.4939-.483-.8659z" fill="#000" fill-rule="evenodd"/><path clip-rule="evenodd" d="m168.418 58.6315c.086-.377.461-.6121.838-.5252l3.94.9093c.377.0869.612.463.527.8399-.086.377-.461.6121-.838.5252l-3.94-.9093c-.377-.0869-.612-.4629-.527-.8399zm1.216 2.7156c.092-.3754.471-.6036.847-.5099l3.637.9092c.375.0938.604.474.511.8493-.093.3754-.472.6036-.847.5099l-3.637-.9092c-.375-.0937-.604-.474-.511-.8493z" fill="#000" fill-rule="evenodd"/><path clip-rule="evenodd" d="m177.985 46.5651c-2.081 2.4785-3.605 5.6529-3.945 8.37-.6 4.8012.042 8.1458 1.923 10.0262.028.0288.055.0601.078.0935.198.2823.534.5027 1.022.6403s1.079.1776 1.702.1324c.619-.0449 1.238-.1718 1.769-.345.543-.1772.94-.3857 1.153-.5632.05-.0422.106-.0771.167-.1036 1.945-.8559 3.726-2.6544 5.142-4.9519 1.411-2.2892 2.421-5.0133 2.862-7.6284.442-2.6283.295-5.0659-.514-6.8288-.785-1.7077-2.201-2.8226-4.502-2.8913-2.242-.0669-4.755 1.5467-6.857 4.0498zm-1.072-.9003c2.193-2.6118 5.079-4.6352 7.971-4.5489 2.854.0853 4.735 1.5358 5.732 3.7064.971 2.1152 1.09 4.8687.622 7.6455-.469 2.7901-1.543 5.6851-3.05 8.1305-1.484 2.4067-3.424 4.4372-5.685 5.4607-.401.3094-.951.5639-1.535.7544-.636.2078-1.368.3572-2.102.4105-.731.053-1.495.0129-2.183-.1814-.67-.1889-1.313-.5375-1.751-1.1325-2.329-2.3672-2.89-6.2793-2.281-11.1486.38-3.0415 2.048-6.4601 4.262-9.0966z" fill="#000" fill-rule="evenodd"/><path clip-rule="evenodd" d="m173.535 45.0241c-2.014 2.2863-3.455 5.2258-3.738 7.7796-.004.0361-.011.0718-.021.1069-.42 1.5406-.427 3.4736-.064 5.2856.364 1.8232 1.08 3.415 2.006 4.3402.028.0288.055.0601.078.0935.54.771 1.481 1.4638 2.673 2.0454 1.182.5765 2.552 1.0154 3.876 1.3097.378.0839.616.4578.532.8352s-.458.6154-.835.5315c-1.404-.3119-2.883-.7822-4.186-1.4181-1.273-.6206-2.436-1.427-3.171-2.4507-1.173-1.1985-1.958-3.0703-2.346-5.0121-.392-1.9572-.402-4.093.072-5.8758.336-2.8874 1.929-6.0617 4.074-8.4963 2.144-2.4344 4.98-4.2811 7.851-4.1954 1.79.0534 3.315.5641 5.643 1.3438.2.0671.406.1362.619.2072.367.1222.565.5187.443.8854-.122.3668-.519.565-.885.4427-.189-.0628-.371-.1237-.547-.1826-2.415-.8071-3.74-1.2502-5.315-1.2972-2.263-.0675-4.731 1.4197-6.759 3.7215z" fill="#000" fill-rule="evenodd"/><path clip-rule="evenodd" d="m144.9 21.4014c.387 0 .7.3134.7.7v39.8722c0 .3866-.313.7-.7.7-.386 0-.7-.3134-.7-.7v-39.8722c0-.3866.314-.7.7-.7zm0 94.0576c.387 0 .7.313.7.7v24.242c0 .387-.313.7-.7.7-.386 0-.7-.313-.7-.7v-24.242c0-.387.314-.7.7-.7zm0 44.984c.387 0 .7.314.7.7v14.958c0 .387-.313.7-.7.7-.386 0-.7-.313-.7-.7v-14.958c0-.386.314-.7.7-.7z" fill="#000" fill-rule="evenodd"/><path clip-rule="evenodd" d="m163.1 21.4014c.387 0 .7.3134.7.7v30.5626c0 .3866-.313.7-.7.7-.386 0-.7-.3134-.7-.7v-30.5626c0-.3866.314-.7.7-.7zm0 53.4846c.387 0 .7.3134.7.7v21.8304c0 .3866-.313.7-.7.7-.386 0-.7-.3134-.7-.7v-21.8304c0-.3866.314-.7.7-.7zm0 50.21c.387 0 .7.313.7.7v25.105c0 .387-.313.7-.7.7-.386 0-.7-.313-.7-.7v-25.105c0-.387.314-.7.7-.7z" fill="#000" fill-rule="evenodd"/><path clip-rule="evenodd" d="m178.507 7.40084c.386.00348.697.31969.693.70627l-.264 29.29919c-.003.3866-.319.6971-.706.6937-.387-.0035-.697-.3197-.694-.7063l.264-29.2992c.004-.38658.32-.69715.707-.69366zm-.561 62.26076c.386.0035.697.3197.693.7063l-.231 25.6367c-.003.3866-.319.6972-.706.6937-.386-.0035-.697-.3197-.694-.7063l.231-25.6368c.004-.3865.32-.6971.707-.6936zm-.568 62.2604c.387 0 .7.314.7.7v27.378c0 .387-.313.7-.7.7-.386 0-.7-.313-.7-.7v-27.378c0-.386.314-.7.7-.7z" fill="#000" fill-rule="evenodd"/><path d="m376.833 27.7005v-23.33331l41.067 5.59998v23.33333z" fill="#fff"/><path clip-rule="evenodd" d="m376.109.817383c.387 0 .7.313397.7.699997v76.58282c0 .3866-.313.7-.7.7-.386 0-.7-.3134-.7-.7v-76.58282c0-.3866.314-.699997.7-.699997z" fill="#000" fill-rule="evenodd"/><path clip-rule="evenodd" d="m373.098 0c.387 0 .7.3134.7.699998v78.800402c0 .3866-.313.7-.7.7-.386 0-.7-.3134-.7-.7v-78.800402c0-.386598.314-.699998.7-.699998z" fill="#000" fill-rule="evenodd"/><path clip-rule="evenodd" d="m372.408 1.40574c.061-.38164.421-.640992.802-.579275 3.663.592405 12.633 1.611885 22.147 2.690595l.398.04506c9.378 1.06322 19.205 2.17727 24.86 2.98521.383.05468.649.40925.594.79196s-.409.64864-.792.59397c-5.635-.80503-15.448-1.91749-24.843-2.98267l-.374-.04244c-9.491-1.07601-18.508-2.10038-22.213-2.69964-.382-.06172-.641-.42113-.579-.80277z" fill="#000" fill-rule="evenodd"/><path clip-rule="evenodd" d="m375.674 24.323c.047-.3837.396-.6567.78-.6097 10.006 1.2251 20.957 2.758 31.424 4.2229 3.559.4981 7.062.9884 10.452 1.456.383.0528.651.4061.598.7891s-.406.6506-.789.5978c-3.397-.4685-6.904-.9594-10.466-1.4579-10.463-1.4644-21.397-2.9948-31.389-4.2183-.384-.047-.657-.3962-.61-.7799z" fill="#000" fill-rule="evenodd"/><path clip-rule="evenodd" d="m417.245 4.90527c.387 0 .7.3134.7.7v24.84023c0 .3866-.314.7-.7.6999-.387 0-.7-.3134-.7-.7 0-5.2191 0-14.212 0-24.84012 0-.3866.314-.7.7-.70001z" fill="#000" fill-rule="evenodd"/><path d="m346.462 203.811v-13.235l20.374-6.921 44.135-.658 11.113 9.713v13.876l-16.651 9.019h-42.32z" fill="#fff"/><g clip-rule="evenodd" fill-rule="evenodd"><path d="m341.755 199.82c.245-.3.686-.344.985-.1 4.197 3.426 7.345 6.091 10.265 8.563l.001.001c2.92 2.471 5.609 4.748 8.896 7.404.3.243.347.684.104.985-.243.3-.683.347-.984.104-3.3-2.667-6-4.952-8.919-7.423l-.002-.002c-2.919-2.471-6.059-5.129-10.246-8.547-.299-.245-.344-.686-.1-.985z" fill="#000"/><path d="m406.68 216.303c-9.773-.151-36.085-.557-44.967-.694-.386-.006-.695-.324-.689-.711.006-.386.325-.695.711-.689 8.881.137 35.193.543 44.967.694.386.006.695.324.689.711-.006.386-.324.695-.711.689z" fill="#000"/><path d="m346.666 186.597c.386 0 .7.313.7.7v20.675c0 .387-.314.7-.7.7-.387 0-.7-.313-.7-.7v-20.675c0-.387.313-.7.7-.7z" fill="#000"/><path d="m363.112 197.56c.387 0 .7.313.7.7v15.957c0 .386-.313.7-.7.7-.386 0-.7-.314-.7-.7v-15.957c0-.387.314-.7.7-.7z" fill="#000"/><path d="m405.431 196.864c.387 0 .7.314.7.7v19.426c0 .387-.313.7-.7.7-.386 0-.7-.313-.7-.7v-19.426c0-.386.314-.7.7-.7z" fill="#000"/><path d="m422.083 187.152c.386 0 .7.314.7.7v19.426c0 .387-.314.7-.7.7-.387 0-.7-.313-.7-.7v-19.426c0-.386.313-.7.7-.7z" fill="#000"/><path d="m344.903 188.704c.209-.325.642-.419.968-.21 6.173 3.969 8.509 5.444 11.353 7.241 1.631 1.03 3.428 2.165 6.211 3.936.326.208.422.641.215.967-.208.326-.64.422-.967.215-2.775-1.767-4.571-2.901-6.202-3.931-2.848-1.799-5.19-3.279-11.367-7.25-.326-.209-.42-.642-.211-.968z" fill="#000"/><path d="m362.358 200.262c0-.386.314-.7.7-.699h43.015c.387-.001.7.313.7.699 0 .387-.313.7-.7.7-9.019.001-34.819.001-43.015 0-.386 0-.7-.313-.7-.7z" fill="#000"/><path d="m406.412 179.885c.229-.312.667-.379.978-.151l-.414.565-.414.564c-.311-.228-.379-.667-.15-.978zm.564.414c-.414.564-.414.564-.414.564l.526.386c.339.248.829.606 1.434 1.049 1.21.886 2.882 2.109 4.729 3.457 3.693 2.695 8.088 5.891 10.886 7.889.314.225.751.152.976-.162.225-.315.152-.752-.163-.977-2.791-1.994-7.18-5.186-10.873-7.881-1.847-1.347-3.518-2.57-4.728-3.455-.605-.443-1.095-.802-1.433-1.05l-.526-.385s0 0-.414.565z" fill="#000"/><path d="m374.104 180.877c.122.367-.076.763-.443.886-7.177 2.392-24.731 8.775-28.708 10.366-.359.144-.766-.031-.91-.39-.143-.359.031-.766.39-.91 4.009-1.603 21.589-7.996 28.785-10.394.367-.123.763.076.886.442z" fill="#000"/><path d="m392.316 183.269c-8.902.063-17.849.126-26.862.126-.387 0-.7-.314-.7-.7 0-.387.313-.7.7-.7 9.007 0 17.949-.063 26.852-.126l.127-.001c8.86-.062 17.681-.124 26.484-.124.386 0 .7.314.7.7 0 .387-.314.7-.7.7-8.798 0-17.615.062-26.476.124z" fill="#000"/><path d="m426.923 190.367c.173.345.032.766-.313.939-5.322 2.661-10.117 4.82-14.713 6.89-2.598 1.17-5.132 2.311-7.661 3.498-.35.164-.767.014-.931-.336s-.014-.767.336-.931c2.569-1.206 5.12-2.354 7.724-3.527 4.575-2.06 9.316-4.195 14.619-6.846.345-.173.766-.033.939.313zm-1.44 15.211c.173.346.033.766-.313.939l-.006.003c-8.321 4.161-13.878 6.939-20.928 10.247-.35.165-.767.014-.931-.336s-.014-.767.336-.931c7.034-3.301 12.577-6.072 20.903-10.235.346-.173.766-.033.939.313z" fill="#000"/><path d="m352.209 192.731c.371.109.583.498.474.869l-3.469 11.795c-.109.37-.498.583-.869.474-.371-.11-.583-.499-.474-.87l3.469-11.794c.109-.371.498-.583.869-.474zm4.834 2.769c.374.096.6.478.503.853-.553 2.148-1.346 4.362-2.122 6.529l-.006.017c-.779 2.173-1.539 4.297-2.061 6.322-.096.374-.478.599-.852.503-.375-.097-.6-.478-.504-.853.538-2.087 1.317-4.261 2.086-6.409l.019-.052c.78-2.179 1.55-4.332 2.084-6.407.097-.374.479-.599.853-.503zm4.894 3.479c.368.117.572.511.455.879l-4.255 13.392c-.117.369-.51.573-.879.456-.368-.117-.572-.511-.455-.88l4.255-13.391c.117-.369.51-.573.879-.456z" fill="#000"/><path d="m380.312 199.663c.374.097.599.478.503.853-.63 2.443-1.234 4.873-1.835 7.293l-.01.042c-.598 2.405-1.193 4.8-1.807 7.183-.097.374-.478.599-.853.503-.374-.097-.599-.478-.503-.853.613-2.376 1.207-4.766 1.805-7.174l.009-.038c.601-2.42 1.207-4.856 1.838-7.306.097-.374.478-.599.853-.503zm-5.925 0c.374.097.599.478.503.853-.634 2.459-1.312 4.883-1.984 7.283l-.012.044c-.669 2.387-1.331 4.751-1.94 7.117-.097.375-.478.6-.853.503-.374-.096-.599-.478-.503-.852.613-2.38 1.278-4.756 1.946-7.139l.014-.05c.672-2.402 1.346-4.812 1.976-7.256.097-.374.478-.599.853-.503zm-6.552.697c.372.104.59.49.486.863l-3.842 13.751c-.104.372-.49.59-.862.486-.373-.104-.59-.491-.486-.863l3.841-13.751c.104-.372.491-.59.863-.486z" fill="#000"/><path d="m397.393 200.363c.375.097.6.478.503.853l-3.58 13.894c-.097.375-.478.6-.853.503-.374-.096-.599-.478-.503-.852l3.581-13.895c.096-.374.478-.599.852-.503zm-6.244 0c.374.097.6.478.503.853l-3.58 13.894c-.097.374-.479.6-.853.503-.374-.096-.6-.478-.503-.852l3.58-13.895c.097-.374.479-.599.853-.503zm-5.55-.025c.374.097.599.479.503.853l-3.581 13.894c-.096.375-.478.6-.852.503-.375-.096-.6-.478-.503-.852l3.58-13.894c.097-.375.478-.6.853-.504z" fill="#000"/><path d="m416.168 194.807c.375.096.6.478.503.852l-4.112 15.957c-.096.375-.478.6-.852.503-.375-.096-.6-.478-.503-.852l4.112-15.957c.096-.374.478-.6.852-.503zm-6.375 3.475c.37.11.582.499.472.87l-4.924 16.651c-.109.371-.499.582-.869.473-.371-.11-.583-.5-.473-.87l4.924-16.651c.109-.371.499-.582.87-.473zm-6.565 2.075c.374.096.6.478.503.853l-3.754 14.569c-.097.374-.479.6-.853.503-.374-.096-.6-.478-.503-.852l3.754-14.57c.097-.374.479-.6.853-.503z" fill="#000"/><path d="m421.718 192.033c.374.097.599.479.502.853l-4.316 16.651c-.097.374-.479.599-.853.502-.375-.097-.599-.479-.502-.854l4.316-16.651c.097-.374.479-.598.853-.501z" fill="#000"/><path d="m379.27 190.974h-5.474l-5.892-7.268 3.654-3.842v-9.676h-3.654l3.654-12.669h4.059l3.653-3.247v-6.495l8.93-4.871 4.871 3.273v5.657l3.248-5.657 6.745 3.222 1.779 8.118-4.059 3.654v6.494h4.059l-1.779 12.197-5.258-1.444-4.735 5.286 1.432 7.268-7.929 3.304-7.304-1.322zm4.238-22.875 5.015-3.344 3.343 1.672-2.229 6.686-3.9 2.786-2.229-1.114z" fill="#fff"/><path d="m367.286 169.576c.121-.368.516-.568.883-.447.599.196 1.201.32 1.87.448 1.985.377 3.973.709 5.97 1.041.924.154 1.85.308 2.779.468.381.065.637.427.572.808-.066.381-.428.637-.809.571-.914-.156-1.832-.309-2.752-.463-2.006-.334-4.021-.669-6.022-1.05-.674-.128-1.352-.266-2.044-.493-.367-.12-.567-.516-.447-.883z" fill="#000"/><path d="m369.241 157.162c.062-.381.421-.641.803-.58.708.114 1.377.242 2.104.468 2.225.695 4.437 1.462 6.637 2.224 1 .346 1.997.692 2.992 1.029.366.125.562.522.438.888s-.522.562-.888.438c-1.013-.344-2.021-.693-3.026-1.041-2.188-.759-4.366-1.513-6.57-2.201-.633-.198-1.227-.313-1.91-.423-.381-.061-.641-.42-.58-.802z" fill="#000"/><path d="m378.004 147.238c.121-.367.517-.567.884-.446 2.309.76 4.671 1.345 7.055 1.935.994.247 1.992.494 2.991.755.374.098.598.48.5.854-.097.374-.48.598-.854.5-.961-.251-1.937-.492-2.919-.736-2.406-.596-4.849-1.201-7.211-1.978-.367-.121-.567-.517-.446-.884z" fill="#000"/><path d="m385.398 142.258c.134-.362.537-.547.899-.412 2.335.867 4.687 1.685 7.047 2.505l1.587.552c.365.128.558.527.431.892-.128.365-.527.558-.892.43-.526-.183-1.053-.366-1.581-.55-2.36-.82-4.729-1.644-7.079-2.517-.362-.134-.547-.537-.412-.9z" fill="#000"/><path d="m395.191 146.213c.09-.376.467-.609.843-.519 1.855.442 3.692 1.065 5.484 1.673.689.234 1.371.466 2.046.684.367.119.569.514.45.881-.119.368-.514.57-.881.451-.717-.232-1.424-.472-2.127-.711-1.769-.6-3.51-1.191-5.296-1.616-.376-.09-.608-.467-.519-.843z" fill="#000"/><path d="m400.508 167.644c.092-.375.472-.605.847-.512.728.179 1.461.358 2.195.538.861.21 1.722.421 2.579.633.376.093.605.472.512.847-.093.376-.472.605-.848.512-.859-.212-1.715-.422-2.572-.631-.732-.179-1.465-.358-2.201-.54-.375-.092-.605-.472-.512-.847z" fill="#000"/><path d="m397.353 178.374c.087-.377.463-.612.84-.525 1.225.283 2.45.604 3.663.922.559.146 1.115.292 1.667.433.374.096.6.477.505.851-.096.375-.477.601-.852.506-.57-.146-1.136-.294-1.7-.442-1.202-.315-2.393-.628-3.598-.906-.377-.087-.612-.462-.525-.839z" fill="#000"/><path d="m394.141 182.614c.381-.061.741.199.802.58.075.468.123.9.134 1.397.039 1.758.015 3.526-.009 5.28-.011.819-.022 1.636-.026 2.446-.002.386-.317.698-.704.696s-.698-.317-.696-.704c.005-.834.016-1.663.027-2.489.023-1.739.047-3.465.008-5.198-.009-.419-.049-.786-.116-1.205-.062-.382.198-.741.58-.803z" fill="#000"/><path d="m386.541 187.021c.385-.03.722.257.752.643.122 1.55.156 3.141.189 4.707.021.976.042 1.942.083 2.883.017.386-.282.713-.668.73-.387.017-.714-.282-.731-.668-.044-1.014-.065-2.006-.085-2.99-.032-1.524-.064-3.027-.183-4.553-.031-.385.257-.722.643-.752z" fill="#000"/><path d="m383.825 186.931c.285.261.305.704.044.989-.398.436-.792.894-1.195 1.365-.032.038-.064.075-.097.113-.37.433-.749.876-1.137 1.31-.845.942-1.762 1.869-2.814 2.623-.314.226-.751.153-.976-.161-.226-.314-.153-.751.161-.977.929-.666 1.766-1.505 2.586-2.42.377-.421.746-.852 1.118-1.287.032-.037.064-.074.096-.111.402-.471.809-.945 1.225-1.399.261-.286.704-.305.989-.045z" fill="#000"/><path d="m380.624 179.047c.262.284.244.727-.04.989-.577.532-1.162 1.044-1.741 1.551-1.451 1.271-2.867 2.511-4.045 3.96-.244.3-.685.346-.985.102s-.345-.685-.102-.985c1.258-1.548 2.814-2.91 4.297-4.209.559-.489 1.108-.97 1.627-1.448.284-.262.727-.244.989.04z" fill="#000"/><path d="m378.975 170.006c.38.069.632.433.563.813-.652 3.586-.083 7.186.271 9.421.024.15.046.293.067.43.06.382-.202.74-.584.799s-.74-.202-.799-.584c-.022-.14-.045-.289-.07-.445-.353-2.223-.959-6.04-.262-9.871.069-.38.433-.633.814-.563z" fill="#000"/><path d="m387.748 155.943c.187.338.066.764-.272.952-3.118 1.732-4.294 3.347-5.141 4.787-.196.333-.625.445-.959.249-.333-.196-.444-.625-.248-.959.954-1.622 2.3-3.43 5.668-5.301.338-.188.764-.066.952.272z" fill="#000"/><path d="m386.61 148.288c.387.009.693.329.685.715-.01.448-.02.896-.03 1.344-.061 2.795-.123 5.585-.15 8.376-.004.386-.32.697-.707.693s-.697-.32-.693-.707c.027-2.8.089-5.599.151-8.394.01-.447.019-.895.029-1.342.009-.387.329-.693.715-.685z" fill="#000"/><path d="m393.35 144.954c.387 0 .7.314.7.7v8.017c0 .386-.313.7-.7.7-.386 0-.7-.314-.7-.7v-8.017c0-.386.314-.7.7-.7z" fill="#000"/><path d="m391.75 152.951c0-.387.313-.7.7-.7.827 0 1.828.121 2.78.442.948.32 1.9.858 2.554 1.73.232.309.169.748-.14.98-.309.231-.748.169-.98-.14-.428-.57-1.097-.978-1.882-1.243-.782-.265-1.628-.369-2.332-.369-.387 0-.7-.313-.7-.7z" fill="#000"/><path d="m404.838 146.244c.271.276.268.719-.007.99-.659.651-1.318 1.304-1.977 1.957-1.538 1.523-3.078 3.05-4.633 4.558-.446.432-.879.822-1.388 1.203-.309.232-.748.17-.98-.14-.232-.309-.169-.748.14-.98.446-.334.833-.68 1.254-1.088 1.549-1.503 3.08-3.021 4.615-4.541.661-.655 1.322-1.31 1.986-1.965.275-.272.718-.269.99.006z" fill="#000"/><path d="m406.813 155.067c.275.272.277.715.005.99-.537.541-1.074 1.072-1.609 1.6-1.16 1.144-2.307 2.276-3.395 3.472-.138.152-.238.326-.348.573-.156.354-.569.514-.923.357-.353-.156-.513-.569-.357-.923.14-.317.313-.641.593-.948 1.113-1.226 2.305-2.402 3.479-3.56.529-.522 1.053-1.039 1.565-1.556.272-.275.716-.277.99-.005z" fill="#000"/><path d="m401.748 147.567c.338-.188.764-.067.952.271.474.849.684 1.694.893 2.531.012.048.024.095.036.142.184.738.346 1.462.506 2.176.271 1.21.535 2.393.895 3.574.011.037.022.066.032.088.003.005.005.01.007.015.33.142.502.516.386.863-.122.367-.519.565-.885.443-.575-.192-.791-.712-.879-1-.373-1.222-.661-2.509-.942-3.762-.157-.702-.312-1.394-.479-2.057-.007-.03-.014-.059-.022-.088-.22-.881-.39-1.56-.771-2.244-.188-.337-.067-.764.271-.952z" fill="#000"/><path d="m400.674 159.923c.378-.084.752.154.835.532.729 3.278.987 5.714-.025 8.497-.132.363-.534.551-.897.419s-.551-.534-.419-.897c.873-2.399.687-4.509-.025-7.716-.084-.377.154-.751.531-.835z" fill="#000"/><path d="m404.413 167.752c.382-.06.74.202.799.584.338 2.173-.075 4.651-.68 6.898-.542 2.016-1.258 3.913-1.787 5.313-.063.168-.124.329-.181.482-.136.362-.54.545-.902.41-.362-.136-.545-.54-.409-.902.058-.155.119-.317.183-.485.53-1.405 1.221-3.236 1.744-5.182.589-2.189.941-4.439.649-6.319-.06-.382.202-.74.584-.799z" fill="#000"/><path d="m398.375 176.617c.361.139.541.544.402.905-.626 1.627-1.218 2.878-2.015 4.007-.798 1.131-1.78 2.109-3.151 3.221-.301.243-.742.197-.985-.103s-.197-.741.103-.985c1.312-1.063 2.19-1.95 2.89-2.941.701-.993 1.244-2.122 1.851-3.702.139-.361.544-.541.905-.402z" fill="#000"/><path d="m396.298 190.29c.153.355-.012.767-.367.919-1.532.656-2.678 1.133-3.644 1.535-1.822.759-2.998 1.248-4.897 2.166-.61.295-1.05.422-1.671.525-.381.064-.742-.194-.805-.575-.064-.381.194-.742.575-.806.504-.083.814-.174 1.292-.405 1.933-.934 3.156-1.443 5.006-2.213.964-.402 2.098-.874 3.592-1.514.356-.152.767.012.919.368z" fill="#000"/><path d="m379.415 193.12c.051-.383.403-.653.786-.602 1.25.165 2.483.454 3.676.734.132.031.264.062.395.093 1.33.31 2.616.592 3.912.7.385.033.671.371.639.756s-.37.672-.755.64c-1.409-.118-2.785-.423-4.114-.733-.131-.03-.262-.061-.392-.092-1.204-.282-2.368-.554-3.545-.71-.383-.051-.652-.403-.602-.786z" fill="#000"/><path d="m379.74 189.729c.382-.055.737.211.792.594.051.358.1.713.148 1.065.095.697.19 1.385.3 2.076.061.381-.199.74-.58.802-.382.061-.741-.199-.802-.581-.113-.706-.211-1.422-.308-2.128-.048-.348-.095-.695-.144-1.036-.055-.383.211-.738.594-.792z" fill="#000"/><path d="m378.584 158.633c.294.252.328.694.076.987-.971 1.133-1.84 3.253-2.419 5.611-.574 2.342-.828 4.779-.658 6.474.038.385-.243.728-.627.767-.385.038-.728-.243-.767-.627-.19-1.908.096-4.515.693-6.947.592-2.416 1.525-4.8 2.715-6.189.252-.293.694-.327.987-.076z" fill="#000"/><path d="m372.699 156.75c.34.185.465.61.28.949-2.126 3.897-3.615 8.419-3.518 12.71.009.386-.297.707-.684.716-.386.008-.707-.298-.715-.684-.105-4.615 1.49-9.382 3.688-13.412.185-.339.61-.464.949-.279z" fill="#000"/><path d="m379.622 154.983c.269.278.263.721-.015.99-.29.281-.581.566-.873.852-.953.933-1.922 1.882-2.935 2.774-.29.255-.732.227-.988-.063-.255-.29-.227-.732.063-.988.982-.865 1.915-1.778 2.862-2.705.297-.291.595-.583.897-.875.277-.269.72-.262.989.015z" fill="#000"/><path d="m379.3 147.027c.387 0 .7.314.7.7 0 1.381-.052 2.77-.104 4.143-.024.632-.048 1.26-.066 1.883l-.001.026c-.011.371-.014.484.045.663.123.366-.076.763-.442.885-.367.122-.764-.076-.886-.443-.141-.422-.129-.772-.118-1.087.001-.029.002-.057.003-.086.019-.647.043-1.289.067-1.927.052-1.359.102-2.703.102-4.057 0-.386.314-.7.7-.7z" fill="#000"/><path d="m377.459 154.909c.113-.37.504-.578.874-.465 1.442.439 2.733.756 3.984 1.062.072.018.144.036.217.053 1.314.323 2.594.643 3.931 1.088.366.122.565.519.442.886-.122.366-.518.565-.885.442-1.276-.425-2.506-.733-3.822-1.056-.074-.018-.149-.036-.223-.055-1.247-.305-2.572-.63-4.052-1.081-.37-.113-.578-.504-.466-.874z" fill="#000"/><path d="m397.696 144.707c.324.211.415.645.204.969-.468.718-.936 1.433-1.404 2.146-.888 1.354-1.773 2.704-2.646 4.065-.209.325-.642.42-.967.211-.326-.209-.42-.642-.212-.967.877-1.367 1.769-2.728 2.66-4.085.467-.712.933-1.424 1.396-2.134.212-.324.645-.416.969-.205z" fill="#000"/><path d="m388.661 142.364c.176.344.04.766-.305.942-1.117.572-2.24 1.125-3.359 1.676-2.302 1.134-4.588 2.26-6.788 3.531-.334.193-.762.079-.956-.256-.193-.335-.079-.763.256-.956 2.239-1.294 4.598-2.456 6.924-3.602 1.108-.546 2.209-1.089 3.286-1.64.344-.176.765-.04.942.305z" fill="#000"/><path d="m397.099 143.666c.203.329.1.761-.229.963-1.582.974-3.211 1.872-4.822 2.76-.344.19-.688.379-1.031.569-.429.238-.865.488-1.308.741-1.287.737-2.625 1.503-4.007 2.101-.355.154-.767-.009-.92-.364-.154-.354.009-.767.363-.92 1.305-.565 2.544-1.274 3.811-2 .456-.261.915-.523 1.383-.782.348-.194.696-.385 1.043-.577 1.61-.887 3.203-1.766 4.754-2.72.329-.203.76-.1.963.229z" fill="#000"/><path d="m372.904 170.806c.387 0 .7.313.7.7 0 1.188.088 2.378.178 3.597l.001.013c.09 1.207.181 2.443.181 3.686 0 .386-.313.7-.7.7-.386 0-.7-.314-.7-.7 0-1.187-.087-2.376-.178-3.596l-.001-.011c-.089-1.207-.181-2.445-.181-3.689 0-.387.314-.7.7-.7z" fill="#000"/><path d="m371.759 178.474c.094-.375.474-.603.849-.51 1.664.416 3.181.758 5.032 1.174.932.21 1.949.439 3.112.706.377.086.612.462.526.839-.087.376-.462.612-.839.525-1.147-.263-2.157-.49-3.086-.699-1.863-.42-3.404-.766-5.084-1.186-.375-.094-.603-.474-.51-.849z" fill="#000"/><path d="m374.015 177.842c.281.266.293.71.027.99-1.283 1.352-2.569 2.706-3.868 4.049-.104.107-.21.219-.32.335-.462.491-.979 1.039-1.591 1.471-.316.223-.753.148-.976-.168s-.147-.753.169-.976c.486-.343.882-.762 1.335-1.241.12-.127.245-.259.377-.395 1.294-1.337 2.576-2.686 3.858-4.038.266-.281.709-.293.989-.027z" fill="#000"/><path d="m366.808 183.831c.058-.382.414-.645.797-.588 1.464.222 2.713.47 4.057.74.036.007.073.014.111.022 1.312.263 2.727.547 4.545.85.382.063.639.424.576.805-.064.382-.425.639-.806.576-1.841-.307-3.275-.595-4.587-.858-.038-.007-.077-.015-.115-.023-1.344-.269-2.564-.512-3.991-.727-.382-.058-.645-.415-.587-.797z" fill="#000"/><path d="m381.953 186.826c.095-.375.476-.602.851-.506 1.857.471 3.746.599 5.718.7.386.019.683.348.664.734-.02.386-.349.683-.735.664-1.972-.101-3.986-.233-5.991-.741-.375-.096-.602-.476-.507-.851z" fill="#000"/><path d="m373.933 184.269c.313-.228.751-.159.978.154 1.017 1.396 1.953 2.864 2.875 4.312.423.664.844 1.324 1.268 1.971.113.173.208.325.299.473.12.194.235.38.381.592.233.337.46.606.706.791.309.231.372.67.14.98-.232.309-.671.371-.98.14-.424-.318-.752-.731-1.018-1.116-.15-.217-.314-.48-.459-.713-.089-.144-.172-.276-.239-.379-.447-.681-.879-1.359-1.308-2.033-.91-1.427-1.805-2.833-2.796-4.194-.228-.313-.159-.75.153-.978z" fill="#000"/><path d="m367.225 183.493c.293-.252.735-.218.987.076 1.653 1.929 3.322 4 4.806 5.842.464.576.91 1.129 1.331 1.648.244.3.198.741-.102.985-.301.243-.742.198-.985-.103-.428-.527-.877-1.085-1.344-1.664-1.482-1.839-3.131-3.886-4.769-5.797-.252-.294-.218-.736.076-.987z" fill="#000"/><path d="m371.664 190.946c.008-.386.327-.694.714-.686 1.319.025 2.592.36 3.78.687.082.023.164.046.246.068 1.121.311 2.166.6 3.224.688.385.032.672.371.639.756-.032.385-.37.672-.755.64-1.196-.1-2.363-.424-3.457-.727-.09-.026-.18-.051-.27-.075-1.197-.331-2.313-.616-3.434-.637-.387-.008-.694-.327-.687-.714z" fill="#000"/><path d="m382.237 173.808c.221-.318.657-.397.975-.176.481.334.939.651 1.377.954 2.504 1.731 4.372 3.023 6.238 4.578.297.247.337.688.089.985-.247.297-.689.338-.986.09-1.813-1.511-3.623-2.763-6.129-4.496-.44-.304-.901-.623-1.388-.961-.317-.221-.396-.657-.176-.974z" fill="#000"/><path d="m384.691 165.315c.385.043.661.389.619.773-.141 1.268-.284 2.782-.428 4.305-.218 2.31-.438 4.641-.656 6.165-.055.383-.409.649-.792.594s-.649-.409-.594-.792c.215-1.502.427-3.755.641-6.028.145-1.532.29-3.073.437-4.399.043-.384.389-.661.773-.618z" fill="#000"/><path d="m391.653 161.978c.237.305.182.745-.123.983-.64.497-1.977 1.447-3.38 2.444-.206.146-.413.293-.62.44-1.638 1.165-3.234 2.309-3.911 2.868-.298.246-.739.203-.985-.095s-.204-.739.094-.985c.726-.599 2.375-1.78 3.991-2.928.207-.148.414-.295.619-.441 1.412-1.003 2.719-1.931 3.332-2.409.305-.237.745-.182.983.123z" fill="#000"/><path d="m388.164 161.855c.205-.327.638-.426.965-.22 1.599 1.004 3.324 1.797 5.083 2.606.722.332 1.45.667 2.176 1.02.2.097.414.188.652.289.126.054.258.11.398.172.381.167.801.365 1.165.607.321.214.408.649.194.971-.215.321-.649.408-.971.194-.256-.171-.581-.328-.95-.49-.109-.048-.224-.097-.342-.147-.258-.11-.527-.225-.757-.337-.669-.325-1.362-.643-2.065-.967-1.791-.824-3.647-1.677-5.328-2.733-.327-.205-.426-.637-.22-.965z" fill="#000"/><path d="m396.388 174.306c.194.335.081.763-.254.957-.35.204-1.076.644-1.96 1.178-2.061 1.248-4.98 3.015-6.005 3.527-.345.173-.766.033-.939-.313s-.032-.766.313-.939c.974-.487 3.729-2.155 5.773-3.392.932-.564 1.716-1.039 2.115-1.271.334-.194.763-.081.957.253z" fill="#000"/><path d="m396.654 164.969c.378.084.616.458.532.835-.356 1.6-.623 3.203-.894 4.827l-.001.009c-.269 1.616-.542 3.252-.907 4.892-.083.377-.457.615-.835.531-.377-.083-.615-.457-.531-.835.355-1.6.623-3.203.893-4.827l.002-.009c.269-1.615.542-3.252.906-4.892.084-.377.458-.615.835-.531z" fill="#000"/><path d="m391.874 164.786c.378.079.62.451.541.829-.059.277-.117.554-.175.832-.216 1.031-.433 2.069-.668 3.102-.095.414-.19.825-.285 1.233-.18.771-.358 1.536-.524 2.309l-.027.122c-.006.031-.01.05-.012.064-.004.019-.006.035-.006.075 0 .387-.313.7-.7.7-.386 0-.7-.313-.7-.7 0-.213.031-.352.063-.495.004-.02.009-.04.013-.06.169-.784.352-1.57.533-2.349.094-.405.188-.809.28-1.21.232-1.019.446-2.042.661-3.071.059-.28.118-.56.177-.841.079-.378.451-.62.829-.54z" fill="#000"/><path d="m391.035 173.101c.188.338.066.764-.272.952-.682.379-1.405.706-2.095 1.018-.213.097-.423.192-.628.287-.21.097-.424.198-.64.3-.7.331-1.432.676-2.178.96-.361.137-.765-.044-.903-.406-.137-.361.044-.765.406-.903.689-.262 1.352-.575 2.042-.901.225-.106.453-.213.685-.321.229-.106.455-.208.677-.309.678-.306 1.327-.6 1.954-.949.338-.187.764-.066.952.272z" fill="#000"/><path d="m387.95 164.256c.173-.346.593-.486.939-.313l.003.002c1.432.715 2.133 1.066 3.907 1.776.359.143.534.551.39.91-.143.359-.551.533-.91.39-1.827-.731-2.567-1.101-4.016-1.826-.346-.173-.486-.593-.313-.939z" fill="#000"/><path d="m398.641 165.947c.035.385-.248.726-.633.761-1.908.174-4.725.318-6.91.318-.386 0-.7-.314-.7-.7 0-.387.314-.7.7-.7 2.139 0 4.913-.142 6.782-.313.385-.035.726.249.761.634z" fill="#000"/><path d="m388.526 172.964c.09-.376.467-.609.843-.519.411.098.819.196 1.226.295.957.231 1.908.461 2.867.673.169.038.337.076.504.113.894.202 1.741.393 2.607.48.384.038.665.381.626.766-.038.385-.381.665-.766.627-.958-.096-1.902-.309-2.794-.511-.162-.037-.322-.073-.48-.108-.973-.215-1.944-.45-2.908-.683-.403-.097-.806-.195-1.206-.29-.376-.09-.609-.467-.519-.843z" fill="#000"/><path d="m396.287 170.842c-.081.377-.453.618-.831.537-1.665-.358-3.319-.717-4.973-1.082-.377-.083-.616-.457-.533-.835.084-.377.457-.616.835-.532 1.65.364 3.302.722 4.965 1.08.378.081.619.454.537.832zm-2.445-6.981c.147.357-.023.766-.38.914-1.196.493-2.215.887-2.982 1.171-.362.135-.765-.05-.9-.412-.134-.363.051-.766.413-.9.751-.279 1.755-.667 2.935-1.153.357-.148.767.022.914.38z" fill="#000"/><path d="m392.285 177.342c-.16.352-.575.508-.927.348l-4.778-2.173c-.352-.16-.507-.575-.347-.927s.575-.507.927-.347l4.778 2.172c.352.16.507.575.347.927z" fill="#000"/><path d="m387.106 190.894c-.062.381-.422.641-.804.579l-5.192-.843c-.382-.062-.641-.421-.579-.803s.421-.641.803-.579l5.193.843c.381.062.64.421.579.803zm-10.209-2.121c-.05.384-.4.655-.784.606l-5.404-.693c-.384-.049-.655-.4-.605-.783.049-.384.399-.655.783-.606l5.404.693c.384.049.655.4.606.783z" fill="#000"/><path d="m400.958 151.548c-.098.374-.48.598-.854.501-1.087-.284-1.988-.569-2.824-.839-.105-.034-.208-.068-.311-.101-.72-.233-1.395-.453-2.128-.655-.373-.103-.591-.489-.488-.861.103-.373.488-.592.861-.489.764.212 1.471.441 2.189.674.102.033.205.066.308.1.829.268 1.699.543 2.746.816.374.097.599.48.501.854z" fill="#000"/><path d="m377.516 182.55c-.079.378-.45.621-.828.542-1.05-.219-1.975-.429-2.88-.636-.064-.015-.128-.03-.192-.044-.84-.192-1.668-.382-2.578-.575-.378-.081-.619-.452-.539-.831.081-.378.452-.619.831-.539.92.196 1.758.388 2.596.58.065.014.13.029.194.044.905.207 1.818.414 2.854.63.378.079.621.45.542.829zm1.297-6.86c-.082.378-.454.618-.832.537l-4.684-1.013c-.378-.082-.618-.455-.536-.832.082-.378.454-.618.832-.537l4.684 1.013c.378.082.618.455.536.832z" fill="#000"/><path d="m376.025 166.99c-.08.378-.451.621-.829.541l-6.578-1.379c-.378-.079-.621-.45-.541-.828.079-.379.45-.621.828-.542l6.578 1.379c.379.079.621.45.542.829zm.619-3.951c-.082.377-.456.616-.833.533l-5.405-1.186c-.377-.082-.616-.456-.533-.833.082-.378.456-.617.833-.534l5.405 1.186c.377.083.616.456.533.834z" fill="#000"/><path d="m386.977 153.377c-.079.378-.449.622-.828.543l-7.578-1.572c-.378-.078-.622-.449-.543-.828.079-.378.449-.621.828-.543l7.578 1.572c.378.079.621.449.543.828zm-3.843 6.061c-.136.362-.54.545-.902.409l-5.019-1.882c-.362-.136-.546-.539-.41-.901s.539-.546.901-.41l5.02 1.883c.362.135.545.539.41.901z" fill="#000"/><path d="m391.306 147.76c-.107.37-.493.584-.864.478-1.16-.331-2.049-.596-2.776-.817l-4.623-1.361c-.366-.107-.578-.488-.478-.855.1-.368.476-.588.845-.496 1.314.329 2.129.584 3.256.936.43.134.906.283 1.472.455l2.694.793c.37.109.582.496.474.867z" fill="#000"/></g><path d="m222.153 132.778v-83.4844l50.894-22.3219 72.323 14.286v80.3593l-46.876 25.893-17.857-3.125-.644-25.419-38.754 18.06z" fill="#fff"/><path clip-rule="evenodd" d="m240.172 83.7383c.387 0 .7.3134.7.7-.001 15.016 0 23.7517.001 32.8837v20.834c0 .386-.313.7-.7.7-.386 0-.7-.314-.7-.7 0-8.45 0-14.731 0-20.834-.001-9.132-.002-17.8677-.001-32.8838 0-.3866.314-.6999.7-.6999z" fill="#000" fill-rule="evenodd"/><path clip-rule="evenodd" d="m280.228 94.2266c.387 0 .7.3134.7.7-.001 14.8614-.001 22.2974 0 30.2934.001 5.482.001 11.227.001 19.809 0 .386-.313.7-.7.7s-.7-.314-.7-.701c0-8.58 0-14.325-.001-19.808-.001-7.995-.001-15.433 0-30.2935 0-.3866.313-.7.7-.6999z" fill="#000" fill-rule="evenodd"/><path clip-rule="evenodd" d="m222.425 47.374c.386.0001.7.3135.7.7001-.002 17.2753-.001 40.8206-.001 60.6909v23.691c0 .387-.313.7-.7.7-.386 0-.7-.313-.7-.7 0-6.548 0-14.748 0-23.692 0-19.8703-.001-43.4151.001-60.69 0-.3866.313-.7.7-.7z" fill="#000" fill-rule="evenodd"/><path clip-rule="evenodd" d="m299.302 50.3584c.386 0 .7.3134.7.7-.002 19.9742-.001 47.1979 0 70.1726v27.394c0 .387-.313.7-.7.7-.386 0-.7-.313-.7-.7 0-7.571 0-17.052 0-27.393-.001-22.9755-.002-50.1994 0-70.1737 0-.3866.313-.6999.7-.6999z" fill="#000" fill-rule="evenodd"/><path clip-rule="evenodd" d="m345.076 35.0986c.387.0001.7.3135.7.7001-.001 19.857-.001 41.5466 0 61.0826v25.1387c0 .387-.313.7-.7.7-.386 0-.7-.313-.7-.7 0-7.67 0-16.178 0-25.1386-.001-19.536-.001-41.2258 0-61.0828 0-.3866.314-.7.7-.7z" fill="#000" fill-rule="evenodd"/><path clip-rule="evenodd" d="m276.381 25.2107c.137.3614-.045.7656-.407.9028-13.534 5.1346-45.17 18.7041-58.108 24.2531-.556.2384-1.077.4621-1.561.6696-.355.1523-.767-.0122-.919-.3675s.012-.7669.367-.9192c.487-.2088 1.012-.4339 1.572-.6741 12.932-5.5468 44.588-19.1249 58.153-24.2709.361-.1371.765.0447.903.4062z" fill="#000" fill-rule="evenodd"/><path clip-rule="evenodd" d="m353.341 36.4536c.164.3497.014.7668-.335.9315-22.986 10.8306-35.498 16.7158-61.039 28.6296-.351.1635-.767.0119-.931-.3384-.163-.3504-.011-.7669.339-.9303 25.539-11.9129 38.049-17.7972 61.034-28.6273.35-.1648.767-.0149.932.3349z" fill="#000" fill-rule="evenodd"/><path clip-rule="evenodd" d="m349.035 119.397c.18.342.049.765-.293.946-11.154 5.881-20.342 10.997-28.396 15.481-10.836 6.033-19.619 10.924-28.38 15-.35.163-.767.011-.93-.34-.163-.35-.011-.766.34-.93 8.729-4.061 17.435-8.91 28.218-14.914 8.05-4.483 17.257-9.61 28.495-15.536.342-.18.766-.049.946.293z" fill="#000" fill-rule="evenodd"/><path clip-rule="evenodd" d="m266.136 24.7733c.071-.38.436-.6309.816-.5602 10.072 1.8726 30.502 5.8479 50.676 9.7732 11.723 2.2812 23.36 4.5455 32.827 6.3703.379.0732.628.4403.554.8199-.073.3796-.44.628-.819.5548-9.474-1.8263-21.116-4.0915-32.842-6.3731-20.168-3.9242-40.585-7.897-50.652-9.7687-.38-.0707-.631-.4361-.56-.8162zm-51.924 21.8235c.07-.3802.436-.6312.816-.5607 3.573.6622 8.541 1.6084 14.434 2.7304 21.366 4.0689 54.88 10.4509 78.05 13.9973.382.0585.644.4157.586.7979-.059.3821-.416.6445-.798.586-23.199-3.5509-56.759-9.9417-78.122-14.01-5.884-1.1205-10.843-2.0648-14.405-2.7251-.38-.0705-.631-.4357-.561-.8158zm23.36 43.9276c.062-.3816.421-.641.803-.5794 11.246 1.8176 19.409 3.3142 28.046 4.8977 6.188 1.1344 12.618 2.3134 20.599 3.6868.381.0655.637.4275.571.8086-.065.3809-.427.6367-.808.5711-8.018-1.3797-14.454-2.5599-20.64-3.694-8.617-1.5802-16.748-3.0711-27.992-4.8881-.381-.0617-.641-.4211-.579-.8027z" fill="#000" fill-rule="evenodd"/><path clip-rule="evenodd" d="m221.748 132.272c.101-.373.486-.594.859-.493 5.58 1.515 11.087 2.838 16.654 3.999.379.079.621.45.542.829-.079.378-.449.621-.828.542-5.595-1.168-11.128-2.497-16.735-4.018-.373-.102-.593-.486-.492-.859z" fill="#000" fill-rule="evenodd"/><path clip-rule="evenodd" d="m275.736 142.43c.101-.373.485-.594.858-.492 8.911 2.418 22.111 5.01 31.222 6.578.381.065.637.427.571.808-.065.381-.428.637-.808.572-9.125-1.571-22.377-4.172-31.351-6.607-.373-.101-.594-.486-.492-.859z" fill="#000" fill-rule="evenodd"/><path clip-rule="evenodd" d="m317.473 53.0817c.375.0964.6.4781.504.8525l-17.465 67.7688c-.096.375-.478.6-.852.503-.375-.096-.6-.478-.503-.852l17.464-67.7692c.096-.3743.478-.5996.852-.5031zm-5.959 2.6786c.374.0965.6.4782.503.8525l-11.505 44.6442c-.096.374-.478.599-.852.503-.375-.097-.6-.478-.503-.853l11.505-44.6435c.096-.3744.478-.5997.852-.5032zm-5.256 2.5062c.374.0964.599.4781.503.8525l-7.178 27.8517c-.096.3743-.478.5996-.852.5032-.374-.0965-.6-.4782-.503-.8526l7.177-27.8517c.097-.3743.478-.5996.853-.5031z" fill="#000" fill-rule="evenodd"/><path clip-rule="evenodd" d="m334.771 45.0455c.375.0965.6.4782.503.8526l-24.62 95.5379c-.096.374-.478.6-.852.503-.375-.096-.6-.478-.504-.852l24.621-95.5383c.096-.3744.478-.5996.852-.5032zm-5.844 2.2322c.374.0965.6.4782.503.8526l-24.965 96.8777c-.097.374-.479.599-.853.503-.374-.097-.6-.478-.503-.853l24.965-96.8771c.097-.3744.479-.5996.853-.5032zm-5.301 2.6787c.375.0964.6.4781.503.8525l-24.063 93.3751c-.096.375-.478.6-.852.504-.375-.097-.6-.479-.503-.853l24.063-93.3755c.096-.3743.478-.5996.852-.5031z" fill="#000" fill-rule="evenodd"/><path clip-rule="evenodd" d="m345.471 42.367c.374.0964.6.4781.503.8525l-23.47 91.0735c-.096.374-.478.6-.852.503-.375-.096-.6-.478-.503-.852l23.469-91.0739c.097-.3743.479-.5996.853-.5031zm-4.611 0c.375.0964.6.4781.504.8525l-24.16 93.7525c-.097.374-.479.599-.853.503-.374-.097-.6-.478-.503-.853l24.16-93.7519c.096-.3743.478-.5996.852-.5031zm5.623 16.5182c.375.0965.6.4781.503.8525l-18.407 71.4303c-.097.374-.478.6-.853.503-.374-.096-.599-.478-.503-.853l18.408-71.4297c.096-.3743.478-.5996.852-.5031z" fill="#000" fill-rule="evenodd"/><path clip-rule="evenodd" d="m345.174 84.5321c.374.0965.6.4782.503.8525l-10.878 42.2114c-.096.374-.478.6-.852.503-.375-.096-.6-.478-.504-.852l10.878-42.2117c.097-.3744.479-.5997.853-.5032zm0 19.4429c.374.097.6.478.503.853l-5.062 19.643c-.096.374-.478.6-.853.503-.374-.096-.599-.478-.503-.852l5.062-19.644c.097-.374.479-.599.853-.503z" fill="#000" fill-rule="evenodd"/><path clip-rule="evenodd" d="m257.161 93.495c.164.3502.012.7668-.338.9305l-16.554 7.7365c-.35.164-.766.012-.93-.338s-.013-.767.338-.93l16.553-7.7368c.351-.1637.767-.0125.931.3378zm-8.545-1.6389c.164.3502.013.7668-.337.9305l-8.01 3.7431c-.35.1637-.766.0124-.93-.3378s-.012-.7669.338-.9305l8.009-3.7431c.35-.1637.767-.0124.93.3378z" fill="#000" fill-rule="evenodd"/><path clip-rule="evenodd" d="m280.824 97.8571c.163.3502.012.7668-.338.9305l-39.733 18.5694c-.35.164-.767.012-.931-.338-.163-.35-.012-.767.338-.93l39.733-18.5697c.35-.1637.767-.0125.931.3378zm-9.376-1.2507c.164.3503.013.7669-.337.9306l-30.358 14.188c-.35.163-.767.012-.931-.338-.163-.35-.012-.767.338-.931l30.358-14.1874c.35-.1636.767-.0124.93.3378zm-7.066-1.6254c.163.3502.012.7668-.338.9305l-23.291 10.8855c-.351.163-.767.012-.931-.338-.163-.35-.012-.767.338-.931l23.291-10.8848c.35-.1637.767-.0125.931.3378z" fill="#000" fill-rule="evenodd"/><path clip-rule="evenodd" d="m281.209 102.694c.164.35.013.767-.337.93l-40.12 18.75c-.35.164-.767.013-.93-.338-.164-.35-.013-.766.337-.93l40.12-18.75c.35-.164.767-.013.93.338zm0 4.928c.164.35.013.767-.337.93l-40.12 18.75c-.35.164-.767.013-.93-.337-.164-.351-.013-.767.337-.931l40.12-18.75c.35-.164.767-.012.93.338zm-.832 6.021c.163.35.012.767-.338.931l-39.287 18.361c-.35.163-.767.012-.93-.338-.164-.351-.013-.767.337-.931l39.287-18.361c.35-.163.767-.012.931.338zm0 5.027c.163.351.012.767-.338.931l-39.287 18.361c-.35.163-.767.012-.93-.338-.164-.35-.013-.767.337-.931l39.287-18.36c.35-.164.767-.013.931.337z" fill="#000" fill-rule="evenodd"/></svg>