<svg fill="none" xmlns="http://www.w3.org/2000/svg" viewBox="0 0 1151 270"><path fill-rule="evenodd" clip-rule="evenodd" d="M54.704 60H13.508C6.048 60 0 53.844 0 46.25c0-6.662 4.654-12.217 10.834-13.48a.275.275 0 0 0 .218-.27c0-12.427 9.896-22.5 22.104-22.5 10.62 0 19.49 7.622 21.619 17.785.117.559.589.971 1.148 1.018C63.805 29.463 70 36.183 70 44.375c0 8.419-6.541 15.283-14.733 15.612a.006.006 0 0 0-.006.007.006.006 0 0 1-.006.006h-.551Zm-27.886-7.613a2.817 2.817 0 0 1 2.817-2.818h12.963a2.817 2.817 0 1 1 0 5.636H29.635a2.818 2.818 0 0 1-2.817-2.818Zm4.734-29.431a2.818 2.818 0 0 0-3.834 4.129l7.859 7.297-7.859 7.298a2.817 2.817 0 1 0 3.834 4.13l10.083-9.363a2.817 2.817 0 0 0 0-4.13l-10.083-9.361Z" fill="#004BA4" opacity=".8"/><path d="M22.415 107.688c-.16-1.489-.83-2.648-2.012-3.478-1.17-.829-2.693-1.244-4.568-1.244-1.318 0-2.449.199-3.392.596-.943.398-1.665.938-2.165 1.62-.5.682-.755 1.46-.767 2.335 0 .727.165 1.358.495 1.892.34.534.8.989 1.38 1.364a9.77 9.77 0 0 0 1.927.92c.704.25 1.414.46 2.13.631l3.273.818c1.318.307 2.585.722 3.801 1.244a13.389 13.389 0 0 1 3.29 1.978 8.767 8.767 0 0 1 2.318 2.88c.568 1.125.852 2.443.852 3.955 0 2.045-.523 3.846-1.568 5.403-1.045 1.546-2.557 2.756-4.534 3.631-1.966.864-4.347 1.295-7.142 1.295-2.716 0-5.074-.42-7.074-1.261-1.989-.841-3.545-2.068-4.67-3.682-1.114-1.613-1.716-3.579-1.807-5.897h6.221c.091 1.215.466 2.227 1.125 3.034.66.806 1.518 1.409 2.574 1.806 1.069.398 2.262.597 3.58.597 1.375 0 2.58-.205 3.614-.614 1.045-.42 1.863-1 2.454-1.738.59-.75.892-1.625.903-2.625-.011-.909-.278-1.659-.8-2.25-.524-.603-1.256-1.103-2.2-1.5-.931-.409-2.022-.773-3.272-1.091l-3.972-1.023c-2.875-.739-5.148-1.858-6.818-3.358-1.66-1.511-2.489-3.517-2.489-6.017 0-2.057.557-3.858 1.67-5.403 1.126-1.546 2.654-2.745 4.586-3.597 1.932-.864 4.12-1.295 6.563-1.295 2.477 0 4.647.431 6.51 1.295 1.876.852 3.347 2.04 4.416 3.563 1.068 1.511 1.619 3.25 1.653 5.216h-6.085Zm23.001-.87v4.773h-15.05v-4.773h15.05Zm-11.335-6.273h6.17v24.58c0 .83.125 1.466.375 1.909.262.432.603.727 1.023.886.42.16.886.239 1.398.239.386 0 .739-.028 1.057-.085.33-.057.58-.108.75-.154l1.04 4.824c-.33.114-.802.239-1.415.375-.603.137-1.341.216-2.216.239-1.546.045-2.938-.188-4.176-.699-1.239-.523-2.222-1.329-2.95-2.42-.715-1.091-1.067-2.455-1.056-4.091v-25.603Zm22.03 32.983c-1.66 0-3.154-.295-4.483-.886-1.318-.602-2.364-1.489-3.136-2.659-.762-1.171-1.143-2.614-1.143-4.33 0-1.477.273-2.698.819-3.664a6.337 6.337 0 0 1 2.233-2.319 11.265 11.265 0 0 1 3.187-1.312 25.986 25.986 0 0 1 3.699-.665c1.534-.159 2.778-.301 3.733-.426.954-.136 1.648-.341 2.08-.614.443-.284.664-.721.664-1.312v-.102c0-1.284-.38-2.279-1.142-2.983-.761-.705-1.858-1.057-3.29-1.057-1.511 0-2.71.329-3.596.989-.875.659-1.466 1.437-1.773 2.335l-5.761-.818c.454-1.591 1.204-2.921 2.25-3.989 1.045-1.08 2.324-1.886 3.835-2.421 1.511-.545 3.182-.818 5.011-.818 1.262 0 2.517.148 3.767.443a10.63 10.63 0 0 1 3.427 1.466c1.034.671 1.863 1.586 2.488 2.745.636 1.159.955 2.608.955 4.346V133h-5.932v-3.597h-.205c-.375.728-.903 1.409-1.585 2.046-.67.625-1.517 1.131-2.54 1.517-1.011.375-2.199.562-3.562.562Zm1.602-4.534c1.239 0 2.313-.244 3.222-.733.909-.5 1.608-1.159 2.096-1.977.5-.818.75-1.71.75-2.676v-3.085c-.193.159-.523.307-.988.443a14.01 14.01 0 0 1-1.535.358c-.568.102-1.13.193-1.687.273l-1.449.204c-.92.125-1.744.33-2.471.614-.728.284-1.302.682-1.722 1.193-.42.5-.63 1.148-.63 1.943 0 1.137.414 1.994 1.244 2.574.83.58 1.886.869 3.17.869ZM74.14 133v-26.182h5.983v4.364h.273c.477-1.512 1.295-2.676 2.454-3.494 1.17-.83 2.506-1.245 4.006-1.245.341 0 .722.017 1.142.051.432.023.79.063 1.074.12v5.676c-.261-.091-.676-.171-1.244-.239a11.53 11.53 0 0 0-1.62-.119c-1.125 0-2.136.244-3.034.733a5.363 5.363 0 0 0-2.096 1.994c-.512.852-.767 1.835-.767 2.949V133h-6.17Zm31.512-26.182v4.773H90.599v-4.773h15.052Zm-11.336-6.273h6.171v24.58c0 .83.125 1.466.375 1.909.261.432.602.727 1.023.886.42.16.886.239 1.397.239.387 0 .739-.028 1.057-.085.33-.057.58-.108.75-.154l1.04 4.824c-.33.114-.801.239-1.415.375-.602.137-1.341.216-2.216.239-1.545.045-2.937-.188-4.176-.699-1.239-.523-2.222-1.329-2.949-2.42-.716-1.091-1.068-2.455-1.057-4.091v-25.603Z" fill="#1C2024"/><path d="M120.03 121.597v-4.909l23.318-10.773v6.051l-16.568 7.108.187-.324v.784l-.187-.324 16.568 7.108v6.051l-23.318-10.772Zm52.579.715c-.109 1.719-.484 3.266-1.125 4.641-.625 1.375-1.468 2.547-2.531 3.516-1.062.969-2.328 1.719-3.797 2.25-1.468.515-3.094.773-4.875.773-1.406 0-2.711-.18-3.914-.539a11.214 11.214 0 0 1-3.211-1.594 11.367 11.367 0 0 1-2.344-2.32 14.798 14.798 0 0 1-1.71-3 18.37 18.37 0 0 1-1.055-3.609 23.662 23.662 0 0 1-.352-4.172v-4.594c0-1.375.11-2.68.328-3.914a16.6 16.6 0 0 1 .985-3.469 12.98 12.98 0 0 1 1.969-3.469 12.712 12.712 0 0 1 2.765-2.578 11.274 11.274 0 0 1 3.024-1.359 12.497 12.497 0 0 1 3.562-.492c1.875 0 3.539.265 4.992.797 1.469.53 2.719 1.289 3.75 2.273 1.032.985 1.844 2.188 2.438 3.609.594 1.422.969 3.024 1.125 4.805h-6.563c-.062-1.015-.218-1.906-.468-2.672-.235-.765-.579-1.406-1.032-1.922-.468-.5-1.054-.875-1.758-1.125-.687-.265-1.515-.398-2.484-.398-.516 0-1 .055-1.453.164a4.658 4.658 0 0 0-1.219.492c-.64.375-1.187.914-1.64 1.617-.438.688-.789 1.493-1.055 2.415a14.394 14.394 0 0 0-.445 2.39c-.094.86-.141 1.789-.141 2.789v4.641c0 1.359.07 2.578.211 3.656.156 1.063.391 1.992.703 2.789.219.547.477 1.031.773 1.453a4.84 4.84 0 0 0 1.055 1.055c.422.312.891.547 1.406.703a6.855 6.855 0 0 0 1.758.211c.86 0 1.633-.109 2.321-.328a4.415 4.415 0 0 0 1.757-1.031c.485-.469.868-1.071 1.149-1.805s.453-1.617.515-2.649h6.586Zm2.477-2.226c0-1.844.266-3.547.797-5.109.531-1.579 1.312-2.946 2.344-4.102 1.015-1.156 2.257-2.063 3.726-2.719 1.485-.656 3.18-.984 5.086-.984 1.906 0 3.602.328 5.086.984 1.484.656 2.742 1.563 3.773 2.719 1.016 1.156 1.79 2.523 2.321 4.102.531 1.562.797 3.265.797 5.109v.492c0 1.86-.266 3.578-.797 5.156-.531 1.563-1.305 2.922-2.321 4.078-1.015 1.157-2.265 2.063-3.75 2.719-1.484.641-3.171.961-5.062.961-1.906 0-3.609-.32-5.109-.961-1.485-.656-2.735-1.562-3.75-2.719-1.032-1.156-1.813-2.515-2.344-4.078-.531-1.578-.797-3.296-.797-5.156v-.492Zm6.516.492c0 1.063.101 2.063.304 3 .203.922.524 1.727.961 2.414.438.703 1 1.258 1.688 1.664.703.406 1.547.61 2.531.61.953 0 1.773-.204 2.461-.61a4.908 4.908 0 0 0 1.687-1.664c.422-.687.735-1.492.938-2.414.203-.937.305-1.937.305-3v-.492c0-1.031-.102-2.008-.305-2.93-.203-.922-.516-1.734-.938-2.437a4.908 4.908 0 0 0-1.687-1.664c-.688-.407-1.524-.61-2.508-.61-.969 0-1.797.203-2.484.61a4.911 4.911 0 0 0-1.688 1.664c-.437.703-.758 1.515-.961 2.437a13.602 13.602 0 0 0-.304 2.93v.492Zm20.523-.445c0-1.922.219-3.68.656-5.274.453-1.593 1.11-2.961 1.969-4.101a9.022 9.022 0 0 1 3.117-2.649c1.235-.625 2.641-.937 4.219-.937 1.328 0 2.492.242 3.492.726a8.19 8.19 0 0 1 2.695 2.016V97h6.539v36h-5.882l-.328-2.648a8.596 8.596 0 0 1-2.813 2.296c-1.078.547-2.328.821-3.75.821-1.547 0-2.937-.321-4.172-.961a9.287 9.287 0 0 1-3.094-2.696c-.859-1.14-1.515-2.492-1.968-4.054-.453-1.578-.68-3.289-.68-5.133v-.492Zm6.516.492c0 1.063.086 2.055.257 2.977.188.906.485 1.695.891 2.367.406.687.93 1.226 1.57 1.617.641.391 1.422.586 2.344.586 1.125 0 2.055-.242 2.789-.727.75-.484 1.344-1.148 1.781-1.992v-10.265c-.437-.86-1.023-1.524-1.757-1.993-.735-.484-1.657-.726-2.766-.726-.922 0-1.711.203-2.367.609a4.598 4.598 0 0 0-1.571 1.617c-.406.703-.703 1.524-.89 2.461a14.895 14.895 0 0 0-.281 2.977v.492Zm22.726-12.984h13.805v20.062h6.867V133h-20.672v-5.297h7.219v-14.742h-7.219v-5.32Zm6.75-6.493c0-.5.086-.96.258-1.382.187-.438.445-.813.773-1.125a3.674 3.674 0 0 1 1.172-.704 4.466 4.466 0 0 1 1.547-.257c1.156 0 2.071.328 2.742.984.688.64 1.032 1.469 1.032 2.484 0 1.016-.344 1.852-1.032 2.508-.671.641-1.586.961-2.742.961a4.464 4.464 0 0 1-1.547-.258 3.455 3.455 0 0 1-1.172-.726 3.164 3.164 0 0 1-.773-1.078 3.815 3.815 0 0 1-.258-1.407ZM256.461 133v-25.359h5.906l.399 3.515a9.649 9.649 0 0 1 1.078-1.289c.39-.39.804-.742 1.242-1.055a8.823 8.823 0 0 1 2.461-1.218 9.343 9.343 0 0 1 2.836-.422c1.281 0 2.453.187 3.515.562a7.025 7.025 0 0 1 2.766 1.782c.766.828 1.359 1.89 1.781 3.187.438 1.281.657 2.844.657 4.688V133h-6.516v-15.516c0-1-.117-1.82-.352-2.461-.218-.656-.539-1.171-.961-1.546a3.442 3.442 0 0 0-1.523-.774c-.594-.156-1.266-.234-2.016-.234-.625 0-1.203.07-1.734.211-.516.14-.977.351-1.383.632a4.443 4.443 0 0 0-.89.727 6.211 6.211 0 0 0-.727.938V133h-6.539Zm26.172-12.867c0-1.922.234-3.68.703-5.274.484-1.593 1.172-2.961 2.062-4.101a9.27 9.27 0 0 1 3.235-2.649c1.265-.625 2.695-.937 4.289-.937.859 0 1.64.086 2.344.258a6.873 6.873 0 0 1 1.945.726c.437.235.844.516 1.219.844.375.312.718.664 1.031 1.055l.258-2.414h5.929v24.539c0 1.718-.296 3.25-.89 4.593-.578 1.344-1.391 2.477-2.438 3.399-1.062.922-2.336 1.617-3.82 2.086-1.469.484-3.094.726-4.875.726-.766 0-1.586-.078-2.461-.234a14.288 14.288 0 0 1-2.602-.727 12.074 12.074 0 0 1-2.437-1.265 8.046 8.046 0 0 1-1.969-1.805l2.93-3.961c.422.485.875.906 1.359 1.266.485.375.993.68 1.524.914a7.353 7.353 0 0 0 1.593.516 8.04 8.04 0 0 0 1.735.187c.953 0 1.797-.133 2.531-.398.75-.266 1.375-.657 1.875-1.172.453-.469.797-1.047 1.031-1.735.25-.687.375-1.461.375-2.32v-1.453c-.312.344-.64.656-.984.937a7.479 7.479 0 0 1-1.102.75 8.013 8.013 0 0 1-1.921.727 9.161 9.161 0 0 1-2.227.258c-1.578 0-3-.321-4.266-.961a9.842 9.842 0 0 1-3.211-2.696c-.89-1.14-1.578-2.492-2.062-4.054-.469-1.578-.703-3.289-.703-5.133v-.492Zm6.539.492c0 1.063.101 2.055.305 2.977.218.906.546 1.695.984 2.367a4.842 4.842 0 0 0 1.664 1.617c.672.391 1.469.586 2.391.586.562 0 1.07-.055 1.523-.164.469-.11.891-.266 1.266-.469.39-.219.734-.484 1.031-.797.297-.312.555-.664.773-1.054v-10.735a4.845 4.845 0 0 0-.843-1.148 4.097 4.097 0 0 0-1.125-.797 5.384 5.384 0 0 0-1.196-.399 6.427 6.427 0 0 0-1.383-.14c-.921 0-1.718.203-2.39.609a4.842 4.842 0 0 0-1.664 1.617c-.453.703-.789 1.524-1.008 2.461a12.859 12.859 0 0 0-.328 2.977v.492Zm21.414 9.023v-6.328l13.43-4.5 1.429-.468-1.406-.469-13.453-4.43v-6.305l21.094 8.579v5.32l-21.094 8.601Zm47.898 8.438h-21.375V133h21.375v5.086Z" fill="#4791FF"/><path d="M9.34 179.659V195H3.17v-26.182h5.898v4.449h.307a7.478 7.478 0 0 1 2.88-3.494c1.33-.864 2.972-1.296 4.927-1.296 1.807 0 3.38.387 4.721 1.159 1.353.773 2.398 1.892 3.137 3.358.75 1.466 1.12 3.245 1.108 5.336V195h-6.17v-15.716c0-1.75-.455-3.119-1.364-4.108-.898-.989-2.142-1.483-3.733-1.483-1.08 0-2.04.239-2.881.716-.83.466-1.483 1.142-1.96 2.029-.466.886-.7 1.96-.7 3.221Zm32.5 15.852c-2.556 0-4.772-.562-6.647-1.687s-3.33-2.699-4.363-4.722c-1.023-2.022-1.534-4.386-1.534-7.091 0-2.704.51-5.074 1.534-7.108 1.034-2.034 2.488-3.613 4.363-4.738 1.875-1.125 4.091-1.688 6.648-1.688 2.557 0 4.773.563 6.648 1.688s3.324 2.704 4.346 4.738c1.034 2.034 1.551 4.404 1.551 7.108 0 2.705-.517 5.069-1.55 7.091-1.023 2.023-2.472 3.597-4.347 4.722-1.875 1.125-4.091 1.687-6.648 1.687Zm.035-4.943c1.386 0 2.545-.381 3.477-1.142.932-.773 1.625-1.807 2.08-3.102.466-1.296.699-2.739.699-4.33 0-1.602-.233-3.051-.7-4.346-.454-1.307-1.147-2.347-2.079-3.12-.931-.772-2.09-1.159-3.477-1.159-1.42 0-2.602.387-3.545 1.159-.932.773-1.631 1.813-2.097 3.12-.455 1.295-.682 2.744-.682 4.346 0 1.591.227 3.034.682 4.33.466 1.295 1.165 2.329 2.097 3.102.943.761 2.125 1.142 3.545 1.142Zm46.348-14.829-5.625.613a4.52 4.52 0 0 0-.835-1.602c-.387-.5-.91-.903-1.568-1.21-.66-.307-1.466-.46-2.42-.46-1.285 0-2.365.278-3.24.835-.863.557-1.29 1.278-1.278 2.165-.011.761.267 1.38.835 1.858.58.477 1.534.869 2.864 1.176l4.466.954c2.477.534 4.318 1.381 5.523 2.54 1.216 1.159 1.83 2.676 1.84 4.551-.01 1.648-.494 3.102-1.448 4.364-.944 1.25-2.256 2.227-3.938 2.932-1.682.704-3.614 1.056-5.795 1.056-3.205 0-5.784-.67-7.739-2.011-1.954-1.352-3.12-3.233-3.494-5.642l6.017-.58c.272 1.182.852 2.074 1.738 2.677.887.602 2.04.903 3.46.903 1.467 0 2.643-.301 3.53-.903.897-.603 1.346-1.347 1.346-2.233 0-.75-.29-1.37-.87-1.858-.568-.489-1.454-.864-2.659-1.125l-4.466-.938c-2.511-.523-4.369-1.403-5.573-2.642-1.205-1.25-1.802-2.829-1.79-4.739-.012-1.613.426-3.011 1.312-4.193.898-1.193 2.142-2.113 3.733-2.761 1.602-.659 3.449-.989 5.54-.989 3.068 0 5.483.654 7.244 1.961 1.773 1.306 2.87 3.073 3.29 5.301Zm15.241 19.772c-2.625 0-4.892-.545-6.8-1.636-1.898-1.102-3.359-2.659-4.381-4.67-1.023-2.023-1.534-4.404-1.534-7.143 0-2.693.51-5.056 1.534-7.09 1.034-2.046 2.477-3.637 4.33-4.773 1.852-1.148 4.028-1.722 6.528-1.722 1.613 0 3.136.262 4.568.784a10.327 10.327 0 0 1 3.818 2.387c1.114 1.079 1.989 2.454 2.625 4.125.636 1.659.955 3.636.955 5.932v1.892h-21.46v-4.159h15.545c-.012-1.182-.267-2.233-.767-3.154a5.575 5.575 0 0 0-2.097-2.199c-.886-.534-1.92-.801-3.102-.801-1.262 0-2.369.307-3.324.921a6.336 6.336 0 0 0-2.233 2.386c-.523.977-.79 2.051-.801 3.221v3.631c0 1.523.278 2.83.835 3.921.557 1.079 1.335 1.909 2.335 2.488 1 .568 2.171.853 3.512.853.897 0 1.71-.125 2.437-.375a5.42 5.42 0 0 0 1.892-1.142c.534-.5.938-1.12 1.21-1.858l5.762.647a8.981 8.981 0 0 1-2.08 3.989c-1.011 1.125-2.307 2-3.886 2.625-1.58.614-3.386.92-5.421.92Zm27.937-26.693v4.773h-15.052v-4.773h15.052Zm-11.336-6.273h6.171v24.58c0 .83.125 1.466.375 1.909.261.432.602.727 1.023.886.42.16.886.239 1.397.239.387 0 .739-.028 1.057-.085.33-.057.58-.108.75-.154l1.04 4.824c-.33.114-.801.239-1.415.375-.602.137-1.341.216-2.216.239-1.545.045-2.937-.188-4.176-.699-1.239-.523-2.222-1.329-2.949-2.42-.716-1.091-1.068-2.455-1.057-4.091v-25.603Zm31.184 21.444v-15.171h6.17V195h-5.983v-4.653h-.273c-.591 1.465-1.562 2.664-2.914 3.596-1.341.932-2.995 1.398-4.961 1.398-1.716 0-3.233-.381-4.551-1.142-1.307-.773-2.329-1.892-3.068-3.358-.739-1.477-1.108-3.261-1.108-5.352v-16.671h6.171v15.716c0 1.659.454 2.977 1.363 3.955.909.977 2.102 1.466 3.58 1.466.909 0 1.789-.222 2.642-.665.852-.443 1.551-1.102 2.096-1.978.557-.886.836-1.994.836-3.323Zm10.515 20.829v-36h6.068v4.33h.358c.319-.637.767-1.313 1.347-2.029.579-.727 1.364-1.346 2.352-1.858.989-.522 2.25-.784 3.784-.784 2.023 0 3.847.517 5.472 1.551 1.636 1.023 2.932 2.54 3.886 4.552.966 2 1.449 4.454 1.449 7.363 0 2.875-.471 5.318-1.415 7.33-.943 2.011-2.227 3.545-3.852 4.602-1.625 1.057-3.466 1.585-5.523 1.585-1.5 0-2.744-.25-3.733-.75-.988-.5-1.784-1.102-2.386-1.807-.591-.716-1.051-1.392-1.381-2.028h-.255v13.943h-6.171Zm6.051-22.909c0 1.693.239 3.176.716 4.449.489 1.273 1.188 2.267 2.097 2.983.92.704 2.034 1.057 3.341 1.057 1.363 0 2.505-.364 3.426-1.091.92-.739 1.614-1.745 2.079-3.017.478-1.284.716-2.745.716-4.381 0-1.625-.233-3.068-.699-4.329-.465-1.262-1.159-2.25-2.079-2.966-.921-.716-2.068-1.074-3.443-1.074-1.318 0-2.438.346-3.358 1.04-.921.693-1.62 1.664-2.097 2.914-.466 1.25-.699 2.722-.699 4.415ZM199.67 195v-26.182h5.983v4.364h.273c.477-1.512 1.296-2.676 2.455-3.494 1.17-.83 2.505-1.245 4.005-1.245.341 0 .722.017 1.142.051.432.023.79.063 1.074.12v5.676c-.261-.091-.676-.171-1.244-.239a11.535 11.535 0 0 0-1.619-.119c-1.125 0-2.137.244-3.034.733a5.357 5.357 0 0 0-2.097 1.994c-.511.852-.767 1.835-.767 2.949V195h-6.171Zm27.544.511c-2.625 0-4.892-.545-6.801-1.636-1.897-1.102-3.358-2.659-4.38-4.67-1.023-2.023-1.534-4.404-1.534-7.143 0-2.693.511-5.056 1.534-7.09 1.034-2.046 2.477-3.637 4.329-4.773 1.852-1.148 4.029-1.722 6.529-1.722 1.613 0 3.136.262 4.568.784a10.327 10.327 0 0 1 3.818 2.387c1.114 1.079 1.989 2.454 2.625 4.125.636 1.659.955 3.636.955 5.932v1.892h-21.461v-4.159h15.546c-.012-1.182-.267-2.233-.767-3.154a5.575 5.575 0 0 0-2.097-2.199c-.886-.534-1.92-.801-3.102-.801-1.262 0-2.369.307-3.324.921a6.332 6.332 0 0 0-2.233 2.386c-.523.977-.79 2.051-.801 3.221v3.631c0 1.523.278 2.83.835 3.921.557 1.079 1.335 1.909 2.335 2.488 1 .568 2.171.853 3.512.853.897 0 1.71-.125 2.437-.375a5.42 5.42 0 0 0 1.892-1.142c.534-.5.938-1.12 1.21-1.858l5.762.647a8.981 8.981 0 0 1-2.08 3.989c-1.011 1.125-2.307 2-3.886 2.625-1.58.614-3.386.92-5.421.92Zm32.334 9.307v-13.943h-.255c-.319.636-.779 1.312-1.381 2.028-.602.705-1.398 1.307-2.386 1.807-.989.5-2.233.75-3.733.75-2.057 0-3.898-.528-5.523-1.585-1.625-1.057-2.909-2.591-3.852-4.602-.944-2.012-1.415-4.455-1.415-7.33 0-2.909.477-5.363 1.432-7.363.966-2.012 2.267-3.529 3.903-4.552 1.636-1.034 3.46-1.551 5.472-1.551 1.534 0 2.795.262 3.784.784.988.512 1.772 1.131 2.352 1.858.58.716 1.028 1.392 1.347 2.029h.375v-4.33h6.068v36h-6.188Zm-6.034-14.42c1.307 0 2.421-.353 3.341-1.057.921-.716 1.619-1.71 2.097-2.983.477-1.273.716-2.756.716-4.449s-.239-3.165-.716-4.415c-.466-1.25-1.159-2.221-2.08-2.914-.909-.694-2.028-1.04-3.358-1.04-1.375 0-2.523.358-3.443 1.074-.92.716-1.614 1.704-2.08 2.966-.465 1.261-.698 2.704-.698 4.329 0 1.636.233 3.097.698 4.381.478 1.272 1.177 2.278 2.097 3.017.932.727 2.074 1.091 3.426 1.091Zm33.25-6.409v-15.171h6.171V195h-5.983v-4.653h-.273c-.591 1.465-1.563 2.664-2.915 3.596-1.341.932-2.994 1.398-4.96 1.398-1.716 0-3.233-.381-4.551-1.142-1.307-.773-2.33-1.892-3.068-3.358-.739-1.477-1.108-3.261-1.108-5.352v-16.671h6.17v15.716c0 1.659.455 2.977 1.364 3.955.909.977 2.102 1.466 3.579 1.466a5.66 5.66 0 0 0 2.642-.665c.853-.443 1.552-1.102 2.097-1.978.557-.886.835-1.994.835-3.323ZM297.28 195v-26.182h6.17V195h-6.17Zm3.102-29.898c-.977 0-1.818-.324-2.523-.971-.704-.659-1.056-1.449-1.056-2.37 0-.931.352-1.721 1.056-2.369.705-.659 1.546-.989 2.523-.989.989 0 1.83.33 2.523.989.704.648 1.057 1.438 1.057 2.369 0 .921-.353 1.711-1.057 2.37-.693.647-1.534.971-2.523.971ZM307.795 195v-26.182h5.983v4.364h.273c.477-1.512 1.296-2.676 2.455-3.494 1.17-.83 2.505-1.245 4.005-1.245.341 0 .722.017 1.142.051.432.023.79.063 1.074.12v5.676c-.261-.091-.676-.171-1.244-.239a11.535 11.535 0 0 0-1.619-.119c-1.125 0-2.137.244-3.034.733a5.357 5.357 0 0 0-2.097 1.994c-.511.852-.767 1.835-.767 2.949V195h-6.171Zm27.544.511c-2.625 0-4.892-.545-6.801-1.636-1.897-1.102-3.358-2.659-4.38-4.67-1.023-2.023-1.534-4.404-1.534-7.143 0-2.693.511-5.056 1.534-7.09 1.034-2.046 2.477-3.637 4.329-4.773 1.852-1.148 4.029-1.722 6.529-1.722 1.613 0 3.136.262 4.568.784a10.327 10.327 0 0 1 3.818 2.387c1.114 1.079 1.989 2.454 2.625 4.125.636 1.659.955 3.636.955 5.932v1.892h-21.461v-4.159h15.546c-.012-1.182-.267-2.233-.767-3.154a5.575 5.575 0 0 0-2.097-2.199c-.886-.534-1.92-.801-3.102-.801-1.262 0-2.369.307-3.324.921a6.332 6.332 0 0 0-2.233 2.386c-.523.977-.79 2.051-.801 3.221v3.631c0 1.523.278 2.83.835 3.921.557 1.079 1.335 1.909 2.335 2.488 1 .568 2.171.853 3.512.853.897 0 1.71-.125 2.437-.375a5.42 5.42 0 0 0 1.892-1.142c.534-.5.938-1.12 1.21-1.858l5.762.647a8.981 8.981 0 0 1-2.08 3.989c-1.011 1.125-2.307 2-3.886 2.625-1.58.614-3.386.92-5.421.92Zm24.579-.051c-2.057 0-3.898-.528-5.523-1.585-1.625-1.057-2.909-2.591-3.852-4.602-.944-2.012-1.415-4.455-1.415-7.33 0-2.909.477-5.363 1.432-7.363.966-2.012 2.267-3.529 3.903-4.552 1.636-1.034 3.46-1.551 5.472-1.551 1.534 0 2.795.262 3.784.784.988.512 1.772 1.131 2.352 1.858.58.716 1.028 1.392 1.347 2.029h.255v-13.057h6.188V195h-6.068v-4.125h-.375c-.319.636-.779 1.312-1.381 2.028-.602.705-1.398 1.307-2.386 1.807-.989.5-2.233.75-3.733.75Zm1.721-5.062c1.307 0 2.421-.353 3.341-1.057.921-.716 1.619-1.71 2.097-2.983.477-1.273.716-2.756.716-4.449s-.239-3.165-.716-4.415c-.466-1.25-1.159-2.221-2.08-2.914-.909-.694-2.028-1.04-3.358-1.04-1.375 0-2.523.358-3.443 1.074-.92.716-1.614 1.704-2.08 2.966-.465 1.261-.698 2.704-.698 4.329 0 1.636.233 3.097.698 4.381.478 1.272 1.177 2.278 2.097 3.017.932.727 2.074 1.091 3.426 1.091Z" fill="#1C2024"/><path d="M5 240H1.41v-11.636h3.75c1.128 0 2.094.233 2.897.698.803.463 1.418 1.127 1.846 1.995.428.863.643 1.898.643 3.102 0 1.212-.216 2.256-.648 3.131a4.617 4.617 0 0 1-1.887 2.011c-.825.466-1.83.699-3.011.699Zm-2.182-1.25H4.91c.962 0 1.76-.186 2.392-.557a3.428 3.428 0 0 0 1.415-1.585c.31-.686.466-1.502.466-2.449 0-.939-.154-1.748-.46-2.426-.307-.682-.766-1.205-1.375-1.568-.61-.368-1.37-.551-2.279-.551h-2.25v9.136Zm13.568 1.432c-.84 0-1.566-.186-2.176-.557a3.74 3.74 0 0 1-1.403-1.568c-.326-.674-.489-1.459-.489-2.352 0-.894.163-1.682.489-2.364.33-.686.788-1.22 1.375-1.602.59-.387 1.28-.58 2.068-.58.454 0 .903.076 1.347.227.443.152.846.398 1.21.739.364.337.653.784.87 1.341.215.557.323 1.242.323 2.057v.568h-6.727v-1.159h5.363c0-.493-.098-.932-.295-1.318a2.22 2.22 0 0 0-.83-.915c-.356-.224-.776-.335-1.261-.335-.534 0-.996.132-1.386.397a2.625 2.625 0 0 0-.892 1.023 3.006 3.006 0 0 0-.313 1.352v.773c0 .659.114 1.218.341 1.676.231.455.551.801.96 1.04.41.235.885.352 1.426.352.353 0 .67-.049.955-.147a2.05 2.05 0 0 0 .744-.455c.209-.205.37-.458.483-.761l1.296.363c-.137.44-.366.826-.688 1.159a3.35 3.35 0 0 1-1.193.773 4.421 4.421 0 0 1-1.597.273Zm8.95 0c-.728 0-1.37-.184-1.927-.551-.557-.372-.992-.894-1.307-1.569-.314-.678-.471-1.479-.471-2.403 0-.917.157-1.712.471-2.386.315-.675.752-1.195 1.313-1.563.56-.367 1.208-.551 1.943-.551.568 0 1.017.095 1.346.284.334.186.588.398.762.637.178.234.316.428.415.579h.113v-4.295h1.341V240H28.04v-1.341h-.16a8.54 8.54 0 0 1-.42.602c-.182.239-.441.453-.778.642-.337.186-.786.279-1.347.279Zm.181-1.205c.538 0 .992-.14 1.364-.42.37-.284.653-.676.846-1.176.194-.504.29-1.086.29-1.745 0-.651-.095-1.221-.284-1.71-.19-.492-.47-.875-.841-1.148-.371-.276-.83-.414-1.375-.414-.568 0-1.042.145-1.42.437-.375.288-.658.68-.847 1.176a4.68 4.68 0 0 0-.278 1.659c0 .622.094 1.186.284 1.694.193.503.477.905.852 1.204.379.296.848.443 1.409.443Zm6.46 1.023v-8.727h1.341V240h-1.34Zm.682-10.182a.953.953 0 0 1-.676-.267.858.858 0 0 1-.279-.642c0-.25.093-.464.279-.642a.953.953 0 0 1 .676-.267c.261 0 .485.089.67.267a.85.85 0 0 1 .285.642.85.85 0 0 1-.284.642.934.934 0 0 1-.67.267Zm6.66 10.364c-.818 0-1.522-.193-2.113-.58a3.774 3.774 0 0 1-1.364-1.596c-.318-.678-.477-1.453-.477-2.324 0-.887.163-1.669.489-2.347.33-.682.788-1.214 1.375-1.596.59-.387 1.28-.58 2.068-.58.614 0 1.167.114 1.659.341.492.227.896.545 1.21.955.315.409.51.886.585 1.431h-1.34c-.103-.397-.33-.75-.682-1.056-.349-.311-.819-.466-1.41-.466-.522 0-.98.136-1.374.409-.39.269-.696.649-.915 1.142-.216.488-.324 1.062-.324 1.721 0 .675.106 1.262.318 1.762.216.5.52.888.91 1.164.393.277.855.415 1.386.415.348 0 .664-.06.949-.182.284-.121.524-.295.721-.522.197-.228.337-.5.42-.818h1.341a3.106 3.106 0 0 1-.562 1.392 3.149 3.149 0 0 1-1.176.977c-.485.238-1.05.358-1.693.358Zm7.96.023a3.552 3.552 0 0 1-1.505-.313 2.581 2.581 0 0 1-1.074-.915c-.265-.401-.397-.886-.397-1.454 0-.5.098-.906.295-1.216.197-.315.46-.561.79-.739.33-.178.693-.31 1.09-.398.402-.09.806-.162 1.21-.215.531-.069.961-.12 1.29-.154.334-.038.576-.1.728-.187.155-.087.233-.239.233-.455v-.045c0-.561-.154-.997-.46-1.307-.303-.311-.764-.466-1.381-.466-.64 0-1.142.14-1.506.42-.363.281-.619.58-.767.898l-1.272-.454c.227-.531.53-.944.909-1.239.382-.299.799-.508 1.25-.625a5.2 5.2 0 0 1 1.34-.182c.28 0 .603.034.967.102.367.065.721.199 1.062.404.345.204.63.513.858.926.227.413.34.966.34 1.659V240h-1.34v-1.182h-.068c-.091.19-.243.392-.455.608-.212.216-.494.4-.846.551-.353.152-.783.228-1.29.228Zm.205-1.205c.53 0 .978-.104 1.341-.312.368-.209.644-.478.83-.807.19-.33.284-.676.284-1.04v-1.227c-.057.068-.182.13-.375.187-.19.053-.41.101-.66.142-.245.038-.486.072-.72.102-.232.027-.42.05-.563.069a5.109 5.109 0 0 0-.977.221c-.3.099-.542.248-.728.449-.182.197-.272.466-.272.807 0 .466.172.818.517 1.057.348.235.79.352 1.323.352Zm10.039-7.727v1.136H53v-1.136h4.523Zm-3.205-2.091h1.341v8.318c0 .379.055.663.165.852a.85.85 0 0 0 .432.375c.178.061.365.091.562.091.148 0 .27-.007.364-.023l.227-.045.273 1.205c-.091.034-.218.068-.38.102-.164.038-.37.057-.62.057-.379 0-.75-.082-1.114-.245a2.214 2.214 0 0 1-.898-.744c-.234-.333-.352-.754-.352-1.261v-8.682Zm8.787 11c-.84 0-1.566-.186-2.176-.557a3.74 3.74 0 0 1-1.403-1.568c-.326-.674-.49-1.459-.49-2.352 0-.894.164-1.682.49-2.364.33-.686.787-1.22 1.375-1.602.59-.387 1.28-.58 2.068-.58.454 0 .903.076 1.346.227.444.152.847.398 1.21.739.364.337.654.784.87 1.341.216.557.324 1.242.324 2.057v.568h-6.727v-1.159h5.363c0-.493-.098-.932-.295-1.318a2.22 2.22 0 0 0-.83-.915c-.356-.224-.776-.335-1.261-.335-.534 0-.997.132-1.387.397a2.625 2.625 0 0 0-.892 1.023 3.006 3.006 0 0 0-.312 1.352v.773c0 .659.114 1.218.34 1.676.232.455.552.801.961 1.04.41.235.884.352 1.426.352.352 0 .67-.049.955-.147.287-.103.536-.254.744-.455.208-.205.37-.458.483-.761l1.295.363c-.136.44-.365.826-.687 1.159-.322.33-.72.587-1.193.773a4.421 4.421 0 0 1-1.597.273Zm8.949 0c-.727 0-1.37-.184-1.926-.551-.557-.372-.993-.894-1.307-1.569-.314-.678-.472-1.479-.472-2.403 0-.917.158-1.712.472-2.386.314-.675.752-1.195 1.313-1.563.56-.367 1.208-.551 1.943-.551.568 0 1.017.095 1.346.284.334.186.587.398.762.637.178.234.316.428.414.579h.114v-4.295h1.341V240h-1.296v-1.341H74.6c-.098.159-.238.36-.42.602-.182.239-.441.453-.778.642-.338.186-.786.279-1.347.279Zm.182-1.205c.538 0 .992-.14 1.363-.42.372-.284.654-.676.847-1.176.193-.504.29-1.086.29-1.745 0-.651-.095-1.221-.284-1.71-.19-.492-.47-.875-.841-1.148-.371-.276-.83-.414-1.375-.414-.568 0-1.042.145-1.42.437-.376.288-.658.68-.847 1.176a4.678 4.678 0 0 0-.279 1.659c0 .622.095 1.186.284 1.694.194.503.478.905.853 1.204.379.296.848.443 1.409.443Zm14.505 1.205c-.818 0-1.522-.193-2.113-.58a3.773 3.773 0 0 1-1.364-1.596c-.318-.678-.477-1.453-.477-2.324 0-.887.163-1.669.489-2.347.33-.682.787-1.214 1.375-1.596.59-.387 1.28-.58 2.068-.58.613 0 1.166.114 1.659.341.492.227.896.545 1.21.955.315.409.51.886.585 1.431h-1.34c-.103-.397-.33-.75-.682-1.056-.349-.311-.819-.466-1.41-.466-.522 0-.98.136-1.374.409-.39.269-.696.649-.915 1.142-.216.488-.324 1.062-.324 1.721 0 .675.106 1.262.318 1.762.216.5.519.888.91 1.164.393.277.855.415 1.386.415.348 0 .664-.06.948-.182.284-.121.525-.295.722-.522.197-.228.337-.5.42-.818h1.341a3.108 3.108 0 0 1-.562 1.392 3.15 3.15 0 0 1-1.176.977c-.485.238-1.05.358-1.694.358Zm6.733-11.818V240h-1.34v-11.636h1.34Zm6.002 11.818c-.788 0-1.48-.188-2.074-.563-.59-.375-1.053-.899-1.386-1.574-.33-.674-.495-1.462-.495-2.363 0-.909.165-1.703.495-2.381.333-.678.795-1.204 1.386-1.579.595-.375 1.286-.563 2.074-.563.788 0 1.477.188 2.068.563.595.375 1.057.901 1.386 1.579.334.678.5 1.472.5 2.381 0 .901-.166 1.689-.5 2.363a3.758 3.758 0 0 1-1.386 1.574c-.591.375-1.28.563-2.068.563Zm0-1.205c.598 0 1.091-.153 1.477-.46a2.72 2.72 0 0 0 .858-1.21c.186-.5.278-1.042.278-1.625 0-.584-.092-1.127-.278-1.631a2.748 2.748 0 0 0-.858-1.221c-.386-.311-.879-.466-1.477-.466-.599 0-1.091.155-1.477.466-.387.31-.673.717-.858 1.221a4.68 4.68 0 0 0-.279 1.631c0 .583.093 1.125.279 1.625.185.5.471.903.858 1.21.386.307.878.46 1.477.46Zm11.501-2.545v-5.159h1.341V240h-1.341v-1.477h-.091c-.204.443-.522.82-.954 1.13-.432.307-.977.461-1.637.461a2.92 2.92 0 0 1-1.454-.358c-.424-.243-.758-.606-1-1.091-.243-.489-.364-1.104-.364-1.847v-5.545h1.341v5.454c0 .637.178 1.144.534 1.523.36.379.818.568 1.375.568.334 0 .673-.085 1.017-.256.349-.17.64-.431.875-.784.239-.352.358-.801.358-1.346Zm7.093 3.75c-.728 0-1.37-.184-1.927-.551-.556-.372-.992-.894-1.306-1.569-.315-.678-.472-1.479-.472-2.403 0-.917.157-1.712.472-2.386.314-.675.752-1.195 1.312-1.563.561-.367 1.208-.551 1.943-.551.569 0 1.017.095 1.347.284.333.186.587.398.761.637.178.234.317.428.415.579h.114v-4.295h1.341V240h-1.296v-1.341h-.159a8.61 8.61 0 0 1-.42.602c-.182.239-.442.453-.779.642-.337.186-.786.279-1.346.279Zm.181-1.205c.538 0 .993-.14 1.364-.42.371-.284.653-.676.847-1.176.193-.504.289-1.086.289-1.745 0-.651-.094-1.221-.284-1.71-.189-.492-.469-.875-.841-1.148-.371-.276-.829-.414-1.375-.414-.568 0-1.041.145-1.42.437-.375.288-.657.68-.847 1.176a4.694 4.694 0 0 0-.278 1.659c0 .622.095 1.186.284 1.694.193.503.477.905.852 1.204.379.296.849.443 1.409.443Zm14.256 1.205c-.727 0-1.369-.184-1.926-.551-.557-.372-.992-.894-1.307-1.569-.314-.678-.471-1.479-.471-2.403 0-.917.157-1.712.471-2.386.315-.675.752-1.195 1.313-1.563.56-.367 1.208-.551 1.943-.551.568 0 1.017.095 1.346.284.334.186.588.398.762.637.178.234.316.428.415.579h.113v-4.295h1.341V240h-1.295v-1.341h-.159c-.099.159-.239.36-.421.602-.182.239-.441.453-.778.642-.337.186-.786.279-1.347.279Zm.182-1.205c.538 0 .992-.14 1.364-.42.371-.284.653-.676.846-1.176.193-.504.29-1.086.29-1.745 0-.651-.095-1.221-.284-1.71-.19-.492-.47-.875-.841-1.148-.371-.276-.83-.414-1.375-.414-.568 0-1.042.145-1.421.437-.375.288-.657.68-.846 1.176a4.67 4.67 0 0 0-.279 1.659c0 .622.095 1.186.285 1.694.193.503.477.905.852 1.204.379.296.848.443 1.409.443Zm10.119 1.205c-.841 0-1.566-.186-2.176-.557a3.736 3.736 0 0 1-1.403-1.568c-.326-.674-.489-1.459-.489-2.352 0-.894.163-1.682.489-2.364.329-.686.788-1.22 1.375-1.602.591-.387 1.28-.58 2.068-.58.454 0 .903.076 1.346.227.444.152.847.398 1.211.739.363.337.653.784.869 1.341.216.557.324 1.242.324 2.057v.568h-6.727v-1.159h5.363c0-.493-.098-.932-.295-1.318a2.219 2.219 0 0 0-.83-.915c-.356-.224-.776-.335-1.261-.335-.534 0-.996.132-1.386.397a2.627 2.627 0 0 0-.893 1.023 3.01 3.01 0 0 0-.312 1.352v.773c0 .659.114 1.218.341 1.676.231.455.551.801.96 1.04.409.235.885.352 1.426.352.353 0 .671-.049.955-.147.288-.103.536-.254.744-.455.208-.205.369-.458.483-.761l1.296.363c-.137.44-.366.826-.688 1.159-.322.33-.72.587-1.193.773a4.425 4.425 0 0 1-1.597.273Zm12.524-8.909L152.105 240h-1.364l-3.227-8.727h1.455l2.409 6.954h.091l2.409-6.954h1.454Zm5.117 8.909c-.841 0-1.566-.186-2.176-.557a3.744 3.744 0 0 1-1.404-1.568c-.325-.674-.488-1.459-.488-2.352 0-.894.163-1.682.488-2.364.33-.686.788-1.22 1.375-1.602.591-.387 1.281-.58 2.068-.58.455 0 .904.076 1.347.227.443.152.847.398 1.21.739.364.337.654.784.87 1.341.216.557.323 1.242.323 2.057v.568h-6.727v-1.159h5.364c0-.493-.099-.932-.296-1.318a2.217 2.217 0 0 0-.829-.915c-.356-.224-.777-.335-1.262-.335-.534 0-.996.132-1.386.397a2.625 2.625 0 0 0-.892 1.023 3.01 3.01 0 0 0-.312 1.352v.773c0 .659.113 1.218.34 1.676.232.455.552.801.961 1.04.409.235.884.352 1.426.352.352 0 .67-.049.954-.147.288-.103.536-.254.745-.455.208-.205.369-.458.483-.761l1.295.363a2.86 2.86 0 0 1-.687 1.159 3.35 3.35 0 0 1-1.194.773 4.416 4.416 0 0 1-1.596.273Zm6.994-11.818V240h-1.341v-11.636h1.341Zm6.002 11.818c-.788 0-1.48-.188-2.074-.563-.591-.375-1.053-.899-1.387-1.574-.329-.674-.494-1.462-.494-2.363 0-.909.165-1.703.494-2.381.334-.678.796-1.204 1.387-1.579.594-.375 1.286-.563 2.074-.563.787 0 1.477.188 2.068.563.594.375 1.057.901 1.386 1.579.333.678.5 1.472.5 2.381 0 .901-.167 1.689-.5 2.363a3.765 3.765 0 0 1-1.386 1.574c-.591.375-1.281.563-2.068.563Zm0-1.205c.598 0 1.091-.153 1.477-.46a2.72 2.72 0 0 0 .858-1.21c.185-.5.278-1.042.278-1.625 0-.584-.093-1.127-.278-1.631a2.748 2.748 0 0 0-.858-1.221c-.386-.311-.879-.466-1.477-.466-.599 0-1.091.155-1.478.466-.386.31-.672.717-.858 1.221a4.695 4.695 0 0 0-.278 1.631c0 .583.093 1.125.278 1.625.186.5.472.903.858 1.21.387.307.879.46 1.478.46Zm6.001 4.296v-12h1.295v1.386h.16c.098-.151.234-.345.409-.579.178-.239.431-.451.761-.637.333-.189.784-.284 1.352-.284.735 0 1.383.184 1.943.551.561.368.999.888 1.313 1.563.314.674.472 1.469.472 2.386 0 .924-.158 1.725-.472 2.403-.314.675-.75 1.197-1.307 1.569-.557.367-1.199.551-1.926.551-.561 0-1.009-.093-1.347-.279-.337-.189-.596-.403-.778-.642a8.279 8.279 0 0 1-.42-.602h-.114v4.614h-1.341Zm1.318-7.637c0 .659.097 1.241.29 1.745.193.5.475.892.847 1.176.371.28.825.42 1.363.42.561 0 1.029-.147 1.404-.443.378-.299.662-.701.852-1.204.193-.508.29-1.072.29-1.694 0-.613-.095-1.166-.284-1.659-.186-.496-.468-.888-.847-1.176-.375-.292-.847-.437-1.415-.437-.545 0-1.004.138-1.375.414-.371.273-.651.656-.841 1.148-.189.489-.284 1.059-.284 1.71Zm8.432 4.364v-8.727h1.295v1.363h.114c.182-.466.475-.827.881-1.085.405-.261.892-.392 1.46-.392.576 0 1.055.131 1.438.392.386.258.687.619.903 1.085h.091a2.55 2.55 0 0 1 1.006-1.074c.446-.268.982-.403 1.607-.403.781 0 1.419.244 1.915.733.496.485.745 1.241.745 2.267V240h-1.341v-5.841c0-.644-.176-1.104-.529-1.381a1.957 1.957 0 0 0-1.244-.414c-.614 0-1.089.185-1.426.556-.337.368-.506.834-.506 1.398V240h-1.364v-5.977c0-.496-.161-.896-.482-1.199-.322-.307-.737-.46-1.245-.46-.348 0-.674.092-.977.278a2.1 2.1 0 0 0-.727.773 2.277 2.277 0 0 0-.273 1.13V240h-1.341Zm17.565.182c-.841 0-1.566-.186-2.176-.557a3.736 3.736 0 0 1-1.403-1.568c-.326-.674-.489-1.459-.489-2.352 0-.894.163-1.682.489-2.364.329-.686.788-1.22 1.375-1.602.591-.387 1.28-.58 2.068-.58.455 0 .903.076 1.347.227.443.152.846.398 1.21.739.363.337.653.784.869 1.341.216.557.324 1.242.324 2.057v.568h-6.727v-1.159h5.363c0-.493-.098-.932-.295-1.318a2.219 2.219 0 0 0-.83-.915c-.356-.224-.776-.335-1.261-.335-.534 0-.996.132-1.386.397a2.617 2.617 0 0 0-.892 1.023 2.997 2.997 0 0 0-.313 1.352v.773c0 .659.114 1.218.341 1.676.231.455.551.801.96 1.04.409.235.885.352 1.426.352.353 0 .671-.049.955-.147.288-.103.536-.254.744-.455.209-.205.37-.458.483-.761l1.296.363c-.137.44-.366.826-.688 1.159-.322.33-.72.587-1.193.773a4.425 4.425 0 0 1-1.597.273Zm6.995-5.432V240h-1.341v-8.727h1.295v1.363h.114c.204-.443.515-.799.932-1.068.416-.273.954-.409 1.613-.409.591 0 1.108.121 1.551.364.444.238.788.602 1.035 1.091.246.484.369 1.098.369 1.841V240h-1.341v-5.455c0-.685-.178-1.219-.534-1.602-.356-.386-.845-.579-1.466-.579-.428 0-.811.092-1.148.278a1.998 1.998 0 0 0-.79.813c-.193.356-.289.787-.289 1.295Zm11.814-3.477v1.136h-4.523v-1.136h4.523Zm-3.205-2.091h1.341v8.318c0 .379.055.663.165.852a.845.845 0 0 0 .432.375c.178.061.365.091.562.091.148 0 .269-.007.364-.023l.227-.045.273 1.205a2.74 2.74 0 0 1-.381.102 2.792 2.792 0 0 1-.619.057 2.7 2.7 0 0 1-1.114-.245 2.217 2.217 0 0 1-.898-.744c-.235-.333-.352-.754-.352-1.261v-8.682Zm13.381 11c-.841 0-1.567-.186-2.176-.557a3.744 3.744 0 0 1-1.404-1.568c-.326-.674-.488-1.459-.488-2.352 0-.894.162-1.682.488-2.364.33-.686.788-1.22 1.375-1.602.591-.387 1.28-.58 2.068-.58.455 0 .904.076 1.347.227.443.152.847.398 1.21.739.364.337.654.784.87 1.341.215.557.323 1.242.323 2.057v.568h-6.727v-1.159h5.364c0-.493-.099-.932-.296-1.318a2.217 2.217 0 0 0-.829-.915c-.356-.224-.777-.335-1.262-.335-.534 0-.996.132-1.386.397a2.625 2.625 0 0 0-.892 1.023 3.01 3.01 0 0 0-.313 1.352v.773c0 .659.114 1.218.341 1.676.231.455.552.801.961 1.04.409.235.884.352 1.426.352.352 0 .67-.049.954-.147.288-.103.536-.254.745-.455.208-.205.369-.458.483-.761l1.295.363c-.136.44-.366.826-.687 1.159a3.35 3.35 0 0 1-1.194.773 4.416 4.416 0 0 1-1.596.273Zm6.994-5.432V240h-1.341v-8.727h1.296v1.363h.113c.205-.443.515-.799.932-1.068.417-.273.955-.409 1.614-.409.591 0 1.108.121 1.551.364.443.238.788.602 1.034 1.091.246.484.369 1.098.369 1.841V240h-1.341v-5.455c0-.685-.178-1.219-.534-1.602-.356-.386-.844-.579-1.466-.579-.428 0-.81.092-1.147.278a1.985 1.985 0 0 0-.79.813c-.193.356-.29.787-.29 1.295Zm14.842-3.477L254.355 240h-1.364l-3.227-8.727h1.455l2.409 6.954h.091l2.409-6.954h1.454Zm1.77 8.727v-8.727h1.341V240h-1.341Zm.682-10.182a.953.953 0 0 1-.676-.267.856.856 0 0 1-.278-.642c0-.25.092-.464.278-.642a.953.953 0 0 1 .676-.267c.261 0 .485.089.671.267a.851.851 0 0 1 .284.642c0 .25-.095.464-.284.642a.936.936 0 0 1-.671.267ZM263.149 240v-8.727h1.296v1.318h.091c.159-.432.446-.782.863-1.051a2.544 2.544 0 0 1 1.409-.404c.099 0 .222.002.37.006.147.004.259.01.335.017v1.364a3.462 3.462 0 0 0-.313-.051 3.014 3.014 0 0 0-.505-.04c-.425 0-.803.089-1.137.267a2.019 2.019 0 0 0-.784.727 1.963 1.963 0 0 0-.284 1.051V240h-1.341Zm9.233.182c-.788 0-1.479-.188-2.074-.563-.591-.375-1.053-.899-1.386-1.574-.33-.674-.494-1.462-.494-2.363 0-.909.164-1.703.494-2.381.333-.678.795-1.204 1.386-1.579.595-.375 1.286-.563 2.074-.563.788 0 1.477.188 2.068.563.595.375 1.057.901 1.387 1.579.333.678.5 1.472.5 2.381 0 .901-.167 1.689-.5 2.363-.33.675-.792 1.199-1.387 1.574-.591.375-1.28.563-2.068.563Zm0-1.205c.599 0 1.091-.153 1.477-.46.387-.307.673-.71.858-1.21.186-.5.279-1.042.279-1.625 0-.584-.093-1.127-.279-1.631a2.732 2.732 0 0 0-.858-1.221c-.386-.311-.878-.466-1.477-.466-.598 0-1.091.155-1.477.466-.387.31-.673.717-.858 1.221a4.672 4.672 0 0 0-.279 1.631c0 .583.093 1.125.279 1.625.185.5.471.903.858 1.21.386.307.879.46 1.477.46Zm7.342-4.227V240h-1.34v-8.727h1.295v1.363h.114c.204-.443.515-.799.931-1.068.417-.273.955-.409 1.614-.409.591 0 1.108.121 1.551.364.443.238.788.602 1.034 1.091.247.484.37 1.098.37 1.841V240h-1.341v-5.455c0-.685-.178-1.219-.534-1.602-.356-.386-.845-.579-1.466-.579-.428 0-.811.092-1.148.278a1.992 1.992 0 0 0-.79.813c-.193.356-.29.787-.29 1.295Zm8.019 5.25v-8.727h1.295v1.363h.114c.182-.466.475-.827.881-1.085.405-.261.892-.392 1.46-.392.576 0 1.055.131 1.437.392.387.258.688.619.904 1.085h.091c.223-.45.558-.808 1.005-1.074.447-.268.983-.403 1.608-.403.781 0 1.419.244 1.915.733.496.485.744 1.241.744 2.267V240h-1.34v-5.841c0-.644-.177-1.104-.529-1.381a1.957 1.957 0 0 0-1.244-.414c-.614 0-1.089.185-1.426.556-.337.368-.506.834-.506 1.398V240h-1.364v-5.977c0-.496-.161-.896-.483-1.199-.322-.307-.736-.46-1.244-.46-.348 0-.674.092-.977.278a2.1 2.1 0 0 0-.727.773 2.277 2.277 0 0 0-.273 1.13V240h-1.341Zm17.565.182c-.841 0-1.566-.186-2.176-.557a3.736 3.736 0 0 1-1.403-1.568c-.326-.674-.489-1.459-.489-2.352 0-.894.163-1.682.489-2.364.329-.686.788-1.22 1.375-1.602.591-.387 1.28-.58 2.068-.58.454 0 .903.076 1.346.227.444.152.847.398 1.211.739.363.337.653.784.869 1.341.216.557.324 1.242.324 2.057v.568h-6.727v-1.159h5.363c0-.493-.098-.932-.295-1.318a2.219 2.219 0 0 0-.83-.915c-.356-.224-.776-.335-1.261-.335-.534 0-.996.132-1.386.397a2.627 2.627 0 0 0-.893 1.023 3.01 3.01 0 0 0-.312 1.352v.773c0 .659.114 1.218.341 1.676.231.455.551.801.96 1.04.409.235.885.352 1.426.352.353 0 .671-.049.955-.147.288-.103.536-.254.744-.455.208-.205.369-.458.483-.761l1.296.363c-.137.44-.366.826-.688 1.159-.322.33-.72.587-1.193.773a4.425 4.425 0 0 1-1.597.273Zm6.995-5.432V240h-1.341v-8.727h1.295v1.363h.114c.204-.443.515-.799.932-1.068.416-.273.954-.409 1.613-.409.591 0 1.108.121 1.551.364.444.238.788.602 1.034 1.091.247.484.37 1.098.37 1.841V240h-1.341v-5.455c0-.685-.178-1.219-.534-1.602-.356-.386-.845-.579-1.466-.579-.428 0-.811.092-1.148.278a1.998 1.998 0 0 0-.79.813c-.193.356-.289.787-.289 1.295Zm11.813-3.477v1.136h-4.522v-1.136h4.522Zm-3.204-2.091h1.341v8.318c0 .379.055.663.165.852a.847.847 0 0 0 .431.375c.178.061.366.091.563.091.148 0 .269-.007.364-.023l.227-.045.273 1.205a2.74 2.74 0 0 1-.381.102 2.792 2.792 0 0 1-.619.057 2.7 2.7 0 0 1-1.114-.245 2.217 2.217 0 0 1-.898-.744c-.235-.333-.352-.754-.352-1.261v-8.682Zm11.247 4.045-1.204.341a2.229 2.229 0 0 0-.336-.585 1.63 1.63 0 0 0-.591-.477c-.25-.125-.57-.188-.96-.188-.534 0-.979.123-1.335.37-.352.242-.528.551-.528.926 0 .333.121.596.363.789.243.194.621.355 1.137.483l1.295.319c.78.189 1.362.479 1.744.869.383.386.574.884.574 1.494 0 .5-.144.947-.432 1.341-.284.394-.681.705-1.193.932-.511.227-1.106.341-1.784.341-.89 0-1.627-.193-2.21-.58-.583-.386-.953-.95-1.108-1.693l1.273-.318c.121.47.35.822.687 1.057.341.235.786.352 1.335.352.625 0 1.122-.133 1.489-.398.371-.269.557-.591.557-.966 0-.303-.106-.556-.318-.761-.212-.208-.538-.364-.978-.466l-1.454-.341c-.799-.189-1.387-.483-1.762-.88-.371-.402-.556-.904-.556-1.506 0-.493.138-.928.414-1.307a2.827 2.827 0 0 1 1.142-.892c.485-.216 1.035-.324 1.648-.324.864 0 1.542.189 2.034.568.496.379.849.879 1.057 1.5Zm8.655 6.773-2.659-8.727h1.409l1.886 6.682h.091l1.864-6.682h1.432l1.841 6.659h.09l1.887-6.659h1.409L347.405 240h-1.318l-1.909-6.705h-.137L342.132 240h-1.318Zm11.023 0v-8.727h1.341V240h-1.341Zm.681-10.182a.955.955 0 0 1-.676-.267.86.86 0 0 1-.278-.642.86.86 0 0 1 .278-.642.955.955 0 0 1 .676-.267c.262 0 .485.089.671.267a.851.851 0 0 1 .284.642c0 .25-.095.464-.284.642a.935.935 0 0 1-.671.267Zm6.911 1.455v1.136h-4.523v-1.136h4.523Zm-3.205-2.091h1.341v8.318c0 .379.055.663.165.852a.853.853 0 0 0 .432.375c.178.061.365.091.562.091.148 0 .269-.007.364-.023l.227-.045.273 1.205a2.74 2.74 0 0 1-.381.102 2.785 2.785 0 0 1-.619.057 2.7 2.7 0 0 1-1.114-.245 2.214 2.214 0 0 1-.897-.744c-.235-.333-.353-.754-.353-1.261v-8.682Zm6.75 5.568V240h-1.34v-11.636h1.34v4.272h.114c.205-.45.511-.808.921-1.074.412-.268.962-.403 1.647-.403.595 0 1.116.119 1.563.358.447.235.793.597 1.04 1.085.25.485.375 1.103.375 1.853V240h-1.341v-5.455c0-.693-.18-1.229-.54-1.607-.356-.383-.851-.574-1.483-.574-.44 0-.833.092-1.182.278a2.032 2.032 0 0 0-.818.813c-.197.356-.296.787-.296 1.295Zm13.476 8.523a2.93 2.93 0 0 1-.608-.057 1.601 1.601 0 0 1-.369-.102l.341-1.182c.326.083.614.113.864.091.25-.023.471-.135.664-.335.197-.197.377-.518.54-.961l.25-.682-3.227-8.772h1.454l2.409 6.954h.091l2.409-6.954h1.455l-3.705 10c-.166.45-.373.824-.619 1.119a2.321 2.321 0 0 1-.858.665 2.643 2.643 0 0 1-1.091.216Zm11.276-3.091c-.788 0-1.479-.188-2.074-.563-.591-.375-1.053-.899-1.386-1.574-.33-.674-.495-1.462-.495-2.363 0-.909.165-1.703.495-2.381.333-.678.795-1.204 1.386-1.579.595-.375 1.286-.563 2.074-.563.788 0 1.477.188 2.068.563.595.375 1.057.901 1.386 1.579.334.678.5 1.472.5 2.381 0 .901-.166 1.689-.5 2.363a3.758 3.758 0 0 1-1.386 1.574c-.591.375-1.28.563-2.068.563Zm0-1.205c.598 0 1.091-.153 1.477-.46a2.72 2.72 0 0 0 .858-1.21c.186-.5.278-1.042.278-1.625 0-.584-.092-1.127-.278-1.631a2.748 2.748 0 0 0-.858-1.221c-.386-.311-.879-.466-1.477-.466-.599 0-1.091.155-1.477.466-.387.31-.673.717-.858 1.221a4.672 4.672 0 0 0-.279 1.631c0 .583.093 1.125.279 1.625.185.5.471.903.858 1.21.386.307.878.46 1.477.46Zm11.501-2.545v-5.159h1.341V240h-1.341v-1.477h-.091c-.204.443-.522.82-.954 1.13-.432.307-.977.461-1.637.461a2.92 2.92 0 0 1-1.454-.358c-.424-.243-.758-.606-1-1.091-.243-.489-.364-1.104-.364-1.847v-5.545h1.341v5.454c0 .637.178 1.144.534 1.523.36.379.818.568 1.375.568.334 0 .673-.085 1.017-.256.349-.17.64-.431.875-.784.239-.352.358-.801.358-1.346Zm3.797 3.568v-8.727h1.296v1.318h.091c.159-.432.446-.782.863-1.051a2.544 2.544 0 0 1 1.409-.404c.099 0 .222.002.37.006.147.004.259.01.335.017v1.364a3.462 3.462 0 0 0-.313-.051 3.014 3.014 0 0 0-.505-.04c-.425 0-.803.089-1.137.267a2.019 2.019 0 0 0-.784.727 1.963 1.963 0 0 0-.284 1.051V240h-1.341Zm14.34-8.727v1.136h-4.705v-1.136h4.705ZM414.068 240v-9.932c0-.5.118-.916.352-1.25a2.19 2.19 0 0 1 .915-.75c.375-.166.771-.25 1.188-.25.329 0 .598.027.807.08.208.053.363.102.465.147l-.386 1.16a5.962 5.962 0 0 0-.284-.086 1.726 1.726 0 0 0-.466-.051c-.443 0-.763.112-.96.335-.193.224-.29.552-.29.983V240h-1.341Zm7.493.205a3.554 3.554 0 0 1-1.506-.313 2.583 2.583 0 0 1-1.073-.915c-.266-.401-.398-.886-.398-1.454 0-.5.098-.906.295-1.216.197-.315.46-.561.79-.739.33-.178.693-.31 1.091-.398.401-.09.805-.162 1.21-.215.53-.069.96-.12 1.29-.154.333-.038.576-.1.727-.187.156-.087.233-.239.233-.455v-.045c0-.561-.153-.997-.46-1.307-.303-.311-.763-.466-1.381-.466-.64 0-1.142.14-1.505.42-.364.281-.62.58-.767.898l-1.273-.454c.227-.531.53-.944.909-1.239a3.398 3.398 0 0 1 1.25-.625 5.193 5.193 0 0 1 1.341-.182c.28 0 .602.034.966.102.367.065.721.199 1.062.404.345.204.631.513.858.926.227.413.341.966.341 1.659V240h-1.341v-1.182h-.068c-.091.19-.242.392-.455.608-.212.216-.494.4-.846.551-.352.152-.782.228-1.29.228Zm.205-1.205c.53 0 .977-.104 1.341-.312a2.14 2.14 0 0 0 .829-.807c.189-.33.284-.676.284-1.04v-1.227c-.057.068-.182.13-.375.187a6.143 6.143 0 0 1-.659.142c-.246.038-.487.072-.722.102-.231.027-.418.05-.562.069a5.114 5.114 0 0 0-.977.221c-.3.099-.542.248-.728.449-.181.197-.272.466-.272.807 0 .466.172.818.517 1.057.348.235.79.352 1.324.352Zm13.066-7.727L431.605 240h-1.364l-3.227-8.727h1.455l2.409 6.954h.091l2.409-6.954h1.454Zm5.003 8.909c-.788 0-1.479-.188-2.074-.563-.591-.375-1.053-.899-1.386-1.574-.33-.674-.494-1.462-.494-2.363 0-.909.164-1.703.494-2.381.333-.678.795-1.204 1.386-1.579.595-.375 1.286-.563 2.074-.563.788 0 1.478.188 2.068.563.595.375 1.057.901 1.387 1.579.333.678.5 1.472.5 2.381 0 .901-.167 1.689-.5 2.363-.33.675-.792 1.199-1.387 1.574-.59.375-1.28.563-2.068.563Zm0-1.205c.599 0 1.091-.153 1.477-.46.387-.307.673-.71.858-1.21.186-.5.279-1.042.279-1.625 0-.584-.093-1.127-.279-1.631a2.732 2.732 0 0 0-.858-1.221c-.386-.311-.878-.466-1.477-.466-.598 0-1.091.155-1.477.466-.386.31-.672.717-.858 1.221a4.671 4.671 0 0 0-.278 1.631c0 .583.092 1.125.278 1.625.186.5.472.903.858 1.21.386.307.879.46 1.477.46Zm6.002 1.023v-8.727h1.295v1.318h.091c.159-.432.447-.782.864-1.051a2.54 2.54 0 0 1 1.409-.404c.098 0 .221.002.369.006s.26.01.335.017v1.364a3.351 3.351 0 0 0-.312-.051 3.026 3.026 0 0 0-.506-.04c-.424 0-.803.089-1.136.267a1.954 1.954 0 0 0-1.068 1.778V240h-1.341Zm5.953 0v-8.727h1.341V240h-1.341Zm.682-10.182a.955.955 0 0 1-.677-.267.86.86 0 0 1-.278-.642.86.86 0 0 1 .278-.642.955.955 0 0 1 .677-.267c.261 0 .484.089.67.267a.851.851 0 0 1 .284.642c0 .25-.095.464-.284.642a.934.934 0 0 1-.67.267Zm6.91 1.455v1.136h-4.523v-1.136h4.523Zm-3.204-2.091h1.34v8.318c0 .379.055.663.165.852a.853.853 0 0 0 .432.375c.178.061.366.091.563.091.147 0 .268-.007.363-.023l.227-.045.273 1.205a2.76 2.76 0 0 1-.38.102c-.163.038-.37.057-.62.057-.379 0-.75-.082-1.113-.245a2.21 2.21 0 0 1-.898-.744c-.235-.333-.352-.754-.352-1.261v-8.682Zm8.786 11c-.84 0-1.566-.186-2.176-.557a3.736 3.736 0 0 1-1.403-1.568c-.326-.674-.489-1.459-.489-2.352 0-.894.163-1.682.489-2.364.329-.686.788-1.22 1.375-1.602.591-.387 1.28-.58 2.068-.58.455 0 .904.076 1.347.227.443.152.846.398 1.21.739.364.337.653.784.869 1.341.216.557.324 1.242.324 2.057v.568h-6.727v-1.159h5.363c0-.493-.098-.932-.295-1.318a2.219 2.219 0 0 0-.83-.915c-.356-.224-.776-.335-1.261-.335-.534 0-.996.132-1.386.397a2.617 2.617 0 0 0-.892 1.023 2.997 2.997 0 0 0-.313 1.352v.773c0 .659.114 1.218.341 1.676.231.455.551.801.96 1.04.409.235.885.352 1.426.352.353 0 .671-.049.955-.147.288-.103.536-.254.744-.455.209-.205.37-.458.483-.761l1.296.363c-.137.44-.366.826-.688 1.159-.322.33-.719.587-1.193.773a4.421 4.421 0 0 1-1.597.273Zm13.813 0c-.841 0-1.566-.186-2.176-.557a3.744 3.744 0 0 1-1.404-1.568c-.325-.674-.488-1.459-.488-2.352 0-.894.163-1.682.488-2.364.33-.686.788-1.22 1.375-1.602.591-.387 1.281-.58 2.069-.58.454 0 .903.076 1.346.227.443.152.847.398 1.21.739.364.337.654.784.87 1.341.216.557.324 1.242.324 2.057v.568h-6.728v-1.159h5.364c0-.493-.098-.932-.295-1.318a2.226 2.226 0 0 0-.83-.915c-.356-.224-.777-.335-1.261-.335-.534 0-.997.132-1.387.397a2.633 2.633 0 0 0-.892 1.023 3.01 3.01 0 0 0-.312 1.352v.773c0 .659.113 1.218.341 1.676.231.455.551.801.96 1.04.409.235.884.352 1.426.352.352 0 .67-.049.955-.147.287-.103.536-.254.744-.455.208-.205.369-.458.483-.761l1.295.363a2.86 2.86 0 0 1-.687 1.159c-.322.33-.72.587-1.193.773a4.425 4.425 0 0 1-1.597.273Zm8.949 0c-.727 0-1.369-.184-1.926-.551-.557-.372-.993-.894-1.307-1.569-.314-.678-.472-1.479-.472-2.403 0-.917.158-1.712.472-2.386.314-.675.752-1.195 1.312-1.563.561-.367 1.209-.551 1.944-.551.568 0 1.017.095 1.346.284.334.186.587.398.762.637.178.234.316.428.414.579h.114v-4.295h1.341V240h-1.296v-1.341h-.159c-.098.159-.238.36-.42.602-.182.239-.441.453-.779.642-.337.186-.786.279-1.346.279Zm.182-1.205c.538 0 .992-.14 1.363-.42.372-.284.654-.676.847-1.176.193-.504.29-1.086.29-1.745 0-.651-.095-1.221-.284-1.71-.19-.492-.47-.875-.841-1.148-.372-.276-.83-.414-1.375-.414-.569 0-1.042.145-1.421.437-.375.288-.657.68-.846 1.176a4.67 4.67 0 0 0-.279 1.659c0 .622.095 1.186.284 1.694.193.503.478.905.853 1.204.378.296.848.443 1.409.443Zm6.46 1.023v-8.727h1.341V240h-1.341Zm.682-10.182a.951.951 0 0 1-.676-.267.857.857 0 0 1-.279-.642c0-.25.093-.464.279-.642a.951.951 0 0 1 .676-.267c.261 0 .485.089.67.267.19.178.284.392.284.642s-.094.464-.284.642a.932.932 0 0 1-.67.267Zm6.91 1.455v1.136h-4.522v-1.136h4.522Zm-3.204-2.091h1.341v8.318c0 .379.055.663.164.852a.853.853 0 0 0 .432.375c.178.061.366.091.563.091.147 0 .269-.007.363-.023l.228-.045.272 1.205a2.72 2.72 0 0 1-.38.102c-.163.038-.37.057-.62.057-.378 0-.75-.082-1.113-.245a2.217 2.217 0 0 1-.898-.744c-.235-.333-.352-.754-.352-1.261v-8.682Zm8.673 11c-.788 0-1.479-.188-2.074-.563-.591-.375-1.053-.899-1.386-1.574-.33-.674-.495-1.462-.495-2.363 0-.909.165-1.703.495-2.381.333-.678.795-1.204 1.386-1.579.595-.375 1.286-.563 2.074-.563.788 0 1.477.188 2.068.563.595.375 1.057.901 1.387 1.579.333.678.5 1.472.5 2.381 0 .901-.167 1.689-.5 2.363-.33.675-.792 1.199-1.387 1.574-.591.375-1.28.563-2.068.563Zm0-1.205c.598 0 1.091-.153 1.477-.46.387-.307.673-.71.858-1.21.186-.5.279-1.042.279-1.625 0-.584-.093-1.127-.279-1.631a2.732 2.732 0 0 0-.858-1.221c-.386-.311-.879-.466-1.477-.466-.599 0-1.091.155-1.477.466-.387.31-.673.717-.858 1.221a4.672 4.672 0 0 0-.279 1.631c0 .583.093 1.125.279 1.625.185.5.471.903.858 1.21.386.307.878.46 1.477.46ZM513.43 240v-8.727h1.296v1.318h.091c.159-.432.447-.782.863-1.051a2.544 2.544 0 0 1 1.409-.404c.099 0 .222.002.37.006a5.5 5.5 0 0 1 .335.017v1.364a3.416 3.416 0 0 0-.312-.051 3.035 3.035 0 0 0-.506-.04 2.38 2.38 0 0 0-1.137.267c-.329.174-.59.417-.784.727a1.963 1.963 0 0 0-.284 1.051V240h-1.341Zm5.931.091a.983.983 0 0 1-.722-.301.985.985 0 0 1-.301-.722c0-.28.1-.521.301-.721a.984.984 0 0 1 .722-.302c.28 0 .521.101.721.302.201.2.302.441.302.721a.965.965 0 0 1-.143.512 1.06 1.06 0 0 1-.369.375.981.981 0 0 1-.511.136ZM9.364 256a4.096 4.096 0 0 0-.495-1.028 3.154 3.154 0 0 0-.721-.784 3.036 3.036 0 0 0-.943-.495 3.778 3.778 0 0 0-1.16-.17c-.689 0-1.316.178-1.88.534-.565.356-1.013.881-1.347 1.574-.333.693-.5 1.543-.5 2.551 0 1.007.169 1.858.506 2.551.337.693.793 1.218 1.37 1.574a3.62 3.62 0 0 0 1.942.534c.667 0 1.254-.142 1.762-.426.511-.288.909-.693 1.193-1.216.288-.527.432-1.146.432-1.858l.432.091h-3.5v-1.25h4.431v1.25c0 .958-.204 1.791-.613 2.5a4.247 4.247 0 0 1-1.682 1.648c-.712.386-1.53.579-2.455.579-1.03 0-1.935-.242-2.716-.727-.776-.485-1.382-1.174-1.818-2.068-.432-.894-.647-1.955-.647-3.182 0-.921.123-1.748.369-2.483.25-.739.602-1.368 1.057-1.887a4.638 4.638 0 0 1 1.613-1.193 4.995 4.995 0 0 1 2.051-.414c.614 0 1.186.092 1.716.278a4.61 4.61 0 0 1 2.478 1.977c.28.462.473.976.58 1.54H9.363Zm7.413 8.182c-.84 0-1.566-.186-2.176-.557a3.74 3.74 0 0 1-1.404-1.568c-.325-.674-.488-1.459-.488-2.352 0-.894.163-1.682.488-2.364.33-.686.788-1.22 1.375-1.602.591-.387 1.28-.58 2.069-.58.454 0 .903.076 1.346.227.443.152.847.398 1.21.739.364.337.654.784.87 1.341.216.557.324 1.242.324 2.057v.568h-6.728v-1.159h5.364c0-.493-.099-.932-.296-1.318a2.22 2.22 0 0 0-.829-.915c-.356-.224-.777-.335-1.261-.335-.534 0-.997.132-1.387.397a2.624 2.624 0 0 0-.892 1.023 3.006 3.006 0 0 0-.312 1.352v.773c0 .659.113 1.218.34 1.676.232.455.552.801.96 1.04.41.235.885.352 1.427.352.352 0 .67-.049.954-.147.288-.103.536-.254.745-.455.208-.205.37-.458.483-.761l1.295.363c-.136.44-.365.826-.687 1.159-.322.33-.72.587-1.193.773a4.421 4.421 0 0 1-1.597.273Zm9.449-8.909v1.136h-4.523v-1.136h4.523Zm-3.205-2.091h1.341v8.318c0 .379.055.663.165.852a.85.85 0 0 0 .432.375c.178.061.365.091.562.091.148 0 .27-.007.364-.023l.227-.045.273 1.205c-.091.034-.218.068-.38.102-.164.038-.37.057-.62.057-.379 0-.75-.082-1.114-.245a2.215 2.215 0 0 1-.897-.744c-.235-.333-.353-.754-.353-1.261v-8.682Zm12.29 11.023a3.552 3.552 0 0 1-1.506-.313 2.582 2.582 0 0 1-1.074-.915c-.265-.401-.397-.886-.397-1.454 0-.5.098-.906.295-1.216.197-.315.46-.561.79-.739.33-.178.693-.31 1.09-.398.402-.09.806-.162 1.211-.215.53-.069.96-.12 1.29-.154.333-.038.576-.1.727-.187.155-.087.233-.239.233-.455v-.045c0-.561-.153-.997-.46-1.307-.303-.311-.763-.466-1.38-.466-.64 0-1.143.14-1.506.42-.364.281-.62.58-.768.898l-1.272-.454c.227-.531.53-.944.909-1.239.383-.299.8-.508 1.25-.625a5.199 5.199 0 0 1 1.34-.182c.281 0 .603.034.967.102.367.065.721.199 1.062.404.345.204.63.513.858.926.227.413.341.966.341 1.659V264h-1.34v-1.182h-.069a2.35 2.35 0 0 1-.455.608c-.212.216-.494.4-.846.551-.352.152-.782.228-1.29.228Zm.205-1.205c.53 0 .977-.104 1.34-.312.368-.209.645-.478.83-.807.19-.33.284-.676.284-1.04v-1.227c-.057.068-.182.13-.375.187-.19.053-.409.101-.659.142-.246.038-.487.072-.721.102-.232.027-.42.05-.563.069a5.108 5.108 0 0 0-.977.221c-.3.099-.542.248-.728.449-.181.197-.272.466-.272.807 0 .466.172.818.517 1.057.348.235.79.352 1.324.352Zm7.583-10.636V264h-1.34v-11.636h1.34ZM47.533 264l-2.66-8.727h1.41l1.886 6.682h.09l1.865-6.682h1.431l1.841 6.659h.091l1.887-6.659h1.409L54.123 264h-1.318l-1.909-6.705h-.136L48.85 264h-1.317Zm13.59.205a3.552 3.552 0 0 1-1.505-.313 2.582 2.582 0 0 1-1.074-.915c-.265-.401-.398-.886-.398-1.454 0-.5.099-.906.296-1.216.197-.315.46-.561.79-.739.33-.178.693-.31 1.09-.398.402-.09.805-.162 1.21-.215.531-.069.96-.12 1.29-.154.334-.038.576-.1.728-.187.155-.087.233-.239.233-.455v-.045c0-.561-.154-.997-.46-1.307-.304-.311-.764-.466-1.381-.466-.64 0-1.142.14-1.506.42-.364.281-.62.58-.767.898l-1.273-.454c.228-.531.53-.944.91-1.239.382-.299.799-.508 1.25-.625a5.199 5.199 0 0 1 1.34-.182c.28 0 .603.034.966.102.368.065.722.199 1.063.404.344.204.63.513.858.926.227.413.34.966.34 1.659V264h-1.34v-1.182h-.069a2.35 2.35 0 0 1-.454.608c-.212.216-.494.4-.847.551-.352.152-.782.228-1.29.228Zm.205-1.205c.53 0 .977-.104 1.341-.312.367-.209.644-.478.83-.807.189-.33.284-.676.284-1.04v-1.227c-.057.068-.182.13-.375.187-.19.053-.41.101-.66.142-.246.038-.486.072-.721.102-.231.027-.419.05-.563.069a5.108 5.108 0 0 0-.977.221c-.299.099-.541.248-.727.449-.182.197-.273.466-.273.807 0 .466.173.818.517 1.057.349.235.79.352 1.324.352Zm6.794 4.273c-.227 0-.43-.019-.608-.057a1.608 1.608 0 0 1-.37-.102l.342-1.182c.326.083.613.113.863.091a1.04 1.04 0 0 0 .665-.335c.197-.197.377-.518.54-.961l.25-.682-3.227-8.772h1.454l2.41 6.954h.09l2.41-6.954h1.454l-3.705 10c-.166.45-.373.824-.619 1.119a2.325 2.325 0 0 1-.858.665 2.645 2.645 0 0 1-1.09.216Zm14.225-10.046-1.205.341a2.225 2.225 0 0 0-.335-.585 1.628 1.628 0 0 0-.591-.477c-.25-.125-.57-.188-.96-.188-.534 0-.98.123-1.335.37-.353.242-.529.551-.529.926 0 .333.121.596.364.789.242.194.62.355 1.136.483l1.296.319c.78.189 1.361.479 1.744.869.382.386.574.884.574 1.494 0 .5-.144.947-.432 1.341-.284.394-.682.705-1.193.932-.512.227-1.106.341-1.784.341-.89 0-1.627-.193-2.21-.58-.584-.386-.953-.95-1.109-1.693l1.273-.318c.121.47.35.822.688 1.057.34.235.786.352 1.335.352.625 0 1.121-.133 1.489-.398.37-.269.556-.591.556-.966 0-.303-.106-.556-.318-.761-.212-.208-.538-.364-.977-.466l-1.455-.341c-.799-.189-1.386-.483-1.761-.88-.371-.402-.557-.904-.557-1.506 0-.493.138-.928.415-1.307.28-.379.66-.676 1.142-.892.485-.216 1.034-.324 1.648-.324.863 0 1.541.189 2.034.568.496.379.848.879 1.057 1.5Zm10.223 6.955c-.819 0-1.523-.193-2.114-.58a3.774 3.774 0 0 1-1.364-1.596c-.318-.678-.477-1.453-.477-2.324 0-.887.163-1.669.489-2.347.33-.682.788-1.214 1.375-1.596.59-.387 1.28-.58 2.068-.58.614 0 1.166.114 1.659.341.492.227.896.545 1.21.955.315.409.51.886.585 1.431h-1.34c-.103-.397-.33-.75-.682-1.056-.349-.311-.819-.466-1.41-.466-.522 0-.98.136-1.374.409-.39.269-.695.649-.915 1.142-.216.488-.324 1.062-.324 1.721 0 .675.106 1.262.318 1.762.216.5.52.888.91 1.164.393.277.855.415 1.386.415.348 0 .664-.06.949-.182.284-.121.524-.295.721-.522.197-.228.337-.5.42-.818h1.341a3.106 3.106 0 0 1-.562 1.392 3.149 3.149 0 0 1-1.176.977c-.485.238-1.05.358-1.693.358Zm8.937 0c-.788 0-1.479-.188-2.074-.563-.59-.375-1.053-.899-1.386-1.574-.33-.674-.494-1.462-.494-2.363 0-.909.164-1.703.494-2.381.333-.678.795-1.204 1.386-1.579.595-.375 1.286-.563 2.074-.563.788 0 1.477.188 2.068.563.595.375 1.057.901 1.387 1.579.333.678.5 1.472.5 2.381 0 .901-.167 1.689-.5 2.363-.33.675-.792 1.199-1.387 1.574-.591.375-1.28.563-2.068.563Zm0-1.205c.599 0 1.091-.153 1.477-.46.387-.307.673-.71.858-1.21.186-.5.279-1.042.279-1.625 0-.584-.093-1.127-.279-1.631a2.732 2.732 0 0 0-.858-1.221c-.386-.311-.878-.466-1.477-.466-.598 0-1.091.155-1.477.466-.386.31-.672.717-.858 1.221a4.68 4.68 0 0 0-.278 1.631c0 .583.092 1.125.278 1.625.186.5.472.903.858 1.21.386.307.879.46 1.477.46Zm7.342-4.227V264h-1.34v-8.727h1.295v1.363h.114c.204-.443.515-.799.931-1.068.417-.273.955-.409 1.614-.409.591 0 1.108.121 1.551.364.443.238.788.602 1.034 1.091.247.484.37 1.098.37 1.841V264h-1.341v-5.455c0-.685-.178-1.219-.534-1.602-.356-.386-.845-.579-1.466-.579-.428 0-.811.092-1.148.278a1.992 1.992 0 0 0-.79.813c-.193.356-.29.787-.29 1.295Zm14.201-1.523-1.205.341a2.224 2.224 0 0 0-.335-.585 1.63 1.63 0 0 0-.591-.477c-.25-.125-.57-.188-.96-.188-.534 0-.979.123-1.335.37-.353.242-.529.551-.529.926 0 .333.121.596.364.789.242.194.621.355 1.136.483l1.296.319c.78.189 1.361.479 1.744.869.383.386.574.884.574 1.494 0 .5-.144.947-.432 1.341-.284.394-.682.705-1.193.932-.512.227-1.106.341-1.784.341-.89 0-1.627-.193-2.211-.58-.583-.386-.952-.95-1.107-1.693l1.272-.318c.121.47.351.822.688 1.057.341.235.786.352 1.335.352.625 0 1.121-.133 1.489-.398.371-.269.556-.591.556-.966 0-.303-.106-.556-.318-.761-.212-.208-.538-.364-.977-.466l-1.455-.341c-.799-.189-1.386-.483-1.761-.88-.371-.402-.557-.904-.557-1.506 0-.493.139-.928.415-1.307a2.82 2.82 0 0 1 1.142-.892c.485-.216 1.034-.324 1.648-.324.863 0 1.541.189 2.034.568a3.07 3.07 0 0 1 1.057 1.5Zm2.177 6.773v-8.727h1.341V264h-1.341Zm.682-10.182a.953.953 0 0 1-.676-.267.856.856 0 0 1-.278-.642c0-.25.092-.464.278-.642a.953.953 0 0 1 .676-.267c.261 0 .485.089.671.267a.851.851 0 0 1 .284.642c0 .25-.095.464-.284.642a.936.936 0 0 1-.671.267Zm9.297 3.409-1.205.341a2.197 2.197 0 0 0-.335-.585 1.63 1.63 0 0 0-.591-.477c-.25-.125-.57-.188-.96-.188-.534 0-.979.123-1.335.37-.352.242-.529.551-.529.926 0 .333.122.596.364.789.242.194.621.355 1.136.483l1.296.319c.78.189 1.362.479 1.744.869.383.386.574.884.574 1.494 0 .5-.144.947-.432 1.341-.284.394-.682.705-1.193.932-.511.227-1.106.341-1.784.341-.89 0-1.627-.193-2.21-.58-.584-.386-.953-.95-1.108-1.693l1.273-.318c.121.47.35.822.687 1.057.341.235.786.352 1.335.352.625 0 1.121-.133 1.489-.398.371-.269.557-.591.557-.966 0-.303-.106-.556-.318-.761-.213-.208-.538-.364-.978-.466l-1.454-.341c-.8-.189-1.387-.483-1.762-.88-.371-.402-.556-.904-.556-1.506 0-.493.138-.928.414-1.307a2.827 2.827 0 0 1 1.142-.892c.485-.216 1.034-.324 1.648-.324.864 0 1.542.189 2.034.568.496.379.849.879 1.057 1.5Zm5.973-1.954v1.136h-4.523v-1.136h4.523Zm-3.205-2.091h1.341v8.318c0 .379.055.663.165.852a.853.853 0 0 0 .432.375c.178.061.365.091.562.091.148 0 .269-.007.364-.023l.227-.045.273 1.205a2.74 2.74 0 0 1-.381.102 2.785 2.785 0 0 1-.619.057 2.7 2.7 0 0 1-1.114-.245 2.214 2.214 0 0 1-.897-.744c-.235-.333-.353-.754-.353-1.261v-8.682Zm8.787 11c-.841 0-1.566-.186-2.176-.557a3.736 3.736 0 0 1-1.403-1.568c-.326-.674-.489-1.459-.489-2.352 0-.894.163-1.682.489-2.364.329-.686.788-1.22 1.375-1.602.591-.387 1.28-.58 2.068-.58.455 0 .903.076 1.347.227.443.152.846.398 1.21.739.363.337.653.784.869 1.341.216.557.324 1.242.324 2.057v.568h-6.727v-1.159h5.363c0-.493-.098-.932-.295-1.318a2.219 2.219 0 0 0-.83-.915c-.356-.224-.776-.335-1.261-.335-.534 0-.996.132-1.386.397a2.617 2.617 0 0 0-.892 1.023 2.997 2.997 0 0 0-.313 1.352v.773c0 .659.114 1.218.341 1.676.231.455.551.801.96 1.04.409.235.885.352 1.426.352.353 0 .671-.049.955-.147.288-.103.536-.254.744-.455.209-.205.37-.458.483-.761l1.296.363c-.137.44-.366.826-.688 1.159-.322.33-.72.587-1.193.773a4.425 4.425 0 0 1-1.597.273Zm6.995-5.432V264h-1.341v-8.727h1.295v1.363h.114c.204-.443.515-.799.932-1.068.416-.273.954-.409 1.613-.409.591 0 1.108.121 1.551.364.444.238.788.602 1.035 1.091.246.484.369 1.098.369 1.841V264h-1.341v-5.455c0-.685-.178-1.219-.534-1.602-.356-.386-.845-.579-1.466-.579-.428 0-.811.092-1.148.278a1.998 1.998 0 0 0-.79.813c-.193.356-.289.787-.289 1.295Zm11.814-3.477v1.136h-4.523v-1.136h4.523Zm-3.205-2.091h1.341v8.318c0 .379.055.663.165.852a.845.845 0 0 0 .432.375c.178.061.365.091.562.091.148 0 .269-.007.364-.023l.227-.045.273 1.205a2.74 2.74 0 0 1-.381.102 2.792 2.792 0 0 1-.619.057 2.7 2.7 0 0 1-1.114-.245 2.217 2.217 0 0 1-.898-.744c-.235-.333-.352-.754-.352-1.261v-8.682Zm13.017 11c-.727 0-1.369-.184-1.926-.551-.557-.372-.992-.894-1.307-1.569-.314-.678-.471-1.479-.471-2.403 0-.917.157-1.712.471-2.386.315-.675.752-1.195 1.313-1.563.56-.367 1.208-.551 1.943-.551.568 0 1.017.095 1.346.284.334.186.588.398.762.637.178.234.316.428.415.579h.113v-4.295h1.341V264h-1.295v-1.341h-.159c-.099.159-.239.36-.421.602-.182.239-.441.453-.778.642-.337.186-.786.279-1.347.279Zm.182-1.205c.538 0 .992-.14 1.364-.42.371-.284.653-.676.846-1.176.193-.504.29-1.086.29-1.745 0-.651-.095-1.221-.284-1.71-.19-.492-.47-.875-.841-1.148-.371-.276-.83-.414-1.375-.414-.568 0-1.042.145-1.421.437-.375.288-.657.68-.846 1.176a4.67 4.67 0 0 0-.279 1.659c0 .622.095 1.186.285 1.694.193.503.477.905.852 1.204.379.296.848.443 1.409.443Zm10.119 1.205c-.841 0-1.566-.186-2.176-.557a3.736 3.736 0 0 1-1.403-1.568c-.326-.674-.489-1.459-.489-2.352 0-.894.163-1.682.489-2.364.329-.686.788-1.22 1.375-1.602.591-.387 1.28-.58 2.068-.58.454 0 .903.076 1.346.227.444.152.847.398 1.211.739.363.337.653.784.869 1.341.216.557.324 1.242.324 2.057v.568h-6.727v-1.159h5.363c0-.493-.098-.932-.295-1.318a2.219 2.219 0 0 0-.83-.915c-.356-.224-.776-.335-1.261-.335-.534 0-.996.132-1.386.397a2.627 2.627 0 0 0-.893 1.023 3.01 3.01 0 0 0-.312 1.352v.773c0 .659.114 1.218.341 1.676.231.455.551.801.96 1.04.409.235.885.352 1.426.352.353 0 .671-.049.955-.147.288-.103.536-.254.744-.455.208-.205.369-.458.483-.761l1.296.363c-.137.44-.366.826-.688 1.159-.322.33-.72.587-1.193.773a4.425 4.425 0 0 1-1.597.273Zm12.524-8.909L194.98 264h-1.364l-3.227-8.727h1.455l2.409 6.954h.091l2.409-6.954h1.454Zm5.117 8.909c-.841 0-1.566-.186-2.176-.557a3.744 3.744 0 0 1-1.404-1.568c-.325-.674-.488-1.459-.488-2.352 0-.894.163-1.682.488-2.364.33-.686.788-1.22 1.375-1.602.591-.387 1.281-.58 2.069-.58.454 0 .903.076 1.346.227.443.152.847.398 1.21.739.364.337.654.784.87 1.341.216.557.324 1.242.324 2.057v.568h-6.728v-1.159h5.364c0-.493-.099-.932-.296-1.318a2.217 2.217 0 0 0-.829-.915c-.356-.224-.777-.335-1.261-.335-.535 0-.997.132-1.387.397a2.625 2.625 0 0 0-.892 1.023 3.01 3.01 0 0 0-.312 1.352v.773c0 .659.113 1.218.341 1.676.231.455.551.801.96 1.04.409.235.884.352 1.426.352.352 0 .67-.049.954-.147.288-.103.536-.254.745-.455.208-.205.369-.458.483-.761l1.295.363a2.86 2.86 0 0 1-.687 1.159 3.35 3.35 0 0 1-1.194.773 4.416 4.416 0 0 1-1.596.273Zm6.994-11.818V264h-1.341v-11.636h1.341Zm6.002 11.818c-.788 0-1.48-.188-2.074-.563-.591-.375-1.053-.899-1.387-1.574-.329-.674-.494-1.462-.494-2.363 0-.909.165-1.703.494-2.381.334-.678.796-1.204 1.387-1.579.594-.375 1.286-.563 2.074-.563.787 0 1.477.188 2.068.563.594.375 1.057.901 1.386 1.579.333.678.5 1.472.5 2.381 0 .901-.167 1.689-.5 2.363a3.765 3.765 0 0 1-1.386 1.574c-.591.375-1.281.563-2.068.563Zm0-1.205c.598 0 1.091-.153 1.477-.46a2.72 2.72 0 0 0 .858-1.21c.185-.5.278-1.042.278-1.625 0-.584-.093-1.127-.278-1.631a2.748 2.748 0 0 0-.858-1.221c-.386-.311-.879-.466-1.477-.466-.599 0-1.091.155-1.478.466-.386.31-.672.717-.858 1.221a4.695 4.695 0 0 0-.278 1.631c0 .583.093 1.125.278 1.625.186.5.472.903.858 1.21.387.307.879.46 1.478.46Zm6.001 4.296v-12h1.295v1.386h.16c.098-.151.234-.345.409-.579.178-.239.431-.451.761-.637.333-.189.784-.284 1.352-.284.735 0 1.383.184 1.943.551.561.368.999.888 1.313 1.563.314.674.472 1.469.472 2.386 0 .924-.158 1.725-.472 2.403-.314.675-.75 1.197-1.307 1.569-.557.367-1.199.551-1.926.551-.561 0-1.009-.093-1.347-.279-.337-.189-.596-.403-.778-.642a8.279 8.279 0 0 1-.42-.602h-.114v4.614h-1.341Zm1.318-7.637c0 .659.097 1.241.29 1.745.193.5.475.892.847 1.176.371.28.825.42 1.363.42.561 0 1.029-.147 1.404-.443.378-.299.662-.701.852-1.204.193-.508.29-1.072.29-1.694 0-.613-.095-1.166-.284-1.659-.186-.496-.468-.888-.847-1.176-.375-.292-.847-.437-1.415-.437-.545 0-1.004.138-1.375.414-.371.273-.651.656-.841 1.148-.189.489-.284 1.059-.284 1.71Zm8.432 4.364v-8.727h1.295v1.363h.114c.182-.466.475-.827.881-1.085.405-.261.892-.392 1.46-.392.576 0 1.055.131 1.438.392.386.258.687.619.903 1.085h.091a2.55 2.55 0 0 1 1.006-1.074c.446-.268.982-.403 1.607-.403.781 0 1.419.244 1.915.733.496.485.745 1.241.745 2.267V264h-1.341v-5.841c0-.644-.176-1.104-.529-1.381a1.957 1.957 0 0 0-1.244-.414c-.614 0-1.089.185-1.426.556-.337.368-.506.834-.506 1.398V264h-1.364v-5.977c0-.496-.161-.896-.482-1.199-.322-.307-.737-.46-1.245-.46-.348 0-.674.092-.977.278a2.1 2.1 0 0 0-.727.773 2.277 2.277 0 0 0-.273 1.13V264h-1.341Zm17.565.182c-.841 0-1.566-.186-2.176-.557a3.736 3.736 0 0 1-1.403-1.568c-.326-.674-.489-1.459-.489-2.352 0-.894.163-1.682.489-2.364.329-.686.788-1.22 1.375-1.602.591-.387 1.28-.58 2.068-.58.455 0 .903.076 1.347.227.443.152.846.398 1.21.739.363.337.653.784.869 1.341.216.557.324 1.242.324 2.057v.568h-6.727v-1.159h5.363c0-.493-.098-.932-.295-1.318a2.219 2.219 0 0 0-.83-.915c-.356-.224-.776-.335-1.261-.335-.534 0-.996.132-1.386.397a2.617 2.617 0 0 0-.892 1.023 2.997 2.997 0 0 0-.313 1.352v.773c0 .659.114 1.218.341 1.676.231.455.551.801.96 1.04.409.235.885.352 1.426.352.353 0 .671-.049.955-.147.288-.103.536-.254.744-.455.209-.205.37-.458.483-.761l1.296.363c-.137.44-.366.826-.688 1.159-.322.33-.72.587-1.193.773a4.425 4.425 0 0 1-1.597.273Zm6.995-5.432V264h-1.341v-8.727h1.295v1.363h.114c.204-.443.515-.799.932-1.068.416-.273.954-.409 1.613-.409.591 0 1.108.121 1.551.364.444.238.788.602 1.035 1.091.246.484.369 1.098.369 1.841V264h-1.341v-5.455c0-.685-.178-1.219-.534-1.602-.356-.386-.845-.579-1.466-.579-.428 0-.811.092-1.148.278a1.998 1.998 0 0 0-.79.813c-.193.356-.289.787-.289 1.295Zm11.814-3.477v1.136h-4.523v-1.136h4.523Zm-3.205-2.091h1.341v8.318c0 .379.055.663.165.852a.845.845 0 0 0 .432.375c.178.061.365.091.562.091.148 0 .269-.007.364-.023l.227-.045.273 1.205a2.74 2.74 0 0 1-.381.102 2.792 2.792 0 0 1-.619.057 2.7 2.7 0 0 1-1.114-.245 2.217 2.217 0 0 1-.898-.744c-.235-.333-.352-.754-.352-1.261v-8.682Zm13.381 11c-.841 0-1.567-.186-2.176-.557a3.744 3.744 0 0 1-1.404-1.568c-.326-.674-.488-1.459-.488-2.352 0-.894.162-1.682.488-2.364.33-.686.788-1.22 1.375-1.602.591-.387 1.28-.58 2.068-.58.455 0 .904.076 1.347.227.443.152.847.398 1.21.739.364.337.654.784.87 1.341.215.557.323 1.242.323 2.057v.568h-6.727v-1.159h5.364c0-.493-.099-.932-.296-1.318a2.217 2.217 0 0 0-.829-.915c-.356-.224-.777-.335-1.262-.335-.534 0-.996.132-1.386.397a2.625 2.625 0 0 0-.892 1.023 3.01 3.01 0 0 0-.313 1.352v.773c0 .659.114 1.218.341 1.676.231.455.552.801.961 1.04.409.235.884.352 1.426.352.352 0 .67-.049.954-.147.288-.103.536-.254.745-.455.208-.205.369-.458.483-.761l1.295.363c-.136.44-.366.826-.687 1.159a3.35 3.35 0 0 1-1.194.773 4.416 4.416 0 0 1-1.596.273Zm6.994-5.432V264h-1.341v-8.727h1.296v1.363h.113c.205-.443.515-.799.932-1.068.417-.273.955-.409 1.614-.409.591 0 1.108.121 1.551.364.443.238.788.602 1.034 1.091.246.484.369 1.098.369 1.841V264h-1.341v-5.455c0-.685-.178-1.219-.534-1.602-.356-.386-.844-.579-1.466-.579-.428 0-.81.092-1.147.278a1.985 1.985 0 0 0-.79.813c-.193.356-.29.787-.29 1.295Zm14.842-3.477L297.23 264h-1.364l-3.227-8.727h1.455l2.409 6.954h.091l2.409-6.954h1.454Zm1.77 8.727v-8.727h1.341V264h-1.341Zm.682-10.182a.953.953 0 0 1-.676-.267.856.856 0 0 1-.278-.642c0-.25.092-.464.278-.642a.953.953 0 0 1 .676-.267c.261 0 .485.089.671.267a.851.851 0 0 1 .284.642c0 .25-.095.464-.284.642a.936.936 0 0 1-.671.267ZM306.024 264v-8.727h1.296v1.318h.091c.159-.432.446-.782.863-1.051a2.544 2.544 0 0 1 1.409-.404c.099 0 .222.002.37.006.147.004.259.01.335.017v1.364a3.462 3.462 0 0 0-.313-.051 3.014 3.014 0 0 0-.505-.04c-.425 0-.803.089-1.137.267a2.019 2.019 0 0 0-.784.727 1.963 1.963 0 0 0-.284 1.051V264h-1.341Zm9.233.182c-.788 0-1.479-.188-2.074-.563-.591-.375-1.053-.899-1.386-1.574-.33-.674-.494-1.462-.494-2.363 0-.909.164-1.703.494-2.381.333-.678.795-1.204 1.386-1.579.595-.375 1.286-.563 2.074-.563.788 0 1.477.188 2.068.563.595.375 1.057.901 1.387 1.579.333.678.5 1.472.5 2.381 0 .901-.167 1.689-.5 2.363-.33.675-.792 1.199-1.387 1.574-.591.375-1.28.563-2.068.563Zm0-1.205c.599 0 1.091-.153 1.477-.46.387-.307.673-.71.858-1.21.186-.5.279-1.042.279-1.625 0-.584-.093-1.127-.279-1.631a2.732 2.732 0 0 0-.858-1.221c-.386-.311-.878-.466-1.477-.466-.598 0-1.091.155-1.477.466-.387.31-.673.717-.858 1.221a4.672 4.672 0 0 0-.279 1.631c0 .583.093 1.125.279 1.625.185.5.471.903.858 1.21.386.307.879.46 1.477.46Zm7.342-4.227V264h-1.34v-8.727h1.295v1.363h.114c.204-.443.515-.799.931-1.068.417-.273.955-.409 1.614-.409.591 0 1.108.121 1.551.364.443.238.788.602 1.034 1.091.247.484.37 1.098.37 1.841V264h-1.341v-5.455c0-.685-.178-1.219-.534-1.602-.356-.386-.845-.579-1.466-.579-.428 0-.811.092-1.148.278a1.992 1.992 0 0 0-.79.813c-.193.356-.29.787-.29 1.295Zm8.019 5.25v-8.727h1.295v1.363h.114c.182-.466.475-.827.881-1.085.405-.261.892-.392 1.46-.392.576 0 1.055.131 1.437.392.387.258.688.619.904 1.085h.091c.223-.45.558-.808 1.005-1.074.447-.268.983-.403 1.608-.403.781 0 1.419.244 1.915.733.496.485.744 1.241.744 2.267V264h-1.34v-5.841c0-.644-.177-1.104-.529-1.381a1.957 1.957 0 0 0-1.244-.414c-.614 0-1.089.185-1.426.556-.337.368-.506.834-.506 1.398V264h-1.364v-5.977c0-.496-.161-.896-.483-1.199-.322-.307-.736-.46-1.244-.46-.348 0-.674.092-.977.278a2.1 2.1 0 0 0-.727.773 2.277 2.277 0 0 0-.273 1.13V264h-1.341Zm17.565.182c-.841 0-1.566-.186-2.176-.557a3.736 3.736 0 0 1-1.403-1.568c-.326-.674-.489-1.459-.489-2.352 0-.894.163-1.682.489-2.364.329-.686.788-1.22 1.375-1.602.591-.387 1.28-.58 2.068-.58.454 0 .903.076 1.346.227.444.152.847.398 1.211.739.363.337.653.784.869 1.341.216.557.324 1.242.324 2.057v.568h-6.727v-1.159h5.363c0-.493-.098-.932-.295-1.318a2.219 2.219 0 0 0-.83-.915c-.356-.224-.776-.335-1.261-.335-.534 0-.996.132-1.386.397a2.627 2.627 0 0 0-.893 1.023 3.01 3.01 0 0 0-.312 1.352v.773c0 .659.114 1.218.341 1.676.231.455.551.801.96 1.04.409.235.885.352 1.426.352.353 0 .671-.049.955-.147.288-.103.536-.254.744-.455.208-.205.369-.458.483-.761l1.296.363c-.137.44-.366.826-.688 1.159-.322.33-.72.587-1.193.773a4.425 4.425 0 0 1-1.597.273Zm6.995-5.432V264h-1.341v-8.727h1.295v1.363h.114c.204-.443.515-.799.932-1.068.416-.273.954-.409 1.613-.409.591 0 1.108.121 1.551.364.444.238.788.602 1.034 1.091.247.484.37 1.098.37 1.841V264h-1.341v-5.455c0-.685-.178-1.219-.534-1.602-.356-.386-.845-.579-1.466-.579-.428 0-.811.092-1.148.278a1.998 1.998 0 0 0-.79.813c-.193.356-.289.787-.289 1.295Zm11.813-3.477v1.136h-4.522v-1.136h4.522Zm-3.204-2.091h1.341v8.318c0 .379.055.663.165.852a.847.847 0 0 0 .431.375c.178.061.366.091.563.091.148 0 .269-.007.364-.023l.227-.045.273 1.205a2.74 2.74 0 0 1-.381.102 2.792 2.792 0 0 1-.619.057 2.7 2.7 0 0 1-1.114-.245 2.217 2.217 0 0 1-.898-.744c-.235-.333-.352-.754-.352-1.261v-8.682Zm11.247 4.045-1.204.341a2.229 2.229 0 0 0-.336-.585 1.63 1.63 0 0 0-.591-.477c-.25-.125-.57-.188-.96-.188-.534 0-.979.123-1.335.37-.352.242-.528.551-.528.926 0 .333.121.596.363.789.243.194.621.355 1.137.483l1.295.319c.78.189 1.362.479 1.744.869.383.386.574.884.574 1.494 0 .5-.144.947-.432 1.341-.284.394-.681.705-1.193.932-.511.227-1.106.341-1.784.341-.89 0-1.627-.193-2.21-.58-.583-.386-.953-.95-1.108-1.693l1.273-.318c.121.47.35.822.687 1.057.341.235.786.352 1.335.352.625 0 1.122-.133 1.489-.398.371-.269.557-.591.557-.966 0-.303-.106-.556-.318-.761-.212-.208-.538-.364-.978-.466l-1.454-.341c-.799-.189-1.387-.483-1.762-.88-.371-.402-.556-.904-.556-1.506 0-.493.138-.928.414-1.307a2.827 2.827 0 0 1 1.142-.892c.485-.216 1.035-.324 1.648-.324.864 0 1.542.189 2.034.568.496.379.849.879 1.057 1.5Zm10.473-1.954v1.136h-4.523v-1.136h4.523Zm-3.204-2.091h1.34v8.318c0 .379.055.663.165.852a.853.853 0 0 0 .432.375c.178.061.366.091.563.091.147 0 .268-.007.363-.023l.227-.045.273 1.205a2.76 2.76 0 0 1-.38.102c-.163.038-.37.057-.62.057-.379 0-.75-.082-1.113-.245a2.21 2.21 0 0 1-.898-.744c-.235-.333-.352-.754-.352-1.261v-8.682Zm6.75 5.568V264h-1.341v-11.636h1.341v4.272h.113c.205-.45.512-.808.921-1.074.413-.268.962-.403 1.647-.403.595 0 1.116.119 1.563.358.447.235.793.597 1.04 1.085.25.485.375 1.103.375 1.853V264h-1.341v-5.455c0-.693-.18-1.229-.54-1.607-.356-.383-.85-.574-1.483-.574-.439 0-.833.092-1.182.278a2.032 2.032 0 0 0-.818.813c-.197.356-.295.787-.295 1.295Zm10.68 5.455a3.554 3.554 0 0 1-1.506-.313 2.592 2.592 0 0 1-1.074-.915c-.265-.401-.397-.886-.397-1.454 0-.5.098-.906.295-1.216.197-.315.46-.561.79-.739.329-.178.693-.31 1.091-.398.401-.09.805-.162 1.21-.215.53-.069.96-.12 1.29-.154.333-.038.576-.1.727-.187.155-.087.233-.239.233-.455v-.045c0-.561-.153-.997-.46-1.307-.303-.311-.763-.466-1.381-.466-.64 0-1.142.14-1.506.42-.363.281-.619.58-.767.898l-1.272-.454c.227-.531.53-.944.909-1.239a3.398 3.398 0 0 1 1.25-.625 5.193 5.193 0 0 1 1.341-.182c.28 0 .602.034.966.102.367.065.721.199 1.062.404.345.204.631.513.858.926.227.413.341.966.341 1.659V264h-1.341v-1.182h-.068a2.36 2.36 0 0 1-.455.608c-.212.216-.494.4-.846.551-.353.152-.782.228-1.29.228Zm.205-1.205c.53 0 .977-.104 1.34-.312.368-.209.644-.478.83-.807.189-.33.284-.676.284-1.04v-1.227c-.057.068-.182.13-.375.187a6.143 6.143 0 0 1-.659.142c-.246.038-.487.072-.722.102-.231.027-.418.05-.562.069a5.097 5.097 0 0 0-.977.221c-.3.099-.542.248-.728.449-.181.197-.272.466-.272.807 0 .466.172.818.517 1.057.348.235.789.352 1.324.352Zm10.038-7.727v1.136h-4.523v-1.136h4.523Zm-3.205-2.091h1.341v8.318c0 .379.055.663.165.852a.853.853 0 0 0 .432.375c.178.061.365.091.562.091.148 0 .269-.007.364-.023l.227-.045.273 1.205a2.74 2.74 0 0 1-.381.102 2.792 2.792 0 0 1-.619.057 2.7 2.7 0 0 1-1.114-.245 2.208 2.208 0 0 1-.897-.744c-.235-.333-.353-.754-.353-1.261v-8.682ZM416.675 264v-11.636h1.341v4.295h.113c.099-.151.235-.345.409-.579.178-.239.432-.451.762-.637.333-.189.784-.284 1.352-.284.735 0 1.383.184 1.943.551.561.368.998.888 1.313 1.563.314.674.471 1.469.471 2.386 0 .924-.157 1.725-.471 2.403-.315.675-.75 1.197-1.307 1.569-.557.367-1.199.551-1.926.551-.561 0-1.01-.093-1.347-.279-.337-.189-.596-.403-.778-.642a8.677 8.677 0 0 1-.421-.602h-.159V264h-1.295Zm1.318-4.364c0 .659.096 1.241.29 1.745.193.5.475.892.846 1.176.371.28.826.42 1.364.42.561 0 1.028-.147 1.403-.443.379-.299.663-.701.853-1.204a4.734 4.734 0 0 0 .289-1.694c0-.613-.094-1.166-.284-1.659-.185-.496-.468-.888-.846-1.176-.375-.292-.847-.437-1.415-.437-.546 0-1.004.138-1.375.414-.371.273-.652.656-.841 1.148-.189.489-.284 1.059-.284 1.71Zm11.983 4.546c-.788 0-1.479-.188-2.074-.563-.591-.375-1.053-.899-1.386-1.574-.33-.674-.495-1.462-.495-2.363 0-.909.165-1.703.495-2.381.333-.678.795-1.204 1.386-1.579.595-.375 1.286-.563 2.074-.563.788 0 1.477.188 2.068.563.595.375 1.057.901 1.386 1.579.334.678.5 1.472.5 2.381 0 .901-.166 1.689-.5 2.363a3.758 3.758 0 0 1-1.386 1.574c-.591.375-1.28.563-2.068.563Zm0-1.205c.598 0 1.091-.153 1.477-.46a2.72 2.72 0 0 0 .858-1.21c.186-.5.278-1.042.278-1.625 0-.584-.092-1.127-.278-1.631a2.748 2.748 0 0 0-.858-1.221c-.386-.311-.879-.466-1.477-.466-.599 0-1.091.155-1.477.466-.387.31-.673.717-.858 1.221a4.672 4.672 0 0 0-.279 1.631c0 .583.093 1.125.279 1.625.185.5.471.903.858 1.21.386.307.878.46 1.477.46Zm9.547 1.205c-.788 0-1.479-.188-2.074-.563-.591-.375-1.053-.899-1.387-1.574-.329-.674-.494-1.462-.494-2.363 0-.909.165-1.703.494-2.381.334-.678.796-1.204 1.387-1.579.595-.375 1.286-.563 2.074-.563.788 0 1.477.188 2.068.563.595.375 1.057.901 1.386 1.579.334.678.5 1.472.5 2.381 0 .901-.166 1.689-.5 2.363a3.758 3.758 0 0 1-1.386 1.574c-.591.375-1.28.563-2.068.563Zm0-1.205c.598 0 1.091-.153 1.477-.46a2.72 2.72 0 0 0 .858-1.21c.186-.5.278-1.042.278-1.625 0-.584-.092-1.127-.278-1.631a2.748 2.748 0 0 0-.858-1.221c-.386-.311-.879-.466-1.477-.466-.599 0-1.091.155-1.478.466-.386.31-.672.717-.857 1.221a4.672 4.672 0 0 0-.279 1.631c0 .583.093 1.125.279 1.625.185.5.471.903.857 1.21.387.307.879.46 1.478.46Zm12.183-5.75-1.205.341a2.197 2.197 0 0 0-.335-.585 1.63 1.63 0 0 0-.591-.477c-.25-.125-.57-.188-.96-.188-.534 0-.979.123-1.335.37-.352.242-.529.551-.529.926 0 .333.122.596.364.789.242.194.621.355 1.136.483l1.296.319c.78.189 1.362.479 1.744.869.383.386.574.884.574 1.494 0 .5-.144.947-.432 1.341-.284.394-.682.705-1.193.932-.511.227-1.106.341-1.784.341-.89 0-1.627-.193-2.21-.58-.584-.386-.953-.95-1.108-1.693l1.273-.318c.121.47.35.822.687 1.057.341.235.786.352 1.335.352.625 0 1.121-.133 1.489-.398.371-.269.557-.591.557-.966 0-.303-.106-.556-.318-.761-.213-.208-.538-.364-.978-.466l-1.454-.341c-.8-.189-1.387-.483-1.762-.88-.371-.402-.556-.904-.556-1.506 0-.493.138-.928.414-1.307a2.827 2.827 0 0 1 1.142-.892c.485-.216 1.034-.324 1.648-.324.864 0 1.542.189 2.034.568.496.379.849.879 1.057 1.5Zm5.973-1.954v1.136h-4.523v-1.136h4.523Zm-3.205-2.091h1.341v8.318c0 .379.055.663.165.852a.853.853 0 0 0 .432.375c.178.061.365.091.562.091.148 0 .269-.007.364-.023l.227-.045.273 1.205a2.74 2.74 0 0 1-.381.102 2.785 2.785 0 0 1-.619.057 2.7 2.7 0 0 1-1.114-.245 2.214 2.214 0 0 1-.897-.744c-.235-.333-.353-.754-.353-1.261v-8.682Zm9.722 14.091v-12h1.295v1.386h.16c.098-.151.234-.345.409-.579.178-.239.431-.451.761-.637.333-.189.784-.284 1.352-.284.735 0 1.383.184 1.943.551.561.368.999.888 1.313 1.563.314.674.472 1.469.472 2.386 0 .924-.158 1.725-.472 2.403-.314.675-.75 1.197-1.307 1.569-.557.367-1.199.551-1.926.551-.561 0-1.009-.093-1.347-.279-.337-.189-.596-.403-.778-.642a8.279 8.279 0 0 1-.42-.602h-.114v4.614h-1.341Zm1.318-7.637c0 .659.097 1.241.29 1.745.193.5.475.892.847 1.176.371.28.825.42 1.363.42.561 0 1.029-.147 1.404-.443.378-.299.662-.701.852-1.204.193-.508.29-1.072.29-1.694 0-.613-.095-1.166-.284-1.659-.186-.496-.468-.888-.847-1.176-.375-.292-.847-.437-1.415-.437-.545 0-1.004.138-1.375.414-.371.273-.651.656-.841 1.148-.189.489-.284 1.059-.284 1.71Zm8.432 4.364v-8.727h1.295v1.318h.091c.159-.432.447-.782.864-1.051a2.542 2.542 0 0 1 1.409-.404c.099 0 .222.002.369.006.148.004.26.01.336.017v1.364a3.462 3.462 0 0 0-.313-.051 3.017 3.017 0 0 0-.506-.04c-.424 0-.803.089-1.136.267a2.019 2.019 0 0 0-.784.727 1.963 1.963 0 0 0-.284 1.051V264h-1.341Zm9.233.182c-.788 0-1.479-.188-2.074-.563-.591-.375-1.053-.899-1.386-1.574-.33-.674-.495-1.462-.495-2.363 0-.909.165-1.703.495-2.381.333-.678.795-1.204 1.386-1.579.595-.375 1.286-.563 2.074-.563.788 0 1.477.188 2.068.563.595.375 1.057.901 1.387 1.579.333.678.5 1.472.5 2.381 0 .901-.167 1.689-.5 2.363-.33.675-.792 1.199-1.387 1.574-.591.375-1.28.563-2.068.563Zm0-1.205c.598 0 1.091-.153 1.477-.46.387-.307.673-.71.858-1.21.186-.5.279-1.042.279-1.625 0-.584-.093-1.127-.279-1.631a2.732 2.732 0 0 0-.858-1.221c-.386-.311-.879-.466-1.477-.466-.599 0-1.091.155-1.477.466-.387.31-.673.717-.858 1.221a4.672 4.672 0 0 0-.279 1.631c0 .583.093 1.125.279 1.625.185.5.471.903.858 1.21.386.307.878.46 1.477.46Zm9.297 1.205c-.727 0-1.369-.184-1.926-.551-.557-.372-.993-.894-1.307-1.569-.314-.678-.472-1.479-.472-2.403 0-.917.158-1.712.472-2.386.314-.675.752-1.195 1.312-1.563.561-.367 1.209-.551 1.944-.551.568 0 1.017.095 1.346.284.334.186.587.398.762.637.178.234.316.428.414.579h.114v-4.295h1.341V264h-1.296v-1.341h-.159c-.098.159-.238.36-.42.602-.182.239-.441.453-.779.642-.337.186-.786.279-1.346.279Zm.182-1.205c.538 0 .992-.14 1.363-.42.372-.284.654-.676.847-1.176.193-.504.29-1.086.29-1.745 0-.651-.095-1.221-.284-1.71-.19-.492-.47-.875-.841-1.148-.372-.276-.83-.414-1.375-.414-.569 0-1.042.145-1.421.437-.375.288-.657.68-.846 1.176a4.67 4.67 0 0 0-.279 1.659c0 .622.095 1.186.284 1.694.193.503.478.905.853 1.204.378.296.848.443 1.409.443Zm11.96-2.545v-5.159h1.341V264h-1.341v-1.477h-.091c-.205.443-.523.82-.955 1.13-.431.307-.977.461-1.636.461a2.92 2.92 0 0 1-1.454-.358c-.425-.243-.758-.606-1-1.091-.243-.489-.364-1.104-.364-1.847v-5.545h1.341v5.454c0 .637.178 1.144.534 1.523.36.379.818.568 1.375.568.333 0 .672-.085 1.017-.256.348-.17.64-.431.875-.784.239-.352.358-.801.358-1.346Zm7.342 3.75c-.818 0-1.522-.193-2.113-.58a3.772 3.772 0 0 1-1.364-1.596c-.318-.678-.477-1.453-.477-2.324 0-.887.163-1.669.488-2.347.33-.682.788-1.214 1.375-1.596.591-.387 1.281-.58 2.069-.58.613 0 1.166.114 1.659.341.492.227.895.545 1.21.955.314.409.509.886.585 1.431h-1.341c-.102-.397-.329-.75-.682-1.056-.348-.311-.818-.466-1.409-.466-.522 0-.981.136-1.375.409-.39.269-.695.649-.915 1.142-.215.488-.323 1.062-.323 1.721 0 .675.106 1.262.318 1.762.216.5.519.888.909 1.164.394.277.856.415 1.386.415.349 0 .665-.06.949-.182.284-.121.525-.295.722-.522.197-.228.337-.5.42-.818h1.341a3.112 3.112 0 0 1-.562 1.392 3.153 3.153 0 0 1-1.177.977c-.484.238-1.049.358-1.693.358Zm9.188-8.909v1.136h-4.523v-1.136h4.523Zm-3.205-2.091h1.341v8.318c0 .379.055.663.165.852a.849.849 0 0 0 .432.375c.178.061.365.091.562.091.148 0 .269-.007.364-.023l.227-.045.273 1.205a2.74 2.74 0 0 1-.381.102 2.792 2.792 0 0 1-.619.057 2.7 2.7 0 0 1-1.114-.245 2.217 2.217 0 0 1-.898-.744c-.234-.333-.352-.754-.352-1.261v-8.682ZM523.165 264v-8.727h1.341V264h-1.341Zm.682-10.182a.955.955 0 0 1-.677-.267.86.86 0 0 1-.278-.642.86.86 0 0 1 .278-.642.955.955 0 0 1 .677-.267c.261 0 .484.089.67.267a.851.851 0 0 1 .284.642c0 .25-.095.464-.284.642a.934.934 0 0 1-.67.267Zm10.251 1.455L530.871 264h-1.364l-3.227-8.727h1.454l2.409 6.954h.091l2.409-6.954h1.455Zm1.77 8.727v-8.727h1.341V264h-1.341Zm.682-10.182a.951.951 0 0 1-.676-.267.857.857 0 0 1-.279-.642c0-.25.093-.464.279-.642a.951.951 0 0 1 .676-.267c.261 0 .485.089.67.267.19.178.284.392.284.642s-.094.464-.284.642a.932.932 0 0 1-.67.267Zm6.91 1.455v1.136h-4.522v-1.136h4.522Zm-3.204-2.091h1.341v8.318c0 .379.055.663.164.852a.853.853 0 0 0 .432.375c.178.061.366.091.563.091.147 0 .269-.007.363-.023l.228-.045.272 1.205a2.72 2.72 0 0 1-.38.102c-.163.038-.37.057-.62.057-.378 0-.75-.082-1.113-.245a2.217 2.217 0 0 1-.898-.744c-.235-.333-.352-.754-.352-1.261v-8.682Zm6.085 14.091a2.93 2.93 0 0 1-.608-.057 1.601 1.601 0 0 1-.369-.102l.341-1.182c.325.083.613.113.863.091a1.04 1.04 0 0 0 .665-.335c.197-.197.377-.518.54-.961l.25-.682-3.228-8.772h1.455l2.409 6.954h.091l2.409-6.954h1.455l-3.705 10c-.167.45-.373.824-.619 1.119a2.321 2.321 0 0 1-.858.665 2.646 2.646 0 0 1-1.091.216Zm15.111-3.068a3.554 3.554 0 0 1-1.506-.313 2.58 2.58 0 0 1-1.074-.915c-.265-.401-.398-.886-.398-1.454 0-.5.099-.906.296-1.216.197-.315.46-.561.79-.739.329-.178.693-.31 1.091-.398.401-.09.804-.162 1.21-.215.53-.069.96-.12 1.29-.154.333-.038.575-.1.727-.187.155-.087.233-.239.233-.455v-.045c0-.561-.154-.997-.46-1.307-.303-.311-.764-.466-1.381-.466-.64 0-1.142.14-1.506.42-.363.281-.619.58-.767.898l-1.273-.454c.228-.531.531-.944.91-1.239a3.398 3.398 0 0 1 1.25-.625 5.192 5.192 0 0 1 1.34-.182c.281 0 .603.034.966.102.368.065.722.199 1.063.404.345.204.631.513.858.926.227.413.341.966.341 1.659V264h-1.341v-1.182h-.068a2.36 2.36 0 0 1-.455.608c-.212.216-.494.4-.847.551-.352.152-.782.228-1.289.228Zm.204-1.205c.531 0 .978-.104 1.341-.312.368-.209.644-.478.83-.807.189-.33.284-.676.284-1.04v-1.227c-.057.068-.182.13-.375.187-.19.053-.409.101-.659.142-.247.038-.487.072-.722.102-.231.027-.418.05-.562.069a5.107 5.107 0 0 0-.978.221 1.69 1.69 0 0 0-.727.449c-.182.197-.273.466-.273.807 0 .466.173.818.517 1.057.349.235.79.352 1.324.352Zm7.584-4.25V264h-1.341v-8.727h1.296v1.363h.113c.205-.443.515-.799.932-1.068.417-.273.955-.409 1.614-.409.591 0 1.108.121 1.551.364.443.238.788.602 1.034 1.091.246.484.369 1.098.369 1.841V264h-1.341v-5.455c0-.685-.178-1.219-.534-1.602-.356-.386-.844-.579-1.466-.579-.428 0-.81.092-1.147.278a1.985 1.985 0 0 0-.79.813c-.193.356-.29.787-.29 1.295Zm11.314 5.432c-.727 0-1.369-.184-1.926-.551-.557-.372-.993-.894-1.307-1.569-.314-.678-.472-1.479-.472-2.403 0-.917.158-1.712.472-2.386.314-.675.752-1.195 1.313-1.563.56-.367 1.208-.551 1.943-.551.568 0 1.017.095 1.346.284.334.186.587.398.762.637.178.234.316.428.414.579h.114v-4.295h1.341V264h-1.295v-1.341h-.16c-.098.159-.238.36-.42.602-.182.239-.441.453-.778.642-.338.186-.786.279-1.347.279Zm.182-1.205c.538 0 .992-.14 1.363-.42.372-.284.654-.676.847-1.176.193-.504.29-1.086.29-1.745 0-.651-.095-1.221-.284-1.71-.19-.492-.47-.875-.841-1.148-.371-.276-.83-.414-1.375-.414-.568 0-1.042.145-1.421.437-.375.288-.657.68-.846 1.176a4.67 4.67 0 0 0-.279 1.659c0 .622.095 1.186.284 1.694.194.503.478.905.853 1.204.378.296.848.443 1.409.443Zm14.619 1.205c-.841 0-1.566-.186-2.176-.557a3.736 3.736 0 0 1-1.403-1.568c-.326-.674-.489-1.459-.489-2.352 0-.894.163-1.682.489-2.364.329-.686.787-1.22 1.375-1.602.59-.387 1.28-.58 2.068-.58.454 0 .903.076 1.346.227.444.152.847.398 1.211.739.363.337.653.784.869 1.341.216.557.324 1.242.324 2.057v.568h-6.728v-1.159h5.364c0-.493-.098-.932-.295-1.318a2.226 2.226 0 0 0-.83-.915c-.356-.224-.776-.335-1.261-.335-.534 0-.996.132-1.387.397a2.633 2.633 0 0 0-.892 1.023 3.01 3.01 0 0 0-.312 1.352v.773c0 .659.113 1.218.341 1.676.231.455.551.801.96 1.04.409.235.884.352 1.426.352.352 0 .671-.049.955-.147.288-.103.536-.254.744-.455.208-.205.369-.458.483-.761l1.295.363a2.86 2.86 0 0 1-.687 1.159c-.322.33-.72.587-1.193.773a4.425 4.425 0 0 1-1.597.273Zm5.654-.182v-8.727h1.295v1.363h.114a2.19 2.19 0 0 1 .88-1.085c.406-.261.892-.392 1.461-.392.575 0 1.054.131 1.437.392.386.258.688.619.903 1.085h.091c.224-.45.559-.808 1.006-1.074.447-.268.983-.403 1.608-.403.78 0 1.419.244 1.915.733.496.485.744 1.241.744 2.267V264h-1.341v-5.841c0-.644-.176-1.104-.528-1.381a1.96 1.96 0 0 0-1.245-.414c-.613 0-1.089.185-1.426.556-.337.368-.505.834-.505 1.398V264h-1.364v-5.977c0-.496-.161-.896-.483-1.199-.322-.307-.737-.46-1.244-.46-.349 0-.675.092-.978.278a2.107 2.107 0 0 0-.727.773 2.277 2.277 0 0 0-.273 1.13V264h-1.34Zm13.906 3.273v-12h1.295v1.386h.159c.099-.151.235-.345.409-.579.178-.239.432-.451.762-.637.333-.189.784-.284 1.352-.284.735 0 1.383.184 1.943.551.561.368.998.888 1.313 1.563.314.674.471 1.469.471 2.386 0 .924-.157 1.725-.471 2.403-.315.675-.75 1.197-1.307 1.569-.557.367-1.199.551-1.926.551-.561 0-1.01-.093-1.347-.279-.337-.189-.596-.403-.778-.642a8.677 8.677 0 0 1-.421-.602h-.113v4.614h-1.341Zm1.318-7.637c0 .659.097 1.241.29 1.745.193.5.475.892.846 1.176.372.28.826.42 1.364.42.561 0 1.028-.147 1.403-.443.379-.299.663-.701.853-1.204a4.734 4.734 0 0 0 .289-1.694c0-.613-.094-1.166-.284-1.659-.185-.496-.467-.888-.846-1.176-.375-.292-.847-.437-1.415-.437-.545 0-1.004.138-1.375.414-.371.273-.652.656-.841 1.148-.189.489-.284 1.059-.284 1.71Zm11.977 4.546c-.788 0-1.479-.188-2.074-.563-.591-.375-1.053-.899-1.386-1.574-.33-.674-.494-1.462-.494-2.363 0-.909.164-1.703.494-2.381.333-.678.795-1.204 1.386-1.579.595-.375 1.286-.563 2.074-.563.788 0 1.478.188 2.068.563.595.375 1.057.901 1.387 1.579.333.678.5 1.472.5 2.381 0 .901-.167 1.689-.5 2.363-.33.675-.792 1.199-1.387 1.574-.59.375-1.28.563-2.068.563Zm0-1.205c.599 0 1.091-.153 1.478-.46a2.71 2.71 0 0 0 .857-1.21c.186-.5.279-1.042.279-1.625 0-.584-.093-1.127-.279-1.631a2.738 2.738 0 0 0-.857-1.221c-.387-.311-.879-.466-1.478-.466-.598 0-1.091.155-1.477.466-.386.31-.672.717-.858 1.221a4.671 4.671 0 0 0-.278 1.631c0 .583.092 1.125.278 1.625.186.5.472.903.858 1.21.386.307.879.46 1.477.46Zm7.682 1.023-2.659-8.727h1.409l1.886 6.682h.091l1.864-6.682h1.432l1.841 6.659h.091l1.886-6.659h1.409L642.483 264h-1.318l-1.909-6.705h-.137L637.21 264h-1.318Zm14.385.182c-.841 0-1.566-.186-2.176-.557a3.744 3.744 0 0 1-1.404-1.568c-.325-.674-.488-1.459-.488-2.352 0-.894.163-1.682.488-2.364.33-.686.788-1.22 1.375-1.602.591-.387 1.281-.58 2.069-.58.454 0 .903.076 1.346.227.443.152.847.398 1.21.739.364.337.654.784.87 1.341.216.557.324 1.242.324 2.057v.568h-6.728v-1.159h5.364c0-.493-.098-.932-.295-1.318a2.226 2.226 0 0 0-.83-.915c-.356-.224-.777-.335-1.261-.335-.534 0-.997.132-1.387.397a2.633 2.633 0 0 0-.892 1.023 3.01 3.01 0 0 0-.312 1.352v.773c0 .659.113 1.218.341 1.676.231.455.551.801.96 1.04.409.235.884.352 1.426.352.352 0 .67-.049.955-.147.287-.103.536-.254.744-.455.208-.205.369-.458.483-.761l1.295.363a2.86 2.86 0 0 1-.687 1.159c-.322.33-.72.587-1.193.773a4.425 4.425 0 0 1-1.597.273Zm5.653-.182v-8.727h1.296v1.318h.091c.159-.432.447-.782.863-1.051a2.544 2.544 0 0 1 1.409-.404c.099 0 .222.002.37.006a5.5 5.5 0 0 1 .335.017v1.364a3.416 3.416 0 0 0-.312-.051 3.035 3.035 0 0 0-.506-.04 2.38 2.38 0 0 0-1.137.267c-.329.174-.59.417-.784.727a1.963 1.963 0 0 0-.284 1.051V264h-1.341Zm13.999.182c-.818 0-1.523-.193-2.114-.58a3.77 3.77 0 0 1-1.363-1.596c-.318-.678-.478-1.453-.478-2.324 0-.887.163-1.669.489-2.347.33-.682.788-1.214 1.375-1.596.591-.387 1.28-.58 2.068-.58.614 0 1.167.114 1.659.341a3.17 3.17 0 0 1 1.211.955c.314.409.509.886.585 1.431h-1.341c-.102-.397-.33-.75-.682-1.056-.348-.311-.818-.466-1.409-.466-.523 0-.981.136-1.375.409-.39.269-.695.649-.915 1.142-.216.488-.324 1.062-.324 1.721 0 .675.106 1.262.319 1.762.215.5.518.888.909 1.164.394.277.856.415 1.386.415.348 0 .665-.06.949-.182.284-.121.524-.295.721-.522.197-.228.338-.5.421-.818h1.341a3.102 3.102 0 0 1-.563 1.392 3.142 3.142 0 0 1-1.176.977c-.485.238-1.049.358-1.693.358Zm8.937 0c-.787 0-1.479-.188-2.073-.563-.591-.375-1.053-.899-1.387-1.574-.329-.674-.494-1.462-.494-2.363 0-.909.165-1.703.494-2.381.334-.678.796-1.204 1.387-1.579.594-.375 1.286-.563 2.073-.563.788 0 1.478.188 2.069.563.594.375 1.056.901 1.386 1.579.333.678.5 1.472.5 2.381 0 .901-.167 1.689-.5 2.363a3.772 3.772 0 0 1-1.386 1.574c-.591.375-1.281.563-2.069.563Zm0-1.205c.599 0 1.091-.153 1.478-.46a2.72 2.72 0 0 0 .858-1.21c.185-.5.278-1.042.278-1.625 0-.584-.093-1.127-.278-1.631a2.748 2.748 0 0 0-.858-1.221c-.387-.311-.879-.466-1.478-.466-.598 0-1.09.155-1.477.466-.386.31-.672.717-.858 1.221a4.695 4.695 0 0 0-.278 1.631c0 .583.093 1.125.278 1.625.186.5.472.903.858 1.21.387.307.879.46 1.477.46Zm7.343-10.613V264h-1.341v-11.636h1.341Zm3.797 0V264h-1.341v-11.636h1.341Zm5.024 11.841a3.554 3.554 0 0 1-1.506-.313 2.58 2.58 0 0 1-1.074-.915c-.265-.401-.397-.886-.397-1.454 0-.5.098-.906.295-1.216.197-.315.46-.561.79-.739.329-.178.693-.31 1.091-.398.401-.09.805-.162 1.21-.215.53-.069.96-.12 1.29-.154.333-.038.575-.1.727-.187.155-.087.233-.239.233-.455v-.045c0-.561-.153-.997-.46-1.307-.303-.311-.764-.466-1.381-.466-.64 0-1.142.14-1.506.42-.363.281-.619.58-.767.898l-1.272-.454c.227-.531.53-.944.909-1.239a3.398 3.398 0 0 1 1.25-.625 5.193 5.193 0 0 1 1.341-.182c.28 0 .602.034.965.102.368.065.722.199 1.063.404.345.204.631.513.858.926.227.413.341.966.341 1.659V264h-1.341v-1.182h-.068a2.36 2.36 0 0 1-.455.608c-.212.216-.494.4-.846.551-.353.152-.783.228-1.29.228Zm.204-1.205c.531 0 .978-.104 1.341-.312.368-.209.644-.478.83-.807.189-.33.284-.676.284-1.04v-1.227c-.057.068-.182.13-.375.187a6.143 6.143 0 0 1-.659.142c-.246.038-.487.072-.722.102-.231.027-.418.05-.562.069a5.107 5.107 0 0 0-.978.221 1.69 1.69 0 0 0-.727.449c-.182.197-.273.466-.273.807 0 .466.173.818.518 1.057.348.235.789.352 1.323.352Zm6.425 1v-11.636H703v4.295h.114c.098-.151.234-.345.409-.579.178-.239.432-.451.761-.637.333-.189.784-.284 1.352-.284.735 0 1.383.184 1.944.551.56.368.998.888 1.312 1.563.314.674.472 1.469.472 2.386 0 .924-.158 1.725-.472 2.403-.314.675-.75 1.197-1.307 1.569-.557.367-1.199.551-1.926.551-.561 0-1.009-.093-1.347-.279-.337-.189-.596-.403-.778-.642a8.279 8.279 0 0 1-.42-.602h-.159V264h-1.296Zm1.318-4.364c0 .659.097 1.241.29 1.745.193.5.475.892.847 1.176.371.28.825.42 1.363.42.561 0 1.029-.147 1.404-.443.378-.299.663-.701.852-1.204.193-.508.29-1.072.29-1.694 0-.613-.095-1.166-.284-1.659-.186-.496-.468-.888-.847-1.176-.375-.292-.847-.437-1.415-.437-.545 0-1.004.138-1.375.414-.371.273-.651.656-.841 1.148-.189.489-.284 1.059-.284 1.71Zm11.983 4.546c-.788 0-1.479-.188-2.074-.563-.591-.375-1.053-.899-1.386-1.574-.33-.674-.494-1.462-.494-2.363 0-.909.164-1.703.494-2.381.333-.678.795-1.204 1.386-1.579.595-.375 1.286-.563 2.074-.563.788 0 1.478.188 2.068.563.595.375 1.057.901 1.387 1.579.333.678.5 1.472.5 2.381 0 .901-.167 1.689-.5 2.363-.33.675-.792 1.199-1.387 1.574-.59.375-1.28.563-2.068.563Zm0-1.205c.599 0 1.091-.153 1.478-.46a2.71 2.71 0 0 0 .857-1.21c.186-.5.279-1.042.279-1.625 0-.584-.093-1.127-.279-1.631a2.738 2.738 0 0 0-.857-1.221c-.387-.311-.879-.466-1.478-.466-.598 0-1.091.155-1.477.466-.386.31-.672.717-.858 1.221a4.671 4.671 0 0 0-.278 1.631c0 .583.092 1.125.278 1.625.186.5.472.903.858 1.21.386.307.879.46 1.477.46Zm6.002 1.023v-8.727h1.295v1.318h.091c.159-.432.447-.782.864-1.051a2.54 2.54 0 0 1 1.409-.404c.098 0 .221.002.369.006s.26.01.335.017v1.364a3.351 3.351 0 0 0-.312-.051 3.026 3.026 0 0 0-.506-.04c-.424 0-.803.089-1.136.267a1.954 1.954 0 0 0-1.068 1.778V264h-1.341Zm8.521.205a3.554 3.554 0 0 1-1.506-.313 2.592 2.592 0 0 1-1.074-.915c-.265-.401-.397-.886-.397-1.454 0-.5.098-.906.295-1.216.197-.315.46-.561.79-.739.329-.178.693-.31 1.091-.398.401-.09.805-.162 1.21-.215.53-.069.96-.12 1.29-.154.333-.038.576-.1.727-.187.155-.087.233-.239.233-.455v-.045c0-.561-.153-.997-.46-1.307-.303-.311-.763-.466-1.381-.466-.64 0-1.142.14-1.506.42-.363.281-.619.58-.767.898l-1.272-.454c.227-.531.53-.944.909-1.239a3.398 3.398 0 0 1 1.25-.625 5.193 5.193 0 0 1 1.341-.182c.28 0 .602.034.966.102.367.065.721.199 1.062.404.345.204.631.513.858.926.227.413.341.966.341 1.659V264h-1.341v-1.182h-.068a2.36 2.36 0 0 1-.455.608c-.212.216-.494.4-.846.551-.353.152-.782.228-1.29.228Zm.205-1.205c.53 0 .977-.104 1.34-.312.368-.209.644-.478.83-.807.189-.33.284-.676.284-1.04v-1.227c-.057.068-.182.13-.375.187a6.143 6.143 0 0 1-.659.142c-.246.038-.487.072-.722.102-.231.027-.418.05-.562.069a5.097 5.097 0 0 0-.977.221c-.3.099-.542.248-.728.449-.181.197-.272.466-.272.807 0 .466.172.818.517 1.057.348.235.789.352 1.324.352Zm10.038-7.727v1.136h-4.523v-1.136h4.523Zm-3.205-2.091h1.341v8.318c0 .379.055.663.165.852a.853.853 0 0 0 .432.375c.178.061.365.091.562.091.148 0 .269-.007.364-.023l.227-.045.273 1.205a2.74 2.74 0 0 1-.381.102 2.792 2.792 0 0 1-.619.057 2.7 2.7 0 0 1-1.114-.245 2.208 2.208 0 0 1-.897-.744c-.235-.333-.353-.754-.353-1.261v-8.682ZM741.743 264v-8.727h1.341V264h-1.341Zm.682-10.182a.951.951 0 0 1-.676-.267.857.857 0 0 1-.279-.642c0-.25.093-.464.279-.642a.951.951 0 0 1 .676-.267c.261 0 .485.089.67.267.19.178.284.392.284.642s-.094.464-.284.642a.932.932 0 0 1-.67.267Zm6.66 10.364c-.788 0-1.479-.188-2.074-.563-.591-.375-1.053-.899-1.386-1.574-.33-.674-.494-1.462-.494-2.363 0-.909.164-1.703.494-2.381.333-.678.795-1.204 1.386-1.579.595-.375 1.286-.563 2.074-.563.788 0 1.478.188 2.068.563.595.375 1.057.901 1.387 1.579.333.678.5 1.472.5 2.381 0 .901-.167 1.689-.5 2.363-.33.675-.792 1.199-1.387 1.574-.59.375-1.28.563-2.068.563Zm0-1.205c.599 0 1.091-.153 1.477-.46.387-.307.673-.71.858-1.21.186-.5.279-1.042.279-1.625 0-.584-.093-1.127-.279-1.631a2.732 2.732 0 0 0-.858-1.221c-.386-.311-.878-.466-1.477-.466-.598 0-1.091.155-1.477.466-.386.31-.672.717-.858 1.221a4.671 4.671 0 0 0-.278 1.631c0 .583.092 1.125.278 1.625.186.5.472.903.858 1.21.386.307.879.46 1.477.46Zm7.343-4.227V264h-1.341v-8.727h1.295v1.363h.114c.204-.443.515-.799.932-1.068.416-.273.954-.409 1.613-.409.591 0 1.108.121 1.551.364.444.238.788.602 1.034 1.091.247.484.37 1.098.37 1.841V264h-1.341v-5.455c0-.685-.178-1.219-.534-1.602-.356-.386-.845-.579-1.466-.579-.428 0-.811.092-1.148.278a1.998 1.998 0 0 0-.79.813c-.193.356-.289.787-.289 1.295Zm8.995 5.341c-.28 0-.521-.1-.721-.301a.985.985 0 0 1-.301-.722c0-.28.1-.521.301-.721a.982.982 0 0 1 .721-.302c.281 0 .521.101.722.302.201.2.301.441.301.721a.964.964 0 0 1-.142.512c-.091.155-.214.28-.369.375a.985.985 0 0 1-.512.136Z" fill="#383946"/></svg>