<svg width="32" height="33" fill="none" xmlns="http://www.w3.org/2000/svg"><path fill-rule="evenodd" clip-rule="evenodd" d="M15.6 29.7c7.07 0 12.8-5.73 12.8-12.8S22.67 4.1 15.6 4.1c-2.029 0-3.947.472-5.652 1.312l3.473 3.28c.39-.269.859-.426 1.364-.426 1.35 0 2.444 1.12 2.444 2.5 0 .446-.114.864-.314 1.227l3.357 3.171a2.389 2.389 0 0 1 1.03-.232c1.35 0 2.443 1.12 2.443 2.5s-1.094 2.5-2.443 2.5c-1.35 0-2.444-1.12-2.444-2.5 0-.395.09-.768.249-1.1l-3.428-3.239c-.193.078-.396.13-.609.156l-1.816 8.744a2.512 2.512 0 0 1 1.124 2.104c0 1.38-1.094 2.5-2.444 2.5-1.35 0-2.443-1.12-2.443-2.5 0-1.288.953-2.349 2.177-2.485l1.813-8.732a2.512 2.512 0 0 1-1.14-2.114c0-.253.037-.496.105-.726L8.46 6.275A12.787 12.787 0 0 0 2.8 16.9c0 7.07 5.73 12.8 12.8 12.8Z" fill="url(#a)"/><defs><linearGradient id="a" x1="8.628" y1="6.165" x2="22.571" y2="27.635" gradientUnits="userSpaceOnUse"><stop stop-color="#FF7F77"/><stop offset="0" stop-color="#FD7A64"/><stop offset="1" stop-color="#E62D14"/></linearGradient></defs></svg>