<svg width="24" height="24" fill="none" xmlns="http://www.w3.org/2000/svg"><path d="m16.414 4.491 6.411 5.333-2.308 4.697-3.865-1.072h-3.345l3.107-8.958Z" fill="url(#a)"/><path d="m9.954 7.954-1.24 6.567-.12 2.231-3.129 1.355-4.436.478L2.375 4.398l8.039-3.37 4.953 3.249-5.413 3.677Z" fill="url(#b)"/><path d="m9.954 7.954.604 12.654-2.005 2.363-7.524-4.386 6.178-9.207 2.747-1.424Z" fill="url(#c)"/><path d="M18.233 7.03h-7.602l6.718-6.001.884 6.002Z" fill="url(#d)"/><path d="M22.971 20.658 16.28 22.93l-8.912-2.51L9.954 7.955l1.034-.923 5.426-.51-.492 5.45 4.316-1.674 2.733 10.361Z" fill="url(#e)"/><path d="M5.143 5.143h13.714v13.714H5.143V5.143Z" fill="#000"/><path d="M6.853 16.265h5.143v.857H6.853v-.857Zm.004-9.408H8.96c1.225 0 1.968.727 1.968 1.776v.014c0 1.188-.926 1.805-2.078 1.805H8v1.54H6.857V6.858Zm2.025 2.59c.565 0 .896-.336.896-.777v-.014c0-.507-.352-.78-.914-.78H8v1.57h.882Zm2.659-.005V9.43a2.609 2.609 0 0 1 2.676-2.657 2.649 2.649 0 0 1 2.025.791l-.717.83a1.903 1.903 0 0 0-1.315-.58c-.866 0-1.49.72-1.49 1.6v.015c0 .88.61 1.614 1.49 1.614.588 0 .946-.229 1.351-.601l.718.724a2.619 2.619 0 0 1-2.105.915 2.594 2.594 0 0 1-2.633-2.638" fill="#fff"/><defs><linearGradient id="a" x1="7.271" y1="7.798" x2="17.983" y2="7.798" gradientUnits="userSpaceOnUse"><stop stop-color="#21D789"/><stop offset="1" stop-color="#07C3F2"/></linearGradient><linearGradient id="b" x1="-5.471" y1="16.035" x2="16.586" y2="-.247" gradientUnits="userSpaceOnUse"><stop offset=".01" stop-color="#FCF84A"/><stop offset=".11" stop-color="#A7EB62"/><stop offset=".21" stop-color="#5FE077"/><stop offset=".27" stop-color="#32DA84"/><stop offset=".31" stop-color="#21D789"/><stop offset=".58" stop-color="#21D789"/><stop offset=".6" stop-color="#21D789"/><stop offset=".69" stop-color="#20D68C"/><stop offset=".76" stop-color="#1ED497"/><stop offset=".83" stop-color="#19D1A9"/><stop offset=".9" stop-color="#13CCC2"/><stop offset=".97" stop-color="#0BC6E1"/><stop offset="1" stop-color="#07C3F2"/></linearGradient><linearGradient id="c" x1="3.244" y1="20.811" x2="6.922" y2="9.266" gradientUnits="userSpaceOnUse"><stop stop-color="#21D789"/><stop offset=".16" stop-color="#24D888"/><stop offset=".3" stop-color="#2FD985"/><stop offset=".43" stop-color="#41DC80"/><stop offset=".55" stop-color="#5AE079"/><stop offset=".67" stop-color="#7AE46F"/><stop offset=".79" stop-color="#A1EA64"/><stop offset=".9" stop-color="#CFF157"/><stop offset="1" stop-color="#FCF84A"/></linearGradient><linearGradient id="d" x1="8.115" y1="10.774" x2="16.119" y2=".011" gradientUnits="userSpaceOnUse"><stop stop-color="#21D789"/><stop offset=".09" stop-color="#23D986"/><stop offset=".17" stop-color="#2ADE7B"/><stop offset=".25" stop-color="#36E669"/><stop offset=".27" stop-color="#3BEA62"/><stop offset=".35" stop-color="#47EB61"/><stop offset=".49" stop-color="#67ED5D"/><stop offset=".69" stop-color="#9AF156"/><stop offset=".92" stop-color="#E0F64D"/><stop offset="1" stop-color="#FCF84A"/></linearGradient><linearGradient id="e" x1="20.359" y1="12.144" x2="4.228" y2="11.994" gradientUnits="userSpaceOnUse"><stop offset=".39" stop-color="#FCF84A"/><stop offset=".46" stop-color="#ECF74C"/><stop offset=".61" stop-color="#C1F451"/><stop offset=".82" stop-color="#7EEF5A"/><stop offset="1" stop-color="#3BEA62"/></linearGradient></defs></svg>