<svg width="20" height="20" fill="none" xmlns="http://www.w3.org/2000/svg"><path fill-rule="evenodd" clip-rule="evenodd" d="M11.995 4.25a3.754 3.754 0 0 0-3.4 5.35.25.25 0 0 1-.05.284L4.25 14.123v1.627h1.481v-1.101a.25.25 0 0 1 .25-.25h1.076v-1.101a.25.25 0 0 1 .25-.25H8.43v-1.031a.25.25 0 0 1 .25-.25h1.079v-.285a.25.25 0 0 1 .374-.217 3.754 3.754 0 1 0 1.863-7.015Zm-1.736 7.64A4.254 4.254 0 1 0 8.07 9.65l-4.246 4.19a.25.25 0 0 0-.075.178V16c0 .138.112.25.25.25h1.981a.25.25 0 0 0 .25-.25v-1.101h1.076a.25.25 0 0 0 .25-.25v-1.101H8.68a.25.25 0 0 0 .25-.25v-1.031h1.079a.25.25 0 0 0 .25-.25v-.128Zm2.871-5.628a.75.75 0 1 0 0 1.5.75.75 0 0 0 0-1.5Zm-1.25.75a1.25 1.25 0 1 1 2.5 0 1.25 1.25 0 0 1-2.5 0Z" fill="#6B6D85"/></svg>