<svg viewBox="0 0 100 24" fill="none" xmlns="http://www.w3.org/2000/svg"><g clip-path="url(#a)"><path fill-rule="evenodd" clip-rule="evenodd" d="M12 0C5.373 0 0 5.373 0 12s5.373 12 12 12h2.4a1.6 1.6 0 0 0 1.6-1.6V20a4 4 0 0 1 4-4h-4 6.4a1.6 1.6 0 0 0 1.6-1.6V9.6A1.6 1.6 0 0 0 22.4 8h-4.8A1.6 1.6 0 0 0 16 9.6V12a4 4 0 1 1-4-4h2.4A1.6 1.6 0 0 0 16 6.4V1.6A1.6 1.6 0 0 0 14.4 0H12Zm32.111 6h-3.017a.2.2 0 0 1-.202-.2V3.2a.2.2 0 0 1 .202-.2h3.017a.2.2 0 0 1 .203.2v2.6a.2.2 0 0 1-.203.2Zm.023 12.555h-3.04a.2.2 0 0 1-.202-.2l.067-5.511-.067-5.533a.2.2 0 0 1 .202-.2h3.04a.2.2 0 0 1 .202.2l-.067 5.533.067 5.51a.2.2 0 0 1-.202.2Zm-12.69-5.933c0 2.466.901 3.71 2.522 3.688 1.644 0 2.522-1.155 2.544-3.466.023-2.378-.855-3.689-2.476-3.711-1.711-.044-2.59 1.2-2.59 3.489Zm8.286 5.622c0 2.888-1.914 4.755-5.741 4.755-3.04.044-5.359-1.178-5.539-3.689a.2.2 0 0 1 .203-.2h2.904c.135 0 .225.09.248.2.157.933.923 1.489 2.296 1.489 1.464 0 2.477-.8 2.477-2.6v-1.31c-.766.999-1.891 1.599-3.332 1.599-3.445 0-5.246-2.511-5.246-5.733 0-3.2 1.936-5.8 5.088-5.8 1.441 0 2.567.49 3.355 1.4l-.068-1.044a.2.2 0 0 1 .203-.2h2.972a.2.2 0 0 1 .202.2l-.045 5.688.023 5.245Zm12.96-.111v-1.778a.168.168 0 0 0-.202-.156c-.338.111-.766.2-1.306.2-.743 0-1.238-.31-1.238-1.289l-.023-5.644h2.59a.2.2 0 0 0 .202-.2V7.311a.2.2 0 0 0-.203-.2h-2.566l.022-2.667a.2.2 0 0 0-.203-.2H46.77a.2.2 0 0 0-.203.2l.023 2.667h-1.306a.2.2 0 0 0-.202.2v1.955c0 .111.09.2.202.2h1.306l-.023 5.733c0 2.6 1.87 3.578 3.828 3.578.72 0 1.463-.156 2.116-.378.09-.044.18-.155.18-.267Zm3.997.422h-3.062a.2.2 0 0 1-.203-.2l.068-5.289-.023-5.755a.2.2 0 0 1 .203-.2h2.86a.2.2 0 0 1 .202.2l-.068 1.244c.788-1 2.117-1.71 3.738-1.71 2.454 0 4.03 1.644 4.03 4.443v2.4l.067 4.667a.2.2 0 0 1-.202.2H61.28a.2.2 0 0 1-.203-.2l.045-4.667v-2.355c0-1.245-.743-2.044-1.756-2.044-1.216 0-2.522 1.11-2.522 3.555v.844l.045 4.667a.2.2 0 0 1-.202.2Zm19.839-3.867h-2.837a.263.263 0 0 0-.248.2c-.315 1.222-1.126 1.733-2.251 1.733-1.621 0-2.477-.955-2.612-3.11h8.285a.2.2 0 0 0 .203-.2c-.068-4-2.184-6.489-5.989-6.489-3.692 0-5.898 2.4-5.898 6.044 0 3.467 2.093 5.977 5.966 5.977 3.242 0 5.268-1.866 5.56-3.955.023-.11-.067-.2-.18-.2ZM71.1 9.022c1.486 0 2.184 1.155 2.319 2.377h-4.75c.27-1.577 1.08-2.377 2.43-2.377Zm17.313 6.044c0 2.4-2.296 3.755-5.426 3.755-3.377 0-5.538-1.355-5.65-3.91a.2.2 0 0 1 .202-.2h2.882a.2.2 0 0 1 .203.2c.09 1.288.945 1.844 2.521 1.844 1.328 0 2.049-.511 2.049-1.4 0-.877-1.23-1.058-2.698-1.276-2.18-.322-4.89-.723-4.89-3.59 0-2.378 1.937-3.645 5.066-3.645 3.04 0 5.088 1.2 5.291 3.6.023.111-.067.2-.18.2h-2.747c-.112 0-.202-.089-.225-.2-.18-.978-.81-1.578-2.184-1.578-1.103 0-1.8.4-1.8 1.378 0 .873 1.218 1.039 2.679 1.238 2.183.297 4.907.668 4.907 3.584Zm6.161 3.755c3.13 0 5.426-1.355 5.426-3.755 0-2.916-2.724-3.287-4.907-3.584-1.461-.2-2.68-.365-2.68-1.238 0-.978.698-1.378 1.8-1.378 1.374 0 2.005.6 2.185 1.578.022.111.112.2.225.2h2.747c.112 0 .202-.089.18-.2-.203-2.4-2.252-3.6-5.291-3.6-3.13 0-5.066 1.267-5.066 3.644 0 2.868 2.71 3.269 4.89 3.591 1.469.218 2.698.4 2.698 1.276 0 .889-.72 1.4-2.05 1.4-1.575 0-2.43-.556-2.52-1.845a.2.2 0 0 0-.203-.2h-2.882a.2.2 0 0 0-.203.2c.113 2.556 2.274 3.911 5.651 3.911Z" fill="#1B2E49"/></g><defs><clipPath id="a"><path fill="#fff" d="M0 0h100v24H0z"/></clipPath></defs></svg>