<svg fill="none" viewBox="0 0 40 40" xmlns="http://www.w3.org/2000/svg" xmlns:xlink="http://www.w3.org/1999/xlink"><linearGradient id="a" gradientUnits="userSpaceOnUse" x1="10.6439" x2="36.25" y1="3.75" y2="36.25"><stop offset="0" stop-color="#f96459"/><stop offset="1" stop-color="#ea473b"/></linearGradient><path clip-rule="evenodd" d="m20 36.25c8.9746 0 16.25-7.2754 16.25-16.25s-7.2754-16.25-16.25-16.25c-2.5754 0-5.0108.5991-7.1745 1.66553l4.408 4.16405c.4947-.34132 1.0909-.54058 1.7325-.54058 1.7134 0 3.1023 1.4208 3.1023 3.1734 0 .5661-.1449 1.0975-.3988 1.5577l4.2619 4.026c.3973-.1891.8403-.2947 1.3074-.2947 1.7133 0 3.1022 1.4208 3.1022 3.1734s-1.3889 3.1734-3.1022 3.1734c-1.7134 0-3.1023-1.4208-3.1023-3.1734 0-.5011.1135-.975.3157-1.3964l-4.3522-4.1113c-.2439.098-.5028.1653-.7722.1974l-2.3057 11.1014c.8583.5645 1.4269 1.55 1.4269 2.6713 0 1.7526-1.389 3.1734-3.1023 3.1734-1.7134 0-3.1023-1.4208-3.1023-3.1734 0-1.6356 1.2096-2.9822 2.7637-3.1547l2.3025-11.0858c-.8695-.5622-1.4469-1.5543-1.4469-2.6843 0-.3205.0465-.6299.1329-.9216l-5.0604-4.78023c-4.33472 2.91833-7.1862 7.87083-7.1862 13.48943 0 8.9746 7.2754 16.25 16.25 16.25z" fill="url(#a)" fill-rule="evenodd"/></svg>