<svg xmlns="http://www.w3.org/2000/svg" fill="none" viewBox="0 0 24 25"><path fill="#6b6d85" fill-rule="evenodd" d="M13.487 3.885a1.682 1.682 0 0 0-2.974 0L1.728 19.836c-.652 1.183.172 2.654 1.486 2.654h17.572c1.314 0 2.138-1.471 1.486-2.654L17.88 11.86zm-.228 14.594c0-.73-.585-1.322-1.307-1.322-.721 0-1.306.592-1.306 1.322s.585 1.321 1.306 1.321 1.307-.592 1.307-1.321m-1.306-3.092c.472 0 .855-.397.855-.887V8.292c0-.49-.383-.887-.855-.887-.473 0-.856.397-.856.887V14.5c0 .49.383.887.856.887" clip-rule="evenodd"/></svg>