<svg viewBox="0 0 91 23" fill="none" xmlns="http://www.w3.org/2000/svg">
<rect rx="4" fill="#E4F7E1"/>
<path fill-rule="evenodd" clip-rule="evenodd" d="M7.125 11.5C7.125 14.1924 9.30761 16.375 12 16.375C14.6924 16.375 16.875 14.1924 16.875 11.5C16.875 8.80761 14.6924 6.625 12 6.625C9.30761 6.625 7.125 8.80761 7.125 11.5ZM14.7547 9.80152C14.8921 9.95646 14.8779 10.1935 14.723 10.3309L11.9029 12.8323L11.6402 13.0653L11.3904 12.8184L9.92456 11.3692C9.77728 11.2236 9.77592 10.9862 9.92153 10.8389C10.0671 10.6916 10.3046 10.6902 10.4519 10.8359L11.668 12.0381L14.2253 9.76982C14.3802 9.63239 14.6173 9.64658 14.7547 9.80152Z" fill="#1B841D"/>
<path d="M28.049 10.2734H26.4936C26.4652 10.0722 26.4072 9.89347 26.3196 9.73722C26.232 9.5786 26.1196 9.44366 25.9822 9.33239C25.8449 9.22112 25.6863 9.13589 25.5064 9.0767C25.3288 9.01752 25.1359 8.98793 24.9276 8.98793C24.5511 8.98793 24.2232 9.08144 23.9439 9.26847C23.6645 9.45312 23.4479 9.72301 23.294 10.0781C23.1402 10.4309 23.0632 10.8594 23.0632 11.3636C23.0632 11.8821 23.1402 12.3177 23.294 12.6705C23.4503 13.0232 23.6681 13.2895 23.9474 13.4695C24.2268 13.6494 24.55 13.7393 24.9169 13.7393C25.1229 13.7393 25.3134 13.7121 25.4886 13.6577C25.6662 13.6032 25.8236 13.5239 25.9609 13.4197C26.0982 13.3132 26.2119 13.1842 26.3018 13.0327C26.3942 12.8812 26.4581 12.7083 26.4936 12.5142L28.049 12.5213C28.0088 12.8551 27.9081 13.1771 27.7472 13.4872C27.5885 13.795 27.3743 14.0708 27.1044 14.3146C26.8369 14.5561 26.5173 14.7479 26.1456 14.8899C25.7763 15.0296 25.3584 15.0994 24.892 15.0994C24.2434 15.0994 23.6634 14.9527 23.152 14.6591C22.643 14.3655 22.2405 13.9406 21.9446 13.3842C21.651 12.8279 21.5043 12.1544 21.5043 11.3636C21.5043 10.5705 21.6534 9.89583 21.9517 9.33949C22.25 8.78314 22.6548 8.35937 23.1662 8.06818C23.6776 7.77462 24.2528 7.62784 24.892 7.62784C25.3134 7.62784 25.7041 7.68703 26.0639 7.8054C26.4261 7.92377 26.7469 8.09659 27.0263 8.32386C27.3056 8.54877 27.5329 8.82457 27.7081 9.15128C27.8857 9.47798 27.9993 9.85204 28.049 10.2734ZM35.8349 11.3636C35.8349 12.1567 35.6845 12.8314 35.3839 13.3878C35.0856 13.9441 34.6784 14.3691 34.1623 14.6626C33.6486 14.9538 33.0709 15.0994 32.4293 15.0994C31.783 15.0994 31.203 14.9527 30.6893 14.6591C30.1755 14.3655 29.7695 13.9406 29.4712 13.3842C29.1729 12.8279 29.0238 12.1544 29.0238 11.3636C29.0238 10.5705 29.1729 9.89583 29.4712 9.33949C29.7695 8.78314 30.1755 8.35937 30.6893 8.06818C31.203 7.77462 31.783 7.62784 32.4293 7.62784C33.0709 7.62784 33.6486 7.77462 34.1623 8.06818C34.6784 8.35937 35.0856 8.78314 35.3839 9.33949C35.6845 9.89583 35.8349 10.5705 35.8349 11.3636ZM34.2759 11.3636C34.2759 10.8499 34.199 10.4167 34.0451 10.0639C33.8936 9.71117 33.6793 9.44366 33.4023 9.26136C33.1254 9.07907 32.801 8.98793 32.4293 8.98793C32.0576 8.98793 31.7333 9.07907 31.4563 9.26136C31.1793 9.44366 30.9639 9.71117 30.81 10.0639C30.6585 10.4167 30.5827 10.8499 30.5827 11.3636C30.5827 11.8774 30.6585 12.3106 30.81 12.6634C30.9639 13.0161 31.1793 13.2836 31.4563 13.4659C31.7333 13.6482 32.0576 13.7393 32.4293 13.7393C32.801 13.7393 33.1254 13.6482 33.4023 13.4659C33.6793 13.2836 33.8936 13.0161 34.0451 12.6634C34.199 12.3106 34.2759 11.8774 34.2759 11.3636ZM43.057 7.72727V15H41.7289L38.5648 10.4226H38.5115V15H36.9739V7.72727H38.3233L41.4625 12.3011H41.5265V7.72727H43.057ZM50.4105 7.72727V15H49.0824L45.9183 10.4226H45.8651V15H44.3274V7.72727H45.6768L48.8161 12.3011H48.88V7.72727H50.4105ZM51.6809 15V7.72727H56.5815V8.99503H53.2186V10.728H56.3294V11.9957H53.2186V13.7322H56.5957V15H51.6809ZM64.2209 10.2734H62.6655C62.6371 10.0722 62.5791 9.89347 62.4915 9.73722C62.4039 9.5786 62.2914 9.44366 62.1541 9.33239C62.0168 9.22112 61.8582 9.13589 61.6783 9.0767C61.5007 9.01752 61.3078 8.98793 61.0994 8.98793C60.723 8.98793 60.3951 9.08144 60.1158 9.26847C59.8364 9.45312 59.6198 9.72301 59.4659 10.0781C59.312 10.4309 59.2351 10.8594 59.2351 11.3636C59.2351 11.8821 59.312 12.3177 59.4659 12.6705C59.6222 13.0232 59.84 13.2895 60.1193 13.4695C60.3987 13.6494 60.7218 13.7393 61.0888 13.7393C61.2947 13.7393 61.4853 13.7121 61.6605 13.6577C61.8381 13.6032 61.9955 13.5239 62.1328 13.4197C62.2701 13.3132 62.3838 13.1842 62.4737 13.0327C62.5661 12.8812 62.63 12.7083 62.6655 12.5142L64.2209 12.5213C64.1806 12.8551 64.08 13.1771 63.919 13.4872C63.7604 13.795 63.5462 14.0708 63.2763 14.3146C63.0088 14.5561 62.6892 14.7479 62.3175 14.8899C61.9482 15.0296 61.5303 15.0994 61.0639 15.0994C60.4152 15.0994 59.8352 14.9527 59.3239 14.6591C58.8149 14.3655 58.4124 13.9406 58.1165 13.3842C57.8229 12.8279 57.6761 12.1544 57.6761 11.3636C57.6761 10.5705 57.8253 9.89583 58.1236 9.33949C58.4219 8.78314 58.8267 8.35937 59.3381 8.06818C59.8494 7.77462 60.4247 7.62784 61.0639 7.62784C61.4853 7.62784 61.8759 7.68703 62.2358 7.8054C62.598 7.92377 62.9188 8.09659 63.1982 8.32386C63.4775 8.54877 63.7048 8.82457 63.88 9.15128C64.0575 9.47798 64.1712 9.85204 64.2209 10.2734ZM65.0465 8.99503V7.72727H71.0195V8.99503H68.793V15H67.2731V8.99503H65.0465ZM72.0032 15V7.72727H76.9038V8.99503H73.5408V10.728H76.6516V11.9957H73.5408V13.7322H76.918V15H72.0032ZM80.7044 15H78.1262V7.72727H80.7257C81.4572 7.72727 82.0869 7.87287 82.6149 8.16406C83.1428 8.45289 83.5488 8.86837 83.8329 9.41051C84.1194 9.95265 84.2626 10.6013 84.2626 11.3565C84.2626 12.1141 84.1194 12.7652 83.8329 13.3097C83.5488 13.8542 83.1404 14.272 82.6078 14.5632C82.0775 14.8544 81.443 15 80.7044 15ZM79.6639 13.6825H80.6404C81.095 13.6825 81.4773 13.602 81.7875 13.4411C82.1 13.2777 82.3343 13.0256 82.4906 12.6847C82.6492 12.3414 82.7285 11.8987 82.7285 11.3565C82.7285 10.8191 82.6492 10.38 82.4906 10.0391C82.3343 9.69815 82.1011 9.44721 81.791 9.28622C81.4809 9.12524 81.0985 9.04474 80.644 9.04474H79.6639V13.6825Z" fill="#1B841D"/>
</svg>