<svg viewBox="0 0 24 24" fill="none" xmlns="http://www.w3.org/2000/svg"><path fill-rule="evenodd" clip-rule="evenodd" d="M18.658 12.405c-.19.505-.505.947-.568.947l-1.389 1.388-2.777-2.714 2.714-2.713 1.389 1.388c.442.379.82.884.631 1.704Zm-7.007 6.247c-.505-.19-.947-.505-.947-.568l-1.389-1.388 2.715-2.714 2.714 2.714-1.389 1.388c-.379.379-.947.757-1.704.568ZM5.4 11.648c.19-.505.505-.947.568-.947l1.39-1.388 2.714 2.713-2.715 2.714-1.452-1.389c-.379-.378-.757-.946-.505-1.703ZM12.408 5.4c.505.19.947.505.947.568l1.39 1.388-2.715 2.713-2.715-2.713 1.389-1.388c.379-.379.884-.82 1.704-.568Zm7.64 3.344-4.736-4.732a5.341 5.341 0 0 0-1.957-1.2c-1.64-.567-3.22-.125-4.545 1.2L4.012 8.745c-.063.063-.82.82-1.2 1.956-.567 1.64-.125 3.218 1.2 4.544l4.735 4.732c.063.063.82.82 1.957 1.199.442.126.947.252 1.389.252 1.136 0 2.21-.504 3.156-1.388l4.735-4.732c.063-.063.82-.82 1.2-1.956.567-1.641.126-3.282-1.137-4.607Z" fill="#25A6F7"/></svg>