<svg xmlns="http://www.w3.org/2000/svg"  viewBox="0 0 17 16"><path fill="#6B6D85" fill-rule="evenodd" d="M12.9 5.378 8.358 2.755 3.815 5.378v5.245l4.543 2.623 4.542-2.623V5.378Zm-4.042-3.49a1 1 0 0 0-1 0L3.315 4.513a1 1 0 0 0-.5.866v5.245a1 1 0 0 0 .5.866l4.543 2.622a1 1 0 0 0 1 0L13.4 11.49a1 1 0 0 0 .5-.866V5.378a1 1 0 0 0-.5-.866L8.858 1.889Z" clip-rule="evenodd"/><path fill="#6B6D85" fill-rule="evenodd" d="M10.59 6.71 8.359 5.422l-2.234 1.29v2.578l2.234 1.29 2.233-1.29V6.711ZM8.859 4.556a1 1 0 0 0-1 0l-2.234 1.29a1 1 0 0 0-.5.866v2.578a1 1 0 0 0 .5.866l2.234 1.29a1 1 0 0 0 1 0l2.233-1.29a1 1 0 0 0 .5-.866V6.711a1 1 0 0 0-.5-.866l-2.233-1.29Z" clip-rule="evenodd"/></svg>