<svg width="16" height="16" viewBox="0 0 16 16" fill="none" xmlns="http://www.w3.org/2000/svg">
<path fill-rule="evenodd" clip-rule="evenodd" d="M12.5422 5.37656L7.99959 2.75391L3.45703 5.37656V10.6219L7.99959 13.2445L12.5422 10.6219V5.37656ZM8.49959 1.88788C8.19019 1.70925 7.80899 1.70925 7.49959 1.88788L2.95703 4.51053C2.64763 4.68916 2.45703 5.01929 2.45703 5.37656V10.6219C2.45703 10.9791 2.64763 11.3092 2.95703 11.4879L7.49959 14.1105C7.80899 14.2892 8.19019 14.2892 8.49959 14.1105L13.0422 11.4879C13.3516 11.3092 13.5422 10.9791 13.5422 10.6219V5.37656C13.5422 5.01929 13.3516 4.68916 13.0422 4.51053L8.49959 1.88788Z" fill="#3DC7F6"/>
<path fill-rule="evenodd" clip-rule="evenodd" d="M10.2319 6.70924L7.99879 5.41992L5.76562 6.70924L5.76563 9.28787L7.99879 10.5772L10.2319 9.28787L10.2319 6.70924ZM8.49879 4.5539C8.18939 4.37526 7.80819 4.37526 7.49879 4.5539L5.26562 5.84321C4.95622 6.02185 4.76562 6.35197 4.76562 6.70924V9.28787C4.76562 9.64514 4.95622 9.97526 5.26563 10.1539L7.49879 11.4432C7.80819 11.6218 8.18939 11.6218 8.49879 11.4432L10.7319 10.1539C11.0413 9.97526 11.2319 9.64514 11.2319 9.28787V6.70924C11.2319 6.35197 11.0413 6.02185 10.7319 5.84321L8.49879 4.5539Z" fill="#3DC7F6"/>
</svg>
