<svg width="20" height="20" viewBox="0 0 20 20" fill="none" xmlns="http://www.w3.org/2000/svg">
<circle cx="10" cy="10" r="10" fill="#D9DAE5"/>
<path d="M6.54901 14V12.858L9.57884 9.88778C9.86861 9.59517 10.1101 9.33523 10.3033 9.10795C10.4964 8.88068 10.6413 8.66051 10.7379 8.44744C10.8345 8.23437 10.8828 8.0071 10.8828 7.76562C10.8828 7.49006 10.8203 7.25426 10.6953 7.05824C10.5703 6.85938 10.3984 6.70597 10.1797 6.59801C9.96094 6.49006 9.71236 6.43608 9.43395 6.43608C9.14702 6.43608 8.8956 6.49574 8.67969 6.61506C8.46378 6.73153 8.29616 6.89773 8.17685 7.11364C8.06037 7.32955 8.00213 7.58665 8.00213 7.88494H6.49787C6.49787 7.33097 6.62429 6.84943 6.87713 6.44034C7.12997 6.03125 7.47798 5.71449 7.92116 5.49006C8.36719 5.26562 8.87855 5.15341 9.45526 5.15341C10.0405 5.15341 10.5547 5.26278 10.9979 5.48153C11.4411 5.70028 11.7848 6 12.0291 6.38068C12.2763 6.76136 12.3999 7.19602 12.3999 7.68466C12.3999 8.01136 12.3374 8.33239 12.2124 8.64773C12.0874 8.96307 11.8672 9.3125 11.5518 9.69602C11.2393 10.0795 10.8004 10.544 10.2351 11.0895L8.73082 12.6193V12.679H12.532V14H6.54901Z" fill="#6B6D85"/>
</svg>
