<svg xmlns="http://www.w3.org/2000/svg" xml:space="preserve" width="15" height="15" version="1.0" viewBox="0 0 128 128"><g><path fill="#592CD7" d="M122.5 69.25H96.47a33.1 33.1 0 0 0 0-10.5h26.05a5.25 5.25 0 0 1 0 10.5z"/><path fill="#3E1E96" fill-opacity=".3" d="M112.04 97.83 89.47 84.8a33.1 33.1 0 0 0 5.25-9.1l22.57 13.03a5.25 5.25 0 0 1-5.28 9.1zM88.68 117.35 75.65 94.78a33.1 33.1 0 0 0 9.1-5.25l13.02 22.57a5.25 5.25 0 1 1-9.1 5.25zM58.7 122.57V96.5a33.1 33.1 0 0 0 10.5 0v26.07a5.25 5.25 0 0 1-10.5 0M30.1 112.1l13.04-22.57a33.1 33.1 0 0 0 9.1 5.25L39.2 117.35a5.25 5.25 0 1 1-9.1-5.25M10.6 88.74 33.16 75.7a33.1 33.1 0 0 0 5.25 9.1L15.88 97.83a5.25 5.25 0 1 1-5.25-9.1z"/><path fill="#4723AC" fill-opacity=".4" d="M5.37 58.75h26.06a33.1 33.1 0 0 0 0 10.5H5.37a5.25 5.25 0 0 1 0-10.5"/><path fill="#4B25B6" fill-opacity=".5" d="M15.85 30.17 38.4 43.2a33.1 33.1 0 0 0-5.24 9.1L10.6 39.25a5.25 5.25 0 1 1 5.25-9.1z"/><path fill="#5027C1" fill-opacity=".6" d="m39.2 10.65 13.03 22.57a33.1 33.1 0 0 0-9.1 5.25l-13-22.57a5.25 5.25 0 1 1 9.1-5.25z"/><path fill="#5429CC" fill-opacity=".7" d="M69.2 5.43V31.5a33.1 33.1 0 0 0-10.5 0V5.42a5.25 5.25 0 1 1 10.5 0z"/><path fill="#5D2EE1" fill-opacity=".8" d="M97.77 15.9 84.75 38.47a33.1 33.1 0 0 0-9.1-5.25l13.03-22.57a5.25 5.25 0 1 1 9.1 5.25z"/><path fill="#6130EC" fill-opacity=".9" d="M117.3 39.26 94.7 52.3a33.1 33.1 0 0 0-5.25-9.1l22.57-13.03a5.25 5.25 0 0 1 5.25 9.1z"/><animateTransform attributeName="transform" calcMode="discrete" dur="1200ms" repeatCount="indefinite" type="rotate" values="0 64 64;30 64 64;60 64 64;90 64 64;120 64 64;150 64 64;180 64 64;210 64 64;240 64 64;270 64 64;300 64 64;330 64 64"/></g></svg>