<svg fill="none" viewBox="0 0 14 14" xmlns="http://www.w3.org/2000/svg"><path d="m1.16406 6.41683v-3.73333c0-.09283.03688-.18185.10252-.24749.06563-.06564.15466-.10251.24748-.10251h3.60384c.08342-.00001.1641.02978.2275.084l1.84566 1.582c.0634.05421.14408.084.2275.084h5.06214c.046 0 .0915.00905.134.02664.0424.01759.081.04337.1135.07587s.0583.07108.0759.11355c.0176.04246.0266.08797.0266.13394v1.98333m-11.66664 0v4.89997c0 .0929.03688.1819.10252.2475.06563.0657.15466.1025.24748.1025h10.96664c.0929 0 .1819-.0368.2475-.1025.0657-.0656.1025-.1546.1025-.2475v-4.89997m-11.66664 0h5.83334 5.8333" stroke="#4f5162" stroke-linecap="round" stroke-linejoin="round" stroke-width=".875"/><path d="m1 6h12v6h-12z" fill="#4f5162"/><path d="m7 7.6665 1.33333 1.33334m0 0h-3.33333m3.33333 0-1.33333 1.33336" stroke="#fff" stroke-linecap="round" stroke-linejoin="round" stroke-width=".88"/></svg>