<svg fill="none" viewBox="0 0 14 14" xmlns="http://www.w3.org/2000/svg"><g stroke="#4f5162" stroke-linecap="round" stroke-linejoin="round" stroke-width=".875"><path d="m7 7.6665 1.33333 1.33334m0 0h-3.33333m3.33333 0-1.33333 1.33336m-4.66406 2.15v-10.9667c0-.09282.03687-.18185.10251-.24748.06564-.06564.15466-.10252.24749-.10252h6.797c.09279.00009.18176.03701.24733.10267l1.83633 1.83633c.0327.03261.0585.07135.0762.114.0176.04265.0266.08836.0265.1345v9.1292c0 .0459-.0091.0914-.0267.1339s-.0433.0811-.0758.1136-.0711.0582-.1136.0758-.088.0267-.1339.0267h-8.63336c-.04597 0-.09148-.0091-.13394-.0267-.04247-.0176-.08105-.0433-.11355-.0758s-.05828-.0711-.07587-.1136-.02664-.088-.02664-.1339z"/><path d="m9.33594 1.1665v1.98334c0 .09282.03687.18185.10251.24748.06564.06564.15466.10252.24749.10252h1.98336"/></g></svg>