<?xml version="1.0" encoding="utf-8"?>
<!-- Generator: Adobe Illustrator 16.0.0, SVG Export Plug-In . SVG Version: 6.00 Build 0)  -->
<!DOCTYPE svg PUBLIC "-//W3C//DTD SVG 1.1//EN" "http://www.w3.org/Graphics/SVG/1.1/DTD/svg11.dtd">
<svg version="1.1" id="Layer_1" xmlns="http://www.w3.org/2000/svg" xmlns:xlink="http://www.w3.org/1999/xlink" x="0px" y="0px"
	 width="466px" height="423.891px" viewBox="0 0 466 423.891" enable-background="new 0 0 466 423.891" xml:space="preserve">
<rect x="-43.5" y="37.005" display="none" fill-rule="evenodd" clip-rule="evenodd" fill="#E7E7E7" width="792" height="612"/>
<g>
	<path id="outline_7_" fill-rule="evenodd" clip-rule="evenodd" d="M242.133,168.481h47.146v48.194h23.837
		c11.008,0,22.33-1.962,32.755-5.494c5.123-1.736,10.872-4.154,15.926-7.193c-6.656-8.689-10.053-19.661-11.054-30.476
		c-1.358-14.71,1.609-33.855,11.564-45.368l4.956-5.732l5.905,4.747c14.867,11.946,27.372,28.638,29.577,47.665
		c17.901-5.266,38.921-4.02,54.701,5.088l6.475,3.734l-3.408,6.652c-13.345,26.046-41.246,34.113-68.524,32.687
		c-40.817,101.663-129.68,149.794-237.428,149.794c-55.666,0-106.738-20.81-135.821-70.197l-0.477-0.807l-4.238-8.621
		C4.195,271.415,0.93,247.6,3.145,223.803l0.664-7.127h40.315v-48.194h47.143v-47.145h94.292V74.191h56.574V168.481z"/>
	<g display="none">
		<path display="inline" fill="#394D54" d="M61.093,319.89c6.023,0,11.763-0.157,17.219-0.464c0.476-0.026,0.932-0.063,1.402-0.092
			c0.005-0.002,0.008-0.002,0.012-0.002c13.872-0.855,25.876-2.708,35.902-5.57c0.002-0.002,0.004-0.002,0.006-0.002
			c1.823-0.521,3.588-1.07,5.282-1.656c1.894-0.657,2.896-2.725,2.241-4.618c-0.656-1.895-2.722-2.899-4.618-2.24
			c-12.734,4.412-29.535,6.842-50.125,7.298c-0.002,0-0.004,0-0.005,0c-10.477,0.232-21.93-0.044-34.352-0.843c0,0,0,0-0.001,0
			c-0.635-0.038-1.259-0.075-1.9-0.118c-1.995-0.128-3.731,1.374-3.869,3.375c-0.136,1.999,1.376,3.73,3.375,3.866
			c2.537,0.173,5.03,0.321,7.49,0.453c0.392,0.021,0.77,0.034,1.158,0.054l0,0C47.566,319.697,54.504,319.89,61.093,319.89z"/>
	</g>
	<g id="Containers_8_">
		<path fill-rule="evenodd" clip-rule="evenodd" fill="#FFFFFF" d="M86.209,179.744h3.227v34.052h-3.227V179.744z M80.02,179.744
			h3.354v34.052H80.02V179.744z M73.828,179.744h3.354v34.052h-3.354V179.744z M67.636,179.744h3.354v34.052h-3.354V179.744z
			 M61.446,179.744H64.8v34.052h-3.354V179.744z M55.384,179.744h3.224v34.052h-3.224V179.744z M51.981,176.338h40.858v40.86H51.981
			V176.338z"/>
		<path fill-rule="evenodd" clip-rule="evenodd" fill="#FFFFFF" d="M133.354,132.598h3.229v34.051h-3.229V132.598z M127.165,132.598
			h3.354v34.051h-3.354V132.598z M120.973,132.598h3.354v34.051h-3.354V132.598z M114.781,132.598h3.354v34.051h-3.354V132.598z
			 M108.593,132.598h3.352v34.051h-3.352V132.598z M102.531,132.598h3.222v34.051h-3.222V132.598z M99.124,129.193h40.863v40.859
			H99.124V129.193z"/>
		<path fill-rule="evenodd" clip-rule="evenodd" fill="#FFFFFF" d="M133.354,179.744h3.229v34.052h-3.229V179.744z M127.165,179.744
			h3.354v34.052h-3.354V179.744z M120.973,179.744h3.354v34.052h-3.354V179.744z M114.781,179.744h3.354v34.052h-3.354V179.744z
			 M108.593,179.744h3.352v34.052h-3.352V179.744z M102.531,179.744h3.222v34.052h-3.222V179.744z M99.124,176.338h40.863v40.86
			H99.124V176.338z"/>
		<path fill-rule="evenodd" clip-rule="evenodd" fill="#FFFFFF" d="M180.501,179.744h3.225v34.052h-3.225V179.744z M174.31,179.744
			h3.355v34.052h-3.355V179.744z M168.12,179.744h3.354v34.052h-3.354V179.744z M161.928,179.744h3.354v34.052h-3.354V179.744z
			 M155.736,179.744h3.354v34.052h-3.354V179.744z M149.676,179.744h3.222v34.052h-3.222V179.744z M146.271,176.338h40.861v40.86
			h-40.861V176.338z"/>
		<path fill-rule="evenodd" clip-rule="evenodd" fill="#FFFFFF" d="M180.501,132.598h3.225v34.051h-3.225V132.598z M174.31,132.598
			h3.355v34.051h-3.355V132.598z M168.12,132.598h3.354v34.051h-3.354V132.598z M161.928,132.598h3.354v34.051h-3.354V132.598z
			 M155.736,132.598h3.354v34.051h-3.354V132.598z M149.676,132.598h3.222v34.051h-3.222V132.598z M146.271,129.193h40.861v40.859
			h-40.861V129.193z"/>
		<path fill-rule="evenodd" clip-rule="evenodd" fill="#FFFFFF" d="M227.647,179.744h3.226v34.052h-3.226V179.744z M221.457,179.744
			h3.354v34.052h-3.354V179.744z M215.265,179.744h3.354v34.052h-3.354V179.744z M209.073,179.744h3.354v34.052h-3.354V179.744z
			 M202.884,179.744h3.354v34.052h-3.354V179.744z M196.821,179.744h3.224v34.052h-3.224V179.744z M193.416,176.338h40.861v40.86
			h-40.861V176.338z"/>
		<path fill-rule="evenodd" clip-rule="evenodd" fill="#FFFFFF" d="M227.647,132.598h3.226v34.051h-3.226V132.598z M221.457,132.598
			h3.354v34.051h-3.354V132.598z M215.265,132.598h3.354v34.051h-3.354V132.598z M209.073,132.598h3.354v34.051h-3.354V132.598z
			 M202.884,132.598h3.354v34.051h-3.354V132.598z M196.821,132.598h3.224v34.051h-3.224V132.598z M193.416,129.193h40.861v40.859
			h-40.861V129.193z"/>
		<path fill-rule="evenodd" clip-rule="evenodd" fill="#FFFFFF" d="M227.647,85.451h3.226v34.053h-3.226V85.451z M221.457,85.451
			h3.354v34.053h-3.354V85.451z M215.265,85.451h3.354v34.053h-3.354V85.451z M209.073,85.451h3.354v34.053h-3.354V85.451z
			 M202.884,85.451h3.354v34.053h-3.354V85.451z M196.821,85.451h3.224v34.053h-3.224V85.451z M193.416,82.048h40.861v40.86h-40.861
			V82.048z"/>
		<path fill-rule="evenodd" clip-rule="evenodd" fill="#FFFFFF" d="M274.792,179.744h3.224v34.052h-3.224V179.744z M268.602,179.744
			h3.352v34.052h-3.352V179.744z M262.408,179.744h3.354v34.052h-3.354V179.744z M256.218,179.744h3.354v34.052h-3.354V179.744z
			 M250.026,179.744h3.354v34.052h-3.354V179.744z M243.964,179.744h3.227v34.052h-3.227V179.744z M240.561,176.338h40.86v40.86
			h-40.86V176.338z"/>
	</g>
	<path fill-rule="evenodd" clip-rule="evenodd" fill="#FFFFFF" d="M137.428,283.445c6.225,0,11.271,5.049,11.271,11.272
		c0,6.225-5.046,11.271-11.271,11.271c-6.226,0-11.272-5.046-11.272-11.271C126.156,288.494,131.202,283.445,137.428,283.445"/>
	<path fill-rule="evenodd" clip-rule="evenodd" d="M137.428,286.644c1.031,0,2.015,0.194,2.923,0.546
		c-0.984,0.569-1.65,1.635-1.65,2.854c0,1.82,1.476,3.293,3.296,3.293c1.247,0,2.329-0.693,2.89-1.715
		c0.395,0.953,0.615,1.999,0.615,3.097c0,4.458-3.615,8.073-8.073,8.073c-4.458,0-8.074-3.615-8.074-8.073
		C129.354,290.258,132.971,286.644,137.428,286.644"/>
	<path fill="#FFFFFF" d="M167.394,364.677c-27.916-13.247-43.239-31.256-51.765-50.915c-10.37,2.961-22.835,4.852-37.317,5.664
		c-5.457,0.307-11.196,0.464-17.219,0.464c-6.942,0-14.26-0.205-21.94-0.613c25.6,25.585,57.094,45.283,115.408,45.645
		C158.866,364.921,163.14,364.837,167.394,364.677z"/>
</g>
</svg>