<svg xmlns="http://www.w3.org/2000/svg" xmlns:xlink="http://www.w3.org/1999/xlink" version="1.1" id="Layer_1" x="0px" y="0px" width="466px" height="423.891px" viewBox="0 0 466 423.891" enable-background="new 0 0 466 423.891" xml:space="preserve">
<rect x="-43.5" y="37.005" display="none" fill-rule="evenodd" clip-rule="evenodd" fill="#E7E7E7" width="792" height="612"/>
<g>
	<path fill="#FFF" id="outline_7_" fill-rule="evenodd" clip-rule="evenodd" d="M242.133,168.481h47.146v48.194h23.837   c11.008,0,22.33-1.962,32.755-5.494c5.123-1.736,10.872-4.154,15.926-7.193c-6.656-8.689-10.053-19.661-11.054-30.476   c-1.358-14.71,1.609-33.855,11.564-45.368l4.956-5.732l5.905,4.747c14.867,11.946,27.372,28.638,29.577,47.665   c17.901-5.266,38.921-4.02,54.701,5.088l6.475,3.734l-3.408,6.652c-13.345,26.046-41.246,34.113-68.524,32.687   c-40.817,101.663-129.68,149.794-237.428,149.794c-55.666,0-106.738-20.81-135.821-70.197l-0.477-0.807l-4.238-8.621   C4.195,271.415,0.93,247.6,3.145,223.803l0.664-7.127h40.315v-48.194h47.143v-47.145h94.292V74.191h56.574V168.481z"/>
	<g display="none">
		<path display="inline" fill="#FFF" d="M61.093,319.89c6.023,0,11.763-0.157,17.219-0.464c0.476-0.026,0.932-0.063,1.402-0.092    c0.005-0.002,0.008-0.002,0.012-0.002c13.872-0.855,25.876-2.708,35.902-5.57c0.002-0.002,0.004-0.002,0.006-0.002    c1.823-0.521,3.588-1.07,5.282-1.656c1.894-0.657,2.896-2.725,2.241-4.618c-0.656-1.895-2.722-2.899-4.618-2.24    c-12.734,4.412-29.535,6.842-50.125,7.298c-0.002,0-0.004,0-0.005,0c-10.477,0.232-21.93-0.044-34.352-0.843c0,0,0,0-0.001,0    c-0.635-0.038-1.259-0.075-1.9-0.118c-1.995-0.128-3.731,1.374-3.869,3.375c-0.136,1.999,1.376,3.73,3.375,3.866    c2.537,0.173,5.03,0.321,7.49,0.453c0.392,0.021,0.77,0.034,1.158,0.054l0,0C47.566,319.697,54.504,319.89,61.093,319.89z"/>
	</g>
	
	
	
	<path fill="#FFF" d="M167.394,364.677c-27.916-13.247-43.239-31.256-51.765-50.915c-10.37,2.961-22.835,4.852-37.317,5.664   c-5.457,0.307-11.196,0.464-17.219,0.464c-6.942,0-14.26-0.205-21.94-0.613c25.6,25.585,57.094,45.283,115.408,45.645   C158.866,364.921,163.14,364.837,167.394,364.677z"/>
</g>
</svg>