<svg width="544" height="286" viewBox="0 0 544 286" fill="none" xmlns="http://www.w3.org/2000/svg">
<path opacity="0.7" d="M447.999 122.5C447.999 165.026 374.036 199.5 282.799 199.5C191.562 199.5 117.6 165.026 117.6 122.5C117.6 79.974 191.562 45.5 282.799 45.5C374.036 45.5 447.999 79.974 447.999 122.5Z" fill="url(#paint0_radial_466_86819)" fill-opacity="0.1"/>
<path opacity="0.7" d="M330.399 206.5C330.399 249.026 256.437 283.5 165.2 283.5C73.9624 283.5 0 249.026 0 206.5C0 163.974 73.9624 129.5 165.2 129.5C256.437 129.5 330.399 163.974 330.399 206.5Z" fill="url(#paint1_radial_466_86819)" fill-opacity="0.1"/>
<path opacity="0.7" d="M543.199 198.099C543.199 240.625 469.237 275.099 377.999 275.099C286.762 275.099 212.8 240.625 212.8 198.099C212.8 155.574 286.762 121.1 377.999 121.1C469.237 121.1 543.199 155.574 543.199 198.099Z" fill="url(#paint2_radial_466_86819)" fill-opacity="0.1"/>
<path fill-rule="evenodd" clip-rule="evenodd" d="M422.746 72.237C422.892 72.5951 422.72 73.0035 422.361 73.1493C386.423 87.7797 283.815 137.525 251.612 153.676C250.638 154.164 249.685 154.642 248.752 155.109C241.963 158.51 236.259 161.368 231.762 163.839C226.62 166.665 223.162 168.932 221.461 170.864C220.617 171.824 220.289 172.608 220.3 173.263C220.31 173.898 220.643 174.588 221.536 175.36C222.433 176.137 223.83 176.934 225.798 177.766C227.758 178.594 230.245 179.439 233.294 180.329C237.693 181.612 244.743 183.606 253.357 186.042C277.594 192.897 314.213 203.255 339.01 211.133C345.328 213.141 350.702 215.204 354.969 217.342C359.223 219.473 362.433 221.707 364.364 224.079C366.32 226.484 366.986 229.073 366.036 231.783C365.109 234.427 362.687 237.06 358.793 239.728C348.552 246.743 306.949 272.196 282.44 285.911C282.102 286.1 281.676 285.98 281.487 285.642C281.298 285.305 281.419 284.878 281.756 284.69C306.246 270.985 347.809 245.555 358.002 238.573C361.809 235.965 363.935 233.543 364.715 231.32C365.47 229.165 364.997 227.076 363.278 224.963C361.533 222.818 358.53 220.692 354.342 218.593C350.165 216.501 344.866 214.463 338.586 212.468C313.813 204.597 277.247 194.254 253.009 187.399C244.382 184.959 237.317 182.961 232.902 181.673C229.826 180.776 227.282 179.913 225.253 179.055C223.231 178.201 221.68 177.336 220.62 176.419C219.554 175.498 218.919 174.463 218.9 173.287C218.881 172.131 219.461 171.018 220.41 169.939C222.297 167.796 225.97 165.425 231.087 162.612C235.61 160.127 241.342 157.256 248.125 153.858C249.058 153.39 250.011 152.912 250.984 152.425C283.181 136.277 385.836 86.5069 421.834 71.8526C422.192 71.7069 422.6 71.879 422.746 72.237Z" fill="black"/>
<path fill-rule="evenodd" clip-rule="evenodd" d="M412.223 60.9835C412.398 61.3281 412.261 61.7495 411.916 61.9247C391.249 72.4333 347.996 92.2406 306.605 111.069C299.914 114.112 293.272 117.13 286.782 120.079C253.102 135.381 223.506 148.828 212.367 154.377C210.383 155.365 208.424 156.333 206.507 157.279C201.99 159.51 197.704 161.627 193.858 163.637C188.372 166.504 183.836 169.128 180.833 171.521C179.331 172.719 178.255 173.827 177.63 174.843C177.012 175.847 176.871 176.7 177.108 177.46C177.353 178.246 178.05 179.093 179.457 179.963C180.858 180.829 182.886 181.671 185.651 182.478C188.523 183.316 192.748 184.538 197.946 186.041C223.139 193.328 271.206 207.231 299.067 216.083C305.367 218.085 310.948 219.95 315.484 221.78C320.004 223.603 323.561 225.418 325.761 227.343C326.866 228.31 327.674 229.342 328.065 230.463C328.463 231.606 328.407 232.783 327.882 233.971C326.866 236.273 324.096 238.604 319.537 241.114C308.76 247.046 295.274 254.826 281.326 262.873C268.921 270.029 256.151 277.396 244.597 283.861C244.26 284.049 243.833 283.929 243.644 283.592C243.456 283.254 243.576 282.828 243.913 282.639C255.418 276.201 268.186 268.836 280.599 261.676C294.573 253.615 308.097 245.813 318.862 239.887C323.403 237.387 325.789 235.245 326.601 233.405C326.991 232.522 327.017 231.712 326.743 230.923C326.46 230.113 325.84 229.272 324.84 228.397C322.828 226.637 319.461 224.894 314.961 223.078C310.477 221.27 304.94 219.418 298.643 217.417C270.802 208.571 222.765 194.677 197.567 187.389C192.365 185.884 188.136 184.661 185.259 183.822C182.436 182.998 180.273 182.114 178.721 181.153C177.175 180.197 176.159 179.118 175.771 177.877C175.377 176.611 175.683 175.336 176.438 174.109C177.185 172.894 178.404 171.668 179.961 170.426C183.078 167.941 187.72 165.265 193.209 162.397C197.071 160.378 201.379 158.25 205.903 156.016C207.817 155.071 209.77 154.107 211.743 153.124C222.907 147.562 252.536 134.101 286.212 118.8C292.7 115.852 299.339 112.836 306.025 109.794C347.43 90.9602 390.649 71.1681 411.282 60.6768C411.626 60.5015 412.048 60.6389 412.223 60.9835Z" fill="black"/>
<path d="M201.288 208.084L165.66 223.075L134.228 213.177L134.228 173.28L175.048 158.149L201.288 168.057L201.288 169.523L201.288 177.525L201.288 208.084Z" fill="white"/>
<path fill-rule="evenodd" clip-rule="evenodd" d="M169.47 157.599C169.572 157.226 169.957 157.006 170.329 157.108C175.738 158.588 181.253 160.426 186.958 162.348C187.307 162.465 187.658 162.583 188.009 162.701C193.393 164.515 198.953 166.389 204.787 168.105C205.157 168.214 205.37 168.603 205.261 168.974C205.151 169.345 204.762 169.557 204.391 169.448C198.531 167.724 192.946 165.842 187.567 164.03C187.214 163.911 186.862 163.793 186.511 163.674C180.802 161.752 175.324 159.926 169.96 158.458C169.587 158.356 169.367 157.971 169.47 157.599Z" fill="black"/>
<path fill-rule="evenodd" clip-rule="evenodd" d="M134.227 170.533C134.614 170.533 134.927 170.847 134.927 171.233L134.927 214.028C134.927 214.414 134.614 214.728 134.227 214.728C133.841 214.728 133.527 214.414 133.527 214.028L133.527 171.233C133.527 170.847 133.841 170.533 134.227 170.533Z" fill="black"/>
<path fill-rule="evenodd" clip-rule="evenodd" d="M201.286 166.625C201.673 166.625 201.986 166.938 201.986 167.325L201.986 208.548C201.986 208.935 201.673 209.248 201.286 209.248C200.9 209.248 200.586 208.935 200.586 208.548L200.586 167.325C200.586 166.938 200.9 166.625 201.286 166.625ZM167.332 178.526C167.719 178.526 168.032 178.84 168.032 179.226L168.032 223.828C168.032 224.215 167.719 224.528 167.332 224.528C166.945 224.528 166.632 224.215 166.632 223.828L166.632 179.226C166.632 178.84 166.945 178.526 167.332 178.526Z" fill="black"/>
<path fill-rule="evenodd" clip-rule="evenodd" d="M132.704 213.839C132.806 213.466 133.191 213.246 133.564 213.348C139.508 214.975 145.857 216.612 152.497 218.324C157.897 219.717 163.489 221.159 169.211 222.685C169.585 222.784 169.807 223.168 169.707 223.541C169.608 223.915 169.224 224.137 168.851 224.037C163.158 222.519 157.57 221.078 152.168 219.685C145.512 217.969 139.137 216.325 133.194 214.699C132.821 214.597 132.602 214.212 132.704 213.839Z" fill="black"/>
<path fill-rule="evenodd" clip-rule="evenodd" d="M134.401 173.082C134.503 172.709 134.888 172.489 135.261 172.591C141.205 174.218 147.555 175.855 154.194 177.567C159.594 178.96 165.186 180.402 170.909 181.928C171.282 182.027 171.504 182.411 171.405 182.784C171.305 183.158 170.922 183.38 170.548 183.28C164.855 181.762 159.268 180.321 153.865 178.928C147.209 177.212 140.834 175.568 134.892 173.942C134.519 173.84 134.299 173.455 134.401 173.082Z" fill="black"/>
<path fill-rule="evenodd" clip-rule="evenodd" d="M206.188 206.99C206.323 207.352 206.138 207.755 205.775 207.889C198.099 210.735 171.118 221.659 163.556 224.824C163.199 224.973 162.789 224.805 162.64 224.448C162.491 224.091 162.659 223.681 163.015 223.532C170.581 220.366 197.584 209.433 205.289 206.576C205.651 206.442 206.054 206.627 206.188 206.99Z" fill="black"/>
<path fill-rule="evenodd" clip-rule="evenodd" d="M203.341 167.082C203.475 167.444 203.29 167.847 202.928 167.982C197.726 169.91 186.258 174.87 177.043 178.857C172.663 180.751 168.792 182.426 166.344 183.45C165.987 183.599 165.577 183.431 165.428 183.075C165.278 182.718 165.447 182.308 165.803 182.159C168.216 181.149 172.054 179.489 176.41 177.605C185.644 173.611 197.205 168.61 202.441 166.669C202.804 166.535 203.207 166.719 203.341 167.082Z" fill="black"/>
<path fill-rule="evenodd" clip-rule="evenodd" d="M174.027 157.553C174.162 157.916 173.977 158.319 173.614 158.453C167.065 160.881 148.543 168.659 138.548 172.856C136.834 173.576 135.371 174.19 134.262 174.654C133.905 174.803 133.495 174.635 133.346 174.278C133.197 173.922 133.365 173.512 133.722 173.363C134.825 172.901 136.282 172.289 137.991 171.571C147.977 167.378 166.546 159.58 173.128 157.14C173.49 157.006 173.893 157.191 174.027 157.553Z" fill="black"/>
<path fill-rule="evenodd" clip-rule="evenodd" d="M187.374 162.662C187.521 163.02 187.349 163.429 186.991 163.575C181.9 165.658 174.154 169.06 167.009 172.199C161.543 174.6 156.428 176.846 153.122 178.23C152.765 178.379 152.355 178.211 152.206 177.855C152.057 177.498 152.225 177.088 152.581 176.939C155.82 175.583 160.916 173.345 166.379 170.946C173.566 167.79 181.389 164.354 186.461 162.279C186.819 162.133 187.228 162.304 187.374 162.662Z" fill="black"/>
<path fill-rule="evenodd" clip-rule="evenodd" d="M181.614 175.658C181.967 175.811 182.174 176.234 182.077 176.605C180.232 183.731 177.94 191.73 175.672 199.64L175.597 199.902C175.571 199.992 175.545 200.082 175.519 200.172L169.394 222.182C169.291 222.551 168.924 222.725 168.571 222.573C168.218 222.42 168.011 221.997 168.107 221.626C169.831 214.968 172.021 207.325 174.237 199.598L180.791 176.049C180.893 175.68 181.261 175.506 181.614 175.658ZM173.553 179.108C173.906 179.261 174.112 179.684 174.016 180.055C172.975 184.072 172.055 187.196 171.145 190.283L171.127 190.345C171.12 190.366 171.114 190.386 171.108 190.407L168.325 200.315C168.221 200.684 167.854 200.857 167.501 200.704C167.149 200.551 166.942 200.129 167.039 199.758C168.036 195.906 168.931 192.868 169.828 189.827L172.73 179.497C172.833 179.129 173.2 178.955 173.553 179.108Z" fill="black"/>
<path fill-rule="evenodd" clip-rule="evenodd" d="M201.911 167.131C202.268 167.281 202.478 167.706 202.381 168.08L190.691 213.216C190.594 213.591 190.227 213.772 189.871 213.622C189.515 213.472 189.305 213.046 189.401 212.672L201.091 167.536C201.188 167.162 201.555 166.98 201.911 167.131ZM194.121 171.216C194.478 171.366 194.688 171.791 194.591 172.165L183.254 215.941C183.157 216.315 182.789 216.497 182.433 216.347C182.077 216.197 181.867 215.771 181.964 215.397L193.301 171.621C193.398 171.247 193.765 171.066 194.121 171.216ZM187.471 173.974C187.828 174.124 188.038 174.549 187.942 174.923L176.524 219.183C176.427 219.557 176.06 219.739 175.704 219.589C175.347 219.439 175.137 219.014 175.233 218.64L186.651 174.381C186.748 174.006 187.115 173.824 187.471 173.974ZM201.924 190.835C202.278 190.993 202.481 191.421 202.377 191.793L197.232 210.211C197.128 210.583 196.757 210.756 196.403 210.599C196.048 210.441 195.845 210.013 195.949 209.641L201.094 191.223C201.198 190.851 201.569 190.678 201.924 190.835Z" fill="black"/>
<path d="M157.325 93.3266C155.843 99.0426 150.894 106.344 146.111 106.662C135.812 107.348 135.503 100.013 135.503 93.9328C136.138 88.2167 141.317 81.2031 146.111 81.2031C152.779 81.2031 158.595 84.2233 157.325 93.3266Z" fill="white"/>
<path fill-rule="evenodd" clip-rule="evenodd" d="M149.978 87.5544C150.981 87.6752 151.94 88.3837 152.758 89.627C152.97 89.95 152.881 90.384 152.558 90.5965C152.235 90.8089 151.801 90.7194 151.588 90.3964C150.893 89.3392 150.248 88.997 149.811 88.9444C149.397 88.8945 148.99 89.0833 148.675 89.5252C148.035 90.4244 147.926 92.2576 149.513 93.7782C151.481 95.6628 152.02 98.4 150.889 100.071C150.296 100.949 149.295 101.425 148.048 101.302C146.84 101.182 145.425 100.509 143.845 99.1922C143.548 98.9447 143.508 98.5033 143.755 98.2063C144.003 97.9093 144.444 97.8692 144.741 98.1167C146.211 99.3415 147.367 99.8276 148.186 99.9085C148.966 99.9855 149.448 99.703 149.73 99.2868C150.349 98.3706 150.206 96.3804 148.545 94.7892C146.503 92.834 146.453 90.2308 147.535 88.7127C148.082 87.946 148.952 87.4309 149.978 87.5544Z" fill="black"/>
<path fill-rule="evenodd" clip-rule="evenodd" d="M151.345 86.2874C151.717 86.3909 151.935 86.7768 151.832 87.1492C150.554 91.7484 148.768 97.1054 146.966 102.01C146.832 102.373 146.43 102.559 146.067 102.425C145.704 102.292 145.518 101.889 145.652 101.527C147.446 96.6461 149.218 91.3267 150.483 86.7745C150.586 86.402 150.972 86.184 151.345 86.2874Z" fill="black"/>
<path fill-rule="evenodd" clip-rule="evenodd" d="M141.01 82.8591C141.112 82.4863 141.497 82.268 141.87 82.3715L146.55 83.6717C146.923 83.7751 147.142 84.1612 147.039 84.534C146.937 84.9067 146.552 85.125 146.18 85.0216L141.499 83.7214C141.127 83.6179 140.908 83.2319 141.01 82.8591ZM143.345 81.5773C143.438 81.2018 143.817 80.9731 144.192 81.0664C145.224 81.3231 145.787 81.4843 146.333 81.6413L146.353 81.647C146.885 81.7999 147.405 81.9493 148.354 82.1854C148.729 82.2787 148.959 82.6587 148.867 83.0341C148.774 83.4096 148.395 83.6383 148.02 83.545C147.047 83.3028 146.508 83.1481 145.969 82.9932L145.95 82.9878C145.412 82.8332 144.867 82.677 143.858 82.426C143.483 82.3327 143.253 81.9527 143.345 81.5773Z" fill="black"/>
<path fill-rule="evenodd" clip-rule="evenodd" d="M136.65 88.2855C136.755 87.9135 137.142 87.6981 137.513 87.8043L141.757 89.0167C142.128 89.1229 142.345 89.5105 142.239 89.8825C142.134 90.2545 141.748 90.47 141.376 90.3638L137.133 89.1514C136.761 89.0452 136.545 88.6575 136.65 88.2855ZM137.876 86.1207C138.005 85.7564 138.405 85.5665 138.769 85.6965L143.012 87.212C143.376 87.3421 143.567 87.7429 143.438 88.1072C143.309 88.4715 142.909 88.6615 142.545 88.5314L138.302 87.0159C137.938 86.8859 137.747 86.4851 137.876 86.1207ZM139.387 84.3163C139.508 83.9493 139.903 83.7509 140.27 83.8732L144.816 85.3886C145.183 85.5109 145.382 85.9076 145.261 86.2746C145.14 86.6416 144.744 86.84 144.378 86.7177L139.831 85.2023C139.465 85.08 139.265 84.6833 139.387 84.3163Z" fill="black"/>
<path fill-rule="evenodd" clip-rule="evenodd" d="M134.83 92.8312C134.935 92.4592 135.322 92.2437 135.693 92.3499L139.937 93.5623C140.308 93.6685 140.524 94.0562 140.419 94.4282C140.314 94.8002 139.928 95.0156 139.556 94.9094L135.313 93.6971C134.941 93.5908 134.725 93.2032 134.83 92.8312ZM135.739 90.4066C135.844 90.0346 136.231 89.8192 136.602 89.9254L140.846 91.1376C141.217 91.2438 141.434 91.6314 141.328 92.0034C141.223 92.3754 140.837 92.5909 140.465 92.4847L136.222 91.2725C135.85 91.1663 135.634 90.7786 135.739 90.4066ZM134.527 96.1652C134.632 95.7932 135.018 95.5778 135.39 95.684L139.633 96.8963C140.005 97.0026 140.221 97.3902 140.116 97.7622C140.011 98.1342 139.624 98.3497 139.253 98.2434L135.01 97.0311C134.638 96.9248 134.422 96.5372 134.527 96.1652Z" fill="black"/>
<path fill-rule="evenodd" clip-rule="evenodd" d="M134.821 99.2311C134.907 98.8541 135.282 98.619 135.658 98.7059L139.598 99.6152C139.975 99.7021 140.211 100.078 140.125 100.455C140.039 100.832 139.664 101.067 139.287 100.98L135.347 100.071C134.971 99.9841 134.735 99.6081 134.821 99.2311ZM136.036 101.947C136.129 101.571 136.508 101.343 136.883 101.437L140.52 102.346C140.895 102.44 141.124 102.82 141.031 103.195C140.939 103.571 140.559 103.799 140.184 103.705L136.547 102.796C136.172 102.702 135.943 102.322 136.036 101.947Z" fill="black"/>
<path fill-rule="evenodd" clip-rule="evenodd" d="M144.386 87.1647C142.305 89.6432 140.781 92.8176 140.441 95.5347C139.841 100.336 140.484 103.681 142.364 105.561C142.393 105.59 142.419 105.621 142.442 105.654C142.64 105.937 142.976 106.157 143.464 106.295C143.952 106.432 144.544 106.472 145.166 106.427C145.785 106.382 146.405 106.255 146.935 106.082C147.478 105.905 147.876 105.696 148.088 105.519C148.138 105.477 148.195 105.442 148.255 105.415C150.201 104.559 151.981 102.761 153.397 100.463C154.808 98.1742 155.819 95.4501 156.259 92.835C156.701 90.2067 156.555 87.7691 155.745 86.0062C154.961 84.2985 153.544 83.1836 151.244 83.1149C149.002 83.048 146.488 84.6616 144.386 87.1647ZM143.314 86.2644C145.508 83.6526 148.394 81.6292 151.285 81.7156C154.14 81.8008 156.02 83.2513 157.017 85.4219C157.989 87.5372 158.107 90.2906 157.64 93.0674C157.17 95.8575 156.096 98.7525 154.589 101.198C153.106 103.605 151.165 105.635 148.904 106.659C148.504 106.968 147.953 107.223 147.37 107.413C146.733 107.621 146.002 107.77 145.267 107.823C144.536 107.876 143.773 107.836 143.084 107.642C142.415 107.453 141.772 107.105 141.333 106.51C139.005 104.142 138.443 100.23 139.052 95.361C139.432 92.3195 141.1 88.9009 143.314 86.2644Z" fill="black"/>
<path fill-rule="evenodd" clip-rule="evenodd" d="M139.938 85.6237C137.924 87.91 136.483 90.8496 136.199 93.4033C136.195 93.4394 136.188 93.4751 136.179 93.5102C135.758 95.0508 135.751 96.9838 136.114 98.7958C136.479 100.619 137.195 102.211 138.12 103.136C138.149 103.165 138.175 103.196 138.198 103.229C138.738 104 139.679 104.693 140.872 105.275C142.053 105.851 143.423 106.29 144.748 106.585C145.125 106.668 145.363 107.042 145.279 107.42C145.195 107.797 144.821 108.035 144.444 107.951C143.041 107.639 141.561 107.169 140.258 106.533C138.986 105.913 137.823 105.106 137.087 104.083C135.914 102.884 135.129 101.012 134.741 99.0704C134.35 97.1132 134.339 94.9774 134.814 93.1946C135.15 90.3072 136.742 87.1329 138.887 84.6983C141.032 82.2639 143.867 80.4172 146.738 80.5029C148.529 80.5563 150.053 81.067 152.381 81.8467C152.581 81.9138 152.788 81.9829 153.001 82.0539C153.367 82.1762 153.566 82.5726 153.443 82.9393C153.321 83.3061 152.925 83.5043 152.558 83.3821C152.369 83.3192 152.187 83.2583 152.011 83.1994C149.597 82.3923 148.272 81.9493 146.697 81.9022C144.434 81.8347 141.965 83.3219 139.938 85.6237Z" fill="black"/>
<path d="M193.725 112.926C192.243 118.642 187.294 125.943 182.51 126.262C172.212 126.948 171.902 119.612 171.902 113.532C172.537 107.816 177.717 100.803 182.51 100.803C189.178 100.803 194.995 103.823 193.725 112.926Z" fill="white"/>
<path fill-rule="evenodd" clip-rule="evenodd" d="M186.378 107.154C187.381 107.275 188.339 107.983 189.157 109.227C189.37 109.55 189.28 109.984 188.957 110.196C188.634 110.409 188.2 110.319 187.988 109.996C187.292 108.939 186.648 108.597 186.21 108.544C185.796 108.494 185.39 108.683 185.075 109.125C184.434 110.024 184.325 111.857 185.913 113.378C187.88 115.262 188.419 118 187.289 119.671C186.695 120.548 185.694 121.024 184.447 120.901C183.239 120.782 181.825 120.109 180.244 118.792C179.947 118.544 179.907 118.103 180.154 117.806C180.402 117.509 180.843 117.469 181.14 117.716C182.61 118.941 183.766 119.427 184.585 119.508C185.365 119.585 185.848 119.303 186.129 118.886C186.749 117.97 186.605 115.98 184.944 114.389C182.903 112.434 182.853 109.83 183.935 108.312C184.481 107.546 185.352 107.03 186.378 107.154Z" fill="black"/>
<path fill-rule="evenodd" clip-rule="evenodd" d="M187.744 105.887C188.117 105.991 188.335 106.376 188.231 106.749C186.954 111.348 185.168 116.705 183.365 121.609C183.232 121.972 182.829 122.158 182.466 122.025C182.104 121.891 181.918 121.489 182.051 121.126C183.845 116.246 185.618 110.926 186.882 106.374C186.986 106.002 187.372 105.784 187.744 105.887Z" fill="black"/>
<path fill-rule="evenodd" clip-rule="evenodd" d="M177.408 102.459C177.511 102.086 177.896 101.868 178.268 101.971L182.949 103.271C183.321 103.375 183.54 103.761 183.438 104.134C183.336 104.506 182.951 104.725 182.578 104.621L177.897 103.321C177.525 103.218 177.306 102.831 177.408 102.459ZM179.744 101.177C179.836 100.801 180.215 100.573 180.59 100.666C181.622 100.923 182.185 101.084 182.731 101.241L182.751 101.247C183.283 101.399 183.803 101.549 184.753 101.785C185.128 101.878 185.357 102.258 185.265 102.634C185.173 103.009 184.794 103.238 184.419 103.145C183.445 102.902 182.907 102.748 182.367 102.593L182.349 102.587C181.811 102.433 181.265 102.277 180.256 102.026C179.881 101.932 179.652 101.552 179.744 101.177Z" fill="black"/>
<path fill-rule="evenodd" clip-rule="evenodd" d="M173.048 107.885C173.154 107.513 173.54 107.298 173.912 107.404L178.155 108.616C178.527 108.722 178.743 109.11 178.638 109.482C178.533 109.854 178.146 110.07 177.774 109.963L173.531 108.751C173.159 108.645 172.943 108.257 173.048 107.885ZM174.274 105.72C174.403 105.356 174.803 105.166 175.167 105.296L179.411 106.812C179.775 106.942 179.965 107.342 179.836 107.707C179.708 108.071 179.308 108.261 178.944 108.131L174.7 106.616C174.336 106.485 174.145 106.085 174.274 105.72ZM175.785 103.916C175.906 103.549 176.302 103.35 176.669 103.473L181.215 104.988C181.582 105.111 181.781 105.507 181.66 105.874C181.539 106.241 181.143 106.44 180.776 106.317L176.23 104.802C175.863 104.68 175.664 104.283 175.785 103.916Z" fill="black"/>
<path fill-rule="evenodd" clip-rule="evenodd" d="M171.229 112.431C171.334 112.059 171.721 111.843 172.093 111.95L176.336 113.162C176.708 113.268 176.924 113.656 176.819 114.028C176.714 114.4 176.327 114.615 175.955 114.509L171.712 113.297C171.34 113.19 171.124 112.803 171.229 112.431ZM172.138 110.006C172.244 109.634 172.63 109.419 173.002 109.525L177.245 110.737C177.617 110.843 177.833 111.231 177.728 111.603C177.623 111.975 177.236 112.19 176.864 112.084L172.621 110.872C172.249 110.766 172.033 110.378 172.138 110.006ZM170.926 115.765C171.031 115.393 171.418 115.177 171.79 115.284L176.033 116.496C176.404 116.602 176.621 116.99 176.516 117.362C176.41 117.734 176.024 117.949 175.652 117.843L171.409 116.631C171.037 116.524 170.821 116.137 170.926 115.765Z" fill="black"/>
<path fill-rule="evenodd" clip-rule="evenodd" d="M171.219 118.831C171.305 118.454 171.68 118.219 172.057 118.306L175.997 119.215C176.373 119.302 176.609 119.678 176.523 120.055C176.438 120.432 176.063 120.667 175.686 120.58L171.746 119.671C171.369 119.584 171.133 119.208 171.219 118.831ZM172.434 121.546C172.527 121.171 172.906 120.943 173.281 121.036L176.918 121.946C177.293 122.039 177.522 122.42 177.43 122.795C177.337 123.17 176.958 123.399 176.583 123.305L172.946 122.396C172.571 122.302 172.342 121.922 172.434 121.546Z" fill="black"/>
<path fill-rule="evenodd" clip-rule="evenodd" d="M180.785 106.764C178.703 109.243 177.179 112.417 176.84 115.134C176.24 119.936 176.882 123.28 178.762 125.161C178.791 125.189 178.817 125.221 178.841 125.254C179.038 125.536 179.375 125.757 179.863 125.894C180.35 126.032 180.942 126.072 181.565 126.027C182.184 125.982 182.803 125.855 183.334 125.682C183.877 125.505 184.274 125.296 184.486 125.119C184.537 125.076 184.593 125.041 184.653 125.015C186.599 124.159 188.38 122.361 189.796 120.063C191.206 117.774 192.217 115.05 192.657 112.435C193.1 109.806 192.953 107.369 192.143 105.606C191.359 103.898 189.943 102.783 187.642 102.715C185.4 102.648 182.887 104.261 180.785 106.764ZM179.713 105.864C181.906 103.252 184.792 101.229 187.684 101.315C190.538 101.4 192.419 102.851 193.416 105.021C194.387 107.137 194.505 109.89 194.038 112.667C193.568 115.457 192.495 118.352 190.987 120.798C189.504 123.204 187.564 125.235 185.303 126.258C184.902 126.568 184.352 126.822 183.768 127.013C183.132 127.22 182.4 127.37 181.666 127.423C180.935 127.476 180.171 127.436 179.482 127.242C178.813 127.053 178.17 126.704 177.731 126.109C175.403 123.742 174.842 119.83 175.451 114.961C175.831 111.919 177.499 108.5 179.713 105.864Z" fill="black"/>
<path fill-rule="evenodd" clip-rule="evenodd" d="M176.336 105.223C174.322 107.51 172.881 110.449 172.597 113.003C172.593 113.039 172.587 113.075 172.577 113.11C172.157 114.65 172.15 116.583 172.512 118.395C172.877 120.219 173.593 121.81 174.518 122.736C174.547 122.764 174.573 122.796 174.597 122.829C175.137 123.6 176.078 124.293 177.27 124.875C178.452 125.451 179.822 125.89 181.146 126.184C181.523 126.268 181.761 126.642 181.678 127.019C181.594 127.397 181.22 127.635 180.842 127.551C179.439 127.239 177.96 126.769 176.656 126.133C175.384 125.512 174.221 124.706 173.485 123.682C172.313 122.484 171.528 120.612 171.14 118.67C170.748 116.713 170.737 114.577 171.212 112.794C171.548 109.907 173.141 106.733 175.286 104.298C177.43 101.864 180.266 100.017 183.137 100.102C184.927 100.156 186.452 100.667 188.779 101.446C188.98 101.513 189.186 101.583 189.399 101.654C189.766 101.776 189.964 102.172 189.842 102.539C189.719 102.906 189.323 103.104 188.956 102.982C188.768 102.919 188.586 102.858 188.409 102.799C185.995 101.992 184.67 101.549 183.095 101.502C180.832 101.434 178.364 102.922 176.336 105.223Z" fill="black"/>
<path d="M190.924 52.726C189.442 58.442 184.493 65.7431 179.71 66.0618C169.411 66.7479 169.102 59.4121 169.102 53.3322C169.737 47.6161 174.916 40.6025 179.71 40.6025C186.377 40.6025 192.194 43.6227 190.924 52.726Z" fill="white"/>
<path fill-rule="evenodd" clip-rule="evenodd" d="M183.577 46.9538C184.58 47.0746 185.539 47.7831 186.356 49.0264C186.569 49.3494 186.479 49.7834 186.156 49.9959C185.833 50.2084 185.399 50.1188 185.187 49.7958C184.491 48.7386 183.847 48.3964 183.41 48.3438C182.996 48.294 182.589 48.4827 182.274 48.9246C181.633 49.8238 181.524 51.6571 183.112 53.1776C185.079 55.0622 185.618 57.7994 184.488 59.4706C183.894 60.3481 182.894 60.8243 181.647 60.7011C180.439 60.5818 179.024 59.9088 177.443 58.5916C177.146 58.3441 177.106 57.9027 177.354 57.6057C177.601 57.3087 178.043 57.2686 178.34 57.5161C179.809 58.7409 180.965 59.227 181.784 59.3079C182.564 59.3849 183.047 59.1024 183.328 58.6862C183.948 57.77 183.805 55.7798 182.143 54.1886C180.102 52.2334 180.052 49.6302 181.134 48.1121C181.68 47.3454 182.551 46.8303 183.577 46.9538Z" fill="black"/>
<path fill-rule="evenodd" clip-rule="evenodd" d="M184.942 45.6868C185.315 45.7903 185.533 46.1762 185.43 46.5487C184.152 51.1478 182.366 56.5048 180.563 61.4091C180.43 61.7719 180.028 61.958 179.665 61.8246C179.302 61.6912 179.116 61.2889 179.249 60.926C181.043 56.0455 182.816 50.7261 184.081 46.174C184.184 45.8015 184.57 45.5834 184.942 45.6868Z" fill="black"/>
<path fill-rule="evenodd" clip-rule="evenodd" d="M174.608 42.2595C174.71 41.8867 175.095 41.6684 175.467 41.7719L180.148 43.0721C180.521 43.1755 180.74 43.5616 180.637 43.9344C180.535 44.3071 180.15 44.5254 179.777 44.4219L175.097 43.1218C174.724 43.0183 174.505 42.6323 174.608 42.2595ZM176.943 40.9777C177.035 40.6022 177.414 40.3735 177.789 40.4668C178.821 40.7234 179.384 40.8847 179.931 41.0417L179.951 41.0474C180.483 41.2003 181.003 41.3497 181.952 41.5858C182.327 41.6791 182.556 42.0591 182.464 42.4345C182.372 42.81 181.993 43.0387 181.618 42.9454C180.644 42.7032 180.106 42.5485 179.567 42.3936L179.548 42.3882C179.01 42.2336 178.465 42.0774 177.455 41.8264C177.08 41.7331 176.851 41.3531 176.943 40.9777Z" fill="black"/>
<path fill-rule="evenodd" clip-rule="evenodd" d="M170.248 47.6859C170.353 47.3139 170.739 47.0985 171.111 47.2047L175.354 48.4171C175.726 48.5233 175.942 48.9109 175.837 49.2829C175.732 49.6549 175.345 49.8704 174.974 49.7642L170.73 48.5518C170.359 48.4456 170.142 48.0579 170.248 47.6859ZM171.474 45.5211C171.603 45.1568 172.002 44.9669 172.367 45.0969L176.61 46.6124C176.974 46.7425 177.165 47.1432 177.036 47.5076C176.907 47.8719 176.507 48.0618 176.143 47.9318L171.9 46.4163C171.535 46.2863 171.345 45.8855 171.474 45.5211ZM172.984 43.7167C173.105 43.3497 173.501 43.1513 173.868 43.2736L178.414 44.789C178.781 44.9113 178.98 45.308 178.859 45.675C178.738 46.042 178.342 46.2404 177.975 46.1181L173.429 44.6027C173.062 44.4804 172.863 44.0837 172.984 43.7167Z" fill="black"/>
<path fill-rule="evenodd" clip-rule="evenodd" d="M168.428 52.2316C168.534 51.8596 168.92 51.6441 169.292 51.7503L173.535 52.9627C173.907 53.0689 174.123 53.4566 174.018 53.8286C173.913 54.2006 173.526 54.416 173.154 54.3098L168.911 53.0974C168.539 52.9912 168.323 52.6036 168.428 52.2316ZM169.338 49.807C169.443 49.435 169.829 49.2196 170.201 49.3258L174.444 50.5379C174.816 50.6441 175.032 51.0318 174.927 51.4038C174.822 51.7758 174.435 51.9913 174.064 51.8851L169.82 50.6729C169.449 50.5667 169.233 50.179 169.338 49.807ZM168.125 55.5656C168.23 55.1936 168.617 54.9781 168.989 55.0844L173.232 56.2967C173.604 56.403 173.82 56.7906 173.715 57.1626C173.61 57.5346 173.223 57.7501 172.851 57.6438L168.608 56.4315C168.236 56.3252 168.02 55.9376 168.125 55.5656Z" fill="black"/>
<path fill-rule="evenodd" clip-rule="evenodd" d="M168.418 58.6315C168.504 58.2545 168.879 58.0194 169.256 58.1063L173.196 59.0156C173.573 59.1025 173.808 59.4786 173.723 59.8555C173.637 60.2325 173.262 60.4676 172.885 60.3807L168.945 59.4714C168.568 59.3845 168.333 59.0085 168.418 58.6315ZM169.634 61.3471C169.726 60.9717 170.105 60.7435 170.481 60.8372L174.118 61.7464C174.493 61.8402 174.722 62.2204 174.629 62.5957C174.536 62.9711 174.157 63.1993 173.782 63.1056L170.145 62.1964C169.77 62.1027 169.541 61.7224 169.634 61.3471Z" fill="black"/>
<path fill-rule="evenodd" clip-rule="evenodd" d="M177.985 46.5651C175.904 49.0436 174.38 52.218 174.04 54.9351C173.44 59.7363 174.082 63.0809 175.963 64.9613C175.991 64.9901 176.018 65.0214 176.041 65.0548C176.239 65.3371 176.575 65.5575 177.063 65.6951C177.551 65.8327 178.142 65.8727 178.765 65.8275C179.384 65.7826 180.003 65.6557 180.534 65.4825C181.077 65.3053 181.474 65.0968 181.687 64.9193C181.737 64.8771 181.793 64.8422 181.854 64.8157C183.799 63.9598 185.58 62.1613 186.996 59.8638C188.407 57.5746 189.417 54.8505 189.858 52.2354C190.3 49.6071 190.153 47.1695 189.344 45.4066C188.559 43.6989 187.143 42.584 184.842 42.5153C182.6 42.4484 180.087 44.062 177.985 46.5651ZM176.913 45.6648C179.106 43.053 181.992 41.0296 184.884 41.1159C187.738 41.2012 189.619 42.6517 190.616 44.8223C191.587 46.9375 191.706 49.691 191.238 52.4678C190.769 55.2579 189.695 58.1529 188.188 60.5983C186.704 63.005 184.764 65.0355 182.503 66.059C182.102 66.3684 181.552 66.6229 180.968 66.8134C180.332 67.0212 179.6 67.1706 178.866 67.2239C178.135 67.2769 177.371 67.2368 176.683 67.0425C176.013 66.8536 175.37 66.505 174.932 65.91C172.603 63.5428 172.042 59.6307 172.651 54.7614C173.031 51.7199 174.699 48.3013 176.913 45.6648Z" fill="black"/>
<path fill-rule="evenodd" clip-rule="evenodd" d="M173.535 45.0241C171.521 47.3104 170.08 50.2499 169.797 52.8037C169.793 52.8398 169.786 52.8755 169.776 52.9106C169.356 54.4512 169.349 56.3842 169.712 58.1962C170.076 60.0194 170.792 61.6112 171.718 62.5364C171.746 62.5652 171.773 62.5965 171.796 62.6299C172.336 63.4009 173.277 64.0937 174.469 64.6753C175.651 65.2518 177.021 65.6907 178.345 65.985C178.723 66.0689 178.961 66.4428 178.877 66.8202C178.793 67.1976 178.419 67.4356 178.042 67.3517C176.638 67.0398 175.159 66.5695 173.856 65.9336C172.583 65.313 171.42 64.5066 170.685 63.4829C169.512 62.2844 168.727 60.4126 168.339 58.4708C167.947 56.5136 167.937 54.3778 168.411 52.595C168.747 49.7076 170.34 46.5333 172.485 44.0987C174.629 41.6643 177.465 39.8176 180.336 39.9033C182.126 39.9567 183.651 40.4674 185.979 41.2471C186.179 41.3142 186.385 41.3833 186.598 41.4543C186.965 41.5765 187.163 41.973 187.041 42.3397C186.919 42.7065 186.522 42.9047 186.156 42.7824C185.967 42.7196 185.785 42.6587 185.609 42.5998C183.194 41.7927 181.869 41.3496 180.294 41.3026C178.031 41.2351 175.563 42.7223 173.535 45.0241Z" fill="black"/>
<path fill-rule="evenodd" clip-rule="evenodd" d="M144.9 21.4014C145.287 21.4014 145.6 21.7148 145.6 22.1014L145.6 61.9736C145.6 62.3602 145.287 62.6736 144.9 62.6736C144.514 62.6736 144.2 62.3602 144.2 61.9736L144.2 22.1014C144.2 21.7148 144.514 21.4014 144.9 21.4014ZM144.9 115.459C145.287 115.459 145.6 115.772 145.6 116.159L145.6 140.401C145.6 140.788 145.287 141.101 144.9 141.101C144.514 141.101 144.2 140.788 144.2 140.401L144.2 116.159C144.2 115.772 144.514 115.459 144.9 115.459ZM144.9 160.443C145.287 160.443 145.6 160.757 145.6 161.143L145.6 176.101C145.6 176.488 145.287 176.801 144.9 176.801C144.514 176.801 144.2 176.488 144.2 176.101L144.2 161.143C144.2 160.757 144.514 160.443 144.9 160.443Z" fill="black"/>
<path fill-rule="evenodd" clip-rule="evenodd" d="M163.1 21.4014C163.487 21.4014 163.8 21.7148 163.8 22.1014L163.8 52.664C163.8 53.0506 163.487 53.364 163.1 53.364C162.714 53.364 162.4 53.0506 162.4 52.664L162.4 22.1014C162.4 21.7148 162.714 21.4014 163.1 21.4014ZM163.1 74.886C163.487 74.886 163.8 75.1994 163.8 75.586L163.8 97.4164C163.8 97.803 163.487 98.1164 163.1 98.1164C162.714 98.1164 162.4 97.803 162.4 97.4164L162.4 75.586C162.4 75.1994 162.714 74.886 163.1 74.886ZM163.1 125.096C163.487 125.096 163.8 125.409 163.8 125.796L163.8 150.901C163.8 151.288 163.487 151.601 163.1 151.601C162.714 151.601 162.4 151.288 162.4 150.901L162.4 125.796C162.4 125.409 162.714 125.096 163.1 125.096Z" fill="black"/>
<path fill-rule="evenodd" clip-rule="evenodd" d="M178.507 7.40084C178.893 7.40432 179.204 7.72053 179.2 8.10711L178.936 37.4063C178.933 37.7929 178.617 38.1034 178.23 38.1C177.843 38.0965 177.533 37.7803 177.536 37.3937L177.8 8.0945C177.804 7.70792 178.12 7.39735 178.507 7.40084ZM177.946 69.6616C178.332 69.6651 178.643 69.9813 178.639 70.3679L178.408 96.0046C178.405 96.3912 178.089 96.7018 177.702 96.6983C177.316 96.6948 177.005 96.3786 177.008 95.992L177.239 70.3552C177.243 69.9687 177.559 69.6581 177.946 69.6616ZM177.378 131.922C177.765 131.922 178.078 132.236 178.078 132.622L178.078 160C178.078 160.387 177.765 160.7 177.378 160.7C176.992 160.7 176.678 160.387 176.678 160L176.678 132.622C176.678 132.236 176.992 131.922 177.378 131.922Z" fill="black"/>
<path d="M376.833 27.7005V4.36719L417.9 9.96717V33.3005L376.833 27.7005Z" fill="white"/>
<path fill-rule="evenodd" clip-rule="evenodd" d="M376.109 0.817383C376.496 0.817383 376.809 1.13078 376.809 1.51738V78.1002C376.809 78.4868 376.496 78.8002 376.109 78.8002C375.723 78.8002 375.409 78.4868 375.409 78.1002V1.51738C375.409 1.13078 375.723 0.817383 376.109 0.817383Z" fill="black"/>
<path fill-rule="evenodd" clip-rule="evenodd" d="M373.098 0C373.485 0 373.798 0.3134 373.798 0.699998V79.5004C373.798 79.887 373.485 80.2004 373.098 80.2004C372.712 80.2004 372.398 79.887 372.398 79.5004V0.699998C372.398 0.3134 372.712 0 373.098 0Z" fill="black"/>
<path fill-rule="evenodd" clip-rule="evenodd" d="M372.408 1.40574C372.469 1.0241 372.829 0.764748 373.21 0.826465C376.873 1.41887 385.843 2.43835 395.357 3.51706L395.755 3.56212C405.133 4.62534 414.96 5.73939 420.615 6.54733C420.998 6.60201 421.264 6.95658 421.209 7.33929C421.154 7.722 420.8 7.98793 420.417 7.93326C414.782 7.12823 404.969 6.01577 395.574 4.95059L395.2 4.90815C385.709 3.83214 376.692 2.80777 372.987 2.20851C372.605 2.14679 372.346 1.78738 372.408 1.40574Z" fill="black"/>
<path fill-rule="evenodd" clip-rule="evenodd" d="M375.674 24.323C375.721 23.9393 376.07 23.6663 376.454 23.7133C386.46 24.9384 397.411 26.4713 407.878 27.9362C411.437 28.4343 414.94 28.9246 418.33 29.3922C418.713 29.445 418.981 29.7983 418.928 30.1813C418.875 30.5643 418.522 30.8319 418.139 30.7791C414.742 30.3106 411.235 29.8197 407.673 29.3212C397.21 27.8568 386.276 26.3264 376.284 25.1029C375.9 25.0559 375.627 24.7067 375.674 24.323Z" fill="black"/>
<path fill-rule="evenodd" clip-rule="evenodd" d="M417.245 4.90527C417.632 4.90527 417.945 5.21867 417.945 5.60527C417.945 16.2333 417.945 25.2264 417.945 30.4455C417.945 30.8321 417.631 31.1455 417.245 31.1454C416.858 31.1454 416.545 30.832 416.545 30.4454C416.545 25.2263 416.545 16.2334 416.545 5.60528C416.545 5.21868 416.859 4.90528 417.245 4.90527Z" fill="black"/>
<path d="M346.462 203.811V190.576L366.836 183.655L410.971 182.997L422.084 192.71V206.586L405.433 215.605H363.113L346.462 203.811Z" fill="white"/>
<path fill-rule="evenodd" clip-rule="evenodd" d="M341.755 199.82C342 199.52 342.441 199.476 342.74 199.72C346.937 203.146 350.085 205.811 353.005 208.283L353.006 208.284C355.926 210.755 358.615 213.032 361.902 215.688C362.202 215.931 362.249 216.372 362.006 216.673C361.763 216.973 361.323 217.02 361.022 216.777C357.722 214.11 355.022 211.825 352.103 209.354L352.101 209.352C349.182 206.881 346.042 204.223 341.855 200.805C341.556 200.56 341.511 200.119 341.755 199.82Z" fill="black"/>
<path fill-rule="evenodd" clip-rule="evenodd" d="M406.68 216.303C396.907 216.152 370.595 215.746 361.713 215.609C361.327 215.603 361.018 215.285 361.024 214.898C361.03 214.512 361.349 214.203 361.735 214.209C370.616 214.346 396.928 214.752 406.702 214.903C407.088 214.909 407.397 215.227 407.391 215.614C407.385 216 407.067 216.309 406.68 216.303Z" fill="black"/>
<path fill-rule="evenodd" clip-rule="evenodd" d="M346.666 186.597C347.052 186.597 347.366 186.91 347.366 187.297L347.366 207.972C347.366 208.359 347.052 208.672 346.666 208.672C346.279 208.672 345.966 208.359 345.966 207.972L345.966 187.297C345.966 186.91 346.279 186.597 346.666 186.597Z" fill="black"/>
<path fill-rule="evenodd" clip-rule="evenodd" d="M363.112 197.56C363.499 197.56 363.812 197.873 363.812 198.26V214.217C363.812 214.603 363.499 214.917 363.112 214.917C362.726 214.917 362.412 214.603 362.412 214.217V198.26C362.412 197.873 362.726 197.56 363.112 197.56Z" fill="black"/>
<path fill-rule="evenodd" clip-rule="evenodd" d="M405.431 196.864C405.818 196.864 406.131 197.178 406.131 197.564V216.99C406.131 217.377 405.818 217.69 405.431 217.69C405.045 217.69 404.731 217.377 404.731 216.99V197.564C404.731 197.178 405.045 196.864 405.431 196.864Z" fill="black"/>
<path fill-rule="evenodd" clip-rule="evenodd" d="M422.083 187.152C422.469 187.152 422.783 187.466 422.783 187.852V207.278C422.783 207.665 422.469 207.978 422.083 207.978C421.696 207.978 421.383 207.665 421.383 207.278V187.852C421.383 187.466 421.696 187.152 422.083 187.152Z" fill="black"/>
<path fill-rule="evenodd" clip-rule="evenodd" d="M344.903 188.704C345.112 188.379 345.545 188.285 345.871 188.494C352.044 192.463 354.38 193.938 357.224 195.735C358.855 196.765 360.652 197.9 363.435 199.671C363.761 199.879 363.857 200.312 363.65 200.638C363.442 200.964 363.01 201.06 362.683 200.853C359.908 199.086 358.112 197.952 356.481 196.922C353.633 195.123 351.291 193.643 345.114 189.672C344.788 189.463 344.694 189.03 344.903 188.704Z" fill="black"/>
<path fill-rule="evenodd" clip-rule="evenodd" d="M362.358 200.262C362.358 199.876 362.672 199.562 363.058 199.563C371.254 199.563 397.054 199.563 406.073 199.563C406.46 199.562 406.773 199.876 406.773 200.262C406.773 200.649 406.46 200.962 406.073 200.962C397.054 200.963 371.254 200.963 363.058 200.962C362.672 200.962 362.358 200.649 362.358 200.262Z" fill="black"/>
<path fill-rule="evenodd" clip-rule="evenodd" d="M406.412 179.885C406.641 179.573 407.079 179.506 407.39 179.734L406.976 180.299L406.562 180.863C406.251 180.635 406.183 180.196 406.412 179.885ZM406.976 180.299C406.562 180.863 406.562 180.863 406.562 180.863L407.088 181.249C407.427 181.497 407.917 181.855 408.522 182.298C409.732 183.184 411.404 184.407 413.251 185.755C416.944 188.45 421.339 191.646 424.137 193.644C424.451 193.869 424.888 193.796 425.113 193.482C425.338 193.167 425.265 192.73 424.95 192.505C422.159 190.511 417.77 187.319 414.077 184.624C412.23 183.277 410.559 182.054 409.349 181.169C408.744 180.726 408.254 180.367 407.916 180.119L407.39 179.734C407.39 179.734 407.39 179.734 406.976 180.299Z" fill="black"/>
<path fill-rule="evenodd" clip-rule="evenodd" d="M374.104 180.877C374.226 181.244 374.028 181.64 373.661 181.763C366.484 184.155 348.93 190.538 344.953 192.129C344.594 192.273 344.187 192.098 344.043 191.739C343.9 191.38 344.074 190.973 344.433 190.829C348.442 189.226 366.022 182.833 373.218 180.435C373.585 180.312 373.981 180.511 374.104 180.877Z" fill="black"/>
<path fill-rule="evenodd" clip-rule="evenodd" d="M392.316 183.269C383.414 183.332 374.467 183.395 365.454 183.395C365.067 183.395 364.754 183.081 364.754 182.695C364.754 182.308 365.067 181.995 365.454 181.995C374.461 181.995 383.403 181.932 392.306 181.869L392.433 181.868C401.293 181.806 410.114 181.744 418.917 181.744C419.303 181.744 419.617 182.058 419.617 182.444C419.617 182.831 419.303 183.144 418.917 183.144C410.119 183.144 401.302 183.206 392.441 183.268L392.316 183.269Z" fill="black"/>
<path fill-rule="evenodd" clip-rule="evenodd" d="M426.923 190.367C427.096 190.712 426.955 191.133 426.61 191.306C421.288 193.967 416.493 196.126 411.897 198.196C409.299 199.366 406.765 200.507 404.236 201.694C403.886 201.858 403.469 201.708 403.305 201.358C403.141 201.008 403.291 200.591 403.641 200.427C406.21 199.221 408.761 198.073 411.365 196.9C415.94 194.84 420.681 192.705 425.984 190.054C426.329 189.881 426.75 190.021 426.923 190.367ZM425.483 205.578C425.656 205.924 425.516 206.344 425.17 206.517L425.164 206.52C416.843 210.681 411.286 213.459 404.236 216.767C403.886 216.932 403.469 216.781 403.305 216.431C403.141 216.081 403.291 215.664 403.641 215.5C410.675 212.199 416.218 209.428 424.544 205.265C424.89 205.092 425.31 205.232 425.483 205.578Z" fill="black"/>
<path fill-rule="evenodd" clip-rule="evenodd" d="M352.209 192.731C352.58 192.84 352.792 193.229 352.683 193.6L349.214 205.395C349.105 205.765 348.716 205.978 348.345 205.869C347.974 205.759 347.762 205.37 347.871 204.999L351.34 193.205C351.449 192.834 351.838 192.622 352.209 192.731ZM357.043 195.5C357.417 195.596 357.643 195.978 357.546 196.353C356.993 198.501 356.2 200.715 355.424 202.882L355.418 202.899C354.639 205.072 353.879 207.196 353.357 209.221C353.261 209.595 352.879 209.82 352.505 209.724C352.13 209.627 351.905 209.246 352.001 208.871C352.539 206.784 353.318 204.61 354.087 202.462L354.106 202.41C354.886 200.231 355.656 198.078 356.19 196.003C356.287 195.629 356.669 195.404 357.043 195.5ZM361.937 198.979C362.305 199.096 362.509 199.49 362.392 199.858L358.137 213.25C358.02 213.619 357.627 213.823 357.258 213.706C356.89 213.589 356.686 213.195 356.803 212.826L361.058 199.435C361.175 199.066 361.568 198.862 361.937 198.979Z" fill="black"/>
<path fill-rule="evenodd" clip-rule="evenodd" d="M380.312 199.663C380.686 199.76 380.911 200.141 380.815 200.516C380.185 202.959 379.581 205.389 378.98 207.809L378.97 207.851C378.372 210.256 377.777 212.651 377.163 215.034C377.066 215.408 376.685 215.633 376.31 215.537C375.936 215.44 375.711 215.059 375.807 214.684C376.42 212.308 377.014 209.918 377.612 207.51L377.621 207.472C378.222 205.052 378.828 202.616 379.459 200.166C379.556 199.792 379.937 199.567 380.312 199.663ZM374.387 199.663C374.761 199.76 374.986 200.141 374.89 200.516C374.256 202.975 373.578 205.399 372.906 207.799L372.894 207.843C372.225 210.23 371.563 212.594 370.954 214.96C370.857 215.335 370.476 215.56 370.101 215.463C369.727 215.367 369.502 214.985 369.598 214.611C370.211 212.231 370.876 209.855 371.544 207.472L371.558 207.422C372.23 205.02 372.904 202.61 373.534 200.166C373.631 199.792 374.012 199.567 374.387 199.663ZM367.835 200.36C368.207 200.464 368.425 200.85 368.321 201.223L364.479 214.974C364.375 215.346 363.989 215.564 363.617 215.46C363.244 215.356 363.027 214.969 363.131 214.597L366.972 200.846C367.076 200.474 367.463 200.256 367.835 200.36Z" fill="black"/>
<path fill-rule="evenodd" clip-rule="evenodd" d="M397.393 200.363C397.768 200.46 397.993 200.841 397.896 201.216L394.316 215.11C394.219 215.485 393.838 215.71 393.463 215.613C393.089 215.517 392.864 215.135 392.96 214.761L396.541 200.866C396.637 200.492 397.019 200.267 397.393 200.363ZM391.149 200.363C391.523 200.46 391.749 200.841 391.652 201.216L388.072 215.11C387.975 215.484 387.593 215.71 387.219 215.613C386.845 215.517 386.619 215.135 386.716 214.761L390.296 200.866C390.393 200.492 390.775 200.267 391.149 200.363ZM385.599 200.338C385.973 200.435 386.198 200.817 386.102 201.191L382.521 215.085C382.425 215.46 382.043 215.685 381.669 215.588C381.294 215.492 381.069 215.11 381.166 214.736L384.746 200.842C384.843 200.467 385.224 200.242 385.599 200.338Z" fill="black"/>
<path fill-rule="evenodd" clip-rule="evenodd" d="M416.168 194.807C416.543 194.903 416.768 195.285 416.671 195.659L412.559 211.616C412.463 211.991 412.081 212.216 411.707 212.119C411.332 212.023 411.107 211.641 411.204 211.267L415.316 195.31C415.412 194.936 415.794 194.71 416.168 194.807ZM409.793 198.282C410.163 198.392 410.375 198.781 410.265 199.152L405.341 215.803C405.232 216.174 404.842 216.385 404.472 216.276C404.101 216.166 403.889 215.776 403.999 215.406L408.923 198.755C409.032 198.384 409.422 198.173 409.793 198.282ZM403.228 200.357C403.602 200.453 403.828 200.835 403.731 201.21L399.977 215.779C399.88 216.153 399.498 216.379 399.124 216.282C398.75 216.186 398.524 215.804 398.621 215.43L402.375 200.86C402.472 200.486 402.854 200.26 403.228 200.357Z" fill="black"/>
<path fill-rule="evenodd" clip-rule="evenodd" d="M421.718 192.033C422.092 192.13 422.317 192.512 422.22 192.886L417.904 209.537C417.807 209.911 417.425 210.136 417.051 210.039C416.676 209.942 416.452 209.56 416.549 209.185L420.865 192.534C420.962 192.16 421.344 191.936 421.718 192.033Z" fill="black"/>
<path fill-rule="evenodd" clip-rule="evenodd" d="M379.27 190.974H373.796L367.904 183.706L371.558 179.864V170.188H367.904L371.558 157.519H375.617L379.27 154.272V147.777L388.2 142.906L393.071 146.179V151.836L396.319 146.179L403.064 149.401L404.843 157.519L400.784 161.173V167.667H404.843L403.064 179.864L397.806 178.42L393.071 183.706L394.503 190.974L386.574 194.278L379.27 192.956V190.974ZM383.508 168.099L388.523 164.755L391.866 166.427L389.637 173.113L385.737 175.899L383.508 174.785V168.099Z" fill="white"/>
<path fill-rule="evenodd" clip-rule="evenodd" d="M367.286 169.576C367.407 169.208 367.802 169.008 368.169 169.129C368.768 169.325 369.37 169.449 370.039 169.577C372.024 169.954 374.012 170.286 376.009 170.618C376.933 170.772 377.859 170.926 378.788 171.086C379.169 171.151 379.425 171.513 379.36 171.894C379.294 172.275 378.932 172.531 378.551 172.465C377.637 172.309 376.719 172.156 375.799 172.002C373.793 171.668 371.778 171.333 369.777 170.952C369.103 170.824 368.425 170.686 367.733 170.459C367.366 170.339 367.166 169.943 367.286 169.576Z" fill="black"/>
<path fill-rule="evenodd" clip-rule="evenodd" d="M369.241 157.162C369.303 156.781 369.662 156.521 370.044 156.582C370.752 156.696 371.421 156.824 372.148 157.05C374.373 157.745 376.585 158.512 378.785 159.274C379.785 159.62 380.782 159.966 381.777 160.303C382.143 160.428 382.339 160.825 382.215 161.191C382.091 161.557 381.693 161.753 381.327 161.629C380.314 161.285 379.306 160.936 378.301 160.588C376.113 159.829 373.935 159.075 371.731 158.387C371.098 158.189 370.504 158.074 369.821 157.964C369.44 157.903 369.18 157.544 369.241 157.162Z" fill="black"/>
<path fill-rule="evenodd" clip-rule="evenodd" d="M378.004 147.238C378.125 146.871 378.521 146.671 378.888 146.792C381.197 147.552 383.559 148.137 385.943 148.727C386.937 148.974 387.935 149.221 388.934 149.482C389.308 149.58 389.532 149.962 389.434 150.336C389.337 150.71 388.954 150.934 388.58 150.836C387.619 150.585 386.643 150.344 385.661 150.1C383.255 149.504 380.812 148.899 378.45 148.122C378.083 148.001 377.883 147.605 378.004 147.238Z" fill="black"/>
<path fill-rule="evenodd" clip-rule="evenodd" d="M385.398 142.258C385.532 141.896 385.935 141.711 386.297 141.846C388.632 142.713 390.984 143.531 393.344 144.351C393.873 144.535 394.402 144.719 394.931 144.903C395.296 145.031 395.489 145.43 395.362 145.795C395.234 146.16 394.835 146.353 394.47 146.225C393.944 146.042 393.417 145.859 392.889 145.675C390.529 144.855 388.16 144.031 385.81 143.158C385.448 143.024 385.263 142.621 385.398 142.258Z" fill="black"/>
<path fill-rule="evenodd" clip-rule="evenodd" d="M395.191 146.213C395.281 145.837 395.658 145.604 396.034 145.694C397.889 146.136 399.726 146.759 401.518 147.367C402.207 147.601 402.889 147.833 403.564 148.051C403.931 148.17 404.133 148.565 404.014 148.932C403.895 149.3 403.5 149.502 403.133 149.383C402.416 149.151 401.709 148.911 401.006 148.672C399.237 148.072 397.496 147.481 395.71 147.056C395.334 146.966 395.102 146.589 395.191 146.213Z" fill="black"/>
<path fill-rule="evenodd" clip-rule="evenodd" d="M400.508 167.644C400.6 167.269 400.98 167.039 401.355 167.132C402.083 167.311 402.816 167.49 403.55 167.67C404.411 167.88 405.272 168.091 406.129 168.303C406.505 168.396 406.734 168.775 406.641 169.15C406.548 169.526 406.169 169.755 405.793 169.662C404.934 169.45 404.078 169.24 403.221 169.031C402.489 168.852 401.756 168.673 401.02 168.491C400.645 168.399 400.415 168.019 400.508 167.644Z" fill="black"/>
<path fill-rule="evenodd" clip-rule="evenodd" d="M397.353 178.374C397.44 177.997 397.816 177.762 398.193 177.849C399.418 178.132 400.643 178.453 401.856 178.771C402.415 178.917 402.971 179.063 403.523 179.204C403.897 179.3 404.123 179.681 404.028 180.055C403.932 180.43 403.551 180.656 403.176 180.561C402.606 180.415 402.04 180.267 401.476 180.119C400.274 179.804 399.083 179.491 397.878 179.213C397.501 179.126 397.266 178.751 397.353 178.374Z" fill="black"/>
<path fill-rule="evenodd" clip-rule="evenodd" d="M394.141 182.614C394.522 182.553 394.882 182.813 394.943 183.194C395.018 183.662 395.066 184.094 395.077 184.591C395.116 186.349 395.092 188.117 395.068 189.871C395.057 190.69 395.046 191.507 395.042 192.317C395.04 192.703 394.725 193.015 394.338 193.013C393.951 193.011 393.64 192.696 393.642 192.309C393.647 191.475 393.658 190.646 393.669 189.82C393.692 188.081 393.716 186.355 393.677 184.622C393.668 184.203 393.628 183.836 393.561 183.417C393.499 183.035 393.759 182.676 394.141 182.614Z" fill="black"/>
<path fill-rule="evenodd" clip-rule="evenodd" d="M386.541 187.021C386.926 186.991 387.263 187.278 387.293 187.664C387.415 189.214 387.449 190.805 387.482 192.371C387.503 193.347 387.524 194.313 387.565 195.254C387.582 195.64 387.283 195.967 386.897 195.984C386.51 196.001 386.183 195.702 386.166 195.316C386.122 194.302 386.101 193.31 386.081 192.326C386.049 190.802 386.017 189.299 385.898 187.773C385.867 187.388 386.155 187.051 386.541 187.021Z" fill="black"/>
<path fill-rule="evenodd" clip-rule="evenodd" d="M383.825 186.931C384.11 187.192 384.13 187.635 383.869 187.92C383.471 188.356 383.077 188.814 382.674 189.285C382.642 189.323 382.61 189.36 382.577 189.398C382.207 189.831 381.828 190.274 381.44 190.708C380.595 191.65 379.678 192.577 378.626 193.331C378.312 193.557 377.875 193.484 377.65 193.17C377.424 192.856 377.497 192.419 377.811 192.193C378.74 191.527 379.577 190.688 380.397 189.773C380.774 189.352 381.143 188.921 381.515 188.486C381.547 188.449 381.579 188.412 381.611 188.375C382.013 187.904 382.42 187.43 382.836 186.976C383.097 186.69 383.54 186.671 383.825 186.931Z" fill="black"/>
<path fill-rule="evenodd" clip-rule="evenodd" d="M380.624 179.047C380.886 179.331 380.868 179.774 380.584 180.036C380.007 180.568 379.422 181.08 378.843 181.587C377.392 182.858 375.976 184.098 374.798 185.547C374.554 185.847 374.113 185.893 373.813 185.649C373.513 185.405 373.468 184.964 373.711 184.664C374.969 183.116 376.525 181.754 378.008 180.455C378.567 179.966 379.116 179.485 379.635 179.007C379.919 178.745 380.362 178.763 380.624 179.047Z" fill="black"/>
<path fill-rule="evenodd" clip-rule="evenodd" d="M378.975 170.006C379.355 170.075 379.607 170.439 379.538 170.819C378.886 174.405 379.455 178.005 379.809 180.24C379.833 180.39 379.855 180.533 379.876 180.67C379.936 181.052 379.674 181.41 379.292 181.469C378.91 181.528 378.552 181.267 378.493 180.885C378.471 180.745 378.448 180.596 378.423 180.44C378.07 178.217 377.464 174.4 378.161 170.569C378.23 170.189 378.594 169.936 378.975 170.006Z" fill="black"/>
<path fill-rule="evenodd" clip-rule="evenodd" d="M387.748 155.943C387.935 156.281 387.814 156.707 387.476 156.895C384.358 158.627 383.182 160.242 382.335 161.682C382.139 162.015 381.71 162.127 381.376 161.931C381.043 161.735 380.932 161.306 381.128 160.972C382.082 159.35 383.428 157.542 386.796 155.671C387.134 155.483 387.56 155.605 387.748 155.943Z" fill="black"/>
<path fill-rule="evenodd" clip-rule="evenodd" d="M386.61 148.288C386.997 148.297 387.303 148.617 387.295 149.003C387.285 149.451 387.275 149.899 387.265 150.347C387.204 153.142 387.142 155.932 387.115 158.723C387.111 159.109 386.795 159.42 386.408 159.416C386.021 159.412 385.711 159.096 385.715 158.709C385.742 155.909 385.804 153.11 385.866 150.315C385.876 149.868 385.885 149.42 385.895 148.973C385.904 148.586 386.224 148.28 386.61 148.288Z" fill="black"/>
<path fill-rule="evenodd" clip-rule="evenodd" d="M393.35 144.954C393.737 144.954 394.05 145.268 394.05 145.654V153.671C394.05 154.057 393.737 154.371 393.35 154.371C392.964 154.371 392.65 154.057 392.65 153.671V145.654C392.65 145.268 392.964 144.954 393.35 144.954Z" fill="black"/>
<path fill-rule="evenodd" clip-rule="evenodd" d="M391.75 152.951C391.75 152.564 392.063 152.251 392.45 152.251C393.277 152.251 394.278 152.372 395.23 152.693C396.178 153.013 397.13 153.551 397.784 154.423C398.016 154.732 397.953 155.171 397.644 155.403C397.335 155.634 396.896 155.572 396.664 155.263C396.236 154.693 395.567 154.285 394.782 154.02C394 153.755 393.154 153.651 392.45 153.651C392.063 153.651 391.75 153.338 391.75 152.951Z" fill="black"/>
<path fill-rule="evenodd" clip-rule="evenodd" d="M404.838 146.244C405.109 146.52 405.106 146.963 404.831 147.234C404.172 147.885 403.513 148.538 402.854 149.191C401.316 150.714 399.776 152.241 398.221 153.749C397.775 154.181 397.342 154.571 396.833 154.952C396.524 155.184 396.085 155.122 395.853 154.812C395.621 154.503 395.684 154.064 395.993 153.832C396.439 153.498 396.826 153.152 397.247 152.744C398.796 151.241 400.327 149.723 401.862 148.203C402.523 147.548 403.184 146.893 403.848 146.238C404.123 145.966 404.566 145.969 404.838 146.244Z" fill="black"/>
<path fill-rule="evenodd" clip-rule="evenodd" d="M406.813 155.067C407.088 155.339 407.09 155.782 406.818 156.057C406.281 156.598 405.744 157.129 405.209 157.657C404.049 158.801 402.902 159.933 401.814 161.129C401.676 161.281 401.576 161.455 401.466 161.702C401.31 162.056 400.897 162.216 400.543 162.059C400.19 161.903 400.03 161.49 400.186 161.136C400.326 160.819 400.499 160.495 400.779 160.188C401.892 158.962 403.084 157.786 404.258 156.628C404.787 156.106 405.311 155.589 405.823 155.072C406.095 154.797 406.539 154.795 406.813 155.067Z" fill="black"/>
<path fill-rule="evenodd" clip-rule="evenodd" d="M401.748 147.567C402.086 147.379 402.512 147.5 402.7 147.838C403.174 148.687 403.384 149.532 403.593 150.369C403.605 150.417 403.617 150.464 403.629 150.511C403.813 151.249 403.975 151.973 404.135 152.687C404.406 153.897 404.67 155.08 405.03 156.261C405.041 156.298 405.052 156.327 405.062 156.349C405.065 156.354 405.067 156.359 405.069 156.364C405.399 156.506 405.571 156.88 405.455 157.227C405.333 157.594 404.936 157.792 404.57 157.67C403.995 157.478 403.779 156.958 403.691 156.67C403.318 155.448 403.03 154.161 402.749 152.908C402.592 152.206 402.437 151.514 402.27 150.851C402.263 150.821 402.256 150.792 402.248 150.763C402.028 149.882 401.858 149.203 401.477 148.519C401.289 148.182 401.41 147.755 401.748 147.567Z" fill="black"/>
<path fill-rule="evenodd" clip-rule="evenodd" d="M400.674 159.923C401.052 159.839 401.426 160.077 401.509 160.455C402.238 163.733 402.496 166.169 401.484 168.952C401.352 169.315 400.95 169.503 400.587 169.371C400.224 169.239 400.036 168.837 400.168 168.474C401.041 166.075 400.855 163.965 400.143 160.758C400.059 160.381 400.297 160.007 400.674 159.923Z" fill="black"/>
<path fill-rule="evenodd" clip-rule="evenodd" d="M404.413 167.752C404.795 167.692 405.153 167.954 405.212 168.336C405.55 170.509 405.137 172.987 404.532 175.234C403.99 177.25 403.274 179.147 402.745 180.547C402.682 180.715 402.621 180.876 402.564 181.029C402.428 181.391 402.024 181.574 401.662 181.439C401.3 181.303 401.117 180.899 401.253 180.537C401.311 180.382 401.372 180.22 401.436 180.052C401.966 178.647 402.657 176.816 403.18 174.87C403.769 172.681 404.121 170.431 403.829 168.551C403.769 168.169 404.031 167.811 404.413 167.752Z" fill="black"/>
<path fill-rule="evenodd" clip-rule="evenodd" d="M398.375 176.617C398.736 176.756 398.916 177.161 398.777 177.522C398.151 179.149 397.559 180.4 396.762 181.529C395.964 182.66 394.982 183.638 393.611 184.75C393.31 184.993 392.869 184.947 392.626 184.647C392.383 184.347 392.429 183.906 392.729 183.662C394.041 182.599 394.919 181.712 395.619 180.721C396.32 179.728 396.863 178.599 397.47 177.019C397.609 176.658 398.014 176.478 398.375 176.617Z" fill="black"/>
<path fill-rule="evenodd" clip-rule="evenodd" d="M396.298 190.29C396.451 190.645 396.286 191.057 395.931 191.209C394.399 191.865 393.253 192.342 392.287 192.744C390.465 193.503 389.289 193.992 387.39 194.91C386.78 195.205 386.34 195.332 385.719 195.435C385.338 195.499 384.977 195.241 384.914 194.86C384.85 194.479 385.108 194.118 385.489 194.054C385.993 193.971 386.303 193.88 386.781 193.649C388.714 192.715 389.937 192.206 391.787 191.436C392.751 191.034 393.885 190.562 395.379 189.922C395.735 189.77 396.146 189.934 396.298 190.29Z" fill="black"/>
<path fill-rule="evenodd" clip-rule="evenodd" d="M379.415 193.12C379.466 192.737 379.818 192.467 380.201 192.518C381.451 192.683 382.684 192.972 383.877 193.252C384.009 193.283 384.141 193.314 384.272 193.345C385.602 193.655 386.888 193.937 388.184 194.045C388.569 194.078 388.855 194.416 388.823 194.801C388.791 195.186 388.453 195.473 388.068 195.441C386.659 195.323 385.283 195.018 383.954 194.708C383.823 194.678 383.692 194.647 383.562 194.616C382.358 194.334 381.194 194.062 380.017 193.906C379.634 193.855 379.365 193.503 379.415 193.12Z" fill="black"/>
<path fill-rule="evenodd" clip-rule="evenodd" d="M379.74 189.729C380.122 189.674 380.477 189.94 380.532 190.323C380.583 190.681 380.632 191.036 380.68 191.388C380.775 192.085 380.87 192.773 380.98 193.464C381.041 193.845 380.781 194.204 380.4 194.266C380.018 194.327 379.659 194.067 379.598 193.685C379.485 192.979 379.387 192.263 379.29 191.557C379.242 191.209 379.195 190.862 379.146 190.521C379.091 190.138 379.357 189.783 379.74 189.729Z" fill="black"/>
<path fill-rule="evenodd" clip-rule="evenodd" d="M378.584 158.633C378.878 158.885 378.912 159.327 378.66 159.62C377.689 160.753 376.82 162.873 376.241 165.231C375.667 167.573 375.413 170.01 375.583 171.705C375.621 172.09 375.34 172.433 374.956 172.472C374.571 172.51 374.228 172.229 374.189 171.845C373.999 169.937 374.285 167.33 374.882 164.898C375.474 162.482 376.407 160.098 377.597 158.709C377.849 158.416 378.291 158.382 378.584 158.633Z" fill="black"/>
<path fill-rule="evenodd" clip-rule="evenodd" d="M372.699 156.75C373.039 156.935 373.164 157.36 372.979 157.699C370.853 161.596 369.364 166.118 369.461 170.409C369.47 170.795 369.164 171.116 368.777 171.125C368.391 171.133 368.07 170.827 368.062 170.441C367.957 165.826 369.552 161.059 371.75 157.029C371.935 156.69 372.36 156.565 372.699 156.75Z" fill="black"/>
<path fill-rule="evenodd" clip-rule="evenodd" d="M379.622 154.983C379.891 155.261 379.885 155.704 379.607 155.973C379.317 156.254 379.026 156.539 378.734 156.825C377.781 157.758 376.812 158.707 375.799 159.599C375.509 159.854 375.067 159.826 374.811 159.536C374.556 159.246 374.584 158.804 374.874 158.548C375.856 157.683 376.789 156.77 377.736 155.843C378.033 155.552 378.331 155.26 378.633 154.968C378.91 154.699 379.353 154.706 379.622 154.983Z" fill="black"/>
<path fill-rule="evenodd" clip-rule="evenodd" d="M379.3 147.027C379.687 147.027 380 147.341 380 147.727C380 149.108 379.948 150.497 379.896 151.87C379.872 152.502 379.848 153.13 379.83 153.753L379.829 153.779C379.818 154.15 379.815 154.263 379.874 154.442C379.997 154.808 379.798 155.205 379.432 155.327C379.065 155.449 378.668 155.251 378.546 154.884C378.405 154.462 378.417 154.112 378.428 153.797C378.429 153.768 378.43 153.74 378.431 153.711C378.45 153.064 378.474 152.422 378.498 151.784C378.55 150.425 378.6 149.081 378.6 147.727C378.6 147.341 378.914 147.027 379.3 147.027Z" fill="black"/>
<path fill-rule="evenodd" clip-rule="evenodd" d="M377.459 154.909C377.572 154.539 377.963 154.331 378.333 154.444C379.775 154.883 381.066 155.2 382.317 155.506C382.389 155.524 382.461 155.542 382.534 155.559C383.848 155.882 385.128 156.202 386.465 156.647C386.831 156.769 387.03 157.166 386.907 157.533C386.785 157.899 386.389 158.098 386.022 157.975C384.746 157.55 383.516 157.242 382.2 156.919C382.126 156.901 382.051 156.883 381.977 156.864C380.73 156.559 379.405 156.234 377.925 155.783C377.555 155.67 377.347 155.279 377.459 154.909Z" fill="black"/>
<path fill-rule="evenodd" clip-rule="evenodd" d="M397.696 144.707C398.02 144.918 398.111 145.352 397.9 145.676C397.432 146.394 396.964 147.109 396.496 147.822C395.608 149.176 394.723 150.526 393.85 151.887C393.641 152.212 393.208 152.307 392.883 152.098C392.557 151.889 392.463 151.456 392.671 151.131C393.548 149.764 394.44 148.403 395.331 147.046C395.798 146.334 396.264 145.622 396.727 144.912C396.939 144.588 397.372 144.496 397.696 144.707Z" fill="black"/>
<path fill-rule="evenodd" clip-rule="evenodd" d="M388.661 142.364C388.837 142.708 388.701 143.13 388.356 143.306C387.239 143.878 386.116 144.431 384.997 144.982C382.695 146.116 380.409 147.242 378.209 148.513C377.875 148.706 377.447 148.592 377.253 148.257C377.06 147.922 377.174 147.494 377.509 147.301C379.748 146.007 382.107 144.845 384.433 143.699C385.541 143.153 386.642 142.61 387.719 142.059C388.063 141.883 388.484 142.019 388.661 142.364Z" fill="black"/>
<path fill-rule="evenodd" clip-rule="evenodd" d="M397.099 143.666C397.302 143.995 397.199 144.427 396.87 144.629C395.288 145.603 393.659 146.501 392.048 147.389C391.704 147.579 391.36 147.768 391.017 147.958C390.588 148.196 390.152 148.446 389.709 148.699C388.422 149.436 387.084 150.202 385.702 150.8C385.347 150.954 384.935 150.791 384.782 150.436C384.628 150.082 384.791 149.669 385.145 149.516C386.45 148.951 387.689 148.242 388.956 147.516C389.412 147.255 389.871 146.993 390.339 146.734C390.687 146.54 391.035 146.349 391.382 146.157C392.992 145.27 394.585 144.391 396.136 143.437C396.465 143.234 396.896 143.337 397.099 143.666Z" fill="black"/>
<path fill-rule="evenodd" clip-rule="evenodd" d="M372.904 170.806C373.291 170.806 373.604 171.119 373.604 171.506C373.604 172.694 373.692 173.884 373.782 175.103L373.783 175.116C373.873 176.323 373.964 177.559 373.964 178.802C373.964 179.188 373.651 179.502 373.264 179.502C372.878 179.502 372.564 179.188 372.564 178.802C372.564 177.615 372.477 176.426 372.386 175.206L372.385 175.195C372.296 173.988 372.204 172.75 372.204 171.506C372.204 171.119 372.518 170.806 372.904 170.806Z" fill="black"/>
<path fill-rule="evenodd" clip-rule="evenodd" d="M371.759 178.474C371.853 178.099 372.233 177.871 372.608 177.964C374.272 178.38 375.789 178.722 377.64 179.138C378.572 179.348 379.589 179.577 380.752 179.844C381.129 179.93 381.364 180.306 381.278 180.683C381.191 181.059 380.816 181.295 380.439 181.208C379.292 180.945 378.282 180.718 377.353 180.509C375.49 180.089 373.949 179.743 372.269 179.323C371.894 179.229 371.666 178.849 371.759 178.474Z" fill="black"/>
<path fill-rule="evenodd" clip-rule="evenodd" d="M374.015 177.842C374.296 178.108 374.308 178.552 374.042 178.832C372.759 180.184 371.473 181.538 370.174 182.881C370.07 182.988 369.964 183.1 369.854 183.216C369.392 183.707 368.875 184.255 368.263 184.687C367.947 184.91 367.51 184.835 367.287 184.519C367.064 184.203 367.14 183.766 367.456 183.543C367.942 183.2 368.338 182.781 368.791 182.302C368.911 182.175 369.036 182.043 369.168 181.907C370.462 180.57 371.744 179.221 373.026 177.869C373.292 177.588 373.735 177.576 374.015 177.842Z" fill="black"/>
<path fill-rule="evenodd" clip-rule="evenodd" d="M366.808 183.831C366.866 183.449 367.222 183.186 367.605 183.243C369.069 183.465 370.318 183.713 371.662 183.983C371.698 183.99 371.735 183.997 371.773 184.005C373.085 184.268 374.5 184.552 376.318 184.855C376.7 184.918 376.957 185.279 376.894 185.66C376.83 186.042 376.469 186.299 376.088 186.236C374.247 185.929 372.813 185.641 371.501 185.378C371.463 185.371 371.424 185.363 371.386 185.355C370.042 185.086 368.822 184.843 367.395 184.628C367.013 184.57 366.75 184.213 366.808 183.831Z" fill="black"/>
<path fill-rule="evenodd" clip-rule="evenodd" d="M381.953 186.826C382.048 186.451 382.429 186.224 382.804 186.32C384.661 186.791 386.55 186.919 388.522 187.02C388.908 187.039 389.205 187.368 389.186 187.754C389.166 188.14 388.837 188.437 388.451 188.418C386.479 188.317 384.465 188.185 382.46 187.677C382.085 187.581 381.858 187.201 381.953 186.826Z" fill="black"/>
<path fill-rule="evenodd" clip-rule="evenodd" d="M373.933 184.269C374.246 184.041 374.684 184.11 374.911 184.423C375.928 185.819 376.864 187.287 377.786 188.735C378.209 189.399 378.63 190.059 379.054 190.706C379.167 190.879 379.262 191.031 379.353 191.179C379.473 191.373 379.588 191.559 379.734 191.771C379.967 192.108 380.194 192.377 380.44 192.562C380.749 192.793 380.812 193.232 380.58 193.542C380.348 193.851 379.909 193.913 379.6 193.682C379.176 193.364 378.848 192.951 378.582 192.566C378.432 192.349 378.268 192.086 378.123 191.853C378.034 191.709 377.951 191.577 377.884 191.474C377.437 190.793 377.005 190.115 376.576 189.441C375.666 188.014 374.771 186.608 373.78 185.247C373.552 184.934 373.621 184.497 373.933 184.269Z" fill="black"/>
<path fill-rule="evenodd" clip-rule="evenodd" d="M367.225 183.493C367.518 183.241 367.96 183.275 368.212 183.569C369.865 185.498 371.534 187.569 373.018 189.411C373.482 189.987 373.928 190.54 374.349 191.059C374.593 191.359 374.547 191.8 374.247 192.044C373.946 192.287 373.505 192.242 373.262 191.941C372.834 191.414 372.385 190.856 371.918 190.277C370.436 188.438 368.787 186.391 367.149 184.48C366.897 184.186 366.931 183.744 367.225 183.493Z" fill="black"/>
<path fill-rule="evenodd" clip-rule="evenodd" d="M371.664 190.946C371.672 190.56 371.991 190.252 372.378 190.26C373.697 190.285 374.97 190.62 376.158 190.947C376.24 190.97 376.322 190.993 376.404 191.015C377.525 191.326 378.57 191.615 379.628 191.703C380.013 191.735 380.3 192.074 380.267 192.459C380.235 192.844 379.897 193.131 379.512 193.099C378.316 192.999 377.149 192.675 376.055 192.372C375.965 192.346 375.875 192.321 375.785 192.297C374.588 191.966 373.472 191.681 372.351 191.66C371.964 191.652 371.657 191.333 371.664 190.946Z" fill="black"/>
<path fill-rule="evenodd" clip-rule="evenodd" d="M382.237 173.808C382.458 173.49 382.894 173.411 383.212 173.632C383.693 173.966 384.151 174.283 384.589 174.586C387.093 176.317 388.961 177.609 390.827 179.164C391.124 179.411 391.164 179.852 390.916 180.149C390.669 180.446 390.227 180.487 389.93 180.239C388.117 178.728 386.307 177.476 383.801 175.743C383.361 175.439 382.9 175.12 382.413 174.782C382.096 174.561 382.017 174.125 382.237 173.808Z" fill="black"/>
<path fill-rule="evenodd" clip-rule="evenodd" d="M384.691 165.315C385.076 165.358 385.352 165.704 385.31 166.088C385.169 167.356 385.026 168.87 384.882 170.393C384.664 172.703 384.444 175.034 384.226 176.558C384.171 176.941 383.817 177.207 383.434 177.152C383.051 177.097 382.785 176.743 382.84 176.36C383.055 174.858 383.267 172.605 383.481 170.332C383.626 168.8 383.771 167.259 383.918 165.933C383.961 165.549 384.307 165.272 384.691 165.315Z" fill="black"/>
<path fill-rule="evenodd" clip-rule="evenodd" d="M391.653 161.978C391.89 162.283 391.835 162.723 391.53 162.961C390.89 163.458 389.553 164.408 388.15 165.405C387.944 165.551 387.737 165.698 387.53 165.845C385.892 167.01 384.296 168.154 383.619 168.713C383.321 168.959 382.88 168.916 382.634 168.618C382.388 168.32 382.43 167.879 382.728 167.633C383.454 167.034 385.103 165.853 386.719 164.705C386.926 164.557 387.133 164.41 387.338 164.264C388.75 163.261 390.057 162.333 390.67 161.855C390.975 161.618 391.415 161.673 391.653 161.978Z" fill="black"/>
<path fill-rule="evenodd" clip-rule="evenodd" d="M388.164 161.855C388.369 161.528 388.802 161.429 389.129 161.635C390.728 162.639 392.453 163.432 394.212 164.241C394.934 164.573 395.662 164.908 396.388 165.261C396.588 165.358 396.802 165.449 397.04 165.55C397.166 165.604 397.298 165.66 397.438 165.722C397.819 165.889 398.239 166.087 398.603 166.329C398.924 166.543 399.011 166.978 398.797 167.3C398.582 167.621 398.148 167.708 397.826 167.494C397.57 167.323 397.245 167.166 396.876 167.004C396.767 166.956 396.652 166.907 396.534 166.857C396.276 166.747 396.007 166.632 395.777 166.52C395.108 166.195 394.415 165.877 393.712 165.553C391.921 164.729 390.065 163.876 388.384 162.82C388.057 162.615 387.958 162.183 388.164 161.855Z" fill="black"/>
<path fill-rule="evenodd" clip-rule="evenodd" d="M396.388 174.306C396.582 174.641 396.469 175.069 396.134 175.263C395.784 175.467 395.058 175.907 394.174 176.441C392.113 177.689 389.194 179.456 388.169 179.968C387.824 180.141 387.403 180.001 387.23 179.655C387.057 179.309 387.198 178.889 387.543 178.716C388.517 178.229 391.272 176.561 393.316 175.324C394.248 174.76 395.032 174.285 395.431 174.053C395.765 173.859 396.194 173.972 396.388 174.306Z" fill="black"/>
<path fill-rule="evenodd" clip-rule="evenodd" d="M396.654 164.969C397.032 165.053 397.27 165.427 397.186 165.804C396.83 167.404 396.563 169.007 396.292 170.631L396.291 170.64C396.022 172.256 395.749 173.892 395.384 175.532C395.301 175.909 394.927 176.147 394.549 176.063C394.172 175.98 393.934 175.606 394.018 175.228C394.373 173.628 394.641 172.025 394.911 170.401L394.913 170.392C395.182 168.777 395.455 167.14 395.819 165.5C395.903 165.123 396.277 164.885 396.654 164.969Z" fill="black"/>
<path fill-rule="evenodd" clip-rule="evenodd" d="M391.874 164.786C392.252 164.865 392.494 165.237 392.415 165.615C392.356 165.892 392.298 166.169 392.24 166.447C392.024 167.478 391.807 168.516 391.572 169.549C391.477 169.963 391.382 170.374 391.287 170.782C391.107 171.553 390.929 172.318 390.763 173.091L390.736 173.213C390.73 173.244 390.726 173.263 390.724 173.277C390.72 173.296 390.718 173.312 390.718 173.352C390.718 173.739 390.405 174.052 390.018 174.052C389.632 174.052 389.318 173.739 389.318 173.352C389.318 173.139 389.349 173 389.381 172.857C389.385 172.837 389.39 172.817 389.394 172.797C389.563 172.013 389.746 171.227 389.927 170.448C390.021 170.043 390.115 169.639 390.207 169.238C390.439 168.219 390.653 167.196 390.868 166.167C390.927 165.887 390.986 165.607 391.045 165.326C391.124 164.948 391.496 164.706 391.874 164.786Z" fill="black"/>
<path fill-rule="evenodd" clip-rule="evenodd" d="M391.035 173.101C391.223 173.439 391.101 173.865 390.763 174.053C390.081 174.432 389.358 174.759 388.668 175.071C388.455 175.168 388.245 175.263 388.04 175.358C387.83 175.455 387.616 175.556 387.4 175.658C386.7 175.989 385.968 176.334 385.222 176.618C384.861 176.755 384.457 176.574 384.319 176.212C384.182 175.851 384.363 175.447 384.725 175.309C385.414 175.047 386.077 174.734 386.767 174.408C386.992 174.302 387.22 174.195 387.452 174.087C387.681 173.981 387.907 173.879 388.129 173.778C388.807 173.472 389.456 173.178 390.083 172.829C390.421 172.642 390.847 172.763 391.035 173.101Z" fill="black"/>
<path fill-rule="evenodd" clip-rule="evenodd" d="M387.95 164.256C388.123 163.91 388.543 163.77 388.889 163.943L388.892 163.945C390.324 164.66 391.025 165.011 392.799 165.721C393.158 165.864 393.333 166.272 393.189 166.631C393.046 166.99 392.638 167.164 392.279 167.021C390.452 166.29 389.712 165.92 388.263 165.195C387.917 165.022 387.777 164.602 387.95 164.256Z" fill="black"/>
<path fill-rule="evenodd" clip-rule="evenodd" d="M398.641 165.947C398.676 166.332 398.393 166.673 398.008 166.708C396.1 166.882 393.283 167.026 391.098 167.026C390.712 167.026 390.398 166.712 390.398 166.326C390.398 165.939 390.712 165.626 391.098 165.626C393.237 165.626 396.011 165.484 397.88 165.313C398.265 165.278 398.606 165.562 398.641 165.947Z" fill="black"/>
<path fill-rule="evenodd" clip-rule="evenodd" d="M388.526 172.964C388.616 172.588 388.993 172.355 389.369 172.445C389.78 172.543 390.188 172.641 390.595 172.74C391.552 172.971 392.503 173.201 393.462 173.413C393.631 173.451 393.799 173.489 393.966 173.526C394.86 173.728 395.707 173.919 396.573 174.006C396.957 174.044 397.238 174.387 397.199 174.772C397.161 175.157 396.818 175.437 396.433 175.399C395.475 175.303 394.531 175.09 393.639 174.888C393.477 174.851 393.317 174.815 393.159 174.78C392.186 174.565 391.215 174.33 390.251 174.097C389.848 174 389.445 173.902 389.045 173.807C388.669 173.717 388.436 173.34 388.526 172.964Z" fill="black"/>
<path fill-rule="evenodd" clip-rule="evenodd" d="M396.287 170.842C396.206 171.219 395.834 171.46 395.456 171.379C393.791 171.021 392.137 170.662 390.483 170.297C390.106 170.214 389.867 169.84 389.95 169.462C390.034 169.085 390.407 168.846 390.785 168.93C392.435 169.294 394.087 169.652 395.75 170.01C396.128 170.091 396.369 170.464 396.287 170.842ZM393.842 163.861C393.989 164.218 393.819 164.627 393.462 164.775C392.266 165.268 391.247 165.662 390.48 165.946C390.118 166.081 389.715 165.896 389.58 165.534C389.446 165.171 389.631 164.768 389.993 164.634C390.744 164.355 391.748 163.967 392.928 163.481C393.285 163.333 393.695 163.503 393.842 163.861Z" fill="black"/>
<path fill-rule="evenodd" clip-rule="evenodd" d="M392.285 177.342C392.125 177.694 391.71 177.85 391.358 177.69L386.58 175.517C386.228 175.357 386.073 174.942 386.233 174.59C386.393 174.238 386.808 174.083 387.16 174.243L391.938 176.415C392.29 176.575 392.445 176.99 392.285 177.342Z" fill="black"/>
<path fill-rule="evenodd" clip-rule="evenodd" d="M387.106 190.894C387.044 191.275 386.684 191.535 386.302 191.473L381.11 190.63C380.728 190.568 380.469 190.209 380.531 189.827C380.593 189.445 380.952 189.186 381.334 189.248L386.527 190.091C386.908 190.153 387.167 190.512 387.106 190.894ZM376.897 188.773C376.847 189.157 376.497 189.428 376.113 189.379L370.709 188.686C370.325 188.637 370.054 188.286 370.104 187.903C370.153 187.519 370.503 187.248 370.887 187.297L376.291 187.99C376.675 188.039 376.946 188.39 376.897 188.773Z" fill="black"/>
<path fill-rule="evenodd" clip-rule="evenodd" d="M400.958 151.548C400.86 151.922 400.478 152.146 400.104 152.049C399.017 151.765 398.116 151.48 397.28 151.21C397.175 151.176 397.072 151.142 396.969 151.109C396.249 150.876 395.574 150.656 394.841 150.454C394.468 150.351 394.25 149.965 394.353 149.593C394.456 149.22 394.841 149.001 395.214 149.104C395.978 149.316 396.685 149.545 397.403 149.778C397.505 149.811 397.608 149.844 397.711 149.878C398.54 150.146 399.41 150.421 400.457 150.694C400.831 150.791 401.056 151.174 400.958 151.548Z" fill="black"/>
<path fill-rule="evenodd" clip-rule="evenodd" d="M377.516 182.55C377.437 182.928 377.066 183.171 376.688 183.092C375.638 182.873 374.713 182.663 373.808 182.456C373.744 182.441 373.68 182.426 373.616 182.412C372.776 182.22 371.948 182.03 371.038 181.837C370.66 181.756 370.419 181.385 370.499 181.006C370.58 180.628 370.951 180.387 371.33 180.467C372.25 180.663 373.088 180.855 373.926 181.047C373.991 181.061 374.056 181.076 374.12 181.091C375.025 181.298 375.938 181.505 376.974 181.721C377.352 181.8 377.595 182.171 377.516 182.55ZM378.813 175.69C378.731 176.068 378.359 176.308 377.981 176.227L373.297 175.214C372.919 175.132 372.679 174.759 372.761 174.382C372.843 174.004 373.215 173.764 373.593 173.845L378.277 174.858C378.655 174.94 378.895 175.313 378.813 175.69Z" fill="black"/>
<path fill-rule="evenodd" clip-rule="evenodd" d="M376.025 166.99C375.945 167.368 375.574 167.611 375.196 167.531L368.618 166.152C368.24 166.073 367.997 165.702 368.077 165.324C368.156 164.945 368.527 164.703 368.905 164.782L375.483 166.161C375.862 166.24 376.104 166.611 376.025 166.99ZM376.644 163.039C376.562 163.416 376.188 163.655 375.811 163.572L370.406 162.386C370.029 162.304 369.79 161.93 369.873 161.553C369.955 161.175 370.329 160.936 370.706 161.019L376.111 162.205C376.488 162.288 376.727 162.661 376.644 163.039Z" fill="black"/>
<path fill-rule="evenodd" clip-rule="evenodd" d="M386.977 153.377C386.898 153.755 386.528 153.999 386.149 153.92L378.571 152.348C378.193 152.27 377.949 151.899 378.028 151.52C378.107 151.142 378.477 150.899 378.856 150.977L386.434 152.549C386.812 152.628 387.055 152.998 386.977 153.377ZM383.134 159.438C382.998 159.8 382.594 159.983 382.232 159.847L377.213 157.965C376.851 157.829 376.667 157.426 376.803 157.064C376.939 156.702 377.342 156.518 377.704 156.654L382.724 158.537C383.086 158.672 383.269 159.076 383.134 159.438Z" fill="black"/>
<path fill-rule="evenodd" clip-rule="evenodd" d="M391.306 147.76C391.199 148.13 390.813 148.344 390.442 148.238C389.282 147.907 388.393 147.642 387.666 147.421L383.043 146.06C382.677 145.953 382.465 145.572 382.565 145.205C382.665 144.837 383.041 144.617 383.41 144.709C384.724 145.038 385.539 145.293 386.666 145.645C387.096 145.779 387.572 145.928 388.138 146.1L390.832 146.893C391.202 147.002 391.414 147.389 391.306 147.76Z" fill="black"/>
<path d="M222.153 132.778V49.2936L273.047 26.9717L345.37 41.2577V121.617L298.494 147.51L280.637 144.385L279.993 118.966L241.239 137.026L222.153 132.778Z" fill="white"/>
<path fill-rule="evenodd" clip-rule="evenodd" d="M240.172 83.7383C240.559 83.7383 240.872 84.0517 240.872 84.4383C240.871 99.4543 240.872 108.19 240.873 117.322C240.873 123.425 240.873 129.705 240.873 138.156C240.873 138.542 240.56 138.856 240.173 138.856C239.787 138.856 239.473 138.542 239.473 138.156C239.473 129.706 239.473 123.425 239.473 117.322C239.472 108.19 239.471 99.4543 239.472 84.4382C239.472 84.0516 239.786 83.7383 240.172 83.7383Z" fill="black"/>
<path fill-rule="evenodd" clip-rule="evenodd" d="M280.228 94.2266C280.615 94.2266 280.928 94.54 280.928 94.9266C280.927 109.788 280.927 117.224 280.928 125.22C280.929 130.702 280.929 136.447 280.929 145.029C280.929 145.415 280.616 145.729 280.229 145.729C279.842 145.729 279.529 145.415 279.529 145.028C279.529 136.448 279.529 130.703 279.528 125.22C279.527 117.225 279.527 109.787 279.528 94.9265C279.528 94.5399 279.841 94.2265 280.228 94.2266Z" fill="black"/>
<path fill-rule="evenodd" clip-rule="evenodd" d="M222.425 47.374C222.811 47.3741 223.125 47.6875 223.125 48.0741C223.123 65.3494 223.124 88.8947 223.124 108.765C223.124 117.709 223.124 125.908 223.124 132.456C223.124 132.843 222.811 133.156 222.424 133.156C222.038 133.156 221.724 132.843 221.724 132.456C221.724 125.908 221.724 117.708 221.724 108.764C221.724 88.8937 221.723 65.3489 221.725 48.074C221.725 47.6874 222.038 47.374 222.425 47.374Z" fill="black"/>
<path fill-rule="evenodd" clip-rule="evenodd" d="M299.302 50.3584C299.688 50.3584 300.002 50.6718 300.002 51.0584C300 71.0326 300.001 98.2563 300.002 121.231C300.002 131.573 300.002 141.054 300.002 148.625C300.002 149.012 299.689 149.325 299.302 149.325C298.916 149.325 298.602 149.012 298.602 148.625C298.602 141.054 298.602 131.573 298.602 121.232C298.601 98.2565 298.6 71.0326 298.602 51.0583C298.602 50.6717 298.915 50.3584 299.302 50.3584Z" fill="black"/>
<path fill-rule="evenodd" clip-rule="evenodd" d="M345.076 35.0986C345.463 35.0987 345.776 35.4121 345.776 35.7987C345.775 55.6557 345.775 77.3453 345.776 96.8813C345.776 105.842 345.776 114.35 345.776 122.02C345.776 122.407 345.463 122.72 345.076 122.72C344.69 122.72 344.376 122.407 344.376 122.02C344.376 114.35 344.376 105.842 344.376 96.8814C344.375 77.3454 344.375 55.6556 344.376 35.7986C344.376 35.412 344.69 35.0986 345.076 35.0986Z" fill="black"/>
<path fill-rule="evenodd" clip-rule="evenodd" d="M276.381 25.2107C276.518 25.5721 276.336 25.9763 275.974 26.1135C262.44 31.2481 230.804 44.8176 217.866 50.3666C217.31 50.605 216.789 50.8287 216.305 51.0362C215.95 51.1885 215.538 51.024 215.386 50.6687C215.234 50.3134 215.398 49.9018 215.753 49.7495C216.24 49.5407 216.765 49.3156 217.325 49.0754C230.257 43.5286 261.913 29.9505 275.478 24.8045C275.839 24.6674 276.243 24.8492 276.381 25.2107Z" fill="black"/>
<path fill-rule="evenodd" clip-rule="evenodd" d="M353.341 36.4536C353.505 36.8033 353.355 37.2204 353.006 37.3851C330.02 48.2157 317.508 54.1009 291.967 66.0147C291.616 66.1782 291.2 66.0266 291.036 65.6763C290.873 65.3259 291.025 64.9094 291.375 64.746C316.914 52.8331 329.424 46.9488 352.409 36.1187C352.759 35.9539 353.176 36.1038 353.341 36.4536Z" fill="black"/>
<path fill-rule="evenodd" clip-rule="evenodd" d="M349.035 119.397C349.215 119.739 349.084 120.162 348.742 120.343C337.588 126.224 328.4 131.34 320.346 135.824C309.51 141.857 300.727 146.748 291.966 150.824C291.616 150.987 291.199 150.835 291.036 150.484C290.873 150.134 291.025 149.718 291.376 149.554C300.105 145.493 308.811 140.644 319.594 134.64C327.644 130.157 336.851 125.03 348.089 119.104C348.431 118.924 348.855 119.055 349.035 119.397Z" fill="black"/>
<path fill-rule="evenodd" clip-rule="evenodd" d="M266.136 24.7733C266.207 24.3933 266.572 24.1424 266.952 24.2131C277.024 26.0857 297.454 30.061 317.628 33.9863C329.351 36.2675 340.988 38.5318 350.455 40.3566C350.834 40.4298 351.083 40.7969 351.009 41.1765C350.936 41.5561 350.569 41.8045 350.19 41.7313C340.716 39.905 329.074 37.6398 317.348 35.3582C297.18 31.434 276.763 27.4612 266.696 25.5895C266.316 25.5188 266.065 25.1534 266.136 24.7733ZM214.212 46.5968C214.282 46.2166 214.648 45.9656 215.028 46.0361C218.601 46.6983 223.569 47.6445 229.462 48.7665C250.828 52.8354 284.342 59.2174 307.512 62.7638C307.894 62.8223 308.156 63.1795 308.098 63.5617C308.039 63.9438 307.682 64.2062 307.3 64.1477C284.101 60.5968 250.541 54.206 229.178 50.1377C223.294 49.0172 218.335 48.0729 214.773 47.4126C214.393 47.3421 214.142 46.9769 214.212 46.5968ZM237.572 90.5244C237.634 90.1428 237.993 89.8834 238.375 89.945C249.621 91.7626 257.784 93.2592 266.421 94.8427C272.609 95.9771 279.039 97.1561 287.02 98.5295C287.401 98.595 287.657 98.957 287.591 99.3381C287.526 99.719 287.164 99.9748 286.783 99.9092C278.765 98.5295 272.329 97.3493 266.143 96.2152C257.526 94.635 249.395 93.1441 238.151 91.3271C237.77 91.2654 237.51 90.906 237.572 90.5244Z" fill="black"/>
<path fill-rule="evenodd" clip-rule="evenodd" d="M221.748 132.272C221.849 131.899 222.234 131.678 222.607 131.779C228.187 133.294 233.694 134.617 239.261 135.778C239.64 135.857 239.882 136.228 239.803 136.607C239.724 136.985 239.354 137.228 238.975 137.149C233.38 135.981 227.847 134.652 222.24 133.131C221.867 133.029 221.647 132.645 221.748 132.272Z" fill="black"/>
<path fill-rule="evenodd" clip-rule="evenodd" d="M275.736 142.43C275.837 142.057 276.221 141.836 276.594 141.938C285.505 144.356 298.705 146.948 307.816 148.516C308.197 148.581 308.453 148.943 308.387 149.324C308.322 149.705 307.959 149.961 307.579 149.896C298.454 148.325 285.202 145.724 276.228 143.289C275.855 143.188 275.634 142.803 275.736 142.43Z" fill="black"/>
<path fill-rule="evenodd" clip-rule="evenodd" d="M317.473 53.0817C317.848 53.1781 318.073 53.5598 317.977 53.9342L300.512 121.703C300.416 122.078 300.034 122.303 299.66 122.206C299.285 122.11 299.06 121.728 299.157 121.354L316.621 53.5848C316.717 53.2105 317.099 52.9852 317.473 53.0817ZM311.514 55.7603C311.888 55.8568 312.114 56.2385 312.017 56.6128L300.512 101.257C300.416 101.631 300.034 101.856 299.66 101.76C299.285 101.663 299.06 101.282 299.157 100.907L310.662 56.2635C310.758 55.8891 311.14 55.6638 311.514 55.7603ZM306.258 58.2665C306.632 58.3629 306.857 58.7446 306.761 59.119L299.583 86.9707C299.487 87.345 299.105 87.5703 298.731 87.4739C298.357 87.3774 298.131 86.9957 298.228 86.6213L305.405 58.7696C305.502 58.3953 305.883 58.17 306.258 58.2665Z" fill="black"/>
<path fill-rule="evenodd" clip-rule="evenodd" d="M334.771 45.0455C335.146 45.142 335.371 45.5237 335.274 45.8981L310.654 141.436C310.558 141.81 310.176 142.036 309.802 141.939C309.427 141.843 309.202 141.461 309.298 141.087L333.919 45.5487C334.015 45.1743 334.397 44.9491 334.771 45.0455ZM328.927 47.2777C329.301 47.3742 329.527 47.7559 329.43 48.1303L304.465 145.008C304.368 145.382 303.986 145.607 303.612 145.511C303.238 145.414 303.012 145.033 303.109 144.658L328.074 47.7809C328.171 47.4065 328.553 47.1813 328.927 47.2777ZM323.626 49.9564C324.001 50.0528 324.226 50.4345 324.129 50.8089L300.066 144.184C299.97 144.559 299.588 144.784 299.214 144.688C298.839 144.591 298.614 144.209 298.711 143.835L322.774 50.4595C322.87 50.0852 323.252 49.8599 323.626 49.9564Z" fill="black"/>
<path fill-rule="evenodd" clip-rule="evenodd" d="M345.471 42.367C345.845 42.4634 346.071 42.8451 345.974 43.2195L322.504 134.293C322.408 134.667 322.026 134.893 321.652 134.796C321.277 134.7 321.052 134.318 321.149 133.944L344.618 42.8701C344.715 42.4958 345.097 42.2705 345.471 42.367ZM340.86 42.367C341.235 42.4634 341.46 42.8451 341.364 43.2195L317.204 136.972C317.107 137.346 316.725 137.571 316.351 137.475C315.977 137.378 315.751 136.997 315.848 136.622L340.008 42.8701C340.104 42.4958 340.486 42.2705 340.86 42.367ZM346.483 58.8852C346.858 58.9817 347.083 59.3633 346.986 59.7377L328.579 131.168C328.482 131.542 328.101 131.768 327.726 131.671C327.352 131.575 327.127 131.193 327.223 130.818L345.631 59.3883C345.727 59.014 346.109 58.7887 346.483 58.8852Z" fill="black"/>
<path fill-rule="evenodd" clip-rule="evenodd" d="M345.174 84.5321C345.548 84.6286 345.774 85.0103 345.677 85.3846L334.799 127.596C334.703 127.97 334.321 128.196 333.947 128.099C333.572 128.003 333.347 127.621 333.443 127.247L344.321 85.0353C344.418 84.6609 344.8 84.4356 345.174 84.5321ZM345.174 103.975C345.548 104.072 345.774 104.453 345.677 104.828L340.615 124.471C340.519 124.845 340.137 125.071 339.762 124.974C339.388 124.878 339.163 124.496 339.259 124.122L344.321 104.478C344.418 104.104 344.8 103.879 345.174 103.975Z" fill="black"/>
<path fill-rule="evenodd" clip-rule="evenodd" d="M257.161 93.495C257.325 93.8452 257.173 94.2618 256.823 94.4255L240.269 102.162C239.919 102.326 239.503 102.174 239.339 101.824C239.175 101.474 239.326 101.057 239.677 100.894L256.23 93.1572C256.581 92.9935 256.997 93.1447 257.161 93.495ZM248.616 91.8561C248.78 92.2063 248.629 92.6229 248.279 92.7866L240.269 96.5297C239.919 96.6934 239.503 96.5421 239.339 96.1919C239.175 95.8417 239.327 95.425 239.677 95.2614L247.686 91.5183C248.036 91.3546 248.453 91.5059 248.616 91.8561Z" fill="black"/>
<path fill-rule="evenodd" clip-rule="evenodd" d="M280.824 97.8571C280.987 98.2073 280.836 98.6239 280.486 98.7876L240.753 117.357C240.403 117.521 239.986 117.369 239.822 117.019C239.659 116.669 239.81 116.252 240.16 116.089L279.893 97.5193C280.243 97.3556 280.66 97.5068 280.824 97.8571ZM271.448 96.6064C271.612 96.9567 271.461 97.3733 271.111 97.537L240.753 111.725C240.403 111.888 239.986 111.737 239.822 111.387C239.659 111.037 239.81 110.62 240.16 110.456L270.518 96.2686C270.868 96.105 271.285 96.2562 271.448 96.6064ZM264.382 94.981C264.545 95.3312 264.394 95.7478 264.044 95.9115L240.753 106.797C240.402 106.96 239.986 106.809 239.822 106.459C239.659 106.109 239.81 105.692 240.16 105.528L263.451 94.6432C263.801 94.4795 264.218 94.6307 264.382 94.981Z" fill="black"/>
<path fill-rule="evenodd" clip-rule="evenodd" d="M281.209 102.694C281.373 103.044 281.222 103.461 280.872 103.624L240.752 122.374C240.402 122.538 239.985 122.387 239.822 122.036C239.658 121.686 239.809 121.27 240.159 121.106L280.279 102.356C280.629 102.192 281.046 102.343 281.209 102.694ZM281.209 107.622C281.373 107.972 281.222 108.389 280.872 108.552L240.752 127.302C240.402 127.466 239.985 127.315 239.822 126.965C239.658 126.614 239.809 126.198 240.159 126.034L280.279 107.284C280.629 107.12 281.046 107.272 281.209 107.622ZM280.377 113.643C280.54 113.993 280.389 114.41 280.039 114.574L240.752 132.935C240.402 133.098 239.985 132.947 239.822 132.597C239.658 132.246 239.809 131.83 240.159 131.666L279.446 113.305C279.796 113.142 280.213 113.293 280.377 113.643ZM280.377 118.67C280.54 119.021 280.389 119.437 280.039 119.601L240.752 137.962C240.402 138.125 239.985 137.974 239.822 137.624C239.658 137.274 239.809 136.857 240.159 136.693L279.446 118.333C279.796 118.169 280.213 118.32 280.377 118.67Z" fill="black"/>
<defs>
<radialGradient id="paint0_radial_466_86819" cx="0" cy="0" r="1" gradientUnits="userSpaceOnUse" gradientTransform="translate(295.252 127.045) rotate(90.9937) scale(42.0702 90.2602)">
<stop/>
<stop offset="1" stop-color="#3E7BFA" stop-opacity="0"/>
</radialGradient>
<radialGradient id="paint1_radial_466_86819" cx="0" cy="0" r="1" gradientUnits="userSpaceOnUse" gradientTransform="translate(177.652 211.045) rotate(90.9937) scale(42.0702 90.2602)">
<stop/>
<stop offset="1" stop-color="#3E7BFA" stop-opacity="0"/>
</radialGradient>
<radialGradient id="paint2_radial_466_86819" cx="0" cy="0" r="1" gradientUnits="userSpaceOnUse" gradientTransform="translate(390.452 202.644) rotate(90.9937) scale(42.0702 90.2602)">
<stop/>
<stop offset="1" stop-color="#3E7BFA" stop-opacity="0"/>
</radialGradient>
</defs>
</svg>
