<svg width="95" height="22" viewBox="0 0 95 22" fill="none" xmlns="http://www.w3.org/2000/svg">
<rect width="95" height="22" rx="4" fill="#F6F1FF"/>
<path opacity="0.3" d="M23.5057 14V8.18182H25.8011C26.2424 8.18182 26.6184 8.2661 26.929 8.43466C27.2396 8.60133 27.4763 8.83333 27.6392 9.13068C27.804 9.42614 27.8864 9.76705 27.8864 10.1534C27.8864 10.5398 27.803 10.8807 27.6364 11.1761C27.4697 11.4716 27.2282 11.7017 26.9119 11.8665C26.5975 12.0312 26.2169 12.1136 25.7699 12.1136H24.3068V11.1278H25.571C25.8078 11.1278 26.0028 11.0871 26.1562 11.0057C26.3116 10.9223 26.4271 10.8078 26.5028 10.6619C26.5805 10.5142 26.6193 10.3447 26.6193 10.1534C26.6193 9.96023 26.5805 9.79167 26.5028 9.64773C26.4271 9.50189 26.3116 9.3892 26.1562 9.30966C26.0009 9.22822 25.804 9.1875 25.5653 9.1875H24.7358V14H23.5057ZM34.232 11.0909C34.232 11.7254 34.1117 12.2652 33.8712 12.7102C33.6325 13.1553 33.3068 13.4953 32.8939 13.7301C32.4829 13.9631 32.0208 14.0795 31.5075 14.0795C30.9905 14.0795 30.5265 13.9621 30.1155 13.7273C29.7045 13.4924 29.3797 13.1525 29.1411 12.7074C28.9024 12.2623 28.7831 11.7235 28.7831 11.0909C28.7831 10.4564 28.9024 9.91667 29.1411 9.47159C29.3797 9.02652 29.7045 8.6875 30.1155 8.45455C30.5265 8.2197 30.9905 8.10227 31.5075 8.10227C32.0208 8.10227 32.4829 8.2197 32.8939 8.45455C33.3068 8.6875 33.6325 9.02652 33.8712 9.47159C34.1117 9.91667 34.232 10.4564 34.232 11.0909ZM32.9848 11.0909C32.9848 10.6799 32.9232 10.3333 32.8001 10.0511C32.6789 9.76894 32.5075 9.55492 32.2859 9.40909C32.0643 9.26326 31.8049 9.19034 31.5075 9.19034C31.2102 9.19034 30.9507 9.26326 30.7291 9.40909C30.5075 9.55492 30.3352 9.76894 30.2121 10.0511C30.0909 10.3333 30.0303 10.6799 30.0303 11.0909C30.0303 11.5019 30.0909 11.8485 30.2121 12.1307C30.3352 12.4129 30.5075 12.6269 30.7291 12.7727C30.9507 12.9186 31.2102 12.9915 31.5075 12.9915C31.8049 12.9915 32.0643 12.9186 32.2859 12.7727C32.5075 12.6269 32.6789 12.4129 32.8001 12.1307C32.9232 11.8485 32.9848 11.5019 32.9848 11.0909ZM36.4341 14L34.7693 8.18182H36.1131L37.0761 12.2244H37.1244L38.1869 8.18182H39.3375L40.3972 12.233H40.4483L41.4114 8.18182H42.7551L41.0903 14H39.8915L38.7835 10.196H38.7381L37.633 14H36.4341ZM43.6135 14V8.18182H47.5339V9.19602H44.8436V10.5824H47.3322V11.5966H44.8436V12.9858H47.5453V14H43.6135ZM48.7119 14V8.18182H51.0074C51.4468 8.18182 51.8218 8.26042 52.1324 8.41761C52.4449 8.57292 52.6826 8.79356 52.8455 9.07955C53.0102 9.36364 53.0926 9.69792 53.0926 10.0824C53.0926 10.4687 53.0093 10.8011 52.8426 11.0795C52.6759 11.3561 52.4345 11.5682 52.1182 11.7159C51.8038 11.8636 51.4231 11.9375 50.9761 11.9375H49.4392V10.9489H50.7773C51.0121 10.9489 51.2072 10.9167 51.3625 10.8523C51.5178 10.7879 51.6333 10.6913 51.7091 10.5625C51.7867 10.4337 51.8256 10.2737 51.8256 10.0824C51.8256 9.8892 51.7867 9.72633 51.7091 9.59375C51.6333 9.46117 51.5169 9.3608 51.3597 9.29261C51.2044 9.22254 51.0083 9.1875 50.7716 9.1875H49.942V14H48.7119ZM51.854 11.3523L53.3 14H51.942L50.5273 11.3523H51.854ZM54.1619 14V8.18182H58.0824V9.19602H55.392V10.5824H57.8807V11.5966H55.392V12.9858H58.0938V14H54.1619ZM61.3229 14H59.2604V8.18182H61.3399C61.9251 8.18182 62.4289 8.2983 62.8513 8.53125C63.2736 8.76231 63.5984 9.0947 63.8257 9.52841C64.0549 9.96212 64.1695 10.4811 64.1695 11.0852C64.1695 11.6913 64.0549 12.2121 63.8257 12.6477C63.5984 13.0833 63.2717 13.4176 62.8456 13.6506C62.4214 13.8835 61.9138 14 61.3229 14ZM60.4905 12.946H61.2717C61.6354 12.946 61.9412 12.8816 62.1893 12.7528C62.4393 12.6222 62.6268 12.4205 62.7518 12.1477C62.8787 11.8731 62.9422 11.5189 62.9422 11.0852C62.9422 10.6553 62.8787 10.304 62.7518 10.0312C62.6268 9.75852 62.4403 9.55777 62.1922 9.42898C61.9441 9.30019 61.6382 9.2358 61.2746 9.2358H60.4905V12.946ZM67.3322 14V8.18182H69.6618C70.0898 8.18182 70.4468 8.24527 70.7328 8.37216C71.0188 8.49905 71.2338 8.67519 71.3777 8.90057C71.5216 9.12405 71.5936 9.38163 71.5936 9.6733C71.5936 9.90057 71.5482 10.1004 71.4572 10.2727C71.3663 10.4432 71.2413 10.5833 71.0822 10.6932C70.925 10.8011 70.7451 10.8778 70.5425 10.9233V10.9801C70.7641 10.9896 70.9714 11.0521 71.1646 11.1676C71.3597 11.2831 71.5178 11.4451 71.6391 11.6534C71.7603 11.8598 71.8209 12.1061 71.8209 12.392C71.8209 12.7008 71.7442 12.9763 71.5908 13.2188C71.4393 13.4593 71.2148 13.6496 70.9175 13.7898C70.6201 13.9299 70.2536 14 69.818 14H67.3322ZM68.5624 12.9943H69.5652C69.908 12.9943 70.158 12.929 70.3152 12.7983C70.4724 12.6657 70.551 12.4896 70.551 12.2699C70.551 12.1089 70.5122 11.9669 70.4345 11.8438C70.3569 11.7206 70.2461 11.6241 70.1021 11.554C69.9601 11.4839 69.7906 11.4489 69.5936 11.4489H68.5624V12.9943ZM68.5624 10.6165H69.4743C69.6428 10.6165 69.7925 10.5871 69.9232 10.5284C70.0557 10.4678 70.1599 10.3826 70.2357 10.2727C70.3133 10.1629 70.3521 10.0312 70.3521 9.87784C70.3521 9.66761 70.2773 9.49811 70.1277 9.36932C69.98 9.24053 69.7697 9.17614 69.497 9.17614H68.5624V10.6165ZM72.4804 8.18182H73.8582L75.1849 10.6875H75.2418L76.5685 8.18182H77.9463L75.8241 11.9432V14H74.6026V11.9432L72.4804 8.18182ZM81.8726 14H80.5544L82.5629 8.18182H84.1482L86.1538 14H84.8357L83.3783 9.51136H83.3328L81.8726 14ZM81.7902 11.7131H84.9038V12.6733H81.7902V11.7131ZM88.2842 8.18182V14H87.0541V8.18182H88.2842Z" fill="#6938C0"/>
<g opacity="0.2">
<path fill-rule="evenodd" clip-rule="evenodd" d="M13.7098 6.57023C13.8692 6.45274 14.0422 6.3526 14.2261 6.27262L13.0028 5.04999L11.6454 6.40671C10.8957 7.156 10.8957 8.37085 11.6454 9.12014L11.844 9.3186C12.0744 9.15701 12.3399 9.04196 12.6267 8.98708V8.71142C12.6267 7.8587 13.0284 7.09975 13.653 6.61328C13.6717 6.59868 13.6906 6.58433 13.7098 6.57023ZM11.122 9.64325L11.3249 9.84605C11.168 10.0778 11.0575 10.3436 11.0071 10.6301H10.7071L10.7019 10.6301C9.64682 10.6241 8.7934 9.76735 8.7934 8.71142V6.79273H10.5259C10.1523 7.74656 10.351 8.87261 11.122 9.64325ZM10.7131 11.3699H11.0125C11.1686 12.1849 11.8113 12.8273 12.6267 12.9832V13.2886C12.6267 14.3787 13.2829 15.3151 14.222 15.7254L12.9968 16.95L11.6394 15.5933C11.0221 14.9763 10.9127 14.0427 11.313 13.3138C11.4114 13.1348 11.3459 12.9099 11.1667 12.8116C10.9875 12.7133 10.7626 12.7788 10.6642 12.9578C10.2831 13.6516 10.2348 14.4795 10.5199 15.2072H8.78739L8.78739 13.2885C8.78739 12.231 9.64349 11.3732 10.7008 11.3699L10.7131 11.3699ZM13.3669 13.2886V12.9887C14.1964 12.8428 14.8528 12.1948 15.0107 11.3699H15.2865C16.3467 11.3699 17.2062 12.2289 17.2062 13.2886V15.2073L15.2865 15.2073C15.174 15.2073 15.064 15.1976 14.9572 15.1792C14.054 15.0233 13.3669 14.2358 13.3669 13.2886ZM15.2865 10.6301H15.0162C14.9647 10.3378 14.8508 10.0671 14.6887 9.83203L14.8776 9.64329C15.6273 8.89399 16.8427 8.89399 17.5924 9.64329L18.9498 11L17.7247 12.2245C17.3141 11.2859 16.377 10.6301 15.2865 10.6301ZM14.3542 9.12018L14.1654 9.30892C13.9302 9.14693 13.6593 9.03309 13.3669 8.98164V8.71142C13.3669 7.65176 14.2263 6.79274 15.2865 6.79274L15.859 6.7927H17.2062V8.52437C16.2519 8.15093 15.1252 8.34953 14.3542 9.12018ZM8.27487 9.77553C8.49878 10.2873 8.87927 10.715 9.3558 10.9982C8.87776 11.2806 8.49579 11.7082 8.2707 12.2202L7.0498 11L8.27487 9.77553ZM14.3069 10.9852C14.3069 10.2702 13.727 9.69055 13.0116 9.69055C12.2963 9.69055 11.7163 10.2702 11.7163 10.9852C11.7163 11.7002 12.2963 12.2798 13.0116 12.2798C13.727 12.2798 14.3069 11.7002 14.3069 10.9852Z" fill="#6938C0"/>
</g>
</svg>
