<svg enable-background="new 0 0 14 10" viewBox="0 0 14 10" xmlns="http://www.w3.org/2000/svg"><path d="m4 3.9v.4c0 .1.1.2.1.3v.1c0 .1 0 .1-.1.1l-.1.2h-.1s-.1 0-.1-.1c-.1.1-.2 0-.2-.1s-.1-.2-.1-.3c-.4.5-.9.7-1.4.7-.4 0-.7-.1-.9-.3s-.4-.6-.4-.9c0-.4.1-.7.4-.9s.6-.4 1.1-.4h.5c.2 0 .3.1.5.1v-.3c0-.3-.1-.6-.2-.7-.1-.2-.3-.2-.7-.2-.2 0-.3 0-.5.1-.2 0-.3.1-.5.2 0 0-.1 0-.2.1 0 0 0 0-.1 0 0-.2 0-.2 0-.3v-.2c0-.1 0-.1 0-.2l.1-.1c.3-.1.4-.1.6-.2.3 0 .5-.1.8-.1.5 0 .9.1 1.2.4s.3.6.3 1.1zm-1.8.7c.2 0 .3 0 .5-.1.1-.1.3-.2.4-.3s.1-.2.1-.3 0-.3 0-.4v-.2c-.1 0-.2 0-.3-.1-.1 0-.3 0-.4 0-.3 0-.5.1-.7.2s-.3.3-.3.5.1.4.2.5.3.2.5.2zm3.6.5c-.1 0-.1 0-.2 0 0 0-.1-.1-.1-.2l-1-3.6c0-.1 0-.1 0-.2s0-.1.1-.1h.4.2s.1.1.1.2l.8 3 .7-3c0-.1 0-.1.1-.2h.2.4.2s.1.1.1.2l.7 3 .8-3c0-.1 0-.1.1-.2h.2.4c.1 0 .1 0 .1.1v.1.1l-1.3 3.5c0 .1 0 .2-.1.2 0 0-.1 0-.2 0h-.3c-.1.1-.2.1-.2 0 0 0-.1-.1-.1-.2l-.7-2.9-.7 2.9c0 .1 0 .1-.1.2-.1 0-.1 0-.2 0zm5.9.1c-.2 0-.5 0-.7-.1s-.4-.1-.5-.2c-.1 0-.1-.1-.1-.1v-.1-.3c0-.1 0-.1.1-.1h.1.1c.2.1.3.1.5.2.2 0 .4.1.5.1.3 0 .5 0 .7-.1.1-.1.2-.3.2-.4s0-.2-.1-.3-.2-.2-.5-.2l-.7-.2c-.3-.1-.6-.3-.7-.5s-.2-.4-.2-.7c0-.2 0-.3.1-.5.1-.1.2-.3.3-.4s.3-.2.5-.2c.2-.1.4-.1.6-.1h.3.3c.1 0 .2 0 .3.1.1 0 .1 0 .2.1.1 0 .1.1.1.1v.1.2c0 .1 0 .1-.1.1s-.1 0-.2-.1c-.3-.1-.6-.2-.9-.2s-.5 0-.6.1-.2.2-.2.4c0 .1 0 .2.1.3s.3.2.5.2l.6.2c.3.1.6.2.7.4s.2.4.2.6 0 .4-.1.5c-.1.2-.2.3-.3.4-.1.5-.3.5-.5.6s-.4.1-.6.1z" fill="#252f3e"/><g fill="#f90" transform="translate(0 6)"><path d="m12.5 1.4c-1.5 1.1-3.6 1.7-5.5 1.7-2.6 0-5-1-6.7-2.6-.1-.1 0-.3.2-.2 1.9 1.1 4.3 1.8 6.7 1.8 1.8 0 3.5-.4 5.1-1.1.2-.1.5.2.2.4z"/><path d="m13.1.7c-.2-.2-1.3-.1-1.7-.1-.1 0-.2-.1 0-.2.9-.6 2.3-.4 2.4-.2.2.2 0 1.6-.8 2.3-.1.1-.2 0-.2-.1.1-.5.5-1.5.3-1.7z"/></g></svg>