<svg width="24" height="25" fill="none" xmlns="http://www.w3.org/2000/svg"><path d="M3.578 4.25c-.36 0-.63.33-.57.66l2.428 14.866c.06.39.39.659.78.659h11.748c.27 0 .51-.21.57-.48L20.992 4.94a.562.562 0 0 0-.57-.659L3.578 4.25Zm10.31 10.73h-3.746l-.99-5.305h5.666l-.93 5.305Z" fill="#2684FF"/><path d="M20.182 9.675h-5.394l-.9 5.305h-3.746l-4.407 5.244s.21.18.51.18h11.749c.27 0 .51-.21.57-.479l1.618-10.25Z" fill="url(#a)"/><defs><linearGradient id="a" x1="21.445" y1="11.169" x2="12.504" y2="18.149" gradientUnits="userSpaceOnUse"><stop offset=".176" stop-color="#0052CC"/><stop offset="1" stop-color="#2684FF"/></linearGradient></defs></svg>