<svg width="24" height="24" fill="none" xmlns="http://www.w3.org/2000/svg"><path d="m8.916 9.61.476-8.582 4.99 2.766-5.466 5.815Z" fill="url(#a)"/><path d="m8.917 9.61.475-8.582-6.336 3.993-2.028 12.14L8.917 9.61Z" fill="url(#b)"/><path d="m22.535 7.605-2.823-5.74-5.33 1.929-5.465 5.815-7.889 7.552 7.116 5.18 8.944-8.067 5.447-6.67Z" fill="url(#c)"/><path d="M18.857 13.61v5.247H10.24l3.787 2.93 5.486 1.185 3.459-7.83-4.115-1.533Z" fill="url(#d)"/><path d="M5.143 5.143h13.714v13.714H5.143V5.143Z" fill="#000"/><path d="M6.853 16.265h5.143v.857H6.853v-.857Zm5.159-9.421h1.142v4.203h2.252V12h-3.394V6.844ZM6.487 9.456v-.014A2.636 2.636 0 0 1 9.191 6.76a2.677 2.677 0 0 1 2.043.8l-.72.839a1.916 1.916 0 0 0-1.328-.585c-.873 0-1.502.724-1.502 1.613v.016c0 .89.615 1.63 1.502 1.63.595 0 .956-.228 1.372-.608l.712.736a2.65 2.65 0 0 1-2.127.914 2.615 2.615 0 0 1-2.656-2.658Z" fill="#fff"/><defs><linearGradient id="a" x1="8.907" y1="5.335" x2="15.193" y2="5.346" gradientUnits="userSpaceOnUse"><stop stop-color="#FF318C"/><stop offset=".15" stop-color="#FB348C"/><stop offset=".28" stop-color="#F03C8C"/><stop offset=".42" stop-color="#DE4A8C"/><stop offset=".54" stop-color="#C45D8B"/><stop offset=".67" stop-color="#A2778B"/><stop offset=".79" stop-color="#79958A"/><stop offset=".91" stop-color="#49B98A"/><stop offset="1" stop-color="#21D789"/></linearGradient><linearGradient id="b" x1="6.391" y1="3.824" x2="3.124" y2="25.473" gradientUnits="userSpaceOnUse"><stop offset=".09" stop-color="#21D789"/><stop offset=".9" stop-color="#009AE5"/></linearGradient><linearGradient id="c" x1="21.035" y1="3.101" x2="-1.083" y2="26.375" gradientUnits="userSpaceOnUse"><stop offset=".09" stop-color="#21D789"/><stop offset=".9" stop-color="#009AE5"/></linearGradient><linearGradient id="d" x1="14.332" y1="17.631" x2="21.879" y2="18.719" gradientUnits="userSpaceOnUse"><stop offset=".09" stop-color="#21D789"/><stop offset=".9" stop-color="#009AE5"/></linearGradient></defs></svg>