<svg xmlns="http://www.w3.org/2000/svg" viewBox="0 0 20 20"><path fill="#fff" fill-opacity=".01" d="M0 0h20v20H0z"/><path fill="#6B6D85" fill-rule="evenodd" d="M10.282 1.063a.667.667 0 0 0-.564 0l-8 3.733a.667.667 0 0 0-.385.604v9.2c0 .26.15.495.385.604l8 3.733a.667.667 0 0 0 .564 0l8-3.733a.667.667 0 0 0 .385-.604V5.4a.667.667 0 0 0-.385-.604l-8-3.733ZM10 4.209l-2.026-.861L10 2.402l2.026.946L10 4.209Zm.26 1.338 3.39-1.44 2.713 1.265L10 8.076 3.637 5.372 6.35 4.106l3.39 1.44c.167.072.355.072.522 0Zm.407 3.694 6.666-2.833v4.165l-2.557 1.176c-.473.218-.776.69-.776 1.211v2.77l-3.333 1.556V9.242Zm4.666 5.868 2-.934V12.04l-2 .92v2.149Zm-6-5.868v8.046l-3.33-1.555v-2.771c0-.521-.303-.994-.776-1.212l-2.56-1.178V6.408L9.333 9.24Zm-6.666 4.934 2.003.935v-2.15l-2.003-.92v2.136Z" clip-rule="evenodd"/></svg>