<svg fill="none" xmlns="http://www.w3.org/2000/svg" viewBox="0 0 16 16"><path fill-rule="evenodd" clip-rule="evenodd" d="M3.429 6.32a.8.8 0 0 1 .793-.907h7.099a.8.8 0 0 1 .796.88l-.693 6.805a.8.8 0 0 1-.795.72H5.145a.8.8 0 0 1-.793-.693L3.43 6.32Zm7.892-.107h-7.1l.924 6.805h5.484l.692-6.805ZM6.61 1.729a.4.4 0 0 1 .48-.3l2.816.642a.4.4 0 0 1 .301.48l-.206.902 2.573.588a.4.4 0 1 1-.178.78L3.69 2.832a.4.4 0 0 1 .178-.78l2.537.58.206-.903Zm.574 1.08 2.037.466.117-.513-2.036-.465-.118.513Z" fill="#E43326"/><path opacity=".5" fill-rule="evenodd" clip-rule="evenodd" d="M8 7.872c.184 0 .334.15.334.333v3.334a.333.333 0 1 1-.667 0V8.205c0-.184.15-.333.333-.333ZM6.16 7.88a.333.333 0 0 1 .36.303l.29 3.32a.333.333 0 1 1-.663.059l-.29-3.321a.333.333 0 0 1 .302-.361ZM9.841 7.88a.333.333 0 0 1 .303.36l-.29 3.322a.333.333 0 1 1-.664-.059l.29-3.32a.333.333 0 0 1 .361-.303Z" fill="#E43326"/></svg>