<svg fill="none" viewBox="0 0 41 41" xmlns="http://www.w3.org/2000/svg" xmlns:xlink="http://www.w3.org/1999/xlink"><clipPath id="a"><path d="m.661621.967606h40v40h-40z"/></clipPath><g clip-path="url(#a)"><path d="m39.836 17.5498c-.9007-.625-2.9649-.8594-4.5787-.5469-.1877-1.5624-1.0508-2.9296-2.552-4.1404l-.8633-.625-.6005.8984c-.7505 1.1718-1.1259 2.8124-1.0132 4.3749.0375.5468.2252 1.5233.788 2.3826-.5253.3125-1.6137.7031-3.0398.7031h-27.134445l-.075061.3125c-.262712 1.5625-.262712 6.4451 2.814756 10.195 2.32689 2.8515 5.77967 4.2966 10.32085 4.2966 9.8329 0 17.1137-4.7263 20.529-13.2807 1.351.039 4.2409 0 5.7045-2.9296.0377-.078.1127-.2344.3754-.8202l.1501-.3125zm-17.3015-11.0152h-4.1284v3.9061h4.1284zm0 4.6873h-4.1284v3.9061h4.1284zm-4.8789 0h-4.1283v3.9061h4.1283zm-4.8789 0h-4.12836v3.9061h4.12836zm-4.87896 4.6873h-4.12834v3.9061h4.12834zm4.87896 0h-4.12836v3.9061h4.12836zm4.8789 0h-4.1283v3.9061h4.1283zm4.8789 0h-4.1284v3.9061h4.1284zm4.879 0h-4.1284v3.9061h4.1284z" fill="#2396ed"/></g></svg>