<svg xmlns="http://www.w3.org/2000/svg" fill="none" viewBox="0 0 40 40"><path fill="#6B6D85" fill-rule="evenodd" d="M20 4.8C11.605 4.8 4.8 11.606 4.8 20c0 8.395 6.805 15.2 15.2 15.2S35.2 28.395 35.2 20c0-8.394-6.805-15.2-15.2-15.2ZM2.4 20c0-9.72 7.88-17.6 17.6-17.6 9.72 0 17.6 7.88 17.6 17.6 0 9.72-7.88 17.6-17.6 17.6-9.72 0-17.6-7.88-17.6-17.6Z" clip-rule="evenodd"/><path fill="#6B6D85" fill-rule="evenodd" d="M36 21.067H4v-2.133h32v2.133Z" clip-rule="evenodd"/><path fill="#6B6D85" fill-rule="evenodd" d="M18.933 36V4h2.133v32h-2.133Zm8.734-16c0-5.794-2.084-11.526-6.169-15.316l1.27-1.369c4.537 4.21 6.765 10.479 6.765 16.685 0 6.206-2.228 12.474-6.765 16.684l-1.27-1.369c4.085-3.79 6.169-9.521 6.169-15.315Zm-17.001 0c0-6.197 2.155-12.462 6.554-16.674l1.291 1.348C14.555 8.462 12.532 14.197 12.532 20c0 5.803 2.023 11.538 5.98 15.325l-1.292 1.349c-4.4-4.212-6.554-10.477-6.554-16.674Z" clip-rule="evenodd"/><path fill="#6B6D85" fill-rule="evenodd" d="M20 10.555c5.785 0 11.668 1.07 15.655 3.297a.933.933 0 1 1-.91 1.63c-3.6-2.011-9.124-3.06-14.745-3.06-5.621 0-11.145 1.049-14.745 3.06a.933.933 0 0 1-.91-1.63c3.988-2.228 9.87-3.297 15.655-3.297Zm0 18.378c5.785 0 11.668-1.07 15.655-3.297a.933.933 0 1 0-.91-1.63c-3.6 2.011-9.124 3.06-14.745 3.06-5.621 0-11.145-1.049-14.745-3.06a.933.933 0 1 0-.91 1.63c3.988 2.227 9.87 3.297 15.655 3.297Z" clip-rule="evenodd"/></svg>