<svg width="205" height="201" fill="none" xmlns="http://www.w3.org/2000/svg"><path d="M200.176 91.136 111.106 3.78c-5.125-5.032-13.445-5.032-18.578 0L74.033 21.92l23.462 23.013c5.453-1.806 11.704-.595 16.051 3.669a15.11 15.11 0 0 1 3.707 15.84l22.611 22.178c5.471-1.848 11.783-.652 16.152 3.64a15.122 15.122 0 0 1 0 21.683c-6.108 5.991-16.002 5.991-22.112 0a15.13 15.13 0 0 1-3.403-16.677l-21.087-20.683-.002 54.429a15.808 15.808 0 0 1 4.134 2.9 15.128 15.128 0 0 1 0 21.687c-6.108 5.989-16.006 5.989-22.106 0a15.127 15.127 0 0 1 0-21.687 15.699 15.699 0 0 1 5.117-3.346V73.63a15.467 15.467 0 0 1-5.117-3.346 15.114 15.114 0 0 1-3.368-16.762L64.945 30.834 3.873 90.733a12.715 12.715 0 0 0 0 18.228l89.07 87.359c5.127 5.032 13.445 5.032 18.58 0l88.653-86.953a12.722 12.722 0 0 0 0-18.23Z" fill="#DE4C36"/></svg>