<svg width="24" height="25" fill="none" xmlns="http://www.w3.org/2000/svg"><path fill-rule="evenodd" clip-rule="evenodd" d="M23.953 14.223 22.61 9.736 19.949.844a.447.447 0 0 0-.87 0l-2.661 8.892H7.58L4.92.844a.447.447 0 0 0-.87 0L1.388 9.736.046 14.222c-.06.2-.06.415 0 .614.06.2.176.374.332.497L12 24.5l11.621-9.167a.993.993 0 0 0 .333-.497c.06-.2.06-.414 0-.614Z" fill="#FC6D26"/><path fill-rule="evenodd" clip-rule="evenodd" d="m11.999 24.5 4.418-14.764H7.58L11.998 24.5Z" fill="#E24329"/><path fill-rule="evenodd" clip-rule="evenodd" d="M11.998 24.5 7.58 9.736H1.388L11.998 24.5Z" fill="#FC6D26"/><path fill-rule="evenodd" clip-rule="evenodd" d="M1.388 9.735.045 14.222c-.06.2-.06.414 0 .614.06.199.176.373.332.496l11.621 9.167L1.388 9.735Z" fill="#FCA326"/><path fill-rule="evenodd" clip-rule="evenodd" d="M1.388 9.735H7.58L4.92.843a.447.447 0 0 0-.87 0L1.388 9.735Z" fill="#E24329"/><path fill-rule="evenodd" clip-rule="evenodd" d="m11.998 24.5 4.418-14.764h6.193L11.998 24.5Z" fill="#FC6D26"/><path fill-rule="evenodd" clip-rule="evenodd" d="m22.609 9.736 1.343 4.487c.06.2.06.414 0 .613a.993.993 0 0 1-.333.497L11.998 24.5l10.61-14.764Z" fill="#FCA326"/><path fill-rule="evenodd" clip-rule="evenodd" d="M22.61 9.735h-6.193L19.078.843a.447.447 0 0 1 .87 0l2.661 8.892Z" fill="#E24329"/></svg>