<svg fill="none" xmlns="http://www.w3.org/2000/svg" viewBox="0 0 70 70"><path fill-rule="evenodd" clip-rule="evenodd" d="M54.704 60H13.508C6.048 60 0 53.844 0 46.25c0-6.662 4.654-12.217 10.834-13.48a.275.275 0 0 0 .218-.27c0-12.427 9.896-22.5 22.104-22.5 10.62 0 19.49 7.622 21.619 17.785.117.559.589.971 1.148 1.018C63.805 29.463 70 36.183 70 44.375c0 8.419-6.541 15.283-14.733 15.612a.006.006 0 0 0-.006.007.006.006 0 0 1-.006.006h-.551Zm-27.886-7.613a2.817 2.817 0 0 1 2.817-2.818h12.963a2.817 2.817 0 1 1 0 5.636H29.635a2.818 2.818 0 0 1-2.817-2.818Zm4.734-29.431a2.818 2.818 0 0 0-3.834 4.129l7.859 7.297-7.859 7.298a2.817 2.817 0 1 0 3.834 4.13l10.083-9.363a2.817 2.817 0 0 0 0-4.13l-10.083-9.361Z" fill="#004BA4" opacity=".8"/></svg>