<svg width="20" height="21" fill="none" xmlns="http://www.w3.org/2000/svg"><path d="M10 2.375a8.125 8.125 0 1 0 8.125 8.125A8.134 8.134 0 0 0 10 2.375Zm6.875 8.125c0 .634-.087 1.265-.26 1.875h-3.009a12.304 12.304 0 0 0 0-3.75h3.009c.173.61.26 1.241.26 1.875Zm-8.906 3.125h4.062A8.994 8.994 0 0 1 10 17.141a9.005 9.005 0 0 1-2.031-3.516Zm-.305-1.25a11.003 11.003 0 0 1 0-3.75h4.678c.215 1.24.215 2.51 0 3.75H7.664ZM3.125 10.5c0-.634.087-1.265.26-1.875h3.009a12.3 12.3 0 0 0 0 3.75H3.385a6.845 6.845 0 0 1-.26-1.875Zm8.906-3.125H7.97A8.993 8.993 0 0 1 10 3.859a9.006 9.006 0 0 1 2.031 3.516Zm4.088 0h-2.782a10.568 10.568 0 0 0-1.742-3.563 6.898 6.898 0 0 1 4.528 3.563h-.004ZM8.405 3.812a10.569 10.569 0 0 0-1.742 3.563H3.877a6.898 6.898 0 0 1 4.528-3.563Zm-4.528 9.813h2.786c.351 1.287.942 2.496 1.742 3.563a6.898 6.898 0 0 1-4.528-3.563Zm7.718 3.563a10.568 10.568 0 0 0 1.742-3.563h2.786a6.899 6.899 0 0 1-4.529 3.563Z" fill="#6B6D85"/></svg>