<svg width="24" height="24" fill="none" xmlns="http://www.w3.org/2000/svg"><path d="m20.357 9.516 2.615 5.798-4.476 7.658-2.756-6.693 4.617-6.763Z" fill="url(#a)"/><path d="m15.74 16.279 2.756 6.693-6.935-2.385 4.179-4.308Z" fill="#B74AF7"/><path d="m16.487 7.225-1.422-6.197H7.181l-6.153 9.413 1.78 4.325-1.78 3.947 12.744-10.84 2.715-.648Z" fill="url(#b)"/><path d="m22.972 5.686-9.2 2.186L1.028 18.713l8.22 4.259 6.492-6.693 7.232-10.593Z" fill="url(#c)"/><path d="M5.143 5.143h13.714v13.714H5.143V5.143Z" fill="#000"/><path d="M6.43 16.285h5.142v.858H6.43v-.858Zm-.387-6.5V9.77a2.906 2.906 0 0 1 2.965-2.912 3.112 3.112 0 0 1 2.224.775l-.784.946A2.087 2.087 0 0 0 8.97 8c-.914 0-1.625.8-1.625 1.76v.016c0 1.035.711 1.794 1.715 1.794a1.98 1.98 0 0 0 1.17-.34v-.814H8.975V9.342h2.453v2.454c-.67.582-1.529.901-2.417.9-1.757 0-2.969-1.238-2.969-2.91Zm5.912 0V9.77a2.922 2.922 0 0 1 3.014-2.912c1.744 0 2.997 1.3 2.997 2.908v.016a2.922 2.922 0 0 1-3.013 2.925c-1.746-.01-2.998-1.312-2.998-2.92Zm4.71 0V9.77a1.713 1.713 0 0 0-2.933-1.254 1.692 1.692 0 0 0-.475 1.238v.016a1.723 1.723 0 0 0 1.044 1.641 1.717 1.717 0 0 0 1.335.003 1.693 1.693 0 0 0 1.029-1.628Z" fill="#fff"/><defs><linearGradient id="a" x1="22.611" y1="13.568" x2="14.029" y2="20.805" gradientUnits="userSpaceOnUse"><stop stop-color="#087CFA"/><stop offset=".02" stop-color="#0D7BFA"/><stop offset=".37" stop-color="#5566F9"/><stop offset=".66" stop-color="#8A57F8"/><stop offset=".88" stop-color="#AB4EF7"/><stop offset="1" stop-color="#B74AF7"/></linearGradient><linearGradient id="b" x1="8.566" y1="7.846" x2="13.786" y2="1.929" gradientUnits="userSpaceOnUse"><stop stop-color="#087CFA"/><stop offset=".02" stop-color="#0D7BFA"/><stop offset=".37" stop-color="#5566F9"/><stop offset=".66" stop-color="#8A57F8"/><stop offset=".88" stop-color="#AB4EF7"/><stop offset="1" stop-color="#B74AF7"/></linearGradient><linearGradient id="c" x1="4.041" y1="20.204" x2="19.888" y2="10.061" gradientUnits="userSpaceOnUse"><stop stop-color="#087CFA"/><stop offset=".1" stop-color="#1598D3"/><stop offset=".22" stop-color="#23B6AA"/><stop offset=".35" stop-color="#2DCC8B"/><stop offset=".46" stop-color="#35DD74"/><stop offset=".57" stop-color="#39E767"/><stop offset=".67" stop-color="#3BEA62"/></linearGradient></defs></svg>