<svg width="563" height="563" fill="none" xmlns="http://www.w3.org/2000/svg"><path fill-rule="evenodd" clip-rule="evenodd" d="M25.74 219.359c-34.32 34.319-34.32 89.963 0 124.281l193.619 193.621c34.319 34.319 89.963 34.319 124.281 0L537.261 343.64c34.319-34.318 34.319-89.962 0-124.281L343.64 25.739c-34.318-34.319-89.962-34.319-124.281 0L25.739 219.36Zm166.753-8.686c6.864-6.864 6.864-17.994 0-24.857-6.864-6.864-17.994-6.864-24.857 0l-83.255 83.256c-6.864 6.864-6.864 17.992 0 24.856l83.255 83.256c6.863 6.864 17.993 6.864 24.857 0 6.864-6.865 6.864-17.993 0-24.857L121.665 281.5l70.828-70.827Zm174.954-24.857c-6.863 6.863-6.863 17.993 0 24.857l70.827 70.827-70.827 70.827c-6.863 6.864-6.863 17.992 0 24.857 6.864 6.864 17.992 6.864 24.856 0l83.256-83.256c6.864-6.864 6.864-17.992 0-24.856l-83.256-83.256c-6.864-6.864-17.992-6.864-24.856 0ZM330.17 169.77c2.667-9.334-2.737-19.061-12.07-21.728-9.335-2.667-19.062 2.737-21.729 12.072l-66.603 233.114c-2.667 9.334 2.738 19.061 12.072 21.728 9.333 2.667 19.06-2.737 21.727-12.07L330.17 169.77Z" fill="url(#a)"/><defs><linearGradient id="a" x1="128.184" y1="45.414" x2="434.816" y2="517.585" gradientUnits="userSpaceOnUse"><stop stop-color="#73DFE7"/><stop offset="1" stop-color="#0095F7"/></linearGradient></defs></svg>