<svg width="1151" height="373" fill="none" xmlns="http://www.w3.org/2000/svg"><path d="M23.646 78.354a.5.5 0 0 0 .708 0l3.181-3.182a.5.5 0 1 0-.707-.707L24 77.293l-2.828-2.829a.5.5 0 1 0-.707.708l3.181 3.182ZM24.5 78v-2.438h-1V78h1Zm0-7.313v-4.874h-1v4.874h1Zm0-9.75v-4.874h-1v4.874h1Zm0-9.75v-4.874h-1v4.874h1Zm0-9.75v-4.874h-1v4.874h1Zm0-9.75v-4.875h-1v4.875h1Zm0-9.75v-4.875h-1v4.875h1Zm0-9.75V7.314h-1v4.875h1Zm0-9.75V0h-1v2.438h1Z" fill="#18794E"/><path d="M2.387 98.293V102H1.212v-9.242H4.21c.414.008.806.074 1.174.197.372.122.698.3.977.533.28.233.5.52.66.863.166.343.248.736.248 1.18 0 .445-.082.839-.247 1.181-.161.339-.381.625-.66.857-.28.233-.606.41-.978.534-.368.122-.76.186-1.175.19H2.388Zm0-.965h1.821c.271-.004.521-.046.75-.127.228-.084.427-.203.596-.355.17-.153.3-.337.394-.553.097-.22.146-.47.146-.749s-.049-.53-.146-.755a1.645 1.645 0 0 0-.387-.571 1.763 1.763 0 0 0-.603-.362 2.24 2.24 0 0 0-.75-.133H2.388v3.605Zm9.585.901h-1.848V102H8.957v-9.242h2.71c.432.008.838.07 1.219.184.38.114.715.286 1.003.514.283.229.505.516.666.863.165.343.248.747.248 1.213 0 .3-.045.575-.134.825-.084.25-.203.476-.355.68a2.64 2.64 0 0 1-.546.539c-.212.156-.444.29-.698.4l1.961 3.948-.006.076h-1.238l-1.815-3.77Zm-1.848-.964H11.7c.262-.005.51-.045.742-.121.233-.08.438-.195.616-.343.174-.148.311-.328.413-.54.101-.215.152-.463.152-.742 0-.296-.049-.554-.146-.774a1.574 1.574 0 0 0-.406-.565 1.761 1.761 0 0 0-.622-.337 2.67 2.67 0 0 0-.781-.12h-1.543v3.542Zm12.607.647a6.8 6.8 0 0 1-.089 1.003c-.05.334-.131.658-.241.971-.11.313-.252.605-.425.876-.17.271-.373.508-.61.711-.237.203-.51.364-.819.483a2.918 2.918 0 0 1-1.028.171 2.97 2.97 0 0 1-1.035-.171 2.808 2.808 0 0 1-.812-.483 3.204 3.204 0 0 1-.616-.711 4.343 4.343 0 0 1-.425-.882 5.368 5.368 0 0 1-.254-.971 6.64 6.64 0 0 1-.089-.997v-1.054a7.24 7.24 0 0 1 .083-.996 5.35 5.35 0 0 1 .254-.978c.11-.313.25-.605.419-.876.173-.275.378-.516.615-.723.237-.203.508-.362.813-.476a2.869 2.869 0 0 1 1.034-.178c.381 0 .726.06 1.035.178.309.114.582.273.819.476.237.203.44.442.61.717.173.27.317.563.43.876.11.313.191.639.242.978a6.8 6.8 0 0 1 .089 1.002v1.054Zm-1.162-1.066a7.84 7.84 0 0 0-.044-.686 5.189 5.189 0 0 0-.127-.717 3.909 3.909 0 0 0-.248-.667 2.242 2.242 0 0 0-.38-.57 1.687 1.687 0 0 0-1.264-.528 1.67 1.67 0 0 0-1.256.533c-.153.165-.28.356-.381.572a3.575 3.575 0 0 0-.242.666c-.063.237-.11.476-.14.718a7.81 7.81 0 0 0-.044.679v1.066c.005.216.02.444.045.686.03.24.076.478.14.71.063.238.145.464.247.68.102.216.229.404.38.565.153.165.333.296.54.393.208.098.449.146.724.146a1.677 1.677 0 0 0 1.27-.539c.148-.161.27-.347.368-.559.101-.216.184-.442.247-.68.06-.232.1-.469.12-.71a8.09 8.09 0 0 0 .045-.692v-1.066ZM26.794 102l-2.92-9.242h1.256l2.032 6.9.133.45.14-.463 2.044-6.887h1.25L27.815 102h-1.021Zm5.541-9.242h5.586v1.022h-2.215v7.204h2.215V102h-5.586v-1.016h2.164V93.78h-2.164v-1.022Zm12.645 6.906c0-.284-.066-.523-.197-.717a1.723 1.723 0 0 0-.495-.495 3.31 3.31 0 0 0-.673-.33c-.242-.09-.474-.17-.699-.242a10.861 10.861 0 0 1-.996-.38 4.66 4.66 0 0 1-.914-.546 2.791 2.791 0 0 1-.686-.762 2.022 2.022 0 0 1-.26-1.041c0-.398.087-.753.26-1.066.178-.314.409-.578.692-.794.284-.216.605-.379.965-.489.36-.114.722-.171 1.086-.171.401 0 .789.068 1.161.203.373.131.703.317.99.559.288.24.519.533.692.876.174.342.265.725.273 1.148h-1.206a2.525 2.525 0 0 0-.197-.723 1.79 1.79 0 0 0-.387-.565 1.652 1.652 0 0 0-.578-.362 1.985 1.985 0 0 0-.748-.133c-.225 0-.445.031-.66.095-.212.064-.4.159-.566.286-.169.127-.304.283-.406.47a1.377 1.377 0 0 0-.146.647c.004.266.072.493.203.679.132.182.299.336.502.463.199.127.414.233.647.318.237.084.46.159.667.222.343.106.685.235 1.028.387.343.148.656.339.94.572.279.215.503.48.672.793.174.313.26.675.26 1.085 0 .415-.093.777-.279 1.086a2.42 2.42 0 0 1-.71.768 3.255 3.255 0 0 1-.99.47 4.159 4.159 0 0 1-1.105.152c-.44 0-.874-.074-1.302-.222a3.256 3.256 0 0 1-1.104-.641 2.798 2.798 0 0 1-.667-.845 2.606 2.606 0 0 1-.26-1.085h1.2c.038.288.116.544.235.768a1.94 1.94 0 0 0 1.098.914c.245.076.512.114.8.114.228 0 .452-.027.672-.082.225-.059.424-.15.597-.273a1.45 1.45 0 0 0 .425-.451c.11-.186.166-.406.166-.66Zm2.97-6.906h5.586v1.022h-2.215v7.204h2.215V102H47.95v-1.016h2.165V93.78H47.95v-1.022Zm13.819 5.154c-.004.33-.034.664-.089 1.003-.05.334-.131.658-.241.971a4.21 4.21 0 0 1-.425.876c-.17.271-.373.508-.61.711-.237.203-.51.364-.819.483a2.917 2.917 0 0 1-1.028.171 2.97 2.97 0 0 1-1.035-.171 2.807 2.807 0 0 1-.812-.483 3.205 3.205 0 0 1-.616-.711 4.354 4.354 0 0 1-.425-.882 5.385 5.385 0 0 1-.254-.971 6.653 6.653 0 0 1-.089-.997v-1.054a7.24 7.24 0 0 1 .083-.996c.055-.339.14-.665.254-.978.11-.313.25-.605.419-.876.173-.275.378-.516.615-.723.237-.203.508-.362.813-.476a2.869 2.869 0 0 1 1.034-.178c.381 0 .726.06 1.035.178.309.114.582.273.819.476.237.203.44.442.61.717.173.27.317.563.431.876.11.313.19.639.241.978.055.338.085.672.089 1.002v1.054Zm-1.162-1.066a7.84 7.84 0 0 0-.044-.686 5.189 5.189 0 0 0-.127-.717 3.918 3.918 0 0 0-.248-.667 2.242 2.242 0 0 0-.38-.57 1.687 1.687 0 0 0-1.264-.528 1.671 1.671 0 0 0-1.256.533c-.153.165-.28.356-.381.572a3.582 3.582 0 0 0-.241.666c-.064.237-.11.476-.14.718a7.85 7.85 0 0 0-.045.679v1.066c.005.216.02.444.045.686.03.24.076.478.14.71.063.238.146.464.247.68.102.216.229.404.38.565.153.165.333.296.54.393.208.098.45.146.724.146a1.677 1.677 0 0 0 1.27-.539c.148-.161.27-.347.368-.559.101-.216.184-.442.247-.68.06-.232.1-.469.121-.71a8.09 8.09 0 0 0 .044-.692v-1.066ZM69.355 102H68.16l-3.586-6.906-.02 6.906H63.37v-9.242h1.193l3.586 6.893.02-6.893h1.186V102Zm14.237-2.393h-3.085L79.765 102H78.59l2.984-9.242h.984L85.49 102h-1.168l-.73-2.393Zm-2.767-1.022h2.456l-1.219-4.012-1.237 4.012ZM94.675 102v-9.242h2.14c.36.004.698.042 1.015.114.322.068.618.165.889.292.376.174.709.402.996.686.292.279.525.603.699.97.156.314.275.657.355 1.03.085.372.129.77.133 1.193v.679c0 .406-.04.791-.12 1.155a4.298 4.298 0 0 1-.337 1.003 3.627 3.627 0 0 1-.577.863 3.742 3.742 0 0 1-.781.66c-.305.191-.65.337-1.035.438-.38.102-.793.155-1.238.159h-2.139Zm1.194-8.277v7.319h.945c.339-.005.646-.047.92-.127.28-.081.528-.195.744-.343.228-.153.425-.339.59-.559.17-.224.302-.474.4-.749.084-.224.148-.465.19-.724.043-.262.066-.535.07-.818v-.692a5.156 5.156 0 0 0-.076-.825 3.611 3.611 0 0 0-.197-.743 2.888 2.888 0 0 0-.463-.8 2.198 2.198 0 0 0-.705-.584 2.662 2.662 0 0 0-.666-.254 3.412 3.412 0 0 0-.806-.101h-.946Zm11.819 4.005h-3.859v3.275h4.5V102h-5.675v-9.242h5.618v1.003h-4.443v2.97h3.859v.997Zm2.603 4.272v-9.242h2.139c.359.004.698.042 1.015.114.322.068.618.165.889.292.377.174.709.402.997.686.292.279.524.603.698.97.156.314.275.657.355 1.03.085.372.129.77.134 1.193v.679c0 .406-.041.791-.121 1.155a4.296 4.296 0 0 1-.336 1.003 3.639 3.639 0 0 1-.578.863 3.743 3.743 0 0 1-.781.66 3.698 3.698 0 0 1-1.035.438c-.38.102-.793.155-1.237.159h-2.139Zm1.193-8.277v7.319h.946c.338-.005.645-.047.92-.127.279-.081.527-.195.743-.343.228-.153.425-.339.59-.559.169-.224.303-.474.4-.749.085-.224.148-.465.19-.724.043-.262.066-.535.07-.818v-.692a5.077 5.077 0 0 0-.076-.825 3.574 3.574 0 0 0-.197-.743 2.872 2.872 0 0 0-.463-.8 2.188 2.188 0 0 0-.705-.584 2.666 2.666 0 0 0-.666-.254 3.414 3.414 0 0 0-.806-.101h-.946Zm6.735-.965h5.586v1.022h-2.216v7.204h2.216V102h-5.586v-1.016h2.164V93.78h-2.164v-1.022Zm13.793 6.462a4.047 4.047 0 0 1-.33 1.18 3.023 3.023 0 0 1-.641.914c-.267.259-.582.46-.946.603a3.3 3.3 0 0 1-1.206.21 3.23 3.23 0 0 1-1.041-.159 2.882 2.882 0 0 1-.825-.45 3.03 3.03 0 0 1-.635-.673 4.071 4.071 0 0 1-.431-.845 5.016 5.016 0 0 1-.267-.958 6.732 6.732 0 0 1-.089-1.016v-1.288a6.73 6.73 0 0 1 .089-1.016c.059-.334.148-.654.267-.958.114-.305.258-.586.431-.845a2.96 2.96 0 0 1 .635-.679c.241-.19.516-.338.825-.444a3.09 3.09 0 0 1 1.041-.165c.461 0 .874.072 1.238.216.364.14.677.338.939.596.263.263.472.576.629.94.161.364.266.766.317 1.206h-1.174a3.46 3.46 0 0 0-.197-.78 2.16 2.16 0 0 0-.374-.636 1.628 1.628 0 0 0-.578-.425 1.86 1.86 0 0 0-.8-.159c-.279 0-.527.047-.743.14a1.634 1.634 0 0 0-.545.368 2.137 2.137 0 0 0-.394.546 3.732 3.732 0 0 0-.248.66 4.98 4.98 0 0 0-.139.718 6.569 6.569 0 0 0-.038.704v1.301c0 .229.012.466.038.711.029.242.076.479.139.711.064.237.146.46.248.667.102.207.231.389.387.546.157.16.341.287.552.381.212.088.46.133.743.133.309 0 .576-.049.8-.146.228-.098.421-.235.578-.413.156-.173.281-.379.374-.616a3.45 3.45 0 0 0 .197-.78h1.174Zm6.234.387h-3.085l-.743 2.393h-1.174l2.983-9.242h.984l2.933 9.242h-1.168l-.73-2.393Zm-2.768-1.022h2.457l-1.219-4.012-1.238 4.012Zm12.397-4.824h-2.856V102h-1.143v-8.24h-2.856v-1.002h6.855v1.003Zm6.659 3.967h-3.86v3.275h4.501V102H149.5v-9.242h5.618v1.003h-4.444v2.97h3.86v.997Zm2.602 4.272v-9.242h2.139c.36.004.699.042 1.016.114.322.068.618.165.889.292.376.174.709.402.996.686.292.279.525.603.699.97.156.314.275.657.355 1.03.085.372.129.77.133 1.193v.679c0 .406-.04.791-.12 1.155a4.298 4.298 0 0 1-.337 1.003 3.635 3.635 0 0 1-.577.863 3.743 3.743 0 0 1-.781.66 3.71 3.71 0 0 1-1.035.438 4.944 4.944 0 0 1-1.238.159h-2.139Zm1.194-8.277v7.319h.945c.339-.005.646-.047.921-.127.279-.081.527-.195.742-.343.229-.153.426-.339.591-.559a2.79 2.79 0 0 0 .4-.749c.084-.224.148-.465.19-.724a5.68 5.68 0 0 0 .07-.818v-.692a5.19 5.19 0 0 0-.076-.825 3.637 3.637 0 0 0-.197-.743 2.897 2.897 0 0 0-.463-.8 2.21 2.21 0 0 0-.705-.584 2.666 2.666 0 0 0-.666-.254 3.423 3.423 0 0 0-.807-.101h-.945ZM172.751 102v-9.242h2.14c.359.004.698.042 1.015.114.322.068.618.165.889.292.377.174.709.402.997.686.291.279.524.603.698.97.156.314.275.657.355 1.03.085.372.129.77.134 1.193v.679c0 .406-.041.791-.121 1.155a4.252 4.252 0 0 1-.337 1.003 3.605 3.605 0 0 1-.577.863 3.743 3.743 0 0 1-.781.66 3.698 3.698 0 0 1-1.035.438c-.38.102-.793.155-1.237.159h-2.14Zm1.194-8.277v7.319h.946c.338-.005.645-.047.92-.127.279-.081.527-.195.743-.343.228-.153.425-.339.59-.559.169-.224.303-.474.4-.749.085-.224.148-.465.19-.724.043-.262.066-.535.07-.818v-.692a5.077 5.077 0 0 0-.076-.825 3.574 3.574 0 0 0-.197-.743 2.872 2.872 0 0 0-.463-.8 2.198 2.198 0 0 0-.705-.584 2.666 2.666 0 0 0-.666-.254 3.414 3.414 0 0 0-.806-.101h-.946Zm11.819 4.005h-3.859v3.275h4.5V102h-5.675v-9.242h5.618v1.003h-4.443v2.97h3.859v.997Zm4.989 4.272-2.92-9.242h1.257l2.032 6.9.133.45.14-.463 2.043-6.887h1.251L191.775 102h-1.022Zm18.434-4.272h-3.859v3.275h4.5V102h-5.675v-9.242h5.618v1.003h-4.443v2.97h3.859v.997Zm8.512 4.272h-1.193l-3.587-6.906L212.9 102h-1.187v-9.242h1.194l3.586 6.893.019-6.893h1.187V102Zm4.285 0-2.92-9.242h1.257l2.031 6.9.133.45.14-.463 2.044-6.887h1.25L223.006 102h-1.022Zm5.541-9.242h5.586v1.022h-2.215v7.204h2.215V102h-5.586v-1.016h2.165V93.78h-2.165v-1.022Zm10.868 5.472h-1.848V102h-1.168v-9.242h2.711c.432.008.838.07 1.219.184.381.114.715.286 1.003.514.283.229.505.516.666.863.165.343.248.747.248 1.213 0 .3-.045.575-.134.825-.084.25-.203.476-.355.68a2.622 2.622 0 0 1-.546.539 3.53 3.53 0 0 1-.698.4l1.961 3.948-.006.076h-1.238l-1.815-3.77Zm-1.848-.965h1.575c.262-.005.51-.045.742-.121.233-.08.438-.195.616-.343.174-.148.311-.328.413-.54.101-.215.152-.463.152-.742 0-.296-.049-.554-.146-.774a1.574 1.574 0 0 0-.406-.565 1.767 1.767 0 0 0-.622-.337 2.675 2.675 0 0 0-.781-.12h-1.543v3.542Zm12.607.647a6.76 6.76 0 0 1-.089 1.003 5.363 5.363 0 0 1-.241.971c-.11.313-.252.605-.426.876a3.065 3.065 0 0 1-.609.711c-.237.203-.51.364-.819.483a2.913 2.913 0 0 1-1.028.171c-.381 0-.726-.057-1.035-.171a2.815 2.815 0 0 1-.812-.483 3.219 3.219 0 0 1-.616-.711 4.374 4.374 0 0 1-.425-.882 5.393 5.393 0 0 1-.254-.971 6.627 6.627 0 0 1-.089-.997v-1.054a7.18 7.18 0 0 1 .083-.996c.055-.339.139-.665.253-.978.11-.313.25-.605.419-.876.174-.275.379-.516.616-.723.237-.203.508-.362.813-.476a2.861 2.861 0 0 1 1.034-.178c.381 0 .726.06 1.035.178.309.114.582.273.819.476.237.203.44.442.609.717.174.27.318.563.432.876.11.313.19.639.241.978.055.338.085.672.089 1.002v1.054Zm-1.162-1.066a7.914 7.914 0 0 0-.044-.686 5.327 5.327 0 0 0-.127-.717 3.928 3.928 0 0 0-.248-.667 2.211 2.211 0 0 0-.381-.57 1.685 1.685 0 0 0-1.263-.528 1.668 1.668 0 0 0-1.257.533 2.237 2.237 0 0 0-.38.572 3.599 3.599 0 0 0-.242.666c-.063.237-.11.476-.139.718a7.515 7.515 0 0 0-.045.679v1.066c.004.216.019.444.045.686.029.24.076.478.139.71.064.238.146.464.248.68.101.216.228.404.381.565.152.165.332.296.539.393.208.098.449.146.724.146a1.68 1.68 0 0 0 1.269-.539 2.13 2.13 0 0 0 .369-.559 4.06 4.06 0 0 0 .368-1.39c.025-.241.04-.472.044-.692v-1.066Zm8.747 5.154h-1.193l-3.586-6.906-.02 6.906h-1.187v-9.242h1.194l3.586 6.893.019-6.893h1.187V102Zm3.307-9.242 1.505 4.62 1.625-4.62h1.46V102h-1.143v-3.688l.095-3.86-1.707 4.977h-.673l-1.568-4.843.095 3.726V102h-1.142v-9.242h1.453Zm11.604 4.97h-3.859v3.275h4.5V102h-5.675v-9.242h5.618v1.003h-4.443v2.97h3.859v.997ZM280.16 102h-1.193l-3.587-6.906-.019 6.906h-1.187v-9.242h1.194l3.586 6.893.019-6.893h1.187V102Zm8.252-8.24h-2.856V102h-1.143v-8.24h-2.856v-1.002h6.855v1.003Z" fill="#6B6D85"/><path d="M23.646 194.354a.5.5 0 0 0 .708 0l3.181-3.182a.501.501 0 0 0-.707-.708L24 193.293l-2.828-2.829a.5.5 0 0 0-.707.708l3.181 3.182ZM24.5 194v-2.438h-1V194h1Zm0-7.312v-4.876h-1v4.876h1Zm0-9.75v-4.876h-1v4.876h1Zm0-9.75v-4.876h-1v4.876h1Zm0-9.75v-4.876h-1v4.876h1Zm0-9.75v-4.876h-1v4.876h1Zm0-9.75v-4.876h-1v4.876h1Zm0-9.75v-4.876h-1v4.876h1Zm0-9.75V116h-1v2.438h1Z" fill="#18794E"/><rect x=".5" y="201.5" width="720" height="171" rx="7.5" stroke="#D9DAE5"/><path d="M24.984 234v-9.242h2.139c.36.004.698.042 1.016.114.321.068.617.165.888.292.377.174.71.402.997.686.292.279.525.603.698.971.157.313.275.656.356 1.028.084.373.129.77.133 1.193v.68c0 .406-.04.791-.12 1.155a4.3 4.3 0 0 1-.337 1.003 3.627 3.627 0 0 1-.578.863 3.742 3.742 0 0 1-.78.66c-.305.191-.65.337-1.035.438-.381.102-.794.155-1.238.159h-2.14Zm1.193-8.277v7.319h.946c.339-.005.645-.047.92-.127.28-.081.527-.195.743-.343.229-.153.425-.339.59-.559.17-.224.303-.474.4-.749.085-.224.148-.465.19-.723.043-.263.066-.536.07-.819v-.692a5.135 5.135 0 0 0-.076-.825 3.593 3.593 0 0 0-.196-.743 2.892 2.892 0 0 0-.464-.8 2.2 2.2 0 0 0-.704-.584 2.651 2.651 0 0 0-.667-.254 3.428 3.428 0 0 0-.806-.101h-.946Zm11.82 4.005h-3.86v3.275h4.5V234h-5.674v-9.242h5.618v1.003h-4.444v2.97h3.86v.997ZM40.599 234v-9.242h2.14c.359.004.698.042 1.015.114.322.068.618.165.889.292.376.174.708.402.996.686.292.279.525.603.698.971.157.313.275.656.356 1.028.085.373.129.77.133 1.193v.68c0 .406-.04.791-.12 1.155a4.3 4.3 0 0 1-.337 1.003 3.624 3.624 0 0 1-.578.863 3.74 3.74 0 0 1-.78.66c-.305.191-.65.337-1.035.438-.38.102-.793.155-1.238.159H40.6Zm1.194-8.277v7.319h.945c.339-.005.646-.047.92-.127.28-.081.527-.195.743-.343.229-.153.426-.339.59-.559.17-.224.303-.474.4-.749.085-.224.149-.465.191-.723.042-.263.066-.536.07-.819v-.692a5.158 5.158 0 0 0-.076-.825 3.586 3.586 0 0 0-.197-.743 2.892 2.892 0 0 0-.463-.8 2.2 2.2 0 0 0-.705-.584 2.65 2.65 0 0 0-.667-.254 3.427 3.427 0 0 0-.806-.101h-.946Zm6.734-.965h5.586v1.022h-2.215v7.204h2.215V234h-5.586v-1.016h2.165v-7.204h-2.165v-1.022Zm13.794 6.462a4.046 4.046 0 0 1-.33 1.18 3.016 3.016 0 0 1-.641.914c-.267.259-.582.46-.946.603-.36.14-.762.21-1.206.21-.381 0-.728-.053-1.041-.159a2.889 2.889 0 0 1-.825-.45 3.014 3.014 0 0 1-.635-.673 4.064 4.064 0 0 1-.432-.845 5.077 5.077 0 0 1-.267-.958 6.756 6.756 0 0 1-.088-1.016v-1.288c.004-.343.034-.682.089-1.016.059-.334.148-.654.266-.958.114-.305.258-.586.432-.845.177-.262.39-.488.634-.679a2.78 2.78 0 0 1 .826-.444 3.09 3.09 0 0 1 1.04-.165c.462 0 .875.072 1.238.216.364.139.678.338.94.596.262.263.472.576.628.94.161.364.267.766.318 1.206h-1.174a3.463 3.463 0 0 0-.197-.781 2.155 2.155 0 0 0-.375-.635 1.621 1.621 0 0 0-.577-.425 1.857 1.857 0 0 0-.8-.159c-.28 0-.527.047-.743.14a1.645 1.645 0 0 0-.546.368 2.157 2.157 0 0 0-.393.546 3.704 3.704 0 0 0-.248.66c-.063.233-.11.472-.14.718a6.722 6.722 0 0 0-.038.704v1.301c0 .229.013.466.038.711.03.242.077.478.14.711.063.237.146.459.248.667.101.207.23.389.387.546.156.16.34.287.552.381.212.088.46.133.743.133.309 0 .575-.049.8-.146.228-.098.42-.235.577-.413.157-.173.282-.379.375-.616.093-.241.158-.501.197-.78h1.174Zm6.233.387H65.47L64.727 234h-1.175l2.984-9.242h.983L70.452 234h-1.168l-.73-2.393Zm-2.767-1.022h2.456l-1.219-4.012-1.237 4.012Zm12.397-4.824h-2.857V234h-1.142v-8.239h-2.857v-1.003h6.856v1.003Zm6.658 3.967h-3.86v3.275h4.501V234H79.81v-9.242h5.617v1.003h-4.443v2.97h3.86v.997ZM87.445 234v-9.242h2.139c.36.004.698.042 1.016.114.321.068.617.165.888.292.377.174.71.402.997.686.292.279.525.603.698.971.157.313.275.656.356 1.028.084.373.129.77.133 1.193v.68c0 .406-.04.791-.12 1.155a4.3 4.3 0 0 1-.337 1.003 3.624 3.624 0 0 1-.578.863 3.74 3.74 0 0 1-.78.66c-.305.191-.65.337-1.035.438-.381.102-.794.155-1.238.159h-2.14Zm1.193-8.277v7.319h.946c.338-.005.645-.047.92-.127.28-.081.527-.195.743-.343.229-.153.425-.339.59-.559.17-.224.303-.474.4-.749.085-.224.148-.465.19-.723.043-.263.066-.536.07-.819v-.692a5.158 5.158 0 0 0-.076-.825 3.586 3.586 0 0 0-.196-.743 2.89 2.89 0 0 0-.464-.8 2.2 2.2 0 0 0-.704-.584 2.65 2.65 0 0 0-.667-.254 3.427 3.427 0 0 0-.806-.101h-.946ZM103.06 234v-9.242h2.139c.36.004.698.042 1.016.114.321.068.618.165.889.292.376.174.708.402.996.686.292.279.525.603.698.971.157.313.275.656.356 1.028.084.373.129.77.133 1.193v.68c0 .406-.04.791-.12 1.155a4.348 4.348 0 0 1-.337 1.003 3.738 3.738 0 0 1-1.358 1.523 3.71 3.71 0 0 1-1.035.438 4.944 4.944 0 0 1-1.238.159h-2.139Zm1.193-8.277v7.319h.946c.339-.005.646-.047.921-.127.279-.081.526-.195.742-.343.229-.153.426-.339.591-.559a2.79 2.79 0 0 0 .4-.749c.084-.224.148-.465.19-.723.042-.263.066-.536.07-.819v-.692a5.182 5.182 0 0 0-.076-.825 3.624 3.624 0 0 0-.197-.743 2.879 2.879 0 0 0-.464-.8 2.196 2.196 0 0 0-.704-.584 2.647 2.647 0 0 0-.667-.254 3.424 3.424 0 0 0-.806-.101h-.946Zm11.82 4.005h-3.86v3.275h4.501V234h-5.675v-9.242h5.618v1.003h-4.444v2.97h3.86v.997Zm4.989 4.272-2.92-9.242h1.257l2.031 6.9.133.45.14-.463 2.044-6.887h1.251L122.084 234h-1.022Zm18.434-4.272h-3.86v3.275h4.501V234h-5.675v-9.242h5.618v1.003h-4.444v2.97h3.86v.997Zm8.512 4.272h-1.194l-3.586-6.906-.019 6.906h-1.187v-9.242h1.193l3.587 6.893.019-6.893h1.187V234Zm4.284 0-2.919-9.242h1.256l2.032 6.9.133.45.14-.463 2.044-6.887h1.25L153.314 234h-1.022Zm5.542-9.242h5.586v1.022h-2.215v7.204h2.215V234h-5.586v-1.016h2.165v-7.204h-2.165v-1.022Zm10.867 5.471h-1.847V234h-1.168v-9.242h2.71c.432.008.838.07 1.219.184.381.114.715.286 1.003.514.284.229.506.516.667.863.165.343.247.747.247 1.213 0 .3-.044.575-.133.825-.085.25-.203.476-.356.679a2.658 2.658 0 0 1-.545.54c-.212.156-.445.29-.699.4l1.962 3.948-.007.076h-1.237l-1.816-3.771Zm-1.847-.964h1.574c.263-.005.51-.045.743-.121.233-.08.438-.195.616-.343.173-.148.311-.328.412-.539.102-.216.153-.464.153-.743 0-.296-.049-.554-.146-.774a1.568 1.568 0 0 0-.407-.565 1.76 1.76 0 0 0-.622-.337 2.67 2.67 0 0 0-.781-.12h-1.542v3.542Zm12.606.647c-.004.33-.033.664-.088 1.003a5.367 5.367 0 0 1-.242.971c-.11.313-.251.605-.425.876a3.065 3.065 0 0 1-.609.711c-.237.203-.51.364-.819.483a2.92 2.92 0 0 1-1.028.171c-.381 0-.726-.057-1.035-.171a2.807 2.807 0 0 1-.813-.483 3.189 3.189 0 0 1-.615-.711 4.326 4.326 0 0 1-.426-.882 5.393 5.393 0 0 1-.254-.971 6.64 6.64 0 0 1-.088-.997v-1.054c.004-.33.031-.662.082-.996a5.36 5.36 0 0 1 .254-.978c.11-.313.25-.605.419-.876.173-.275.379-.516.616-.723.237-.203.507-.362.812-.476a2.86 2.86 0 0 1 1.035-.178c.381 0 .726.059 1.035.178.308.114.581.273.818.476.237.203.44.442.61.717.173.271.317.563.431.876.11.313.191.639.242.977.055.339.084.673.088 1.003v1.054Zm-1.161-1.066a7.56 7.56 0 0 0-.045-.686 5.033 5.033 0 0 0-.127-.717 3.936 3.936 0 0 0-.247-.667 2.278 2.278 0 0 0-.381-.571 1.687 1.687 0 0 0-1.263-.527 1.672 1.672 0 0 0-1.257.533 2.265 2.265 0 0 0-.381.572 3.568 3.568 0 0 0-.241.666c-.064.237-.11.476-.14.718-.025.236-.04.463-.044.679v1.066c.004.216.019.444.044.686.03.241.076.478.14.711.063.237.146.463.247.679.102.216.229.404.381.565.153.165.333.296.54.393.207.098.448.146.724.146a1.673 1.673 0 0 0 1.269-.539c.148-.161.271-.347.368-.559.102-.216.184-.442.248-.679.059-.233.099-.47.12-.711.026-.241.041-.472.045-.692v-1.066Zm8.747 5.154h-1.193l-3.587-6.906-.019 6.906h-1.187v-9.242h1.193l3.587 6.893.019-6.893h1.187V234Zm3.307-9.242 1.504 4.621 1.625-4.621h1.46V234H193.8v-3.688l.095-3.859-1.707 4.976h-.673l-1.568-4.843.095 3.726V234h-1.143v-9.242h1.454Zm11.604 4.97h-3.86v3.275h4.501V234h-5.675v-9.242h5.618v1.003h-4.444v2.97h3.86v.997Zm8.512 4.272h-1.194l-3.586-6.906-.019 6.906h-1.187v-9.242h1.193l3.587 6.893.019-6.893h1.187V234Zm8.252-8.239h-2.857V234h-1.142v-8.239h-2.857v-1.003h6.856v1.003Z" fill="#6B6D85"/><g filter="url(#a)"><g clip-path="url(#b)"><path d="m55.396 287.602-13.971-13.703a2.088 2.088 0 0 0-2.914 0l-2.902 2.845 3.68 3.61a2.481 2.481 0 0 1 2.518.576c.685.672.878 1.643.582 2.484l3.547 3.479a2.483 2.483 0 0 1 2.533.571 2.372 2.372 0 0 1 0 3.401c-.958.94-2.51.94-3.468 0a2.373 2.373 0 0 1-.534-2.616l-3.308-3.244v8.538c.233.114.454.265.648.455a2.373 2.373 0 0 1 0 3.402 2.486 2.486 0 0 1-3.467 0 2.373 2.373 0 0 1 0-3.402c.237-.232.51-.407.802-.525v-8.617a2.449 2.449 0 0 1-.802-.525 2.372 2.372 0 0 1-.529-2.63l-3.627-3.559-9.58 9.396a1.995 1.995 0 0 0 0 2.86l13.971 13.703a2.09 2.09 0 0 0 2.915 0l13.906-13.64a1.995 1.995 0 0 0 0-2.859Z" fill="#DE4C36"/></g><path d="m81 289-5-2.887v5.774L81 289Zm-21 .5h16.5v-1H60v1Z" fill="#000418" fill-opacity=".506"/><path fill-rule="evenodd" clip-rule="evenodd" d="M104.364 280.332c0-.999-.796-1.841-1.802-1.841H91.633c-1.006 0-1.801.842-1.801 1.841v12.072c0 1 .795 1.842 1.801 1.842h3.643v-1h-3.643c-.425 0-.801-.366-.801-.842v-12.072c0-.476.376-.841.801-.841h10.929c.426 0 .802.365.802.841v1.61h1v-1.61Zm7.803 5.273c0-.995-.805-1.815-1.801-1.815H99.432c-.996 0-1.801.82-1.801 1.815V289h1v-3.395c0-.452.366-.815.801-.815h10.934c.435 0 .801.363.801.815v12.09a.811.811 0 0 1-.801.814H99.432a.812.812 0 0 1-.801-.814V293h-1v4.695c0 .994.805 1.814 1.801 1.814h10.934c.996 0 1.801-.82 1.801-1.814v-12.09Zm-17.468-.661a.5.5 0 1 0-1 0v2.112a4.683 4.683 0 0 0 4.683 4.683h5.181l-1.006 1.062a.5.5 0 1 0 .725.688l1.806-1.906a.5.5 0 0 0 .001-.688l-1.806-1.907a.5.5 0 0 0-.727.687l1.008 1.064h-5.182a3.683 3.683 0 0 1-3.683-3.683v-2.112Z" fill="#000418" fill-opacity=".506"/><path d="M32.727 329.578a4.985 4.985 0 0 1-.407 1.453 3.722 3.722 0 0 1-.789 1.125 3.499 3.499 0 0 1-1.164.742 4.07 4.07 0 0 1-1.484.258 3.99 3.99 0 0 1-1.281-.195 3.675 3.675 0 0 1-1.797-1.383 5.013 5.013 0 0 1-.532-1.039 6.253 6.253 0 0 1-.328-1.18 8.313 8.313 0 0 1-.11-1.25v-1.586c.006-.421.043-.838.11-1.25.073-.411.183-.804.328-1.179.141-.375.318-.722.532-1.039a3.61 3.61 0 0 1 .78-.836 3.386 3.386 0 0 1 1.017-.547c.38-.136.807-.203 1.28-.203.569 0 1.076.088 1.524.265.448.172.834.417 1.157.735.322.323.58.708.773 1.156.198.448.328.943.39 1.484h-1.445a4.27 4.27 0 0 0-.242-.961 2.658 2.658 0 0 0-.46-.781 1.989 1.989 0 0 0-.712-.523 2.292 2.292 0 0 0-.984-.196c-.344 0-.649.058-.914.172-.26.11-.485.261-.672.453a2.646 2.646 0 0 0-.485.672 4.595 4.595 0 0 0-.304.813 6.154 6.154 0 0 0-.172.883 8.3 8.3 0 0 0-.047.867v1.601c0 .282.016.573.047.875.036.297.094.589.172.875.078.292.18.565.305.821a2.5 2.5 0 0 0 .476.672c.193.197.42.354.68.468.26.11.565.164.914.164.38 0 .708-.06.984-.179.281-.12.518-.289.711-.508.193-.214.346-.466.461-.758.115-.297.195-.617.242-.961h1.446ZM35.195 321h4.32v10.75h2.758V333h-7.078v-1.25h2.875v-9.492h-2.875V321Zm8.977 7.695c0-.609.088-1.174.266-1.695.177-.526.432-.982.765-1.367.328-.386.73-.688 1.203-.906a3.703 3.703 0 0 1 1.602-.336c.599 0 1.135.112 1.61.336.478.218.885.52 1.218.906.328.385.58.841.758 1.367.177.521.265 1.086.265 1.695v.172c0 .61-.088 1.175-.265 1.695-.177.521-.43.974-.758 1.36a3.55 3.55 0 0 1-1.211.906c-.474.219-1.008.328-1.602.328a3.847 3.847 0 0 1-1.617-.328 3.473 3.473 0 0 1-1.203-.906 4.05 4.05 0 0 1-.766-1.36 5.226 5.226 0 0 1-.265-1.695v-.172Zm1.445.172c0 .417.05.815.149 1.195.099.376.25.706.453.993.198.286.448.513.75.679.302.167.653.25 1.054.25.396 0 .743-.083 1.04-.25a2.25 2.25 0 0 0 .757-.679c.198-.287.347-.617.446-.993a4.72 4.72 0 0 0 .148-1.195v-.172c0-.411-.052-.804-.156-1.179a3.115 3.115 0 0 0-.446-1 2.252 2.252 0 0 0-.757-.68 2.052 2.052 0 0 0-1.047-.258c-.401 0-.75.086-1.047.258a2.204 2.204 0 0 0-.742.68 3.018 3.018 0 0 0-.453 1 4.605 4.605 0 0 0-.149 1.179v.172Zm8.57 4.133v-8.453h1.297l.102 1.25c.125-.177.26-.339.406-.485a3.062 3.062 0 0 1 1.289-.773c.297-.094.61-.143.938-.148.442 0 .843.062 1.203.187a2.3 2.3 0 0 1 .93.586c.255.266.45.604.586 1.016.14.406.21.89.21 1.453V333h-1.445v-5.336c0-.375-.042-.693-.125-.953a1.547 1.547 0 0 0-.367-.633 1.473 1.473 0 0 0-.61-.351 2.735 2.735 0 0 0-.812-.11c-.266 0-.513.039-.742.117a2.46 2.46 0 0 0-.633.305 2.829 2.829 0 0 0-.437.399c-.13.151-.245.317-.344.5V333h-1.446Zm13.344.156c-.594 0-1.14-.101-1.64-.304a3.73 3.73 0 0 1-1.274-.852 3.9 3.9 0 0 1-.828-1.297 4.395 4.395 0 0 1-.297-1.633v-.328c0-.682.11-1.291.328-1.828a4.2 4.2 0 0 1 .875-1.375c.36-.37.769-.654 1.227-.851a3.587 3.587 0 0 1 1.422-.297c.61 0 1.14.106 1.594.32.458.208.838.497 1.14.867.302.375.526.815.672 1.32.151.506.227 1.053.227 1.641v.649h-6.04v.054c.037.412.118.774.243 1.086.13.313.307.589.53.828.23.255.506.456.83.602.322.146.679.219 1.07.219.515 0 .973-.105 1.374-.313a2.976 2.976 0 0 0 1-.828l.883.687c-.281.428-.703.808-1.265 1.141-.558.328-1.248.492-2.07.492Zm-.187-7.578c-.292 0-.568.055-.828.164-.26.104-.495.258-.704.461a2.78 2.78 0 0 0-.53.766c-.141.297-.24.64-.298 1.031h4.547v-.07c0-.261-.05-.539-.148-.836a2.437 2.437 0 0 0-.414-.782 2.019 2.019 0 0 0-.672-.531c-.266-.135-.584-.203-.953-.203Zm19.273 6.406c.26 0 .513-.041.758-.125.25-.083.471-.2.664-.351.193-.146.346-.318.461-.516a1.33 1.33 0 0 0 .188-.656h1.367a2.24 2.24 0 0 1-.297 1.078 3.01 3.01 0 0 1-.758.891c-.318.26-.682.468-1.094.625a3.711 3.711 0 0 1-1.289.226c-.64 0-1.2-.114-1.68-.344a3.419 3.419 0 0 1-1.195-.929 3.918 3.918 0 0 1-.726-1.336 5.309 5.309 0 0 1-.243-1.609v-.329c0-.557.081-1.091.243-1.601.161-.511.403-.961.726-1.352a3.472 3.472 0 0 1 1.195-.922c.48-.229 1.04-.343 1.68-.343.5 0 .959.08 1.375.242.422.156.787.37 1.094.64.302.276.539.602.71.977.173.375.259.776.259 1.203h-1.368a1.698 1.698 0 0 0-.171-.719 1.898 1.898 0 0 0-.43-.601 1.994 1.994 0 0 0-.656-.406 2.187 2.187 0 0 0-.813-.149c-.448 0-.825.091-1.133.274a2.178 2.178 0 0 0-.734.695 3.077 3.077 0 0 0-.406.976c-.078.36-.117.722-.117 1.086v.329c0 .369.039.736.117 1.101.083.359.219.682.406.969.182.291.424.528.727.711.307.177.687.265 1.14.265Zm5.602-3.289c0-.609.088-1.174.265-1.695.178-.526.433-.982.766-1.367.328-.386.73-.688 1.203-.906a3.703 3.703 0 0 1 1.602-.336c.599 0 1.135.112 1.61.336.478.218.884.52 1.218.906.328.385.58.841.758 1.367.177.521.265 1.086.265 1.695v.172c0 .61-.088 1.175-.265 1.695-.178.521-.43.974-.758 1.36a3.551 3.551 0 0 1-1.211.906c-.474.219-1.008.328-1.602.328a3.847 3.847 0 0 1-1.617-.328 3.473 3.473 0 0 1-1.203-.906 4.05 4.05 0 0 1-.766-1.36 5.226 5.226 0 0 1-.265-1.695v-.172Zm1.445.172c0 .417.05.815.148 1.195.1.376.25.706.454.993.197.286.447.513.75.679.302.167.653.25 1.054.25.396 0 .743-.083 1.04-.25a2.25 2.25 0 0 0 .757-.679c.198-.287.346-.617.445-.993a4.72 4.72 0 0 0 .149-1.195v-.172c0-.411-.052-.804-.156-1.179a3.118 3.118 0 0 0-.446-1 2.254 2.254 0 0 0-.757-.68 2.052 2.052 0 0 0-1.047-.258c-.401 0-.75.086-1.047.258a2.203 2.203 0 0 0-.742.68 3.02 3.02 0 0 0-.454 1 4.6 4.6 0 0 0-.148 1.179v.172Zm8.297-.164c0-.63.078-1.208.234-1.734.162-.531.391-.987.688-1.367a3.103 3.103 0 0 1 1.062-.891c.417-.214.883-.32 1.399-.32.505 0 .945.086 1.32.257.38.167.708.412.984.735V321h1.446v12h-1.328l-.063-.891a2.758 2.758 0 0 1-1.008.782c-.39.177-.846.265-1.367.265a2.94 2.94 0 0 1-1.39-.328 3.186 3.186 0 0 1-1.055-.906 4.392 4.392 0 0 1-.68-1.36 5.763 5.763 0 0 1-.242-1.695v-.164Zm1.445.164c0 .412.045.802.133 1.172.089.37.227.695.414.977.182.281.417.505.703.672.287.161.63.242 1.032.242.484 0 .885-.11 1.203-.328.317-.219.57-.513.757-.883v-3.922a2.41 2.41 0 0 0-.757-.844c-.318-.224-.714-.336-1.188-.336-.406 0-.755.084-1.047.25a2.073 2.073 0 0 0-.703.672 3.118 3.118 0 0 0-.414.992c-.088.37-.133.761-.133 1.172v.164Zm12.172 4.289c-.594 0-1.14-.101-1.64-.304a3.729 3.729 0 0 1-2.102-2.149 4.395 4.395 0 0 1-.297-1.633v-.328c0-.682.109-1.291.328-1.828.219-.542.511-1 .875-1.375a3.78 3.78 0 0 1 1.227-.851 3.584 3.584 0 0 1 1.422-.297c.609 0 1.14.106 1.593.32.459.208.839.497 1.141.867.302.375.526.815.672 1.32.151.506.226 1.053.226 1.641v.649h-6.039v.054c.037.412.118.774.243 1.086.13.313.307.589.531.828.229.255.505.456.828.602.323.146.68.219 1.07.219.516 0 .974-.105 1.375-.313a2.97 2.97 0 0 0 1-.828l.883.687c-.281.428-.703.808-1.266 1.141-.557.328-1.247.492-2.07.492Zm-.187-7.578c-.292 0-.568.055-.829.164-.26.104-.494.258-.703.461a2.787 2.787 0 0 0-.531.766c-.14.297-.239.64-.297 1.031h4.547v-.07c0-.261-.049-.539-.148-.836a2.44 2.44 0 0 0-.414-.782 2.016 2.016 0 0 0-.672-.531c-.266-.135-.584-.203-.953-.203ZM133.219 333v-7.336h-2.328v-1.117h2.328v-.594c0-.542.078-1.015.234-1.422.162-.411.388-.755.68-1.031a2.792 2.792 0 0 1 1.039-.625 4.123 4.123 0 0 1 1.359-.211c.209 0 .414.013.617.039.204.021.404.05.602.086.13.026.26.055.391.086.13.026.263.057.398.094l-.172 1.195a5.188 5.188 0 0 0-.75-.187 4.481 4.481 0 0 0-.906-.086c-.328 0-.62.041-.875.125-.25.078-.458.198-.625.359a1.603 1.603 0 0 0-.406.648 2.934 2.934 0 0 0-.133.93v.594h3.258v1.117h-3.258V333h-1.453Zm12.992-8.609c.266 0 .542.018.828.054.292.037.51.086.656.149l-.195 1.414a6.843 6.843 0 0 0-.805-.133 6.412 6.412 0 0 0-.789-.047c-.354 0-.674.044-.961.133a2.203 2.203 0 0 0-.75.375 2.273 2.273 0 0 0-.507.539 3.165 3.165 0 0 0-.352.703V333h-1.453v-8.453h1.375l.062 1.133.008.211a3.846 3.846 0 0 1 1.234-1.094c.485-.271 1.034-.406 1.649-.406Zm3.664 4.304c0-.609.089-1.174.266-1.695.177-.526.432-.982.765-1.367a3.446 3.446 0 0 1 1.203-.906 3.704 3.704 0 0 1 1.602-.336c.599 0 1.135.112 1.609.336.479.218.886.52 1.219.906.328.385.581.841.758 1.367.177.521.265 1.086.265 1.695v.172c0 .61-.088 1.175-.265 1.695-.177.521-.43.974-.758 1.36a3.548 3.548 0 0 1-1.211.906 3.775 3.775 0 0 1-1.601.328 3.853 3.853 0 0 1-1.618-.328 3.47 3.47 0 0 1-1.203-.906 4.051 4.051 0 0 1-.765-1.36 5.229 5.229 0 0 1-.266-1.695v-.172Zm1.445.172c0 .417.05.815.149 1.195.099.376.25.706.453.993.198.286.448.513.75.679.302.167.654.25 1.055.25.395 0 .742-.083 1.039-.25.302-.166.554-.393.757-.679.198-.287.347-.617.446-.993a4.72 4.72 0 0 0 .148-1.195v-.172c0-.411-.052-.804-.156-1.179a3.115 3.115 0 0 0-.445-1 2.262 2.262 0 0 0-.758-.68 2.052 2.052 0 0 0-1.047-.258c-.401 0-.75.086-1.047.258a2.202 2.202 0 0 0-.742.68 3.022 3.022 0 0 0-.453 1 4.6 4.6 0 0 0-.149 1.179v.172Zm9.235-4.32.039.797a1.92 1.92 0 0 1 .672-.696c.281-.166.619-.252 1.015-.257.224 0 .425.026.602.078.182.047.341.117.476.211.099.073.188.161.266.265.083.104.154.222.211.352a1.976 1.976 0 0 1 .578-.609c.146-.089.307-.159.484-.211.183-.053.381-.081.594-.086.292 0 .555.044.789.132.235.084.433.209.594.375.177.188.313.433.406.735.094.297.141.648.141 1.055V333h-1.375v-6.328a1.59 1.59 0 0 0-.063-.469.898.898 0 0 0-.179-.336.786.786 0 0 0-.313-.187 1.275 1.275 0 0 0-.422-.063c-.172 0-.32.024-.445.071a.921.921 0 0 0-.313.187.921.921 0 0 0-.195.289 1.204 1.204 0 0 0-.094.352V333h-1.375v-6.336c0-.177-.02-.333-.062-.469a.778.778 0 0 0-.18-.336.658.658 0 0 0-.297-.179 1.178 1.178 0 0 0-.406-.063c-.172 0-.323.021-.453.063a.874.874 0 0 0-.5.359 1.218 1.218 0 0 0-.117.234V333h-1.375v-8.453h1.297Zm25.914 6.961a5.324 5.324 0 0 1-.563.57 4.394 4.394 0 0 1-.617.438 4.29 4.29 0 0 1-1.18.484 5.061 5.061 0 0 1-1.328.156 4.104 4.104 0 0 1-1.297-.211 3.741 3.741 0 0 1-1.054-.578 3.974 3.974 0 0 1-.821-.851 5.226 5.226 0 0 1-.586-1.071 6.182 6.182 0 0 1-.367-1.195 7.47 7.47 0 0 1-.125-1.273v-1.321c.005-.422.042-.841.11-1.258.073-.421.182-.825.328-1.21.146-.386.328-.743.547-1.071.218-.333.481-.622.789-.867.302-.24.646-.43 1.031-.57a3.754 3.754 0 0 1 1.297-.211c.531 0 1.021.083 1.469.25.447.161.838.393 1.171.695.334.307.602.677.805 1.109.203.428.328.907.375 1.438h-1.43a3.968 3.968 0 0 0-.265-.906 2.313 2.313 0 0 0-.469-.719 2.08 2.08 0 0 0-.703-.461 2.404 2.404 0 0 0-.945-.172c-.344 0-.649.06-.914.18a2.2 2.2 0 0 0-.696.469 2.552 2.552 0 0 0-.492.695c-.13.26-.237.536-.32.828a5.741 5.741 0 0 0-.18.891 7.393 7.393 0 0 0-.055.875v1.336c.006.286.029.583.071.89.047.302.117.599.211.891.093.291.213.568.359.828s.323.49.531.687a2.4 2.4 0 0 0 .711.477c.271.115.578.174.922.18.198.005.404-.003.617-.024a3.14 3.14 0 0 0 .633-.125 2.65 2.65 0 0 0 .57-.25c.177-.109.326-.25.446-.422l.015-2.554h-2.312v-1.219h3.687l.024 4.172Zm2.476-6.961h4.321v7.203h2.757V333h-7.078v-1.25h2.875v-5.945h-2.875v-1.258Zm2.688-2.219c0-.125.018-.242.055-.351a.734.734 0 0 1 .445-.438c.109-.042.232-.062.367-.062.135 0 .255.02.359.062.105.037.19.089.258.156a.673.673 0 0 1 .188.274c.041.109.062.229.062.359 0 .234-.073.43-.219.586-.145.156-.362.234-.648.234-.292 0-.51-.078-.656-.234a.842.842 0 0 1-.211-.586Zm10.117.172v2.047h3.219v1.117h-3.219v4.594c0 .328.042.599.125.812a1.252 1.252 0 0 0 .844.782c.192.052.396.078.609.078.156 0 .318-.008.484-.024a14.62 14.62 0 0 0 .93-.148l.344-.078.203 1.023c-.12.073-.266.138-.437.195-.172.053-.36.097-.563.133a5.83 5.83 0 0 1-.648.094 7.195 7.195 0 0 1-.672.031c-.375 0-.727-.052-1.055-.156a2.191 2.191 0 0 1-.844-.516 2.422 2.422 0 0 1-.57-.89c-.135-.37-.203-.815-.203-1.336v-4.594h-2.219v-1.117h2.219V322.5h1.453Z" fill="#B0B1C3"/></g><g filter="url(#c)"><path d="M267 293c-2.222 0-4.111-.778-5.667-2.333-1.555-1.556-2.333-3.445-2.333-5.667 0-.444.033-.889.1-1.333a4.89 4.89 0 0 1 .367-1.267c.111-.222.25-.389.417-.5.167-.111.35-.189.549-.233a1.285 1.285 0 0 1 1.2.366l3.5 3.5 2.4-2.4-3.5-3.5a1.283 1.283 0 0 1-.366-1.2c.043-.201.121-.384.233-.55.112-.167.279-.305.5-.416.4-.178.822-.3 1.267-.367.444-.067.889-.1 1.333-.1 2.222 0 4.111.778 5.667 2.333 1.555 1.556 2.333 3.445 2.333 5.667 0 .511-.044.995-.133 1.451a7.534 7.534 0 0 1-.4 1.349l6.733 6.667c.644.644.967 1.433.967 2.366 0 .934-.323 1.723-.967 2.367-.644.644-1.433.967-2.367.967-.933 0-1.722-.334-2.366-1l-6.667-6.7a7.558 7.558 0 0 1-1.349.4A7.555 7.555 0 0 1 267 293Z" fill="#000418" fill-opacity=".506"/><path d="M256.344 333v-11.375h3.383c.468.005.927.068 1.375.187.447.115.846.295 1.195.54.349.244.627.557.836.937.208.38.31.836.305 1.367a2.39 2.39 0 0 1-.149.813 2.238 2.238 0 0 1-.367.656 2.562 2.562 0 0 1-.539.5 4.035 4.035 0 0 1-.703.383v.023c.286.068.562.19.828.367.265.178.484.373.656.586.182.235.323.498.422.789.104.292.156.607.156.946.005.531-.096 1-.304 1.406a3.012 3.012 0 0 1-.836 1.016 3.764 3.764 0 0 1-1.211.632 4.72 4.72 0 0 1-1.407.227h-3.64Zm1.453-5.32v4.093h2.226c.303-.005.589-.054.86-.148.271-.099.51-.234.719-.406.208-.172.372-.383.492-.633a1.88 1.88 0 0 0 .187-.852 1.959 1.959 0 0 0-.164-.859 1.83 1.83 0 0 0-.461-.641 2.125 2.125 0 0 0-.695-.398 2.84 2.84 0 0 0-.859-.156h-2.305Zm0-1.203h2.015c.271-.006.537-.047.797-.125.261-.084.493-.204.696-.36.203-.151.367-.338.492-.562a1.58 1.58 0 0 0 .187-.782c0-.317-.062-.588-.187-.812a1.602 1.602 0 0 0-.485-.555 2.235 2.235 0 0 0-.718-.312 3.61 3.61 0 0 0-.821-.11h-1.976v3.618ZM271.539 333l-.086-1.164a3.035 3.035 0 0 1-1.055.976c-.421.23-.908.344-1.46.344-.443 0-.844-.067-1.204-.203a2.36 2.36 0 0 1-.922-.648c-.255-.292-.453-.662-.593-1.11-.136-.453-.203-.994-.203-1.625v-5.023h1.445v5.039c0 .458.036.838.109 1.141.073.302.183.541.328.718.146.183.323.31.532.383.213.073.458.11.734.11.323 0 .612-.037.867-.11.255-.078.477-.185.664-.32.157-.11.292-.24.407-.391a2.36 2.36 0 0 0 .296-.508v-6.062h1.454V333h-1.313Zm4.266-8.453h4.32v7.203h2.758V333h-7.078v-1.25h2.875v-5.945h-2.875v-1.258Zm2.687-2.219c0-.125.018-.242.055-.351a.746.746 0 0 1 .187-.282.691.691 0 0 1 .258-.156 1.02 1.02 0 0 1 .367-.062c.136 0 .256.02.36.062.104.037.19.089.258.156a.68.68 0 0 1 .187.274.992.992 0 0 1 .063.359c0 .234-.073.43-.219.586-.146.156-.362.234-.649.234-.291 0-.51-.078-.656-.234a.842.842 0 0 1-.211-.586Zm6.922-1.328h4.32v10.75h2.758V333h-7.078v-1.25h2.875v-9.492h-2.875V321Zm9.109 7.703c0-.63.079-1.208.235-1.734.161-.531.39-.987.687-1.367a3.107 3.107 0 0 1 1.063-.891c.416-.214.883-.32 1.398-.32.505 0 .946.086 1.321.257.38.167.708.412.984.735V321h1.445v12h-1.328l-.062-.891a2.775 2.775 0 0 1-1.008.782c-.391.177-.847.265-1.367.265-.511 0-.974-.109-1.391-.328a3.206 3.206 0 0 1-1.055-.906 4.39 4.39 0 0 1-.679-1.36 5.73 5.73 0 0 1-.243-1.695v-.164Zm1.446.164c0 .412.044.802.133 1.172.088.37.226.695.414.977.182.281.416.505.703.672.286.161.63.242 1.031.242.484 0 .885-.11 1.203-.328.318-.219.57-.513.758-.883v-3.922a2.414 2.414 0 0 0-.758-.844c-.318-.224-.713-.336-1.187-.336-.407 0-.756.084-1.047.25a2.064 2.064 0 0 0-.703.672 3.073 3.073 0 0 0-.414.992 5 5 0 0 0-.133 1.172v.164Zm12.101 3.797a3.85 3.85 0 0 1-.367 1.594 4.012 4.012 0 0 1-.992 1.367l-.899-.492c.25-.365.428-.753.532-1.164.104-.412.156-.839.156-1.281v-1.399h1.57v1.375Zm23.227-9.805h-3.516V333h-1.406v-10.141h-3.516v-1.234h8.438v1.234Zm5.672 10.297a4.322 4.322 0 0 1-1.641-.304 3.725 3.725 0 0 1-1.273-.852 3.888 3.888 0 0 1-.828-1.297 4.395 4.395 0 0 1-.297-1.633v-.328c0-.682.109-1.291.328-1.828.219-.542.51-1 .875-1.375.359-.37.768-.654 1.226-.851a3.591 3.591 0 0 1 1.422-.297c.61 0 1.141.106 1.594.32.458.208.839.497 1.141.867.302.375.526.815.672 1.32.151.506.226 1.053.226 1.641v.649h-6.039v.054c.036.412.117.774.242 1.086.13.313.307.589.531.828.23.255.506.456.829.602.322.146.679.219 1.07.219.515 0 .974-.105 1.375-.313a2.98 2.98 0 0 0 1-.828l.883.687c-.282.428-.703.808-1.266 1.141-.557.328-1.247.492-2.07.492Zm-.188-7.578c-.291 0-.567.055-.828.164-.26.104-.495.258-.703.461a2.787 2.787 0 0 0-.531.766c-.141.297-.24.64-.297 1.031h4.547v-.07c0-.261-.05-.539-.149-.836a2.44 2.44 0 0 0-.414-.782 2.016 2.016 0 0 0-.672-.531c-.265-.135-.583-.203-.953-.203Zm11.68 5.18c0-.172-.034-.326-.102-.461a1.021 1.021 0 0 0-.343-.383 2.587 2.587 0 0 0-.641-.312 6.477 6.477 0 0 0-.992-.266 10.254 10.254 0 0 1-1.328-.359 4.208 4.208 0 0 1-1.016-.508 2.177 2.177 0 0 1-.664-.68 1.788 1.788 0 0 1-.234-.922c0-.344.08-.664.242-.961.161-.302.388-.565.679-.789a3.431 3.431 0 0 1 1.04-.531 4.36 4.36 0 0 1 1.336-.195c.52 0 .989.067 1.406.203.416.135.771.323 1.062.562.292.24.516.521.672.844.162.318.242.661.242 1.031h-1.445c0-.182-.047-.359-.141-.531a1.521 1.521 0 0 0-.39-.469 2 2 0 0 0-.61-.328 2.375 2.375 0 0 0-.796-.125c-.308 0-.579.034-.813.102a1.758 1.758 0 0 0-.57.273 1.15 1.15 0 0 0-.352.399 1.008 1.008 0 0 0-.117.468c0 .167.031.315.094.446.062.13.172.247.328.351.151.104.354.198.609.281.261.084.589.164.985.243.52.109.987.237 1.398.382.411.141.758.31 1.039.508.281.203.495.438.641.703.151.266.226.573.226.922 0 .375-.086.716-.258 1.024-.166.307-.401.57-.703.789a3.43 3.43 0 0 1-1.086.508 5.07 5.07 0 0 1-1.382.179 4.789 4.789 0 0 1-1.532-.226 3.628 3.628 0 0 1-1.133-.618 2.607 2.607 0 0 1-.718-.874 2.353 2.353 0 0 1-.242-1.04h1.445c.021.297.099.547.234.75.141.204.315.368.524.493.203.125.429.213.679.265.25.052.498.078.743.078.385 0 .721-.044 1.007-.132.287-.094.511-.222.672-.383a1.07 1.07 0 0 0 .227-.328.954.954 0 0 0 .078-.383Zm7.414-8.258v2.047h3.219v1.117h-3.219v4.594c0 .328.042.599.125.812a1.252 1.252 0 0 0 .844.782c.192.052.396.078.609.078.156 0 .318-.008.485-.024a14.931 14.931 0 0 0 .929-.148l.344-.078.203 1.023c-.12.073-.266.138-.437.195-.172.053-.36.097-.563.133a5.83 5.83 0 0 1-.648.094 7.195 7.195 0 0 1-.672.031c-.375 0-.727-.052-1.055-.156a2.191 2.191 0 0 1-.844-.516 2.422 2.422 0 0 1-.57-.89c-.135-.37-.203-.815-.203-1.336v-4.594h-2.219v-1.117h2.219V322.5h1.453Zm21.352 10.5a1.626 1.626 0 0 1-.141-.406 5.258 5.258 0 0 1-.07-.516c-.146.146-.31.284-.493.414a3.421 3.421 0 0 1-1.281.578 3.38 3.38 0 0 1-.781.086c-.448 0-.854-.065-1.219-.195a2.76 2.76 0 0 1-.914-.531 2.297 2.297 0 0 1-.594-.782 2.438 2.438 0 0 1-.203-.992c0-.463.091-.87.274-1.218.187-.349.45-.641.789-.876a3.7 3.7 0 0 1 1.218-.515 6.885 6.885 0 0 1 1.602-.172h1.578v-.664a1.512 1.512 0 0 0-.539-1.211 1.86 1.86 0 0 0-.633-.328 2.72 2.72 0 0 0-.828-.117c-.286 0-.544.036-.773.109a1.9 1.9 0 0 0-.571.289c-.156.12-.278.263-.367.43a1.096 1.096 0 0 0-.125.508h-1.453c.005-.308.083-.61.235-.907.156-.296.38-.565.671-.804a3.468 3.468 0 0 1 1.047-.571 4.288 4.288 0 0 1 1.414-.218c.479 0 .925.06 1.336.179a3.07 3.07 0 0 1 1.071.524c.296.239.531.536.703.89.172.355.258.769.258 1.243v3.929c0 .282.026.581.078.899.052.312.125.586.218.82V333h-1.507Zm-2.555-1.102c.281 0 .544-.036.789-.109.245-.073.469-.169.672-.289.198-.12.37-.255.515-.406a2.05 2.05 0 0 0 .344-.485v-1.711h-1.344c-.5 0-.937.045-1.312.133-.37.084-.664.214-.883.391a1.278 1.278 0 0 0-.359.445 1.403 1.403 0 0 0-.117.586c0 .208.033.401.101.578.073.177.18.328.32.453.141.131.318.232.532.305.213.073.461.109.742.109Zm6.609 1.102v-8.453h1.297l.102 1.25a3.71 3.71 0 0 1 .406-.485 3.06 3.06 0 0 1 1.289-.773c.297-.094.609-.143.937-.148.443 0 .844.062 1.204.187a2.3 2.3 0 0 1 .929.586c.256.266.451.604.586 1.016.141.406.211.89.211 1.453V333h-1.445v-5.336c0-.375-.042-.693-.125-.953a1.549 1.549 0 0 0-.367-.633 1.475 1.475 0 0 0-.61-.351 2.731 2.731 0 0 0-.812-.11c-.266 0-.513.039-.742.117-.23.073-.44.175-.633.305a2.874 2.874 0 0 0-.438.399c-.13.151-.244.317-.343.5V333h-1.446Zm9.336-4.297c0-.63.078-1.208.235-1.734.161-.531.39-.987.687-1.367a3.01 3.01 0 0 1 2.461-1.211c.505 0 .945.086 1.32.257.381.167.709.412.985.735V321h1.445v12h-1.328l-.063-.891a2.763 2.763 0 0 1-1.007.782c-.391.177-.847.265-1.368.265a2.94 2.94 0 0 1-1.39-.328 3.196 3.196 0 0 1-1.055-.906 4.392 4.392 0 0 1-.68-1.36 5.763 5.763 0 0 1-.242-1.695v-.164Zm1.445.164c0 .412.045.802.133 1.172.089.37.227.695.414.977.183.281.417.505.703.672.287.161.631.242 1.032.242.484 0 .885-.11 1.203-.328.318-.219.57-.513.758-.883v-3.922a2.414 2.414 0 0 0-.758-.844c-.318-.224-.714-.336-1.188-.336-.406 0-.755.084-1.047.25-.286.167-.52.391-.703.672a3.118 3.118 0 0 0-.414.992c-.088.37-.133.761-.133 1.172v.164ZM409.961 333v-11.375h2.633c.442.005.859.052 1.25.141.396.083.76.203 1.094.359a4.3 4.3 0 0 1 1.226.844c.359.343.646.742.859 1.195.193.385.339.807.438 1.266.104.458.159.948.164 1.468v.836c0 .5-.049.974-.148 1.422-.094.448-.232.86-.415 1.235a4.47 4.47 0 0 1-.71 1.062 4.613 4.613 0 0 1-.961.813c-.375.234-.8.414-1.274.539-.469.125-.976.19-1.523.195h-2.633Zm1.469-10.188v9.008h1.164a4.22 4.22 0 0 0 1.133-.156c.343-.099.648-.24.914-.422.281-.187.523-.416.726-.687.209-.276.373-.584.492-.922.105-.276.183-.573.235-.891.052-.323.08-.659.086-1.008v-.851a6.477 6.477 0 0 0-.094-1.016 4.449 4.449 0 0 0-.242-.914 3.551 3.551 0 0 0-.571-.984 2.694 2.694 0 0 0-.867-.719 3.254 3.254 0 0 0-.82-.312 4.197 4.197 0 0 0-.992-.126h-1.164Zm12.023 10.344a4.322 4.322 0 0 1-1.641-.304 3.734 3.734 0 0 1-1.273-.852 3.904 3.904 0 0 1-.828-1.297 4.395 4.395 0 0 1-.297-1.633v-.328c0-.682.109-1.291.328-1.828.219-.542.511-1 .875-1.375a3.78 3.78 0 0 1 1.227-.851 3.584 3.584 0 0 1 1.422-.297c.609 0 1.14.106 1.593.32.459.208.839.497 1.141.867.302.375.526.815.672 1.32.151.506.226 1.053.226 1.641v.649h-6.039v.054c.037.412.118.774.243 1.086.13.313.307.589.531.828.229.255.505.456.828.602.323.146.68.219 1.07.219.516 0 .974-.105 1.375-.313a2.97 2.97 0 0 0 1-.828l.883.687c-.281.428-.703.808-1.266 1.141-.557.328-1.247.492-2.07.492Zm-.187-7.578a2.12 2.12 0 0 0-.828.164 2.141 2.141 0 0 0-.704.461 2.787 2.787 0 0 0-.531.766 3.64 3.64 0 0 0-.297 1.031h4.547v-.07c0-.261-.049-.539-.148-.836a2.44 2.44 0 0 0-.414-.782 2.016 2.016 0 0 0-.672-.531c-.266-.135-.584-.203-.953-.203Zm13.226 3.289c0 .37-.028.727-.086 1.071-.052.338-.13.656-.234.953-.141.39-.326.742-.555 1.054a2.989 2.989 0 0 1-.812.766c-.229.141-.482.25-.758.328a3.18 3.18 0 0 1-.883.117c-.365 0-.698-.044-1-.133a2.806 2.806 0 0 1-.805-.382 3.038 3.038 0 0 1-.625-.602l-.07.961h-1.328v-12h1.445v4.453a2.69 2.69 0 0 1 .399-.406 2.569 2.569 0 0 1 1.156-.57c.25-.058.521-.086.812-.086.365 0 .701.049 1.008.148.308.099.586.237.836.414.224.167.425.37.602.609.177.235.333.498.468.79.141.328.248.692.321 1.093.073.396.109.815.109 1.258v.164Zm-1.445-.164c0-.265-.018-.523-.055-.773a4.311 4.311 0 0 0-.148-.719 3.306 3.306 0 0 0-.367-.758 1.707 1.707 0 0 0-.555-.539 1.926 1.926 0 0 0-.508-.219 2.335 2.335 0 0 0-.625-.078 2.2 2.2 0 0 0-.687.102 1.876 1.876 0 0 0-.555.265c-.167.12-.315.261-.445.422a2.602 2.602 0 0 0-.321.516v3.695c.094.188.203.362.328.524.131.156.279.294.446.414.166.119.354.213.562.281.209.062.438.094.688.094.239 0 .458-.029.656-.086.198-.063.375-.151.531-.266.209-.146.383-.331.524-.555.14-.224.252-.474.336-.75.067-.208.117-.432.148-.671.031-.24.047-.485.047-.735v-.164Zm9.461 4.297-.086-1.164a3.035 3.035 0 0 1-1.055.976c-.422.23-.909.344-1.461.344-.442 0-.844-.067-1.203-.203a2.354 2.354 0 0 1-.922-.648c-.255-.292-.453-.662-.593-1.11-.136-.453-.204-.994-.204-1.625v-5.023h1.446v5.039c0 .458.036.838.109 1.141.073.302.182.541.328.718.146.183.323.31.531.383.214.073.459.11.735.11.323 0 .612-.037.867-.11.255-.078.477-.185.664-.32.156-.11.292-.24.406-.391.12-.156.219-.325.297-.508v-6.062h1.453V333h-1.312Zm3.773-4.297c0-.63.076-1.208.227-1.734a4.13 4.13 0 0 1 .672-1.367 3.103 3.103 0 0 1 1.062-.891 3.05 3.05 0 0 1 1.414-.32c.339 0 .649.039.93.117a2.671 2.671 0 0 1 1.125.617c.115.104.221.219.32.344l.071-.922h1.312v8.273c0 .558-.088 1.052-.266 1.485a3.098 3.098 0 0 1-.726 1.101 3.165 3.165 0 0 1-1.133.688 4.3 4.3 0 0 1-1.453.234c-.219 0-.469-.026-.75-.078a4.173 4.173 0 0 1-.852-.242 3.863 3.863 0 0 1-.843-.446 2.806 2.806 0 0 1-.688-.695l.75-.867c.177.214.359.393.547.539.188.151.378.271.57.359.193.089.386.151.578.188.193.042.386.062.579.062.343 0 .653-.049.929-.148.276-.099.513-.245.711-.438.193-.187.341-.421.445-.703.105-.281.157-.604.157-.968v-.727a3.17 3.17 0 0 1-.352.344c-.12.104-.25.195-.39.273a2.89 2.89 0 0 1-.727.274 3.506 3.506 0 0 1-.859.101c-.516 0-.982-.109-1.399-.328a3.097 3.097 0 0 1-1.054-.906 4.251 4.251 0 0 1-.672-1.36 5.9 5.9 0 0 1-.235-1.695v-.164Zm1.446.164c0 .412.041.802.125 1.172.088.37.226.695.414.977.182.281.416.505.703.672.286.161.63.242 1.031.242.25 0 .474-.029.672-.086.203-.063.385-.149.547-.258.156-.109.297-.24.422-.391a2.75 2.75 0 0 0 .328-.5v-3.875a2.654 2.654 0 0 0-.328-.484 2.153 2.153 0 0 0-.43-.383 2.03 2.03 0 0 0-.539-.242 2.157 2.157 0 0 0-.656-.094c-.407 0-.756.084-1.047.25a2.064 2.064 0 0 0-.703.672 3.073 3.073 0 0 0-.414.992c-.084.37-.125.761-.125 1.172v.164Z" fill="#B0B1C3"/></g><g filter="url(#d)"><path fill-rule="evenodd" clip-rule="evenodd" d="M493.996 279c0-1.104.894-2 1.996-2 1.103 0 1.996.896 1.996 2 0 1.105-.893 2-1.996 2a1.998 1.998 0 0 1-1.996-2Zm1.996-4a3.996 3.996 0 0 0-3.992 4 4 4 0 0 0 2.994 3.874v12.251a4 4 0 0 0-2.994 3.874c0 2.209 1.787 4 3.992 4a3.996 3.996 0 0 0 3.992-4 4 4 0 0 0-2.994-3.874v-7.011a7.177 7.177 0 0 0 5.272 2.307h1.831a3.996 3.996 0 0 0 3.915 3.213 3.996 3.996 0 0 0 3.992-4c0-2.209-1.787-4-3.992-4a3.996 3.996 0 0 0-3.806 2.787h-1.94c-2.887 0-5.252-2.383-5.252-5.353h-.02v-.194a4 4 0 0 0 2.994-3.874c0-2.209-1.787-4-3.992-4Zm12.016 12.634a1.997 1.997 0 0 0-1.996 2c0 1.104.893 2 1.996 2a1.999 1.999 0 0 0 1.996-2c0-1.105-.894-2-1.996-2Zm-14.012 11.365c0-1.104.894-2 1.996-2 1.103 0 1.996.896 1.996 2 0 1.105-.893 2-1.996 2a1.998 1.998 0 0 1-1.996-2Z" fill="#000418" fill-opacity=".506"/><path d="m488.945 321.625 1.852 5.687 2-5.687h1.797V333h-1.406v-4.539l.117-4.75-2.102 6.125h-.828l-1.93-5.961.117 4.586V333h-1.406v-11.375h1.789Zm11.758 11.531a4.322 4.322 0 0 1-1.641-.304 3.734 3.734 0 0 1-1.273-.852 3.904 3.904 0 0 1-.828-1.297 4.395 4.395 0 0 1-.297-1.633v-.328c0-.682.109-1.291.328-1.828.219-.542.511-1 .875-1.375a3.78 3.78 0 0 1 1.227-.851 3.584 3.584 0 0 1 1.422-.297c.609 0 1.14.106 1.593.32.459.208.839.497 1.141.867.302.375.526.815.672 1.32.151.506.226 1.053.226 1.641v.649h-6.039v.054c.037.412.118.774.243 1.086.13.313.307.589.531.828.229.255.505.456.828.602.323.146.68.219 1.07.219.516 0 .974-.105 1.375-.313a2.97 2.97 0 0 0 1-.828l.883.687c-.281.428-.703.808-1.266 1.141-.557.328-1.247.492-2.07.492Zm-.187-7.578a2.12 2.12 0 0 0-.828.164 2.141 2.141 0 0 0-.704.461 2.787 2.787 0 0 0-.531.766 3.64 3.64 0 0 0-.297 1.031h4.547v-.07c0-.261-.049-.539-.148-.836a2.44 2.44 0 0 0-.414-.782 2.016 2.016 0 0 0-.672-.531c-.266-.135-.584-.203-.953-.203Zm11.601-1.187c.266 0 .542.018.828.054.292.037.511.086.657.149l-.196 1.414a6.862 6.862 0 0 0-.804-.133 6.417 6.417 0 0 0-.79-.047c-.354 0-.674.044-.96.133a2.276 2.276 0 0 0-1.258.914 3.165 3.165 0 0 0-.352.703V333h-1.453v-8.453h1.375l.063 1.133.007.211a3.849 3.849 0 0 1 1.235-1.094c.484-.271 1.034-.406 1.648-.406Zm3.805 4.312c0-.63.075-1.208.226-1.734.157-.531.381-.987.672-1.367a3.107 3.107 0 0 1 1.063-.891c.416-.214.888-.32 1.414-.32.338 0 .648.039.93.117a2.671 2.671 0 0 1 1.125.617c.114.104.221.219.32.344l.07-.922h1.313v8.273c0 .558-.089 1.052-.266 1.485a3.1 3.1 0 0 1-.727 1.101 3.16 3.16 0 0 1-1.132.688 4.304 4.304 0 0 1-1.453.234c-.219 0-.469-.026-.75-.078a4.138 4.138 0 0 1-.852-.242 3.87 3.87 0 0 1-.844-.446 2.802 2.802 0 0 1-.687-.695l.75-.867c.177.214.359.393.547.539.187.151.377.271.57.359.193.089.385.151.578.188.193.042.385.062.578.062.344 0 .654-.049.93-.148.276-.099.513-.245.711-.438.193-.187.341-.421.445-.703a2.78 2.78 0 0 0 .156-.968v-.727c-.109.125-.226.24-.351.344a2.28 2.28 0 0 1-.391.273c-.219.12-.461.211-.726.274a3.509 3.509 0 0 1-.86.101c-.515 0-.982-.109-1.398-.328a3.1 3.1 0 0 1-1.055-.906 4.251 4.251 0 0 1-.672-1.36 5.935 5.935 0 0 1-.234-1.695v-.164Zm1.445.164c0 .412.042.802.125 1.172.089.37.227.695.414.977.183.281.417.505.703.672.287.161.631.242 1.032.242.25 0 .474-.029.671-.086.204-.063.386-.149.547-.258.157-.109.297-.24.422-.391.125-.151.235-.317.328-.5v-3.875a2.605 2.605 0 0 0-.328-.484 2.147 2.147 0 0 0-.429-.383 2.036 2.036 0 0 0-.54-.242 2.148 2.148 0 0 0-.656-.094c-.406 0-.755.084-1.047.25-.286.167-.52.391-.703.672a3.118 3.118 0 0 0-.414.992c-.083.37-.125.761-.125 1.172v.164Zm12.164 4.289a4.32 4.32 0 0 1-1.64-.304 3.729 3.729 0 0 1-2.102-2.149 4.395 4.395 0 0 1-.297-1.633v-.328c0-.682.11-1.291.328-1.828.219-.542.511-1 .875-1.375a3.79 3.79 0 0 1 1.227-.851 3.584 3.584 0 0 1 1.422-.297c.609 0 1.14.106 1.594.32.458.208.838.497 1.14.867.302.375.526.815.672 1.32.151.506.227 1.053.227 1.641v.649h-6.039v.054c.036.412.117.774.242 1.086.13.313.307.589.531.828.229.255.505.456.828.602.323.146.68.219 1.07.219.516 0 .974-.105 1.375-.313a2.97 2.97 0 0 0 1-.828l.883.687c-.281.428-.703.808-1.265 1.141-.558.328-1.248.492-2.071.492Zm-.187-7.578a2.12 2.12 0 0 0-.828.164 2.141 2.141 0 0 0-.704.461 2.787 2.787 0 0 0-.531.766c-.14.297-.239.64-.297 1.031h4.547v-.07c0-.261-.049-.539-.148-.836a2.44 2.44 0 0 0-.414-.782 2.016 2.016 0 0 0-.672-.531c-.266-.135-.583-.203-.953-.203Zm19.094-3.078v2.047h3.218v1.117h-3.218v4.594c0 .328.041.599.124.812a1.256 1.256 0 0 0 .844.782c.193.052.396.078.61.078.156 0 .317-.008.484-.024a14.205 14.205 0 0 0 .93-.148l.343-.078.204 1.023a2.14 2.14 0 0 1-.438.195 4.694 4.694 0 0 1-.562.133c-.204.042-.42.073-.649.094a7.195 7.195 0 0 1-.672.031c-.375 0-.726-.052-1.054-.156a2.184 2.184 0 0 1-.844-.516 2.397 2.397 0 0 1-.57-.89c-.136-.37-.204-.815-.204-1.336v-4.594h-2.218v-1.117h2.218V322.5h1.454Zm5.781 6.195c0-.609.088-1.174.265-1.695.177-.526.433-.982.766-1.367a3.446 3.446 0 0 1 1.203-.906 3.704 3.704 0 0 1 1.602-.336c.599 0 1.135.112 1.609.336.479.218.885.52 1.219.906.328.385.581.841.758 1.367.177.521.265 1.086.265 1.695v.172c0 .61-.088 1.175-.265 1.695-.177.521-.43.974-.758 1.36a3.558 3.558 0 0 1-1.211.906c-.474.219-1.008.328-1.602.328a3.845 3.845 0 0 1-1.617-.328 3.47 3.47 0 0 1-1.203-.906 4.053 4.053 0 0 1-.766-1.36 5.229 5.229 0 0 1-.265-1.695v-.172Zm1.445.172c0 .417.05.815.148 1.195.099.376.25.706.454.993.198.286.448.513.75.679.302.167.653.25 1.054.25.396 0 .742-.083 1.039-.25a2.25 2.25 0 0 0 .758-.679c.198-.287.347-.617.445-.993a4.72 4.72 0 0 0 .149-1.195v-.172c0-.411-.052-.804-.156-1.179a3.116 3.116 0 0 0-.446-1 2.25 2.25 0 0 0-.757-.68 2.052 2.052 0 0 0-1.047-.258c-.401 0-.75.086-1.047.258a2.202 2.202 0 0 0-.742.68 3.003 3.003 0 0 0-.454 1 4.645 4.645 0 0 0-.148 1.179v.172Zm18.844-4.32.039.797a1.92 1.92 0 0 1 .672-.696c.281-.166.62-.252 1.015-.257.224 0 .425.026.602.078.182.047.341.117.476.211.099.073.188.161.266.265.083.104.154.222.211.352a1.976 1.976 0 0 1 .578-.609c.146-.089.307-.159.485-.211.182-.053.38-.081.593-.086.292 0 .555.044.789.132.235.084.433.209.594.375.177.188.313.433.406.735.094.297.141.648.141 1.055V333H580v-6.328c0-.177-.021-.333-.062-.469a.914.914 0 0 0-.18-.336.786.786 0 0 0-.313-.187 1.271 1.271 0 0 0-.422-.063c-.171 0-.32.024-.445.071a.907.907 0 0 0-.312.187.907.907 0 0 0-.196.289 1.173 1.173 0 0 0-.093.352V333h-1.375v-6.336a1.59 1.59 0 0 0-.063-.469.767.767 0 0 0-.18-.336.658.658 0 0 0-.297-.179 1.178 1.178 0 0 0-.406-.063c-.172 0-.323.021-.453.063a.874.874 0 0 0-.5.359 1.218 1.218 0 0 0-.117.234V333h-1.375v-8.453h1.297Zm14.5 8.453a1.71 1.71 0 0 1-.141-.406 5.258 5.258 0 0 1-.07-.516 3.896 3.896 0 0 1-1.078.758 3.745 3.745 0 0 1-.696.234 3.375 3.375 0 0 1-.781.086c-.448 0-.854-.065-1.219-.195a2.76 2.76 0 0 1-.914-.531 2.281 2.281 0 0 1-.593-.782 2.423 2.423 0 0 1-.204-.992c0-.463.092-.87.274-1.218.187-.349.45-.641.789-.876a3.706 3.706 0 0 1 1.219-.515 6.87 6.87 0 0 1 1.601-.172h1.578v-.664a1.512 1.512 0 0 0-.539-1.211 1.854 1.854 0 0 0-.632-.328 2.726 2.726 0 0 0-.829-.117c-.286 0-.544.036-.773.109a1.883 1.883 0 0 0-.57.289c-.157.12-.279.263-.368.43a1.095 1.095 0 0 0-.124.508h-1.454a2.07 2.07 0 0 1 .235-.907c.156-.296.38-.565.672-.804a3.444 3.444 0 0 1 1.047-.571 4.284 4.284 0 0 1 1.414-.218c.479 0 .924.06 1.336.179.411.115.768.289 1.07.524.297.239.531.536.703.89.172.355.258.769.258 1.243v3.929c0 .282.026.581.078.899.052.312.125.586.219.82V333h-1.508Zm-2.555-1.102c.281 0 .544-.036.789-.109.245-.073.469-.169.672-.289.198-.12.37-.255.516-.406.146-.156.26-.318.343-.485v-1.711h-1.343c-.5 0-.938.045-1.313.133-.37.084-.664.214-.883.391a1.278 1.278 0 0 0-.359.445 1.403 1.403 0 0 0-.117.586c0 .208.034.401.101.578.073.177.18.328.321.453.14.131.317.232.531.305.213.073.461.109.742.109Zm6.836-7.351h4.32v7.203h2.758V333h-7.078v-1.25h2.875v-5.945h-2.875v-1.258Zm2.688-2.219c0-.125.018-.242.054-.351a.736.736 0 0 1 .446-.438c.109-.042.231-.062.367-.062.135 0 .255.02.359.062.104.037.19.089.258.156a.67.67 0 0 1 .187.274.992.992 0 0 1 .063.359c0 .234-.073.43-.219.586-.146.156-.362.234-.648.234-.292 0-.511-.078-.656-.234a.842.842 0 0 1-.211-.586ZM602.672 333v-8.453h1.297l.101 1.25c.125-.177.261-.339.407-.485a3.06 3.06 0 0 1 1.289-.773c.296-.094.609-.143.937-.148.443 0 .844.062 1.203.187.365.125.675.32.93.586.255.266.45.604.586 1.016.14.406.211.89.211 1.453V333h-1.445v-5.336a3.13 3.13 0 0 0-.126-.953 1.538 1.538 0 0 0-.367-.633 1.465 1.465 0 0 0-.609-.351 2.734 2.734 0 0 0-.813-.11 2.29 2.29 0 0 0-.742.117 2.47 2.47 0 0 0-.633.305 2.821 2.821 0 0 0-.437.399c-.13.151-.245.317-.344.5V333h-1.445Zm26.383-4.133c0 .37-.029.727-.086 1.071a5.25 5.25 0 0 1-.235.953c-.14.39-.325.742-.554 1.054a2.979 2.979 0 0 1-.813.766c-.229.141-.482.25-.758.328-.27.078-.565.117-.882.117-.365 0-.698-.044-1-.133a2.793 2.793 0 0 1-.805-.382 3.038 3.038 0 0 1-.625-.602l-.07.961h-1.329v-12h1.446v4.453c.12-.151.252-.286.398-.406.146-.125.302-.232.469-.32.208-.11.437-.193.687-.25.25-.058.521-.086.813-.086.365 0 .7.049 1.008.148.307.099.586.237.836.414.224.167.424.37.601.609.177.235.334.498.469.79.141.328.247.692.32 1.093.073.396.11.815.11 1.258v.164Zm-1.446-.164c0-.265-.018-.523-.054-.773a4.31 4.31 0 0 0-.149-.719 3.306 3.306 0 0 0-.367-.758 1.707 1.707 0 0 0-.555-.539 1.933 1.933 0 0 0-.507-.219 2.34 2.34 0 0 0-.625-.078c-.25 0-.48.034-.688.102a1.9 1.9 0 0 0-.555.265 2.31 2.31 0 0 0-.445.422 2.553 2.553 0 0 0-.32.516v3.695c.094.188.203.362.328.524.13.156.279.294.445.414.167.119.354.213.563.281.208.062.437.094.687.094.24 0 .459-.029.656-.086a1.83 1.83 0 0 0 .532-.266c.208-.146.383-.331.523-.555.141-.224.253-.474.336-.75.068-.208.117-.432.148-.671.032-.24.047-.485.047-.735v-.164Zm9.43-4.312c.266 0 .542.018.828.054.292.037.511.086.656.149l-.195 1.414a6.843 6.843 0 0 0-.805-.133 6.412 6.412 0 0 0-.789-.047c-.354 0-.674.044-.961.133a2.203 2.203 0 0 0-.75.375 2.273 2.273 0 0 0-.507.539 3.165 3.165 0 0 0-.352.703V333h-1.453v-8.453h1.375l.062 1.133.008.211a3.838 3.838 0 0 1 1.235-1.094c.484-.271 1.033-.406 1.648-.406Zm9.625 8.609a1.71 1.71 0 0 1-.141-.406 5.579 5.579 0 0 1-.07-.516c-.146.146-.31.284-.492.414a3.393 3.393 0 0 1-1.281.578 3.39 3.39 0 0 1-.782.086c-.447 0-.854-.065-1.218-.195a2.75 2.75 0 0 1-.914-.531 2.272 2.272 0 0 1-.594-.782 2.422 2.422 0 0 1-.203-.992c0-.463.091-.87.273-1.218.188-.349.451-.641.789-.876a3.706 3.706 0 0 1 1.219-.515 6.873 6.873 0 0 1 1.602-.172h1.578v-.664a1.521 1.521 0 0 0-.539-1.211 1.86 1.86 0 0 0-.633-.328 2.724 2.724 0 0 0-.828-.117c-.287 0-.545.036-.774.109a1.883 1.883 0 0 0-.57.289 1.31 1.31 0 0 0-.367.43 1.084 1.084 0 0 0-.125.508h-1.453c.005-.308.083-.61.234-.907.156-.296.38-.565.672-.804a3.444 3.444 0 0 1 1.047-.571 4.284 4.284 0 0 1 1.414-.218c.479 0 .924.06 1.336.179.411.115.768.289 1.07.524.297.239.531.536.703.89.172.355.258.769.258 1.243v3.929c0 .282.026.581.078.899.052.312.125.586.219.82V333h-1.508Zm-2.555-1.102c.282 0 .545-.036.789-.109.245-.073.469-.169.672-.289.198-.12.37-.255.516-.406.146-.156.26-.318.344-.485v-1.711h-1.344c-.5 0-.938.045-1.313.133-.369.084-.664.214-.882.391a1.281 1.281 0 0 0-.36.445 1.403 1.403 0 0 0-.117.586c0 .208.034.401.102.578.073.177.179.328.32.453.141.131.318.232.531.305.214.073.461.109.742.109Zm6.61 1.102v-8.453h1.297l.101 1.25a3.79 3.79 0 0 1 .406-.485 3.068 3.068 0 0 1 1.289-.773c.297-.094.61-.143.938-.148.443 0 .844.062 1.203.187.365.125.675.32.93.586.255.266.45.604.586 1.016.14.406.211.89.211 1.453V333h-1.446v-5.336c0-.375-.041-.693-.125-.953a1.538 1.538 0 0 0-.367-.633 1.471 1.471 0 0 0-.609-.351 2.738 2.738 0 0 0-.813-.11 2.29 2.29 0 0 0-.742.117 2.47 2.47 0 0 0-.633.305 2.821 2.821 0 0 0-.437.399c-.13.151-.245.317-.344.5V333h-1.445Zm13.211-1.016c.26 0 .513-.041.758-.125.25-.083.471-.2.664-.351.192-.146.346-.318.46-.516.12-.203.183-.422.188-.656h1.367a2.235 2.235 0 0 1-.297 1.078c-.187.339-.44.635-.758.891a3.713 3.713 0 0 1-2.382.851c-.641 0-1.201-.114-1.68-.344a3.413 3.413 0 0 1-1.195-.929 3.925 3.925 0 0 1-.727-1.336 5.321 5.321 0 0 1-.242-1.609v-.329c0-.557.081-1.091.242-1.601a3.99 3.99 0 0 1 .727-1.352 3.466 3.466 0 0 1 1.195-.922c.479-.229 1.039-.343 1.68-.343.5 0 .958.08 1.375.242.422.156.786.37 1.093.64.303.276.54.602.711.977.172.375.258.776.258 1.203H666a1.687 1.687 0 0 0-.172-.719 1.887 1.887 0 0 0-.43-.601 1.992 1.992 0 0 0-.656-.406 2.187 2.187 0 0 0-.812-.149c-.448 0-.826.091-1.133.274a2.185 2.185 0 0 0-.735.695 3.104 3.104 0 0 0-.406.976c-.078.36-.117.722-.117 1.086v.329c0 .369.039.736.117 1.101.084.359.219.682.406.969.183.291.425.528.727.711.307.177.688.265 1.141.265Zm7.453-6.179c.114-.172.242-.328.383-.469.14-.146.289-.274.445-.383.25-.182.523-.32.82-.414a3.514 3.514 0 0 1 2.164.047c.365.125.675.323.93.594.255.271.451.614.586 1.031.141.411.211.901.211 1.469V333h-1.445v-5.336c0-.333-.039-.625-.118-.875a1.645 1.645 0 0 0-.343-.633 1.473 1.473 0 0 0-.61-.406 2.244 2.244 0 0 0-.844-.133c-.26 0-.507.037-.742.11-.234.072-.45.177-.648.312a2.699 2.699 0 0 0-.789.82V333h-1.445v-12h1.445v4.805Z" fill="#B0B1C3"/></g><circle cx="699" cy="223" r="6" fill="#30A46C"/><path d="M822.59 280.72a4.049 4.049 0 0 1-.33 1.18 3.006 3.006 0 0 1-.641.914c-.266.259-.582.46-.946.603-.359.14-.761.21-1.206.21a3.23 3.23 0 0 1-1.041-.159 2.882 2.882 0 0 1-.825-.45 3.03 3.03 0 0 1-.635-.673 4.071 4.071 0 0 1-.431-.845 5.018 5.018 0 0 1-.267-.958 6.73 6.73 0 0 1-.089-1.016v-1.288a6.73 6.73 0 0 1 .089-1.016c.059-.334.148-.654.267-.958.114-.305.258-.586.431-.845.178-.262.39-.488.635-.679.241-.19.516-.338.825-.444a3.09 3.09 0 0 1 1.041-.165c.462 0 .874.072 1.238.216a2.7 2.7 0 0 1 .94.596c.262.263.471.576.628.94.161.364.267.766.317 1.206h-1.174a3.463 3.463 0 0 0-.197-.781 2.164 2.164 0 0 0-.374-.635 1.622 1.622 0 0 0-.578-.425 1.856 1.856 0 0 0-.8-.159c-.279 0-.527.047-.742.14a1.638 1.638 0 0 0-.546.368 2.153 2.153 0 0 0-.394.546 3.71 3.71 0 0 0-.247.66 4.98 4.98 0 0 0-.14.718 6.832 6.832 0 0 0-.038.704v1.301c0 .229.013.466.038.711.03.242.076.478.14.711.063.237.146.459.247.667.102.207.231.389.387.546.157.16.341.287.553.381.211.088.459.133.742.133.309 0 .576-.049.8-.146.229-.098.421-.235.578-.413.156-.173.281-.379.374-.616.093-.241.159-.501.197-.78h1.174Zm1.492-.718c0-.495.072-.954.216-1.377.144-.427.351-.798.622-1.111.267-.313.592-.558.977-.736a3.013 3.013 0 0 1 1.302-.273c.486 0 .922.091 1.307.273.39.178.72.423.991.736.266.313.471.684.615 1.111.144.423.216.882.216 1.377v.14c0 .495-.072.954-.216 1.378a3.353 3.353 0 0 1-.615 1.104 2.874 2.874 0 0 1-.984.736 3.067 3.067 0 0 1-1.302.267 3.13 3.13 0 0 1-1.314-.267 2.81 2.81 0 0 1-.977-.736 3.28 3.28 0 0 1-.622-1.104 4.257 4.257 0 0 1-.216-1.378v-.14Zm1.174.14c0 .339.041.662.121.971.08.305.203.574.368.806.161.233.364.417.609.553.246.135.532.203.857.203.322 0 .603-.068.845-.203.245-.136.45-.32.615-.553.161-.232.282-.501.362-.806a3.81 3.81 0 0 0 .121-.971v-.14a3.59 3.59 0 0 0-.127-.958 2.556 2.556 0 0 0-.362-.813 1.84 1.84 0 0 0-.616-.552 1.671 1.671 0 0 0-.85-.209c-.326 0-.61.07-.851.209-.241.136-.442.32-.603.552a2.459 2.459 0 0 0-.368.813 3.76 3.76 0 0 0-.121.958v.14Zm6.964 3.358v-6.868h1.053l.083 1.015c.102-.143.212-.275.33-.393.123-.123.252-.229.387-.317a2.663 2.663 0 0 1 1.422-.432c.36 0 .686.051.978.152.296.102.548.26.755.476.207.216.366.491.476.825.114.331.171.724.171 1.181v4.361h-1.174v-4.335c0-.305-.034-.563-.101-.775a1.26 1.26 0 0 0-.299-.514 1.207 1.207 0 0 0-.495-.286 2.229 2.229 0 0 0-.66-.089c-.216 0-.417.032-.603.096a1.968 1.968 0 0 0-.514.247 2.303 2.303 0 0 0-.356.324 2.333 2.333 0 0 0-.279.406v4.926h-1.174Zm7.807 0v-6.868h1.054l.083 1.015c.101-.143.211-.275.33-.393.122-.123.251-.229.387-.317a2.652 2.652 0 0 1 1.422-.432c.359 0 .685.051.977.152.296.102.548.26.756.476.207.216.366.491.476.825.114.331.171.724.171 1.181v4.361h-1.174v-4.335c0-.305-.034-.563-.102-.775a1.247 1.247 0 0 0-.298-.514 1.22 1.22 0 0 0-.495-.286 2.238 2.238 0 0 0-.66-.089c-.216 0-.417.032-.603.096a1.975 1.975 0 0 0-.515.247 2.296 2.296 0 0 0-.355.324 2.28 2.28 0 0 0-.279.406v4.926h-1.175Zm10.842.127a3.51 3.51 0 0 1-1.333-.248 3.029 3.029 0 0 1-1.035-.691 3.174 3.174 0 0 1-.672-1.054 3.57 3.57 0 0 1-.242-1.327v-.266c0-.555.089-1.05.267-1.486.178-.44.415-.812.711-1.117.292-.3.624-.531.997-.692a2.907 2.907 0 0 1 1.155-.241c.495 0 .927.087 1.295.26.372.169.681.404.926.705.246.304.428.662.546 1.072.123.411.184.855.184 1.333v.527h-4.906v.045c.029.334.095.628.196.882.106.254.25.478.432.673.186.207.411.37.673.489.262.118.552.177.87.177a2.39 2.39 0 0 0 1.117-.253c.326-.17.596-.394.812-.673l.718.558c-.229.347-.572.656-1.029.927-.453.267-1.013.4-1.682.4Zm-.152-6.157a1.72 1.72 0 0 0-.673.133 1.72 1.72 0 0 0-.571.375c-.17.169-.313.376-.432.622-.114.241-.195.52-.241.838h3.694v-.058c0-.211-.04-.438-.12-.679a1.993 1.993 0 0 0-.337-.635 1.636 1.636 0 0 0-.546-.431 1.687 1.687 0 0 0-.774-.165Zm7.852 5.205c.211 0 .417-.034.616-.102.203-.067.383-.163.539-.285.157-.119.282-.259.375-.419.097-.165.148-.343.152-.534h1.111a1.822 1.822 0 0 1-.241.876 2.451 2.451 0 0 1-.616.724 3.14 3.14 0 0 1-.889.508 3.005 3.005 0 0 1-1.047.184c-.521 0-.976-.093-1.365-.279a2.78 2.78 0 0 1-.971-.756 3.18 3.18 0 0 1-.59-1.085 4.289 4.289 0 0 1-.197-1.308v-.266c0-.453.065-.887.197-1.302a3.25 3.25 0 0 1 .59-1.098 2.81 2.81 0 0 1 .971-.749c.389-.186.844-.279 1.365-.279.406 0 .778.065 1.117.197.343.127.639.3.889.52.245.224.438.489.577.794.14.304.21.63.21.977h-1.111a1.375 1.375 0 0 0-.14-.584 1.541 1.541 0 0 0-.349-.489 1.644 1.644 0 0 0-.533-.33 1.784 1.784 0 0 0-.66-.12c-.364 0-.671.074-.921.222a1.773 1.773 0 0 0-.596.565 2.464 2.464 0 0 0-.33.793 4.11 4.11 0 0 0-.096.883v.266c0 .301.032.599.096.895.067.292.177.555.33.787.148.237.345.43.59.578.25.144.559.216.927.216Zm7.661-7.706v1.663h2.616v.908h-2.616v3.732c0 .267.034.487.102.66a1.026 1.026 0 0 0 .686.635c.156.042.321.063.495.063a4.097 4.097 0 0 0 .793-.076c.127-.021.246-.042.356-.063l.279-.064.165.832a1.722 1.722 0 0 1-.356.158 3.748 3.748 0 0 1-.457.108c-.165.034-.34.06-.526.077a6.233 6.233 0 0 1-.546.025c-.305 0-.591-.042-.857-.127a1.793 1.793 0 0 1-.686-.419 1.956 1.956 0 0 1-.463-.724c-.11-.3-.165-.662-.165-1.085v-3.732h-1.803v-.908h1.803v-1.663h1.18Zm15.616 0v1.663h2.615v.908h-2.615v3.732c0 .267.034.487.101.66a1.018 1.018 0 0 0 .686.635c.156.042.321.063.495.063a4.097 4.097 0 0 0 .793-.076c.127-.021.246-.042.356-.063l.279-.064.165.832a1.737 1.737 0 0 1-.355.158c-.14.043-.292.079-.457.108-.165.034-.341.06-.527.077a6.233 6.233 0 0 1-.546.025c-.305 0-.59-.042-.857-.127a1.801 1.801 0 0 1-.686-.419 1.956 1.956 0 0 1-.463-.724c-.11-.3-.165-.662-.165-1.085v-3.732h-1.803v-.908h1.803v-1.663h1.181Zm4.697 5.033c0-.495.072-.954.216-1.377.144-.427.351-.798.622-1.111.266-.313.592-.558.977-.736a3.01 3.01 0 0 1 1.302-.273c.486 0 .922.091 1.307.273.39.178.72.423.991.736.266.313.471.684.615 1.111.144.423.216.882.216 1.377v.14c0 .495-.072.954-.216 1.378a3.353 3.353 0 0 1-.615 1.104 2.874 2.874 0 0 1-.984.736 3.067 3.067 0 0 1-1.302.267 3.13 3.13 0 0 1-1.314-.267 2.8 2.8 0 0 1-.977-.736 3.28 3.28 0 0 1-.622-1.104 4.257 4.257 0 0 1-.216-1.378v-.14Zm1.174.14c0 .339.04.662.121.971.08.305.203.574.368.806.161.233.364.417.609.553.246.135.532.203.857.203.322 0 .603-.068.845-.203.245-.136.45-.32.615-.553.161-.232.282-.501.362-.806a3.81 3.81 0 0 0 .121-.971v-.14a3.59 3.59 0 0 0-.127-.958 2.556 2.556 0 0 0-.362-.813 1.84 1.84 0 0 0-.616-.552 1.671 1.671 0 0 0-.85-.209c-.326 0-.61.07-.851.209-.241.136-.442.32-.603.552a2.459 2.459 0 0 0-.368.813 3.715 3.715 0 0 0-.121.958v.14Zm20.751 2.146a3.58 3.58 0 0 1-.959.818 3.462 3.462 0 0 1-.958.394 4.106 4.106 0 0 1-1.079.127 3.35 3.35 0 0 1-1.054-.171 3.22 3.22 0 0 1-1.523-1.162 4.209 4.209 0 0 1-.477-.87 4.994 4.994 0 0 1-.298-.971 6.11 6.11 0 0 1-.101-1.035v-1.072c.004-.343.033-.684.088-1.022a5.44 5.44 0 0 1 .267-.984c.119-.313.267-.603.444-.87.178-.271.392-.505.641-.704.246-.195.525-.349.838-.464a3.07 3.07 0 0 1 1.054-.171c.432 0 .83.068 1.193.203.364.131.682.319.953.565.27.25.488.55.653.901.165.347.267.737.305 1.168h-1.162a3.236 3.236 0 0 0-.215-.736 1.905 1.905 0 0 0-.381-.584 1.692 1.692 0 0 0-.572-.375 1.96 1.96 0 0 0-.768-.139c-.279 0-.526.048-.742.146-.216.093-.404.22-.565.381-.161.16-.294.349-.4.565a3.79 3.79 0 0 0-.26.672 4.575 4.575 0 0 0-.146.724c-.03.246-.045.482-.045.711v1.085c.004.233.023.474.057.724.038.246.096.487.172.724.076.237.173.461.292.673.118.211.262.397.431.558.165.161.358.29.578.387.22.093.47.142.749.146.161.005.328-.002.501-.019.178-.017.35-.05.515-.101.165-.051.319-.119.463-.203.144-.089.265-.203.362-.343l.013-2.076h-1.879v-.99h2.996l.019 3.39Zm2.012-5.656h3.51v5.852h2.241v1.016h-5.751v-1.016h2.336v-4.83h-2.336v-1.022Zm2.184-1.803c0-.101.014-.197.044-.286a.613.613 0 0 1 .152-.228.55.55 0 0 1 .21-.127.828.828 0 0 1 .298-.051c.11 0 .208.017.292.051a.55.55 0 0 1 .21.127.554.554 0 0 1 .152.222.81.81 0 0 1 .051.292.668.668 0 0 1-.178.476c-.118.127-.294.191-.527.191-.237 0-.415-.064-.533-.191a.685.685 0 0 1-.171-.476Zm8.22.14v1.663h2.615v.908h-2.615v3.732c0 .267.034.487.101.66a1.018 1.018 0 0 0 .686.635c.156.042.322.063.495.063.127 0 .258-.006.394-.019a11.966 11.966 0 0 0 .755-.12l.279-.064.165.832a1.737 1.737 0 0 1-.355.158c-.14.043-.292.079-.457.108-.165.034-.341.06-.527.077a6.233 6.233 0 0 1-.546.025c-.305 0-.59-.042-.857-.127a1.79 1.79 0 0 1-.685-.419 1.945 1.945 0 0 1-.464-.724c-.11-.3-.165-.662-.165-1.085v-3.732H917.9v-.908h1.803v-1.663h1.181Zm9.591 6.709a.826.826 0 0 0-.082-.374.83.83 0 0 0-.28-.311 2.116 2.116 0 0 0-.52-.254 5.177 5.177 0 0 0-.806-.216 8.189 8.189 0 0 1-1.079-.292 3.406 3.406 0 0 1-.826-.413 1.756 1.756 0 0 1-.539-.552 1.449 1.449 0 0 1-.191-.749c0-.279.066-.539.197-.781.131-.245.315-.459.552-.641.237-.182.519-.326.845-.431.33-.106.692-.159 1.085-.159.423 0 .804.055 1.143.165.338.11.626.262.863.457s.419.423.546.685c.131.259.197.538.197.838h-1.175a.888.888 0 0 0-.114-.431 1.233 1.233 0 0 0-.317-.381 1.644 1.644 0 0 0-.495-.267 1.95 1.95 0 0 0-.648-.101c-.25 0-.47.027-.66.082a1.426 1.426 0 0 0-.463.222.938.938 0 0 0-.286.324.814.814 0 0 0-.095.381c0 .135.025.256.076.362a.728.728 0 0 0 .266.285c.123.085.288.161.496.229.211.068.478.133.799.197.424.089.802.192 1.137.311.334.114.615.252.844.412.228.165.402.356.52.572.123.215.184.465.184.749 0 .304-.069.582-.209.831-.135.25-.326.464-.571.641-.246.178-.54.316-.883.413a4.108 4.108 0 0 1-1.123.146c-.466 0-.88-.061-1.244-.184a2.936 2.936 0 0 1-.921-.502 2.125 2.125 0 0 1-.584-.711 1.913 1.913 0 0 1-.197-.844h1.175c.017.241.08.445.19.61.114.165.256.298.426.4.165.101.349.173.552.215.203.043.404.064.603.064.313 0 .586-.036.819-.108.232-.076.414-.18.546-.311a.881.881 0 0 0 .184-.267.775.775 0 0 0 .063-.311Zm3.237 4.463v-9.509h1.073l.057.749a2.194 2.194 0 0 1 .66-.565c.178-.102.375-.178.591-.229.22-.055.455-.082.704-.082.44 0 .83.087 1.168.26.339.174.622.415.851.724.228.309.402.679.52 1.111.119.427.178.897.178 1.409v.133c0 .491-.059.95-.178 1.378a3.415 3.415 0 0 1-.52 1.104 2.406 2.406 0 0 1-2 1.003c-.262 0-.507-.028-.736-.083a2.455 2.455 0 0 1-.609-.234 2.729 2.729 0 0 1-.311-.21 2.488 2.488 0 0 1-.273-.26v3.301h-1.175Zm4.628-6.132c0-.335-.038-.652-.114-.952a2.504 2.504 0 0 0-.337-.807 1.767 1.767 0 0 0-.59-.545 1.683 1.683 0 0 0-.851-.204c-.182 0-.351.022-.508.064a1.467 1.467 0 0 0-.412.184c-.136.08-.256.18-.362.298-.106.119-.199.25-.279.394v3.307c.072.127.154.245.247.356.093.11.199.203.318.279.135.089.285.159.45.209.17.051.356.076.559.076.326 0 .607-.067.844-.203a1.75 1.75 0 0 0 .584-.558c.153-.233.265-.502.337-.806.076-.305.114-.625.114-.959v-.133Zm7.7 3.491a1.361 1.361 0 0 1-.115-.33 4.55 4.55 0 0 1-.057-.419 3.114 3.114 0 0 1-.4.336 2.772 2.772 0 0 1-1.041.47c-.199.047-.41.07-.635.07-.363 0-.694-.053-.99-.159a2.241 2.241 0 0 1-.742-.431 1.86 1.86 0 0 1-.483-.635 1.98 1.98 0 0 1-.165-.806c0-.377.074-.707.222-.991.153-.283.366-.52.641-.71a3 3 0 0 1 .991-.419 5.55 5.55 0 0 1 1.301-.14h1.282v-.54c0-.207-.038-.393-.114-.558a1.227 1.227 0 0 0-.324-.426 1.515 1.515 0 0 0-.514-.266 2.193 2.193 0 0 0-.673-.095 2.04 2.04 0 0 0-.628.089 1.541 1.541 0 0 0-.464.234 1.071 1.071 0 0 0-.298.35.882.882 0 0 0-.102.412h-1.18a1.66 1.66 0 0 1 .19-.736c.127-.241.309-.459.546-.654a2.81 2.81 0 0 1 .851-.463 3.448 3.448 0 0 1 1.149-.178c.389 0 .751.049 1.085.146.334.093.624.235.87.425.241.195.431.436.571.724.14.288.209.624.209 1.009v3.193c0 .228.022.472.064.73.042.254.101.476.178.666v.102h-1.225Zm-2.076-.895c.228 0 .442-.03.641-.089a2.4 2.4 0 0 0 .546-.235c.161-.097.3-.207.419-.33.118-.127.211-.258.279-.393v-1.391h-1.092c-.406 0-.761.036-1.066.108-.301.068-.54.174-.717.318a1.026 1.026 0 0 0-.292.362 1.127 1.127 0 0 0-.096.476c0 .169.028.326.083.469a.995.995 0 0 0 .26.369c.114.105.258.188.432.247.173.059.374.089.603.089Zm8.296.07c.212 0 .417-.034.616-.102.203-.067.383-.163.54-.285.156-.119.281-.259.374-.419.097-.165.148-.343.152-.534h1.111a1.81 1.81 0 0 1-.241.876 2.437 2.437 0 0 1-.616.724 3.015 3.015 0 0 1-1.936.692c-.52 0-.975-.093-1.364-.279a2.774 2.774 0 0 1-.972-.756 3.18 3.18 0 0 1-.59-1.085 4.32 4.32 0 0 1-.197-1.308v-.266a4.3 4.3 0 0 1 .197-1.302 3.25 3.25 0 0 1 .59-1.098c.258-.313.582-.563.972-.749.389-.186.844-.279 1.364-.279.407 0 .779.065 1.117.197.343.127.639.3.889.52.246.224.438.489.578.794.139.304.209.63.209.977h-1.111a1.374 1.374 0 0 0-.139-.584 1.557 1.557 0 0 0-.883-.819 1.784 1.784 0 0 0-.66-.12c-.364 0-.67.074-.92.222a1.776 1.776 0 0 0-.597.565 2.51 2.51 0 0 0-.33.793 4.173 4.173 0 0 0-.095.883v.266c0 .301.032.599.095.895.068.292.178.555.33.787.148.237.345.43.59.578.25.144.559.216.927.216Zm7.916.952c-.483 0-.927-.083-1.333-.248a3.029 3.029 0 0 1-1.708-1.745 3.57 3.57 0 0 1-.241-1.327v-.266c0-.555.089-1.05.267-1.486.177-.44.414-.812.711-1.117.292-.3.624-.531.996-.692a2.914 2.914 0 0 1 1.155-.241c.496 0 .927.087 1.295.26.373.169.682.404.927.705.246.304.428.662.546 1.072.123.411.184.855.184 1.333v.527h-4.907v.045c.03.334.096.628.197.882.106.254.25.478.432.673.186.207.41.37.673.489.262.118.552.177.869.177.419 0 .792-.084 1.117-.253.326-.17.597-.394.813-.673l.717.558c-.228.347-.571.656-1.028.927-.453.267-1.014.4-1.682.4Zm-.153-6.157a1.71 1.71 0 0 0-.672.133 1.735 1.735 0 0 0-.572.375 2.239 2.239 0 0 0-.431.622c-.115.241-.195.52-.242.838h3.695v-.058c0-.211-.04-.438-.121-.679a1.972 1.972 0 0 0-.336-.635 1.636 1.636 0 0 0-.546-.431 1.689 1.689 0 0 0-.775-.165Z" fill="#6B6D85"/><path d="M733.646 307.146a.502.502 0 0 0 0 .708l3.182 3.182a.502.502 0 0 0 .708-.708l-2.829-2.828 2.829-2.828a.502.502 0 0 0-.708-.708l-3.182 3.182ZM734 308h2.516v-1H734v1Zm7.548 0h5.033v-1h-5.033v1Zm10.065 0h5.032v-1h-5.032v1Zm10.064 0h5.033v-1h-5.033v1Zm10.065 0h5.032v-1h-5.032v1Zm10.064 0h5.033v-1h-5.033v1Zm10.065 0h5.032v-1h-5.032v1Zm10.064 0h5.033v-1h-5.033v1ZM812 308h5.032v-1H812v1Zm10.065 0h5.032v-1h-5.032v1Zm10.064 0h5.032v-1h-5.032v1Zm10.065 0h5.032v-1h-5.032v1Zm10.064 0h5.032v-1h-5.032v1Zm10.065 0h5.032v-1h-5.032v1Zm10.064 0h5.032v-1h-5.032v1Zm10.065 0h5.032v-1h-5.032v1Zm10.064 0h5.032v-1h-5.032v1Zm10.065 0h5.032v-1h-5.032v1Zm10.064 0h5.032v-1h-5.032v1Zm10.065 0h5.032v-1h-5.032v1Zm10.064 0h5.032v-1h-5.032v1Zm10.065 0h5.032v-1h-5.032v1Zm10.064 0h5.032v-1h-5.032v1Zm10.065 0H968v-1h-5.032v1Zm10.064 0h5.032v-1h-5.032v1Zm10.065 0h5.032v-1h-5.032v1Zm10.064 0h5.033v-1h-5.033v1Zm10.069 0h5.03v-1h-5.03v1Zm10.06 0h5.03v-1h-5.03v1Zm10.06 0h5.04v-1h-5.04v1Zm10.07 0h5.03v-1h-5.03v1Zm10.06 0h2.52v-1h-2.52v1Z" fill="#18794E"/><path d="m1142.4 278.461-16.57-7.981a5.014 5.014 0 0 0-3.02-.427 4.993 4.993 0 0 0-2.7 1.399l-54.27 49.473a3.367 3.367 0 0 0-.23 4.735c.07.077.15.15.23.221l4.43 4.025c.57.527 1.32.835 2.1.869.78.035 1.55-.205 2.18-.679l65.36-49.565a3.311 3.311 0 0 1 1.7-.662 3.322 3.322 0 0 1 3.64 3.313v-.193c0-.946-.27-1.872-.77-2.673a4.978 4.978 0 0 0-2.08-1.855Z" fill="#0065A9"/><path d="m1142.4 341.539-16.57 7.984c-.94.45-1.99.598-3.02.424a5.002 5.002 0 0 1-2.7-1.396l-54.27-49.476a3.367 3.367 0 0 1-.23-4.735c.07-.077.15-.15.23-.221l4.43-4.025a3.316 3.316 0 0 1 2.11-.873c.78-.035 1.55.207 2.17.683l65.36 49.565c.49.375 1.08.604 1.7.662.62.059 1.24-.056 1.79-.332.56-.275 1.02-.7 1.35-1.227.33-.527.5-1.134.5-1.754v.207c0 .944-.27 1.867-.77 2.665a5.094 5.094 0 0 1-2.08 1.849Z" fill="#007ACC"/><path d="M1125.83 349.523a5.03 5.03 0 0 1-5.72-.972c.41.408.94.684 1.51.795.57.111 1.16.052 1.69-.171a2.952 2.952 0 0 0 1.82-2.708v-72.933a2.9 2.9 0 0 0-.5-1.637 2.938 2.938 0 0 0-4.53-.445 4.994 4.994 0 0 1 2.7-1.4 5.014 5.014 0 0 1 3.02.426l16.57 7.969a5.045 5.045 0 0 1 2.09 1.852c.5.801.77 1.729.77 2.676v54.05a5.06 5.06 0 0 1-.77 2.676 4.965 4.965 0 0 1-2.08 1.855l-16.57 7.967Z" fill="#1F9CF0"/><defs><filter id="a" x="24" y="257" width="211" height="101.5" filterUnits="userSpaceOnUse" color-interpolation-filters="sRGB"><feFlood flood-opacity="0" result="BackgroundImageFix"/><feBlend in="SourceGraphic" in2="BackgroundImageFix" result="shape"/><feColorMatrix in="SourceAlpha" values="0 0 0 0 0 0 0 0 0 0 0 0 0 0 0 0 0 0 127 0" result="hardAlpha"/><feOffset dy="1.5"/><feGaussianBlur stdDeviation="1"/><feComposite in2="hardAlpha" operator="arithmetic" k2="-1" k3="1"/><feColorMatrix values="0 0 0 0 0 0 0 0 0 0 0 0 0 0 0 0 0 0 0.13 0"/><feBlend in2="shape" result="effect1_innerShadow_152_37887"/></filter><filter id="c" x="255" y="257" width="211" height="101.5" filterUnits="userSpaceOnUse" color-interpolation-filters="sRGB"><feFlood flood-opacity="0" result="BackgroundImageFix"/><feBlend in="SourceGraphic" in2="BackgroundImageFix" result="shape"/><feColorMatrix in="SourceAlpha" values="0 0 0 0 0 0 0 0 0 0 0 0 0 0 0 0 0 0 127 0" result="hardAlpha"/><feOffset dy="1.5"/><feGaussianBlur stdDeviation="1"/><feComposite in2="hardAlpha" operator="arithmetic" k2="-1" k3="1"/><feColorMatrix values="0 0 0 0 0 0 0 0 0 0 0 0 0 0 0 0 0 0 0.13 0"/><feBlend in2="shape" result="effect1_innerShadow_152_37887"/></filter><filter id="d" x="486" y="257" width="211" height="101.5" filterUnits="userSpaceOnUse" color-interpolation-filters="sRGB"><feFlood flood-opacity="0" result="BackgroundImageFix"/><feBlend in="SourceGraphic" in2="BackgroundImageFix" result="shape"/><feColorMatrix in="SourceAlpha" values="0 0 0 0 0 0 0 0 0 0 0 0 0 0 0 0 0 0 127 0" result="hardAlpha"/><feOffset dy="1.5"/><feGaussianBlur stdDeviation="1"/><feComposite in2="hardAlpha" operator="arithmetic" k2="-1" k3="1"/><feColorMatrix values="0 0 0 0 0 0 0 0 0 0 0 0 0 0 0 0 0 0 0.13 0"/><feBlend in2="shape" result="effect1_innerShadow_152_37887"/></filter><clipPath id="b"><path fill="#fff" transform="translate(24 273)" d="M0 0h32v32H0z"/></clipPath></defs></svg>