<svg fill="none" xmlns="http://www.w3.org/2000/svg" viewBox="0 0 16 17"><path fill="#fff" fill-opacity=".01" d="M0 .5h16v16H0z"/><path fill-rule="evenodd" clip-rule="evenodd" d="M7.551.737a.64.64 0 0 1 .898 0l7.2 7.083a.64.64 0 0 1-.898.912l-.884-.87v5.971a.533.533 0 0 1-.534.534H2.668a.533.533 0 0 1-.534-.534V7.862l-.884.87a.64.64 0 1 1-.898-.912l7.2-7.083Zm.45 1.354 4.8 4.722V13.3h-2.134V9.567a.533.533 0 0 0-.534-.534h-3.2a.533.533 0 0 0-.533.534V13.3H3.2V6.813L8 2.09ZM7.466 13.3H9.6v-3.2H7.467v3.2Z" fill="#030010" fill-opacity=".612"/></svg>