<svg xmlns="http://www.w3.org/2000/svg" width="544" height="286" fill="none"><path fill="url(#a)" fill-opacity=".1" d="M447.999 122.5c0 42.526-73.963 76.999-165.2 76.999S117.6 165.026 117.6 122.5c0-42.526 73.962-77 165.199-77 91.237 0 165.2 34.474 165.2 77Z" opacity=".7"/><path fill="url(#b)" fill-opacity=".1" d="M330.399 206.499c0 42.526-73.962 77-165.199 77-91.238 0-165.2-34.474-165.2-77C0 163.974 73.962 129.5 165.2 129.5c91.237 0 165.199 34.474 165.199 76.999Z" opacity=".7"/><path fill="url(#c)" fill-opacity=".1" d="M543.199 198.1c0 42.525-73.963 76.999-165.2 76.999S212.8 240.625 212.8 198.1c0-42.526 73.962-77 165.199-77 91.237 0 165.2 34.474 165.2 77Z" opacity=".7"/><path fill="#000" fill-rule="evenodd" d="M422.747 72.236a.7.7 0 0 1-.384.913c-35.939 14.63-138.547 64.375-170.75 80.526l-2.86 1.434c-6.788 3.4-12.493 6.258-16.99 8.729-5.142 2.826-8.6 5.093-10.301 7.026-.844.959-1.172 1.743-1.161 2.399.01.634.343 1.325 1.236 2.097.898.776 2.294 1.574 4.262 2.405 1.96.828 4.447 1.674 7.496 2.563 4.4 1.283 11.449 3.277 20.063 5.713 24.237 6.856 60.856 17.213 85.653 25.092 6.318 2.007 11.692 4.07 15.959 6.208 4.254 2.132 7.465 4.365 9.395 6.738 1.956 2.404 2.622 4.993 1.672 7.704-.926 2.643-3.349 5.277-7.242 7.944-10.241 7.015-51.844 32.468-76.354 46.184a.7.7 0 0 1-.684-1.222c24.49-13.704 66.054-39.135 76.246-46.117 3.807-2.608 5.934-5.029 6.713-7.252.755-2.156.283-4.244-1.437-6.358-1.745-2.145-4.747-4.271-8.936-6.369-4.177-2.093-9.476-4.131-15.756-6.126-24.773-7.871-61.339-18.213-85.577-25.069-8.626-2.44-15.691-4.438-20.107-5.726-3.076-.897-5.62-1.76-7.649-2.617-2.022-.855-3.573-1.72-4.633-2.637-1.065-.921-1.7-1.956-1.72-3.132-.019-1.156.561-2.269 1.51-3.347 1.887-2.143 5.56-4.515 10.678-7.327 4.522-2.486 10.254-5.357 17.037-8.755l2.859-1.433c32.197-16.148 134.853-65.918 170.85-80.572a.7.7 0 0 1 .912.384Z" clip-rule="evenodd"/><path fill="#000" fill-rule="evenodd" d="M412.223 60.983a.7.7 0 0 1-.307.941c-20.667 10.509-63.92 30.316-105.312 49.144-6.69 3.044-13.332 6.061-19.822 9.01-33.68 15.302-63.276 28.749-74.415 34.298-1.984.989-3.943 1.956-5.86 2.903-4.517 2.231-8.803 4.347-12.65 6.358-5.485 2.867-10.022 5.49-13.024 7.884-1.503 1.198-2.579 2.306-3.203 3.321-.618 1.005-.76 1.857-.522 2.618.245.785.942 1.632 2.349 2.502 1.4.867 3.429 1.709 6.194 2.516 2.872.837 7.097 2.059 12.295 3.563 25.193 7.286 73.259 21.189 101.121 30.041 6.3 2.002 11.88 3.868 16.417 5.697 4.52 1.823 8.077 3.638 10.277 5.563 1.105.967 1.913 2 2.303 3.12.399 1.143.342 2.32-.182 3.508-1.016 2.302-3.787 4.633-8.345 7.143-10.777 5.933-24.264 13.713-38.212 21.759-12.405 7.156-25.175 14.523-36.728 20.988a.7.7 0 0 1-.684-1.222c11.505-6.437 24.273-13.803 36.686-20.963 13.974-8.061 27.498-15.862 38.263-21.788 4.541-2.5 6.927-4.642 7.739-6.482.39-.883.416-1.694.141-2.482-.282-.81-.902-1.651-1.903-2.527-2.011-1.759-5.378-3.503-9.879-5.318-4.483-1.809-10.02-3.661-16.317-5.661-27.841-8.846-75.878-22.74-101.076-30.029a6476.27 6476.27 0 0 1-12.308-3.566c-2.823-.824-4.987-1.709-6.539-2.669-1.546-.956-2.562-2.035-2.949-3.276-.395-1.266-.088-2.542.666-3.768.748-1.215 1.966-2.442 3.523-3.683 3.117-2.485 7.76-5.161 13.249-8.03 3.861-2.018 8.17-4.146 12.694-6.38 1.914-.946 3.866-1.91 5.84-2.893 11.164-5.561 40.792-19.023 74.469-34.324 6.488-2.948 13.127-5.964 19.813-9.005 41.405-18.834 84.624-38.626 105.257-49.118a.7.7 0 0 1 .941.307Z" clip-rule="evenodd"/><path fill="#fff" d="m201.287 208.083-35.628 14.992-31.432-9.899V173.28l40.82-15.131 26.24 9.908V208.083Z"/><path fill="#000" fill-rule="evenodd" d="M169.469 157.598a.7.7 0 0 1 .86-.49c5.408 1.479 10.923 3.318 16.628 5.239l1.051.354c5.384 1.814 10.944 3.687 16.778 5.403a.7.7 0 1 1-.395 1.343c-5.861-1.723-11.445-3.605-16.825-5.417l-1.056-.356c-5.709-1.923-11.187-3.748-16.551-5.216a.7.7 0 0 1-.49-.86ZM134.227 170.533a.7.7 0 0 1 .7.7v42.795a.7.7 0 0 1-1.4 0v-42.795a.7.7 0 0 1 .7-.7Z" clip-rule="evenodd"/><path fill="#000" fill-rule="evenodd" d="M201.286 166.624a.7.7 0 0 1 .7.7v41.224a.7.7 0 0 1-1.4 0v-41.224a.7.7 0 0 1 .7-.7Zm-33.954 11.902a.7.7 0 0 1 .7.7v44.601a.7.7 0 0 1-1.4 0v-44.601a.7.7 0 0 1 .7-.7Z" clip-rule="evenodd"/><path fill="#000" fill-rule="evenodd" d="M132.703 213.839a.7.7 0 0 1 .86-.491c5.944 1.627 12.293 3.264 18.933 4.976 5.4 1.393 10.992 2.835 16.714 4.361a.699.699 0 1 1-.36 1.352 2085.721 2085.721 0 0 0-16.683-4.352c-6.656-1.716-13.031-3.36-18.974-4.986a.7.7 0 0 1-.49-.86ZM134.4 173.082a.7.7 0 0 1 .86-.491c5.945 1.627 12.294 3.264 18.933 4.976 5.4 1.392 10.992 2.834 16.715 4.36a.7.7 0 1 1-.361 1.353 2074.699 2074.699 0 0 0-16.683-4.352c-6.656-1.716-13.031-3.36-18.973-4.986a.7.7 0 0 1-.491-.86Z" clip-rule="evenodd"/><path fill="#000" fill-rule="evenodd" d="M206.187 206.989a.7.7 0 0 1-.413.9c-7.676 2.845-34.657 13.77-42.219 16.934a.699.699 0 1 1-.54-1.291c7.566-3.166 34.568-14.1 42.273-16.956a.7.7 0 0 1 .899.413ZM203.34 167.081a.7.7 0 0 1-.413.9c-5.202 1.928-16.669 6.888-25.885 10.875-4.379 1.894-8.25 3.568-10.699 4.593a.7.7 0 0 1-.54-1.291c2.412-1.01 6.25-2.67 10.606-4.554 9.235-3.994 20.795-8.995 26.032-10.936a.698.698 0 0 1 .899.413ZM174.026 157.553a.698.698 0 0 1-.413.899c-6.55 2.428-25.071 10.206-35.067 14.403-1.713.72-3.176 1.334-4.285 1.798a.7.7 0 0 1-.541-1.291l4.27-1.791c9.986-4.194 28.554-11.991 35.137-14.431a.698.698 0 0 1 .899.413ZM187.372 162.662a.7.7 0 0 1-.382.913c-5.092 2.083-12.838 5.485-19.983 8.624-5.466 2.401-10.58 4.647-13.887 6.031a.7.7 0 1 1-.54-1.291c3.238-1.356 8.334-3.594 13.798-5.993 7.186-3.156 15.009-6.592 20.082-8.667a.7.7 0 0 1 .912.383Z" clip-rule="evenodd"/><path fill="#000" fill-rule="evenodd" d="M181.613 175.657c.353.153.56.575.464.947-1.846 7.126-4.138 15.125-6.406 23.035l-.075.262-.078.27-6.125 22.01a.587.587 0 0 1-.823.391.837.837 0 0 1-.464-.948c1.725-6.658 3.915-14.3 6.131-22.027l6.553-23.549a.587.587 0 0 1 .823-.391Zm-8.061 3.45a.836.836 0 0 1 .463.947c-1.04 4.017-1.961 7.141-2.871 10.228l-.018.062-.019.062-2.783 9.908a.586.586 0 0 1-.823.389.835.835 0 0 1-.463-.947c.997-3.852 1.892-6.889 2.789-9.93l2.902-10.33a.587.587 0 0 1 .823-.389ZM201.91 167.131c.356.15.567.575.47.95l-11.69 45.136a.587.587 0 0 1-.82.405.835.835 0 0 1-.47-.95l11.69-45.135a.586.586 0 0 1 .82-.406Zm-7.79 4.085c.356.15.567.575.47.95l-11.338 43.775a.586.586 0 0 1-.82.406.835.835 0 0 1-.469-.95l11.337-43.775a.586.586 0 0 1 .82-.406Zm-6.65 2.758c.356.15.567.575.47.95l-11.418 44.259a.586.586 0 0 1-.82.406.835.835 0 0 1-.47-.949l11.418-44.259a.587.587 0 0 1 .82-.407Zm14.452 16.862a.833.833 0 0 1 .454.957l-5.145 18.419a.588.588 0 0 1-.83.387.834.834 0 0 1-.453-.957l5.145-18.419a.587.587 0 0 1 .829-.387Z" clip-rule="evenodd"/><path fill="#fff" d="M157.324 93.327c-1.482 5.716-6.431 13.017-11.214 13.336-10.299.686-10.608-6.65-10.608-12.73.635-5.716 5.814-12.73 10.608-12.73 6.668 0 12.485 3.02 11.214 12.124Z"/><path fill="#000" fill-rule="evenodd" d="M149.977 87.555c1.003.121 1.962.83 2.78 2.073a.7.7 0 0 1-1.17.77c-.695-1.058-1.34-1.4-1.777-1.453-.414-.05-.821.14-1.136.581-.64.9-.749 2.733.838 4.253 1.968 1.885 2.507 4.622 1.376 6.293-.593.878-1.594 1.354-2.841 1.231-1.208-.12-2.623-.793-4.203-2.11a.7.7 0 0 1 .896-1.075c1.47 1.224 2.626 1.71 3.445 1.791.78.077 1.262-.205 1.544-.621.619-.917.476-2.907-1.185-4.498-2.041-1.955-2.092-4.558-1.01-6.076.547-.767 1.417-1.282 2.443-1.159Z" clip-rule="evenodd"/><path fill="#000" fill-rule="evenodd" d="M151.343 86.288a.7.7 0 0 1 .487.862c-1.278 4.599-3.064 9.956-4.866 14.86a.701.701 0 0 1-1.314-.483c1.794-4.88 3.567-10.2 4.831-14.752a.7.7 0 0 1 .862-.487ZM141.009 82.86a.698.698 0 0 1 .86-.489l4.681 1.3c.372.104.591.49.489.863a.698.698 0 0 1-.86.488l-4.681-1.3a.703.703 0 0 1-.489-.863Zm2.336-1.283a.697.697 0 0 1 .846-.51 53.53 53.53 0 0 1 2.141.574l.02.006c.532.153 1.052.302 2.002.538a.703.703 0 0 1 .512.85.697.697 0 0 1-.846.51 51.243 51.243 0 0 1-2.052-.552l-.018-.005a52.979 52.979 0 0 0-2.093-.562.703.703 0 0 1-.512-.849ZM136.648 88.285a.697.697 0 0 1 .863-.48l4.243 1.211a.702.702 0 0 1 .483.866.697.697 0 0 1-.863.481l-4.243-1.212a.702.702 0 0 1-.483-.866Zm1.226-2.164a.698.698 0 0 1 .893-.425l4.243 1.516c.364.13.555.53.426.895a.698.698 0 0 1-.893.424l-4.243-1.515a.703.703 0 0 1-.426-.895Zm1.51-1.805a.698.698 0 0 1 .884-.443l4.546 1.515a.703.703 0 0 1 .445.886.698.698 0 0 1-.884.444l-4.546-1.516a.702.702 0 0 1-.445-.886ZM134.829 92.832a.698.698 0 0 1 .864-.482l4.243 1.213a.702.702 0 0 1 .483.865.698.698 0 0 1-.864.482l-4.243-1.213a.702.702 0 0 1-.483-.865Zm.91-2.425a.697.697 0 0 1 .863-.481l4.243 1.212a.702.702 0 0 1 .483.866.698.698 0 0 1-.864.481l-4.243-1.212a.702.702 0 0 1-.482-.866Zm-1.213 5.759a.698.698 0 0 1 .864-.482l4.243 1.213a.702.702 0 0 1 .483.866.698.698 0 0 1-.864.48l-4.243-1.212a.702.702 0 0 1-.483-.865ZM134.821 99.231a.697.697 0 0 1 .837-.525l3.94.91a.702.702 0 0 1 .527.839.698.698 0 0 1-.838.525l-3.94-.909a.702.702 0 0 1-.526-.84Zm1.215 2.716a.697.697 0 0 1 .847-.51l3.637.909a.702.702 0 0 1 .511.849.697.697 0 0 1-.847.51l-3.637-.909a.702.702 0 0 1-.511-.849Z" clip-rule="evenodd"/><path fill="#000" fill-rule="evenodd" d="M144.385 87.166c-2.081 2.478-3.605 5.652-3.945 8.37-.6 4.801.042 8.145 1.923 10.026.028.029.055.06.078.093.198.283.534.503 1.022.641.488.137 1.08.177 1.702.132a7.611 7.611 0 0 0 1.769-.345c.543-.177.94-.386 1.153-.563a.72.72 0 0 1 .167-.104c1.946-.856 3.726-2.654 5.142-4.952a21.806 21.806 0 0 0 2.862-7.628c.442-2.628.295-5.066-.514-6.829-.784-1.708-2.201-2.823-4.502-2.891-2.242-.067-4.755 1.546-6.857 4.05Zm-1.072-.9c2.193-2.613 5.079-4.636 7.971-4.55 2.855.086 4.735 1.536 5.732 3.707.972 2.115 1.09 4.868.622 7.645a23.206 23.206 0 0 1-3.05 8.131c-1.483 2.406-3.424 4.437-5.685 5.46-.401.31-.951.564-1.534.755a8.982 8.982 0 0 1-2.103.41c-.731.053-1.495.013-2.183-.181-.67-.189-1.313-.538-1.751-1.133-2.329-2.367-2.89-6.279-2.281-11.148.38-3.042 2.048-6.46 4.262-9.097Z" clip-rule="evenodd"/><path fill="#000" fill-rule="evenodd" d="M139.937 85.625c-2.014 2.286-3.455 5.226-3.739 7.78a.774.774 0 0 1-.02.106c-.421 1.54-.427 3.474-.065 5.286.365 1.823 1.081 3.415 2.006 4.34.029.029.055.06.078.094.54.771 1.481 1.463 2.674 2.045 1.181.577 2.551 1.015 3.876 1.31a.7.7 0 0 1-.304 1.366c-1.403-.311-2.883-.782-4.186-1.418-1.272-.62-2.435-1.427-3.171-2.45-1.173-1.199-1.957-3.071-2.346-5.013-.391-1.957-.402-4.093.073-5.875.336-2.888 1.929-6.062 4.073-8.497 2.145-2.434 4.98-4.28 7.851-4.195 1.791.053 3.315.564 5.643 1.344l.62.207a.7.7 0 0 1-.443 1.328 341.61 341.61 0 0 1-.547-.182c-2.414-.808-3.739-1.25-5.314-1.298-2.263-.067-4.732 1.42-6.759 3.722Z" clip-rule="evenodd"/><path fill="#fff" d="M193.724 112.927c-1.482 5.716-6.431 13.017-11.214 13.336-10.299.686-10.608-6.65-10.608-12.73.635-5.716 5.814-12.729 10.608-12.729 6.668 0 12.485 3.02 11.214 12.123Z"/><path fill="#000" fill-rule="evenodd" d="M186.377 107.155c1.003.121 1.962.83 2.78 2.073a.7.7 0 1 1-1.17.769c-.695-1.057-1.34-1.399-1.777-1.452-.414-.05-.821.139-1.136.581-.641.899-.749 2.732.838 4.253 1.968 1.885 2.506 4.622 1.376 6.293-.593.878-1.594 1.354-2.841 1.231-1.208-.12-2.623-.793-4.203-2.11a.7.7 0 1 1 .896-1.076c1.47 1.225 2.626 1.711 3.445 1.792.78.077 1.262-.205 1.544-.621.619-.917.476-2.907-1.185-4.498-2.042-1.955-2.092-4.558-1.01-6.076.547-.767 1.417-1.282 2.443-1.159Z" clip-rule="evenodd"/><path fill="#000" fill-rule="evenodd" d="M187.743 105.888a.7.7 0 0 1 .487.862c-1.278 4.599-3.064 9.956-4.866 14.86a.701.701 0 0 1-1.314-.483c1.794-4.88 3.566-10.2 4.831-14.752a.7.7 0 0 1 .862-.487ZM177.409 102.459a.698.698 0 0 1 .86-.488l4.681 1.301a.702.702 0 0 1 .489.862.699.699 0 0 1-.86.488l-4.681-1.301a.702.702 0 0 1-.489-.862Zm2.336-1.282a.698.698 0 0 1 .846-.511c1.032.257 1.595.418 2.141.575l.02.006c.532.153 1.052.302 2.001.538a.703.703 0 0 1 .513.849.698.698 0 0 1-.847.511c-.973-.242-1.512-.397-2.051-.552l-.019-.005a51.59 51.59 0 0 0-2.092-.562.702.702 0 0 1-.512-.849ZM173.048 107.885a.697.697 0 0 1 .863-.481l4.243 1.212a.703.703 0 0 1 .483.866.697.697 0 0 1-.863.481l-4.244-1.212a.703.703 0 0 1-.482-.866Zm1.226-2.165a.698.698 0 0 1 .893-.424l4.243 1.516c.364.13.555.531.426.895a.698.698 0 0 1-.893.424l-4.243-1.515a.702.702 0 0 1-.426-.896Zm1.51-1.804a.698.698 0 0 1 .884-.443l4.546 1.515a.703.703 0 0 1 .445.886.697.697 0 0 1-.884.443l-4.546-1.515a.702.702 0 0 1-.445-.886ZM171.229 112.432a.699.699 0 0 1 .864-.482l4.243 1.213a.703.703 0 0 1 .483.866.698.698 0 0 1-.864.481l-4.243-1.212a.703.703 0 0 1-.483-.866Zm.909-2.425a.698.698 0 0 1 .864-.481l4.243 1.212a.703.703 0 0 1 .483.866.698.698 0 0 1-.864.481l-4.243-1.212a.703.703 0 0 1-.483-.866Zm-1.212 5.759a.699.699 0 0 1 .864-.482l4.243 1.213a.703.703 0 0 1 .483.866.698.698 0 0 1-.864.481l-4.243-1.212a.703.703 0 0 1-.483-.866ZM171.22 118.831a.698.698 0 0 1 .838-.525l3.94.909a.703.703 0 0 1 .527.84.698.698 0 0 1-.838.525l-3.94-.909a.703.703 0 0 1-.527-.84Zm1.216 2.716a.696.696 0 0 1 .847-.51l3.637.909a.702.702 0 0 1 .511.849.697.697 0 0 1-.847.51l-3.637-.909a.702.702 0 0 1-.511-.849Z" clip-rule="evenodd"/><path fill="#000" fill-rule="evenodd" d="M180.785 106.766c-2.081 2.478-3.605 5.652-3.945 8.37-.6 4.801.042 8.145 1.923 10.026.028.029.055.06.078.093.198.283.534.503 1.022.641.488.137 1.08.177 1.702.132a7.621 7.621 0 0 0 1.769-.345c.543-.177.94-.386 1.153-.563a.7.7 0 0 1 .167-.104c1.945-.856 3.726-2.654 5.142-4.952 1.411-2.289 2.421-5.013 2.862-7.628.442-2.628.295-5.066-.514-6.829-.785-1.708-2.201-2.823-4.502-2.891-2.242-.067-4.755 1.546-6.857 4.05Zm-1.072-.901c2.193-2.612 5.079-4.635 7.971-4.549 2.854.086 4.735 1.536 5.732 3.707.971 2.115 1.09 4.868.622 7.645a23.21 23.21 0 0 1-3.05 8.131c-1.484 2.406-3.424 4.437-5.685 5.46-.401.31-.951.564-1.535.755a8.973 8.973 0 0 1-2.102.41c-.731.053-1.495.013-2.183-.181-.67-.189-1.313-.538-1.751-1.133-2.329-2.367-2.89-6.279-2.281-11.148.38-3.042 2.048-6.46 4.262-9.097Z" clip-rule="evenodd"/><path fill="#000" fill-rule="evenodd" d="M176.337 105.225c-2.014 2.286-3.455 5.226-3.739 7.779a.653.653 0 0 1-.021.107c-.42 1.541-.427 3.474-.064 5.286.365 1.823 1.081 3.415 2.006 4.34.029.029.055.06.078.094.54.771 1.481 1.463 2.674 2.045 1.181.576 2.551 1.015 3.876 1.31a.7.7 0 1 1-.304 1.366c-1.404-.311-2.883-.782-4.186-1.418-1.272-.62-2.435-1.427-3.171-2.45-1.173-1.199-1.958-3.071-2.346-5.013-.391-1.957-.402-4.092.073-5.875.336-2.888 1.928-6.062 4.073-8.497 2.145-2.434 4.98-4.281 7.851-4.195 1.791.053 3.315.564 5.643 1.344l.619.207a.7.7 0 0 1-.442 1.328 334.8 334.8 0 0 1-.547-.183c-2.414-.807-3.739-1.25-5.314-1.297-2.263-.067-4.732 1.42-6.759 3.722Z" clip-rule="evenodd"/><path fill="#fff" d="M190.924 52.727c-1.482 5.716-6.431 13.017-11.214 13.336-10.299.686-10.608-6.65-10.608-12.73.635-5.716 5.814-12.73 10.608-12.73 6.668 0 12.485 3.02 11.214 12.124Z"/><path fill="#000" fill-rule="evenodd" d="M183.577 46.955c1.003.121 1.962.83 2.78 2.073a.7.7 0 0 1-1.17.77c-.695-1.058-1.34-1.4-1.777-1.453-.414-.05-.821.14-1.136.581-.641.9-.749 2.732.838 4.253 1.967 1.885 2.506 4.622 1.376 6.293-.593.878-1.594 1.354-2.841 1.23-1.208-.119-2.623-.792-4.203-2.109a.7.7 0 1 1 .896-1.076c1.47 1.225 2.626 1.711 3.445 1.792.78.077 1.262-.205 1.543-.621.62-.916.477-2.907-1.184-4.498-2.042-1.955-2.092-4.558-1.01-6.076.546-.767 1.417-1.282 2.443-1.159Z" clip-rule="evenodd"/><path fill="#000" fill-rule="evenodd" d="M184.943 45.688a.7.7 0 0 1 .487.862c-1.278 4.599-3.064 9.956-4.866 14.86a.7.7 0 0 1-1.315-.483c1.795-4.88 3.567-10.2 4.832-14.752a.7.7 0 0 1 .862-.487ZM174.609 42.26a.697.697 0 0 1 .86-.488l4.68 1.3c.373.103.592.49.49.862a.698.698 0 0 1-.86.488l-4.681-1.3a.703.703 0 0 1-.489-.863Zm2.336-1.283a.697.697 0 0 1 .846-.51c1.032.256 1.595.417 2.141.574l.02.006a49.91 49.91 0 0 0 2.001.538.702.702 0 0 1 .513.85.698.698 0 0 1-.847.51 51.57 51.57 0 0 1-2.051-.552l-.019-.005a52.348 52.348 0 0 0-2.092-.562.702.702 0 0 1-.512-.849ZM170.248 47.685a.697.697 0 0 1 .863-.48l4.243 1.211a.703.703 0 0 1 .483.866.697.697 0 0 1-.863.482l-4.244-1.213a.702.702 0 0 1-.482-.866Zm1.226-2.165a.697.697 0 0 1 .893-.424l4.243 1.516c.364.13.555.53.426.895a.698.698 0 0 1-.893.424l-4.243-1.515a.702.702 0 0 1-.426-.895Zm1.51-1.804a.698.698 0 0 1 .884-.443l4.546 1.515a.703.703 0 0 1 .445.886.698.698 0 0 1-.884.444l-4.546-1.516a.703.703 0 0 1-.445-.886ZM168.429 52.232a.698.698 0 0 1 .864-.481l4.243 1.212a.702.702 0 0 1 .483.866.698.698 0 0 1-.864.48l-4.243-1.211a.703.703 0 0 1-.483-.866Zm.909-2.425a.698.698 0 0 1 .864-.481l4.243 1.212a.702.702 0 0 1 .483.866.698.698 0 0 1-.864.481l-4.243-1.212a.702.702 0 0 1-.483-.866Zm-1.212 5.759a.698.698 0 0 1 .864-.482l4.243 1.213a.702.702 0 0 1 .482.866.697.697 0 0 1-.863.481l-4.243-1.212a.702.702 0 0 1-.483-.866ZM168.42 58.631a.698.698 0 0 1 .838-.525l3.94.91a.703.703 0 0 1 .527.84.698.698 0 0 1-.838.524l-3.94-.909a.703.703 0 0 1-.527-.84Zm1.216 2.716a.696.696 0 0 1 .846-.51l3.638.909a.703.703 0 0 1 .511.85.698.698 0 0 1-.847.51l-3.637-.91a.702.702 0 0 1-.511-.85Z" clip-rule="evenodd"/><path fill="#000" fill-rule="evenodd" d="M177.985 46.566c-2.081 2.478-3.605 5.652-3.945 8.37-.6 4.8.042 8.145 1.923 10.026a.73.73 0 0 1 .078.093c.198.283.534.503 1.022.64.488.138 1.079.178 1.702.133a7.606 7.606 0 0 0 1.769-.345c.543-.177.94-.386 1.153-.563a.68.68 0 0 1 .167-.104c1.945-.856 3.726-2.654 5.142-4.952 1.411-2.289 2.421-5.013 2.862-7.628.442-2.628.295-5.066-.514-6.829-.785-1.708-2.201-2.822-4.502-2.891-2.242-.067-4.755 1.547-6.857 4.05Zm-1.072-.9c2.193-2.612 5.079-4.636 7.971-4.55 2.854.086 4.735 1.536 5.732 3.707.971 2.115 1.09 4.868.622 7.645a23.203 23.203 0 0 1-3.05 8.13c-1.484 2.407-3.424 4.438-5.685 5.462-.401.309-.951.563-1.535.754a8.999 8.999 0 0 1-2.102.41c-.731.053-1.495.013-2.183-.181-.67-.189-1.313-.538-1.751-1.133-2.329-2.367-2.89-6.279-2.281-11.148.38-3.042 2.048-6.46 4.262-9.097Z" clip-rule="evenodd"/><path fill="#000" fill-rule="evenodd" d="M173.537 45.025c-2.014 2.286-3.455 5.226-3.739 7.78a.65.65 0 0 1-.021.106c-.42 1.54-.427 3.474-.064 5.286.364 1.823 1.081 3.415 2.006 4.34.029.029.055.06.078.094.54.77 1.481 1.463 2.674 2.045 1.181.576 2.551 1.016 3.876 1.31a.7.7 0 0 1-.304 1.366c-1.404-.312-2.883-.782-4.186-1.418-1.272-.62-2.435-1.427-3.171-2.45-1.173-1.199-1.958-3.07-2.346-5.013-.391-1.957-.402-4.092.073-5.875.336-2.888 1.928-6.062 4.073-8.497 2.145-2.434 4.98-4.28 7.851-4.195 1.791.053 3.315.564 5.643 1.344l.619.207a.7.7 0 0 1-.442 1.328c-.189-.063-.371-.123-.547-.183-2.414-.807-3.74-1.25-5.315-1.297-2.262-.067-4.731 1.42-6.758 3.722ZM144.9 21.4a.7.7 0 0 1 .7.7v39.873a.7.7 0 1 1-1.4 0V22.1a.7.7 0 0 1 .7-.7Zm0 94.058a.7.7 0 0 1 .7.7V140.4a.7.7 0 1 1-1.4 0v-24.242a.7.7 0 0 1 .7-.7Zm0 44.984a.7.7 0 0 1 .7.7V176.1a.7.7 0 1 1-1.4 0v-14.958a.7.7 0 0 1 .7-.7ZM163.1 21.4a.7.7 0 0 1 .7.7v30.563a.7.7 0 1 1-1.4 0V22.101a.7.7 0 0 1 .7-.7Zm0 53.485a.7.7 0 0 1 .7.7v21.83a.7.7 0 1 1-1.4 0v-21.83a.7.7 0 0 1 .7-.7Zm0 50.21a.7.7 0 0 1 .7.7V150.9a.7.7 0 1 1-1.4 0v-25.105a.7.7 0 0 1 .7-.7ZM178.506 7.4a.7.7 0 0 1 .694.707l-.264 29.3a.7.7 0 0 1-1.4-.013l.264-29.3a.7.7 0 0 1 .706-.693Zm-.561 62.262a.7.7 0 0 1 .694.706l-.231 25.636a.7.7 0 0 1-1.4-.012l.231-25.637a.7.7 0 0 1 .706-.694Zm-.567 62.26a.7.7 0 0 1 .7.7V160a.7.7 0 1 1-1.4 0v-27.378a.7.7 0 0 1 .7-.7Z" clip-rule="evenodd"/><path fill="#fff" d="M376.833 27.7V4.368l41.066 5.6v23.334l-41.066-5.6Z"/><path fill="#000" fill-rule="evenodd" d="M376.109.818a.7.7 0 0 1 .7.7V78.1a.7.7 0 1 1-1.4 0V1.518a.7.7 0 0 1 .7-.7ZM373.099 0a.7.7 0 0 1 .7.7v78.8a.7.7 0 1 1-1.4 0V.7a.7.7 0 0 1 .7-.7Z" clip-rule="evenodd"/><path fill="#000" fill-rule="evenodd" d="M372.408 1.406a.7.7 0 0 1 .803-.58c3.663.593 12.633 1.612 22.147 2.691l.398.045c9.378 1.063 19.204 2.177 24.86 2.985a.7.7 0 0 1-.198 1.386c-5.635-.805-15.448-1.917-24.843-2.982l-.375-.043c-9.49-1.076-18.507-2.1-22.212-2.7a.7.7 0 0 1-.58-.802ZM375.675 24.323a.7.7 0 0 1 .78-.61c10.005 1.226 20.957 2.758 31.423 4.223 3.559.499 7.062.989 10.453 1.456a.7.7 0 0 1-.192 1.387c-3.397-.468-6.904-.959-10.465-1.457-10.463-1.465-21.397-2.995-31.39-4.219a.7.7 0 0 1-.609-.78Z" clip-rule="evenodd"/><path fill="#000" fill-rule="evenodd" d="M417.246 4.905a.7.7 0 0 1 .7.7v24.84a.7.7 0 1 1-1.4 0V5.605a.7.7 0 0 1 .7-.7Z" clip-rule="evenodd"/><path fill="#fff" d="M346.462 203.811v-13.235l20.374-6.921 44.135-.658 11.113 9.713v13.876l-16.651 9.019h-42.32l-16.651-11.794Z"/><path fill="#000" fill-rule="evenodd" d="M341.757 199.821a.7.7 0 0 1 .985-.1 685.77 685.77 0 0 1 10.264 8.563h.001c2.92 2.472 5.609 4.749 8.896 7.405a.7.7 0 1 1-.88 1.089c-3.3-2.667-6-4.953-8.918-7.423l-.002-.002c-2.92-2.471-6.06-5.13-10.247-8.547a.7.7 0 0 1-.099-.985Z" clip-rule="evenodd"/><path fill="#000" fill-rule="evenodd" d="m406.681 216.304-44.966-.693a.7.7 0 0 1 .021-1.4l44.967.694a.7.7 0 1 1-.022 1.399ZM346.668 186.597a.7.7 0 0 1 .7.7v20.676a.7.7 0 0 1-1.4 0v-20.676a.7.7 0 0 1 .7-.7Z" clip-rule="evenodd"/><path fill="#000" fill-rule="evenodd" d="M363.113 197.561a.7.7 0 0 1 .7.7v15.957a.7.7 0 0 1-1.4 0v-15.957a.7.7 0 0 1 .7-.7ZM405.433 196.866a.7.7 0 0 1 .7.7v19.426a.7.7 0 0 1-1.4 0v-19.426a.7.7 0 0 1 .7-.7ZM422.084 187.154a.7.7 0 0 1 .7.7v19.426a.7.7 0 0 1-1.4 0v-19.426a.7.7 0 0 1 .7-.7Z" clip-rule="evenodd"/><path fill="#000" fill-rule="evenodd" d="M344.904 188.706a.701.701 0 0 1 .968-.21c6.174 3.968 8.509 5.444 11.353 7.241 1.631 1.03 3.428 2.165 6.211 3.936a.7.7 0 1 1-.751 1.181 2166.102 2166.102 0 0 0-6.202-3.931c-2.848-1.799-5.191-3.279-11.368-7.25a.7.7 0 0 1-.211-.967Z" clip-rule="evenodd"/><path fill="#000" fill-rule="evenodd" d="M362.36 200.264a.7.7 0 0 1 .7-.7h43.015a.7.7 0 0 1 0 1.4H363.06a.7.7 0 0 1-.7-.7ZM406.414 179.886a.7.7 0 0 1 .978-.15l-.414.564-.414.565a.7.7 0 0 1-.15-.979Zm.564.414-.414.565.526.385 1.434 1.05c1.21.886 2.882 2.109 4.729 3.457 3.693 2.694 8.088 5.89 10.886 7.889a.699.699 0 1 0 .813-1.139c-2.791-1.994-7.18-5.186-10.874-7.881a4684.52 4684.52 0 0 1-4.727-3.456l-1.433-1.049-.526-.385-.414.564ZM374.105 180.878a.701.701 0 0 1-.443.886c-7.177 2.392-24.73 8.775-28.707 10.366a.7.7 0 1 1-.52-1.3c4.008-1.603 21.589-7.996 28.785-10.395a.7.7 0 0 1 .885.443Z" clip-rule="evenodd"/><path fill="#000" fill-rule="evenodd" d="M392.318 183.27c-8.902.063-17.849.126-26.862.126a.7.7 0 0 1 0-1.4c9.007 0 17.949-.063 26.852-.126l.127-.001c8.86-.062 17.681-.124 26.484-.124a.7.7 0 0 1 0 1.4c-8.798 0-17.615.062-26.476.124l-.125.001ZM426.925 190.369a.7.7 0 0 1-.313.939c-5.322 2.661-10.117 4.82-14.713 6.89-2.598 1.17-5.132 2.311-7.661 3.498a.7.7 0 0 1-.595-1.268 539.367 539.367 0 0 1 7.724-3.526c4.575-2.06 9.316-4.195 14.619-6.847a.7.7 0 0 1 .939.314Zm-1.44 15.211a.7.7 0 0 1-.313.939l-.006.003c-8.321 4.161-13.878 6.939-20.928 10.247a.699.699 0 1 1-.595-1.267c7.034-3.301 12.577-6.072 20.903-10.235a.7.7 0 0 1 .939.313ZM352.21 192.732a.7.7 0 0 1 .474.869l-3.47 11.795a.7.7 0 1 1-1.343-.395l3.47-11.795a.7.7 0 0 1 .869-.474Zm4.833 2.769a.7.7 0 0 1 .504.853c-.554 2.148-1.347 4.363-2.122 6.529l-.007.017c-.778 2.174-1.539 4.298-2.06 6.322a.701.701 0 0 1-1.356-.35c.538-2.086 1.316-4.261 2.086-6.409l.019-.052c.78-2.179 1.549-4.332 2.084-6.407a.7.7 0 0 1 .852-.503Zm4.894 3.48a.7.7 0 0 1 .455.879l-4.254 13.392a.7.7 0 0 1-1.334-.424l4.254-13.392a.7.7 0 0 1 .879-.455ZM380.313 199.663a.701.701 0 0 1 .503.853 837.43 837.43 0 0 0-1.835 7.293l-.01.042c-.598 2.405-1.193 4.8-1.807 7.183a.701.701 0 0 1-1.356-.35c.613-2.376 1.207-4.767 1.805-7.174l.009-.038c.601-2.42 1.207-4.856 1.838-7.306a.7.7 0 0 1 .853-.503Zm-5.925 0a.701.701 0 0 1 .503.853 364.048 364.048 0 0 1-1.984 7.283l-.012.044a346.39 346.39 0 0 0-1.94 7.117.7.7 0 0 1-1.356-.349c.613-2.38 1.278-4.756 1.946-7.139l.014-.05c.672-2.403 1.346-4.813 1.976-7.256a.7.7 0 0 1 .853-.503Zm-6.552.697a.7.7 0 0 1 .486.863l-3.842 13.751a.7.7 0 1 1-1.348-.377l3.841-13.751a.701.701 0 0 1 .863-.486ZM397.394 200.363a.7.7 0 0 1 .504.853l-3.581 13.894a.7.7 0 1 1-1.356-.349l3.581-13.895a.7.7 0 0 1 .852-.503Zm-6.244 0a.7.7 0 0 1 .503.853l-3.58 13.894a.7.7 0 0 1-1.356-.349l3.581-13.895a.7.7 0 0 1 .852-.503Zm-5.55-.025a.7.7 0 0 1 .503.853l-3.58 13.894a.7.7 0 0 1-1.356-.349l3.58-13.894a.701.701 0 0 1 .853-.504Z" clip-rule="evenodd"/><path fill="#000" fill-rule="evenodd" d="M416.17 194.807a.7.7 0 0 1 .503.853l-4.112 15.957a.7.7 0 1 1-1.356-.35l4.112-15.957a.701.701 0 0 1 .853-.503Zm-6.376 3.476a.699.699 0 0 1 .473.869l-4.924 16.651a.7.7 0 1 1-1.342-.397l4.924-16.651a.7.7 0 0 1 .869-.472Zm-6.564 2.074a.701.701 0 0 1 .503.853l-3.755 14.569a.698.698 0 1 1-1.355-.349l3.754-14.569a.7.7 0 0 1 .853-.504ZM421.719 192.033a.7.7 0 0 1 .502.853l-4.316 16.651a.7.7 0 1 1-1.355-.352l4.316-16.65a.7.7 0 0 1 .853-.502Z" clip-rule="evenodd"/><path fill="#fff" fill-rule="evenodd" d="M379.27 190.973h-5.474l-5.892-7.268 3.654-3.842v-9.676h-3.654l3.654-12.669h4.059l3.653-3.247v-6.495l8.93-4.871 4.871 3.273v5.657l3.248-5.657 6.745 3.222 1.779 8.118-4.059 3.654v6.494h4.059l-1.779 12.197-5.258-1.444-4.735 5.286 1.432 7.268-7.929 3.304-7.304-1.322v-1.982Zm4.238-22.875 5.015-3.344 3.343 1.672-2.229 6.686-3.9 2.786-2.229-1.114v-6.686Z" clip-rule="evenodd"/><path fill="#000" fill-rule="evenodd" d="M367.285 169.574a.7.7 0 0 1 .883-.447c.599.197 1.2.321 1.869.448 1.985.378 3.973.709 5.971 1.042.924.153 1.85.308 2.779.467a.7.7 0 1 1-.237 1.38c-.914-.157-1.832-.31-2.753-.463-2.005-.334-4.02-.67-6.021-1.051-.674-.128-1.353-.266-2.044-.493a.699.699 0 0 1-.447-.883ZM369.24 157.159a.701.701 0 0 1 .802-.58c.709.114 1.378.242 2.104.469 2.226.694 4.438 1.461 6.637 2.223 1.001.346 1.998.692 2.993 1.03a.7.7 0 1 1-.45 1.325c-1.014-.344-2.021-.693-3.026-1.041-2.189-.758-4.366-1.513-6.571-2.201-.632-.197-1.226-.313-1.909-.422a.702.702 0 0 1-.58-.803ZM378.003 147.236a.7.7 0 0 1 .884-.446c2.309.76 4.671 1.345 7.055 1.935.994.246 1.992.493 2.991.755a.7.7 0 1 1-.354 1.354c-.961-.251-1.937-.493-2.919-.736-2.406-.596-4.849-1.201-7.211-1.979a.699.699 0 0 1-.446-.883ZM385.398 142.256a.699.699 0 0 1 .899-.412c2.335.867 4.687 1.685 7.047 2.505l1.587.553a.7.7 0 1 1-.461 1.322l-1.581-.551a353.11 353.11 0 0 1-7.079-2.517.7.7 0 0 1-.412-.9Z" clip-rule="evenodd"/><path fill="#000" fill-rule="evenodd" d="M395.191 146.211a.699.699 0 0 1 .843-.518c1.854.441 3.691 1.065 5.483 1.673.689.234 1.372.465 2.046.684a.7.7 0 1 1-.431 1.332 155.81 155.81 0 0 1-2.127-.711c-1.768-.6-3.509-1.191-5.296-1.616a.7.7 0 0 1-.518-.844ZM400.507 167.642a.7.7 0 0 1 .847-.512c.729.18 1.462.359 2.195.538.861.211 1.723.421 2.58.633a.7.7 0 0 1-.336 1.359l-2.572-.631c-.732-.179-1.465-.358-2.201-.54a.7.7 0 0 1-.513-.847ZM397.352 178.371a.7.7 0 0 1 .84-.524c1.225.283 2.451.604 3.664.922.558.146 1.114.292 1.666.433a.7.7 0 1 1-.346 1.356c-.571-.145-1.137-.294-1.7-.441a122.968 122.968 0 0 0-3.599-.906.7.7 0 0 1-.525-.84ZM394.14 182.612a.7.7 0 0 1 .802.58c.075.467.123.899.134 1.397.039 1.758.015 3.526-.008 5.279-.011.82-.022 1.636-.027 2.446a.7.7 0 1 1-1.4-.007c.005-.835.016-1.664.027-2.489.024-1.74.047-3.465.008-5.198a8.5 8.5 0 0 0-.116-1.206.7.7 0 0 1 .58-.802ZM386.54 187.019a.7.7 0 0 1 .752.643c.122 1.551.156 3.141.189 4.707.021.976.042 1.943.083 2.883a.7.7 0 1 1-1.399.062 128.811 128.811 0 0 1-.085-2.989c-.032-1.525-.064-3.028-.183-4.553a.699.699 0 0 1 .643-.753ZM383.824 186.93a.7.7 0 0 1 .045.989c-.399.435-.792.893-1.195 1.364l-.097.113c-.371.433-.749.876-1.138 1.31-.845.942-1.761 1.87-2.813 2.624a.7.7 0 0 1-.816-1.138c.93-.667 1.767-1.506 2.586-2.421a71.21 71.21 0 0 0 1.214-1.398c.402-.47.81-.944 1.225-1.399a.7.7 0 0 1 .989-.044ZM380.624 179.045a.7.7 0 0 1-.04.989c-.577.532-1.162 1.044-1.741 1.551-1.451 1.271-2.867 2.511-4.045 3.961a.7.7 0 0 1-1.087-.883c1.258-1.549 2.814-2.91 4.297-4.21.559-.489 1.108-.97 1.627-1.448a.7.7 0 0 1 .989.04Z" clip-rule="evenodd"/><path fill="#000" fill-rule="evenodd" d="M378.974 170.004a.7.7 0 0 1 .564.814c-.652 3.586-.083 7.186.27 9.421l.068.429a.701.701 0 0 1-1.384.215c-.021-.14-.045-.288-.07-.445-.353-2.222-.958-6.04-.262-9.87a.7.7 0 0 1 .814-.564ZM387.747 155.941a.7.7 0 0 1-.272.951c-3.118 1.733-4.294 3.348-5.141 4.788a.7.7 0 0 1-1.207-.71c.954-1.623 2.301-3.431 5.668-5.301a.7.7 0 0 1 .952.272Z" clip-rule="evenodd"/><path fill="#000" fill-rule="evenodd" d="M386.61 148.286a.7.7 0 0 1 .685.715l-.03 1.344a669.521 669.521 0 0 0-.15 8.376.7.7 0 0 1-1.4-.014c.027-2.801.089-5.6.15-8.394l.03-1.342a.7.7 0 0 1 .715-.685ZM393.349 144.953a.7.7 0 0 1 .7.7v8.016a.7.7 0 1 1-1.4 0v-8.016a.7.7 0 0 1 .7-.7Z" clip-rule="evenodd"/><path fill="#000" fill-rule="evenodd" d="M391.749 152.95a.7.7 0 0 1 .7-.7c.827 0 1.828.12 2.78.442.948.32 1.9.858 2.554 1.729a.7.7 0 0 1-1.12.84c-.428-.57-1.097-.978-1.882-1.243a7.51 7.51 0 0 0-2.332-.368.7.7 0 0 1-.7-.7Z" clip-rule="evenodd"/><path fill="#000" fill-rule="evenodd" d="M404.837 146.242a.7.7 0 0 1-.007.99c-.659.651-1.318 1.303-1.977 1.957-1.537 1.523-3.078 3.05-4.632 4.558-.446.432-.88.821-1.389 1.203a.7.7 0 0 1-.84-1.12c.446-.334.833-.681 1.254-1.088a598.53 598.53 0 0 0 4.615-4.542c.661-.654 1.322-1.31 1.986-1.964a.7.7 0 0 1 .99.006ZM406.814 155.065a.7.7 0 0 1 .004.99c-.536.541-1.074 1.072-1.609 1.599-1.16 1.145-2.306 2.276-3.394 3.473a1.996 1.996 0 0 0-.348.572.701.701 0 0 1-1.281-.565c.14-.317.313-.641.593-.949 1.114-1.225 2.305-2.401 3.48-3.56.528-.521 1.052-1.039 1.565-1.556a.7.7 0 0 1 .99-.004Z" clip-rule="evenodd"/><path fill="#000" fill-rule="evenodd" d="M401.747 147.565a.7.7 0 0 1 .952.27c.474.85.684 1.694.893 2.532l.036.141c.184.738.346 1.462.506 2.177.271 1.21.535 2.393.895 3.574a.728.728 0 0 0 .032.087l.007.015a.7.7 0 0 1-.499 1.306c-.575-.191-.791-.712-.879-1-.373-1.222-.661-2.509-.942-3.761a80.089 80.089 0 0 0-.479-2.058l-.022-.088c-.22-.881-.39-1.56-.771-2.243a.7.7 0 0 1 .271-.952ZM400.675 159.921a.7.7 0 0 1 .835.531c.728 3.279.986 5.714-.026 8.498a.7.7 0 1 1-1.315-.478c.872-2.399.687-4.509-.026-7.716a.7.7 0 0 1 .532-.835ZM404.411 167.749a.7.7 0 0 1 .8.584c.338 2.173-.076 4.651-.68 6.898-.543 2.016-1.259 3.913-1.787 5.313l-.182.482a.7.7 0 0 1-1.311-.491l.183-.486c.53-1.405 1.221-3.236 1.745-5.181.589-2.189.941-4.44.648-6.32a.7.7 0 0 1 .584-.799ZM398.375 176.615a.7.7 0 0 1 .402.905c-.626 1.627-1.218 2.877-2.015 4.007-.798 1.131-1.78 2.109-3.151 3.221a.701.701 0 0 1-.882-1.088c1.312-1.063 2.19-1.95 2.89-2.941.701-.993 1.244-2.123 1.851-3.702a.7.7 0 0 1 .905-.402ZM396.297 190.288a.7.7 0 0 1-.368.919c-1.531.656-2.678 1.133-3.643 1.535-1.823.759-2.998 1.248-4.897 2.166a5.534 5.534 0 0 1-1.671.525.699.699 0 1 1-.23-1.381 4.163 4.163 0 0 0 1.292-.405c1.933-.934 3.156-1.443 5.006-2.213.964-.402 2.098-.874 3.592-1.514a.7.7 0 0 1 .919.368Z" clip-rule="evenodd"/><path fill="#000" fill-rule="evenodd" d="M379.415 193.118a.701.701 0 0 1 .786-.602c1.25.166 2.483.455 3.676.735l.395.092c1.33.31 2.616.593 3.912.701a.7.7 0 0 1-.116 1.395c-1.409-.117-2.785-.422-4.114-.732a72.534 72.534 0 0 0-.392-.092c-1.204-.282-2.368-.555-3.545-.711a.7.7 0 0 1-.602-.786Z" clip-rule="evenodd"/><path fill="#000" fill-rule="evenodd" d="M379.74 189.727a.699.699 0 0 1 .791.594c.052.358.1.713.149 1.065.095.697.19 1.385.3 2.076a.7.7 0 1 1-1.382.221c-.113-.706-.211-1.421-.308-2.128l-.144-1.036a.7.7 0 0 1 .594-.792ZM378.583 158.632a.7.7 0 0 1 .076.987c-.971 1.133-1.84 3.253-2.419 5.611-.574 2.341-.828 4.779-.658 6.474a.7.7 0 0 1-1.394.139c-.19-1.907.096-4.514.693-6.946.592-2.416 1.525-4.8 2.715-6.189a.7.7 0 0 1 .987-.076ZM372.698 156.748c.34.185.465.61.28.949-2.126 3.897-3.616 8.419-3.518 12.71a.7.7 0 0 1-1.4.032c-.105-4.615 1.49-9.382 3.689-13.412a.7.7 0 0 1 .949-.279ZM379.621 154.982a.7.7 0 0 1-.016.99c-.29.281-.58.566-.873.852-.952.933-1.921 1.882-2.934 2.774a.7.7 0 0 1-.925-1.051c.982-.865 1.914-1.778 2.861-2.705.297-.291.595-.583.897-.875a.7.7 0 0 1 .99.015Z" clip-rule="evenodd"/><path fill="#000" fill-rule="evenodd" d="M379.299 147.026a.7.7 0 0 1 .7.7c0 1.38-.052 2.769-.104 4.142-.024.632-.048 1.26-.066 1.883l-.001.027c-.011.371-.014.483.045.662a.699.699 0 1 1-1.328.443c-.141-.423-.129-.773-.118-1.088l.003-.085c.019-.648.043-1.289.067-1.928.052-1.359.102-2.702.102-4.056a.7.7 0 0 1 .7-.7Z" clip-rule="evenodd"/><path fill="#000" fill-rule="evenodd" d="M377.458 154.907a.701.701 0 0 1 .874-.466c1.442.44 2.733.756 3.983 1.063l.217.053c1.315.323 2.595.642 3.931 1.088a.7.7 0 0 1-.442 1.328c-1.277-.425-2.506-.733-3.822-1.056l-.224-.055c-1.246-.305-2.571-.63-4.051-1.081a.7.7 0 0 1-.466-.874ZM397.695 144.705a.7.7 0 0 1 .204.969c-.468.718-.936 1.432-1.404 2.146a448.592 448.592 0 0 0-2.646 4.065.7.7 0 0 1-1.179-.756 460.826 460.826 0 0 1 2.66-4.085c.467-.713.933-1.424 1.397-2.135a.7.7 0 0 1 .968-.204ZM388.659 142.361a.7.7 0 0 1-.304.942c-1.118.573-2.24 1.126-3.359 1.677-2.302 1.133-4.588 2.26-6.788 3.531a.7.7 0 0 1-.7-1.213c2.239-1.293 4.598-2.456 6.924-3.601 1.108-.547 2.209-1.089 3.285-1.64a.7.7 0 0 1 .942.304ZM397.098 143.664a.7.7 0 0 1-.229.963c-1.582.973-3.211 1.871-4.821 2.759l-1.031.57c-.43.238-.866.487-1.308.74-1.287.737-2.626 1.503-4.008 2.102a.7.7 0 1 1-.556-1.285c1.304-.565 2.543-1.274 3.81-1.999a117.589 117.589 0 0 1 2.426-1.359c1.61-.888 3.204-1.766 4.754-2.72a.7.7 0 0 1 .963.229ZM372.904 170.803a.7.7 0 0 1 .7.7c0 1.189.088 2.378.178 3.598l.001.013c.09 1.207.181 2.443.181 3.685a.7.7 0 1 1-1.4 0c0-1.187-.087-2.375-.178-3.595l-.001-.011c-.089-1.208-.181-2.445-.181-3.69a.7.7 0 0 1 .7-.7Z" clip-rule="evenodd"/><path fill="#000" fill-rule="evenodd" d="M371.759 178.471a.698.698 0 0 1 .848-.509c1.664.416 3.181.757 5.033 1.174.932.21 1.948.438 3.111.705a.7.7 0 0 1-.313 1.365 714.356 714.356 0 0 0-3.086-.7 213.381 213.381 0 0 1-5.084-1.186.7.7 0 0 1-.509-.849Z" clip-rule="evenodd"/><path fill="#000" fill-rule="evenodd" d="M374.015 177.841a.699.699 0 0 1 .027.989 564.85 564.85 0 0 1-3.869 4.049c-.103.107-.21.219-.319.335-.462.491-.979 1.039-1.591 1.471a.7.7 0 1 1-.808-1.144c.487-.343.883-.762 1.335-1.241.121-.127.246-.259.378-.395a567.638 567.638 0 0 0 3.858-4.038.698.698 0 0 1 .989-.026Z" clip-rule="evenodd"/><path fill="#000" fill-rule="evenodd" d="M366.807 183.829a.7.7 0 0 1 .797-.588c1.464.222 2.713.47 4.057.74l.111.022c1.313.263 2.727.547 4.546.85a.699.699 0 1 1-.231 1.381c-1.841-.307-3.274-.595-4.587-.858l-.114-.023c-1.344-.269-2.564-.512-3.992-.728a.699.699 0 0 1-.587-.796ZM381.953 186.824a.7.7 0 0 1 .85-.506c1.857.471 3.746.6 5.719.7a.698.698 0 0 1 .663.734.699.699 0 0 1-.734.664c-1.972-.1-3.986-.232-5.992-.741a.7.7 0 0 1-.506-.851Z" clip-rule="evenodd"/><path fill="#000" fill-rule="evenodd" d="M373.932 184.268a.7.7 0 0 1 .978.154c1.017 1.396 1.953 2.864 2.875 4.312.423.664.844 1.324 1.268 1.971.113.173.208.325.299.473.121.195.235.38.381.592.233.337.46.606.706.791a.7.7 0 1 1-.84 1.12c-.424-.318-.752-.731-1.018-1.116-.15-.217-.314-.48-.459-.713a20.4 20.4 0 0 0-.239-.379c-.447-.681-.879-1.359-1.308-2.033-.91-1.427-1.805-2.833-2.796-4.194a.7.7 0 0 1 .153-.978ZM367.224 183.492a.7.7 0 0 1 .987.076c1.653 1.929 3.322 4 4.806 5.842.464.576.909 1.129 1.331 1.648a.7.7 0 1 1-1.087.882c-.428-.526-.878-1.085-1.344-1.664-1.482-1.839-3.131-3.886-4.769-5.797a.7.7 0 0 1 .076-.987Z" clip-rule="evenodd"/><path fill="#000" fill-rule="evenodd" d="M371.663 190.946a.701.701 0 0 1 .714-.687c1.32.026 2.593.36 3.78.688l.246.068c1.121.31 2.166.599 3.224.688a.7.7 0 1 1-.116 1.395c-1.195-.1-2.363-.424-3.457-.727l-.269-.075c-1.198-.33-2.313-.616-3.435-.637a.7.7 0 0 1-.687-.713ZM382.237 173.806a.699.699 0 0 1 .974-.176l1.378.954c2.503 1.731 4.372 3.023 6.237 4.578a.7.7 0 0 1-.896 1.075c-1.814-1.511-3.624-2.763-6.129-4.496l-1.389-.961a.7.7 0 0 1-.175-.974Z" clip-rule="evenodd"/><path fill="#000" fill-rule="evenodd" d="M384.69 165.313a.7.7 0 0 1 .618.773 268.626 268.626 0 0 0-.427 4.305c-.219 2.31-.439 4.641-.656 6.165a.7.7 0 0 1-1.386-.198c.214-1.502.427-3.755.641-6.028.144-1.532.289-3.073.437-4.399a.7.7 0 0 1 .773-.618Z" clip-rule="evenodd"/><path fill="#000" fill-rule="evenodd" d="M391.651 161.976a.7.7 0 0 1-.123.982c-.639.498-1.976 1.448-3.379 2.445l-.62.44c-1.639 1.165-3.235 2.309-3.911 2.867a.7.7 0 0 1-.891-1.079c.725-.6 2.375-1.78 3.99-2.929l.62-.44c1.412-1.003 2.718-1.932 3.332-2.409a.7.7 0 0 1 .982.123Z" clip-rule="evenodd"/><path fill="#000" fill-rule="evenodd" d="M388.164 161.853a.7.7 0 0 1 .965-.22c1.599 1.004 3.324 1.798 5.083 2.606.722.333 1.449.667 2.176 1.02.2.097.414.188.652.29l.398.171c.381.167.801.365 1.164.607a.7.7 0 0 1-.776 1.165 6.318 6.318 0 0 0-.951-.49 38.71 38.71 0 0 0-.342-.147c-.257-.11-.526-.225-.756-.337-.669-.324-1.362-.643-2.065-.966-1.791-.824-3.647-1.678-5.328-2.733a.7.7 0 0 1-.22-.966ZM396.387 174.305a.7.7 0 0 1-.254.957c-.351.204-1.077.643-1.96 1.178-2.061 1.247-4.98 3.014-6.005 3.526a.7.7 0 1 1-.626-1.252c.974-.487 3.729-2.155 5.772-3.392.932-.564 1.716-1.039 2.116-1.271a.7.7 0 0 1 .957.254Z" clip-rule="evenodd"/><path fill="#000" fill-rule="evenodd" d="M396.654 164.967a.7.7 0 0 1 .532.835c-.356 1.6-.623 3.203-.894 4.827l-.001.009c-.269 1.616-.542 3.253-.907 4.892a.699.699 0 1 1-1.366-.304c.355-1.6.623-3.202.893-4.827l.002-.009c.269-1.615.542-3.252.906-4.891a.7.7 0 0 1 .835-.532ZM391.873 164.784c.378.08.62.451.541.829l-.175.833c-.216 1.031-.433 2.069-.668 3.102l-.285 1.232a134.8 134.8 0 0 0-.524 2.31l-.027.121-.012.064a.32.32 0 0 0-.006.075.7.7 0 1 1-1.4 0c0-.213.031-.352.063-.494l.013-.061c.169-.783.352-1.569.533-2.349l.28-1.21c.232-1.019.446-2.041.661-3.071l.177-.84a.7.7 0 0 1 .829-.541Z" clip-rule="evenodd"/><path fill="#000" fill-rule="evenodd" d="M391.035 173.099a.7.7 0 0 1-.272.952c-.682.379-1.406.706-2.095 1.018-.213.096-.424.191-.628.286-.21.097-.424.198-.64.3-.701.331-1.433.677-2.178.96a.7.7 0 1 1-.497-1.308c.689-.263 1.352-.576 2.041-.901.225-.106.453-.214.686-.321.229-.106.454-.208.677-.309.677-.307 1.327-.601 1.954-.949a.7.7 0 0 1 .952.272ZM387.95 164.255a.7.7 0 0 1 .939-.313l.003.001c1.432.716 2.133 1.067 3.908 1.776a.7.7 0 1 1-.52 1.3c-1.828-.731-2.568-1.101-4.017-1.825a.7.7 0 0 1-.313-.939Z" clip-rule="evenodd"/><path fill="#000" fill-rule="evenodd" d="M398.641 165.945a.7.7 0 0 1-.634.761 85.414 85.414 0 0 1-6.909.318.7.7 0 0 1 0-1.4c2.139 0 4.913-.142 6.782-.312a.7.7 0 0 1 .761.633ZM388.526 172.961a.7.7 0 0 1 .843-.519l1.225.295a154.416 154.416 0 0 0 3.371.787c.894.201 1.742.392 2.607.479a.7.7 0 0 1-.139 1.393c-.958-.096-1.902-.309-2.795-.511l-.48-.108a151.8 151.8 0 0 1-2.907-.683l-1.207-.29a.699.699 0 0 1-.518-.843Z" clip-rule="evenodd"/><path fill="#000" fill-rule="evenodd" d="M396.287 170.839a.7.7 0 0 1-.831.537 940.648 940.648 0 0 1-4.973-1.082.7.7 0 0 1 .302-1.367c1.65.365 3.302.723 4.965 1.08a.7.7 0 0 1 .537.832Zm-2.445-6.981a.7.7 0 0 1-.38.914 89.905 89.905 0 0 1-2.982 1.172.7.7 0 0 1-.487-1.313 86.876 86.876 0 0 0 2.935-1.153.7.7 0 0 1 .914.38ZM392.285 177.34a.7.7 0 0 1-.927.347l-4.778-2.172a.7.7 0 1 1 .579-1.274l4.778 2.172a.7.7 0 0 1 .348.927ZM387.106 190.892a.7.7 0 0 1-.804.578l-5.192-.842a.7.7 0 0 1 .224-1.382l5.193.842c.381.062.64.422.579.804Zm-10.209-2.121a.7.7 0 0 1-.784.605l-5.404-.692a.699.699 0 1 1 .178-1.389l5.404.693a.7.7 0 0 1 .606.783ZM400.957 151.545a.7.7 0 0 1-.854.501 48.057 48.057 0 0 1-2.824-.839l-.311-.1a49.415 49.415 0 0 0-2.128-.656.7.7 0 1 1 .373-1.349c.764.211 1.471.441 2.189.674l.308.099c.829.268 1.699.543 2.746.816a.7.7 0 0 1 .501.854ZM377.515 182.548a.7.7 0 0 1-.828.543 164.562 164.562 0 0 1-3.073-.68c-.839-.192-1.667-.382-2.577-.575a.7.7 0 0 1 .291-1.37c.921.196 1.759.388 2.597.579l.194.045c.904.206 1.818.414 2.854.63a.7.7 0 0 1 .542.828Zm1.297-6.859a.7.7 0 0 1-.832.536l-4.684-1.012a.7.7 0 0 1 .296-1.369l4.684 1.013a.7.7 0 0 1 .536.832ZM376.024 166.987a.7.7 0 0 1-.829.542l-6.578-1.379a.7.7 0 1 1 .287-1.37l6.578 1.379a.7.7 0 0 1 .542.828Zm.62-3.951a.7.7 0 0 1-.834.534l-5.404-1.186a.7.7 0 1 1 .3-1.367l5.404 1.186a.699.699 0 0 1 .534.833ZM386.976 153.375a.7.7 0 0 1-.828.543l-7.578-1.572a.7.7 0 1 1 .284-1.371l7.578 1.572a.701.701 0 0 1 .544.828Zm-3.844 6.061a.699.699 0 0 1-.901.409l-5.019-1.882a.7.7 0 1 1 .491-1.311l5.02 1.882a.7.7 0 0 1 .409.902ZM391.306 147.757a.7.7 0 0 1-.864.478c-1.16-.331-2.05-.595-2.776-.817l-4.623-1.36a.7.7 0 0 1 .367-1.351c1.313.328 2.129.583 3.256.935.43.135.906.283 1.471.456l2.694.793a.7.7 0 0 1 .475.866Z" clip-rule="evenodd"/><path fill="#fff" d="M222.152 132.778V49.294l50.894-22.322 72.324 14.286v80.359l-46.877 25.894-17.857-3.126-.644-25.419-38.754 18.061-19.086-4.249Z"/><path fill="#000" fill-rule="evenodd" d="M240.171 83.737a.7.7 0 0 1 .7.7v32.883l.001 20.834a.7.7 0 1 1-1.4 0l-.001-20.833V84.437a.7.7 0 0 1 .7-.7ZM280.227 94.227a.7.7 0 0 1 .7.7c-.002 14.861-.001 22.298 0 30.293l.001 19.809a.7.7 0 0 1-1.4 0l-.001-19.809c-.001-7.995-.002-15.432 0-30.293a.7.7 0 0 1 .7-.7ZM222.424 47.373a.7.7 0 0 1 .7.7c-.002 17.275-.001 40.82-.001 60.691v23.691a.7.7 0 0 1-1.4 0v-23.693c0-19.87-.001-43.415.001-60.69a.7.7 0 0 1 .7-.7ZM299.3 50.357a.7.7 0 0 1 .7.7v70.173l.001 27.394a.7.7 0 1 1-1.4 0l-.001-27.394V51.057a.7.7 0 0 1 .7-.7ZM345.076 35.098a.7.7 0 0 1 .7.7v86.221a.7.7 0 1 1-1.4.001V35.798a.7.7 0 0 1 .7-.7Z" clip-rule="evenodd"/><path fill="#000" fill-rule="evenodd" d="M276.38 25.21a.7.7 0 0 1-.407.902c-13.534 5.135-45.17 18.704-58.108 24.253l-1.561.67a.7.7 0 0 1-.552-1.287l1.572-.674c12.932-5.546 44.588-19.125 58.153-24.27a.7.7 0 0 1 .903.406ZM353.339 36.454a.7.7 0 0 1-.335.931c-22.986 10.83-35.498 16.716-61.038 28.63a.7.7 0 0 1-.592-1.269c25.538-11.913 38.049-17.797 61.034-28.627a.7.7 0 0 1 .931.335ZM349.034 119.397a.7.7 0 0 1-.293.946c-11.155 5.881-20.342 10.997-28.396 15.481-10.836 6.033-19.62 10.923-28.38 15a.7.7 0 0 1-.591-1.27c8.73-4.061 17.436-8.91 28.219-14.915 8.05-4.482 17.257-9.609 28.495-15.535a.7.7 0 0 1 .946.293Z" clip-rule="evenodd"/><path fill="#000" fill-rule="evenodd" d="M266.135 24.773a.7.7 0 0 1 .816-.56c10.073 1.872 30.503 5.847 50.676 9.773 11.724 2.28 23.36 4.545 32.827 6.37a.7.7 0 0 1-.265 1.375c-9.474-1.827-21.116-4.092-32.842-6.373-20.167-3.925-40.585-7.897-50.652-9.77a.7.7 0 0 1-.56-.815Zm-51.924 21.823a.7.7 0 0 1 .816-.56c3.573.662 8.542 1.608 14.434 2.73 21.366 4.069 54.88 10.45 78.05 13.997a.7.7 0 0 1-.212 1.384c-23.199-3.55-56.758-9.942-78.122-14.01-5.884-1.12-10.842-2.065-14.405-2.725a.7.7 0 0 1-.561-.816Zm23.36 43.928a.7.7 0 0 1 .803-.58c11.246 1.818 19.41 3.315 28.046 4.898 6.188 1.135 12.618 2.314 20.599 3.687a.7.7 0 1 1-.237 1.38c-8.018-1.38-14.454-2.56-20.639-3.694-8.618-1.58-16.749-3.072-27.993-4.889a.7.7 0 0 1-.579-.802ZM221.747 132.271a.7.7 0 0 1 .859-.492 287.467 287.467 0 0 0 16.654 3.998.7.7 0 0 1-.286 1.371 289.847 289.847 0 0 1-16.734-4.018.7.7 0 0 1-.493-.859ZM275.735 142.429a.7.7 0 0 1 .859-.492c8.91 2.418 22.11 5.01 31.221 6.578a.699.699 0 1 1-.237 1.379c-9.125-1.57-22.376-4.171-31.351-6.606a.7.7 0 0 1-.492-.859Z" clip-rule="evenodd"/><path fill="#000" fill-rule="evenodd" d="M317.473 53.08a.7.7 0 0 1 .503.852l-17.464 67.77a.701.701 0 0 1-1.356-.35l17.464-67.769a.7.7 0 0 1 .853-.503Zm-5.959 2.679a.7.7 0 0 1 .503.852l-11.505 44.644a.7.7 0 0 1-1.356-.349l11.505-44.644a.7.7 0 0 1 .853-.503Zm-5.257 2.506c.375.096.6.478.503.852l-7.177 27.852a.7.7 0 0 1-1.356-.35l7.178-27.851a.7.7 0 0 1 .852-.503ZM334.77 45.044a.7.7 0 0 1 .504.853l-24.621 95.538a.7.7 0 1 1-1.356-.35l24.621-95.538a.7.7 0 0 1 .852-.503Zm-5.844 2.232a.7.7 0 0 1 .503.853l-24.965 96.877a.7.7 0 0 1-1.356-.349l24.965-96.878a.7.7 0 0 1 .853-.503Zm-5.301 2.679c.375.096.6.478.503.852l-24.063 93.376a.7.7 0 1 1-1.355-.349l24.063-93.376a.7.7 0 0 1 .852-.503ZM345.469 42.366a.7.7 0 0 1 .503.852l-23.47 91.074a.7.7 0 1 1-1.355-.35l23.469-91.073a.7.7 0 0 1 .853-.503Zm-4.61 0a.7.7 0 0 1 .503.852l-24.16 93.752a.7.7 0 0 1-1.356-.349l24.16-93.752a.7.7 0 0 1 .853-.503Zm5.622 16.518a.7.7 0 0 1 .504.852l-18.408 71.431a.701.701 0 0 1-1.356-.35l18.408-71.43a.7.7 0 0 1 .852-.503ZM345.172 84.53a.7.7 0 0 1 .503.853l-10.878 42.211a.7.7 0 1 1-1.356-.349l10.878-42.211a.7.7 0 0 1 .853-.504Zm0 19.444a.7.7 0 0 1 .503.852l-5.062 19.643a.7.7 0 1 1-1.356-.349l5.062-19.643a.7.7 0 0 1 .853-.503ZM257.16 93.495a.7.7 0 0 1-.337.93l-16.554 7.736a.7.7 0 1 1-.593-1.268l16.554-7.736a.7.7 0 0 1 .93.338Zm-8.544-1.64a.7.7 0 0 1-.338.931l-8.009 3.743a.7.7 0 0 1-.593-1.268l8.009-3.743a.7.7 0 0 1 .931.338ZM280.822 97.856a.7.7 0 0 1-.337.93l-39.733 18.57a.7.7 0 0 1-.593-1.268l39.733-18.57a.7.7 0 0 1 .93.338Zm-9.375-1.25a.7.7 0 0 1-.338.93l-30.357 14.188a.701.701 0 0 1-.593-1.269l30.358-14.188a.7.7 0 0 1 .93.338Zm-7.067-1.626a.7.7 0 0 1-.337.93l-23.291 10.886a.701.701 0 0 1-.593-1.269l23.291-10.885a.7.7 0 0 1 .93.338ZM281.209 102.693a.702.702 0 0 1-.338.931l-40.12 18.75a.7.7 0 0 1-.592-1.269l40.119-18.75a.702.702 0 0 1 .931.338Zm0 4.928a.701.701 0 0 1-.338.931l-40.119 18.75a.7.7 0 0 1-.593-1.268l40.119-18.75a.7.7 0 0 1 .931.337Zm-.833 6.022a.7.7 0 0 1-.338.93l-39.286 18.361a.7.7 0 0 1-.593-1.268l39.286-18.361a.7.7 0 0 1 .931.338Zm0 5.027a.7.7 0 0 1-.338.93l-39.286 18.361a.7.7 0 1 1-.593-1.268l39.286-18.361a.7.7 0 0 1 .931.338Z" clip-rule="evenodd"/><defs><radialGradient id="a" cx="0" cy="0" r="1" gradientTransform="matrix(-.7296 42.06387 -90.24663 -1.56533 295.252 127.045)" gradientUnits="userSpaceOnUse"><stop/><stop offset="1" stop-color="#3E7BFA" stop-opacity="0"/></radialGradient><radialGradient id="b" cx="0" cy="0" r="1" gradientTransform="matrix(-.7296 42.06387 -90.24663 -1.56533 177.652 211.044)" gradientUnits="userSpaceOnUse"><stop/><stop offset="1" stop-color="#3E7BFA" stop-opacity="0"/></radialGradient><radialGradient id="c" cx="0" cy="0" r="1" gradientTransform="matrix(-.7296 42.06387 -90.24663 -1.56533 390.452 202.645)" gradientUnits="userSpaceOnUse"><stop/><stop offset="1" stop-color="#3E7BFA" stop-opacity="0"/></radialGradient></defs></svg>