<svg xmlns="http://www.w3.org/2000/svg" fill="none" viewBox="0 0 187 188"><g filter="url(#a)"><circle cx="93.5" cy="94" r="52.415" fill="#cee7fe"/></g><circle cx="93.5" cy="94" r="58.375" fill="#f5faff" stroke="#fff" stroke-width="3.251"/><mask id="c" width="113" height="114" x="37" y="37" maskUnits="userSpaceOnUse" style="mask-type:alpha"><circle cx="93.5" cy="94" r="56.478" fill="#fff"/></mask><g clip-path="url(#b)" mask="url(#c)"><path fill="#e5ecff" d="M66.828 93.611a24.6 24.6 0 0 0 7.204 17.39 24.59 24.59 0 0 0 26.801 5.331 24.592 24.592 0 0 0-9.411-47.314A24.594 24.594 0 0 0 66.828 93.61"/><path fill="url(#d)" d="M66.828 93.61a24.595 24.595 0 0 0 47.315 9.412 24.593 24.593 0 1 0-47.315-9.412"/><path fill="#cee7fe" d="M85.572 110.009c-7.03-3.511-16.984-2.925-10.541-16.398 2.247-4.705-1.992-7.023-6.945-7.758a24.5 24.5 0 0 0-1.258 7.758c0 13.077 10.21 23.76 23.089 24.544.233-2.657-.36-6.154-4.345-8.146m15.225-18.15s2.925 3.511-1.759 4.684-7.61 3.511-6.443 8.195c1.165 4.685 0 4.685 6.443 4.098s8.195-6.443 8.195-7.609c0-1.173 1.76-7.609-1.759-9.368-3.511-1.76-4.098-2.932-4.677 0"/><path fill="#f9da10" d="M123.907 88.545c-.445-3.2-4.197-5.496-10.845-6.648h-.014q.689 1.272 1.229 2.628c4.36.968 7.058 2.55 7.313 4.345.282 2.007-2.445 4.6-7.298 6.938-5.384 2.6-12.767 4.649-20.786 5.772s-15.677 1.18-21.57.163c-5.305-.918-8.647-2.664-8.923-4.663-.204-1.477 1.223-3.271 3.936-5.052-.014-.02-.036-.035-.05-.049.064-.982.19-1.943.367-2.882-4.698 2.642-6.966 5.496-6.57 8.315.445 3.201 4.197 5.497 10.845 6.648 2.925.502 6.252.756 9.827.756 3.922 0 8.146-.304 12.463-.904 8.252-1.159 15.875-3.278 21.478-5.984 6.069-2.94 9.043-6.182 8.598-9.383"/><path fill="#96c7f2" d="M92.609 69.046a33 33 0 0 0-1.18-.028c-8.86 0-16.617 4.684-20.948 11.706 3.773-.042 6.917-1.808 7.807-4.19q.986.098 2.013.1c4.19 0 7.906-1.23 10.252-3.13.643.487 1.582.791 2.628.791q.062.002.113-.007c.382 1.837 2.091 6.945 9.227 6.768 0 0 4.345-.105 6.366 8.69 0 0 4.528 1.81 5.786-4.154-3.201-9.29-11.806-16.059-22.064-16.546"/><path fill="#e1f0ff" d="M87.114 82.78a2 2 0 0 0 .194.855c.129.27.317.517.554.724s.52.372.83.484a2.88 2.88 0 0 0 1.956 0 2.6 2.6 0 0 0 .83-.484c.237-.207.425-.453.553-.724a2 2 0 0 0 .195-.855 2 2 0 0 0-.195-.854 2.2 2.2 0 0 0-.554-.725 2.6 2.6 0 0 0-.83-.483 2.88 2.88 0 0 0-1.955 0 2.6 2.6 0 0 0-.83.483 2.2 2.2 0 0 0-.554.725 2 2 0 0 0-.194.854"/><g filter="url(#e)"><path fill="#e1f0ff" d="M99.603 84.603c.156.113.323.207.492.276s.338.112.495.126c.158.014.302 0 .424-.043a.6.6 0 0 0 .287-.206.6.6 0 0 0 .108-.336q.004-.196-.089-.416a1.7 1.7 0 0 0-.272-.433 2.3 2.3 0 0 0-.413-.384 2.3 2.3 0 0 0-.491-.275 1.8 1.8 0 0 0-.496-.127 1 1 0 0 0-.423.044.6.6 0 0 0-.288.205.6.6 0 0 0-.107.337q-.004.195.089.416c.062.146.154.293.271.433q.179.212.413.383"/></g></g><defs><filter id="a" width="186.095" height="186.095" x=".452" y=".953" color-interpolation-filters="sRGB" filterUnits="userSpaceOnUse"><feFlood flood-opacity="0" result="BackgroundImageFix"/><feBlend in="SourceGraphic" in2="BackgroundImageFix" result="shape"/><feGaussianBlur result="effect1_foregroundBlur_2738_12471" stdDeviation="20.316"/></filter><filter id="e" width="15.161" height="14.812" x="92.539" y="76.489" color-interpolation-filters="sRGB" filterUnits="userSpaceOnUse"><feFlood flood-opacity="0" result="BackgroundImageFix"/><feBlend in="SourceGraphic" in2="BackgroundImageFix" result="shape"/><feGaussianBlur result="effect1_foregroundBlur_2738_12471" stdDeviation="3.145"/></filter><radialGradient id="d" cx="0" cy="0" r="1" gradientTransform="rotate(69.095 -22.27 113.197) scale(26.3261 30.2784)" gradientUnits="userSpaceOnUse"><stop stop-color="#2574dd"/><stop offset="1" stop-color="#0880ea"/></radialGradient><clipPath id="b"><path fill="#fff" d="M60.616 68.414h63.576v50.423H60.616z"/></clipPath></defs></svg>