<svg fill="none" xmlns="http://www.w3.org/2000/svg" viewBox="0 0 92 87"><path d="m8.64 62.856-1.671-.967 5.803-9.233 1.846.88-5.979 9.32ZM31.5 63.472l-1.582.615-6.33-8.617h2.637l5.276 8.002Z" fill="#642F08"/><path d="M10.509 5.266C7.9 7.22 8.245 26.724 8.743 36.23c.815 1.54 2.092 5.84.68 10.73-1.413 4.888 4.21 6.654 7.197 6.925l6.519-6.926.815-16.569L30.2 7.71c-.996-1.675-3.64-5.242-6.247-6.111C20.694.512 13.768 2.82 10.509 5.266ZM5.142 65.362c-1.208-1.542.504-2.9 1.51-3.385 2.46.666 2.657 2.118 2.449 2.76-.816.851-2.75 2.167-3.959.625ZM29.624 66.925c-2.084-1.334-.59-2.778.417-3.334 1.254-1.146 3.281 0 3.542 1.771.26 1.771-1.355 3.23-3.96 1.563Z" fill="#00ADE4"/><path d="M1.287 44.358v-3.922l42.136-18.728 18.601-4.049 28.977 14.299v4.049L56.457 50.81 34.44 60.175l-10.503-5.188v21.385l12.02 5.947v2.15l-3.289 1.266L4.324 71.816v-1.771l3.163-1.392 8.858 3.923V51.824L1.287 44.358Z" fill="#A64F0E"/><path d="M67.97 51.57v-5.567l6.833-3.543v12.274l12.021 5.694v2.404l-2.784 1.012-27.458-13.16 4.935-2.024 6.453 2.91Z" fill="#A64F0E"/><path d="M33.775 56.084v4.143" stroke="#000" stroke-width=".627" stroke-linecap="round" stroke-linejoin="round"/><path d="M90.85 32.03v4.138M1 39.953v4.138" stroke="#000" stroke-width=".627" stroke-linecap="round"/><path d="m33.746 56.185 56.699-24.054M34.15 60.222l56.7-24.054M1 39.953l33.15 16.07M57.7 16.06l33.149 16.07M1 44.153l33.15 16.07M16.205 51.638V75.08M22.072 54.717v23.441M23.516 55.294v23.442M32.74 83.65l3.009-1.277M7.173 68.515l-3.009 1.276v2.052M32.74 85.601l3.027-1.284M4.182 71.88 32.78 85.743M4.232 69.772l28.65 13.888M35.62 84.206v-1.84l-11.84-5.74m-7.613-3.69-9.001-4.363m25.725 15.102v1.839M67.545 45.929v7.706M73.412 56.713V43.598M74.856 57.29V43.069M84.08 62.205l3.009-1.276M84.08 64.157l3.027-1.284M84.12 64.298 56.41 50.865M84.222 62.216l-25.474-12.35M86.962 62.76v-1.838l-11.84-5.74m-7.614-3.691-5.84-2.831m22.564 13.57v1.84" stroke="#000" stroke-width=".627" stroke-linecap="round" stroke-linejoin="round"/><path d="M8.58 36.714c-.262-6.654-.651-12.75 0-19.392.354-3.611.207-7.548 1.235-11.05.54-1.839 4.72-3.688 7.82-4.648C23.57-.213 27.4 2.192 30.053 7.94M8.683 48.342c-.16 1.852 2.131 3.954 3.59 4.716 1.067.558 2.705.943 3.819.943M12.707 53.505l-5.82 8.293M14.58 53.984l-5.74 8.491M9.218 64.67c-.614 1.842-3.199 2.258-4.34.723-.834-1.155-.413-3.057 1.167-3.456 1.488-.375 3.766.953 3.173 2.733ZM31.21 63.009l-4.32-6.154m-3.374-1.66 5.74 8.491m3.963 2.918c-1.142 1.535-3.727 1.119-4.34-.723-.594-1.78 1.684-3.108 3.172-2.733 1.58.399 2.002 2.301 1.168 3.456Z" stroke="#000" stroke-width=".627" stroke-linecap="round"/><path d="m33.51 29.878-11.613 5.02L34.1 41.1l28.347-11.91V9.111L34.1 21.217l-.59 8.661Z" fill="#6B6D85"/><path d="M21.395 35.097 33.88 29.8" stroke="#000" stroke-width=".627" stroke-linecap="round" stroke-linejoin="round"/><path d="m24.095 29.985-7.172 3.306c-1.953-1.831 1.797-7.884 3.917-10.68l1.474-3.765C17.758 10.584 25.74 8.012 30.3 7.76c8.137 1.22 7.256 6.849 5.798 9.51l2.746 1.577-4.984 2.187v4.883l-5.85 2.594c-.243 2.889 2.85 6.154 4.426 7.425-1.22.163-6.07-3.899-8.341-5.95Z" fill="#fff"/><path d="m33.824 21 28.35-12.026M62.174 9.301v19.795l-28.35 12.027v-20.06" stroke="#000" stroke-width=".627" stroke-linecap="round" stroke-linejoin="round"/><path d="m33.826 41.123-8.288-4.017-4.143-2.01" stroke="#000" stroke-width=".627" stroke-linecap="round" stroke-linejoin="round"/><path d="M22.273 18.912c-4.277 5.477 2.631 13.572 10.276 17.256" stroke="#000" stroke-width=".627" stroke-linecap="round"/><path d="M32.041 35.787s-4.23-3.827-4.23-7.511c0-3.004 3.304-5.248 5.877-3.705m5.206-5.579-2.74-1.768M20.723 22.307c-1.74 3.544-5.866 9.365-3.91 11.114M36.97 12.943c.485 1.923-.575 3.712-1.841 5.1-3.42 3.749-14.14 3.336-14.4-3.064-.333-8.147 14.154-10.304 16.24-2.036Z" stroke="#000" stroke-width=".627" stroke-linecap="round"/><path d="M28.016 15.516c.823 2.778 3.602 3.601 6.998 2.572" stroke="#000" stroke-width=".627" stroke-linecap="round"/><path d="M1 39.952 24.226 30.1m3.652-1.55 6.092-2.584" stroke="#000" stroke-width=".627" stroke-linecap="round" stroke-linejoin="round"/></svg>