<svg width="24" height="24" fill="none" xmlns="http://www.w3.org/2000/svg"><path d="m13.14 5.115-.73-2.212-7.637-1.646-3.745 4.235 4.115 2.105V5.115h7.997Z" fill="url(#a)"/><path d="M5.143 6.555 1.028 5.493 3.12 18.055l2.016-.016.007-11.484Z" fill="url(#b)"/><path d="M18.857 5.115H11.7l2.876-2.555 5.54 1.029 2.856 7.094-4.113 4.085-.002-9.653Z" fill="url(#c)"/><path d="m18.862 10.59-.005 8.24H7.077l.304 1.792 7.396 2.578 8.195-4.905-4.11-7.706Z" fill="url(#d)"/><path d="M5.143 5.143h13.714v13.714H5.143V5.143Z" fill="#000"/><path d="M6.853 16.265h5.143v.857H6.853v-.857Zm4.484-5.003.67-.802c.42.388.968.61 1.54.626.457 0 .745-.185.745-.487v-.014c0-.288-.178-.437-1.04-.656-1.04-.265-1.71-.553-1.71-1.577v-.016c0-.935.753-1.554 1.806-1.554a2.972 2.972 0 0 1 1.916.656l-.59.855a2.419 2.419 0 0 0-1.342-.508c-.434 0-.663.2-.663.457v.016c0 .339.23.457 1.114.686 1.047.274 1.637.65 1.637 1.547v.016c0 1.024-.783 1.6-1.895 1.6a3.278 3.278 0 0 1-2.188-.825m-4.48-4.425H8.96c1.225 0 1.968.727 1.968 1.776v.014c0 1.189-.926 1.806-2.077 1.806H8v1.54H6.856V6.857Zm2.025 2.59c.565 0 .896-.336.896-.777v-.014c0-.507-.352-.78-.914-.78H8v1.57h.882Z" fill="#fff"/><defs><linearGradient id="a" x1="5.883" y1="7.691" x2="7.753" y2="3.971" gradientUnits="userSpaceOnUse"><stop stop-color="#AF1DF5"/><stop offset=".21" stop-color="#BC20E4"/><stop offset=".63" stop-color="#DD29B8"/><stop offset="1" stop-color="#FF318C"/></linearGradient><linearGradient id="b" x1=".329" y1="15.367" x2="8.208" y2="4.998" gradientUnits="userSpaceOnUse"><stop offset=".02" stop-color="#6B57FF"/><stop offset=".42" stop-color="#B74AF7"/><stop offset=".75" stop-color="#FF318C"/></linearGradient><linearGradient id="c" x1="20.384" y1="15.075" x2="14.958" y2="2.137" gradientUnits="userSpaceOnUse"><stop stop-color="#293896"/><stop offset=".08" stop-color="#3B3AA2"/><stop offset=".29" stop-color="#6740C0"/><stop offset=".49" stop-color="#8A44D8"/><stop offset=".68" stop-color="#A347E9"/><stop offset=".86" stop-color="#B249F3"/><stop offset="1" stop-color="#B74AF7"/></linearGradient><linearGradient id="d" x1="17.031" y1="21.423" x2="13.365" y2="16.031" gradientUnits="userSpaceOnUse"><stop offset=".02" stop-color="#6B57FF"/><stop offset=".78" stop-color="#B74AF7"/></linearGradient></defs></svg>