<svg width="24" height="24" fill="none" xmlns="http://www.w3.org/2000/svg"><path d="M22.971 9.538 7.588 1.001l10.3 15.303 2.116-1.388 2.967-5.378Z" fill="url(#a)"/><path d="m16.834 6.057-1.927-4.71-4.262 4.196 1.744 15.227 4.13 2.174 6.452-3.77-6.137-13.117Z" fill="url(#b)"/><path d="M7.588 1.001 1.028 5.42l2.44 15.07 6.29 2.418 8.13-6.604-10.3-15.303Z" fill="url(#c)"/><path d="M5.143 5.143h13.714v13.714H5.143V5.143Z" fill="#000"/><path d="M6.853 16.265h5.143v.857H6.853v-.857Zm.004-9.426h2.354a2.057 2.057 0 0 1 1.502.523 1.62 1.62 0 0 1 .443 1.18v.013a1.6 1.6 0 0 1-1.106 1.6l1.262 1.843H9.984l-1.104-1.65H8v1.65H6.857v-5.16Zm2.286 2.514c.553 0 .87-.295.87-.729V8.61c0-.487-.338-.738-.89-.738H8v1.481h1.143Zm2.955-2.514h2.011c1.621 0 2.743 1.113 2.743 2.564v.016c0 1.452-1.12 2.579-2.742 2.579h-2.012v-5.16Zm1.143 1.024v3.108h.877a1.47 1.47 0 0 0 1.555-1.54v-.014a1.483 1.483 0 0 0-1.555-1.556l-.877.002Z" fill="#fff"/><defs><linearGradient id="a" x1="17.687" y1="11.132" x2="3.812" y2="3.171" gradientUnits="userSpaceOnUse"><stop stop-color="#DD1265"/><stop offset=".48" stop-color="#DD1265"/><stop offset=".94" stop-color="#FDB60D"/></linearGradient><linearGradient id="b" x1="9.437" y1="2.393" x2="14.936" y2="17.58" gradientUnits="userSpaceOnUse"><stop offset=".14" stop-color="#087CFA"/><stop offset=".48" stop-color="#DD1265"/><stop offset=".96" stop-color="#087CFA"/></linearGradient><linearGradient id="c" x1="5.317" y1="2.861" x2="9.379" y2="17.299" gradientUnits="userSpaceOnUse"><stop offset=".28" stop-color="#DD1265"/><stop offset=".97" stop-color="#FDB60D"/></linearGradient></defs></svg>