<svg width="24" height="24" fill="none" xmlns="http://www.w3.org/2000/svg"><path d="m19.05 1.029-6.28 2.249-4.948-2.25-1.63 4.106H5.138v12.119l15.24.132 2.365-12.068-3.694-4.288Z" fill="url(#a)"/><path d="M18.862 8.903 8.834 2.96l10.028 11.753v-5.81Z" fill="url(#b)"/><path d="m9.934 22.4 8.2-1.092-1.272-2.448h2v-4.147L8.832 2.942.8 4.914l.01 11.52 4.616 6.538 4.483-.57.02-.002h.005Z" fill="url(#c)"/><path d="M5.143 5.143h13.714v13.714H5.143V5.143Z" fill="#000"/><path d="M6.853 16.265h5.143v.857H6.853v-.857Zm5.08-9.415h1.223l1.356 2.18 1.355-2.18h1.223v5.155h-1.127V8.64l-1.451 2.201h-.03l-1.435-2.178v3.341h-1.113V6.85Zm-5.076.007h2.354c.653 0 1.152.174 1.5.521a1.598 1.598 0 0 1 .44 1.177v.016c.018.364-.09.723-.306 1.017a1.77 1.77 0 0 1-.797.579l1.26 1.828H9.981l-1.068-1.579H7.98v1.582H6.857v-5.14Zm2.286 2.494c.229.01.454-.064.633-.208a.686.686 0 0 0 .228-.53v-.014a.65.65 0 0 0-.228-.55 1.035 1.035 0 0 0-.654-.186H7.984v1.479l1.159.009Z" fill="#fff"/><defs><linearGradient id="a" x1="12.197" y1="11.256" x2="9.921" y2="5.284" gradientUnits="userSpaceOnUse"><stop stop-color="#FE2857"/><stop offset=".06" stop-color="#FE3052"/><stop offset=".33" stop-color="#FD533B"/><stop offset=".58" stop-color="#FC6C2A"/><stop offset=".81" stop-color="#FC7B20"/><stop offset="1" stop-color="#FC801D"/></linearGradient><linearGradient id="b" x1="7.862" y1="2.709" x2="11.376" y2="5.931" gradientUnits="userSpaceOnUse"><stop stop-color="#6B57FF"/><stop offset="1" stop-color="#FE2857"/></linearGradient><linearGradient id="c" x1=".735" y1="3.727" x2="12.306" y2="18.435" gradientUnits="userSpaceOnUse"><stop stop-color="#6B57FF"/><stop offset=".3" stop-color="#FE2857"/><stop offset=".63" stop-color="#FE2857"/><stop offset=".64" stop-color="#FE3052"/><stop offset=".7" stop-color="#FD533B"/><stop offset=".76" stop-color="#FC6C2A"/><stop offset=".81" stop-color="#FC7B20"/><stop offset=".85" stop-color="#FC801D"/></linearGradient></defs></svg>