<svg fill="none" xmlns="http://www.w3.org/2000/svg" viewBox="0 0 24 24"><mask id="a" style="mask-type:alpha" maskUnits="userSpaceOnUse" x="0" y="0" width="24" height="24"><path fill-rule="evenodd" clip-rule="evenodd" d="M17.019 23.805a1.493 1.493 0 0 0 1.19-.046l4.942-2.377A1.499 1.499 0 0 0 24 20.03V3.908a1.501 1.501 0 0 0-.85-1.352L18.209.18a1.494 1.494 0 0 0-1.704.29L7.045 9.1l-4.12-3.128a.999.999 0 0 0-1.276.057L.327 7.23a1 1 0 0 0 0 1.48l3.572 3.259-3.573 3.26a1 1 0 0 0 .001 1.479L1.65 17.91a1 1 0 0 0 1.276.057l4.12-3.128 9.46 8.63c.146.146.321.261.514.336Zm.985-17.284-7.178 5.448 7.178 5.448V6.521Z" fill="#fff"/></mask><g mask="url(#a)"><path d="M23.15 2.56 18.207.18A1.495 1.495 0 0 0 16.5.47L.312 15.23a1 1 0 0 0 0 1.478l1.323 1.202a1 1 0 0 0 1.277.057l19.495-14.79A.993.993 0 0 1 24 3.97v-.057a1.5 1.5 0 0 0-.85-1.352Z" fill="#0065A9"/><g filter="url(#b)"><path d="m23.15 21.378-4.944 2.38a1.495 1.495 0 0 1-1.706-.289L.312 8.71a1 1 0 0 1 0-1.479l1.323-1.202a1 1 0 0 1 1.277-.057l19.495 14.79A.993.993 0 0 0 24 19.968v.058a1.5 1.5 0 0 1-.85 1.351Z" fill="#007ACC"/></g><g filter="url(#c)"><path d="M18.206 23.76a1.496 1.496 0 0 1-1.706-.29c.553.553 1.5.16 1.5-.622V1.09c0-.782-.947-1.175-1.5-.62a1.496 1.496 0 0 1 1.706-.291l4.944 2.378A1.5 1.5 0 0 1 24 3.909V20.03a1.501 1.501 0 0 1-.85 1.352l-4.944 2.377Z" fill="#1F9CF0"/></g><path opacity=".25" fill-rule="evenodd" clip-rule="evenodd" d="M17.004 23.805a1.494 1.494 0 0 0 1.19-.046l4.942-2.377a1.5 1.5 0 0 0 .85-1.352V3.908a1.5 1.5 0 0 0-.85-1.352L18.195.18a1.495 1.495 0 0 0-1.705.29L7.03 9.1 2.91 5.972a.999.999 0 0 0-1.276.056L.313 7.23A1 1 0 0 0 .31 8.71l3.574 3.259-3.573 3.26a1 1 0 0 0 0 1.479l1.322 1.202a1 1 0 0 0 1.277.057l4.12-3.128 9.46 8.63c.145.146.32.26.513.336Zm.985-17.284-7.177 5.448 7.177 5.448V6.521Z" fill="url(#d)"/></g><rect x="12" y="11.969" width="12" height="12" rx="6" fill="#5EB0EF"/><path opacity=".2" d="M22.5 17.969a4.5 4.5 0 1 1-9 0 4.5 4.5 0 0 1 9 0Z" fill="#000"/><path d="M18 13.094a4.875 4.875 0 1 0 0 9.75 4.875 4.875 0 0 0 0-9.75Zm4.107 4.5H20.24c-.084-1.711-.743-2.922-1.283-3.638a4.134 4.134 0 0 1 3.15 3.638Zm-5.596.75h2.978c-.108 1.95-1.042 3.146-1.489 3.61-.448-.465-1.38-1.66-1.49-3.61Zm0-.75c.108-1.95 1.042-3.146 1.489-3.61.448.466 1.38 1.661 1.49 3.61h-2.98Zm.532-3.638c-.54.716-1.2 1.927-1.283 3.638h-1.868a4.134 4.134 0 0 1 3.151-3.638Zm-3.15 4.388h1.867c.085 1.711.743 2.922 1.283 3.637a4.134 4.134 0 0 1-3.15-3.637Zm5.062 3.637c.54-.715 1.198-1.926 1.283-3.637h1.868a4.134 4.134 0 0 1-3.15 3.637h-.001Z" fill="#fff"/><defs><filter id="b" x="-8.349" y="-2.566" width="40.683" height="34.807" filterUnits="userSpaceOnUse" color-interpolation-filters="sRGB"><feFlood flood-opacity="0" result="BackgroundImageFix"/><feColorMatrix in="SourceAlpha" values="0 0 0 0 0 0 0 0 0 0 0 0 0 0 0 0 0 0 127 0" result="hardAlpha"/><feOffset/><feGaussianBlur stdDeviation="4.167"/><feColorMatrix values="0 0 0 0 0 0 0 0 0 0 0 0 0 0 0 0 0 0 0.25 0"/><feBlend mode="overlay" in2="BackgroundImageFix" result="effect1_dropShadow_33_13452"/><feBlend in="SourceGraphic" in2="effect1_dropShadow_33_13452" result="shape"/></filter><filter id="c" x="8.166" y="-8.303" width="24.168" height="40.544" filterUnits="userSpaceOnUse" color-interpolation-filters="sRGB"><feFlood flood-opacity="0" result="BackgroundImageFix"/><feColorMatrix in="SourceAlpha" values="0 0 0 0 0 0 0 0 0 0 0 0 0 0 0 0 0 0 127 0" result="hardAlpha"/><feOffset/><feGaussianBlur stdDeviation="4.167"/><feColorMatrix values="0 0 0 0 0 0 0 0 0 0 0 0 0 0 0 0 0 0 0.25 0"/><feBlend mode="overlay" in2="BackgroundImageFix" result="effect1_dropShadow_33_13452"/><feBlend in="SourceGraphic" in2="effect1_dropShadow_33_13452" result="shape"/></filter><linearGradient id="d" x1="11.985" y1=".031" x2="11.985" y2="23.907" gradientUnits="userSpaceOnUse"><stop stop-color="#fff"/><stop offset="1" stop-color="#fff" stop-opacity="0"/></linearGradient></defs></svg>