<svg fill="none" xmlns="http://www.w3.org/2000/svg" viewBox="0 0 16 16"><path fill="#fff" fill-opacity=".01" d="M0 0h16v16H0z"/><path fill-rule="evenodd" clip-rule="evenodd" d="M8 1.92a6.08 6.08 0 1 0 0 12.16A6.08 6.08 0 0 0 8 1.92ZM.96 8a7.04 7.04 0 1 1 14.08 0A7.04 7.04 0 0 1 .96 8Z" fill="#6B6D85"/><path fill-rule="evenodd" clip-rule="evenodd" d="M14.4 8.427H1.6v-.854h12.8v.854Z" fill="#6B6D85"/><path fill-rule="evenodd" clip-rule="evenodd" d="M7.573 14.4V1.6h.853v12.8h-.853ZM11.066 8c0-2.317-.833-4.61-2.467-6.126l.508-.548C10.922 3.01 11.813 5.518 11.813 8s-.891 4.99-2.706 6.674l-.508-.548c1.634-1.515 2.467-3.808 2.467-6.126Zm-6.8 0c0-2.479.862-4.985 2.622-6.67l.516.54C5.822 3.385 5.013 5.679 5.013 8c0 2.321.809 4.615 2.391 6.13l-.516.54C5.128 12.985 4.266 10.479 4.266 8Z" fill="#6B6D85"/><path fill-rule="evenodd" clip-rule="evenodd" d="M8 4.222c2.314 0 4.667.428 6.262 1.319a.373.373 0 1 1-.364.652c-1.44-.805-3.65-1.224-5.898-1.224-2.249 0-4.458.42-5.898 1.224a.373.373 0 0 1-.364-.652C3.333 4.65 5.686 4.22 8 4.22Zm0 7.351c2.314 0 4.667-.428 6.262-1.319a.373.373 0 1 0-.364-.651c-1.44.804-3.65 1.224-5.898 1.224-2.249 0-4.458-.42-5.898-1.224a.373.373 0 1 0-.364.651c1.595.891 3.948 1.32 6.262 1.32Z" fill="#6B6D85"/></svg>