<svg width="24" height="24" fill="none" xmlns="http://www.w3.org/2000/svg"><path d="M3.987 20.86 1.028 3.327l5.47-2.27 3.493 2.076 3.2-1.726 6.667 2.56-3.739 19.004-12.132-2.113Z" fill="url(#a)"/><path d="m22.972 8.46-2.833-6.995-5.137-.437L7.07 8.65l2.134 9.822 3.987 2.796 9.78-5.804-2.4-4.5 2.4-2.504Z" fill="url(#b)"/><path d="m18.576 7.417 1.996 3.545 2.4-2.503-1.763-4.356-2.633 3.314Z" fill="url(#c)"/><path d="M5.143 5.143h13.714v13.714H5.143V5.143Z" fill="#000"/><path d="M6.852 16.265h5.144v.857H6.852v-.857Zm4.869-9.414-.765 3-.876-3h-.87l-.879 3-.763-3h-1.2l1.47 5.145h.964l.841-2.98.832 2.98h.976L12.92 6.85h-1.198Zm1.413 4.41.67-.801c.42.388.968.61 1.54.626.457 0 .745-.183.745-.487v-.014c0-.288-.178-.434-1.04-.656-1.04-.265-1.71-.553-1.71-1.577v-.016c0-.935.752-1.554 1.806-1.554a2.972 2.972 0 0 1 1.915.656l-.59.855a2.419 2.419 0 0 0-1.341-.508c-.434 0-.663.2-.663.457v.016c0 .339.229.457 1.113.686 1.047.274 1.637.65 1.637 1.55v.013c0 1.024-.782 1.6-1.895 1.6a3.278 3.278 0 0 1-2.187-.825" fill="#fff"/><defs><linearGradient id="a" x1="8.884" y1="1.502" x2="14.525" y2="21.956" gradientUnits="userSpaceOnUse"><stop offset=".28" stop-color="#07C3F2"/><stop offset=".94" stop-color="#087CFA"/></linearGradient><linearGradient id="b" x1="10.651" y1="4.099" x2="20.232" y2="18.204" gradientUnits="userSpaceOnUse"><stop offset=".14" stop-color="#FCF84A"/><stop offset=".37" stop-color="#07C3F2"/></linearGradient><linearGradient id="c" x1="20.166" y1="5.858" x2="21.419" y2="10.329" gradientUnits="userSpaceOnUse"><stop offset=".28" stop-color="#07C3F2"/><stop offset=".94" stop-color="#087CFA"/></linearGradient></defs></svg>