<svg xmlns="http://www.w3.org/2000/svg" viewBox="0 0 24 24"><path fill="#0B100F" d="M21.816 6.222h-.191a1.814 1.814 0 0 0-1.817 1.814v4.056c0 .81-.67 1.466-1.466 1.466-.474 0-.947-.238-1.227-.638l-4.143-5.917a1.835 1.835 0 0 0-1.508-.784c-.945 0-1.795.803-1.795 1.794v4.08c0 .81-.664 1.466-1.466 1.466-.475 0-.947-.238-1.227-.638L2.34 6.299a.187.187 0 0 0-.34.107v3.538c0 .179.055.352.157.499l4.562 6.515c.27.385.668.671 1.126.775a1.803 1.803 0 0 0 2.204-1.748v-4.077c0-.81.656-1.467 1.466-1.467h.003c.488 0 .946.239 1.226.639l4.144 5.916a1.81 1.81 0 0 0 3.3-1.01v-4.08c0-.81.657-1.465 1.467-1.465h.161a.183.183 0 0 0 .184-.184V6.405a.183.183 0 0 0-.184-.183Z"/></svg>