<svg fill="none" height="313" width="354" xmlns="http://www.w3.org/2000/svg" xmlns:xlink="http://www.w3.org/1999/xlink"><radialGradient id="a" cx="0" cy="0" gradientTransform="matrix(0 78.3767 -176.133 0 176.133 78.377)" gradientUnits="userSpaceOnUse" r="1"><stop offset="0" stop-color="#c4c4c4" stop-opacity=".5"/><stop offset="1" stop-color="#c4c4c4" stop-opacity="0"/></radialGradient><clipPath id="b"><path d="m0 0h168.08v170.23h-168.08z" transform="translate(81.495)"/></clipPath><g clip-path="url(#b)"><g clip-rule="evenodd" fill="#000" fill-rule="evenodd"><path d="m169.906 85.427c1.764 1.236 3.144 3.64 5.474 1.128 2.507 1.451 4.203 3.637 6.202 5.479 3.686 3.39 7.4 6.76 11.115 10.124 1.383 1.251 2.845 2.417 4.181 3.713 1.217 1.179 1.282 2.863 1.72 4.384.159.559.378 1.298.813 1.557 4.435 2.645 7.861 6.498 11.871 9.645 4.709 3.697 9.522 7.263 14.325 10.841 2.726 2.03 5.517 3.993 8.289 5.965 1.848 1.313 3.795 2.503 5.556 3.924 1.871 1.499 3.647.905 5.433.061 2.717-1.285 4.307-3.614 5.524-6.235.336-.73.567-1.514.795-2.29.964-3.297.567-4.254-2.153-6.304a1320.731 1320.731 0 0 1 -15.218-11.666c-5.5-4.267-10.989-8.548-16.411-12.906-1.572-1.268-3.049-2.704-4.303-4.274-.934-1.166-2.013-1.697-3.345-1.51-2.583.36-4.451-.714-6.321-2.338-3.847-3.337-7.822-6.529-11.788-9.719-1.634-1.313-3.399-2.472-5.111-3.69-1.857-1.324-3.365-2.88-4.438-4.97-.625-1.216-2.005-2.06-2.904-2.933 1.073-3.818 2.35-7.403 3.028-11.094.502-2.742.408-5.628.269-8.444-.276-5.749-2.25-10.992-5.148-15.951-2.185-3.738-4.926-6.978-8.171-9.833-.122-.106-.207-.259-.337-.345-4.379-2.896-8.439-6.257-13.289-8.427-2.668-1.19-5.402-1.624-8.291-1.518-3.871.142-7.72-.19-11.589.861-3.736 1.022-7.081 2.808-10.498 4.43-3.927 1.86-7.209 4.626-9.622 8.3-.882 1.347-1.653 2.774-2.52 4.133-2.687 4.205-3.143 9.068-4.071 13.776-.936 4.712-1.005 9.509-.076 14.206.947 4.827 2.487 9.433 5.835 13.353 2.48 2.905 4.917 5.766 7.989 8.07a34.921 34.921 0 0 0 9.84 5.145c5.684 1.913 11.588 2.352 17.548 2.026 1.369-.076 2.74-.33 4.073-.663 2.513-.62 5.027-1.257 7.483-2.063 1.758-.579 3.437-1.406 5.114-2.2 1.077-.512 2.094-1.169 3.127-1.748zm29.259 22.646c5.765-.874 8.12-4.74 9.078-9.79 1.777-.135 3.152.42 4.314 1.53.816.788 1.54 1.674 2.402 2.408 2.463 2.097 4.944 4.181 7.47 6.2 4.924 3.952 9.855 7.891 14.838 11.764 3.582 2.779 7.27 5.425 10.878 8.165 2.042 1.555 2.433 2.639 1.647 5.032-.474 1.441-1.208 2.799-1.866 4.175-.932 1.933-2.515 3.168-4.549 3.732-.71.205-1.674.22-2.298-.106-2.081-1.069-4.144-2.222-6.064-3.553-4.062-2.807-8.107-5.647-12.006-8.666-5.758-4.454-11.386-9.08-17.056-13.639-.879-.706-1.687-1.498-2.563-2.213-1.62-1.322-3.362-2.542-4.225-5.039zm-89.603-49.755c.119-1.851.252-3.7.343-5.555.319-6.807 2.246-13.174 5.795-18.96 2.06-3.358 4.545-6.494 8.309-8.28a113.344 113.344 0 0 0 6.475-3.323c3.406-1.892 7.105-2.657 10.933-2.937 1.941-.143 3.901-.262 5.843-.19 2.491.08 5.017.051 7.357 1.237 3.625 1.844 7.022 4 10.361 6.328 5.152 3.583 9.39 7.878 12.207 13.513 2.676 5.353 4.306 10.966 4.264 16.983-.041 5.503-1.488 10.68-3.966 15.578-.656 1.295-1.421 2.537-2.12 3.811-3.284 5.991-8.276 9.835-14.834 11.71-2.643.756-5.313 1.455-7.972 2.16-.784.205-1.598.5-2.385.466-3.219-.156-6.431-.495-9.657-.637-5.509-.242-10.539-2.142-15.105-4.944-4.805-2.948-8.615-7.137-11.567-11.93-2.811-4.563-3.97-9.683-4.281-15.03zm72.109 20.641c.38.249.936.564 1.438.957 4.661 3.635 9.334 7.246 13.941 10.943 2.513 2.015 4.941 4.146 7.348 6.287 1.694 1.505 2.107 3.256 1.256 4.991-.772 1.563-1.992 2.744-3.524 3.556-1.425.756-2.704.646-4.014-.492-2.068-1.81-4.296-3.436-6.449-5.153a21.708 21.708 0 0 1 -1.666-1.412 2029.666 2029.666 0 0 1 -11.834-11.513c-.552-.542-.958-1.233-1.318-1.71 1.69-2.268 3.23-4.326 4.822-6.454zm-10.133 5.514 6.988-9.844c2.165 1.827 2.104 1.89 1.259 4.123-1.081 2.855-3.421 4.6-5.575 6.494-1.043.916-1.41.726-2.672-.773z"/><path d="m112.255 54.98c-.111 4.452.88 8.696 2.426 12.792 2.437 6.453 6.975 11.211 12.788 14.779 3.897 2.388 8.082 4.107 12.696 4.626.873.097 1.723.434 2.581.67 3.816 1.03 7.583.41 11.314-.407 2.694-.587 5.405-1.203 7.974-2.16 1.768-.667 3.654-1.639 4.879-3.008 2.85-3.177 5.73-6.45 7.859-10.111 2.758-4.743 4.64-9.853 3.831-15.662-.634-4.583-1.22-9.142-3.434-13.256-1.446-2.689-3.065-5.323-4.933-7.736-3.827-4.928-8.821-8.606-14.345-11.36-4.381-2.18-9.259-2.982-14.195-2.202-3.264.514-6.557 1.099-9.703 2.082-4.648 1.447-8.588 4.058-11.601 8.005-2.917 3.827-4.924 8.132-6.973 12.42a5.565 5.565 0 0 0 -.497 1.86c-.259 2.89-.45 5.78-.667 8.669zm1.481-2.964c0-1.126-.11-2.268.029-3.38.158-1.262.321-2.6.871-3.724 1.787-3.677 3.295-7.472 5.852-10.802 2.217-2.892 4.746-5.304 7.763-7.233 1.207-.773 2.622-1.298 4.014-1.68 2.179-.596 4.457-.853 6.627-1.475 4.794-1.37 9.462-.872 14.108.62 3.843 1.237 7.053 3.52 10.107 6.06 1.119.929 2.398 1.706 3.391 2.754 5.087 5.37 9.036 11.353 10.198 18.853.617 3.993.978 7.97-.091 11.917-1.664 6.144-5.12 11.263-9.358 15.938-2.413 2.66-5.215 4.542-8.842 5.105-1.037.163-2.027.564-3.048.815-4.598 1.13-9.192 2.097-13.856.274-.595-.229-1.264-.274-1.909-.38-4.959-.81-9.53-2.609-13.55-5.61-4.327-3.238-8.035-7.078-10.077-12.166-2.033-5.082-2.924-10.39-2.229-15.886z"/><path d="m126.231 33.764c-2.137.96-2.057 2.656-2.124 4.11-.111 2.334.045 4.68.11 7.014.029 1.045.309 2.12.126 3.123-.28 1.561.645 2.781.891 4.183.154.888 1.025 1.16 2.313.801.17-1.427.502-2.995.517-4.565.046-3.87-.115-7.745-.071-11.617.021-1.47-.98-2.071-1.762-3.05zm.424 17.156-.689-.022c-.285-2.44-.967-4.917-.745-7.31.226-2.363-.962-4.911.767-7.345.315.386.723.648.73.929.202 4.589.751 9.184-.063 13.748zm40.467 4.572c-1.21 1.007-2.04 1.82-2.09 3.002-.152 3.278-.198 6.565-.261 9.846-.006.395.092.801.191 1.185.244.94.769 1.646 1.836 1.588 1.314-.067 1.177-1.136 1.166-1.98a702.55 702.55 0 0 0 -.18-11.799c-.017-.5-.352-.997-.662-1.842zm-.743 5.101c.701 2.961.927 5.92.024 8.874-1.371-2.965-.228-5.915-.024-8.874z"/></g><path d="m87.495 59.028c.184 1.161.348 1.933.679 3.963m1.412-16.191c.5-2 .5-1.5 1.346-3.768" stroke="#000" stroke-linecap="round"/></g><ellipse fill="url(#a)" fill-opacity=".5" opacity=".5" rx="176.133" ry="78.377" transform="matrix(-1 0 -.01106 -.99994 177 234.628)"/><path d="m229.855 208.841c12.333-1.612 29.12-18.804 35.972-27.199-6.166-8.058-29.805-15.109-29.805-15.109 7.194-7.053 14.389-31.229-20.556-20.148-18.195 5.77-1.027 26.192 7.195 24.176-2.056 7.724-6.167 25.185-6.167 33.243 0 10.074-2.055 7.052 13.361 5.037z" fill="#fff"/><g stroke="#000" stroke-linecap="round" stroke-linejoin="round"><path d="m227.536 142.327c6.209-.119 11.179 3.453 13.949 8.883 1.978 3.879.7 6.809-1.682 9.989-3.421 4.567-8.649 7.85-14.394 8.651-5.153.718-9.646.3-13.344-3.579-3.126-3.279-5.507-8.638-4.413-13.182 1.232-5.116 7.289-8.233 11.978-9.462 6.268-1.642 12.794-.563 18.729 1.764 4.44 1.741 9.568 5.068 9.706 10.26.139 5.251-4.459 8.307-8.235 11.238"/><path d="m235.577 166.426c5.454.105 32.357 12.201 29.497 15.705-10.015 12.27-20.559 21.15-35.171 26.93-7.381 2.92-16.412 5.313-14.081-6.114 6.292-30.832 5.57-24.472 6.988-34.667"/><path d="m244.324 170.365c3.795-1.612 5.79-4.774 8.274-8.02 2.114-2.763 4.569-5.731 5.569-9.127.631-2.143.604-4.688.578-6.9-.076-6.411-3.75-11.797-7.697-16.632-.381-.467-1.76-2.831-1.76-1.262 0 .816.542 1.014 1.182 1.391m-25.059 47.501c-12.061 4.496-24.355 8.604-36.67 12.371-3.369 1.031-7.105 1.97-10.677 1.97-.708 0-1.803-.271-1.196-1.184 1.026-1.542 3.652-2.444 5.28-3.141 1.954-.837 4.052-1.754 6.134-2.227.798-.182 3.116-.84 3.874-.232 1.6 1.283-2.59 3.565-3.336 3.797-.711.222-2.653 1.097-2.653-.231 0-.601 1.202-2.451 1.839-1.391 1.132 1.888-2.603 1.498-3.021 2.318"/><path d="m253.545 133.754c-.702-1.062-1.577-3.073-2.968-3.45-1.006-.273-4.754-1.02-5.49.025-.872 1.239 2.37 3.508 3.139 3.875 1.155.553 2.523 1.48 3.888 1.146 1.366-.335.413-2.545-.04-3.167-.989-1.357-2.345-2.449-3.914-3.064-1.001-.392-.837.217-.394.927.441.707.947 1.386 1.406 2.086.424.647 1.529.594 2.245.695m-24.351 23.403c-9.456 7.415-17.056 5.985-18.901 4.39"/></g><path d="m67.237 201.833c4.8-5.222 15.686-19.774 25.591-28.014l22.431-13.069s-15.606-9.378.365-23.194c7.345-6.354 19.831-7.734 24.876.552 10.371 17.038-7.221 24.846-7.221 24.846-11.567 16.623 3.262 47.113 1.629 49.569s-47.168 5.097-67.671-10.69z" fill="#fff"/><path d="m98.608 158.169c.659 1.317 5.769 6.585 8.242 9.054l2.473 1.645 4.125-3.295c-1.923-1.097-6.265-3.95-8.243-6.584-2.473-3.292-2.471-7.409-2.469-10.703.001-2.635 2.204-10.98 3.306-14.823-1.1-.274-4.124.99-7.427 8.238-4.127 9.059-.831 14.822-.007 16.468z" fill="#fff"/><path d="m110.149 163.927c-4.946-2.468-7.924-8.365-7.702-12.245.243-4.237 2.08-8.125 3.442-12.079.428-1.244 1.992-4.689.884-6.004-.742-.882-2.864 1.346-3.253 1.74-3.639 3.681-5.828 8.847-6.385 13.955-.772 7.065 2.97 12.821 8.684 16.488" stroke="#000" stroke-linecap="round" stroke-linejoin="round"/><path d="m114.364 161.259c-.107.485-.229 1.175-.475 1.601-36.407 9.579-41.372 42.172-42.193 43.353m-2.475-1.657c9.089 7.24 52.85 15.418 70.166 9.877m-7.422-49.41c-9.08 16.475-4.134 32.946 6.587 49.416" stroke="#000" stroke-linecap="round" stroke-linejoin="round"/><path d="m115.213 138.448c-1.834 1.191-4.206 2.749-5.876 4.284-1.98 1.821-2.513 5.57-2.042 8.132 1.148 6.23 9.228 10.269 14.663 11.937 2.604.8 5.633 1.46 8.374 1.209 2.796-.257 5.367-1.655 7.579-3.304 3.119-2.324 4.968-5.168 6.14-8.864 1.041-3.282 1.473-6.173-.291-9.258-5.443-9.519-21.541-10.669-29.966-4.99-4.851 3.27-9.112 9.32-7.1 15.433 2.042 6.203 9.204 10.761 15.009 11.841m4.833-14.83c4.262 4.832 15.819 2.36 12.23-2.994" stroke="#000" stroke-linecap="round" stroke-linejoin="round"/><path d="m134.929 185.342c7.428-4.116 17.334-6.585 18.159-6.585 1.651.549 3.302 2.141-3.301 4.117-8.255 2.469-15.683 10.702-18.159 14.818-2.476 4.117-5.777 6.586-8.254 7.41-1.981.658-2.476-1.922-2.476-3.294 2.2-4.117 8.088-13.173 14.031-16.466zm34.669-4.113-1.652-4.117c2.477.824 10.731.825 14.033.002 2.641-.658 9.355-4.665 12.381-6.586 2.201-.823 6.439-1.81 5.779.825-.825 3.293-9.905 7.409-14.032 9.878-3.302 1.976-12.382.822-16.509-.002z" fill="#fff"/><path d="m190.787 235.052c-1.18 2.701-43.165 12.15-66.113.15 9.433-19.386 17.611-40.115 26.642-59.125 0 0-17.005-6.536-3.685-22.902 6.127-7.527 18.184-11.045 24.598-3.758 13.186 14.983-2.779 25.714-2.779 25.714 4.987 16.235 22.517 57.22 21.337 59.921z" fill="#fff"/><path d="m150.521 176.739c-.021.497-.021 1.197-.188 1.659-1.092 3.024-4.813 10.96-5.416 12.265-6.084 13.163-12.443 26.198-18.52 39.364-.901 1.951-1.478 3.914-1.888 6.009m-1.58-2.398c10.412 9.359 51.933 12.968 67.771-.237" stroke="#000" stroke-linecap="round" stroke-linejoin="round"/><path d="m169.996 177.574c.1 1.372.343 2.142.834 3.634 3.438 10.45 7.323 20.76 11.059 31.107 1.949 5.395 3.958 10.795 5.643 16.28.934 3.041 1.828 6.086 2.821 9.109.472 1.438 1.153 2.809 1.42 4.301m-44.387-87.888c-1.598 1.49-3.663 3.434-5.04 5.235-1.633 2.135-1.504 5.919-.593 8.359 2.216 5.936 10.879 8.517 16.523 9.22 2.704.336 5.803.463 8.459-.258 2.709-.737 4.997-2.559 6.888-4.564 2.666-2.828 3.992-5.948 4.502-9.79.452-3.411.374-6.333-1.901-9.065-7.021-8.432-23.077-6.781-30.385.268-4.207 4.058-7.349 10.752-4.301 16.423 3.093 5.755 10.942 9.005 16.847 9.065m-7.777-.251c-5.778 2.47-14.058 5.172-18.983 9.88-1.447 1.382-14.031 13.174-8.252 16.469 5.778 0 7.015-7.411 10.729-11.528 4.456-4.94 9.903-9.057 14.856-10.703" stroke="#000" stroke-linecap="round" stroke-linejoin="round"/><path d="m171.251 181.544c9.906 2.974 23.035-2.819 26.414-7.728 4.952-4.939.52-7.31-6.604-1.647-5.086 4.043-11.555 7.409-21.461 4.938" stroke="#000" stroke-linecap="round" stroke-linejoin="round"/></svg>