<svg fill="none" xmlns="http://www.w3.org/2000/svg" viewBox="0 0 16 16"><path d="M3.333 6.667v4.007c0 .24 0 .359.036.465a.667.667 0 0 0 .154.249c.079.08.186.133.4.24l3.6 1.8c.175.087.262.131.354.148a.664.664 0 0 0 .246 0c.091-.017.179-.06.354-.148l3.6-1.8c.214-.107.32-.16.399-.24a.667.667 0 0 0 .154-.25c.036-.105.036-.225.036-.464V6.667m-11.333-1 6.428-3.215c.088-.043.131-.065.177-.074a.333.333 0 0 1 .123 0c.046.009.09.03.177.074l6.428 3.215L8.238 8.88c-.087.043-.131.065-.177.074a.333.333 0 0 1-.123 0c-.046-.009-.09-.03-.177-.074L1.333 5.667Z" stroke="#0278D5" stroke-linecap="round" stroke-linejoin="round"/></svg>