<svg fill="none" viewBox="0 0 24 25" xmlns="http://www.w3.org/2000/svg" xmlns:xlink="http://www.w3.org/1999/xlink"><filter id="a" color-interpolation-filters="sRGB" filterUnits="userSpaceOnUse" height="24" width="24" x="0" y=".5"><feFlood flood-opacity="0" result="BackgroundImageFix"/><feColorMatrix in="SourceAlpha" result="hardAlpha" type="matrix" values="0 0 0 0 0 0 0 0 0 0 0 0 0 0 0 0 0 0 127 0"/><feOffset dy=".5"/><feGaussianBlur stdDeviation="1"/><feColorMatrix type="matrix" values="0 0 0 0 0.376471 0 0 0 0 0.380392 0 0 0 0 0.439216 0 0 0 0.16 0"/><feBlend in2="BackgroundImageFix" mode="normal" result="effect1_dropShadow_3325_360836"/><feColorMatrix in="SourceAlpha" result="hardAlpha" type="matrix" values="0 0 0 0 0 0 0 0 0 0 0 0 0 0 0 0 0 0 127 0"/><feOffset/><feGaussianBlur stdDeviation=".5"/><feColorMatrix type="matrix" values="0 0 0 0 0.156863 0 0 0 0 0.160784 0 0 0 0 0.239216 0 0 0 0.08 0"/><feBlend in2="effect1_dropShadow_3325_360836" mode="normal" result="effect2_dropShadow_3325_360836"/><feBlend in="SourceGraphic" in2="effect2_dropShadow_3325_360836" mode="normal" result="shape"/></filter><clipPath id="b"><path d="m4.5 3.25h16.25v16.25h-16.25z"/></clipPath><clipPath id="c"><path d="m4.875 4.5h15v15h-15z"/></clipPath><g filter="url(#a)"><circle cx="12" cy="12" fill="#fff" r="10"/></g><circle cx="12" cy="12" fill="#ff7020" r="9.375"/><g clip-path="url(#b)"><g clip-path="url(#c)"><path d="m12.3687 5.75c-3.44995 0-6.2437 2.8-6.2437 6.25s2.79375 6.25 6.2437 6.25c3.4563 0 6.2563-2.8 6.2563-6.25s-2.8-6.25-6.2563-6.25zm.0063 11.25c-2.7625 0-5-2.2375-5-5s2.2375-5 5-5 5 2.2375 5 5-2.2375 5-5 5zm.3125-8.125h-.9375v3.75l3.2812 1.9688.4688-.7688-2.8125-1.6688z" fill="#fff"/></g></g></svg>