<svg xmlns="http://www.w3.org/2000/svg" fill="none" viewBox="0 0 71 20"><path fill="url(#a)" d="M.5 10A9.5 9.5 0 0 1 10 .5h51a9.5 9.5 0 0 1 0 19H10A9.5 9.5 0 0 1 .5 10Z"/><path stroke="url(#b)" d="M.5 10A9.5 9.5 0 0 1 10 .5h51a9.5 9.5 0 0 1 0 19H10A9.5 9.5 0 0 1 .5 10Z"/><path fill="url(#c)" d="M8.959 14V5.273h3.196c.62 0 1.132.102 1.538.307.406.201.71.475.912.822.202.344.303.732.303 1.163 0 .364-.067.67-.2.92a1.65 1.65 0 0 1-.537.597 2.367 2.367 0 0 1-.733.324v.085c.29.015.572.108.848.282.278.17.508.413.69.728.182.316.273.7.273 1.151 0 .446-.106.847-.316 1.202-.207.352-.528.632-.963.84-.434.204-.99.306-1.666.306H8.959Zm1.317-1.13h1.9c.63 0 1.082-.121 1.355-.366.273-.244.41-.55.41-.916 0-.275-.07-.528-.21-.758a1.492 1.492 0 0 0-.596-.55 1.913 1.913 0 0 0-.912-.205h-1.947v2.796Zm0-3.822h1.764c.295 0 .56-.057.797-.17.238-.114.427-.273.566-.477a1.26 1.26 0 0 0 .213-.733c0-.361-.126-.664-.379-.908s-.64-.367-1.163-.367h-1.798v2.655Zm9.293 5.084c-.645 0-1.2-.138-1.666-.413a2.805 2.805 0 0 1-1.074-1.172c-.25-.506-.375-1.098-.375-1.777 0-.67.125-1.261.375-1.773.253-.511.605-.91 1.057-1.197.454-.287.986-.43 1.594-.43.369 0 .727.06 1.073.183a2.6 2.6 0 0 1 .934.575c.275.261.493.6.652 1.018.159.415.238.92.238 1.513v.452h-5.203v-.955h3.955a1.88 1.88 0 0 0-.205-.89 1.546 1.546 0 0 0-.575-.618 1.607 1.607 0 0 0-.86-.226c-.359 0-.671.088-.938.264-.265.173-.47.4-.614.682a1.969 1.969 0 0 0-.213.908v.745c0 .438.077.81.23 1.117.156.307.374.541.652.703.278.159.604.239.976.239a2 2 0 0 0 .66-.103 1.37 1.37 0 0 0 .848-.831l1.206.218c-.096.355-.27.666-.52.933a2.52 2.52 0 0 1-.933.618 3.493 3.493 0 0 1-1.274.217Zm7.318-6.677v1.022H23.31V7.455h3.576ZM24.27 5.886h1.274v6.192c0 .247.037.433.11.558.075.123.17.206.286.252.12.042.249.064.388.064.102 0 .192-.007.269-.022l.179-.034.23 1.053a2.496 2.496 0 0 1-.827.136 2.243 2.243 0 0 1-.937-.179 1.607 1.607 0 0 1-.704-.58c-.178-.26-.268-.589-.268-.984V5.886Zm5.97 8.259c-.414 0-.789-.077-1.124-.23a1.895 1.895 0 0 1-.797-.678c-.193-.295-.29-.658-.29-1.086 0-.37.071-.674.213-.912.142-.239.334-.428.575-.567.242-.14.512-.244.81-.316a8.05 8.05 0 0 1 .912-.161l.955-.111c.244-.031.422-.081.532-.15.111-.068.166-.178.166-.332v-.03c0-.372-.105-.66-.315-.865-.207-.204-.517-.306-.929-.306-.429 0-.767.095-1.014.285a1.528 1.528 0 0 0-.507.627l-1.198-.273c.142-.398.35-.719.623-.963.275-.247.592-.426.95-.537a3.71 3.71 0 0 1 1.13-.17c.26 0 .537.03.83.093.295.06.571.17.827.332.258.162.47.394.635.695.165.298.247.686.247 1.163V14h-1.244v-.895h-.052a1.814 1.814 0 0 1-.37.486 1.97 1.97 0 0 1-.635.396 2.463 2.463 0 0 1-.93.158Zm.278-1.023c.352 0 .653-.07.903-.209a1.45 1.45 0 0 0 .575-.545c.134-.227.2-.47.2-.729v-.843a.665.665 0 0 1-.263.127 4.11 4.11 0 0 1-.44.098c-.164.026-.325.05-.481.073l-.392.05a3.154 3.154 0 0 0-.678.159c-.201.073-.363.18-.485.32-.12.136-.18.317-.18.545 0 .315.117.554.35.716.233.159.53.238.89.238Zm8.008.878V5.273h3.11c.68 0 1.242.123 1.688.37.446.248.78.586 1.002 1.015.221.426.332.906.332 1.44 0 .537-.112 1.02-.337 1.449a2.435 2.435 0 0 1-1.005 1.014c-.446.247-1.007.37-1.684.37h-2.139V9.816h2.02c.43 0 .777-.074 1.044-.221.267-.15.463-.355.588-.614.125-.258.188-.552.188-.882 0-.33-.063-.622-.188-.878a1.345 1.345 0 0 0-.592-.6c-.267-.146-.62-.218-1.057-.218h-1.653V14h-1.317Zm8.888-8.727V14h-1.275V5.273h1.275Zm3.659 8.872c-.415 0-.79-.077-1.125-.23a1.896 1.896 0 0 1-.797-.678c-.193-.295-.29-.658-.29-1.086 0-.37.071-.674.213-.912.142-.239.334-.428.575-.567.242-.14.512-.244.81-.316.298-.07.602-.124.912-.161l.954-.111c.245-.031.422-.081.533-.15.11-.068.166-.178.166-.332v-.03c0-.372-.105-.66-.315-.865-.207-.204-.517-.306-.929-.306-.429 0-.767.095-1.014.285-.244.188-.414.396-.507.627L49.06 9.04c.142-.398.35-.719.622-.963.276-.247.593-.426.95-.537a3.71 3.71 0 0 1 1.13-.17c.261 0 .538.03.83.093.296.06.572.17.828.332.258.162.47.394.635.695.164.298.247.686.247 1.163V14h-1.245v-.895h-.05a1.813 1.813 0 0 1-.372.486 1.961 1.961 0 0 1-.634.396 2.463 2.463 0 0 1-.93.158Zm.277-1.023c.352 0 .653-.07.903-.209a1.45 1.45 0 0 0 .575-.545c.134-.227.2-.47.2-.729v-.843a.665.665 0 0 1-.264.127c-.128.037-.274.07-.439.098-.164.026-.325.05-.481.073l-.392.05a3.154 3.154 0 0 0-.678.159c-.201.073-.363.18-.486.32-.119.136-.178.317-.178.545 0 .315.116.554.349.716.233.159.53.238.89.238Zm5.964-3.008V14H56.04V7.455h1.223V8.52h.08c.151-.347.387-.625.708-.835.324-.21.732-.316 1.223-.316.446 0 .837.094 1.172.282.335.184.595.46.78.826.185.367.277.82.277 1.36V14h-1.274V9.99c0-.474-.124-.845-.371-1.112-.247-.27-.587-.405-1.018-.405-.296 0-.559.064-.789.192a1.379 1.379 0 0 0-.541.562c-.13.245-.196.54-.196.887Z"/><defs><linearGradient id="a" x1="10.5" x2="67" y1="21" y2="2" gradientUnits="userSpaceOnUse"><stop stop-color="#EFFBFF"/><stop offset="1" stop-color="#E4F7E1"/></linearGradient><linearGradient id="b" x1="0" x2="71" y1="10" y2="10" gradientUnits="userSpaceOnUse"><stop stop-color="#07A0AB"/><stop offset="1" stop-color="#42AB45"/></linearGradient><linearGradient id="c" x1="39.5" x2="42.5" y1="13" y2="7" gradientUnits="userSpaceOnUse"><stop stop-color="#07A0AB"/><stop offset="1" stop-color="#42AB45"/></linearGradient></defs></svg>