<svg viewBox="0 0 14 14" fill="none" xmlns="http://www.w3.org/2000/svg">
<path d="M8.50975 3.2073H9.51617C9.78309 3.2073 10.0391 3.3169 10.2278 3.51198C10.4166 3.70706 10.5226 3.97164 10.5226 4.24752V8.49683C10.8585 8.61952 11.1416 8.86101 11.3219 9.17859C11.5022 9.49618 11.568 9.86941 11.5078 10.2323C11.4476 10.5952 11.2652 10.9245 10.9928 11.1618C10.7204 11.3991 10.3756 11.5293 10.0194 11.5293C9.66313 11.5293 9.31835 11.3991 9.04599 11.1618C8.77362 10.9245 8.5912 10.5952 8.53098 10.2323C8.47076 9.86941 8.53661 9.49618 8.71689 9.17859C8.89718 8.86101 9.18028 8.61952 9.51617 8.49683V4.24752H8.50975V5.80786L6.2453 3.72741L8.50975 1.64697V3.2073ZM3.47763 5.19933C3.14174 5.07663 2.85864 4.83515 2.67835 4.51756C2.49807 4.19998 2.43222 3.82674 2.49244 3.46383C2.55266 3.10091 2.73508 2.77169 3.00745 2.53435C3.27981 2.29701 3.62459 2.16683 3.98084 2.16683C4.3371 2.16683 4.68188 2.29701 4.95424 2.53435C5.22661 2.77169 5.40903 3.10091 5.46925 3.46383C5.52947 3.82674 5.46362 4.19998 5.28334 4.51756C5.10305 4.83515 4.81995 5.07663 4.48406 5.19933V8.49683C4.81995 8.61952 5.10305 8.86101 5.28334 9.17859C5.46362 9.49618 5.52947 9.86941 5.46925 10.2323C5.40903 10.5952 5.22661 10.9245 4.95424 11.1618C4.68188 11.3991 4.3371 11.5293 3.98084 11.5293C3.62459 11.5293 3.27981 11.3991 3.00745 11.1618C2.73508 10.9245 2.55266 10.5952 2.49244 10.2323C2.43222 9.86941 2.49807 9.49618 2.67835 9.17859C2.85864 8.86101 3.14174 8.61952 3.47763 8.49683V5.19933ZM3.98084 4.24752C4.1143 4.24752 4.2423 4.19273 4.33667 4.09519C4.43104 3.99765 4.48406 3.86536 4.48406 3.72741C4.48406 3.58947 4.43104 3.45718 4.33667 3.35964C4.2423 3.2621 4.1143 3.2073 3.98084 3.2073C3.84738 3.2073 3.71939 3.2621 3.62502 3.35964C3.53065 3.45718 3.47763 3.58947 3.47763 3.72741C3.47763 3.86536 3.53065 3.99765 3.62502 4.09519C3.71939 4.19273 3.84738 4.24752 3.98084 4.24752ZM3.98084 10.4889C4.1143 10.4889 4.2423 10.4341 4.33667 10.3365C4.43104 10.239 4.48406 10.1067 4.48406 9.96874C4.48406 9.8308 4.43104 9.69851 4.33667 9.60097C4.2423 9.50343 4.1143 9.44863 3.98084 9.44863C3.84738 9.44863 3.71939 9.50343 3.62502 9.60097C3.53065 9.69851 3.47763 9.8308 3.47763 9.96874C3.47763 10.1067 3.53065 10.239 3.62502 10.3365C3.71939 10.4341 3.84738 10.4889 3.98084 10.4889ZM10.0194 10.4889C10.1528 10.4889 10.2808 10.4341 10.3752 10.3365C10.4696 10.239 10.5226 10.1067 10.5226 9.96874C10.5226 9.8308 10.4696 9.69851 10.3752 9.60097C10.2808 9.50343 10.1528 9.44863 10.0194 9.44863C9.88593 9.44863 9.75793 9.50343 9.66356 9.60097C9.56919 9.69851 9.51617 9.8308 9.51617 9.96874C9.51617 10.1067 9.56919 10.239 9.66356 10.3365C9.75793 10.4341 9.88593 10.4889 10.0194 10.4889Z" fill="#299B2C"/>
</svg>
