<svg xmlns="http://www.w3.org/2000/svg" fill="none" viewBox="0 0 16 16"><path fill="#383946" fill-rule="evenodd" d="M8.226.85a.533.533 0 0 0-.451 0l-6.4 2.987a.533.533 0 0 0-.308.483v7.36c0 .207.12.396.308.483l6.4 2.987a.533.533 0 0 0 .45 0l6.4-2.987a.533.533 0 0 0 .309-.483V4.32a.533.533 0 0 0-.308-.483L8.226.85ZM8 3.367l-1.62-.689L8 1.922l1.621.756-1.62.69Zm.209 1.07 2.712-1.152 2.17 1.012L8 6.461 2.91 4.297l2.17-1.012 2.712 1.153a.533.533 0 0 0 .417 0Zm.325 2.956 5.333-2.267v3.332L11.82 9.4c-.378.174-.62.553-.62.97v2.216L8.533 13.83V7.393Zm3.733 4.694 1.6-.747V9.632l-1.6.736v1.72Zm-4.8-4.694v6.436l-2.664-1.243v-2.218c0-.416-.243-.795-.621-.969l-2.048-.942v-3.33l5.333 2.266ZM2.134 11.34l1.602.748v-1.72l-1.602-.737v1.71Z" clip-rule="evenodd"/></svg>