<svg xmlns="http://www.w3.org/2000/svg" fill="none" viewBox="0 0 48 33"><path fill="url(#a)" fill-rule="evenodd" d="M36.677 33H9.075a9.075 9.075 0 0 1-1.797-17.972.182.182 0 0 0 .146-.178C7.424 6.649 14.073 0 22.274 0c7.134 0 13.094 5.03 14.524 11.738a.86.86 0 0 0 .771.672c5.295.435 9.457 4.87 9.457 10.277 0 5.558-4.397 10.09-9.902 10.305V33h-.447ZM20.963 20.743l2.285-5.712.047-.117.564-1.412.58-1.449.757-1.892a.888.888 0 0 1 1.65.66l-1.102 2.754-.58 1.45-.081.202-.038.094-2.351 5.88-.735 1.835-2.22 5.55a.888.888 0 1 1-1.65-.66l2.048-5.119.826-2.064Zm-2.143-5.326Zm4.708-4.427c.18.02.283.032.283.03l-.298-.047.015.017Zm-7.538 5.459a.888.888 0 1 0-1.257-1.257l-3.553 3.553a.888.888 0 0 0 0 1.257l3.553 3.553a.888.888 0 0 0 1.257-1.256l-2.925-2.925 2.925-2.925Zm14.212-1.257a.889.889 0 0 0-1.257 1.257l2.925 2.925-2.925 2.925a.888.888 0 0 0 1.257 1.256l3.553-3.553a.889.889 0 0 0 0-1.256l-3.553-3.553Z" clip-rule="evenodd"/><defs><linearGradient id="a" x1="10.45" x2="29.767" y1="2.613" y2="39.038" gradientUnits="userSpaceOnUse"><stop stop-color="#21D0E0"/><stop offset="1" stop-color="#7B5AFF"/></linearGradient></defs></svg>