<svg width="24" height="24" viewBox="0 0 24 24" fill="none" xmlns="http://www.w3.org/2000/svg">
<path fill-rule="evenodd" clip-rule="evenodd" d="M18.3839 20.0998L18.3663 20.0999L5.0365 20.0998C2.61939 20.0997 0.659973 18.1052 0.659973 15.6449C0.659973 13.4865 2.16796 11.6866 4.17002 11.2773C4.21092 11.2689 4.2407 11.2324 4.2407 11.1899C4.2407 7.16378 7.44718 3.89996 11.4026 3.89996C14.8433 3.89996 17.7173 6.3696 18.407 9.66236C18.4449 9.84339 18.5978 9.97701 18.779 9.99216C21.3328 10.2057 23.3399 12.383 23.3399 15.0374C23.3399 17.7651 21.2205 19.989 18.5664 20.0959C18.5654 20.0959 18.5645 20.0968 18.5645 20.0979C18.5645 20.0983 18.5644 20.0987 18.5641 20.099C18.5638 20.0995 18.5632 20.0998 18.5625 20.0998H18.3839ZM9.5494 17.6332C9.5494 17.2408 9.86751 16.9227 10.2599 16.9227H14.4599C14.8523 16.9227 15.1704 17.2408 15.1704 17.6332C15.1704 18.0257 14.8523 18.3438 14.4599 18.3438H10.2599C9.86751 18.3438 9.5494 18.0257 9.5494 17.6332ZM10.7434 8.24592C10.4558 7.97891 10.0063 7.99556 9.73926 8.28311C9.47224 8.57067 9.48889 9.02024 9.77645 9.28725L12.4824 11.7999L9.77645 14.3125C9.48889 14.5795 9.47224 15.0291 9.73926 15.3167C10.0063 15.6042 10.4558 15.6209 10.7434 15.3539L14.01 12.3206C14.1548 12.1861 14.2371 11.9975 14.2371 11.7999C14.2371 11.6023 14.1548 11.4137 14.01 11.2792L10.7434 8.24592Z" fill="url(#paint0_linear_228_5598)"/>
<defs>
<linearGradient id="paint0_linear_228_5598" x1="4.41202" y1="5.98048" x2="14.3297" y2="21.4011" gradientUnits="userSpaceOnUse">
<stop stop-color="#4791FF"/>
<stop offset="1" stop-color="#2E1CF3"/>
</linearGradient>
</defs>
</svg>
