<svg fill="none" xmlns="http://www.w3.org/2000/svg" viewBox="0 0 70 69"><rect x="8.5" y="7.5" width="53" height="53" rx="7.5" stroke="#6B6D85"/><rect x="13.5" y="12.5" width="19" height="7" rx="1.5" stroke="#6B6D85"/><rect x="37.5" y="12.5" width="19" height="7" rx="1.5" stroke="#6B6D85"/><rect x="13.5" y="24.5" width="19" height="7" rx="1.5" stroke="#6B6D85"/><rect x="37.5" y="24.5" width="19" height="7" rx="1.5" stroke="#6B6D85"/><rect x="13.5" y="36.5" width="19" height="7" rx="1.5" stroke="#6B6D85"/><rect x="37.5" y="36.5" width="19" height="7" rx="1.5" stroke="#6B6D85"/><rect x="13.5" y="48.5" width="19" height="7" rx="1.5" stroke="#6B6D85"/><rect x="37.5" y="48.5" width="19" height="7" rx="1.5" stroke="#6B6D85"/><path fill="#6B6D85" d="M0 20h8v1H0zM0 29h8v1H0zM0 38h8v1H0zM0 47h8v1H0zM62 20h8v1h-8zM62 29h8v1h-8zM62 38h8v1h-8zM62 47h8v1h-8zM21 69v-8h1v8zM30 69v-8h1v8zM39 69v-8h1v8zM48 69v-8h1v8zM21 8V0h1v8zM30 8V0h1v8zM39 8V0h1v8zM48 8V0h1v8z"/></svg>