<svg fill="none" xmlns="http://www.w3.org/2000/svg" viewBox="0 0 126 77"><g clip-path="url(#a)"><path stroke="#6B6D85" d="M11.5 52.5h52v11h-52z"/><path d="M41.112 19.5h-27.4A2.713 2.713 0 0 0 11 22.213v13.883a2.713 2.713 0 0 0 2.713 2.712h27.399a2.713 2.713 0 0 0 2.712-2.712V22.213a2.713 2.713 0 0 0-2.712-2.713Z" fill="#000" fill-opacity=".2"/><path d="M16.912 33.5v-8.76h2.772c.584 0 1.088.108 1.512.324.432.216.768.52 1.008.912.24.384.36.84.36 1.368 0 .576-.148 1.084-.444 1.524-.288.44-.68.752-1.176.936l1.74 3.696h-1.68l-1.524-3.48h-1.068v3.48h-1.5Zm1.5-4.8h1.272c.424 0 .756-.116.996-.348.24-.232.36-.552.36-.96 0-.416-.12-.74-.36-.972-.24-.24-.572-.36-.996-.36h-1.272v2.64Zm5.203 4.8 2.208-8.76h1.932l2.22 8.76H28.44l-.48-2.124h-2.328l-.48 2.124h-1.536Zm2.292-3.348h1.776l-.528-2.352a58.966 58.966 0 0 1-.228-1.056 24.78 24.78 0 0 1-.132-.696 24.78 24.78 0 0 1-.132.696c-.056.312-.132.66-.228 1.044l-.528 2.364Zm5.156 3.348v-8.76h1.776l.852 2.784c.088.28.16.536.216.768.056.232.092.4.108.504.016-.104.052-.272.108-.504.056-.232.124-.488.204-.768l.816-2.784h1.776v8.76h-1.404v-2.724c0-.4.012-.836.036-1.308.024-.472.052-.944.084-1.416.032-.472.068-.92.108-1.344.048-.424.088-.796.12-1.116l-1.176 4.14h-1.368l-1.212-4.14a44.266 44.266 0 0 1 .228 2.4c.04.464.072.936.096 1.416.024.48.036.936.036 1.368V33.5h-1.404Z" fill="#000"/><path d="M51.424 33.62c-.536 0-1.004-.092-1.404-.276a2.154 2.154 0 0 1-.912-.816c-.216-.352-.324-.764-.324-1.236 0-.52.14-.968.42-1.344.288-.376.74-.712 1.356-1.008l1.164-.564c.352-.168.624-.388.816-.66.192-.272.288-.572.288-.9 0-.384-.128-.688-.384-.912-.248-.224-.588-.336-1.02-.336-.432 0-.776.116-1.032.348-.248.224-.372.528-.372.912 0 .32.092.616.276.888.192.272.452.488.78.648l1.164.552c.64.296 1.104.636 1.392 1.02.288.376.432.828.432 1.356 0 .712-.24 1.28-.72 1.704-.472.416-1.112.624-1.92.624Zm0-.96c.488 0 .872-.124 1.152-.372.288-.256.432-.596.432-1.02 0-.344-.092-.656-.276-.936a1.937 1.937 0 0 0-.792-.672l-1.152-.564c-.64-.312-1.104-.648-1.392-1.008-.288-.36-.432-.792-.432-1.296 0-.448.1-.836.3-1.164.2-.328.484-.58.852-.756.368-.176.804-.264 1.308-.264s.94.088 1.308.264c.368.176.652.428.852.756.2.328.3.716.3 1.164 0 .504-.144.936-.432 1.296-.288.352-.764.692-1.428 1.02l-1.152.564c-.328.16-.584.38-.768.66a1.643 1.643 0 0 0-.264.912c0 .432.14.776.42 1.032.288.256.676.384 1.164.384Zm7.243.96c-.528 0-.988-.1-1.38-.3a2.178 2.178 0 0 1-.9-.864c-.208-.384-.312-.836-.312-1.356v-3.96c0-.528.104-.98.313-1.356.215-.376.516-.664.9-.864.392-.2.852-.3 1.38-.3.528 0 .983.104 1.367.312.385.2.68.488.889.864.208.376.312.824.312 1.344h-1.08c0-.496-.133-.876-.396-1.14-.256-.272-.62-.408-1.093-.408-.471 0-.843.132-1.116.396-.264.264-.395.644-.395 1.14V31.1c0 .496.132.88.395 1.152.273.272.645.408 1.116.408.472 0 .837-.136 1.093-.408.264-.272.396-.656.396-1.152v-1.08H58.38v-.984h2.855V31.1c0 .512-.103.96-.312 1.344a2.178 2.178 0 0 1-.888.876c-.383.2-.84.3-1.367.3Zm4.664-.12v-8.76h2.484c.8 0 1.424.2 1.872.6.456.4.684.956.684 1.668 0 .4-.084.748-.252 1.044a1.7 1.7 0 0 1-.72.684c-.304.16-.672.236-1.104.228v-.18c.464-.008.864.08 1.2.264.344.184.608.448.792.792.192.344.288.752.288 1.224 0 .496-.104.928-.312 1.296a2.122 2.122 0 0 1-.888.852c-.384.192-.844.288-1.38.288H63.33Zm1.056-.972h1.488c.504 0 .9-.132 1.188-.396.296-.272.444-.64.444-1.104 0-.48-.148-.868-.444-1.164-.288-.304-.684-.456-1.188-.456h-1.488v3.12Zm0-4.056h1.416c.464 0 .828-.124 1.092-.372.272-.248.408-.584.408-1.008 0-.424-.132-.76-.396-1.008s-.628-.372-1.092-.372h-1.428v2.76Z" fill="#6B6D85"/></g><rect x=".5" y="14" width="125" height="49" rx="3.5" stroke="#6B6D85"/><defs><clipPath id="a"><rect y="13.5" width="126" height="50" rx="4" fill="#fff"/></clipPath></defs></svg>