<svg viewBox="0 0 183 47" fill="none" xmlns="http://www.w3.org/2000/svg">
<path fill-rule="evenodd" clip-rule="evenodd" d="M1 23.9128L2.07738 22.8068L3.15476 23.3598L4.23214 22.5303L5.30952 23.0833L6.38691 21.7008L7.46429 20.8713L8.54167 19.7654L9.61905 20.5948L10.6964 21.7008L11.7738 23.0833L12.8512 24.4658L13.9286 25.2952L15.006 26.4012L16.0833 25.2952L17.1607 24.7423L18.2381 23.6363L19.3155 23.3598L20.3929 23.9128L21.4702 21.9773L22.5476 21.1478L23.625 20.3183L24.7024 19.2124L25.7798 19.7654L26.8571 20.5948L27.9345 20.0419L29.0119 19.4889L30.0893 18.9359L31.1667 19.4889L32.2441 19.2124L33.3214 19.7654L34.3988 20.5948L35.4762 20.0419L36.5536 21.4243L37.631 22.5303L38.7083 23.6363L39.7857 23.3598L40.8631 22.5303L41.9405 23.3598L43.0179 24.4658L44.0952 25.2952H45.1726L46.25 24.7423L47.3274 25.5717L48.4048 26.9542L49.4821 28.3367L50.5595 28.8897L51.6369 28.0602L52.7143 26.6777L53.7917 26.1247L54.869 25.8482L55.9464 23.9128L57.0238 23.0833L58.1012 21.9773L59.1786 21.7008L60.256 20.8713L61.3333 21.7008L62.4107 21.4243L63.4881 20.8713L64.5655 10.3646L65.6429 17.0004L66.7202 18.3829L67.7976 18.1064L68.875 18.6594L69.9524 17.8299L71.0298 18.9359L72.1071 17.8299L73.1845 18.1064L74.2619 19.2124L75.3393 20.0419L76.4167 20.5948L77.494 20.3183L78.5714 21.1478L79.6488 21.4243L80.7262 20.8713L81.8036 20.3183L82.881 19.4889L83.9583 18.9359L85.0357 19.2124L86.1131 24.1893L87.1905 25.0187L88.2679 26.6777L89.3452 25.8482L90.4226 26.4012L91.5 26.9542L92.5774 26.4012L93.6548 25.5717L94.7321 25.0187L95.8095 25.8482L96.8869 26.4012L97.9643 25.8482L99.0417 25.0187L100.119 23.3598L101.196 23.9128L102.274 24.7423L103.351 25.5717L104.429 25.2952L105.506 25.8482H106.583L107.661 26.4012L108.738 27.5072L109.815 26.4012L110.893 25.2952L111.97 24.1893L113.048 23.3598L114.125 23.0833L115.202 24.1893L116.28 25.2952L117.357 23.6363L118.435 23.0833L119.512 23.6363L120.589 22.5303L121.667 2.06976L122.744 20.5948L123.821 20.0419L124.899 19.4889L125.976 19.2124L127.054 17.8299L128.131 19.2124L129.208 18.6594L130.286 19.7654L131.363 21.9773L132.44 23.6363L133.518 22.8068L134.595 21.4243L135.673 18.6594L136.75 19.2124L137.827 21.1478L138.905 19.4889L139.982 18.1064L141.06 18.9359L142.137 20.0419L143.214 21.9773L144.292 23.6363L145.369 22.8068L146.446 23.6363L147.524 25.0187L148.601 25.5717L149.679 27.2307L150.756 26.9542L151.833 26.4012L152.911 26.1247L153.988 27.7837L155.065 27.2307L156.143 26.4012L157.22 25.0187L158.298 25.2952L159.375 24.4658L160.452 23.3598L161.53 21.9773L162.607 23.0833L163.685 23.9128L164.762 22.2538L165.839 21.7008L166.917 22.2538L167.994 23.9128L169.071 25.8482L170.149 26.6777L171.226 27.5072L172.304 26.9542L173.381 25.5717L174.458 24.4658L175.536 23.3598L176.613 22.8068L177.69 23.3598L178.768 23.0833L179.845 23.3598L180.923 23.0833L182 21.9773V41C182 44.3137 179.314 47 176 47H7C3.68629 47 1 44.3137 1 41V23.9128Z" fill="url(#paint0_linear_132_60230)" fill-opacity="0.3"/>
<path d="M1 24.306L2.07738 23.126L3.15476 23.716L4.23214 22.831L5.30952 23.421L6.38691 21.9459L7.46429 21.0609L8.54167 19.8808L9.61905 20.7659L10.6964 21.9459L11.7738 23.421L12.8512 24.8961L13.9286 25.7811L15.006 26.9612L16.0833 25.7811L17.1607 25.1911L18.2381 24.011L19.3155 23.716L20.3929 24.306L21.4702 22.2409L22.5476 21.3559L23.625 20.4709L24.7024 19.2908L25.7798 19.8808L26.8571 20.7659L27.9345 20.1759L29.0119 19.5858L30.0893 18.9958L31.1667 19.5858L32.244 19.2908L33.3214 19.8808L34.3988 20.7659L35.4762 20.1759L36.5536 21.6509L37.631 22.831L38.7083 24.011L39.7857 23.716L40.8631 22.831L41.9405 23.716L43.0179 24.8961L44.0952 25.7811H45.1726L46.25 25.1911L47.3274 26.0761L48.4048 27.5512L49.4821 29.0263L50.5595 29.6163L51.6369 28.7312L52.7143 27.2562L53.7917 26.6661L54.869 26.3711L55.9464 24.306L57.0238 23.421L58.1012 22.2409L59.1786 21.9459L60.256 21.0609L61.3333 21.9459L62.4107 21.6509L63.4881 21.0609L64.5655 9.85039L65.6429 16.9307L66.7202 18.4058L67.7976 18.1108L68.875 18.7008L69.9524 17.8158L71.0298 18.9958L72.1071 17.8158L73.1845 18.1108L74.2619 19.2908L75.3393 20.1759L76.4167 20.7659L77.494 20.4709L78.5714 21.3559L79.6488 21.6509L80.7262 21.0609L81.8036 20.4709L82.881 19.5858L83.9583 18.9958L85.0357 19.2908L86.1131 24.6011L87.1905 25.4861L88.2679 27.2562L89.3452 26.3711L90.4226 26.9612L91.5 27.5512L92.5774 26.9612L93.6548 26.0761L94.7321 25.4861L95.8095 26.3711L96.8869 26.9612L97.9643 26.3711L99.0417 25.4861L100.119 23.716L101.196 24.306L102.274 25.1911L103.351 26.0761L104.429 25.7811L105.506 26.3711H106.583L107.661 26.9612L108.738 28.1412L109.815 26.9612L110.893 25.7811L111.97 24.6011L113.048 23.716L114.125 23.421L115.202 24.6011L116.28 25.7811L117.357 24.011L118.435 23.421L119.512 24.011L120.589 22.831L121.667 1L122.744 20.7659L123.821 20.1759L124.899 19.5858L125.976 19.2908L127.054 17.8158L128.131 19.2908L129.208 18.7008L130.286 19.8808L131.363 22.2409L132.44 24.011L133.518 23.126L134.595 21.6509L135.673 18.7008L136.75 19.2908L137.827 21.3559L138.905 19.5858L139.982 18.1108L141.06 18.9958L142.137 20.1759L143.214 22.2409L144.292 24.011L145.369 23.126L146.446 24.011L147.524 25.4861L148.601 26.0761L149.679 27.8462L150.756 27.5512L151.833 26.9612L152.911 26.6661L153.988 28.4362L155.065 27.8462L156.143 26.9612L157.22 25.4861L158.298 25.7811L159.375 24.8961L160.452 23.716L161.53 22.2409L162.607 23.421L163.685 24.306L164.762 22.536L165.839 21.9459L166.917 22.536L167.994 24.306L169.071 26.3711L170.149 27.2562L171.226 28.1412L172.304 27.5512L173.381 26.0761L174.458 24.8961L175.536 23.716L176.613 23.126L177.69 23.716L178.768 23.421L179.845 23.716L180.923 23.421L182 22.2409" stroke="#798BEC" stroke-width="1.5" stroke-linecap="round" stroke-linejoin="round" stroke-dasharray="3 3"/>
<defs>
<linearGradient id="paint0_linear_132_60230" x1="1" y1="2.06976" x2="1" y2="47" gradientUnits="userSpaceOnUse">
<stop stop-color="#C286FF"/>
<stop offset="1" stop-color="#DBD5FF"/>
</linearGradient>
</defs>
</svg>
