<svg viewBox="0 0 320 46" fill="none" xmlns="http://www.w3.org/2000/svg">
<rect opacity="0.7" width="320" height="46" rx="6" fill="#FAFBFC"/>
<path d="M147.496 18.5455V28H146.065V19.9766H146.01L143.748 21.4538V20.0874L146.107 18.5455H147.496ZM153.355 28.1293C152.933 28.1231 152.518 28.0462 152.108 27.8984C151.702 27.7507 151.333 27.5045 151 27.1598C150.668 26.8151 150.402 26.3519 150.202 25.7702C150.005 25.1886 149.906 24.4622 149.906 23.5913C149.906 22.7665 149.988 22.034 150.151 21.3938C150.317 20.7537 150.556 20.2135 150.866 19.7734C151.177 19.3303 151.553 18.9933 151.993 18.7624C152.433 18.5316 152.927 18.4162 153.475 18.4162C154.038 18.4162 154.538 18.527 154.975 18.7486C155.412 18.9702 155.766 19.2764 156.037 19.6673C156.311 20.0581 156.485 20.5028 156.559 21.0014H155.151C155.055 20.6075 154.866 20.2859 154.583 20.0366C154.3 19.7873 153.93 19.6626 153.475 19.6626C152.782 19.6626 152.242 19.9643 151.854 20.5675C151.47 21.1707 151.276 22.0094 151.273 23.0835H151.342C151.505 22.8157 151.705 22.5879 151.942 22.4002C152.182 22.2094 152.45 22.0632 152.745 21.9616C153.044 21.857 153.358 21.8047 153.687 21.8047C154.235 21.8047 154.73 21.9386 155.174 22.2063C155.62 22.471 155.975 22.8372 156.24 23.305C156.505 23.7728 156.637 24.3084 156.637 24.9116C156.637 25.5148 156.5 26.0611 156.226 26.5504C155.955 27.0398 155.574 27.4276 155.081 27.7138C154.589 27.9969 154.013 28.1354 153.355 28.1293ZM153.35 26.929C153.713 26.929 154.038 26.8397 154.324 26.6612C154.61 26.4827 154.837 26.2427 155.003 25.9411C155.169 25.6394 155.252 25.3024 155.252 24.93C155.252 24.5669 155.171 24.236 155.007 23.9375C154.847 23.639 154.626 23.402 154.343 23.2266C154.063 23.0511 153.743 22.9634 153.382 22.9634C153.109 22.9634 152.855 23.0157 152.621 23.1204C152.39 23.225 152.187 23.3697 152.011 23.5543C151.836 23.739 151.697 23.9513 151.596 24.1914C151.497 24.4284 151.448 24.6792 151.448 24.9439C151.448 25.2978 151.53 25.6256 151.693 25.9272C151.859 26.2288 152.085 26.4719 152.371 26.6566C152.661 26.8382 152.987 26.929 153.35 26.929ZM161.439 28.1293C160.861 28.1293 160.341 28.0185 159.879 27.7969C159.42 27.5722 159.054 27.2644 158.78 26.8736C158.506 26.4827 158.36 26.0365 158.342 25.5348H159.727C159.761 25.9411 159.941 26.275 160.267 26.5366C160.593 26.7982 160.984 26.929 161.439 26.929C161.803 26.929 162.124 26.8459 162.404 26.6797C162.687 26.5104 162.909 26.2781 163.069 25.9826C163.232 25.6871 163.314 25.3501 163.314 24.9716C163.314 24.5869 163.231 24.2437 163.064 23.9421C162.898 23.6405 162.669 23.4035 162.377 23.2312C162.087 23.0588 161.755 22.9711 161.379 22.968C161.093 22.968 160.805 23.0173 160.516 23.1158C160.227 23.2143 159.993 23.3435 159.814 23.5036L158.508 23.3097L159.039 18.5455H164.237V19.7688H160.225L159.925 22.4141H159.981C160.165 22.2356 160.41 22.0863 160.715 21.9663C161.022 21.8462 161.352 21.7862 161.703 21.7862C162.278 21.7862 162.79 21.9232 163.24 22.1971C163.692 22.471 164.048 22.8449 164.306 23.3189C164.568 23.7898 164.697 24.3314 164.694 24.9439C164.697 25.5563 164.559 26.1026 164.278 26.5827C164.002 27.0629 163.617 27.4414 163.124 27.7184C162.635 27.9923 162.073 28.1293 161.439 28.1293Z" fill="#6B6D85"/>
<path d="M127.443 16.1274C126.44 16.1306 125.585 16.8531 125.415 17.8403C125.246 18.8274 125.811 19.7936 126.755 20.1307V20.9382C126.755 21.3178 126.447 21.6255 126.067 21.6255H121.94C121.705 21.6264 121.473 21.6671 121.252 21.7457V20.1307C122.199 19.7959 122.768 18.8278 122.598 17.8381C122.428 16.8484 121.569 16.125 120.564 16.125C119.559 16.125 118.7 16.8484 118.53 17.8381C118.36 18.8278 118.928 19.7959 119.876 20.1307V25.8693C118.928 26.2041 118.36 27.1722 118.53 28.1619C118.7 29.1516 119.559 29.875 120.564 29.875C121.569 29.875 122.428 29.1516 122.598 28.1619C122.768 27.1722 122.199 26.2041 121.252 25.8693V23.6873C121.252 23.3077 121.56 23 121.94 23H126.067C127.207 23 128.131 22.0769 128.131 20.9382V20.1307C129.075 19.7936 129.64 18.8274 129.47 17.8403C129.3 16.8531 128.445 16.1306 127.443 16.1274Z" fill="#B0B1C4"/>
<path d="M213.909 28V26.9659L217.109 23.6513C217.45 23.2912 217.732 22.9757 217.953 22.7049C218.178 22.431 218.346 22.1709 218.457 21.9247C218.567 21.6785 218.623 21.4169 218.623 21.1399C218.623 20.826 218.549 20.5552 218.401 20.3274C218.254 20.0966 218.052 19.9196 217.797 19.7965C217.541 19.6703 217.253 19.6072 216.933 19.6072C216.595 19.6072 216.299 19.6765 216.047 19.815C215.795 19.9535 215.601 20.1489 215.465 20.4013C215.33 20.6536 215.262 20.9491 215.262 21.2876H213.9C213.9 20.7121 214.033 20.2089 214.297 19.7781C214.562 19.3472 214.925 19.0133 215.387 18.7763C215.848 18.5362 216.373 18.4162 216.961 18.4162C217.555 18.4162 218.078 18.5347 218.531 18.7717C218.986 19.0056 219.342 19.3256 219.597 19.7319C219.852 20.1351 219.98 20.5906 219.98 21.0984C219.98 21.4492 219.914 21.7924 219.782 22.1278C219.652 22.4633 219.426 22.8372 219.103 23.2496C218.78 23.659 218.33 24.156 217.755 24.7408L215.876 26.7074V26.7766H220.132V28H213.909ZM225.174 28.1293C224.54 28.1293 223.973 28.02 223.475 27.8015C222.979 27.583 222.587 27.2798 222.298 26.892C222.011 26.5012 221.857 26.0488 221.836 25.5348H223.286C223.304 25.8149 223.398 26.058 223.567 26.2642C223.739 26.4673 223.964 26.6243 224.241 26.7351C224.518 26.8459 224.826 26.9013 225.164 26.9013C225.537 26.9013 225.866 26.8366 226.152 26.7074C226.442 26.5781 226.668 26.3981 226.831 26.1673C226.994 25.9334 227.076 25.6641 227.076 25.3594C227.076 25.0424 226.994 24.7638 226.831 24.5238C226.671 24.2807 226.435 24.0898 226.125 23.9513C225.817 23.8129 225.444 23.7436 225.007 23.7436H224.209V22.5803H225.007C225.358 22.5803 225.666 22.5172 225.931 22.391C226.199 22.2648 226.408 22.0894 226.559 21.8647C226.709 21.637 226.785 21.3707 226.785 21.0661C226.785 20.7737 226.719 20.5198 226.586 20.3043C226.457 20.0858 226.272 19.915 226.032 19.7919C225.795 19.6688 225.515 19.6072 225.192 19.6072C224.884 19.6072 224.597 19.6642 224.329 19.7781C224.064 19.8888 223.849 20.0489 223.683 20.2582C223.516 20.4644 223.427 20.7121 223.415 21.0014H222.034C222.05 20.4905 222.201 20.0412 222.487 19.6534C222.776 19.2656 223.158 18.9625 223.632 18.744C224.106 18.5254 224.632 18.4162 225.211 18.4162C225.817 18.4162 226.34 18.5347 226.78 18.7717C227.223 19.0056 227.565 19.3179 227.805 19.7088C228.048 20.0997 228.168 20.5275 228.165 20.9922C228.168 21.5215 228.02 21.9709 227.722 22.3402C227.426 22.7095 227.033 22.9573 226.54 23.0835V23.1573C227.168 23.2527 227.654 23.502 227.999 23.9052C228.347 24.3084 228.519 24.8085 228.516 25.4055C228.519 25.9257 228.374 26.3919 228.082 26.8043C227.793 27.2167 227.397 27.5414 226.896 27.7784C226.394 28.0123 225.82 28.1293 225.174 28.1293Z" fill="#6B6D85"/>
<path fill-rule="evenodd" clip-rule="evenodd" d="M198.541 22.1543H202.25V23.8458H198.541C198.14 26.0592 196.229 27.667 194 27.667C191.771 27.667 189.86 26.0592 189.459 23.8458H185.75V22.1543H189.459C189.86 19.9409 191.771 18.333 194 18.333C196.229 18.333 198.14 19.9409 198.541 22.1543ZM191.053 23C191.053 24.6426 192.372 25.9742 194 25.9742C195.627 25.9742 196.946 24.6426 196.946 23C196.946 21.3573 195.627 20.0257 194 20.0257C192.372 20.0257 191.053 21.3573 191.053 23Z" fill="#B0B1C3"/>
<path d="M280.496 18.5455V28H279.065V19.9766H279.01L276.748 21.4538V20.0874L279.107 18.5455H280.496ZM283.054 28V26.9659L286.253 23.6513C286.595 23.2912 286.876 22.9757 287.098 22.7049C287.323 22.431 287.49 22.1709 287.601 21.9247C287.712 21.6785 287.767 21.4169 287.767 21.1399C287.767 20.826 287.694 20.5552 287.546 20.3274C287.398 20.0966 287.196 19.9196 286.941 19.7965C286.686 19.6703 286.398 19.6072 286.078 19.6072C285.739 19.6072 285.444 19.6765 285.191 19.815C284.939 19.9535 284.745 20.1489 284.61 20.4013C284.474 20.6536 284.407 20.9491 284.407 21.2876H283.045C283.045 20.7121 283.177 20.2089 283.442 19.7781C283.706 19.3472 284.07 19.0133 284.531 18.7763C284.993 18.5362 285.518 18.4162 286.105 18.4162C286.699 18.4162 287.223 18.5347 287.675 18.7717C288.131 19.0056 288.486 19.3256 288.741 19.7319C288.997 20.1351 289.125 20.5906 289.125 21.0984C289.125 21.4492 289.058 21.7924 288.926 22.1278C288.797 22.4633 288.571 22.8372 288.248 23.2496C287.924 23.659 287.475 24.156 286.9 24.7408L285.021 26.7074V26.7766H289.277V28H283.054ZM294.318 28.1293C293.684 28.1293 293.118 28.02 292.619 27.8015C292.124 27.583 291.731 27.2798 291.442 26.892C291.156 26.5012 291.002 26.0488 290.98 25.5348H292.43C292.449 25.8149 292.542 26.058 292.712 26.2642C292.884 26.4673 293.109 26.6243 293.386 26.7351C293.663 26.8459 293.97 26.9013 294.309 26.9013C294.681 26.9013 295.011 26.8366 295.297 26.7074C295.586 26.5781 295.812 26.3981 295.975 26.1673C296.139 25.9334 296.22 25.6641 296.22 25.3594C296.22 25.0424 296.139 24.7638 295.975 24.5238C295.815 24.2807 295.58 24.0898 295.269 23.9513C294.961 23.8129 294.589 23.7436 294.152 23.7436H293.353V22.5803H294.152C294.503 22.5803 294.811 22.5172 295.075 22.391C295.343 22.2648 295.552 22.0894 295.703 21.8647C295.854 21.637 295.929 21.3707 295.929 21.0661C295.929 20.7737 295.863 20.5198 295.731 20.3043C295.602 20.0858 295.417 19.915 295.177 19.7919C294.94 19.6688 294.66 19.6072 294.337 19.6072C294.029 19.6072 293.741 19.6642 293.473 19.7781C293.209 19.8888 292.993 20.0489 292.827 20.2582C292.661 20.4644 292.572 20.7121 292.559 21.0014H291.179C291.194 20.4905 291.345 20.0412 291.631 19.6534C291.921 19.2656 292.302 18.9625 292.776 18.744C293.25 18.5254 293.777 18.4162 294.355 18.4162C294.961 18.4162 295.485 18.5347 295.925 18.7717C296.368 19.0056 296.71 19.3179 296.95 19.7088C297.193 20.0997 297.313 20.5275 297.31 20.9922C297.313 21.5215 297.165 21.9709 296.866 22.3402C296.571 22.7095 296.177 22.9573 295.685 23.0835V23.1573C296.313 23.2527 296.799 23.502 297.143 23.9052C297.491 24.3084 297.664 24.8085 297.661 25.4055C297.664 25.9257 297.519 26.3919 297.227 26.8043C296.937 27.2167 296.542 27.5414 296.04 27.7784C295.538 28.0123 294.964 28.1293 294.318 28.1293Z" fill="#6B6D85"/>
<path d="M259.373 17.0401H260.954C261.374 17.0401 261.776 17.2124 262.073 17.5189C262.369 17.8255 262.536 18.2412 262.536 18.6748V25.3523C263.064 25.5451 263.509 25.9245 263.792 26.4236C264.075 26.9227 264.179 27.5092 264.084 28.0795C263.989 28.6498 263.703 29.1671 263.275 29.5401C262.847 29.913 262.305 30.1176 261.745 30.1176C261.185 30.1176 260.643 29.913 260.215 29.5401C259.787 29.1671 259.501 28.6498 259.406 28.0795C259.311 27.5092 259.415 26.9227 259.698 26.4236C259.982 25.9245 260.426 25.5451 260.954 25.3523V18.6748H259.373V21.1267L255.814 17.8575L259.373 14.5882V17.0401ZM251.465 20.1705C250.937 19.9777 250.492 19.5982 250.209 19.0991C249.926 18.6001 249.822 18.0135 249.917 17.4433C250.012 16.873 250.298 16.3556 250.726 15.9826C251.154 15.6097 251.696 15.4051 252.256 15.4051C252.816 15.4051 253.358 15.6097 253.786 15.9826C254.214 16.3556 254.5 16.873 254.595 17.4433C254.689 18.0135 254.586 18.6001 254.303 19.0991C254.019 19.5982 253.574 19.9777 253.047 20.1705V25.3523C253.574 25.5451 254.019 25.9245 254.303 26.4236C254.586 26.9227 254.689 27.5092 254.595 28.0795C254.5 28.6498 254.214 29.1671 253.786 29.5401C253.358 29.913 252.816 30.1176 252.256 30.1176C251.696 30.1176 251.154 29.913 250.726 29.5401C250.298 29.1671 250.012 28.6498 249.917 28.0795C249.822 27.5092 249.926 26.9227 250.209 26.4236C250.492 25.9245 250.937 25.5451 251.465 25.3523V20.1705ZM252.256 18.6748C252.466 18.6748 252.667 18.5887 252.815 18.4354C252.963 18.2821 253.047 18.0742 253.047 17.8575C253.047 17.6407 252.963 17.4328 252.815 17.2795C252.667 17.1263 252.466 17.0401 252.256 17.0401C252.046 17.0401 251.845 17.1263 251.697 17.2795C251.548 17.4328 251.465 17.6407 251.465 17.8575C251.465 18.0742 251.548 18.2821 251.697 18.4354C251.845 18.5887 252.046 18.6748 252.256 18.6748ZM252.256 28.4826C252.466 28.4826 252.667 28.3965 252.815 28.2432C252.963 28.0899 253.047 27.882 253.047 27.6653C253.047 27.4485 252.963 27.2406 252.815 27.0873C252.667 26.9341 252.466 26.8479 252.256 26.8479C252.046 26.8479 251.845 26.9341 251.697 27.0873C251.548 27.2406 251.465 27.4485 251.465 27.6653C251.465 27.882 251.548 28.0899 251.697 28.2432C251.845 28.3965 252.046 28.4826 252.256 28.4826ZM261.745 28.4826C261.955 28.4826 262.156 28.3965 262.304 28.2432C262.452 28.0899 262.536 27.882 262.536 27.6653C262.536 27.4485 262.452 27.2406 262.304 27.0873C262.156 26.9341 261.955 26.8479 261.745 26.8479C261.535 26.8479 261.334 26.9341 261.186 27.0873C261.038 27.2406 260.954 27.4485 260.954 27.6653C260.954 27.882 261.038 28.0899 261.186 28.2432C261.334 28.3965 261.535 28.4826 261.745 28.4826Z" fill="#B0B1C3"/>
<path d="M43.7134 18.5455H45.1353V25.2486C45.1353 25.8549 45.0153 26.3735 44.7752 26.8043C44.5382 27.2352 44.2043 27.5645 43.7734 27.7923C43.3426 28.0169 42.8378 28.1293 42.2592 28.1293C41.7268 28.1293 41.2482 28.0323 40.8235 27.8384C40.4019 27.6445 40.0679 27.3629 39.8217 26.9936C39.5786 26.6212 39.457 26.1688 39.457 25.6364H40.8743C40.8743 25.898 40.9343 26.1242 41.0543 26.315C41.1774 26.5058 41.3452 26.6551 41.5575 26.7628C41.773 26.8674 42.0192 26.9197 42.2962 26.9197C42.5978 26.9197 42.8532 26.8567 43.0625 26.7305C43.2749 26.6012 43.4364 26.4119 43.5472 26.1626C43.658 25.9134 43.7134 25.6087 43.7134 25.2486V18.5455ZM49.1643 28.157C48.715 28.157 48.3087 28.0739 47.9456 27.9077C47.5824 27.7384 47.2947 27.4937 47.0823 27.1737C46.873 26.8536 46.7684 26.4612 46.7684 25.9964C46.7684 25.5964 46.8453 25.267 46.9992 25.0085C47.1531 24.75 47.3608 24.5453 47.6224 24.3945C47.884 24.2437 48.1764 24.1299 48.4996 24.0529C48.8227 23.976 49.152 23.9175 49.4875 23.8775C49.9122 23.8282 50.2569 23.7882 50.5216 23.7575C50.7863 23.7236 50.9786 23.6697 51.0986 23.5959C51.2187 23.522 51.2787 23.402 51.2787 23.2358V23.2035C51.2787 22.8003 51.1648 22.4879 50.9371 22.2663C50.7124 22.0447 50.3769 21.9339 49.9307 21.9339C49.4659 21.9339 49.0997 22.037 48.8319 22.2433C48.5673 22.4464 48.3841 22.6726 48.2826 22.9219L46.9854 22.6264C47.1392 22.1955 47.3639 21.8478 47.6594 21.5831C47.9579 21.3153 48.301 21.1214 48.6888 21.0014C49.0766 20.8783 49.4844 20.8168 49.9122 20.8168C50.1953 20.8168 50.4954 20.8506 50.8124 20.9183C51.1325 20.983 51.431 21.103 51.708 21.2784C51.9881 21.4538 52.2174 21.7047 52.3959 22.0309C52.5744 22.354 52.6636 22.7741 52.6636 23.2912V28H51.3156V27.0305H51.2602C51.171 27.209 51.0371 27.3845 50.8586 27.5568C50.6801 27.7292 50.4508 27.8723 50.1707 27.9862C49.8907 28.1 49.5552 28.157 49.1643 28.157ZM49.4644 27.049C49.846 27.049 50.1723 26.9736 50.4431 26.8228C50.717 26.672 50.9247 26.475 51.0663 26.2319C51.211 25.9857 51.2833 25.7225 51.2833 25.4425V24.5284C51.234 24.5777 51.1386 24.6238 50.9971 24.6669C50.8586 24.7069 50.7001 24.7423 50.5216 24.7731C50.3431 24.8008 50.1692 24.8269 49.9999 24.8516C49.8306 24.8731 49.6891 24.8916 49.5752 24.907C49.3074 24.9408 49.0628 24.9978 48.8412 25.0778C48.6227 25.1578 48.4472 25.2732 48.3149 25.424C48.1856 25.5717 48.121 25.7687 48.121 26.0149C48.121 26.3565 48.2472 26.6151 48.4996 26.7905C48.7519 26.9628 49.0735 27.049 49.4644 27.049ZM60.3143 20.9091L57.7429 28H56.2656L53.6896 20.9091H55.1715L56.9673 26.3658H57.0412L58.8324 20.9091H60.3143ZM63.4719 28.157C63.0226 28.157 62.6164 28.0739 62.2532 27.9077C61.89 27.7384 61.6023 27.4937 61.3899 27.1737C61.1806 26.8536 61.076 26.4612 61.076 25.9964C61.076 25.5964 61.1529 25.267 61.3068 25.0085C61.4607 24.75 61.6684 24.5453 61.93 24.3945C62.1916 24.2437 62.484 24.1299 62.8072 24.0529C63.1303 23.976 63.4596 23.9175 63.7951 23.8775C64.2198 23.8282 64.5645 23.7882 64.8292 23.7575C65.0939 23.7236 65.2862 23.6697 65.4062 23.5959C65.5263 23.522 65.5863 23.402 65.5863 23.2358V23.2035C65.5863 22.8003 65.4724 22.4879 65.2447 22.2663C65.02 22.0447 64.6845 21.9339 64.2383 21.9339C63.7736 21.9339 63.4073 22.037 63.1396 22.2433C62.8749 22.4464 62.6918 22.6726 62.5902 22.9219L61.293 22.6264C61.4469 22.1955 61.6715 21.8478 61.967 21.5831C62.2655 21.3153 62.6087 21.1214 62.9964 21.0014C63.3842 20.8783 63.792 20.8168 64.2198 20.8168C64.503 20.8168 64.803 20.8506 65.12 20.9183C65.4401 20.983 65.7386 21.103 66.0156 21.2784C66.2957 21.4538 66.525 21.7047 66.7035 22.0309C66.882 22.354 66.9712 22.7741 66.9712 23.2912V28H65.6232V27.0305H65.5678C65.4786 27.209 65.3447 27.3845 65.1662 27.5568C64.9877 27.7292 64.7584 27.8723 64.4783 27.9862C64.1983 28.1 63.8628 28.157 63.4719 28.157ZM63.772 27.049C64.1536 27.049 64.4799 26.9736 64.7507 26.8228C65.0246 26.672 65.2324 26.475 65.3739 26.2319C65.5186 25.9857 65.5909 25.7225 65.5909 25.4425V24.5284C65.5417 24.5777 65.4463 24.6238 65.3047 24.6669C65.1662 24.7069 65.0077 24.7423 64.8292 24.7731C64.6507 24.8008 64.4768 24.8269 64.3075 24.8516C64.1383 24.8731 63.9967 24.8916 63.8828 24.907C63.6151 24.9408 63.3704 24.9978 63.1488 25.0778C62.9303 25.1578 62.7549 25.2732 62.6225 25.424C62.4933 25.5717 62.4286 25.7687 62.4286 26.0149C62.4286 26.3565 62.5548 26.6151 62.8072 26.7905C63.0595 26.9628 63.3812 27.049 63.772 27.049Z" fill="#6B6D85"/>
<line opacity="0.8" x1="93.5" y1="15.5" x2="93.5" y2="30.5" stroke="#D9DAE6" stroke-linecap="round"/>
<circle cx="25" cy="23" r="6" fill="#0278D5"/>
</svg>
