<svg width="16" height="16" viewBox="0 0 16 16" fill="none" xmlns="http://www.w3.org/2000/svg">
<g opacity="0.9">
<path fill-rule="evenodd" clip-rule="evenodd" d="M13.7141 7.77147C13.7141 8.50462 13.5719 9.21745 13.3235 9.87395C13.2779 9.9945 13.124 10.0248 13.0323 9.93419L11.2087 8.13261C11.1326 8.05744 11.1199 7.94005 11.1695 7.84529C11.3672 7.46734 11.4661 7.03501 11.4661 6.5829C11.492 5.1101 10.2776 3.89569 8.77893 3.89569C8.30313 3.89569 7.86706 4.0149 7.48816 4.21847C7.39489 4.26857 7.27878 4.25661 7.20342 4.18223L5.58012 2.58001C5.46572 2.4671 5.50071 2.27474 5.65076 2.21712C6.31081 1.96367 7.01208 1.82861 7.77123 1.82861C11.0527 1.82861 13.7141 4.48998 13.7141 7.77147ZM4.33148 2.93518C4.43742 2.86053 4.58114 2.87604 4.67279 2.96769L6.51749 4.81239C6.599 4.8939 6.60614 5.02281 6.54217 5.1187C6.25383 5.55093 6.09172 6.05957 6.09172 6.60874C6.09172 8.10737 7.30613 9.32178 8.80477 9.32178C9.35394 9.32178 9.86258 9.15967 10.2948 8.87134C10.3907 8.80737 10.5196 8.8145 10.6011 8.89601L12.5979 10.8928C12.6908 10.9857 12.7053 11.1321 12.6276 11.2382C11.5311 12.7361 9.78238 13.7143 7.77123 13.7143C4.48974 13.7143 1.82837 11.053 1.82837 7.77147C1.82837 5.75853 2.80833 4.0085 4.33148 2.93518ZM8.80477 8.28824C9.81247 8.28824 10.6135 7.48725 10.6135 6.47955C10.6135 5.47184 9.81247 4.67085 8.80477 4.67085C7.79706 4.67085 6.99607 5.47184 6.99607 6.47955C6.99607 7.48725 7.79706 8.28824 8.80477 8.28824Z" fill="url(#paint0_linear_4015_405182)"/>
</g>
<defs>
<linearGradient id="paint0_linear_4015_405182" x1="-2.01082" y1="5.6678" x2="5.66756" y2="17.5535" gradientUnits="userSpaceOnUse">
<stop stop-color="#73DFE7"/>
<stop offset="1" stop-color="#0095F7"/>
</linearGradient>
</defs>
</svg>
