<svg viewBox="0 0 12 12" fill="none" xmlns="http://www.w3.org/2000/svg"><path fill-rule="evenodd" clip-rule="evenodd" d="M2.628 2.42c0-.41.338-.742.754-.742s.753.332.753.741c0 .41-.337.741-.753.741a.747.747 0 0 1-.754-.74ZM3.382.937c-.832 0-1.507.663-1.507 1.481 0 .69.48 1.27 1.13 1.435v4.292c-.65.164-1.13.744-1.13 1.435 0 .818.675 1.482 1.507 1.482.832 0 1.506-.664 1.506-1.482 0-.69-.48-1.27-1.13-1.435v-1.45h.001c0-.41.337-.741.753-.741h2.976c.832 0 1.506-.664 1.506-1.482v-.618a1.487 1.487 0 0 0 1.131-1.436c0-.818-.675-1.482-1.507-1.482-.832 0-1.506.664-1.506 1.482 0 .69.48 1.27 1.13 1.435v.62c0 .408-.338.74-.754.74H4.512c-.274 0-.532.072-.754.199V3.854a1.487 1.487 0 0 0 1.13-1.435c0-.818-.674-1.482-1.506-1.482Zm5.236.74a.747.747 0 0 0-.753.741c0 .41.337.741.753.741a.747.747 0 0 0 .754-.74c0-.41-.338-.742-.754-.742Zm-5.99 7.903c0-.41.338-.741.754-.741s.753.332.753.74c0 .41-.337.742-.753.742a.747.747 0 0 1-.754-.741Z" fill="#4F5162"/></svg>