<svg xmlns="http://www.w3.org/2000/svg" fill="none" viewBox="0 0 30 30"><path fill="#ff832b" fill-rule="evenodd" d="M13.205 5.052h3.587a.837.837 0 0 0 .834-.834V3.196a.837.837 0 0 0-.834-.834h-3.587a.837.837 0 0 0-.834.834v1.022c0 .458.375.834.834.834m-9.26 11.533c0 6.09 4.964 11.053 11.054 11.053s11.053-4.963 11.053-11.053S21.088 5.532 14.999 5.532 3.944 10.496 3.944 16.585m2.399 0c0-4.776 3.879-8.655 8.654-8.655s8.655 3.88 8.655 8.655c0 4.776-3.879 8.655-8.654 8.655s-8.655-3.879-8.655-8.655m7.904 1.21a.83.83 0 0 1-.506-.634.8.8 0 0 1-.037-.242v-5.944a.814.814 0 0 1 1.627 0v5.492l3.983 1.62a.823.823 0 0 1 .46 1.063.823.823 0 0 1-1.064.459z" clip-rule="evenodd"/></svg>