<svg viewBox="0 0 16 16" xmlns="http://www.w3.org/2000/svg"><circle cx="8" cy="8" fill="#fff" r="8"/><path d="m8 15.5a7.5 7.5 0 1 1 0-15 7.5 7.5 0 0 1 0 15z" fill="#42ab45"/><path clip-rule="evenodd" d="m3.314 13.856a7.5 7.5 0 0 0 10.542-10.542z" fill="#fcb519" fill-rule="evenodd"/><g fill="#fff"><path d="m9.468 4.43-4.182 4.136-2.145-2.022a.59.59 0 0 0 -.809.858l2.571 2.425a.59.59 0 0 0 .831-.022l4.587-4.561a.59.59 0 0 0 -.853-.815z"/><path clip-rule="evenodd" d="m12.605 12.31a.732.732 0 0 0 -.719-.744.732.732 0 0 0 -.719.745c0 .411.322.745.72.745a.732.732 0 0 0 .718-.745zm-.754-1.275a.5.5 0 0 0 .53-.468l.213-3.419a.5.5 0 0 0 -.5-.53h-.416a.5.5 0 0 0 -.5.53l.205 3.34v.017a.5.5 0 0 0 .468.53z" fill-rule="evenodd"/></g></svg>