<svg viewBox="0 0 16 16" xmlns="http://www.w3.org/2000/svg"><circle cx="8" cy="8" r="8" fill="#fff"/><path d="M8 15.5a7.5 7.5 0 1 1 0-15 7.5 7.5 0 0 1 0 15Z" fill="#42AB45"/><path fill-rule="evenodd" clip-rule="evenodd" d="M3.314 13.856A7.5 7.5 0 0 0 13.856 3.314L3.314 13.856Z" fill="#FCB519"/><path d="M9.468 4.43 5.286 8.566 3.141 6.544a.59.59 0 0 0-.809.858l2.571 2.425a.59.59 0 0 0 .831-.022l4.587-4.561a.59.59 0 0 0-.853-.815Z" fill="#fff"/><path fill-rule="evenodd" clip-rule="evenodd" d="M12.605 12.31a.732.732 0 0 0-.719-.744.732.732 0 0 0-.719.745c0 .411.322.745.72.745a.732.732 0 0 0 .718-.745Zm-.754-1.275a.5.5 0 0 0 .53-.468l.213-3.419a.5.5 0 0 0-.5-.53h-.416a.5.5 0 0 0-.5.53l.205 3.34v.017a.5.5 0 0 0 .468.53Z" fill="#fff"/></svg>