<svg xmlns="http://www.w3.org/2000/svg" fill="none" viewBox="0 0 16 16"><path fill="#0278D5" fill-rule="evenodd" d="M9.608 4.446c0-1.126.884-2.039 1.976-2.039 1.09 0 1.976.913 1.976 2.04 0 1.126-.885 2.039-1.976 2.039-1.092 0-1.976-.913-1.976-2.04m1.976-1.36c-.728 0-1.318.61-1.318 1.36s.59 1.36 1.318 1.36c.727 0 1.317-.609 1.317-1.36 0-.75-.59-1.36-1.317-1.36" clip-rule="evenodd"/><path fill="#0278D5" fill-rule="evenodd" d="M6.12 5.098C6.12 2.283 8.332 0 11.06 0S16 2.283 16 5.098s-2.212 5.099-4.94 5.099a4.8 4.8 0 0 1-2.459-.676v2.067c0 .09-.034.176-.096.24a.32.32 0 0 1-.233.1H6.297v1.682c0 .188-.147.34-.33.34H4.15v1.71c0 .188-.147.34-.329.34H.329A.335.335 0 0 1 0 15.66v-1.984c0-.089.034-.174.094-.238l6.3-6.66a5.2 5.2 0 0 1-.274-1.68M11.06.68c-2.364 0-4.28 1.978-4.28 4.418s1.917 4.419 4.281 4.419c2.365 0 4.281-1.978 4.281-4.419S13.425.68 11.061.68M6.678 7.453l-6.02 6.361v1.506h2.834v-1.71c0-.188.147-.34.329-.34h1.817v-1.682c0-.09.035-.177.097-.24a.32.32 0 0 1 .233-.1h1.975V9.053a5.1 5.1 0 0 1-1.265-1.6" clip-rule="evenodd"/></svg>