<svg viewBox="0 0 14 14" fill="none" xmlns="http://www.w3.org/2000/svg">
<path d="M1.16406 6.41683V2.6835C1.16406 2.59067 1.20094 2.50165 1.26658 2.43601C1.33221 2.37037 1.42124 2.3335 1.51406 2.3335H5.1179C5.20132 2.33349 5.282 2.36328 5.3454 2.4175L7.19106 3.9995C7.25446 4.05371 7.33514 4.0835 7.41856 4.0835H12.4807C12.5267 4.0835 12.5722 4.09255 12.6147 4.11014C12.6571 4.12773 12.6957 4.15351 12.7282 4.18601C12.7607 4.21851 12.7865 4.25709 12.8041 4.29956C12.8217 4.34202 12.8307 4.38753 12.8307 4.4335V6.41683M1.16406 6.41683V11.3168C1.16406 11.4097 1.20094 11.4987 1.26658 11.5643C1.33221 11.63 1.42124 11.6668 1.51406 11.6668H12.4807C12.5736 11.6668 12.6626 11.63 12.7282 11.5643C12.7939 11.4987 12.8307 11.4097 12.8307 11.3168V6.41683M1.16406 6.41683H6.9974H12.8307" stroke="#4F5162" stroke-width="0.875" stroke-linecap="round" stroke-linejoin="round"/>
<rect x="1" y="6" width="12" height="6" fill="#4F5162"/>
<path d="M7 7.6665L8.33333 8.99984M8.33333 8.99984H5M8.33333 8.99984L7 10.3332" stroke="white" stroke-width="0.88" stroke-linecap="round" stroke-linejoin="round"/>
</svg>
