<svg viewBox="0 0 14 14" fill="none" xmlns="http://www.w3.org/2000/svg">
<path d="M7 7.6665L8.33333 8.99984M8.33333 8.99984H5M8.33333 8.99984L7 10.3332M2.33594 12.4832V1.5165C2.33594 1.42368 2.37281 1.33465 2.43845 1.26902C2.50409 1.20338 2.59311 1.1665 2.68594 1.1665H9.48294C9.57573 1.16659 9.6647 1.20351 9.73027 1.26917L11.5666 3.1055C11.5993 3.13811 11.6251 3.17685 11.6428 3.2195C11.6604 3.26215 11.6694 3.30786 11.6693 3.354V12.4832C11.6693 12.5291 11.6602 12.5746 11.6426 12.6171C11.625 12.6596 11.5993 12.6982 11.5668 12.7307C11.5343 12.7632 11.4957 12.7889 11.4532 12.8065C11.4107 12.8241 11.3652 12.8332 11.3193 12.8332H2.68594C2.63997 12.8332 2.59446 12.8241 2.552 12.8065C2.50953 12.7889 2.47095 12.7632 2.43845 12.7307C2.40595 12.6982 2.38017 12.6596 2.36258 12.6171C2.34499 12.5746 2.33594 12.5291 2.33594 12.4832Z" stroke="#4F5162" stroke-width="0.875" stroke-linecap="round" stroke-linejoin="round"/>
<path d="M9.33594 1.1665V3.14984C9.33594 3.24266 9.37281 3.33169 9.43845 3.39732C9.50409 3.46296 9.59311 3.49984 9.68594 3.49984H11.6693" stroke="#4F5162" stroke-width="0.875" stroke-linecap="round" stroke-linejoin="round"/>
</svg>
