<svg fill="none" height="306" viewBox="0 0 490 306" width="490" xmlns="http://www.w3.org/2000/svg" xmlns:xlink="http://www.w3.org/1999/xlink"><radialGradient id="a" cx="0" cy="0" gradientTransform="matrix(13.02403046 42.39265825 -102.92991949 31.62251347 163 250.517)" gradientUnits="userSpaceOnUse" r="1"><stop offset="0" stop-opacity=".43"/><stop offset="1" stop-opacity="0"/></radialGradient><clipPath id="b"><path d="m0 0h490v306h-490z"/></clipPath><g clip-path="url(#b)"><path d="m291.735 247.188c.767 29.6-56.248 55.086-127.347 56.924-71.0977 1.839-129.3555-20.667-130.1221-50.267-.7665-29.6 56.2484-55.086 127.3461-56.924 71.099-1.838 129.356 20.667 130.123 50.267z" fill="url(#a)" fill-opacity=".15"/><g clip-rule="evenodd" fill="#000" fill-rule="evenodd"><path d="m147.071 64.3977c.422-.0201.781.3057.801.7277l.534 11.1951c.02.422-.306.7804-.729.8005-.422.0201-.781-.3057-.801-.7277l-.533-11.1951c-.02-.422.306-.7804.728-.8005z"/><path d="m148.09 84.1264c.42-.0467.799.2559.845.6758l1.067 9.5958c.047.4199-.256.7982-.676.8448-.42.0467-.799-.2559-.845-.6758l-1.068-9.5958c-.046-.4199.257-.7982.677-.8448z"/><path d="m149.775 104.913c.423 0 .766.342.766.765v11.195c0 .422-.343.765-.766.765-.422 0-.765-.343-.765-.765v-11.195c0-.423.343-.765.765-.765z"/><path d="m149.775 126.77c.423 0 .766.342.766.765v11.728c0 .422-.343.765-.766.765-.422 0-.765-.343-.765-.765v-11.728c0-.423.343-.765.765-.765z"/><path d="m150.226 147.032c.421-.045.798.259.843.679.441 4.104.777 8.185 1.07 12.289.03.421-.287.787-.709.817s-.788-.287-.818-.708c-.293-4.094-.627-8.155-1.065-12.234-.045-.42.259-.797.679-.843z"/><path d="m165.248 89.4528c.422 0 .765.3425.765.765v13.3272c0 .423-.343.765-.765.765-.423 0-.766-.342-.766-.765v-13.3272c0-.4225.343-.765.766-.765z"/><path d="m165.748 116.108c.422-.018.779.309.798.731l.533 12.262c.019.422-.309.779-.731.797-.423.018-.78-.309-.799-.731l-.533-12.261c-.018-.422.309-.779.732-.798z"/><path d="m166.848 137.965c.422 0 .765.343.765.765v15.993c0 .423-.343.765-.765.765-.423 0-.766-.342-.766-.765v-15.993c0-.422.343-.765.766-.765z"/><path d="m183.361 96.3838c.423-.0145.777.316.792.7382.114 3.302.389 6.589.667 9.895.139 1.662.279 3.328.398 5.004.031.421-.287.787-.709.817-.421.03-.788-.287-.818-.708-.117-1.635-.255-3.282-.393-4.934-.279-3.329-.56-6.683-.675-10.0213-.015-.4222.316-.7763.738-.7909z"/><path d="m183.858 120.909c.421-.035.791.278.826.699.339 4.109.536 8.195.536 12.324 0 .423-.343.765-.766.765-.422 0-.765-.342-.765-.765 0-4.08-.195-8.123-.531-12.198-.035-.421.279-.791.7-.825z"/><path d="m183.353 145.429c.422-.019.78.308.8.73.062 1.361.107 2.717.153 4.068.14 4.175.278 8.301.906 12.376.064.418-.223.809-.641.873s-.809-.222-.873-.64c-.643-4.174-.785-8.428-.926-12.625-.044-1.335-.089-2.664-.149-3.983-.019-.422.307-.779.73-.799z"/><path d="m204.196 151.292c.423 0 .765.343.765.765v15.46c0 .423-.342.765-.765.765s-.766-.342-.766-.765v-15.46c0-.422.343-.765.766-.765z"/><path d="m202.595 115.041c.423 0 .766.343.766.765v20.791c0 .423-.343.765-.766.765s-.765-.342-.765-.765v-20.791c0-.422.342-.765.765-.765z"/><path d="m202.546 81.9912c.422-.0272.786.2925.813.7141.323 4.9979.511 9.9365.535 14.9723.002.4225-.339.7667-.761.7688-.423.0021-.768-.3387-.77-.7612-.025-5.0023-.211-9.9105-.532-14.8814-.027-.4216.293-.7854.715-.8126z"/><path d="m182.289 58.0003c.422-.0173.779.3108.796.733.197 4.8.374 9.599.534 14.3996.014.4222-.317.776-.74.79-.422.0141-.776-.3168-.79-.7391-.16-4.797-.337-9.5922-.534-14.3878-.017-.4221.311-.7784.734-.7957z"/><path d="m113.369 64.4421c.422-.0201.781.3057.801.7278l.534 11.1951c.02.422-.306.7804-.729.8005-.422.0201-.781-.3057-.801-.7278l-.533-11.1951c-.021-.422.306-.7804.728-.8005z"/><path d="m114.388 84.1708c.42-.0466.798.256.845.6759l1.067 9.5958c.047.4199-.256.7981-.676.8448-.42.0466-.799-.256-.846-.6759l-1.067-9.5958c-.046-.4199.256-.7981.677-.8448z"/><path d="m116.073 104.957c.423 0 .766.343.766.765v11.195c0 .423-.343.765-.766.765s-.765-.342-.765-.765v-11.195c0-.422.342-.765.765-.765z"/><path d="m116.073 126.814c.423 0 .766.343.766.765v11.728c0 .423-.343.765-.766.765s-.765-.342-.765-.765v-11.728c0-.422.342-.765.765-.765z"/><path d="m116.524 147.077c.421-.045.798.259.843.679.441 4.104.776 8.184 1.07 12.288.03.422-.288.788-.709.818-.422.03-.788-.287-.819-.709-.292-4.094-.626-8.155-1.064-12.234-.045-.42.259-.797.679-.842z"/><path d="m131.545 89.4973c.423 0 .766.3425.766.765v13.3277c0 .422-.343.765-.766.765-.422 0-.765-.343-.765-.765v-13.3277c0-.4225.343-.765.765-.765z"/><path d="m132.045 116.153c.423-.019.78.309.799.731l.533 12.261c.018.422-.309.779-.732.798-.422.018-.779-.309-.798-.732l-.533-12.261c-.019-.422.309-.779.731-.797z"/><path d="m133.146 138.01c.422 0 .765.342.765.765v15.993c0 .422-.343.765-.765.765-.423 0-.766-.343-.766-.765v-15.993c0-.423.343-.765.766-.765z"/></g><path d="m159.472 238.583c-.842 7.433-38.421 7.994-47.007 2.458l-3.248-45.098-2.649-16.319c20.069 9.688 53.931 4.744 55.131-2.623 0 22.031 0 41.921-2.227 61.582z" fill="#a3e9ff"/><path d="m109.453 182.095c-1.69-.846-2.718-2.075-2.58-3.355 2.763-1.418 5.658-2.58 8.979-3.328 11.629-2.619 25.85-2.963 37.714-1.322 2.08.287 12.095 2.446 7.116 5.914-6.26 4.36-16.317 4.84-23.734 5.194l-.066.003c-8.191.391-19.875.67-27.429-3.106z" fill="#a3e9ff"/><path clip-rule="evenodd" d="m131.2 171.539c7.34-.224 18.093-.003 24.432 1.896.208.063.369.205.461.383 1.276.312 2.772.763 4.005 1.344.566.267 1.103.573 1.545.923.435.345.83.771 1.034 1.294.217.557.191 1.153-.103 1.733-.278.548-.778 1.049-1.454 1.52-3.266 2.274-7.475 3.509-11.744 4.226-4.269.716-8.675.926-12.373 1.103l-.084.004c-4.101.196-9.108.365-14.046.009-4.927-.356-9.853-1.241-13.762-3.195-1.326-.664-2.456-1.648-2.859-2.848-2.227 1.201-4.398 2.564-6.6939 4.014-.3575.226-.8303.119-1.0562-.238-.2258-.357-.1191-.83.2384-1.056 2.5097-1.584 4.9277-3.103 7.4497-4.419.231-.897.879-1.713 1.87-2.414 1.156-.818 2.813-1.464 4.681-1.983 1.883-.524 4.043-.936 6.251-1.259 4.417-.646 9.08-.941 12.208-1.037zm-23.551 7.665c.124.709.789 1.527 2.147 2.206 3.644 1.823 8.336 2.687 13.188 3.038 4.84.349 9.77.184 13.862-.011l.066-.003c3.715-.178 8.038-.385 12.21-1.085 4.179-.702 8.129-1.887 11.123-3.973.569-.396.845-.721.964-.956.103-.203.095-.347.041-.485-.067-.171-.233-.394-.558-.651-.319-.252-.743-.5-1.247-.738-2.041-.962-4.978-1.559-5.984-1.699-11.784-1.629-25.911-1.286-37.44 1.311-3.077.693-5.783 1.75-8.372 3.046zm2.311-2.732c.858-.426 1.939-.815 3.192-1.163.311-.087.631-.171.959-.252-1.453.399-2.829.875-4.151 1.415z" fill="#000" fill-rule="evenodd"/><path clip-rule="evenodd" d="m109.142 174.019c.299.299.299.783 0 1.082-1.42 1.419-1.749 2.025-1.801 2.586-.027.303.021.656.151 1.204.053.225.117.468.189.746.015.058.03.116.046.177.091.35.192.744.295 1.19.01.042.016.085.018.128l.017.286c1.321 23.083 2.766 48.334 4.211 59.645.054.419-.243.802-.662.855-.42.054-.803-.243-.857-.662-1.452-11.371-2.9-36.669-4.218-59.705l-.016-.266c-.093-.4-.184-.758-.27-1.086-.015-.058-.03-.114-.044-.171-.073-.278-.141-.541-.199-.784-.138-.579-.237-1.134-.185-1.697.107-1.17.842-2.129 2.242-3.528.299-.298.784-.298 1.083 0z" fill="#000" fill-rule="evenodd"/><path clip-rule="evenodd" d="m162.018 177.324c.423.004.762.35.758.773l-.766-.008-.766-.008c.005-.423.351-.762.774-.757zm-.008.765c-.766-.008-.766-.009-.766-.008l-.006.522c-.003.342-.01.846-.018 1.492-.017 1.293-.042 3.157-.079 5.44-.072 4.567-.187 10.81-.357 17.518-.339 13.433-.896 28.677-1.763 36.079-.049.419.251.799.671.848s.801-.251.85-.671c.876-7.484 1.434-22.806 1.773-36.217.17-6.714.285-12.963.357-17.533.037-2.285.063-4.15.079-5.444.009-.647.015-1.152.019-1.494l.006-.524c0-.001 0 0-.766-.008z" fill="#000" fill-rule="evenodd"/><path clip-rule="evenodd" d="m161.776 221.527c.329.266.38.747.114 1.076-1.966 2.426-5.585 4.3-9.931 5.603-4.376 1.313-9.607 2.082-14.933 2.217-5.325.135-10.775-.363-15.585-1.607-4.798-1.241-9.03-3.242-11.842-6.164-.293-.305-.283-.789.022-1.082.304-.293.789-.283 1.082.021 2.538 2.638 6.465 4.539 11.122 5.743 4.645 1.202 9.949 1.692 15.162 1.56 5.214-.132 10.307-.886 14.531-2.153 4.253-1.276 7.509-3.037 9.181-5.101.266-.328.749-.379 1.077-.113z" fill="#000" fill-rule="evenodd"/><path clip-rule="evenodd" d="m161.777 229.743c.328.266.379.748.113 1.076-1.966 2.426-5.584 4.3-9.931 5.604-4.376 1.312-9.607 2.082-14.932 2.217-5.326.135-10.775-.364-15.585-1.608-4.799-1.241-9.03-3.242-11.842-6.164-.293-.304-.284-.789.021-1.081.305-.293.789-.284 1.083.021 2.537 2.637 6.464 4.538 11.121 5.743 4.646 1.201 9.949 1.691 15.163 1.559 5.213-.132 10.307-.886 14.531-2.153 4.253-1.275 7.509-3.036 9.181-5.1.266-.329.748-.38 1.077-.114z" fill="#000" fill-rule="evenodd"/><path clip-rule="evenodd" d="m161.516 238.447c.329.266.379.748.113 1.076-1.965 2.426-5.584 4.3-9.931 5.604-4.375 1.312-9.607 2.082-14.932 2.217-5.326.135-10.775-.364-15.585-1.608-4.798-1.241-9.03-3.242-11.842-6.164-.293-.304-.284-.789.021-1.081.305-.293.79-.284 1.083.021 2.538 2.637 6.464 4.538 11.122 5.743 4.645 1.201 9.949 1.691 15.162 1.559 5.214-.132 10.307-.886 14.531-2.153 4.253-1.275 7.509-3.036 9.181-5.1.266-.329.748-.379 1.077-.114z" fill="#000" fill-rule="evenodd"/><path clip-rule="evenodd" d="m107.165 186.714c.413.093.671.502.578.915-.178.785-.709 2.173-1.328 3.793-.067.174-.134.351-.202.529-.72 1.885-1.55 4.098-2.205 6.276-.659 2.189-1.121 4.282-1.135 5.937-.015 1.693.429 2.622 1.223 2.987 1.337.617 2.953.494 4.835-.29 1.881-.785 3.927-2.191 6.027-3.97 4.2-3.556 8.457-8.457 11.856-12.375.277-.32.76-.354 1.08-.077.319.276.354.759.077 1.079-3.381 3.897-7.716 8.894-12.023 12.54-2.152 1.823-4.337 3.343-6.428 4.215-2.09.871-4.187 1.134-6.066.268-1.658-.765-2.128-2.55-2.112-4.391.016-1.878.53-4.14 1.199-6.364.673-2.236 1.522-4.495 2.241-6.38.06-.159.12-.314.178-.467.647-1.694 1.137-2.976 1.289-3.648.094-.412.504-.671.916-.577z" fill="#000" fill-rule="evenodd"/><path clip-rule="evenodd" d="m128.878 189.106c-1.21-.103-2.646.255-3.51.652-1.16.532-1.381 1.787-.971 2.692.062.137.08.283.061.422.005.003.011.006.016.009 1.689.984 3.396 1.419 5.101.691.526-.225.867-.559 1.074-.985.214-.441.31-1.035.234-1.802-.061-.617-.3-.98-.604-1.216-.328-.253-.803-.411-1.401-.463zm-5.548 4.329c-.042.299.096.606.372.768 1.885 1.098 4.131 1.777 6.475.776.843-.36 1.472-.946 1.85-1.725.371-.765.475-1.661.38-2.62-.099-1-.526-1.761-1.191-2.274-.64-.496-1.436-.712-2.208-.778-1.531-.131-3.233.305-4.28.786-2.106.967-2.395 3.237-1.726 4.713.071.156.188.277.328.354z" fill="#000" fill-rule="evenodd"/><path d="m198.292 244.359c-.842 7.432-38.421 7.993-47.008 2.457l-3.247-45.098-2.649-16.319c20.069 9.688 53.931 4.744 55.131-2.623 0 22.031 0 41.921-2.227 61.583z" fill="#a3e9ff"/><path d="m201.005 182.979c-4.213 6.675-13.272 8.744-26.658 8.744-17.958 0-25.93-2.974-28.472-6.12 13.024-10.957 42.105-5.728 55.13-2.624z" fill="#a3e9ff"/><path d="m148.273 187.87c-1.69-.846-2.718-2.075-2.58-3.355 2.763-1.417 5.657-2.58 8.979-3.328 11.629-2.619 25.85-2.963 37.714-1.322 2.08.288 12.095 2.446 7.116 5.914-6.26 4.36-16.317 4.84-23.734 5.194l-.066.003c-8.192.391-19.876.671-27.429-3.106z" fill="#a3e9ff"/><path clip-rule="evenodd" d="m170.019 177.315c7.341-.225 18.093-.004 24.433 1.896.207.062.369.204.461.382 1.275.313 2.772.763 4.005 1.345.566.266 1.102.572 1.544.922.436.345.83.772 1.035 1.294.217.557.191 1.154-.103 1.733-.278.549-.778 1.049-1.454 1.52-3.266 2.274-7.476 3.509-11.744 4.226-4.269.716-8.675.927-12.373 1.103l-.084.004c-4.101.196-9.108.366-14.046.009-4.927-.356-9.853-1.24-13.762-3.195-1.326-.663-2.456-1.648-2.859-2.848-2.228 1.201-4.398 2.565-6.694 4.014-.358.226-.83.119-1.056-.238s-.119-.83.238-1.055c2.51-1.585 4.928-3.104 7.449-4.42.232-.897.88-1.712 1.871-2.414 1.156-.818 2.813-1.463 4.681-1.983 1.882-.524 4.043-.936 6.251-1.259 4.417-.646 9.08-.941 12.207-1.036zm-23.55 7.664c.124.709.788 1.527 2.147 2.207 3.644 1.822 8.336 2.686 13.187 3.037 4.841.35 9.771.184 13.863-.011l.065-.003c3.715-.178 8.039-.385 12.211-1.085 4.179-.702 8.128-1.887 11.122-3.972.569-.397.845-.722.964-.957.104-.203.096-.346.042-.484-.067-.172-.233-.395-.558-.651-.319-.253-.743-.501-1.247-.739-2.041-.961-4.978-1.559-5.984-1.698-11.784-1.63-25.911-1.286-37.441 1.31-3.076.693-5.782 1.75-8.371 3.046zm2.31-2.732c.859-.426 1.94-.815 3.192-1.163.312-.087.632-.171.96-.251-1.453.398-2.829.874-4.152 1.414z" fill="#000" fill-rule="evenodd"/><path clip-rule="evenodd" d="m147.962 179.795c.299.298.299.783 0 1.081-1.42 1.419-1.749 2.025-1.801 2.586-.028.303.021.657.151 1.204.053.225.116.469.189.747.015.057.03.116.046.176.091.35.192.744.295 1.19.01.042.016.085.018.129l.017.285c1.321 23.083 2.766 48.334 4.211 59.645.054.419-.243.802-.662.856-.42.053-.803-.243-.857-.662-1.453-11.372-2.9-36.67-4.219-59.706l-.015-.266c-.093-.4-.185-.758-.27-1.086-.015-.057-.03-.114-.044-.17-.073-.279-.142-.541-.199-.784-.138-.58-.237-1.135-.186-1.697.108-1.171.843-2.13 2.243-3.528.299-.299.784-.299 1.083 0z" fill="#000" fill-rule="evenodd"/><path clip-rule="evenodd" d="m200.838 183.099c.423.004.762.35.757.773l-.765-.008-.766-.008c.005-.423.351-.762.774-.757zm-.008.765c-.766-.008-.766-.008-.766-.008l-.006.522c-.004.342-.01.846-.018 1.492-.017 1.293-.042 3.157-.079 5.44-.073 4.567-.188 10.81-.357 17.518-.34 13.433-.896 28.678-1.763 36.079-.049.419.251.799.671.848.42.05.8-.251.85-.67.876-7.485 1.434-22.806 1.773-36.218.169-6.714.284-12.963.357-17.532.037-2.285.062-4.151.079-5.445.008-.647.014-1.152.018-1.494l.006-.524s0 0-.765-.008z" fill="#000" fill-rule="evenodd"/><path clip-rule="evenodd" d="m177.067 209.687c-.294.304-.779.312-1.083.019-.79-.761-1.459-1.439-2.174-2.162-.452-.458-.922-.934-1.452-1.461-.3-.298-.301-.782-.003-1.082.299-.299.783-.3 1.083-.002.553.55 1.03 1.033 1.483 1.491.701.71 1.345 1.362 2.126 2.115.304.293.313.777.02 1.082z" fill="#000" fill-rule="evenodd"/><path clip-rule="evenodd" d="m178.063 223.977c-.423 0-.766-.342-.766-.765v-8.783c0-.422.343-.765.766-.765s.766.343.766.765v8.783c0 .423-.343.765-.766.765z" fill="#000" fill-rule="evenodd"/><path clip-rule="evenodd" d="m185.119 216.818c-.234.352-.71.447-1.062.212-.87-.579-1.603-1.197-2.87-2.264-.276-.233-.577-.486-.911-.766-.324-.271-.366-.754-.095-1.077.272-.324.755-.367 1.079-.095.348.291.658.552.938.788 1.262 1.062 1.916 1.613 2.709 2.141.352.235.447.71.212 1.061z" fill="#000" fill-rule="evenodd"/><path clip-rule="evenodd" d="m178.733 229.164c-.847.232-1.76.144-2.709-.18-.4-.137-.613-.571-.477-.971.016-.045.035-.088.058-.128-.779-.751-1.26-1.942-.883-3.053.717-2.106 2.759-2.877 4.62-2.269 1.214.396 1.907 1.288 2.119 2.288.205.965-.038 2.003-.607 2.777-.562.766-1.265 1.302-2.121 1.536zm.846-2.388c.014-.017.027-.035.04-.053.321-.436.456-1.032.345-1.554-.104-.485-.422-.931-1.098-1.152-1.155-.378-2.277.083-2.694 1.308-.151.443.065 1.13.625 1.571.258.203.547.313.83.316.274.002.607-.093.974-.413.282-.246.695-.248.978-.023z" fill="#000" fill-rule="evenodd"/><path clip-rule="evenodd" d="m187.107 221.727c-.798.222-1.654.137-2.536-.17-.399-.14-.61-.576-.471-.975.012-.032.025-.063.04-.093-.715-.716-1.15-1.836-.801-2.88.322-.966.953-1.671 1.758-2.048.798-.373 1.713-.4 2.573-.113l-.242.726.242-.726c1.142.38 1.789 1.235 1.987 2.183.19.913-.036 1.897-.566 2.633-.522.724-1.178 1.238-1.984 1.463zm.832-2.292c-.028-.025-.058-.048-.088-.068.285-.398.407-.945.307-1.424-.093-.445-.376-.845-.972-1.044-.527-.175-1.033-.143-1.44.047-.399.187-.756.551-.955 1.147-.133.4.059 1.028.559 1.429.229.184.48.279.721.281.23.003.52-.078.848-.37.266-.235.649-.253.932-.066-.001.001-.002.002-.003.003m.091.065.528.38z" fill="#000" fill-rule="evenodd"/><path clip-rule="evenodd" d="m177.969 215.101c-.624.036-1.275-.075-1.945-.304-.4-.136-.613-.571-.477-.971.005-.015.011-.029.017-.043-.31-.366-.56-.781-.728-1.211-.231-.59-.332-1.284-.114-1.926.717-2.107 2.759-2.878 4.62-2.27 1.214.396 1.907 1.288 2.119 2.289.205.964-.038 2.002-.607 2.776-.287.391-.611.723-.974.985-.59.502-1.254.711-1.911.675zm1.002-1.907c.225-.159.441-.375.648-.658l.618.453-.618-.453c.321-.436.456-1.032.345-1.553-.104-.486-.422-.932-1.098-1.153-1.155-.377-2.277.083-2.694 1.308-.064.19-.06.494.091.878.146.375.405.753.727 1.045.323.295.67.466.982.505h.002c.125-.012.243-.034.355-.064.217-.06.427-.157.631-.3.003-.002.007-.005.011-.008z" fill="#000" fill-rule="evenodd"/><path clip-rule="evenodd" d="m200.596 227.302c.329.266.379.748.113 1.076-1.965 2.426-5.584 4.3-9.931 5.604-4.375 1.312-9.607 2.081-14.932 2.216-5.325.136-10.775-.363-15.585-1.607-4.798-1.241-9.03-3.242-11.842-6.164-.293-.305-.283-.789.021-1.082.305-.292.79-.283 1.083.022 2.538 2.637 6.464 4.538 11.122 5.743 4.645 1.201 9.949 1.691 15.162 1.559 5.214-.132 10.307-.886 14.531-2.153 4.253-1.275 7.509-3.037 9.181-5.101.266-.328.748-.379 1.077-.113z" fill="#000" fill-rule="evenodd"/><path clip-rule="evenodd" d="m200.596 235.519c.329.265.38.747.114 1.075-1.966 2.427-5.584 4.3-9.931 5.604-4.376 1.312-9.607 2.082-14.933 2.217-5.325.135-10.774-.364-15.585-1.608-4.798-1.241-9.03-3.242-11.841-6.164-.293-.304-.284-.788.021-1.081s.789-.284 1.082.021c2.538 2.637 6.465 4.538 11.122 5.743 4.646 1.201 9.949 1.692 15.163 1.559 5.213-.132 10.307-.886 14.531-2.153 4.253-1.275 7.509-3.036 9.181-5.1.266-.329.748-.379 1.076-.113z" fill="#000" fill-rule="evenodd"/><path clip-rule="evenodd" d="m200.336 244.223c.328.265.379.747.113 1.076-1.966 2.426-5.584 4.299-9.931 5.603-4.375 1.312-9.607 2.082-14.932 2.217-5.326.135-10.775-.364-15.585-1.608-4.799-1.241-9.03-3.242-11.842-6.164-.293-.304-.284-.788.021-1.081s.79-.284 1.083.021c2.538 2.637 6.464 4.538 11.121 5.743 4.646 1.201 9.949 1.692 15.163 1.559 5.213-.132 10.307-.886 14.531-2.153 4.253-1.275 7.509-3.036 9.181-5.1.266-.329.748-.379 1.077-.113z" fill="#000" fill-rule="evenodd"/><path clip-rule="evenodd" d="m145.985 192.489c.412.093.671.503.578.915-.178.786-.709 2.174-1.328 3.793-.067.174-.134.351-.203.53-.719 1.885-1.55 4.098-2.205 6.275-.658 2.189-1.12 4.282-1.134 5.937-.015 1.693.429 2.622 1.223 2.988 1.337.616 2.953.494 4.834-.291 1.881-.784 3.928-2.191 6.028-3.97 4.2-3.556 8.457-8.457 11.856-12.375.277-.319.76-.354 1.08-.077.319.276.354.76.077 1.079-3.381 3.898-7.716 8.894-12.023 12.54-2.152 1.823-4.337 3.343-6.428 4.215-2.09.872-4.187 1.134-6.066.268-1.659-.765-2.129-2.55-2.112-4.39.016-1.879.53-4.141 1.199-6.365.673-2.236 1.522-4.495 2.241-6.379.06-.159.12-.315.178-.468.647-1.694 1.137-2.976 1.289-3.648.094-.412.504-.67.916-.577z" fill="#000" fill-rule="evenodd"/><path clip-rule="evenodd" d="m167.697 194.882c-1.209-.104-2.645.254-3.509.651-1.16.533-1.381 1.787-.971 2.692.062.137.08.283.06.422.006.003.011.006.017.009 1.689.985 3.396 1.419 5.101.691.526-.224.867-.559 1.074-.985.214-.44.31-1.034.234-1.802-.061-.617-.3-.98-.604-1.215-.328-.254-.803-.412-1.402-.463zm-5.547 4.328c-.042.299.096.607.372.768 1.885 1.098 4.13 1.777 6.474.776.844-.36 1.473-.945 1.851-1.725.371-.765.474-1.661.38-2.619-.099-1-.527-1.761-1.191-2.275-.641-.496-1.436-.712-2.208-.778-1.531-.131-3.233.305-4.28.786-2.106.967-2.395 3.237-1.726 4.713.071.156.188.278.328.354z" fill="#000" fill-rule="evenodd"/><path d="m295.593 181.589c7.916-10.887-3.957-14.846-11.873-16.825-36.41 0-32.069 25.733-17.227 31.247-13.205 0-18.484 13.608-18.484 26.319-7.915 19.795-8.707 40.532 0 31.031 10.883-11.877 14.977-19.513 23.882-17.533 8.904 1.979 25.725 35.857 29.684 24.97 3.168-8.71 2.731-20.754-1.887-35.93.002-1.975 30.112-11.084-12.674-34.197.846-.003 3.281-1.793 8.579-9.082z" fill="#fff"/><path clip-rule="evenodd" d="m276.996 163.901c4.456-.589 9.009-.537 13.423.544 3.289.806 7.438 2.374 8.631 6.42.307 1.043.42 2.119.379 3.203.404 3.369-.757 6.583-2.813 9.441-2.068 2.874-5.066 5.43-8.415 7.505-3.351 2.078-7.084 3.693-10.652 4.668-3.556.971-7.007 1.323-9.773.813-1.814-.335-3.644-.99-5.376-1.907-.336-.137-.666-.285-.989-.444-.976-.48-1.843-1.153-2.601-1.96-.405-.336-.798-.688-1.175-1.055-2.845-2.76-4.897-6.387-5.15-10.445-.282-4.5 2.341-7.826 5.672-10.201 2.134-1.522 4.611-2.695 6.938-3.581 2.807-1.264 5.897-1.99 9.145-2.557.913-.173 1.833-.322 2.756-.444zm-2.524 1.958c.89-.156 1.801-.301 2.729-.442 4.304-.568 8.661-.513 12.854.514 3.302.809 6.598 2.217 7.526 5.366.78 2.649.089 5.719-1.378 8.649-1.46 2.916-3.633 5.579-5.616 7.347-3.275 2.918-8.339 5.321-13.657 6.469-4.916 1.061-9.935 1.025-13.881-.562-1.114-.596-2.187-1.31-3.18-2.127-1.432-1.551-2.479-3.735-3.074-6.085-.87-3.442-.693-6.935.406-8.879 2.21-3.906 5.083-6.256 8.481-7.794 1.235-.469 2.435-.858 3.522-1.176 1.729-.505 3.49-.94 5.268-1.28zm-17.193 7.307c-2.126 1.993-3.453 4.432-3.266 7.422.107 1.713.577 3.357 1.326 4.885-.009-.037-.019-.074-.028-.11-.916-3.619-.82-7.573.557-10.007.446-.787.916-1.515 1.411-2.19z" fill="#000" fill-rule="evenodd"/><path clip-rule="evenodd" d="m292.539 201.366c.397-.146.837.057.983.453 8.118 21.992 10.676 38.625 10.451 49.097-.112 5.21-.914 8.996-2.146 11.148-.615 1.074-1.412 1.87-2.406 2.095-1.033.234-2.017-.201-2.853-1.008-2.643-2.551-5.04-5.821-7.285-9.234-1.125-1.709-2.217-3.462-3.285-5.187-.117-.19-.234-.379-.351-.568-.948-1.531-1.877-3.032-2.8-4.463-2.081-3.226-4.095-6.032-6.146-7.947s-4.023-2.832-6.052-2.542c-2.13.304-4.601 1.836-7.23 4.098-2.604 2.242-5.252 5.101-7.737 7.899-.664.748-1.318 1.492-1.956 2.219-1.734 1.975-3.352 3.818-4.745 5.226-.952.962-1.839 1.763-2.619 2.273-.39.255-.79.462-1.185.568-.379.101-.802.122-1.206-.048-.981-.285-1.681-1.001-2.158-1.914-.481-.921-.767-2.092-.918-3.394-.302-2.609-.083-5.946.421-9.372.506-3.437 1.306-7.01 2.192-10.109.883-3.084 1.866-5.751 2.752-7.348.205-.369.671-.502 1.041-.298.369.205.503.671.298 1.04-.8 1.441-1.745 3.972-2.618 7.027-.87 3.04-1.655 6.547-2.15 9.911-.497 3.374-.694 6.559-.415 8.973.14 1.209.395 2.174.754 2.862.354.677.778 1.032 1.26 1.162.045.012.089.028.132.048.002.001.013.007.043.008.033.001.09-.003.175-.026.178-.047.423-.161.743-.37.64-.418 1.434-1.124 2.369-2.069 1.359-1.373 2.93-3.162 4.651-5.123.644-.734 1.31-1.492 1.993-2.261 2.49-2.803 5.196-5.73 7.884-8.043 2.663-2.292 5.42-4.083 8.012-4.454 2.694-.385 5.113.884 7.314 2.939 2.201 2.054 4.301 5.001 6.388 8.236.932 1.444 1.868 2.957 2.815 4.486.117.19.234.379.352.569 1.068 1.724 2.15 3.462 3.261 5.152 2.227 3.385 4.55 6.542 7.069 8.973.62.598 1.1.696 1.451.617.389-.088.895-.453 1.416-1.363 1.038-1.813 1.834-5.283 1.944-10.421.22-10.224-2.282-26.661-10.356-48.535-.147-.396.056-.836.453-.982z" fill="#000" fill-rule="evenodd"/><path clip-rule="evenodd" d="m259.914 177.422c.401-.134.835.083.968.484 1.325 3.975 5.815 5.912 11.164 6.034 5.309.12 11.044-1.579 14.326-4.394.321-.275.804-.238 1.079.083.276.32.239.803-.082 1.078-3.644 3.125-9.783 4.889-15.357 4.762-5.535-.126-10.939-2.147-12.582-7.08-.134-.401.083-.834.484-.967z" fill="#000" fill-rule="evenodd"/><path clip-rule="evenodd" d="m288.109 189.528c-.225.357-.119.829.239 1.055 10.938 6.901 16.911 12.456 19.62 16.873 1.348 2.197 1.863 4.073 1.821 5.671-.043 1.589-.64 2.977-1.653 4.206-2.06 2.497-5.804 4.289-9.848 5.518-4.014 1.219-8.184 1.843-10.947 2.091-.421.038-.732.41-.694.83.038.421.41.732.831.694 2.836-.254 7.115-.894 11.255-2.152 4.11-1.248 8.225-3.148 10.585-6.008 1.196-1.45 1.948-3.158 2.001-5.138.053-1.97-.589-4.136-2.045-6.511-2.899-4.726-9.12-10.434-20.108-17.368-.358-.225-.831-.119-1.057.239z" fill="#000" fill-rule="evenodd"/><path d="m241.434 189.261 19.565 1.35 31.034 2.699-3.373 22.271h13.493l-13.493 10.123-49.25-3.375z" fill="#fff"/><path clip-rule="evenodd" d="m303.435 215.118c-.258-.336-.738-.399-1.074-.142-.863.662-4.389 3.181-7.72 5.55-1.661 1.181-3.267 2.32-4.458 3.164-.595.422-1.087.77-1.429 1.012l-.536.379s-.001.001.441.625c.443.625.443.625.443.625l.537-.38c.343-.243.835-.591 1.43-1.013 1.192-.844 2.798-1.984 4.46-3.166 3.314-2.356 6.872-4.898 7.764-5.582.336-.257.399-.737.142-1.072zm-15.4 11.03c.244.345.722.427 1.067.183l-.443-.625-.441-.625c-.345.244-.428.722-.183 1.067z" fill="#000" fill-rule="evenodd"/><path clip-rule="evenodd" d="m295.896 216.348c2.268.001 4.407.001 6.931 0 .423 0 .766-.342.766-.765 0-.422-.343-.765-.766-.765-2.524.001-4.663.001-6.931 0-1.975 0-4.049 0-6.562 0-.423 0-.766.343-.766.765 0 .423.343.765.766.765z" fill="#000" fill-rule="evenodd"/><path clip-rule="evenodd" d="m292.817 190.529c-.419-.06-.807.231-.867.649l.758.108.758.108c.06-.418-.231-.805-.649-.865zm-.109.757c.758.108.758.108.758.108l-.203 1.424c-.129.906-.313 2.203-.534 3.764-.443 3.121-1.033 7.296-1.624 11.513-.59 4.218-1.18 8.476-1.622 11.764-.222 1.644-.406 3.044-.535 4.074-.064.515-.114.935-.148 1.246-.017.155-.03.28-.038.375-.004.047-.007.084-.009.112-.001.024-.001.036-.002.038 0 .001 0 .001 0 0 0 .423-.342.765-.765.765s-.766-.342-.766-.765c0-.135.025-.391.058-.692.035-.322.086-.751.151-1.269.13-1.037.314-2.442.536-4.088.443-3.292 1.033-7.553 1.624-11.772.59-4.218 1.181-8.395 1.623-11.516.222-1.561.406-2.858.535-3.765l.203-1.422c0-.001 0-.002.758.106z" fill="#000" fill-rule="evenodd"/><path clip-rule="evenodd" d="m239.322 189.202c-.032.422.283.789.705.822l52.623 4.049c.421.032.789-.283.822-.704.032-.421-.283-.789-.705-.822l-52.623-4.049c-.421-.032-.789.283-.822.704z" fill="#000" fill-rule="evenodd"/><path clip-rule="evenodd" d="m241.48 187.15c-.422-.026-.784.296-.81.718l-2.024 33.743c-.025.421.297.784.719.809s.784-.296.81-.718l2.024-33.743c.025-.422-.297-.784-.719-.809z" fill="#000" fill-rule="evenodd"/><path clip-rule="evenodd" d="m237.972 222.279c-.029.421.289.786.711.815l49.249 3.374c.422.029.788-.289.817-.71.029-.422-.29-.787-.712-.816l-49.249-3.374c-.422-.029-.788.289-.816.711z" fill="#000" fill-rule="evenodd"/><path d="m299.838 153.279c-4.627 1.742-8.868 6.997-11.58 10.911l3.205 1.15c4.598-3.446 8.371-2.17 12.366 2.621 8.669 10.394 8.807 16.101 23.796 14.79 5.168-.95-2.193-.042-7.87-3.37-7.251-6.033 5.755-5.777 5.997-15.191.29-11.304-17.753-13.984-25.914-10.911z" fill="#fff"/><path clip-rule="evenodd" d="m316.191 152.612c-5.627-1.739-12.355-1.656-16.623-.049-2.465.928-4.774 2.767-6.786 4.822-2.019 2.064-3.785 4.394-5.153 6.37l-.568.819 4.531 1.625.33-.247c2.178-1.632 4.04-2.065 5.77-1.647 1.779.43 3.589 1.796 5.549 4.146 1.741 2.087 3.131 3.979 4.381 5.68.293.399.579.788.86 1.166 1.465 1.975 2.808 3.686 4.377 5.029 3.213 2.752 7.239 3.851 14.833 3.187l.036-.003.036-.006c.642-.119 1.118-.213 1.43-.293.146-.038.309-.085.443-.15.056-.027.194-.096.312-.234.065-.076.149-.203.181-.379.035-.188-.002-.365-.076-.508-.122-.235-.324-.339-.376-.366-.083-.042-.165-.07-.224-.088-.122-.036-.267-.067-.412-.093-.2-.038-.459-.079-.752-.125-.131-.021-.269-.043-.411-.065-1.882-.305-4.989-.888-7.682-2.45-1.746-1.464-1.955-2.302-1.848-2.81.061-.294.248-.622.615-1.018s.859-.804 1.453-1.271c.144-.113.294-.229.448-.348 2.309-1.794 5.529-4.293 5.652-9.096.159-6.176-4.718-9.864-10.326-11.598zm-.453 1.462c5.38 1.663 9.38 4.967 9.248 10.097-.104 4.057-2.766 6.135-5.115 7.967-.135.106-.268.21-.401.314-.593.466-1.172.94-1.63 1.434-.457.494-.848 1.066-.99 1.743-.3 1.431.58 2.813 2.415 4.34l.049.04.054.032c1.804 1.058 3.76 1.702 5.447 2.114-5.576.167-8.557-.933-10.96-2.99-1.423-1.219-2.677-2.802-4.143-4.779-.275-.37-.556-.753-.846-1.148-1.252-1.703-2.675-3.64-4.449-5.767-2.035-2.44-4.109-4.108-6.365-4.653-2.197-.53-4.412.038-6.712 1.665l-1.878-.674c1.244-1.737 2.746-3.648 4.415-5.354 1.944-1.986 4.068-3.646 6.231-4.46 3.894-1.466 10.267-1.579 15.63.079z" fill="#000" fill-rule="evenodd"/><path d="m296.94 126.583c-2.69-10.616 0-35.2259 0-56.8447h1.399c24.56-.7725 75.811-2.2712 84.337-2.0858s10.658 5.1762 10.658 7.6484c-.077 12.361-.185 39.3541 0 48.4401.232 11.356-6.719 9.966-10.658 10.893s-14.828-1.623-24.56 1.159c-7.785 2.225-13.283 14.06-15.06 19.7-.463-3.631-1.807-11.959-3.475-16.224-1.668-4.264-9.191-3.322-12.743-2.318-28.499 1.855-28.315-4.122-29.898-10.368z" fill="#fff"/><path d="m296.738 125.032c-1.336-4.978-1.313-37.3915 0-53.5381l.844-1.1937c24.56-.7725 74.967-3.859 83.493-3.6736s10.658 5.1762 10.658 7.6484c-.077 12.361-.185 39.354 0 48.44.232 11.356-6.719 9.966-10.658 10.893s-14.828-1.623-24.56 1.159c-7.785 2.225-13.283 14.06-15.06 19.7-.463-3.631-1.807-11.959-3.475-16.224-1.668-4.264-9.191-3.322-12.743-2.318-28.499 1.855-27.057-5.521-28.499-10.893z" fill="#fff"/><path clip-rule="evenodd" d="m368.846 66.5543c5.663-.0001 10.947-.0003 15.515-.0001 2.537.0001 4.436.5091 5.819 1.503 1.394 1.0019 2.167 2.4259 2.587 4.052.415 1.6099.498 3.4653.484 5.3995-.006.8825-.032 1.7956-.059 2.7188-.002.093-.005.186-.008.2792-.029 1.0218-.056 2.057-.056 3.099v41.3503l-.002.024c-.033.516-.053 1.016-.072 1.504l-.005.13c-.017.441-.034.874-.059 1.29-.054.905-.149 1.785-.401 2.57-.256.802-.681 1.523-1.397 2.085-.706.554-1.635.906-2.821 1.083-6.751 1.008-10.724 1.008-19.087 1.008h-.427c-9.525 0-14.212 1.603-17.412 4.906-1.625 1.677-2.91 3.836-4.23 6.577-.789 1.637-1.572 3.442-2.444 5.451-.597 1.376-1.236 2.847-1.946 4.427-.053.117-.131.26-.25.386-.123.13-.333.284-.629.299-.292.014-.513-.114-.643-.221-.127-.104-.218-.229-.282-.329-.236-.374-.435-.996-.614-1.676-.374-1.42-.774-3.558-1.173-5.824-.133-.753-.266-1.522-.398-2.287-.268-1.552-.533-3.089-.79-4.453-.191-1.017-.376-1.927-.551-2.664-.179-.755-.336-1.275-.461-1.548-.173-.378-.603-.698-1.451-.896-.835-.195-1.914-.229-3.11-.173-1.177.054-2.411.193-3.561.322l-.036.004c-1.133.128-2.217.249-3.016.249-.623 0-1.582.067-2.805.151-.481.033-1.002.069-1.56.105-1.952.125-4.297.245-6.735.217-2.435-.028-4.983-.203-7.339-.673-2.349-.469-4.559-1.241-6.279-2.497-3.859-2.818-5.411-6.021-5.933-9.594-.375-2.564-.217-5.359-.052-8.285.058-1.041.118-2.099.155-3.169.107-3.103.311-6.207.523-9.299.018-.271.037-.541.055-.812.194-2.823.387-5.6359.513-8.4464.274-6.1584.222-12.2666-.855-18.3269-.074-.416.203-.8131.62-.887.416-.0739.813.2035.887.6195 1.106 6.2212 1.154 12.4578.877 18.6626-.126 2.8297-.32 5.6612-.514 8.4812-.018.271-.037.542-.056.813-.211 3.093-.414 6.173-.52 9.248-.04 1.162-.103 2.275-.163 3.347-.161 2.867-.306 5.434.045 7.832.467 3.197 1.818 6.022 5.321 8.58 1.471 1.074 3.44 1.786 5.676 2.233 2.229.445 4.674.616 7.057.643 2.38.027 4.68-.089 6.618-.214.52-.033 1.017-.068 1.486-.1 1.255-.087 2.298-.159 2.978-.159.695 0 1.68-.108 2.851-.24l.051-.006c1.136-.127 2.412-.271 3.64-.328 1.238-.057 2.486-.031 3.529.212 1.031.24 2.03.734 2.495 1.749.195.425.38 1.077.559 1.832.183.772.373 1.708.566 2.734.259 1.375.528 2.932.797 4.491.132.763.263 1.525.394 2.267.401 2.277.79 4.352 1.146 5.699.015.059.031.116.046.171.496-1.121.964-2.198 1.412-3.229.885-2.039 1.691-3.897 2.489-5.553 1.344-2.791 2.714-5.124 4.509-6.977 3.641-3.758 8.86-5.372 18.513-5.372h.406c8.377 0 12.249-.001 18.882-.991 1.016-.152 1.667-.432 2.101-.773.425-.334.7-.77.885-1.348.19-.595.278-1.317.331-2.196.024-.398.04-.815.057-1.26l.005-.126c.018-.482.039-.991.072-1.519v-41.3013c0-1.0662.028-2.1211.058-3.1428.002-.0926.005-.1848.008-.2767.026-.9268.052-1.8231.058-2.688.013-1.9101-.073-3.5992-.436-5.0068-.359-1.3913-.976-2.4579-1.998-3.1921-1.033-.7423-2.577-1.215-4.925-1.2151-4.568-.0002-9.851 0-15.515.0001-4.322.0002-8.865.0003-13.48.0003h-.026c-23.918.0001-32.778.0002-57.714 1.5811-.422.0267-.786-.2934-.812-.7151-.027-.4216.293-.7851.715-.8119 24.983-1.5839 33.879-1.584 57.814-1.5841h.023c4.615 0 9.158-.0001 13.48-.0003zm-27.426 88.8467c-.001.001-.001 0 .001-.003-.001.001-.001.002-.001.003z" fill="#000" fill-rule="evenodd"/><path clip-rule="evenodd" d="m335.237 92.4421c.243.3459.159.8229-.187 1.0656-.607.4251-2.026 1.2582-3.744 2.2509-.545.3153-1.124.6486-1.723.9932-1.309.7533-2.712 1.5609-4.067 2.3539-1.976 1.1573-3.828 2.2703-5.11 3.1253-.39.26-.715.488-.971.681 4.874 2.19 9.417 3.859 12.555 5.012.062.023.123.045.185.068 1.644.604 2.927 1.077 3.613 1.401.172.082.339.169.472.259.066.045.152.109.23.194.063.068.22.254.237.539.02.361-.189.605-.355.721-.142.099-.287.138-.367.155-.171.038-.371.047-.561.047-.412 0-.748-.324-.765-.731-.672-.279-1.7-.659-3.033-1.149-.064-.024-.129-.048-.194-.072-3.326-1.222-8.278-3.041-13.537-5.454-.208-.095-.442-.302-.498-.643-.045-.277.055-.498.111-.602.116-.215.31-.406.472-.551.354-.317.902-.712 1.557-1.148 1.322-.882 3.208-2.0151 5.185-3.1724 1.359-.7959 2.772-1.6086 4.083-2.3633.597-.3438 1.174-.6756 1.715-.9882 1.748-1.0104 3.093-1.8022 3.63-2.1789.346-.2426.824-.159 1.067.1869z" fill="#000" fill-rule="evenodd"/><path clip-rule="evenodd" d="m351.309 91.6373c.387.1695.564.6206.394 1.0076l-8.334 19.0201c-.17.387-.622.564-1.009.394-.387-.169-.564-.62-.394-1.007l8.335-19.0208c.169-.387.621-.5634 1.008-.3939z" fill="#000" fill-rule="evenodd"/><path clip-rule="evenodd" d="m358.511 93.0116c.234-.3532.709-.4519 1.062-.2205 1.078.7075 2.149 1.4188 3.218 2.1287 2.993 1.9876 5.968 3.9634 9.039 5.8102.062.037.126.076.192.115.475.284 1.009.603 1.496.967.559.416 1.107.926 1.49 1.581.212.364.088.832-.278 1.046s-.835.093-1.047-.271c-.24-.41-.612-.776-1.086-1.13-.421-.314-.884-.591-1.366-.879-.065-.04-.131-.079-.197-.119-3.103-1.865-6.12-3.8689-9.121-5.8622-1.063-.7061-2.124-1.4109-3.186-2.1078-.353-.2314-.45-.7053-.216-1.0584z" fill="#000" fill-rule="evenodd"/><path clip-rule="evenodd" d="m372.504 105.084c-.922.503-1.916 1.045-2.506 1.327-1.714.821-3.453 1.582-5.178 2.336-.308.135-.616.269-.923.404-2.032.891-4.039 1.789-5.992 2.796-.377.194-.838.047-1.031-.328-.192-.375-.043-.836.334-1.03 1.999-1.03 4.044-1.945 6.078-2.837.31-.136.62-.272.93-.407 1.725-.755 3.437-1.503 5.124-2.311.55-.264 1.483-.772 2.393-1.268.322-.176.641-.35.94-.511.549-.296 1.05-.561 1.331-.684.064-.028.16-.068.256-.093 0 0 .001 0 .003-.001.029-.008.172-.046.343-.019.097.016.326.071.496.296.185.244.167.506.136.641-.03.126-.084.216-.109.254-.03.046-.059.082-.079.105-.041.046-.082.085-.113.114-.065.058-.147.123-.237.191-.17.129-.375.177-.571.151-.205.106-.453.238-.733.389-.277.15-.58.315-.892.485z" fill="#000" fill-rule="evenodd"/></g></svg>