<svg width="416" height="212" viewBox="0 0 416 212" fill="none" xmlns="http://www.w3.org/2000/svg">
<path d="M415.164 193.072C415.164 203.196 322.358 211.404 207.877 211.404C93.3953 211.404 0.589844 203.196 0.589844 193.072C0.589844 182.947 93.3953 174.739 207.877 174.739C322.358 174.739 415.164 182.947 415.164 193.072Z" fill="url(#paint0_radial_2165_193301)" fill-opacity="0.1"/>
<path d="M177.815 35.8897C176.781 38.0995 183.067 38.1609 186.339 37.9154H215.785C219.608 37.9154 217.981 34.8462 216.689 33.3116L198.091 6.05719C191.763 15.0806 178.848 33.6799 177.815 35.8897Z" fill="#EE5F54"/>
<path fill-rule="evenodd" clip-rule="evenodd" d="M175.64 37.9454C175.64 37.6693 175.864 37.4454 176.14 37.4454L219.333 37.4454C219.609 37.4454 219.833 37.6693 219.833 37.9454C219.833 38.2216 219.609 38.4454 219.333 38.4454L176.14 38.4454C175.864 38.4454 175.64 38.2216 175.64 37.9454Z" fill="black"/>
<path fill-rule="evenodd" clip-rule="evenodd" d="M200.328 2.33737C200.557 2.49098 200.619 2.80153 200.465 3.03101L178.764 35.4484L178.752 35.4634C178.431 35.8724 178.12 36.4357 178.08 36.8597C178.062 37.0529 178.105 37.1586 178.166 37.2253C178.235 37.3004 178.41 37.4152 178.836 37.4509C179.112 37.474 179.316 37.7158 179.293 37.991C179.27 38.2661 179.028 38.4705 178.753 38.4474C178.192 38.4004 177.734 38.2322 177.43 37.9026C177.119 37.5645 177.049 37.1436 177.084 36.7667C177.151 36.0584 177.599 35.316 177.954 34.861L199.634 2.47471C199.788 2.24524 200.098 2.18375 200.328 2.33737Z" fill="black"/>
<path fill-rule="evenodd" clip-rule="evenodd" d="M196.685 3.80515C196.913 3.65037 197.224 3.71029 197.379 3.93898L217.75 34.0385C218.186 34.6334 218.493 35.2013 218.653 35.7257C218.814 36.2507 218.838 36.7708 218.646 37.2268C218.244 38.1846 217.11 38.4708 215.77 38.3434C215.495 38.3173 215.293 38.0732 215.319 37.7983C215.345 37.5234 215.589 37.3218 215.864 37.3479C217.138 37.4689 217.601 37.1341 217.724 36.8394C217.796 36.6693 217.815 36.4053 217.697 36.0182C217.579 35.6326 217.335 35.163 216.938 34.6221L216.933 34.6145L196.551 4.49948C196.396 4.27079 196.456 3.95993 196.685 3.80515Z" fill="black"/>
<path fill-rule="evenodd" clip-rule="evenodd" d="M198.167 14.8075L199.167 14.8075V18.6541C199.167 21.2059 198.862 24.7739 198.56 27.5072C198.53 27.7817 198.283 27.9796 198.008 27.9492C197.734 27.9189 197.536 27.6718 197.566 27.3973C197.742 25.809 197.917 23.9494 198.032 22.1803C197.827 23.0474 197.633 23.9044 197.489 24.7753C197.453 25.1144 197.424 25.4532 197.402 25.7914C197.39 26.05 197.381 26.3197 197.374 26.5655C197.366 26.8577 197.361 27.1036 197.359 27.236L197.359 27.2512L197.357 27.3246C197.357 27.3311 197.357 27.3417 197.357 27.3507C197.357 27.3529 197.356 27.3592 197.356 27.3669C197.355 27.3702 197.355 27.3793 197.353 27.3908C197.353 27.3969 197.35 27.4126 197.349 27.4222C197.345 27.439 197.33 27.4922 197.317 27.5278C197.25 27.6397 196.838 27.8306 196.527 27.7063C196.447 27.6179 196.379 27.4795 196.37 27.4448C196.367 27.4287 196.362 27.4032 196.361 27.3939L196.359 27.3734C196.358 27.36 196.357 27.3489 196.357 27.3468C196.356 27.3276 196.356 27.2696 196.356 27.1873L196.356 27.1671C196.356 26.7045 196.373 26.24 196.402 25.7744C196.422 25.3438 196.452 24.9143 196.497 24.642C196.498 24.6364 196.499 24.6308 196.5 24.6252C196.695 22.7776 197.06 20.9273 197.414 19.1363C197.575 18.3213 197.734 17.5186 197.873 16.734C197.898 16.5902 197.983 16.4717 198.097 16.3991C198.14 15.9485 198.167 15.4994 198.167 15.0493V14.8075Z" fill="black"/>
<path fill-rule="evenodd" clip-rule="evenodd" d="M196.551 32.2742C196.578 32.3266 196.61 32.3729 196.644 32.4108C196.723 32.4999 196.796 32.5255 196.865 32.5224C196.971 32.5178 197.242 32.4195 197.49 32.204C197.736 31.9902 197.822 31.7833 197.806 31.6354C197.798 31.5574 197.775 31.5135 197.74 31.4816C197.606 31.4439 197.495 31.4662 197.348 31.5669C197.175 31.6849 197.008 31.8726 196.787 32.1237C196.722 32.1982 196.639 32.2486 196.551 32.2742ZM198.188 30.5794C197.894 30.4107 197.551 30.3598 197.25 30.3555C196.648 30.3468 195.992 30.5251 195.666 30.6997C195.209 30.9447 194.901 31.4113 194.8 31.8972C194.697 32.3947 194.801 32.9731 195.253 33.397C196.295 34.3735 197.76 33.9355 198.53 33.0443C198.868 32.6532 199.075 32.1483 199.021 31.6544C198.969 31.1743 198.676 30.7769 198.188 30.5794Z" fill="black"/>
<path d="M164.071 85.4505C164.071 85.7705 163.879 86.1545 163.495 86.6025C163.175 87.0505 162.823 87.3385 162.439 87.4665C161.607 87.8505 160.711 88.0425 159.751 88.0425C158.791 88.0425 157.895 88.1065 157.063 88.2345C156.231 88.2985 155.527 88.5225 154.951 88.9065C154.439 89.2265 154.183 89.8985 154.183 90.9225C154.183 91.2425 154.247 92.0105 154.375 93.2265C154.503 94.3785 154.631 95.7545 154.759 97.3545C154.951 98.8905 155.111 100.554 155.239 102.346C155.367 104.138 155.431 105.77 155.431 107.242C155.431 107.626 155.399 108.042 155.335 108.49C155.271 109.002 155.143 109.482 154.951 109.93C154.759 110.378 154.503 110.762 154.183 111.082C153.863 111.402 153.415 111.562 152.839 111.562C152.327 111.562 151.911 111.274 151.591 110.698C151.335 110.186 151.111 109.61 150.919 108.97C150.791 108.33 150.695 107.722 150.631 107.146C150.631 106.57 150.631 106.25 150.631 106.186C150.631 106.122 150.599 105.514 150.535 104.362C150.535 103.21 150.503 101.834 150.439 100.234C150.439 98.5705 150.407 96.8425 150.343 95.0505C150.343 93.1945 150.311 91.5625 150.247 90.1545C150.247 89.5145 150.087 89.1945 149.767 89.1945C149.575 89.1945 149.095 89.2585 148.327 89.3865C147.623 89.4505 146.919 89.4825 146.215 89.4825C145.895 89.4825 145.159 89.4505 144.007 89.3865C142.919 89.3225 141.735 89.1305 140.455 88.8105C139.175 88.4265 138.023 87.9145 136.999 87.2745C136.039 86.5705 135.559 85.5785 135.559 84.2985C135.559 83.4025 135.911 82.4425 136.615 81.4185C137.319 80.3945 138.215 79.3385 139.303 78.2505C140.391 77.1625 141.543 76.1065 142.759 75.0825C143.975 73.9945 145.127 72.9705 146.215 72.0105C147.303 71.0505 148.199 70.1865 148.903 69.4185C149.607 68.6505 149.959 68.0105 149.959 67.4985V64.1385C149.959 63.8185 150.087 63.5945 150.343 63.4665C150.663 63.3385 150.919 63.2745 151.111 63.2745C151.687 63.2745 152.135 63.5305 152.455 64.0425C152.839 64.4905 153.127 65.0665 153.319 65.7705C153.511 66.4105 153.639 67.0505 153.703 67.6905C153.767 68.3305 153.799 68.8105 153.799 69.1305C153.799 70.8585 153.799 72.2985 153.799 73.4505C153.863 74.5385 153.927 75.5625 153.991 76.5225C154.055 77.4185 154.087 78.3785 154.087 79.4025C154.151 80.3625 154.183 81.6105 154.183 83.1465C154.183 83.7865 154.439 84.1065 154.951 84.1065C155.143 84.1065 155.527 84.0425 156.103 83.9145C156.743 83.7225 157.415 83.5625 158.119 83.4345C158.887 83.2425 159.591 83.0825 160.231 82.9545C160.871 82.7625 161.319 82.6665 161.575 82.6665C162.279 82.6665 162.855 82.9225 163.303 83.4345C163.815 83.9465 164.071 84.6185 164.071 85.4505ZM150.151 79.3065C150.151 78.2825 150.119 77.2585 150.055 76.2345C150.055 75.2105 149.927 74.4425 149.671 73.9305C148.007 75.5945 146.535 77.0985 145.255 78.4425C144.167 79.5945 143.143 80.7465 142.183 81.8985C141.287 82.9865 140.839 83.6905 140.839 84.0105C141.671 84.3305 142.631 84.5225 143.719 84.5865C144.807 84.6505 145.767 84.6825 146.599 84.6825C147.111 84.6825 147.687 84.6825 148.327 84.6825C149.031 84.6185 149.639 84.5225 150.151 84.3945V79.3065Z" fill="black"/>
<path d="M215.911 80.5145C215.911 83.8745 215.471 86.7945 214.591 89.2745C213.791 91.6745 212.751 93.7545 211.471 95.5145C210.271 97.1945 208.871 98.5945 207.271 99.7145C205.751 100.754 204.271 101.594 202.831 102.234C201.391 102.794 200.071 103.194 198.871 103.434C197.751 103.674 196.951 103.794 196.471 103.794C194.631 103.794 192.871 103.394 191.191 102.594C189.511 101.714 188.031 100.554 186.751 99.1145C185.471 97.6745 184.431 95.9945 183.631 94.0745C182.911 92.0745 182.551 89.9545 182.551 87.7145C182.551 85.7945 182.791 83.9145 183.271 82.0745C183.751 80.1545 184.231 78.3945 184.711 76.7945C185.271 75.1145 185.791 73.6345 186.271 72.3545C186.751 71.0745 186.991 70.0345 186.991 69.2345C186.991 69.0745 186.951 68.8745 186.871 68.6345C186.871 68.3945 186.871 68.1545 186.871 67.9145C186.871 67.4345 187.031 67.0745 187.351 66.8345C187.991 66.3545 188.471 65.9945 188.791 65.7545C189.191 65.5145 189.631 65.3945 190.111 65.3945C190.671 65.3945 191.471 65.5545 192.511 65.8745C193.551 66.1145 194.271 66.2345 194.671 66.2345C195.071 66.2345 195.511 66.2345 195.991 66.2345C196.551 66.2345 197.111 66.1945 197.671 66.1145C198.311 66.0345 198.951 65.9545 199.591 65.8745C200.631 65.8745 202.071 66.0745 203.911 66.4745C205.751 66.7945 207.551 67.4745 209.311 68.5145C211.151 69.5545 212.711 71.0345 213.991 72.9545C215.271 74.8745 215.911 77.3945 215.911 80.5145ZM197.071 98.1545C199.231 98.1545 201.151 97.7145 202.831 96.8345C204.511 95.8745 205.911 94.5945 207.031 92.9945C208.231 91.3945 209.111 89.5545 209.671 87.4745C210.231 85.3145 210.511 83.0745 210.511 80.7545C210.511 78.9945 210.191 77.4745 209.551 76.1945C208.911 74.9145 208.071 73.8745 207.031 73.0745C206.071 72.2745 204.951 71.7145 203.671 71.3945C202.391 70.9945 201.151 70.7945 199.951 70.7945C198.351 70.7945 196.951 70.9145 195.751 71.1545C194.551 71.3945 193.271 71.5145 191.911 71.5145C191.671 72.2345 191.351 73.1945 190.951 74.3945C190.551 75.5945 190.151 76.8745 189.751 78.2345C189.351 79.5145 188.991 80.7945 188.671 82.0745C188.431 83.2745 188.311 84.3545 188.311 85.3145C188.311 86.5145 188.391 87.8745 188.551 89.3945C188.791 90.9145 189.231 92.3145 189.871 93.5945C190.511 94.8745 191.391 95.9545 192.511 96.8345C193.711 97.7145 195.231 98.1545 197.071 98.1545Z" fill="black"/>
<path d="M262.831 86.4505C262.831 86.7705 262.639 87.1545 262.255 87.6025C261.935 88.0505 261.583 88.3385 261.199 88.4665C260.367 88.8505 259.471 89.0425 258.511 89.0425C257.551 89.0425 256.655 89.1065 255.823 89.2345C254.991 89.2985 254.287 89.5225 253.711 89.9065C253.199 90.2265 252.943 90.8985 252.943 91.9225C252.943 92.2425 253.007 93.0105 253.135 94.2265C253.263 95.3785 253.391 96.7545 253.519 98.3545C253.711 99.8905 253.871 101.554 253.999 103.346C254.127 105.138 254.191 106.77 254.191 108.242C254.191 108.626 254.159 109.042 254.095 109.49C254.031 110.002 253.903 110.482 253.711 110.93C253.519 111.378 253.263 111.762 252.943 112.082C252.623 112.402 252.175 112.562 251.599 112.562C251.087 112.562 250.671 112.274 250.351 111.698C250.095 111.186 249.871 110.61 249.679 109.97C249.551 109.33 249.455 108.722 249.391 108.146C249.391 107.57 249.391 107.25 249.391 107.186C249.391 107.122 249.359 106.514 249.295 105.362C249.295 104.21 249.263 102.834 249.199 101.234C249.199 99.5705 249.167 97.8425 249.103 96.0505C249.103 94.1945 249.071 92.5625 249.007 91.1545C249.007 90.5145 248.847 90.1945 248.527 90.1945C248.335 90.1945 247.855 90.2585 247.087 90.3865C246.383 90.4505 245.679 90.4825 244.975 90.4825C244.655 90.4825 243.919 90.4505 242.767 90.3865C241.679 90.3225 240.495 90.1305 239.215 89.8105C237.935 89.4265 236.783 88.9145 235.759 88.2745C234.799 87.5705 234.319 86.5785 234.319 85.2985C234.319 84.4025 234.671 83.4425 235.375 82.4185C236.079 81.3945 236.975 80.3385 238.063 79.2505C239.151 78.1625 240.303 77.1065 241.519 76.0825C242.735 74.9945 243.887 73.9705 244.975 73.0105C246.063 72.0505 246.959 71.1865 247.663 70.4185C248.367 69.6505 248.719 69.0105 248.719 68.4985V65.1385C248.719 64.8185 248.847 64.5945 249.103 64.4665C249.423 64.3385 249.679 64.2745 249.871 64.2745C250.447 64.2745 250.895 64.5305 251.215 65.0425C251.599 65.4905 251.887 66.0665 252.079 66.7705C252.271 67.4105 252.399 68.0505 252.463 68.6905C252.527 69.3305 252.559 69.8105 252.559 70.1305C252.559 71.8585 252.559 73.2985 252.559 74.4505C252.623 75.5385 252.687 76.5625 252.751 77.5225C252.815 78.4185 252.847 79.3785 252.847 80.4025C252.911 81.3625 252.943 82.6105 252.943 84.1465C252.943 84.7865 253.199 85.1065 253.711 85.1065C253.903 85.1065 254.287 85.0425 254.863 84.9145C255.503 84.7225 256.175 84.5625 256.879 84.4345C257.647 84.2425 258.351 84.0825 258.991 83.9545C259.631 83.7625 260.079 83.6665 260.335 83.6665C261.039 83.6665 261.615 83.9225 262.063 84.4345C262.575 84.9465 262.831 85.6185 262.831 86.4505ZM248.911 80.3065C248.911 79.2825 248.879 78.2585 248.815 77.2345C248.815 76.2105 248.687 75.4425 248.431 74.9305C246.767 76.5945 245.295 78.0985 244.015 79.4425C242.927 80.5945 241.903 81.7465 240.943 82.8985C240.047 83.9865 239.599 84.6905 239.599 85.0105C240.431 85.3305 241.391 85.5225 242.479 85.5865C243.567 85.6505 244.527 85.6825 245.359 85.6825C245.871 85.6825 246.447 85.6825 247.087 85.6825C247.791 85.6185 248.399 85.5225 248.911 85.3945V80.3065Z" fill="black"/>
<path d="M256.041 178.129L261.86 168.091L283.389 186.42C281.256 185.305 275.825 182.783 271.17 181.62C265.351 180.165 263.897 183.511 260.696 184.674C257.496 185.838 256.041 195.73 254.732 192.384C253.685 189.708 255.169 181.765 256.041 178.129Z" fill="white"/>
<path fill-rule="evenodd" clip-rule="evenodd" d="M225 116.043L278.419 194.088L269.226 198.684L214.528 121.682C193.547 128.751 174.522 118.428 167 99.9315C149.753 57.5216 205.667 35.4869 232.25 70.9315C246.218 89.5558 237.257 109.148 225 116.043ZM200.567 114.253C215.559 114.253 227.713 102.214 227.713 87.3615C227.713 72.5095 215.559 60.4695 200.567 60.4695C185.574 60.4695 173.421 72.5095 173.421 87.3615C173.421 102.214 185.574 114.253 200.567 114.253Z" fill="#FCFEFF"/>
<path fill-rule="evenodd" clip-rule="evenodd" d="M229.57 96.7765C228.092 101.053 225.096 105.23 220.234 109.04C205.972 120.216 190.641 116.91 181 108.08C176.03 103.529 172.543 97.4748 171.504 91.1648C171.483 91.3737 171.462 91.5839 171.442 91.7954C171.416 92.0703 171.173 92.2722 170.898 92.2464C170.623 92.2206 170.421 91.9768 170.447 91.7018C170.634 89.7041 170.893 87.8139 171.216 86.0275C171.383 83.0122 172.159 80.015 173.647 77.1688C176.571 69.6089 181.08 64.8261 186.357 62.2703C194.424 58.3641 204.129 59.7389 212.36 64.0826C220.591 68.4263 227.452 75.7915 229.813 84.0278C230.995 88.1537 231.048 92.4989 229.57 96.7765ZM176.337 73.6731C179.089 68.5222 182.73 65.1379 186.793 63.1703C194.484 59.446 203.842 60.7183 211.893 64.967C219.944 69.2158 226.583 76.3885 228.852 84.3033C229.984 88.2531 230.028 92.3867 228.625 96.4499C227.22 100.514 224.356 104.54 219.617 108.253C205.793 119.085 191.008 115.89 181.675 107.343C175.53 101.715 171.795 93.8232 172.219 86.1023C172.799 82.9318 173.587 80.1081 174.549 77.6059C175.114 76.5271 175.785 75.4722 176.569 74.4495C176.737 74.2303 176.696 73.9165 176.476 73.7485C176.433 73.7152 176.386 73.6902 176.337 73.6731Z" fill="black"/>
<path fill-rule="evenodd" clip-rule="evenodd" d="M197.875 53.6468C209.971 53.6481 221.789 58.609 229.597 67.2022C237.419 75.8109 241.195 88.0432 237.223 102.501L237.219 102.516L237.214 102.531C234.68 109.932 228.028 115.951 219.851 119.675C211.667 123.403 201.884 124.867 192.988 123.096C181.996 120.908 171.744 112.956 166.65 102.12C162.032 92.2994 161.659 80.1274 168.76 67.7581C165.34 71.716 162.952 76.4569 162.276 81.8317C162.242 82.1057 161.992 82.2999 161.718 82.2654C161.444 82.231 161.25 81.9809 161.284 81.7069C162.194 74.4708 166.075 68.3804 171.337 63.7481C171.345 63.7409 171.353 63.734 171.361 63.7275C172.472 62.7514 173.643 61.8403 174.862 60.9969C181.861 56.1518 190.443 53.5068 197.875 53.6468ZM172.054 64.4493C162.649 77.8417 162.609 91.1764 167.555 101.695C172.517 112.25 182.51 119.991 193.184 122.116C201.851 123.841 211.421 122.416 219.436 118.765C227.453 115.114 233.843 109.271 236.263 102.221C240.137 88.1012 236.446 76.2278 228.857 67.8747C221.251 59.5043 209.708 54.6468 197.871 54.6468H197.861L197.861 54.6467C190.655 54.5098 182.275 57.0818 175.431 61.8192C174.254 62.6339 173.124 63.5116 172.054 64.4493Z" fill="black"/>
<path fill-rule="evenodd" clip-rule="evenodd" d="M224.836 116.529C225.063 116.371 225.375 116.427 225.532 116.654L278.453 192.93C278.61 193.157 278.554 193.468 278.327 193.626C278.1 193.783 277.789 193.727 277.631 193.5L224.71 117.224C224.553 116.997 224.609 116.686 224.836 116.529Z" fill="black"/>
<path d="M253.14 160.483L243.856 162C243.856 163.071 245.552 164.321 246.802 165.66C247.726 166.648 253.407 161.286 253.14 160.483Z" fill="white"/>
<path fill-rule="evenodd" clip-rule="evenodd" d="M214.639 120.995C214.865 120.837 215.177 120.891 215.335 121.118L269.458 198.303C269.616 198.53 269.562 198.841 269.336 199C269.109 199.158 268.798 199.104 268.639 198.878L214.516 121.692C214.358 121.466 214.413 121.154 214.639 120.995Z" fill="black"/>
<path fill-rule="evenodd" clip-rule="evenodd" d="M279.247 192.883C279.387 193.121 279.307 193.428 279.069 193.568L269.787 199.021C269.548 199.161 269.242 199.082 269.102 198.844C268.962 198.605 269.042 198.299 269.28 198.159L278.562 192.706C278.8 192.566 279.107 192.645 279.247 192.883Z" fill="black"/>
<path d="M250.26 175.403C250.961 169.246 255.163 162.447 257.176 159.817C257.809 160.066 251.08 155.921 250.26 151.217C249.421 146.408 254.462 139.942 265.933 146.707C276.06 152.679 267.097 160.818 264.77 160.818C264.273 163.258 290.304 189.026 289.499 191.22C260.696 175.403 261.506 166.458 260.696 166.927C256.254 169.499 252.403 178.942 250.747 183.39C250.292 183.293 249.558 181.559 250.26 175.403Z" fill="white"/>
<path fill-rule="evenodd" clip-rule="evenodd" d="M258.12 158.905C258.308 159.107 258.297 159.423 258.095 159.612C256.755 160.862 255.5 162.765 254.409 165.003C253.321 167.236 252.41 169.773 251.744 172.264C251.077 174.756 250.661 177.186 250.553 179.206C250.499 180.217 250.524 181.113 250.628 181.857C250.651 182.019 250.677 182.172 250.707 182.316C250.761 182.166 250.82 182.005 250.884 181.834C251.306 180.704 251.945 179.13 252.818 177.349C254.56 173.795 257.247 169.385 261.012 166.051C261.218 165.868 261.534 165.887 261.717 166.094C261.9 166.3 261.881 166.616 261.675 166.799C258.049 170.011 255.431 174.291 253.716 177.789C252.86 179.535 252.233 181.078 251.821 182.184C251.614 182.737 251.462 183.18 251.361 183.483C251.311 183.635 251.273 183.752 251.249 183.83C251.236 183.87 251.227 183.899 251.221 183.919L251.215 183.94L251.213 183.945L251.213 183.946L251.213 183.947C251.213 183.947 251.213 183.947 251.213 183.947" fill="black"/>
<path fill-rule="evenodd" clip-rule="evenodd" d="M257.924 144.091C255.167 143.982 252.536 145.135 250.804 148.319C249.816 150.136 250.405 152.164 251.695 154.159C252.957 156.109 254.797 157.877 256.1 159.13L256.166 159.193C256.365 159.385 256.371 159.701 256.179 159.9C255.988 160.099 255.672 160.105 255.472 159.914C255.443 159.885 255.412 159.856 255.382 159.827C254.092 158.587 252.181 156.751 250.856 154.702C249.507 152.617 248.666 150.157 249.926 147.841C251.848 144.306 254.845 142.968 257.963 143.091C261.044 143.213 264.212 144.756 266.599 146.902C268.978 149.042 270.672 151.867 270.651 154.624C270.63 157.449 268.816 160.014 264.599 161.587C264.34 161.683 264.052 161.552 263.956 161.293C263.859 161.034 263.991 160.746 264.249 160.65C268.204 159.175 269.634 156.907 269.651 154.616C269.669 152.256 268.196 149.683 265.93 147.646C263.673 145.615 260.718 144.201 257.924 144.091Z" fill="black"/>
<path fill-rule="evenodd" clip-rule="evenodd" d="M263.757 160.354C263.961 160.168 264.278 160.184 264.463 160.388C276.791 173.975 283.851 181.995 287.368 186.399C288.248 187.5 288.912 188.382 289.383 189.073C289.844 189.749 290.149 190.282 290.273 190.674C290.331 190.858 290.384 191.114 290.289 191.358C290.167 191.672 289.885 191.786 289.657 191.803C289.455 191.819 289.241 191.768 289.052 191.707C288.852 191.641 288.627 191.546 288.386 191.429C287.432 190.969 286.032 190.09 284.434 189.066C284.14 188.878 283.839 188.684 283.531 188.487C282.154 187.601 280.653 186.636 279.14 185.721C277.289 184.601 275.437 183.566 273.794 182.852C272.124 182.126 270.767 181.776 269.864 181.911C269.591 181.952 269.337 181.764 269.296 181.491C269.255 181.218 269.443 180.963 269.716 180.922C270.925 180.741 272.515 181.205 274.192 181.935C275.897 182.676 277.794 183.738 279.657 184.865C281.183 185.788 282.698 186.762 284.076 187.648C284.382 187.845 284.682 188.037 284.973 188.224C286.588 189.259 287.933 190.1 288.821 190.529C288.966 190.599 289.093 190.655 289.204 190.699C289.081 190.45 288.874 190.102 288.557 189.636C288.106 188.976 287.46 188.116 286.587 187.023C283.093 182.649 276.055 174.652 263.722 161.06C263.537 160.856 263.552 160.539 263.757 160.354Z" fill="black"/>
<path fill-rule="evenodd" clip-rule="evenodd" d="M251.126 146.928C251.402 146.928 251.626 147.152 251.626 147.428C251.626 149.434 252.746 151.158 254.402 152.4C256.06 153.644 258.205 154.36 260.122 154.36C260.398 154.36 260.622 154.584 260.622 154.86C260.622 155.136 260.398 155.36 260.122 155.36C257.98 155.36 255.626 154.568 253.802 153.2C251.974 151.83 250.626 149.838 250.626 147.428C250.626 147.152 250.85 146.928 251.126 146.928Z" fill="black"/>
<path fill-rule="evenodd" clip-rule="evenodd" d="M255.936 178.838C256.197 178.926 256.338 179.21 256.25 179.472C256.067 180.017 255.825 181.184 255.589 182.653C255.356 184.109 255.135 185.825 254.988 187.448C254.84 189.077 254.769 190.59 254.829 191.648C254.852 192.069 254.896 192.388 254.95 192.604C255.092 192.425 255.269 192.171 255.475 191.857C255.889 191.227 256.396 190.386 256.912 189.498C257.943 187.725 258.998 185.788 259.403 185.024C259.532 184.78 259.835 184.687 260.079 184.816C260.323 184.945 260.416 185.248 260.287 185.492C259.876 186.266 258.815 188.214 257.776 190.001C257.257 190.894 256.74 191.752 256.311 192.406C256.097 192.732 255.9 193.015 255.732 193.228C255.648 193.334 255.565 193.432 255.485 193.511C255.419 193.576 255.306 193.68 255.163 193.735C254.915 193.831 254.645 193.805 254.422 193.637C254.236 193.497 254.13 193.292 254.064 193.118C253.929 192.762 253.862 192.261 253.83 191.704C253.766 190.571 253.843 188.999 253.992 187.358C254.142 185.711 254.365 183.972 254.602 182.495C254.837 181.03 255.089 179.787 255.302 179.153C255.39 178.891 255.674 178.75 255.936 178.838ZM254.747 192.832C254.747 192.832 254.747 192.831 254.748 192.831L254.747 192.832Z" fill="black"/>
<path fill-rule="evenodd" clip-rule="evenodd" d="M247.24 161.847C246.218 162.023 245.014 162.231 243.596 162.473C243.324 162.52 243.066 162.337 243.019 162.065C242.972 161.793 243.155 161.534 243.427 161.488C244.836 161.247 246.034 161.04 247.055 160.864C249.253 160.486 250.626 160.249 251.487 160.117C252.109 160.021 252.501 159.973 252.751 159.972C252.874 159.971 253.017 159.98 253.151 160.033C253.274 160.082 253.365 160.156 253.429 160.238C253.555 160.356 253.645 160.507 253.684 160.684C253.726 160.881 253.696 161.069 253.643 161.227C253.54 161.532 253.315 161.832 253.064 162.106C252.551 162.667 251.753 163.299 250.911 163.896C249.225 165.093 247.229 166.241 246.622 166.517C246.37 166.632 246.074 166.52 245.96 166.269C245.846 166.018 245.957 165.721 246.208 165.607C246.737 165.367 248.676 164.256 250.332 163.081C251.162 162.492 251.888 161.91 252.327 161.431C252.508 161.233 252.614 161.08 252.666 160.975C252.484 160.985 252.174 161.023 251.64 161.105C250.787 161.236 249.428 161.47 247.24 161.847Z" fill="black"/>
<defs>
<radialGradient id="paint0_radial_2165_193301" cx="0" cy="0" r="1" gradientUnits="userSpaceOnUse" gradientTransform="translate(223.502 194.154) rotate(95.2231) scale(10.0564 112.802)">
<stop stop-opacity="0.73"/>
<stop offset="1" stop-color="#3E7BFA" stop-opacity="0"/>
</radialGradient>
</defs>
</svg>
