<svg width="12" height="12" viewBox="0 0 12 12" fill="none" xmlns="http://www.w3.org/2000/svg">
<g clip-path="url(#clip0_23_49)">
<path fill-rule="evenodd" clip-rule="evenodd" d="M5.24935 0C5.00872 0 4.80221 0.171407 4.7579 0.407927L4.50237 1.77184C3.98045 1.95391 3.4966 2.23085 3.07526 2.58867L1.77848 2.12876C1.5512 2.04815 1.29877 2.14126 1.17826 2.35014L0.428259 3.65014C0.308143 3.85834 0.35317 4.12255 0.535468 4.27921L1.58474 5.18093C1.53136 5.44848 1.50274 5.72061 1.49939 5.99387L1.49924 5.99387L1.49939 6.00613C1.50274 6.27939 1.53136 6.55152 1.58474 6.81907L0.535468 7.72079C0.35317 7.87745 0.308143 8.14166 0.428259 8.34986L1.17826 9.64986C1.2985 9.85828 1.55015 9.9515 1.77715 9.87171L3.07451 9.4157C3.49608 9.77387 3.98026 10.051 4.50255 10.2332L4.75795 11.5923C4.80237 11.8287 5.00882 12 5.24935 12H6.74935C6.98999 12 7.19649 11.8286 7.2408 11.5921L7.49633 10.2282C8.01855 10.046 8.50267 9.76883 8.92419 9.4107L10.2215 9.86671C10.4486 9.9465 10.7002 9.85328 10.8204 9.64486L11.5704 8.34486C11.6908 8.13629 11.6454 7.87159 11.4624 7.71506L10.4141 6.8183C10.4674 6.551 10.496 6.27913 10.4993 6.00613L10.4995 6.00613L10.4993 5.99387C10.496 5.72061 10.4673 5.44848 10.414 5.18093L11.4632 4.27921C11.6455 4.12255 11.6906 3.85834 11.5704 3.65014L10.8204 2.35014C10.7001 2.14162 10.4483 2.04843 10.2213 2.12838L8.92404 2.58517C8.50252 2.22708 8.01841 1.94995 7.49619 1.76779L7.24076 0.407712C7.19636 0.171293 6.9899 0 6.74935 0H5.24935ZM5.4298 2.25207L5.66438 1H6.33451L6.56894 2.24829C6.60435 2.43682 6.7445 2.58848 6.92966 2.63862C7.50571 2.79461 8.03212 3.09576 8.45856 3.51327C8.59468 3.64655 8.79472 3.69089 8.97442 3.62762L10.1618 3.20953L10.4972 3.7909L9.53147 4.62079C9.38461 4.747 9.32382 4.94666 9.37545 5.13329C9.45357 5.41573 9.49519 5.707 9.49931 6C9.49519 6.293 9.45357 6.58427 9.37545 6.86671C9.32372 7.05373 9.38487 7.2538 9.53232 7.37994L10.4967 8.20493L10.1616 8.78568L8.97415 8.36829C8.79452 8.30515 8.59461 8.34952 8.45856 8.48273C8.03212 8.90024 7.50571 9.20139 6.92966 9.35738C6.74442 9.40754 6.60424 9.5593 6.5689 9.74793L6.33433 11H5.66415L5.42975 9.75266C5.39433 9.56415 5.25418 9.41252 5.06904 9.36238C4.49299 9.20639 3.96659 8.90524 3.54015 8.48773C3.40409 8.35452 3.20419 8.31015 3.02455 8.37329L1.83706 8.79068L1.50154 8.2091L2.46723 7.37921C2.6141 7.253 2.67488 7.05334 2.62326 6.86671C2.54514 6.58427 2.50351 6.293 2.49939 6C2.50351 5.707 2.54514 5.41573 2.62326 5.13329C2.67488 4.94666 2.6141 4.747 2.46723 4.62079L1.50154 3.7909L1.83647 3.21035L3.02322 3.63124C3.20316 3.69506 3.40373 3.65084 3.54015 3.51727C3.96659 3.09976 4.49299 2.79861 5.06904 2.64262C5.25428 2.59246 5.39446 2.4407 5.4298 2.25207ZM5.00002 6C5.00002 5.44772 5.44774 5 6.00002 5C6.55231 5 7.00002 5.44772 7.00002 6C7.00002 6.55228 6.55231 7 6.00002 7C5.44774 7 5.00002 6.55228 5.00002 6ZM6.00002 4C4.89545 4 4.00002 4.89543 4.00002 6C4.00002 7.10457 4.89545 8 6.00002 8C7.10459 8 8.00002 7.10457 8.00002 6C8.00002 4.89543 7.10459 4 6.00002 4Z" fill="#60606C"/>
</g>
<defs>
<clipPath id="clip0_23_49">
<rect width="12" height="12" fill="white"/>
</clipPath>
</defs>
</svg>
