<svg width="12" height="12" viewBox="0 0 12 12" fill="none" xmlns="http://www.w3.org/2000/svg">
<path fill-rule="evenodd" clip-rule="evenodd" d="M3 0.5C3 0.223858 2.77614 0 2.5 0C2.22386 0 2 0.223858 2 0.5V11.5C2 11.7761 2.22386 12 2.5 12C2.77614 12 3 11.7761 3 11.5V0.5ZM4.72361 1.05279C4.56861 0.975289 4.38454 0.983571 4.23713 1.07467C4.08973 1.16578 4 1.32671 4 1.5V7.5C4 7.67329 4.08973 7.83422 4.23713 7.92533C4.38454 8.01643 4.56861 8.02471 4.72361 7.94721L10.7236 4.94721C10.893 4.86252 11 4.68939 11 4.5C11 4.31061 10.893 4.13748 10.7236 4.05279L4.72361 1.05279ZM9.38197 4.5L5 6.69098V2.30902L9.38197 4.5Z" fill="#60606C"/>
</svg>
