<svg width="16" height="16" viewBox="0 0 16 16" fill="none" xmlns="http://www.w3.org/2000/svg">
<path d="M3.33301 6.66655V10.674C3.33301 10.9133 3.33301 11.0329 3.36944 11.1386C3.40167 11.232 3.45425 11.3171 3.5234 11.3877C3.60158 11.4675 3.70861 11.521 3.92265 11.628L7.52265 13.428C7.69755 13.5155 7.78501 13.5592 7.87674 13.5764C7.95799 13.5917 8.04136 13.5917 8.12261 13.5764C8.21434 13.5592 8.3018 13.5155 8.4767 13.428L12.0767 11.628C12.2907 11.521 12.3978 11.4675 12.476 11.3877C12.5451 11.3171 12.5977 11.232 12.6299 11.1386C12.6663 11.0329 12.6663 10.9133 12.6663 10.674V6.66655M1.33301 5.66655L7.76116 2.45247C7.84862 2.40874 7.89234 2.38688 7.93821 2.37827C7.97883 2.37065 8.02052 2.37065 8.06114 2.37827C8.10701 2.38688 8.15073 2.40874 8.23819 2.45247L14.6663 5.66655L8.23819 8.88062C8.15073 8.92435 8.10701 8.94621 8.06114 8.95482C8.02052 8.96244 7.97883 8.96244 7.93821 8.95482C7.89234 8.94621 7.84862 8.92435 7.76116 8.88062L1.33301 5.66655Z" stroke="#0278D5" stroke-linecap="round" stroke-linejoin="round"/>
</svg>
