<svg width="12" height="12" viewBox="0 0 12 12" fill="none" xmlns="http://www.w3.org/2000/svg">
<path d="M1.5 6.5C2.05228 6.5 2.5 6.05228 2.5 5.5C2.5 4.94772 2.05228 4.5 1.5 4.5C0.947715 4.5 0.5 4.94772 0.5 5.5C0.5 6.05228 0.947715 6.5 1.5 6.5Z" stroke="#60606C" stroke-linecap="round" stroke-linejoin="round"/>
<path d="M10.5 6.5C11.0523 6.5 11.5 6.05228 11.5 5.5C11.5 4.94772 11.0523 4.5 10.5 4.5C9.94772 4.5 9.5 4.94772 9.5 5.5C9.5 6.05228 9.94772 6.5 10.5 6.5Z" stroke="#60606C" stroke-linecap="round" stroke-linejoin="round"/>
<path d="M6 6.5C6.55228 6.5 7 6.05228 7 5.5C7 4.94772 6.55228 4.5 6 4.5C5.44772 4.5 5 4.94772 5 5.5C5 6.05228 5.44772 6.5 6 6.5Z" stroke="#60606C" stroke-linecap="round" stroke-linejoin="round"/>
</svg>
