<svg width="544" height="286" viewBox="0 0 544 286" fill="none" xmlns="http://www.w3.org/2000/svg">
<path opacity="0.7" d="M447.999 122.5C447.999 165.026 374.036 199.499 282.799 199.499C191.562 199.499 117.6 165.026 117.6 122.5C117.6 79.9739 191.562 45.4999 282.799 45.4999C374.036 45.4999 447.999 79.9739 447.999 122.5Z" fill="url(#paint0_radial_4153_404911)" fill-opacity="0.1"/>
<path opacity="0.7" d="M330.399 206.499C330.399 249.025 256.437 283.499 165.2 283.499C73.9624 283.499 0 249.025 0 206.499C0 163.974 73.9624 129.5 165.2 129.5C256.437 129.5 330.399 163.974 330.399 206.499Z" fill="url(#paint1_radial_4153_404911)" fill-opacity="0.1"/>
<path opacity="0.7" d="M543.199 198.1C543.199 240.625 469.236 275.099 377.999 275.099C286.762 275.099 212.8 240.625 212.8 198.1C212.8 155.574 286.762 121.1 377.999 121.1C469.236 121.1 543.199 155.574 543.199 198.1Z" fill="url(#paint2_radial_4153_404911)" fill-opacity="0.1"/>
<path fill-rule="evenodd" clip-rule="evenodd" d="M422.747 72.2363C422.893 72.5944 422.721 73.0028 422.363 73.1486C386.424 87.7789 283.816 137.524 251.613 153.675C250.639 154.164 249.686 154.641 248.753 155.109C241.965 158.509 236.26 161.367 231.763 163.838C226.621 166.664 223.163 168.931 221.462 170.864C220.618 171.823 220.29 172.607 220.301 173.263C220.311 173.897 220.644 174.588 221.537 175.36C222.435 176.136 223.831 176.934 225.799 177.765C227.759 178.593 230.246 179.439 233.295 180.328C237.695 181.611 244.744 183.605 253.358 186.041C277.595 192.897 314.214 203.254 339.011 211.133C345.329 213.14 350.703 215.203 354.97 217.341C359.224 219.473 362.435 221.706 364.365 224.079C366.321 226.483 366.987 229.072 366.037 231.783C365.111 234.426 362.688 237.06 358.795 239.727C348.554 246.742 306.951 272.195 282.441 285.911C282.104 286.099 281.677 285.979 281.488 285.642C281.299 285.304 281.42 284.878 281.757 284.689C306.247 270.985 347.811 245.554 358.003 238.572C361.81 235.964 363.937 233.543 364.716 231.32C365.471 229.164 364.999 227.076 363.279 224.962C361.534 222.817 358.532 220.691 354.343 218.593C350.166 216.5 344.867 214.462 338.587 212.467C313.814 204.596 277.248 194.254 253.01 187.398C244.384 184.958 237.319 182.96 232.903 181.672C229.827 180.775 227.283 179.912 225.254 179.055C223.232 178.2 221.681 177.335 220.621 176.418C219.556 175.497 218.921 174.462 218.901 173.286C218.882 172.13 219.462 171.017 220.411 169.939C222.298 167.796 225.971 165.424 231.089 162.612C235.611 160.126 241.343 157.255 248.126 153.857C249.059 153.389 250.013 152.912 250.985 152.424C283.182 136.276 385.838 86.5062 421.835 71.8519C422.193 71.7061 422.601 71.8782 422.747 72.2363Z" fill="black"/>
<path fill-rule="evenodd" clip-rule="evenodd" d="M412.223 60.983C412.398 61.3276 412.261 61.749 411.916 61.9242C391.249 72.4328 347.996 92.2402 306.604 111.068C299.914 114.112 293.272 117.129 286.782 120.078C253.102 135.38 223.506 148.827 212.367 154.376C210.383 155.365 208.424 156.332 206.507 157.279C201.99 159.51 197.704 161.626 193.857 163.637C188.372 166.504 183.835 169.127 180.833 171.521C179.33 172.719 178.254 173.827 177.63 174.842C177.012 175.847 176.87 176.699 177.108 177.46C177.353 178.245 178.05 179.092 179.457 179.962C180.857 180.829 182.886 181.671 185.651 182.478C188.523 183.315 192.748 184.537 197.946 186.041C223.139 193.327 271.205 207.23 299.067 216.082C305.367 218.084 310.947 219.95 315.484 221.779C320.004 223.602 323.561 225.417 325.761 227.342C326.866 228.309 327.674 229.342 328.064 230.462C328.463 231.605 328.406 232.782 327.882 233.97C326.866 236.272 324.095 238.603 319.537 241.113C308.76 247.046 295.273 254.826 281.325 262.872C268.92 270.028 256.15 277.395 244.597 283.86C244.259 284.049 243.833 283.928 243.644 283.591C243.455 283.254 243.576 282.827 243.913 282.638C255.418 276.201 268.186 268.835 280.599 261.675C294.573 253.614 308.097 245.813 318.862 239.887C323.403 237.387 325.789 235.245 326.601 233.405C326.991 232.522 327.017 231.711 326.742 230.923C326.46 230.113 325.84 229.272 324.839 228.396C322.828 226.637 319.461 224.893 314.96 223.078C310.477 221.269 304.94 219.417 298.643 217.417C270.802 208.571 222.765 194.677 197.567 187.388C192.365 185.884 188.136 184.661 185.259 183.822C182.436 182.998 180.272 182.113 178.72 181.153C177.174 180.197 176.158 179.118 175.771 177.877C175.376 176.611 175.683 175.335 176.437 174.109C177.185 172.894 178.403 171.667 179.96 170.426C183.077 167.941 187.72 165.265 193.209 162.396C197.07 160.378 201.379 158.25 205.903 156.016C207.817 155.07 209.769 154.106 211.743 153.123C222.907 147.562 252.535 134.1 286.212 118.799C292.7 115.851 299.339 112.835 306.025 109.794C347.43 90.9598 390.649 71.1676 411.282 60.6763C411.626 60.5011 412.048 60.6384 412.223 60.983Z" fill="black"/>
<path d="M201.287 208.083L165.659 223.075L134.227 213.176L134.227 173.28L175.047 158.149L201.287 168.057L201.287 169.522L201.287 177.525L201.287 208.083Z" fill="white"/>
<path fill-rule="evenodd" clip-rule="evenodd" d="M169.469 157.598C169.571 157.225 169.956 157.006 170.329 157.108C175.737 158.587 181.252 160.426 186.957 162.347C187.307 162.465 187.657 162.583 188.008 162.701C193.392 164.515 198.952 166.388 204.786 168.104C205.157 168.213 205.369 168.602 205.26 168.973C205.151 169.344 204.762 169.556 204.391 169.447C198.53 167.724 192.946 165.842 187.566 164.03C187.214 163.911 186.862 163.792 186.51 163.674C180.801 161.751 175.323 159.926 169.959 158.458C169.586 158.356 169.367 157.971 169.469 157.598Z" fill="black"/>
<path fill-rule="evenodd" clip-rule="evenodd" d="M134.227 170.533C134.613 170.533 134.927 170.847 134.927 171.233L134.927 214.028C134.927 214.414 134.613 214.728 134.227 214.728C133.84 214.728 133.527 214.414 133.527 214.028L133.527 171.233C133.527 170.847 133.84 170.533 134.227 170.533Z" fill="black"/>
<path fill-rule="evenodd" clip-rule="evenodd" d="M201.286 166.624C201.673 166.624 201.986 166.937 201.986 167.324L201.986 208.548C201.986 208.934 201.673 209.248 201.286 209.248C200.899 209.248 200.586 208.934 200.586 208.548L200.586 167.324C200.586 166.937 200.899 166.624 201.286 166.624ZM167.332 178.526C167.718 178.526 168.032 178.839 168.032 179.226L168.032 223.827C168.032 224.214 167.718 224.527 167.332 224.527C166.945 224.527 166.632 224.214 166.632 223.827L166.632 179.226C166.632 178.839 166.945 178.526 167.332 178.526Z" fill="black"/>
<path fill-rule="evenodd" clip-rule="evenodd" d="M132.703 213.839C132.805 213.466 133.19 213.246 133.563 213.348C139.507 214.975 145.856 216.612 152.496 218.324C157.896 219.717 163.488 221.159 169.21 222.685C169.584 222.784 169.806 223.168 169.706 223.541C169.607 223.915 169.223 224.137 168.85 224.037C163.157 222.519 157.569 221.078 152.167 219.685C145.511 217.969 139.136 216.325 133.193 214.699C132.82 214.597 132.601 214.212 132.703 213.839Z" fill="black"/>
<path fill-rule="evenodd" clip-rule="evenodd" d="M134.4 173.082C134.502 172.709 134.887 172.489 135.26 172.591C141.205 174.218 147.554 175.855 154.193 177.567C159.593 178.959 165.185 180.401 170.908 181.927C171.281 182.027 171.503 182.411 171.404 182.784C171.304 183.158 170.921 183.38 170.547 183.28C164.854 181.762 159.267 180.321 153.864 178.928C147.208 177.212 140.833 175.568 134.891 173.942C134.518 173.84 134.298 173.455 134.4 173.082Z" fill="black"/>
<path fill-rule="evenodd" clip-rule="evenodd" d="M206.187 206.989C206.322 207.352 206.137 207.755 205.774 207.889C198.098 210.734 171.117 221.659 163.555 224.823C163.198 224.973 162.788 224.805 162.639 224.448C162.49 224.091 162.658 223.681 163.015 223.532C170.581 220.366 197.583 209.432 205.288 206.576C205.65 206.442 206.053 206.627 206.187 206.989Z" fill="black"/>
<path fill-rule="evenodd" clip-rule="evenodd" d="M203.34 167.081C203.475 167.443 203.29 167.846 202.927 167.981C197.725 169.909 186.258 174.869 177.042 178.856C172.663 180.75 168.792 182.424 166.343 183.449C165.987 183.598 165.576 183.43 165.427 183.074C165.278 182.717 165.446 182.307 165.803 182.158C168.215 181.148 172.053 179.488 176.409 177.604C185.644 173.61 197.204 168.609 202.441 166.668C202.803 166.533 203.206 166.718 203.34 167.081Z" fill="black"/>
<path fill-rule="evenodd" clip-rule="evenodd" d="M174.026 157.553C174.161 157.915 173.976 158.318 173.613 158.452C167.063 160.88 148.542 168.658 138.546 172.855C136.833 173.575 135.37 174.189 134.261 174.653C133.904 174.802 133.494 174.634 133.345 174.278C133.196 173.921 133.364 173.511 133.72 173.362C134.824 172.9 136.281 172.288 137.99 171.571C147.976 167.377 166.544 159.58 173.127 157.14C173.489 157.005 173.892 157.19 174.026 157.553Z" fill="black"/>
<path fill-rule="evenodd" clip-rule="evenodd" d="M187.372 162.662C187.519 163.02 187.347 163.429 186.99 163.575C181.898 165.658 174.152 169.06 167.007 172.199C161.541 174.6 156.427 176.846 153.12 178.23C152.763 178.379 152.353 178.211 152.204 177.855C152.055 177.498 152.223 177.088 152.58 176.939C155.818 175.583 160.914 173.345 166.378 170.946C173.564 167.79 181.387 164.354 186.46 162.279C186.817 162.133 187.226 162.304 187.372 162.662Z" fill="black"/>
<path fill-rule="evenodd" clip-rule="evenodd" d="M181.613 175.657C181.966 175.81 182.173 176.232 182.077 176.604C180.231 183.73 177.939 191.729 175.671 199.639L175.596 199.901C175.57 199.991 175.544 200.081 175.518 200.171L169.393 222.181C169.29 222.55 168.923 222.724 168.57 222.572C168.217 222.419 168.01 221.996 168.106 221.624C169.831 214.966 172.021 207.324 174.237 199.597L180.79 176.048C180.893 175.679 181.26 175.504 181.613 175.657ZM173.552 179.107C173.905 179.26 174.111 179.683 174.015 180.054C172.975 184.071 172.054 187.195 171.144 190.282L171.126 190.344C171.12 190.364 171.114 190.385 171.107 190.406L168.324 200.314C168.221 200.683 167.853 200.856 167.501 200.703C167.148 200.55 166.942 200.128 167.038 199.756C168.035 195.904 168.93 192.867 169.827 189.826L172.729 179.496C172.832 179.128 173.2 178.954 173.552 179.107Z" fill="black"/>
<path fill-rule="evenodd" clip-rule="evenodd" d="M201.91 167.131C202.266 167.281 202.477 167.706 202.38 168.081L190.69 213.217C190.593 213.591 190.226 213.772 189.87 213.622C189.514 213.472 189.303 213.047 189.4 212.672L201.09 167.537C201.187 167.162 201.554 166.981 201.91 167.131ZM194.12 171.216C194.476 171.366 194.687 171.791 194.59 172.166L183.252 215.941C183.156 216.316 182.788 216.497 182.432 216.347C182.076 216.197 181.866 215.772 181.963 215.397L193.3 171.622C193.397 171.247 193.764 171.066 194.12 171.216ZM187.47 173.974C187.826 174.124 188.037 174.549 187.94 174.924L176.522 219.183C176.426 219.557 176.059 219.739 175.702 219.589C175.346 219.44 175.136 219.014 175.232 218.64L186.65 174.381C186.747 174.006 187.114 173.824 187.47 173.974ZM201.922 190.836C202.277 190.993 202.48 191.422 202.376 191.793L197.231 210.212C197.127 210.583 196.756 210.756 196.401 210.599C196.047 210.442 195.844 210.013 195.948 209.642L201.093 191.223C201.197 190.852 201.568 190.678 201.922 190.836Z" fill="black"/>
<path d="M157.324 93.3271C155.842 99.0431 150.893 106.344 146.11 106.663C135.811 107.349 135.502 100.013 135.502 93.9332C136.137 88.2172 141.316 81.2036 146.11 81.2036C152.778 81.2036 158.595 84.2237 157.324 93.3271Z" fill="white"/>
<path fill-rule="evenodd" clip-rule="evenodd" d="M149.977 87.5553C150.98 87.6761 151.939 88.3846 152.757 89.6278C152.969 89.9508 152.88 90.3849 152.557 90.5973C152.234 90.8098 151.8 90.7202 151.587 90.3972C150.892 89.34 150.247 88.9979 149.81 88.9452C149.396 88.8954 148.989 89.0841 148.674 89.526C148.034 90.4252 147.925 92.2585 149.512 93.779C151.48 95.6636 152.019 98.4008 150.888 100.072C150.295 100.95 149.294 101.426 148.047 101.303C146.839 101.183 145.424 100.51 143.844 99.193C143.547 98.9455 143.507 98.5041 143.754 98.2071C144.002 97.9101 144.443 97.87 144.74 98.1175C146.21 99.3423 147.366 99.8284 148.185 99.9093C148.965 99.9864 149.447 99.7038 149.729 99.2877C150.348 98.3714 150.205 96.3812 148.544 94.7901C146.503 92.8348 146.452 90.2316 147.534 88.7136C148.081 87.9468 148.951 87.4317 149.977 87.5553Z" fill="black"/>
<path fill-rule="evenodd" clip-rule="evenodd" d="M151.343 86.288C151.715 86.3915 151.933 86.7774 151.83 87.1499C150.552 91.749 148.766 97.106 146.964 102.01C146.83 102.373 146.428 102.559 146.065 102.426C145.702 102.292 145.516 101.89 145.65 101.527C147.444 96.6467 149.217 91.3273 150.481 86.7752C150.584 86.4027 150.97 86.1846 151.343 86.288Z" fill="black"/>
<path fill-rule="evenodd" clip-rule="evenodd" d="M141.009 82.8591C141.112 82.4863 141.497 82.268 141.869 82.3715L146.55 83.6717C146.922 83.7751 147.141 84.1612 147.039 84.534C146.936 84.9067 146.551 85.125 146.179 85.0216L141.498 83.7214C141.126 83.6179 140.907 83.2319 141.009 82.8591ZM143.345 81.5773C143.437 81.2018 143.816 80.9731 144.191 81.0664C145.223 81.3231 145.786 81.4843 146.332 81.6413L146.352 81.647C146.884 81.7999 147.404 81.9493 148.354 82.1854C148.729 82.2787 148.958 82.6587 148.866 83.0341C148.774 83.4096 148.395 83.6383 148.02 83.545C147.046 83.3028 146.507 83.1481 145.968 82.9932L145.95 82.9878C145.411 82.8332 144.866 82.677 143.857 82.426C143.482 82.3327 143.253 81.9527 143.345 81.5773Z" fill="black"/>
<path fill-rule="evenodd" clip-rule="evenodd" d="M136.648 88.2853C136.753 87.9133 137.139 87.6979 137.511 87.8041L141.754 89.0164C142.126 89.1226 142.342 89.5103 142.237 89.8823C142.132 90.2543 141.745 90.4697 141.374 90.3635L137.131 89.1512C136.759 89.045 136.543 88.6573 136.648 88.2853ZM137.874 86.1205C138.003 85.7561 138.403 85.5662 138.767 85.6963L143.01 87.2118C143.374 87.3418 143.565 87.7426 143.436 88.107C143.307 88.4713 142.907 88.6612 142.543 88.5311L138.3 87.0157C137.936 86.8856 137.745 86.4848 137.874 86.1205ZM139.384 84.3161C139.506 83.949 139.901 83.7506 140.268 83.8729L144.814 85.3884C145.181 85.5107 145.38 85.9073 145.259 86.2744C145.138 86.6414 144.742 86.8398 144.375 86.7175L139.829 85.202C139.462 85.0797 139.263 84.6831 139.384 84.3161Z" fill="black"/>
<path fill-rule="evenodd" clip-rule="evenodd" d="M134.829 92.8315C134.934 92.4596 135.321 92.2441 135.693 92.3503L139.936 93.5627C140.308 93.6689 140.524 94.0565 140.419 94.4285C140.314 94.8005 139.927 95.016 139.555 94.9098L135.312 93.6974C134.94 93.5912 134.724 93.2035 134.829 92.8315ZM135.739 90.407C135.844 90.035 136.23 89.8195 136.602 89.9257L140.845 91.1379C141.217 91.2441 141.433 91.6318 141.328 92.0038C141.223 92.3758 140.836 92.5912 140.464 92.485L136.221 91.2728C135.85 91.1666 135.633 90.779 135.739 90.407ZM134.526 96.1656C134.631 95.7936 135.018 95.5781 135.39 95.6843L139.633 96.8967C140.005 97.0029 140.221 97.3906 140.116 97.7626C140.01 98.1346 139.624 98.35 139.252 98.2438L135.009 97.0314C134.637 96.9252 134.421 96.5375 134.526 96.1656Z" fill="black"/>
<path fill-rule="evenodd" clip-rule="evenodd" d="M134.821 99.2311C134.906 98.8541 135.281 98.619 135.658 98.7059L139.598 99.6152C139.975 99.7021 140.211 100.078 140.125 100.455C140.039 100.832 139.664 101.067 139.287 100.98L135.347 100.071C134.97 99.9841 134.735 99.6081 134.821 99.2311ZM136.036 101.947C136.128 101.571 136.508 101.343 136.883 101.437L140.52 102.346C140.895 102.44 141.124 102.82 141.031 103.195C140.938 103.571 140.559 103.799 140.184 103.705L136.547 102.796C136.172 102.702 135.943 102.322 136.036 101.947Z" fill="black"/>
<path fill-rule="evenodd" clip-rule="evenodd" d="M144.385 87.1656C142.304 89.6441 140.78 92.8184 140.44 95.5356C139.84 100.337 140.482 103.681 142.363 105.562C142.391 105.591 142.418 105.622 142.441 105.655C142.639 105.938 142.975 106.158 143.463 106.296C143.951 106.433 144.543 106.473 145.165 106.428C145.784 106.383 146.404 106.256 146.934 106.083C147.477 105.906 147.874 105.697 148.087 105.52C148.137 105.478 148.194 105.443 148.254 105.416C150.2 104.56 151.98 102.762 153.396 100.464C154.807 98.1751 155.818 95.4509 156.258 92.8359C156.7 90.2076 156.553 87.77 155.744 86.007C154.96 84.2993 153.543 83.1845 151.242 83.1158C149 83.0489 146.487 84.6625 144.385 87.1656ZM143.313 86.2653C145.506 83.6535 148.392 81.6301 151.284 81.7164C154.139 81.8016 156.019 83.2522 157.016 85.4227C157.988 87.538 158.106 90.2915 157.638 93.0683C157.169 95.8583 156.095 98.7534 154.588 101.199C153.105 103.605 151.164 105.636 148.903 106.659C148.502 106.969 147.952 107.223 147.369 107.414C146.732 107.622 146.001 107.771 145.266 107.824C144.535 107.877 143.771 107.837 143.083 107.643C142.413 107.454 141.77 107.105 141.332 106.51C139.003 104.143 138.442 100.231 139.051 95.3619C139.431 92.3203 141.099 88.9017 143.313 86.2653Z" fill="black"/>
<path fill-rule="evenodd" clip-rule="evenodd" d="M139.937 85.6248C137.923 87.9111 136.482 90.8507 136.198 93.4044C136.194 93.4405 136.187 93.4762 136.178 93.5113C135.757 95.0519 135.751 96.9849 136.113 98.7969C136.478 100.62 137.194 102.212 138.119 103.137C138.148 103.166 138.174 103.197 138.197 103.231C138.737 104.002 139.678 104.694 140.871 105.276C142.052 105.853 143.422 106.291 144.747 106.586C145.124 106.67 145.362 107.044 145.278 107.421C145.194 107.798 144.82 108.036 144.443 107.952C143.04 107.641 141.56 107.17 140.257 106.534C138.985 105.914 137.822 105.107 137.086 104.084C135.913 102.885 135.129 101.013 134.74 99.0715C134.349 97.1143 134.338 94.9785 134.813 93.1957C135.149 90.3083 136.742 87.134 138.886 84.6994C141.031 82.265 143.866 80.4183 146.737 80.504C148.528 80.5574 150.052 81.0681 152.38 81.8478C152.58 81.9149 152.787 81.984 153 82.055C153.366 82.1773 153.565 82.5737 153.442 82.9404C153.32 83.3072 152.924 83.5054 152.557 83.3832C152.368 83.3203 152.186 83.2594 152.01 83.2005C149.596 82.3934 148.271 81.9504 146.696 81.9033C144.433 81.8358 141.964 83.323 139.937 85.6248Z" fill="black"/>
<path d="M193.724 112.927C192.242 118.643 187.293 125.944 182.51 126.263C172.211 126.949 171.902 119.613 171.902 113.533C172.537 107.817 177.716 100.804 182.51 100.804C189.178 100.804 194.995 103.824 193.724 112.927Z" fill="white"/>
<path fill-rule="evenodd" clip-rule="evenodd" d="M186.377 107.155C187.38 107.276 188.339 107.985 189.157 109.228C189.369 109.551 189.28 109.985 188.957 110.197C188.634 110.41 188.2 110.32 187.987 109.997C187.292 108.94 186.647 108.598 186.21 108.545C185.796 108.495 185.389 108.684 185.074 109.126C184.433 110.025 184.325 111.858 185.912 113.379C187.88 115.264 188.418 118.001 187.288 119.672C186.695 120.55 185.694 121.026 184.447 120.903C183.239 120.783 181.824 120.11 180.244 118.793C179.947 118.545 179.906 118.104 180.154 117.807C180.401 117.51 180.843 117.47 181.14 117.717C182.61 118.942 183.766 119.428 184.585 119.509C185.365 119.586 185.847 119.304 186.129 118.888C186.748 117.971 186.605 115.981 184.944 114.39C182.902 112.435 182.852 109.832 183.934 108.314C184.481 107.547 185.351 107.032 186.377 107.155Z" fill="black"/>
<path fill-rule="evenodd" clip-rule="evenodd" d="M187.743 105.888C188.115 105.991 188.333 106.377 188.23 106.75C186.952 111.349 185.166 116.706 183.364 121.61C183.23 121.973 182.828 122.159 182.465 122.026C182.102 121.892 181.916 121.49 182.05 121.127C183.844 116.247 185.616 110.927 186.881 106.375C186.984 106.003 187.37 105.785 187.743 105.888Z" fill="black"/>
<path fill-rule="evenodd" clip-rule="evenodd" d="M177.409 102.459C177.511 102.086 177.896 101.868 178.269 101.971L182.95 103.272C183.322 103.375 183.541 103.761 183.439 104.134C183.336 104.507 182.951 104.725 182.579 104.622L177.898 103.321C177.526 103.218 177.307 102.832 177.409 102.459ZM179.745 101.177C179.837 100.802 180.216 100.573 180.591 100.666C181.623 100.923 182.186 101.084 182.732 101.241L182.752 101.247C183.284 101.4 183.804 101.549 184.753 101.785C185.129 101.879 185.358 102.259 185.266 102.634C185.174 103.01 184.795 103.238 184.419 103.145C183.446 102.903 182.907 102.748 182.368 102.593L182.349 102.588C181.811 102.433 181.266 102.277 180.257 102.026C179.882 101.933 179.652 101.553 179.745 101.177Z" fill="black"/>
<path fill-rule="evenodd" clip-rule="evenodd" d="M173.048 107.885C173.153 107.513 173.539 107.298 173.911 107.404L178.154 108.616C178.526 108.723 178.742 109.11 178.637 109.482C178.532 109.854 178.145 110.07 177.774 109.963L173.53 108.751C173.159 108.645 172.943 108.257 173.048 107.885ZM174.274 105.72C174.403 105.356 174.802 105.166 175.167 105.296L179.41 106.812C179.774 106.942 179.965 107.343 179.836 107.707C179.707 108.071 179.307 108.261 178.943 108.131L174.7 106.616C174.335 106.486 174.145 106.085 174.274 105.72ZM175.784 103.916C175.905 103.549 176.301 103.351 176.668 103.473L181.214 104.988C181.581 105.111 181.78 105.507 181.659 105.874C181.538 106.241 181.142 106.44 180.775 106.317L176.229 104.802C175.862 104.68 175.663 104.283 175.784 103.916Z" fill="black"/>
<path fill-rule="evenodd" clip-rule="evenodd" d="M171.229 112.432C171.334 112.06 171.721 111.844 172.093 111.95L176.336 113.163C176.708 113.269 176.924 113.657 176.819 114.029C176.714 114.401 176.327 114.616 175.955 114.51L171.712 113.298C171.34 113.191 171.124 112.804 171.229 112.432ZM172.138 110.007C172.244 109.635 172.63 109.42 173.002 109.526L177.245 110.738C177.617 110.844 177.833 111.232 177.728 111.604C177.623 111.976 177.236 112.191 176.864 112.085L172.621 110.873C172.249 110.767 172.033 110.379 172.138 110.007ZM170.926 115.766C171.031 115.394 171.418 115.178 171.79 115.284L176.033 116.497C176.404 116.603 176.621 116.991 176.516 117.363C176.41 117.735 176.024 117.95 175.652 117.844L171.409 116.632C171.037 116.525 170.821 116.138 170.926 115.766Z" fill="black"/>
<path fill-rule="evenodd" clip-rule="evenodd" d="M171.22 118.831C171.306 118.454 171.681 118.219 172.058 118.306L175.998 119.215C176.375 119.302 176.61 119.678 176.525 120.055C176.439 120.432 176.064 120.667 175.687 120.58L171.747 119.671C171.37 119.584 171.135 119.208 171.22 118.831ZM172.436 121.547C172.528 121.171 172.907 120.943 173.283 121.037L176.92 121.946C177.295 122.04 177.524 122.42 177.431 122.795C177.338 123.171 176.959 123.399 176.584 123.305L172.947 122.396C172.572 122.302 172.343 121.922 172.436 121.547Z" fill="black"/>
<path fill-rule="evenodd" clip-rule="evenodd" d="M180.785 106.766C178.704 109.244 177.18 112.418 176.84 115.136C176.24 119.937 176.882 123.281 178.763 125.162C178.791 125.191 178.818 125.222 178.841 125.255C179.039 125.538 179.375 125.758 179.863 125.896C180.351 126.033 180.943 126.073 181.565 126.028C182.184 125.983 182.803 125.856 183.334 125.683C183.877 125.506 184.274 125.297 184.487 125.12C184.537 125.078 184.593 125.043 184.654 125.016C186.599 124.16 188.38 122.362 189.796 120.064C191.207 117.775 192.217 115.051 192.658 112.436C193.1 109.808 192.953 107.37 192.144 105.607C191.359 103.899 189.943 102.784 187.642 102.716C185.4 102.649 182.887 104.262 180.785 106.766ZM179.713 105.865C181.906 103.253 184.792 101.23 187.684 101.316C190.538 101.402 192.419 102.852 193.416 105.023C194.387 107.138 194.506 109.891 194.038 112.668C193.569 115.458 192.495 118.353 190.988 120.799C189.504 123.205 187.564 125.236 185.303 126.259C184.902 126.569 184.352 126.823 183.768 127.014C183.132 127.222 182.4 127.371 181.666 127.424C180.935 127.477 180.171 127.437 179.483 127.243C178.813 127.054 178.17 126.705 177.732 126.11C175.403 123.743 174.842 119.831 175.451 114.962C175.831 111.92 177.499 108.502 179.713 105.865Z" fill="black"/>
<path fill-rule="evenodd" clip-rule="evenodd" d="M176.337 105.225C174.323 107.511 172.882 110.451 172.598 113.004C172.594 113.04 172.587 113.076 172.577 113.111C172.157 114.652 172.15 116.585 172.513 118.397C172.878 120.22 173.594 121.812 174.519 122.737C174.548 122.766 174.574 122.797 174.597 122.831C175.137 123.602 176.078 124.294 177.271 124.876C178.452 125.452 179.822 125.891 181.147 126.186C181.524 126.27 181.762 126.643 181.678 127.021C181.594 127.398 181.22 127.636 180.843 127.552C179.439 127.241 177.96 126.77 176.657 126.134C175.385 125.514 174.222 124.707 173.486 123.684C172.313 122.485 171.528 120.613 171.14 118.671C170.749 116.714 170.738 114.579 171.213 112.796C171.549 109.908 173.141 106.734 175.286 104.299C177.431 101.865 180.266 100.018 183.137 100.104C184.928 100.157 186.452 100.668 188.78 101.448C188.98 101.515 189.187 101.584 189.399 101.655C189.766 101.777 189.964 102.174 189.842 102.54C189.72 102.907 189.324 103.105 188.957 102.983C188.768 102.92 188.586 102.859 188.41 102.8C185.996 101.993 184.671 101.55 183.096 101.503C180.833 101.436 178.364 102.923 176.337 105.225Z" fill="black"/>
<path d="M190.924 52.7271C189.442 58.4431 184.493 65.7442 179.71 66.0629C169.411 66.749 169.102 59.4132 169.102 53.3333C169.737 47.6172 174.916 40.6036 179.71 40.6036C186.378 40.6036 192.195 43.6238 190.924 52.7271Z" fill="white"/>
<path fill-rule="evenodd" clip-rule="evenodd" d="M183.577 46.9553C184.58 47.0761 185.539 47.7846 186.357 49.0279C186.569 49.3508 186.48 49.7849 186.157 49.9974C185.834 50.2098 185.4 50.1202 185.187 49.7973C184.492 48.7401 183.847 48.3979 183.41 48.3453C182.996 48.2954 182.589 48.4841 182.274 48.9261C181.633 49.8253 181.525 51.6585 183.112 53.1791C185.079 55.0637 185.618 57.8008 184.488 59.472C183.895 60.3496 182.894 60.8257 181.647 60.7026C180.439 60.5833 179.024 59.9102 177.444 58.593C177.147 58.3455 177.106 57.9042 177.354 57.6072C177.601 57.3102 178.043 57.27 178.34 57.5175C179.81 58.7424 180.966 59.2285 181.785 59.3094C182.565 59.3864 183.047 59.1038 183.328 58.6877C183.948 57.7715 183.805 55.7813 182.144 54.1901C180.102 52.2348 180.052 49.6317 181.134 48.1136C181.68 47.3469 182.551 46.8317 183.577 46.9553Z" fill="black"/>
<path fill-rule="evenodd" clip-rule="evenodd" d="M184.943 45.6881C185.315 45.7915 185.533 46.1774 185.43 46.5499C184.152 51.149 182.366 56.506 180.564 61.4103C180.43 61.7731 180.028 61.9592 179.665 61.8258C179.302 61.6924 179.116 61.2901 179.249 60.9273C181.044 56.0468 182.816 50.7273 184.081 46.1752C184.184 45.8027 184.57 45.5846 184.943 45.6881Z" fill="black"/>
<path fill-rule="evenodd" clip-rule="evenodd" d="M174.609 42.2591C174.711 41.8864 175.096 41.6681 175.469 41.7715L180.149 43.0717C180.522 43.1752 180.741 43.5612 180.639 43.934C180.536 44.3068 180.151 44.5251 179.779 44.4216L175.098 43.1214C174.726 43.018 174.507 42.6319 174.609 42.2591ZM176.945 40.9773C177.037 40.6019 177.416 40.3731 177.791 40.4665C178.823 40.7231 179.386 40.8843 179.932 41.0413L179.952 41.047C180.484 41.1999 181.004 41.3493 181.953 41.5854C182.329 41.6787 182.558 42.0587 182.466 42.4342C182.373 42.8096 181.995 43.0383 181.619 42.945C180.646 42.7028 180.107 42.5481 179.568 42.3932L179.549 42.3878C179.011 42.2332 178.466 42.077 177.457 41.826C177.082 41.7327 176.852 41.3527 176.945 40.9773Z" fill="black"/>
<path fill-rule="evenodd" clip-rule="evenodd" d="M170.248 47.6853C170.353 47.3133 170.739 47.0979 171.111 47.2041L175.354 48.4164C175.726 48.5227 175.942 48.9103 175.837 49.2823C175.732 49.6543 175.345 49.8698 174.974 49.7635L170.73 48.5512C170.359 48.445 170.142 48.0573 170.248 47.6853ZM171.474 45.5205C171.603 45.1562 172.002 44.9663 172.367 45.0963L176.61 46.6118C176.974 46.7418 177.165 47.1426 177.036 47.507C176.907 47.8713 176.507 48.0612 176.143 47.9312L171.9 46.4157C171.535 46.2856 171.345 45.8848 171.474 45.5205ZM172.984 43.7161C173.105 43.3491 173.501 43.1507 173.868 43.2729L178.414 44.7884C178.781 44.9107 178.98 45.3074 178.859 45.6744C178.738 46.0414 178.342 46.2398 177.975 46.1175L173.429 44.6021C173.062 44.4798 172.863 44.0831 172.984 43.7161Z" fill="black"/>
<path fill-rule="evenodd" clip-rule="evenodd" d="M168.429 52.2317C168.534 51.8597 168.921 51.6442 169.293 51.7505L173.536 52.9628C173.908 53.069 174.124 53.4567 174.019 53.8287C173.914 54.2007 173.527 54.4161 173.155 54.3099L168.912 53.0976C168.54 52.9913 168.324 52.6037 168.429 52.2317ZM169.338 49.8071C169.443 49.4351 169.83 49.2197 170.202 49.3259L174.445 50.5381C174.817 50.6443 175.033 51.0319 174.928 51.4039C174.823 51.7759 174.436 51.9914 174.064 51.8852L169.821 50.673C169.449 50.5668 169.233 50.1791 169.338 49.8071ZM168.126 55.5657C168.231 55.1937 168.618 54.9783 168.99 55.0845L173.233 56.2969C173.604 56.4031 173.821 56.7908 173.715 57.1627C173.61 57.5347 173.224 57.7502 172.852 57.644L168.609 56.4316C168.237 56.3254 168.021 55.9377 168.126 55.5657Z" fill="black"/>
<path fill-rule="evenodd" clip-rule="evenodd" d="M168.42 58.6311C168.506 58.2542 168.881 58.019 169.258 58.106L173.198 59.0152C173.575 59.1021 173.81 59.4782 173.725 59.8552C173.639 60.2321 173.264 60.4673 172.887 60.3803L168.947 59.4711C168.57 59.3841 168.335 59.0081 168.42 58.6311ZM169.636 61.3467C169.728 60.9714 170.107 60.7431 170.482 60.8369L174.12 61.746C174.495 61.8398 174.723 62.2201 174.631 62.5954C174.538 62.9707 174.159 63.199 173.784 63.1052L170.147 62.1961C169.772 62.1023 169.543 61.722 169.636 61.3467Z" fill="black"/>
<path fill-rule="evenodd" clip-rule="evenodd" d="M177.985 46.5656C175.904 49.0441 174.38 52.2185 174.04 54.9356C173.44 59.7368 174.082 63.0814 175.963 64.9618C175.991 64.9906 176.018 65.0219 176.041 65.0553C176.239 65.3376 176.575 65.558 177.063 65.6956C177.551 65.8332 178.142 65.8732 178.765 65.828C179.384 65.7831 180.003 65.6562 180.534 65.483C181.077 65.3058 181.474 65.0973 181.687 64.9198C181.737 64.8776 181.793 64.8427 181.854 64.8161C183.799 63.9603 185.58 62.1618 186.996 59.8642C188.407 57.5751 189.417 54.851 189.858 52.2359C190.3 49.6076 190.153 47.17 189.344 45.407C188.559 43.6993 187.143 42.5845 184.842 42.5158C182.6 42.4489 180.087 44.0625 177.985 46.5656ZM176.913 45.6653C179.106 43.0535 181.992 41.0301 184.884 41.1164C187.738 41.2016 189.619 42.6522 190.616 44.8228C191.587 46.938 191.706 49.6915 191.238 52.4683C190.769 55.2584 189.695 58.1534 188.188 60.5988C186.704 63.0055 184.764 65.036 182.503 66.0595C182.102 66.3688 181.552 66.6234 180.968 66.8139C180.332 67.0217 179.6 67.1711 178.866 67.2244C178.135 67.2774 177.371 67.2372 176.683 67.043C176.013 66.8541 175.37 66.5055 174.932 65.9105C172.603 63.5433 172.042 59.6312 172.651 54.7619C173.031 51.7204 174.699 48.3018 176.913 45.6653Z" fill="black"/>
<path fill-rule="evenodd" clip-rule="evenodd" d="M173.537 45.0248C171.523 47.3111 170.082 50.2507 169.798 52.8044C169.794 52.8405 169.787 52.8763 169.777 52.9113C169.357 54.4519 169.35 56.3849 169.713 58.1969C170.077 60.0201 170.794 61.6119 171.719 62.5371C171.748 62.5659 171.774 62.5972 171.797 62.6306C172.337 63.4016 173.278 64.0944 174.471 64.6761C175.652 65.2525 177.022 65.6915 178.347 65.9858C178.724 66.0696 178.962 66.4435 178.878 66.8209C178.794 67.1983 178.42 67.4363 178.043 67.3524C176.639 67.0405 175.16 66.5702 173.857 65.9343C172.585 65.3138 171.422 64.5074 170.686 63.4837C169.513 62.2851 168.728 60.4133 168.34 58.4715C167.949 56.5143 167.938 54.3786 168.413 52.5957C168.749 49.7084 170.341 46.5341 172.486 44.0994C174.631 41.665 177.466 39.8183 180.337 39.904C182.128 39.9574 183.652 40.4682 185.98 41.2478C186.18 41.3149 186.387 41.384 186.599 41.455C186.966 41.5773 187.164 41.9737 187.042 42.3405C186.92 42.7072 186.523 42.9054 186.157 42.7832C185.968 42.7204 185.786 42.6595 185.61 42.6005C183.196 41.7934 181.87 41.3504 180.295 41.3034C178.033 41.2358 175.564 42.723 173.537 45.0248Z" fill="black"/>
<path fill-rule="evenodd" clip-rule="evenodd" d="M144.9 21.4006C145.287 21.4006 145.6 21.714 145.6 22.1006L145.6 61.9729C145.6 62.3595 145.287 62.6729 144.9 62.6729C144.513 62.6729 144.2 62.3595 144.2 61.9729L144.2 22.1006C144.2 21.714 144.513 21.4006 144.9 21.4006ZM144.9 115.458C145.287 115.458 145.6 115.772 145.6 116.158L145.6 140.4C145.6 140.787 145.287 141.1 144.9 141.1C144.513 141.1 144.2 140.787 144.2 140.4L144.2 116.158C144.2 115.772 144.513 115.458 144.9 115.458ZM144.9 160.442C145.287 160.442 145.6 160.756 145.6 161.142L145.6 176.1C145.6 176.487 145.287 176.8 144.9 176.8C144.513 176.8 144.2 176.487 144.2 176.1L144.2 161.142C144.2 160.756 144.513 160.442 144.9 160.442Z" fill="black"/>
<path fill-rule="evenodd" clip-rule="evenodd" d="M163.1 21.4006C163.486 21.4006 163.8 21.714 163.8 22.1006L163.8 52.6633C163.8 53.0499 163.487 53.3633 163.1 53.3633C162.713 53.3633 162.4 53.0499 162.4 52.6633L162.4 22.1006C162.4 21.714 162.713 21.4006 163.1 21.4006ZM163.1 74.8852C163.487 74.8852 163.8 75.1987 163.8 75.5852L163.8 97.4157C163.8 97.8023 163.487 98.1157 163.1 98.1157C162.713 98.1157 162.4 97.8023 162.4 97.4157L162.4 75.5852C162.4 75.1987 162.713 74.8852 163.1 74.8852ZM163.1 125.095C163.487 125.095 163.8 125.409 163.8 125.795L163.8 150.9C163.8 151.287 163.487 151.6 163.1 151.6C162.713 151.6 162.4 151.287 162.4 150.9L162.4 125.795C162.4 125.409 162.713 125.095 163.1 125.095Z" fill="black"/>
<path fill-rule="evenodd" clip-rule="evenodd" d="M178.506 7.40072C178.893 7.4042 179.203 7.72041 179.2 8.10699L178.936 37.4062C178.932 37.7927 178.616 38.1033 178.23 38.0998C177.843 38.0963 177.532 37.7801 177.536 37.3936L177.8 8.09438C177.803 7.7078 178.12 7.39723 178.506 7.40072ZM177.945 69.6615C178.332 69.6649 178.642 69.9812 178.639 70.3677L178.408 96.0045C178.404 96.3911 178.088 96.7017 177.702 96.6982C177.315 96.6947 177.004 96.3785 177.008 95.9919L177.239 70.3551C177.242 69.9685 177.559 69.658 177.945 69.6615ZM177.378 131.922C177.765 131.922 178.078 132.236 178.078 132.622L178.078 160C178.078 160.387 177.765 160.7 177.378 160.7C176.991 160.7 176.678 160.387 176.678 160L176.678 132.622C176.678 132.236 176.991 131.922 177.378 131.922Z" fill="black"/>
<path d="M376.833 27.7006V4.36731L417.899 9.9673V33.3006L376.833 27.7006Z" fill="white"/>
<path fill-rule="evenodd" clip-rule="evenodd" d="M376.109 0.817627C376.496 0.817627 376.809 1.13103 376.809 1.51763V78.1004C376.809 78.487 376.496 78.8004 376.109 78.8004C375.722 78.8004 375.409 78.487 375.409 78.1004V1.51763C375.409 1.13103 375.722 0.817627 376.109 0.817627Z" fill="black"/>
<path fill-rule="evenodd" clip-rule="evenodd" d="M373.099 0C373.486 0 373.799 0.3134 373.799 0.699998V79.5004C373.799 79.887 373.486 80.2004 373.099 80.2004C372.713 80.2004 372.399 79.887 372.399 79.5004V0.699998C372.399 0.3134 372.713 0 373.099 0Z" fill="black"/>
<path fill-rule="evenodd" clip-rule="evenodd" d="M372.408 1.40574C372.47 1.0241 372.829 0.764748 373.211 0.826465C376.874 1.41887 385.844 2.43835 395.358 3.51706L395.756 3.56212C405.134 4.62534 414.96 5.73939 420.616 6.54733C420.999 6.60201 421.264 6.95658 421.21 7.33929C421.155 7.722 420.801 7.98793 420.418 7.93326C414.783 7.12823 404.97 6.01577 395.575 4.95059L395.2 4.90815C385.71 3.83214 376.693 2.80777 372.988 2.20851C372.606 2.14679 372.347 1.78738 372.408 1.40574Z" fill="black"/>
<path fill-rule="evenodd" clip-rule="evenodd" d="M375.675 24.3232C375.722 23.9395 376.071 23.6665 376.455 23.7135C386.46 24.9387 397.412 26.4715 407.878 27.9364C411.437 28.4346 414.94 28.9248 418.331 29.3925C418.713 29.4453 418.981 29.7986 418.928 30.1815C418.875 30.5645 418.522 30.8322 418.139 30.7793C414.742 30.3108 411.235 29.82 407.674 29.3215C397.211 27.857 386.277 26.3267 376.284 25.1031C375.901 25.0561 375.628 24.707 375.675 24.3232Z" fill="black"/>
<path fill-rule="evenodd" clip-rule="evenodd" d="M417.246 4.90491C417.633 4.9049 417.946 5.2183 417.946 5.6049C417.947 16.233 417.946 25.226 417.946 30.4451C417.946 30.8317 417.633 31.1451 417.246 31.1451C416.86 31.145 416.546 30.8316 416.546 30.445C416.546 25.226 416.547 16.233 416.546 5.60491C416.546 5.21831 416.86 4.90491 417.246 4.90491Z" fill="black"/>
<path d="M346.462 203.811V190.576L366.836 183.655L410.971 182.997L422.084 192.71V206.586L405.433 215.605H363.113L346.462 203.811Z" fill="white"/>
<path fill-rule="evenodd" clip-rule="evenodd" d="M341.757 199.821C342.001 199.521 342.442 199.477 342.742 199.721C346.939 203.147 350.087 205.812 353.006 208.284L353.007 208.284C355.927 210.756 358.616 213.033 361.903 215.689C362.204 215.932 362.251 216.373 362.008 216.673C361.765 216.974 361.324 217.021 361.023 216.778C357.723 214.111 355.023 211.825 352.105 209.355L352.103 209.353C349.183 206.882 346.043 204.223 341.856 200.806C341.557 200.561 341.512 200.12 341.757 199.821Z" fill="black"/>
<path fill-rule="evenodd" clip-rule="evenodd" d="M406.681 216.304C396.908 216.154 370.596 215.748 361.715 215.611C361.328 215.605 361.02 215.286 361.026 214.9C361.032 214.513 361.35 214.205 361.736 214.211C370.617 214.348 396.93 214.754 406.703 214.905C407.089 214.911 407.398 215.229 407.392 215.615C407.386 216.002 407.068 216.31 406.681 216.304Z" fill="black"/>
<path fill-rule="evenodd" clip-rule="evenodd" d="M346.668 186.597C347.054 186.597 347.368 186.911 347.368 187.297L347.368 207.973C347.368 208.36 347.054 208.673 346.668 208.673C346.281 208.673 345.968 208.36 345.968 207.973L345.968 187.297C345.968 186.911 346.281 186.597 346.668 186.597Z" fill="black"/>
<path fill-rule="evenodd" clip-rule="evenodd" d="M363.113 197.561C363.499 197.561 363.813 197.874 363.813 198.261V214.218C363.813 214.604 363.499 214.918 363.113 214.918C362.726 214.918 362.413 214.604 362.413 214.218V198.261C362.413 197.874 362.726 197.561 363.113 197.561Z" fill="black"/>
<path fill-rule="evenodd" clip-rule="evenodd" d="M405.433 196.866C405.82 196.866 406.133 197.179 406.133 197.566V216.992C406.133 217.378 405.82 217.692 405.433 217.692C405.047 217.692 404.733 217.378 404.733 216.992V197.566C404.733 197.179 405.047 196.866 405.433 196.866Z" fill="black"/>
<path fill-rule="evenodd" clip-rule="evenodd" d="M422.084 187.154C422.471 187.154 422.784 187.467 422.784 187.854V207.28C422.784 207.666 422.471 207.98 422.084 207.98C421.698 207.98 421.384 207.666 421.384 207.28V187.854C421.384 187.467 421.698 187.154 422.084 187.154Z" fill="black"/>
<path fill-rule="evenodd" clip-rule="evenodd" d="M344.904 188.706C345.114 188.381 345.547 188.287 345.872 188.496C352.046 192.464 354.381 193.94 357.225 195.737C358.856 196.767 360.653 197.902 363.436 199.673C363.762 199.881 363.859 200.313 363.651 200.639C363.443 200.966 363.011 201.062 362.685 200.854C359.909 199.088 358.113 197.953 356.483 196.923C353.635 195.124 351.292 193.644 345.115 189.673C344.79 189.464 344.695 189.031 344.904 188.706Z" fill="black"/>
<path fill-rule="evenodd" clip-rule="evenodd" d="M362.36 200.264C362.36 199.877 362.674 199.564 363.06 199.564C371.256 199.564 397.056 199.564 406.075 199.564C406.461 199.564 406.775 199.877 406.775 200.264C406.775 200.65 406.462 200.964 406.075 200.964C397.056 200.964 371.256 200.964 363.06 200.964C362.674 200.964 362.36 200.65 362.36 200.264Z" fill="black"/>
<path fill-rule="evenodd" clip-rule="evenodd" d="M406.414 179.886C406.643 179.575 407.081 179.507 407.392 179.736L406.978 180.3L406.564 180.865C406.253 180.636 406.185 180.198 406.414 179.886ZM406.978 180.3C406.564 180.865 406.564 180.865 406.564 180.865L407.09 181.25C407.429 181.498 407.919 181.857 408.524 182.3C409.734 183.186 411.406 184.409 413.253 185.757C416.946 188.451 421.341 191.647 424.139 193.646C424.453 193.871 424.89 193.798 425.115 193.483C425.34 193.169 425.267 192.731 424.952 192.507C422.161 190.513 417.772 187.321 414.078 184.626C412.232 183.278 410.561 182.056 409.351 181.17C408.746 180.727 408.256 180.369 407.918 180.121L407.392 179.736C407.392 179.736 407.392 179.736 406.978 180.3Z" fill="black"/>
<path fill-rule="evenodd" clip-rule="evenodd" d="M374.105 180.878C374.227 181.245 374.029 181.641 373.662 181.764C366.485 184.156 348.932 190.539 344.955 192.13C344.596 192.274 344.188 192.099 344.045 191.74C343.901 191.381 344.076 190.974 344.435 190.83C348.443 189.227 366.024 182.834 373.22 180.435C373.586 180.313 373.983 180.511 374.105 180.878Z" fill="black"/>
<path fill-rule="evenodd" clip-rule="evenodd" d="M392.318 183.27C383.416 183.333 374.469 183.396 365.456 183.396C365.069 183.396 364.756 183.082 364.756 182.696C364.756 182.309 365.069 181.996 365.456 181.996C374.463 181.996 383.405 181.933 392.308 181.87L392.435 181.869C401.295 181.807 410.116 181.745 418.919 181.745C419.305 181.745 419.619 182.059 419.619 182.445C419.619 182.832 419.305 183.145 418.919 183.145C410.121 183.145 401.304 183.207 392.443 183.269L392.318 183.27Z" fill="black"/>
<path fill-rule="evenodd" clip-rule="evenodd" d="M426.925 190.369C427.098 190.714 426.958 191.135 426.612 191.308C421.29 193.969 416.495 196.128 411.899 198.198C409.301 199.368 406.767 200.509 404.238 201.696C403.888 201.86 403.471 201.709 403.307 201.36C403.143 201.01 403.293 200.593 403.643 200.428C406.212 199.223 408.763 198.074 411.367 196.902C415.942 194.842 420.683 192.707 425.986 190.055C426.332 189.883 426.752 190.023 426.925 190.369ZM425.485 205.58C425.658 205.926 425.518 206.346 425.172 206.519L425.166 206.522C416.845 210.683 411.288 213.461 404.238 216.769C403.888 216.934 403.471 216.783 403.307 216.433C403.143 216.083 403.293 215.666 403.643 215.502C410.677 212.201 416.22 209.43 424.546 205.267C424.892 205.094 425.312 205.234 425.485 205.58Z" fill="black"/>
<path fill-rule="evenodd" clip-rule="evenodd" d="M352.21 192.732C352.581 192.841 352.793 193.231 352.684 193.601L349.214 205.396C349.105 205.767 348.716 205.979 348.345 205.87C347.975 205.761 347.762 205.372 347.871 205.001L351.341 193.206C351.45 192.836 351.839 192.623 352.21 192.732ZM357.043 195.501C357.418 195.598 357.643 195.979 357.547 196.354C356.993 198.502 356.2 200.717 355.425 202.883L355.418 202.9C354.64 205.074 353.879 207.198 353.358 209.222C353.261 209.596 352.879 209.821 352.505 209.725C352.131 209.629 351.905 209.247 352.002 208.872C352.54 206.786 353.318 204.611 354.088 202.463L354.107 202.411C354.887 200.232 355.656 198.079 356.191 196.004C356.287 195.63 356.669 195.405 357.043 195.501ZM361.937 198.981C362.306 199.098 362.509 199.491 362.392 199.86L358.138 213.252C358.021 213.62 357.627 213.824 357.259 213.707C356.89 213.59 356.687 213.196 356.804 212.828L361.058 199.436C361.175 199.067 361.569 198.864 361.937 198.981Z" fill="black"/>
<path fill-rule="evenodd" clip-rule="evenodd" d="M380.313 199.663C380.687 199.76 380.912 200.141 380.816 200.516C380.186 202.959 379.582 205.389 378.981 207.809L378.971 207.851C378.373 210.256 377.778 212.651 377.164 215.034C377.067 215.408 376.686 215.633 376.311 215.537C375.937 215.44 375.712 215.059 375.808 214.684C376.421 212.308 377.015 209.917 377.613 207.51L377.622 207.472C378.223 205.052 378.829 202.616 379.46 200.166C379.556 199.792 379.938 199.567 380.313 199.663ZM374.388 199.663C374.762 199.76 374.987 200.141 374.891 200.516C374.257 202.975 373.579 205.399 372.907 207.799L372.895 207.843C372.226 210.23 371.564 212.594 370.955 214.96C370.858 215.334 370.477 215.56 370.102 215.463C369.728 215.367 369.503 214.985 369.599 214.611C370.212 212.231 370.877 209.855 371.545 207.472L371.559 207.422C372.231 205.019 372.905 202.609 373.535 200.166C373.631 199.792 374.013 199.567 374.388 199.663ZM367.836 200.36C368.208 200.464 368.426 200.85 368.322 201.223L364.48 214.974C364.376 215.346 363.99 215.564 363.618 215.459C363.245 215.355 363.028 214.969 363.132 214.597L366.973 200.846C367.077 200.474 367.464 200.256 367.836 200.36Z" fill="black"/>
<path fill-rule="evenodd" clip-rule="evenodd" d="M397.394 200.363C397.769 200.46 397.994 200.841 397.898 201.216L394.317 215.11C394.22 215.485 393.839 215.71 393.464 215.613C393.09 215.517 392.865 215.135 392.961 214.761L396.542 200.866C396.638 200.492 397.02 200.267 397.394 200.363ZM391.15 200.363C391.525 200.46 391.75 200.841 391.653 201.216L388.073 215.11C387.976 215.484 387.595 215.71 387.22 215.613C386.846 215.517 386.621 215.135 386.717 214.761L390.298 200.866C390.394 200.492 390.776 200.267 391.15 200.363ZM385.6 200.338C385.974 200.435 386.2 200.817 386.103 201.191L382.523 215.085C382.426 215.46 382.044 215.685 381.67 215.588C381.296 215.492 381.07 215.11 381.167 214.736L384.747 200.842C384.844 200.467 385.226 200.242 385.6 200.338Z" fill="black"/>
<path fill-rule="evenodd" clip-rule="evenodd" d="M416.17 194.807C416.544 194.904 416.77 195.285 416.673 195.66L412.561 211.617C412.465 211.991 412.083 212.216 411.709 212.12C411.334 212.023 411.109 211.642 411.205 211.267L415.317 195.31C415.414 194.936 415.796 194.711 416.17 194.807ZM409.794 198.283C410.165 198.392 410.377 198.782 410.267 199.152L405.343 215.803C405.233 216.174 404.844 216.386 404.473 216.276C404.103 216.166 403.891 215.777 404.001 215.406L408.925 198.755C409.034 198.385 409.424 198.173 409.794 198.283ZM403.23 200.357C403.604 200.454 403.829 200.836 403.733 201.21L399.978 215.779C399.882 216.154 399.5 216.379 399.126 216.282C398.751 216.186 398.526 215.804 398.623 215.43L402.377 200.861C402.474 200.486 402.855 200.261 403.23 200.357Z" fill="black"/>
<path fill-rule="evenodd" clip-rule="evenodd" d="M421.719 192.033C422.094 192.13 422.318 192.512 422.221 192.886L417.905 209.537C417.808 209.911 417.426 210.136 417.052 210.039C416.678 209.942 416.453 209.56 416.55 209.185L420.866 192.535C420.963 192.16 421.345 191.936 421.719 192.033Z" fill="black"/>
<path fill-rule="evenodd" clip-rule="evenodd" d="M379.27 190.973H373.796L367.904 183.705L371.558 179.863V170.187H367.904L371.558 157.518H375.617L379.27 154.271V147.776L388.2 142.905L393.071 146.178V151.835L396.319 146.178L403.064 149.4L404.843 157.518L400.784 161.172V167.666H404.843L403.064 179.863L397.806 178.419L393.071 183.705L394.503 190.973L386.574 194.277L379.27 192.955V190.973ZM383.508 168.098L388.523 164.754L391.866 166.426L389.637 173.112L385.737 175.898L383.508 174.784V168.098Z" fill="white"/>
<path fill-rule="evenodd" clip-rule="evenodd" d="M367.285 169.574C367.405 169.207 367.801 169.007 368.168 169.127C368.767 169.324 369.368 169.448 370.037 169.575C372.022 169.953 374.01 170.284 376.008 170.617C376.932 170.77 377.858 170.925 378.787 171.084C379.168 171.149 379.424 171.511 379.359 171.892C379.293 172.273 378.931 172.529 378.55 172.464C377.636 172.307 376.718 172.154 375.797 172.001C373.792 171.667 371.777 171.331 369.776 170.95C369.102 170.822 368.423 170.684 367.732 170.457C367.364 170.337 367.164 169.941 367.285 169.574Z" fill="black"/>
<path fill-rule="evenodd" clip-rule="evenodd" d="M369.24 157.159C369.302 156.778 369.661 156.518 370.042 156.579C370.751 156.693 371.42 156.821 372.146 157.048C374.372 157.742 376.584 158.509 378.783 159.271C379.784 159.617 380.781 159.963 381.776 160.301C382.142 160.425 382.338 160.822 382.214 161.188C382.089 161.554 381.692 161.75 381.326 161.626C380.312 161.282 379.305 160.933 378.3 160.585C376.111 159.827 373.934 159.072 371.729 158.384C371.097 158.187 370.503 158.071 369.82 157.962C369.439 157.9 369.179 157.541 369.24 157.159Z" fill="black"/>
<path fill-rule="evenodd" clip-rule="evenodd" d="M378.003 147.236C378.124 146.869 378.52 146.669 378.887 146.79C381.196 147.55 383.558 148.135 385.942 148.725C386.936 148.971 387.934 149.218 388.933 149.48C389.307 149.577 389.531 149.96 389.433 150.334C389.336 150.708 388.953 150.932 388.579 150.834C387.618 150.583 386.642 150.341 385.66 150.098C383.254 149.502 380.811 148.897 378.449 148.119C378.082 147.999 377.882 147.603 378.003 147.236Z" fill="black"/>
<path fill-rule="evenodd" clip-rule="evenodd" d="M385.398 142.256C385.532 141.894 385.935 141.709 386.297 141.844C388.632 142.711 390.984 143.529 393.344 144.349C393.873 144.533 394.402 144.717 394.931 144.902C395.296 145.029 395.489 145.428 395.362 145.793C395.234 146.158 394.835 146.351 394.47 146.224C393.944 146.04 393.417 145.857 392.889 145.673C390.529 144.853 388.16 144.029 385.81 143.156C385.448 143.022 385.263 142.619 385.398 142.256Z" fill="black"/>
<path fill-rule="evenodd" clip-rule="evenodd" d="M395.191 146.211C395.28 145.835 395.658 145.603 396.034 145.693C397.888 146.134 399.725 146.758 401.517 147.366C402.206 147.6 402.889 147.831 403.563 148.05C403.931 148.169 404.133 148.563 404.014 148.931C403.895 149.299 403.5 149.501 403.132 149.382C402.416 149.15 401.708 148.91 401.005 148.671C399.237 148.071 397.496 147.48 395.709 147.055C395.333 146.965 395.101 146.588 395.191 146.211Z" fill="black"/>
<path fill-rule="evenodd" clip-rule="evenodd" d="M400.507 167.642C400.6 167.267 400.979 167.038 401.354 167.13C402.083 167.31 402.816 167.489 403.549 167.668C404.41 167.879 405.272 168.089 406.129 168.301C406.504 168.394 406.733 168.773 406.64 169.149C406.548 169.524 406.168 169.753 405.793 169.66C404.933 169.448 404.077 169.239 403.221 169.029C402.489 168.85 401.756 168.671 401.02 168.489C400.644 168.397 400.415 168.018 400.507 167.642Z" fill="black"/>
<path fill-rule="evenodd" clip-rule="evenodd" d="M397.352 178.371C397.439 177.995 397.815 177.76 398.192 177.847C399.417 178.13 400.643 178.451 401.856 178.769C402.414 178.915 402.97 179.061 403.522 179.202C403.896 179.297 404.123 179.679 404.027 180.053C403.931 180.428 403.55 180.654 403.176 180.558C402.605 180.413 402.039 180.264 401.476 180.117C400.273 179.801 399.082 179.489 397.877 179.211C397.5 179.124 397.265 178.748 397.352 178.371Z" fill="black"/>
<path fill-rule="evenodd" clip-rule="evenodd" d="M394.14 182.612C394.522 182.551 394.881 182.81 394.942 183.192C395.017 183.659 395.065 184.091 395.076 184.589C395.115 186.347 395.091 188.115 395.068 189.868C395.057 190.688 395.046 191.504 395.041 192.314C395.039 192.701 394.724 193.013 394.337 193.011C393.951 193.008 393.639 192.693 393.641 192.307C393.646 191.472 393.657 190.643 393.668 189.818C393.692 188.078 393.715 186.353 393.676 184.62C393.667 184.201 393.627 183.834 393.56 183.414C393.499 183.033 393.758 182.673 394.14 182.612Z" fill="black"/>
<path fill-rule="evenodd" clip-rule="evenodd" d="M386.54 187.019C386.925 186.989 387.262 187.277 387.292 187.662C387.414 189.213 387.448 190.803 387.481 192.369C387.502 193.345 387.523 194.312 387.564 195.252C387.581 195.639 387.282 195.966 386.896 195.983C386.509 196 386.183 195.7 386.165 195.314C386.121 194.301 386.1 193.308 386.08 192.325C386.048 190.8 386.016 189.297 385.897 187.772C385.866 187.386 386.154 187.049 386.54 187.019Z" fill="black"/>
<path fill-rule="evenodd" clip-rule="evenodd" d="M383.824 186.93C384.11 187.191 384.13 187.633 383.869 187.919C383.47 188.354 383.077 188.812 382.674 189.283C382.641 189.321 382.609 189.359 382.577 189.396C382.206 189.829 381.828 190.272 381.439 190.706C380.594 191.648 379.678 192.576 378.626 193.33C378.311 193.555 377.874 193.483 377.649 193.168C377.424 192.854 377.496 192.417 377.81 192.192C378.74 191.525 379.577 190.686 380.396 189.771C380.774 189.35 381.142 188.92 381.515 188.484C381.546 188.447 381.578 188.41 381.61 188.373C382.012 187.903 382.42 187.429 382.835 186.974C383.096 186.689 383.539 186.669 383.824 186.93Z" fill="black"/>
<path fill-rule="evenodd" clip-rule="evenodd" d="M380.624 179.045C380.886 179.329 380.868 179.772 380.584 180.034C380.007 180.566 379.422 181.078 378.843 181.585C377.392 182.856 375.976 184.096 374.798 185.546C374.554 185.846 374.113 185.891 373.813 185.647C373.513 185.404 373.468 184.963 373.711 184.663C374.969 183.114 376.525 181.753 378.008 180.453C378.567 179.964 379.116 179.483 379.635 179.005C379.919 178.743 380.362 178.761 380.624 179.045Z" fill="black"/>
<path fill-rule="evenodd" clip-rule="evenodd" d="M378.974 170.004C379.354 170.073 379.607 170.438 379.538 170.818C378.886 174.404 379.455 178.004 379.808 180.239C379.832 180.388 379.854 180.532 379.876 180.668C379.935 181.05 379.674 181.408 379.292 181.468C378.91 181.527 378.552 181.265 378.492 180.883C378.471 180.743 378.447 180.595 378.422 180.438C378.069 178.216 377.464 174.398 378.16 170.568C378.229 170.187 378.594 169.935 378.974 170.004Z" fill="black"/>
<path fill-rule="evenodd" clip-rule="evenodd" d="M387.747 155.941C387.934 156.279 387.813 156.705 387.475 156.892C384.357 158.625 383.181 160.24 382.334 161.68C382.138 162.013 381.709 162.124 381.375 161.928C381.042 161.732 380.931 161.303 381.127 160.97C382.081 159.347 383.428 157.539 386.795 155.669C387.133 155.481 387.559 155.603 387.747 155.941Z" fill="black"/>
<path fill-rule="evenodd" clip-rule="evenodd" d="M386.61 148.286C386.996 148.294 387.303 148.615 387.295 149.001C387.285 149.449 387.275 149.897 387.265 150.345C387.203 153.14 387.142 155.929 387.115 158.721C387.111 159.107 386.794 159.418 386.408 159.414C386.021 159.41 385.711 159.093 385.715 158.707C385.742 155.906 385.804 153.107 385.865 150.313C385.875 149.866 385.885 149.418 385.895 148.971C385.903 148.584 386.223 148.278 386.61 148.286Z" fill="black"/>
<path fill-rule="evenodd" clip-rule="evenodd" d="M393.349 144.953C393.736 144.953 394.049 145.266 394.049 145.653V153.669C394.049 154.056 393.736 154.369 393.349 154.369C392.963 154.369 392.649 154.056 392.649 153.669V145.653C392.649 145.266 392.963 144.953 393.349 144.953Z" fill="black"/>
<path fill-rule="evenodd" clip-rule="evenodd" d="M391.749 152.95C391.749 152.563 392.062 152.25 392.449 152.25C393.276 152.25 394.277 152.37 395.229 152.692C396.177 153.012 397.129 153.55 397.783 154.421C398.015 154.73 397.952 155.169 397.643 155.401C397.334 155.633 396.895 155.57 396.663 155.261C396.235 154.691 395.566 154.283 394.781 154.018C393.999 153.754 393.153 153.65 392.449 153.65C392.062 153.65 391.749 153.336 391.749 152.95Z" fill="black"/>
<path fill-rule="evenodd" clip-rule="evenodd" d="M404.837 146.242C405.108 146.517 405.105 146.96 404.83 147.232C404.171 147.883 403.512 148.535 402.853 149.189C401.316 150.712 399.775 152.239 398.221 153.747C397.775 154.179 397.341 154.568 396.832 154.95C396.523 155.182 396.084 155.119 395.852 154.81C395.62 154.501 395.683 154.062 395.992 153.83C396.438 153.496 396.825 153.149 397.246 152.742C398.795 151.239 400.327 149.721 401.861 148.2C402.522 147.546 403.183 146.89 403.847 146.236C404.122 145.964 404.565 145.967 404.837 146.242Z" fill="black"/>
<path fill-rule="evenodd" clip-rule="evenodd" d="M406.814 155.065C407.088 155.337 407.09 155.78 406.818 156.055C406.282 156.596 405.744 157.127 405.209 157.654C404.049 158.799 402.903 159.93 401.815 161.127C401.676 161.279 401.576 161.452 401.467 161.699C401.31 162.053 400.897 162.213 400.543 162.057C400.19 161.901 400.03 161.487 400.186 161.134C400.326 160.817 400.499 160.493 400.779 160.185C401.893 158.96 403.084 157.784 404.259 156.625C404.787 156.104 405.311 155.586 405.824 155.069C406.096 154.795 406.539 154.792 406.814 155.065Z" fill="black"/>
<path fill-rule="evenodd" clip-rule="evenodd" d="M401.747 147.565C402.085 147.376 402.511 147.498 402.699 147.835C403.173 148.685 403.383 149.529 403.592 150.367C403.604 150.414 403.616 150.461 403.628 150.508C403.812 151.246 403.974 151.97 404.134 152.685C404.405 153.895 404.669 155.078 405.029 156.259C405.04 156.295 405.051 156.324 405.061 156.346C405.064 156.352 405.066 156.357 405.068 156.361C405.398 156.504 405.57 156.877 405.454 157.225C405.332 157.591 404.935 157.79 404.569 157.667C403.994 157.476 403.778 156.955 403.69 156.667C403.317 155.445 403.029 154.158 402.748 152.906C402.591 152.203 402.436 151.512 402.269 150.848C402.262 150.819 402.255 150.789 402.247 150.76C402.027 149.879 401.857 149.2 401.476 148.517C401.288 148.179 401.409 147.753 401.747 147.565Z" fill="black"/>
<path fill-rule="evenodd" clip-rule="evenodd" d="M400.675 159.921C401.052 159.837 401.426 160.075 401.51 160.452C402.238 163.731 402.496 166.166 401.484 168.95C401.352 169.313 400.951 169.501 400.587 169.369C400.224 169.236 400.036 168.835 400.169 168.472C401.041 166.073 400.856 163.963 400.143 160.756C400.059 160.379 400.297 160.005 400.675 159.921Z" fill="black"/>
<path fill-rule="evenodd" clip-rule="evenodd" d="M404.411 167.749C404.793 167.689 405.151 167.951 405.211 168.333C405.549 170.506 405.135 172.984 404.531 175.231C403.988 177.247 403.272 179.144 402.744 180.544C402.68 180.712 402.62 180.873 402.562 181.026C402.426 181.388 402.023 181.571 401.661 181.436C401.299 181.3 401.116 180.897 401.251 180.535C401.31 180.379 401.371 180.217 401.434 180.049C401.964 178.644 402.655 176.813 403.179 174.868C403.768 172.679 404.12 170.428 403.827 168.548C403.768 168.166 404.029 167.808 404.411 167.749Z" fill="black"/>
<path fill-rule="evenodd" clip-rule="evenodd" d="M398.375 176.615C398.736 176.754 398.916 177.159 398.777 177.52C398.151 179.147 397.559 180.397 396.762 181.527C395.964 182.658 394.982 183.636 393.611 184.748C393.31 184.991 392.869 184.945 392.626 184.645C392.383 184.344 392.429 183.904 392.729 183.66C394.041 182.597 394.919 181.71 395.619 180.719C396.32 179.726 396.863 178.596 397.47 177.017C397.609 176.656 398.014 176.476 398.375 176.615Z" fill="black"/>
<path fill-rule="evenodd" clip-rule="evenodd" d="M396.297 190.288C396.449 190.643 396.285 191.054 395.929 191.207C394.398 191.863 393.251 192.34 392.286 192.742C390.463 193.501 389.288 193.99 387.389 194.908C386.778 195.203 386.338 195.33 385.718 195.433C385.337 195.497 384.976 195.239 384.913 194.858C384.849 194.477 385.107 194.116 385.488 194.052C385.991 193.968 386.302 193.878 386.78 193.647C388.713 192.713 389.936 192.204 391.786 191.434C392.75 191.032 393.884 190.56 395.378 189.92C395.733 189.768 396.145 189.932 396.297 190.288Z" fill="black"/>
<path fill-rule="evenodd" clip-rule="evenodd" d="M379.415 193.118C379.466 192.735 379.818 192.466 380.201 192.516C381.451 192.682 382.684 192.971 383.877 193.251C384.009 193.282 384.141 193.313 384.272 193.343C385.602 193.653 386.888 193.936 388.184 194.044C388.569 194.076 388.855 194.414 388.823 194.8C388.791 195.185 388.453 195.471 388.068 195.439C386.659 195.322 385.283 195.017 383.954 194.707C383.823 194.676 383.692 194.645 383.562 194.615C382.358 194.333 381.194 194.06 380.017 193.904C379.634 193.853 379.365 193.502 379.415 193.118Z" fill="black"/>
<path fill-rule="evenodd" clip-rule="evenodd" d="M379.74 189.727C380.122 189.672 380.477 189.938 380.531 190.321C380.583 190.679 380.631 191.034 380.68 191.386C380.775 192.083 380.87 192.771 380.98 193.462C381.041 193.844 380.781 194.203 380.399 194.264C380.018 194.325 379.659 194.065 379.598 193.683C379.485 192.977 379.387 192.262 379.29 191.555C379.242 191.207 379.194 190.861 379.146 190.519C379.091 190.136 379.357 189.782 379.74 189.727Z" fill="black"/>
<path fill-rule="evenodd" clip-rule="evenodd" d="M378.583 158.632C378.877 158.884 378.911 159.326 378.659 159.619C377.688 160.752 376.819 162.872 376.24 165.23C375.666 167.571 375.412 170.009 375.582 171.704C375.62 172.089 375.339 172.432 374.955 172.47C374.57 172.509 374.227 172.228 374.188 171.843C373.998 169.936 374.284 167.329 374.881 164.897C375.473 162.481 376.406 160.097 377.596 158.708C377.848 158.414 378.29 158.38 378.583 158.632Z" fill="black"/>
<path fill-rule="evenodd" clip-rule="evenodd" d="M372.698 156.748C373.038 156.933 373.163 157.358 372.978 157.697C370.852 161.594 369.362 166.116 369.46 170.407C369.469 170.793 369.163 171.114 368.776 171.123C368.39 171.131 368.069 170.825 368.06 170.439C367.955 165.824 369.55 161.057 371.749 157.027C371.934 156.688 372.359 156.563 372.698 156.748Z" fill="black"/>
<path fill-rule="evenodd" clip-rule="evenodd" d="M379.621 154.982C379.89 155.26 379.883 155.703 379.605 155.972C379.315 156.253 379.025 156.538 378.732 156.824C377.78 157.757 376.811 158.706 375.798 159.598C375.508 159.853 375.065 159.825 374.81 159.535C374.554 159.245 374.583 158.802 374.873 158.547C375.855 157.682 376.787 156.769 377.734 155.842C378.031 155.551 378.329 155.259 378.631 154.967C378.909 154.698 379.352 154.705 379.621 154.982Z" fill="black"/>
<path fill-rule="evenodd" clip-rule="evenodd" d="M379.299 147.026C379.686 147.026 379.999 147.339 379.999 147.726C379.999 149.106 379.947 150.495 379.895 151.868C379.871 152.5 379.847 153.128 379.829 153.751L379.828 153.778C379.817 154.149 379.814 154.261 379.873 154.44C379.996 154.807 379.797 155.203 379.431 155.325C379.064 155.448 378.667 155.249 378.545 154.883C378.404 154.46 378.416 154.11 378.427 153.795C378.428 153.767 378.429 153.738 378.43 153.71C378.449 153.062 378.473 152.421 378.497 151.782C378.549 150.423 378.599 149.08 378.599 147.726C378.599 147.339 378.913 147.026 379.299 147.026Z" fill="black"/>
<path fill-rule="evenodd" clip-rule="evenodd" d="M377.458 154.907C377.571 154.537 377.962 154.329 378.332 154.441C379.774 154.881 381.065 155.197 382.315 155.504C382.388 155.522 382.46 155.54 382.532 155.557C383.847 155.88 385.127 156.199 386.463 156.645C386.83 156.767 387.028 157.164 386.906 157.53C386.784 157.897 386.387 158.095 386.021 157.973C384.744 157.548 383.515 157.24 382.199 156.917C382.125 156.899 382.05 156.88 381.975 156.862C380.729 156.557 379.404 156.232 377.924 155.781C377.554 155.668 377.345 155.277 377.458 154.907Z" fill="black"/>
<path fill-rule="evenodd" clip-rule="evenodd" d="M397.695 144.705C398.019 144.916 398.11 145.35 397.899 145.674C397.431 146.392 396.963 147.106 396.495 147.82C395.607 149.173 394.722 150.523 393.849 151.885C393.64 152.21 393.207 152.305 392.882 152.096C392.556 151.887 392.462 151.454 392.67 151.129C393.547 149.762 394.439 148.401 395.33 147.044C395.797 146.331 396.263 145.62 396.727 144.909C396.938 144.586 397.371 144.494 397.695 144.705Z" fill="black"/>
<path fill-rule="evenodd" clip-rule="evenodd" d="M388.659 142.361C388.836 142.705 388.699 143.127 388.355 143.303C387.237 143.876 386.115 144.429 384.996 144.98C382.694 146.113 380.408 147.24 378.208 148.511C377.874 148.704 377.445 148.589 377.252 148.255C377.059 147.92 377.173 147.492 377.508 147.298C379.747 146.005 382.106 144.842 384.432 143.697C385.54 143.15 386.641 142.608 387.717 142.057C388.061 141.881 388.483 142.017 388.659 142.361Z" fill="black"/>
<path fill-rule="evenodd" clip-rule="evenodd" d="M397.098 143.664C397.301 143.993 397.198 144.424 396.869 144.627C395.287 145.6 393.658 146.498 392.048 147.386C391.703 147.576 391.359 147.766 391.017 147.956C390.587 148.194 390.151 148.443 389.709 148.696C388.422 149.433 387.083 150.199 385.701 150.798C385.347 150.952 384.935 150.789 384.781 150.434C384.627 150.079 384.79 149.667 385.145 149.513C386.449 148.948 387.688 148.239 388.955 147.514C389.411 147.253 389.871 146.99 390.338 146.731C390.686 146.538 391.034 146.346 391.381 146.155C392.991 145.267 394.585 144.389 396.135 143.435C396.464 143.232 396.896 143.335 397.098 143.664Z" fill="black"/>
<path fill-rule="evenodd" clip-rule="evenodd" d="M372.904 170.803C373.291 170.803 373.604 171.117 373.604 171.503C373.604 172.692 373.692 173.881 373.782 175.101L373.783 175.114C373.873 176.321 373.964 177.557 373.964 178.799C373.964 179.186 373.651 179.499 373.264 179.499C372.878 179.499 372.564 179.186 372.564 178.799C372.564 177.612 372.477 176.424 372.386 175.204L372.385 175.193C372.296 173.985 372.204 172.748 372.204 171.503C372.204 171.117 372.518 170.803 372.904 170.803Z" fill="black"/>
<path fill-rule="evenodd" clip-rule="evenodd" d="M371.759 178.471C371.852 178.096 372.232 177.868 372.607 177.962C374.271 178.378 375.788 178.719 377.64 179.136C378.572 179.346 379.588 179.574 380.751 179.841C381.128 179.928 381.363 180.303 381.277 180.68C381.19 181.057 380.815 181.292 380.438 181.206C379.291 180.943 378.282 180.715 377.352 180.506C375.489 180.087 373.948 179.74 372.268 179.32C371.893 179.227 371.665 178.846 371.759 178.471Z" fill="black"/>
<path fill-rule="evenodd" clip-rule="evenodd" d="M374.015 177.841C374.296 178.107 374.308 178.55 374.042 178.83C372.759 180.182 371.473 181.536 370.173 182.879C370.07 182.986 369.963 183.098 369.854 183.214C369.392 183.705 368.875 184.253 368.263 184.685C367.947 184.908 367.51 184.833 367.287 184.517C367.064 184.201 367.139 183.764 367.455 183.541C367.942 183.198 368.338 182.779 368.79 182.3C368.911 182.173 369.036 182.041 369.168 181.905C370.462 180.568 371.743 179.219 373.026 177.867C373.292 177.586 373.735 177.574 374.015 177.841Z" fill="black"/>
<path fill-rule="evenodd" clip-rule="evenodd" d="M366.807 183.829C366.865 183.446 367.222 183.183 367.604 183.241C369.068 183.463 370.317 183.711 371.661 183.981C371.698 183.988 371.735 183.995 371.772 184.003C373.085 184.266 374.499 184.55 376.318 184.853C376.699 184.916 376.957 185.277 376.893 185.658C376.829 186.039 376.469 186.297 376.087 186.234C374.246 185.927 372.813 185.639 371.5 185.376C371.462 185.369 371.424 185.361 371.386 185.353C370.042 185.084 368.822 184.841 367.394 184.625C367.012 184.568 366.749 184.211 366.807 183.829Z" fill="black"/>
<path fill-rule="evenodd" clip-rule="evenodd" d="M381.953 186.824C382.048 186.449 382.429 186.223 382.803 186.318C384.66 186.789 386.549 186.918 388.522 187.018C388.908 187.037 389.205 187.366 389.185 187.752C389.166 188.139 388.837 188.436 388.451 188.416C386.479 188.316 384.465 188.184 382.459 187.675C382.084 187.58 381.858 187.199 381.953 186.824Z" fill="black"/>
<path fill-rule="evenodd" clip-rule="evenodd" d="M373.932 184.268C374.245 184.04 374.683 184.109 374.91 184.422C375.927 185.818 376.863 187.286 377.785 188.734C378.208 189.398 378.629 190.058 379.053 190.705C379.166 190.878 379.261 191.03 379.352 191.178C379.473 191.373 379.587 191.558 379.733 191.77C379.966 192.107 380.193 192.376 380.439 192.561C380.748 192.792 380.811 193.231 380.579 193.541C380.347 193.85 379.908 193.912 379.599 193.681C379.175 193.363 378.847 192.95 378.581 192.565C378.431 192.348 378.267 192.085 378.122 191.852C378.033 191.708 377.95 191.576 377.883 191.473C377.436 190.792 377.004 190.114 376.575 189.44C375.665 188.013 374.77 186.607 373.779 185.246C373.551 184.933 373.62 184.496 373.932 184.268Z" fill="black"/>
<path fill-rule="evenodd" clip-rule="evenodd" d="M367.224 183.492C367.517 183.24 367.959 183.274 368.211 183.568C369.864 185.497 371.533 187.568 373.017 189.41C373.481 189.986 373.926 190.539 374.348 191.058C374.591 191.358 374.545 191.799 374.245 192.043C373.945 192.286 373.504 192.241 373.261 191.94C372.833 191.414 372.383 190.855 371.917 190.276C370.435 188.437 368.786 186.39 367.148 184.479C366.896 184.185 366.93 183.743 367.224 183.492Z" fill="black"/>
<path fill-rule="evenodd" clip-rule="evenodd" d="M371.663 190.946C371.671 190.559 371.99 190.252 372.377 190.259C373.697 190.285 374.97 190.619 376.157 190.947C376.24 190.969 376.322 190.992 376.403 191.015C377.524 191.325 378.569 191.614 379.627 191.703C380.013 191.735 380.299 192.073 380.267 192.458C380.235 192.844 379.896 193.13 379.511 193.098C378.316 192.998 377.148 192.674 376.054 192.371C375.964 192.346 375.874 192.321 375.785 192.296C374.587 191.966 373.472 191.68 372.35 191.659C371.963 191.651 371.656 191.332 371.663 190.946Z" fill="black"/>
<path fill-rule="evenodd" clip-rule="evenodd" d="M382.237 173.806C382.457 173.488 382.893 173.409 383.211 173.63C383.692 173.964 384.15 174.281 384.589 174.584C387.092 176.315 388.961 177.607 390.826 179.162C391.123 179.409 391.163 179.851 390.916 180.148C390.668 180.445 390.227 180.485 389.93 180.237C388.116 178.726 386.306 177.474 383.801 175.741C383.361 175.437 382.899 175.118 382.412 174.78C382.095 174.559 382.016 174.123 382.237 173.806Z" fill="black"/>
<path fill-rule="evenodd" clip-rule="evenodd" d="M384.69 165.313C385.074 165.356 385.351 165.702 385.308 166.086C385.167 167.354 385.024 168.868 384.881 170.391C384.662 172.701 384.442 175.032 384.225 176.556C384.17 176.939 383.815 177.205 383.433 177.15C383.05 177.095 382.784 176.741 382.839 176.358C383.053 174.856 383.266 172.603 383.48 170.33C383.624 168.798 383.769 167.257 383.917 165.931C383.959 165.547 384.306 165.27 384.69 165.313Z" fill="black"/>
<path fill-rule="evenodd" clip-rule="evenodd" d="M391.651 161.976C391.888 162.281 391.834 162.721 391.528 162.958C390.889 163.456 389.552 164.406 388.149 165.403C387.943 165.549 387.735 165.696 387.529 165.843C385.89 167.008 384.294 168.152 383.618 168.71C383.32 168.956 382.878 168.914 382.632 168.616C382.386 168.318 382.428 167.877 382.727 167.631C383.452 167.031 385.102 165.851 386.717 164.702C386.925 164.555 387.132 164.408 387.337 164.262C388.749 163.259 390.055 162.33 390.669 161.853C390.974 161.616 391.414 161.671 391.651 161.976Z" fill="black"/>
<path fill-rule="evenodd" clip-rule="evenodd" d="M388.164 161.853C388.369 161.526 388.801 161.427 389.129 161.633C390.728 162.637 392.453 163.431 394.212 164.239C394.934 164.572 395.661 164.906 396.388 165.259C396.588 165.356 396.802 165.447 397.04 165.549C397.165 165.602 397.298 165.659 397.438 165.72C397.819 165.887 398.239 166.085 398.602 166.327C398.924 166.542 399.011 166.976 398.797 167.298C398.582 167.619 398.148 167.706 397.826 167.492C397.57 167.321 397.245 167.164 396.875 167.002C396.767 166.955 396.651 166.905 396.533 166.855C396.276 166.745 396.007 166.63 395.777 166.518C395.108 166.194 394.415 165.875 393.712 165.552C391.921 164.728 390.065 163.874 388.384 162.819C388.057 162.613 387.958 162.181 388.164 161.853Z" fill="black"/>
<path fill-rule="evenodd" clip-rule="evenodd" d="M396.387 174.305C396.581 174.639 396.467 175.068 396.133 175.262C395.782 175.466 395.056 175.905 394.173 176.44C392.112 177.687 389.193 179.454 388.168 179.966C387.822 180.139 387.402 179.999 387.229 179.653C387.056 179.308 387.196 178.887 387.542 178.714C388.516 178.227 391.271 176.559 393.314 175.322C394.246 174.758 395.03 174.283 395.43 174.051C395.764 173.857 396.192 173.971 396.387 174.305Z" fill="black"/>
<path fill-rule="evenodd" clip-rule="evenodd" d="M396.654 164.967C397.032 165.051 397.27 165.425 397.186 165.802C396.83 167.402 396.563 169.005 396.292 170.629L396.291 170.638C396.022 172.254 395.749 173.891 395.384 175.53C395.301 175.908 394.927 176.146 394.549 176.062C394.172 175.978 393.934 175.604 394.018 175.226C394.373 173.626 394.641 172.024 394.911 170.399L394.913 170.39C395.182 168.775 395.455 167.138 395.819 165.499C395.903 165.121 396.277 164.883 396.654 164.967Z" fill="black"/>
<path fill-rule="evenodd" clip-rule="evenodd" d="M391.873 164.784C392.251 164.864 392.493 165.235 392.414 165.613C392.355 165.89 392.297 166.168 392.239 166.446C392.023 167.477 391.806 168.515 391.571 169.548C391.476 169.962 391.381 170.372 391.286 170.78C391.106 171.552 390.928 172.317 390.762 173.09L390.735 173.211C390.729 173.242 390.725 173.261 390.723 173.275C390.719 173.294 390.717 173.31 390.717 173.35C390.717 173.737 390.404 174.05 390.017 174.05C389.631 174.05 389.317 173.737 389.317 173.35C389.317 173.137 389.348 172.998 389.38 172.856C389.384 172.836 389.389 172.815 389.393 172.795C389.562 172.012 389.745 171.226 389.926 170.446C390.02 170.041 390.114 169.637 390.206 169.236C390.438 168.217 390.652 167.195 390.867 166.165C390.926 165.886 390.985 165.605 391.044 165.325C391.124 164.946 391.495 164.704 391.873 164.784Z" fill="black"/>
<path fill-rule="evenodd" clip-rule="evenodd" d="M391.035 173.099C391.222 173.437 391.101 173.863 390.763 174.051C390.081 174.43 389.357 174.757 388.668 175.069C388.455 175.165 388.244 175.26 388.04 175.355C387.83 175.452 387.616 175.553 387.4 175.655C386.699 175.986 385.967 176.332 385.222 176.615C384.861 176.753 384.457 176.571 384.319 176.21C384.182 175.848 384.363 175.444 384.725 175.307C385.414 175.044 386.077 174.731 386.766 174.406C386.991 174.3 387.219 174.192 387.452 174.085C387.681 173.979 387.906 173.877 388.129 173.776C388.806 173.469 389.456 173.175 390.083 172.827C390.421 172.639 390.847 172.761 391.035 173.099Z" fill="black"/>
<path fill-rule="evenodd" clip-rule="evenodd" d="M387.95 164.255C388.123 163.909 388.544 163.769 388.889 163.942L388.892 163.943C390.324 164.659 391.025 165.01 392.8 165.719C393.158 165.863 393.333 166.27 393.19 166.629C393.046 166.988 392.639 167.163 392.28 167.019C390.452 166.288 389.712 165.918 388.263 165.194C387.918 165.021 387.777 164.601 387.95 164.255Z" fill="black"/>
<path fill-rule="evenodd" clip-rule="evenodd" d="M398.641 165.945C398.676 166.33 398.392 166.671 398.007 166.706C396.1 166.88 393.283 167.024 391.098 167.024C390.711 167.024 390.398 166.71 390.398 166.324C390.398 165.937 390.711 165.624 391.098 165.624C393.237 165.624 396.011 165.482 397.88 165.312C398.265 165.276 398.605 165.56 398.641 165.945Z" fill="black"/>
<path fill-rule="evenodd" clip-rule="evenodd" d="M388.526 172.961C388.615 172.585 388.993 172.353 389.369 172.442C389.779 172.54 390.187 172.639 390.594 172.737C391.552 172.969 392.502 173.198 393.461 173.411C393.631 173.448 393.799 173.486 393.965 173.524C394.859 173.725 395.707 173.916 396.572 174.003C396.957 174.041 397.237 174.385 397.199 174.769C397.16 175.154 396.817 175.435 396.433 175.396C395.475 175.3 394.531 175.087 393.638 174.885C393.477 174.849 393.317 174.812 393.158 174.777C392.186 174.562 391.214 174.327 390.251 174.094C389.847 173.997 389.445 173.9 389.044 173.804C388.668 173.715 388.436 173.337 388.526 172.961Z" fill="black"/>
<path fill-rule="evenodd" clip-rule="evenodd" d="M396.287 170.839C396.206 171.217 395.834 171.457 395.456 171.376C393.791 171.018 392.137 170.659 390.483 170.294C390.106 170.211 389.867 169.837 389.95 169.46C390.034 169.082 390.407 168.844 390.785 168.927C392.435 169.292 394.087 169.65 395.75 170.007C396.128 170.089 396.369 170.461 396.287 170.839ZM393.842 163.858C393.989 164.216 393.819 164.625 393.462 164.772C392.266 165.265 391.247 165.66 390.48 165.944C390.118 166.078 389.715 165.894 389.58 165.531C389.446 165.169 389.631 164.766 389.993 164.631C390.744 164.353 391.748 163.965 392.928 163.478C393.285 163.331 393.695 163.501 393.842 163.858Z" fill="black"/>
<path fill-rule="evenodd" clip-rule="evenodd" d="M392.285 177.34C392.125 177.692 391.71 177.847 391.358 177.687L386.58 175.515C386.228 175.355 386.072 174.94 386.232 174.588C386.392 174.236 386.807 174.081 387.159 174.241L391.937 176.413C392.289 176.573 392.445 176.988 392.285 177.34Z" fill="black"/>
<path fill-rule="evenodd" clip-rule="evenodd" d="M387.106 190.892C387.044 191.273 386.684 191.532 386.302 191.47L381.11 190.628C380.728 190.566 380.469 190.206 380.531 189.825C380.593 189.443 380.952 189.184 381.334 189.246L386.527 190.088C386.908 190.15 387.167 190.51 387.106 190.892ZM376.897 188.771C376.847 189.155 376.497 189.426 376.113 189.376L370.709 188.684C370.325 188.635 370.054 188.284 370.104 187.9C370.153 187.517 370.503 187.246 370.887 187.295L376.291 187.988C376.675 188.037 376.946 188.388 376.897 188.771Z" fill="black"/>
<path fill-rule="evenodd" clip-rule="evenodd" d="M400.957 151.545C400.859 151.92 400.477 152.144 400.103 152.046C399.016 151.763 398.115 151.478 397.279 151.207C397.174 151.174 397.071 151.14 396.968 151.107C396.248 150.873 395.573 150.654 394.84 150.451C394.467 150.348 394.249 149.963 394.352 149.59C394.455 149.218 394.84 148.999 395.213 149.102C395.977 149.313 396.684 149.543 397.402 149.776C397.504 149.809 397.607 149.842 397.71 149.875C398.539 150.143 399.409 150.418 400.456 150.691C400.83 150.789 401.055 151.171 400.957 151.545Z" fill="black"/>
<path fill-rule="evenodd" clip-rule="evenodd" d="M377.515 182.548C377.436 182.927 377.065 183.17 376.687 183.091C375.637 182.871 374.712 182.661 373.807 182.455C373.743 182.44 373.679 182.425 373.614 182.411C372.775 182.219 371.947 182.029 371.037 181.836C370.659 181.755 370.417 181.383 370.498 181.005C370.578 180.627 370.95 180.386 371.328 180.466C372.249 180.662 373.087 180.854 373.925 181.045C373.99 181.06 374.054 181.075 374.119 181.09C375.023 181.296 375.937 181.504 376.973 181.72C377.351 181.799 377.594 182.17 377.515 182.548ZM378.812 175.689C378.73 176.067 378.358 176.307 377.98 176.225L373.296 175.213C372.918 175.131 372.678 174.758 372.76 174.38C372.841 174.003 373.214 173.762 373.592 173.844L378.276 174.857C378.653 174.939 378.894 175.311 378.812 175.689Z" fill="black"/>
<path fill-rule="evenodd" clip-rule="evenodd" d="M376.024 166.987C375.945 167.366 375.574 167.608 375.195 167.529L368.617 166.15C368.239 166.071 367.996 165.7 368.076 165.321C368.155 164.943 368.526 164.701 368.904 164.78L375.482 166.159C375.861 166.238 376.103 166.609 376.024 166.987ZM376.644 163.036C376.561 163.414 376.187 163.653 375.81 163.57L370.406 162.384C370.028 162.301 369.789 161.928 369.872 161.55C369.955 161.173 370.328 160.934 370.706 161.017L376.11 162.203C376.488 162.285 376.727 162.659 376.644 163.036Z" fill="black"/>
<path fill-rule="evenodd" clip-rule="evenodd" d="M386.976 153.375C386.897 153.753 386.527 153.997 386.148 153.918L378.57 152.346C378.191 152.267 377.948 151.897 378.027 151.518C378.105 151.14 378.476 150.897 378.854 150.975L386.432 152.547C386.811 152.626 387.054 152.996 386.976 153.375ZM383.132 159.436C382.997 159.798 382.593 159.981 382.231 159.845L377.212 157.963C376.85 157.827 376.666 157.424 376.802 157.062C376.938 156.7 377.341 156.516 377.703 156.652L382.723 158.534C383.085 158.67 383.268 159.074 383.132 159.436Z" fill="black"/>
<path fill-rule="evenodd" clip-rule="evenodd" d="M391.306 147.757C391.199 148.127 390.812 148.341 390.442 148.235C389.282 147.904 388.392 147.64 387.666 147.418L383.043 146.058C382.677 145.95 382.465 145.57 382.565 145.202C382.665 144.835 383.04 144.615 383.41 144.707C384.723 145.035 385.539 145.29 386.666 145.642C387.096 145.777 387.572 145.925 388.137 146.098L390.831 146.891C391.201 146.999 391.413 147.387 391.306 147.757Z" fill="black"/>
<path d="M222.152 132.778V49.2941L273.046 26.9722L345.37 41.2582V121.617L298.493 147.511L280.636 144.385L279.992 118.966L241.238 137.027L222.152 132.778Z" fill="white"/>
<path fill-rule="evenodd" clip-rule="evenodd" d="M240.171 83.7367C240.558 83.7367 240.871 84.0501 240.871 84.4367C240.87 99.4528 240.871 108.188 240.871 117.32C240.872 123.423 240.872 129.704 240.872 138.154C240.872 138.541 240.559 138.854 240.172 138.854C239.786 138.854 239.472 138.541 239.472 138.154C239.472 129.704 239.472 123.424 239.471 117.321C239.471 108.188 239.47 99.4527 239.471 84.4366C239.471 84.05 239.785 83.7367 240.171 83.7367Z" fill="black"/>
<path fill-rule="evenodd" clip-rule="evenodd" d="M280.227 94.2268C280.613 94.2268 280.927 94.5403 280.927 94.9269C280.925 109.788 280.926 117.225 280.927 125.22C280.927 130.702 280.928 136.447 280.928 145.029C280.928 145.415 280.614 145.729 280.228 145.729C279.841 145.729 279.528 145.415 279.528 145.029C279.528 136.448 279.527 130.703 279.527 125.22C279.526 117.225 279.525 109.788 279.527 94.9268C279.527 94.5402 279.84 94.2268 280.227 94.2268Z" fill="black"/>
<path fill-rule="evenodd" clip-rule="evenodd" d="M222.424 47.3726C222.81 47.3726 223.124 47.686 223.124 48.0726C223.122 65.3479 223.123 88.8932 223.123 108.764C223.123 117.708 223.124 125.907 223.123 132.455C223.123 132.841 222.81 133.155 222.423 133.155C222.037 133.155 221.723 132.841 221.723 132.455C221.724 125.907 221.723 117.707 221.723 108.762C221.723 88.8922 221.722 65.3474 221.724 48.0725C221.724 47.6859 222.037 47.3725 222.424 47.3726Z" fill="black"/>
<path fill-rule="evenodd" clip-rule="evenodd" d="M299.3 50.3572C299.687 50.3572 300 50.6706 300 51.0572C299.999 71.0314 300 98.2551 300 121.23C300.001 131.572 300.001 141.053 300.001 148.624C300.001 149.011 299.688 149.324 299.301 149.324C298.914 149.324 298.601 149.011 298.601 148.624C298.601 141.053 298.601 131.572 298.6 121.23C298.6 98.2552 298.599 71.0314 298.6 51.0571C298.6 50.6705 298.914 50.3571 299.3 50.3572Z" fill="black"/>
<path fill-rule="evenodd" clip-rule="evenodd" d="M345.076 35.0979C345.463 35.0979 345.776 35.4113 345.776 35.7979C345.775 55.6549 345.775 77.3446 345.776 96.8806C345.776 105.842 345.776 114.349 345.776 122.019C345.776 122.406 345.463 122.719 345.076 122.719C344.69 122.72 344.376 122.406 344.376 122.02C344.376 114.349 344.376 105.842 344.376 96.8807C344.375 77.3446 344.375 55.6549 344.376 35.7978C344.376 35.4112 344.69 35.0979 345.076 35.0979Z" fill="black"/>
<path fill-rule="evenodd" clip-rule="evenodd" d="M276.38 25.2096C276.517 25.571 276.335 25.9752 275.973 26.1124C262.439 31.247 230.803 44.8165 217.865 50.3655C217.309 50.6039 216.788 50.8276 216.304 51.0351C215.949 51.1874 215.537 51.0229 215.385 50.6676C215.233 50.3123 215.397 49.9007 215.752 49.7484C216.239 49.5396 216.764 49.3145 217.324 49.0743C230.256 43.5275 261.912 29.9494 275.477 24.8034C275.838 24.6663 276.242 24.8481 276.38 25.2096Z" fill="black"/>
<path fill-rule="evenodd" clip-rule="evenodd" d="M353.339 36.4537C353.504 36.8034 353.354 37.2205 353.004 37.3853C330.018 48.2158 317.506 54.101 291.966 66.0148C291.615 66.1783 291.199 66.0267 291.035 65.6764C290.872 65.326 291.023 64.9095 291.374 64.7461C316.912 52.8333 329.423 46.9489 352.408 36.1188C352.757 35.954 353.175 36.104 353.339 36.4537Z" fill="black"/>
<path fill-rule="evenodd" clip-rule="evenodd" d="M349.034 119.397C349.214 119.739 349.083 120.162 348.741 120.343C337.586 126.224 328.399 131.34 320.345 135.824C309.509 141.857 300.725 146.747 291.965 150.824C291.614 150.987 291.198 150.835 291.035 150.484C290.872 150.134 291.024 149.717 291.374 149.554C300.104 145.493 308.81 140.644 319.593 134.639C327.643 130.157 336.85 125.03 348.088 119.104C348.43 118.924 348.853 119.055 349.034 119.397Z" fill="black"/>
<path fill-rule="evenodd" clip-rule="evenodd" d="M266.135 24.7727C266.206 24.3926 266.571 24.1418 266.951 24.2125C277.024 26.0851 297.454 30.0604 317.627 33.9857C329.351 36.2669 340.987 38.5312 350.454 40.356C350.833 40.4292 351.082 40.7962 351.009 41.1759C350.935 41.5555 350.568 41.8039 350.189 41.7307C340.715 39.9044 329.073 37.6392 317.347 35.3575C297.18 31.4333 276.762 27.4606 266.695 25.5889C266.315 25.5182 266.064 25.1528 266.135 24.7727ZM214.211 46.5961C214.282 46.216 214.647 45.965 215.027 46.0354C218.6 46.6977 223.569 47.6439 229.461 48.7659C250.827 52.8348 284.341 59.2168 307.511 62.7632C307.893 62.8217 308.155 63.1789 308.097 63.5611C308.038 63.9432 307.681 64.2056 307.299 64.1471C284.1 60.5962 250.541 54.2054 229.177 50.1371C223.293 49.0166 218.335 48.0723 214.772 47.412C214.392 47.3415 214.141 46.9763 214.211 46.5961ZM237.571 90.5238C237.633 90.1421 237.992 89.8828 238.374 89.9444C249.62 91.762 257.784 93.2586 266.42 94.8421C272.608 95.9765 279.038 97.1555 287.019 98.5289C287.4 98.5944 287.656 98.9564 287.59 99.3374C287.525 99.7184 287.163 99.9741 286.782 99.9086C278.764 98.5289 272.328 97.3487 266.143 96.2146C257.525 94.6344 249.394 93.1435 238.15 91.3265C237.769 91.2648 237.509 90.9054 237.571 90.5238Z" fill="black"/>
<path fill-rule="evenodd" clip-rule="evenodd" d="M221.747 132.271C221.849 131.898 222.233 131.677 222.606 131.779C228.186 133.293 233.693 134.616 239.26 135.777C239.639 135.856 239.881 136.227 239.802 136.606C239.723 136.984 239.353 137.227 238.974 137.148C233.379 135.98 227.846 134.651 222.24 133.13C221.866 133.028 221.646 132.644 221.747 132.271Z" fill="black"/>
<path fill-rule="evenodd" clip-rule="evenodd" d="M275.735 142.429C275.836 142.056 276.221 141.835 276.594 141.937C285.504 144.355 298.704 146.947 307.815 148.515C308.196 148.58 308.452 148.942 308.386 149.323C308.321 149.704 307.959 149.96 307.578 149.894C298.453 148.324 285.202 145.723 276.227 143.288C275.854 143.186 275.634 142.802 275.735 142.429Z" fill="black"/>
<path fill-rule="evenodd" clip-rule="evenodd" d="M317.473 53.08C317.847 53.1764 318.073 53.5581 317.976 53.9325L300.512 121.702C300.415 122.076 300.034 122.301 299.659 122.205C299.285 122.108 299.06 121.727 299.156 121.352L316.62 53.5831C316.717 53.2088 317.099 52.9835 317.473 53.08ZM311.514 55.7586C311.888 55.8551 312.113 56.2368 312.017 56.6111L300.512 101.255C300.415 101.629 300.034 101.855 299.659 101.758C299.285 101.662 299.06 101.28 299.156 100.906L310.661 56.2618C310.758 55.8874 311.139 55.6621 311.514 55.7586ZM306.257 58.2648C306.632 58.3612 306.857 58.7429 306.76 59.1173L299.583 86.969C299.486 87.3433 299.105 87.5686 298.73 87.4721C298.356 87.3757 298.131 86.994 298.227 86.6196L305.405 58.7679C305.501 58.3936 305.883 58.1683 306.257 58.2648Z" fill="black"/>
<path fill-rule="evenodd" clip-rule="evenodd" d="M334.77 45.0441C335.145 45.1405 335.37 45.5222 335.274 45.8966L310.653 141.435C310.557 141.809 310.175 142.034 309.801 141.938C309.426 141.841 309.201 141.46 309.297 141.085L333.918 45.5472C334.014 45.1729 334.396 44.9476 334.77 45.0441ZM328.926 47.2763C329.3 47.3727 329.526 47.7544 329.429 48.1288L304.464 145.006C304.367 145.38 303.985 145.606 303.611 145.509C303.237 145.413 303.011 145.031 303.108 144.657L328.073 47.7794C328.17 47.4051 328.552 47.1798 328.926 47.2763ZM323.625 49.9549C324 50.0514 324.225 50.4331 324.128 50.8074L300.065 144.183C299.969 144.557 299.587 144.783 299.213 144.686C298.838 144.59 298.613 144.208 298.71 143.834L322.773 50.4581C322.869 50.0837 323.251 49.8584 323.625 49.9549Z" fill="black"/>
<path fill-rule="evenodd" clip-rule="evenodd" d="M345.469 42.3656C345.843 42.4621 346.069 42.8438 345.972 43.2181L322.502 134.292C322.406 134.666 322.024 134.891 321.65 134.795C321.275 134.698 321.05 134.317 321.147 133.942L344.616 42.8688C344.713 42.4944 345.095 42.2691 345.469 42.3656ZM340.859 42.3656C341.233 42.4621 341.458 42.8438 341.362 43.2181L317.202 136.97C317.105 137.345 316.723 137.57 316.349 137.473C315.975 137.377 315.749 136.995 315.846 136.621L340.006 42.8688C340.102 42.4944 340.484 42.2691 340.859 42.3656ZM346.481 58.8838C346.856 58.9803 347.081 59.362 346.985 59.7364L328.577 131.167C328.48 131.541 328.099 131.766 327.724 131.67C327.35 131.573 327.125 131.192 327.221 130.817L345.629 59.387C345.725 59.0126 346.107 58.7874 346.481 58.8838Z" fill="black"/>
<path fill-rule="evenodd" clip-rule="evenodd" d="M345.172 84.5304C345.546 84.6269 345.772 85.0086 345.675 85.3829L334.797 127.594C334.701 127.969 334.319 128.194 333.945 128.098C333.57 128.001 333.345 127.619 333.441 127.245L344.319 85.0336C344.416 84.6592 344.798 84.4339 345.172 84.5304ZM345.172 103.974C345.546 104.07 345.772 104.452 345.675 104.826L340.613 124.469C340.517 124.844 340.135 125.069 339.761 124.973C339.386 124.876 339.161 124.494 339.257 124.12L344.319 104.477C344.416 104.102 344.798 103.877 345.172 103.974Z" fill="black"/>
<path fill-rule="evenodd" clip-rule="evenodd" d="M257.16 93.4945C257.324 93.8447 257.173 94.2613 256.823 94.425L240.269 102.161C239.919 102.325 239.502 102.174 239.338 101.824C239.175 101.473 239.326 101.057 239.676 100.893L256.23 93.1567C256.58 92.993 256.997 93.1442 257.16 93.4945ZM248.616 91.8556C248.78 92.2058 248.628 92.6225 248.278 92.7861L240.269 96.5292C239.919 96.6929 239.502 96.5416 239.338 96.1914C239.175 95.8412 239.326 95.4246 239.676 95.2609L247.685 91.5178C248.036 91.3541 248.452 91.5054 248.616 91.8556Z" fill="black"/>
<path fill-rule="evenodd" clip-rule="evenodd" d="M280.822 97.856C280.986 98.2062 280.835 98.6228 280.485 98.7865L240.752 117.356C240.401 117.52 239.985 117.368 239.821 117.018C239.657 116.668 239.809 116.251 240.159 116.088L279.892 97.5182C280.242 97.3545 280.659 97.5057 280.822 97.856ZM271.447 96.6053C271.611 96.9556 271.46 97.3722 271.109 97.5359L240.752 111.724C240.401 111.887 239.985 111.736 239.821 111.386C239.657 111.036 239.809 110.619 240.159 110.455L270.517 96.2675C270.867 96.1039 271.283 96.2551 271.447 96.6053ZM264.38 94.9799C264.544 95.3301 264.393 95.7467 264.043 95.9104L240.752 106.796C240.401 106.959 239.985 106.808 239.821 106.458C239.657 106.108 239.809 105.691 240.159 105.527L263.45 94.6421C263.8 94.4784 264.217 94.6296 264.38 94.9799Z" fill="black"/>
<path fill-rule="evenodd" clip-rule="evenodd" d="M281.209 102.693C281.372 103.043 281.221 103.46 280.871 103.624L240.751 122.374C240.401 122.537 239.985 122.386 239.821 122.036C239.657 121.686 239.809 121.269 240.159 121.105L280.278 102.355C280.628 102.192 281.045 102.343 281.209 102.693ZM281.209 107.621C281.372 107.972 281.221 108.388 280.871 108.552L240.752 127.302C240.401 127.466 239.985 127.314 239.821 126.964C239.657 126.614 239.809 126.197 240.159 126.034L280.278 107.284C280.628 107.12 281.045 107.271 281.209 107.621ZM280.376 113.643C280.54 113.993 280.388 114.41 280.038 114.573L240.752 132.934C240.401 133.098 239.985 132.946 239.821 132.596C239.657 132.246 239.809 131.829 240.159 131.666L279.445 113.305C279.796 113.141 280.212 113.293 280.376 113.643ZM280.376 118.67C280.54 119.02 280.388 119.437 280.038 119.6L240.752 137.961C240.401 138.125 239.985 137.974 239.821 137.623C239.657 137.273 239.809 136.857 240.159 136.693L279.445 118.332C279.796 118.168 280.212 118.32 280.376 118.67Z" fill="black"/>
<defs>
<radialGradient id="paint0_radial_4153_404911" cx="0" cy="0" r="1" gradientUnits="userSpaceOnUse" gradientTransform="translate(295.252 127.045) rotate(90.9937) scale(42.0702 90.2602)">
<stop/>
<stop offset="1" stop-color="#3E7BFA" stop-opacity="0"/>
</radialGradient>
<radialGradient id="paint1_radial_4153_404911" cx="0" cy="0" r="1" gradientUnits="userSpaceOnUse" gradientTransform="translate(177.652 211.044) rotate(90.9937) scale(42.0702 90.2602)">
<stop/>
<stop offset="1" stop-color="#3E7BFA" stop-opacity="0"/>
</radialGradient>
<radialGradient id="paint2_radial_4153_404911" cx="0" cy="0" r="1" gradientUnits="userSpaceOnUse" gradientTransform="translate(390.452 202.645) rotate(90.9937) scale(42.0702 90.2602)">
<stop/>
<stop offset="1" stop-color="#3E7BFA" stop-opacity="0"/>
</radialGradient>
</defs>
</svg>
