<svg width="12" height="12" viewBox="0 0 12 12" fill="none" xmlns="http://www.w3.org/2000/svg">
<path d="M2 11.5C2.82843 11.5 3.5 10.8284 3.5 10C3.5 9.17157 2.82843 8.5 2 8.5C1.17157 8.5 0.5 9.17157 0.5 10C0.5 10.8284 1.17157 11.5 2 11.5Z" stroke="#60606C" stroke-linecap="round" stroke-linejoin="round"/>
<path d="M10 3.5C10.8284 3.5 11.5 2.82843 11.5 2C11.5 1.17157 10.8284 0.5 10 0.5C9.17157 0.5 8.5 1.17157 8.5 2C8.5 2.82843 9.17157 3.5 10 3.5Z" stroke="#60606C" stroke-linecap="round" stroke-linejoin="round"/>
<path d="M2 6.5V3.5C2 2.96957 2.21071 2.46086 2.58579 2.08579C2.96086 1.71071 3.46957 1.5 4 1.5C4.53043 1.5 5.03914 1.71071 5.41421 2.08579C5.78929 2.46086 6 2.96957 6 3.5V8.5C6 9.03043 6.21071 9.53914 6.58579 9.91421C6.96086 10.2893 7.46957 10.5 8 10.5C8.53043 10.5 9.03914 10.2893 9.41421 9.91421C9.78929 9.53914 10 9.03043 10 8.5V5.5" stroke="#60606C" stroke-linecap="round" stroke-linejoin="round"/>
</svg>
