<svg fill="none" viewBox="0 0 14 14" xmlns="http://www.w3.org/2000/svg"><path d="m8.50975 3.2073h1.00642c.26692 0 .52293.1096.71163.30468.1888.19508.2948.45966.2948.73554v4.24931c.3359.12269.619.36418.7993.68176.1803.31759.2461.69082.1859 1.05371-.0602.3629-.2426.6922-.515.9295s-.6172.3675-.9734.3675c-.35627 0-.70105-.1302-.97341-.3675-.27237-.2373-.45479-.5666-.51501-.9295-.06022-.36289.00563-.73612.18591-1.05371.18029-.31758.46339-.55907.79928-.68176v-4.24931h-1.00642v1.56034l-2.26445-2.08045 2.26445-2.08044zm-5.03212 1.99203c-.33589-.1227-.61899-.36418-.79928-.68177-.18028-.31758-.24613-.69082-.18591-1.05373.06022-.36292.24264-.69214.51501-.92948.27236-.23734.61714-.36752.97339-.36752.35626 0 .70104.13018.9734.36752.27237.23734.45479.56656.51501.92948.06022.36291-.00563.73615-.18591 1.05373-.18029.31759-.46339.55907-.79928.68177v3.2975c.33589.12269.61899.36418.79928.68176.18028.31759.24613.69082.18591 1.05371-.06022.3629-.24264.6922-.51501.9295-.27236.2373-.61714.3675-.9734.3675-.35625 0-.70103-.1302-.97339-.3675-.27237-.2373-.45479-.5666-.51501-.9295-.06022-.36289.00563-.73612.18591-1.05371.18029-.31758.46339-.55907.79928-.68176zm.50321-.95181c.13346 0 .26146-.05479.35583-.15233s.14739-.22983.14739-.36778c0-.13794-.05302-.27023-.14739-.36777s-.22237-.15234-.35583-.15234-.26145.0548-.35582.15234-.14739.22983-.14739.36777c0 .13795.05302.27024.14739.36778s.22236.15233.35582.15233zm0 6.24138c.13346 0 .26146-.0548.35583-.1524.09437-.0975.14739-.2298.14739-.36776 0-.13794-.05302-.27023-.14739-.36777s-.22237-.15234-.35583-.15234-.26145.0548-.35582.15234-.14739.22983-.14739.36777c0 .13796.05302.27026.14739.36776.09437.0976.22236.1524.35582.1524zm6.03856 0c.1334 0 .2614-.0548.3558-.1524.0944-.0975.1474-.2298.1474-.36776 0-.13794-.053-.27023-.1474-.36777s-.2224-.15234-.3558-.15234c-.13347 0-.26147.0548-.35584.15234s-.14739.22983-.14739.36777c0 .13796.05302.27026.14739.36776.09437.0976.22237.1524.35584.1524z" fill="#299b2c"/></svg>