<svg fill="none" viewBox="0 0 40 40" xmlns="http://www.w3.org/2000/svg"><linearGradient id="code_svg__a" gradientUnits="userSpaceOnUse" x1="10.644" x2="36.25" y1="3.75" y2="36.25"><stop offset="0" stop-color="#f96459"></stop><stop offset="1" stop-color="#ea473b"></stop></linearGradient><path clip-rule="evenodd" d="M20 36.25c8.975 0 16.25-7.275 16.25-16.25S28.975 3.75 20 3.75c-2.575 0-5.01.6-7.175 1.666l4.409 4.164a3.04 3.04 0 011.732-.541c1.713 0 3.102 1.42 3.102 3.173 0 .566-.145 1.098-.399 1.558l4.262 4.026c.398-.189.84-.295 1.308-.295 1.713 0 3.102 1.421 3.102 3.174s-1.389 3.173-3.102 3.173c-1.714 0-3.102-1.42-3.102-3.173 0-.501.113-.975.315-1.397l-4.352-4.11a3.031 3.031 0 01-.772.197l-2.306 11.1a3.189 3.189 0 011.427 2.672c0 1.753-1.389 3.174-3.102 3.174-1.714 0-3.103-1.421-3.103-3.174 0-1.635 1.21-2.982 2.764-3.155l2.303-11.085a3.188 3.188 0 01-1.447-2.685c0-.32.046-.63.133-.921l-5.06-4.78C6.6 9.429 3.75 14.38 3.75 20c0 8.975 7.275 16.25 16.25 16.25z" fill="url(#code_svg__a)" fill-rule="evenodd"></path></svg>