<svg viewBox="0 0 24 24" fill="none" xmlns="http://www.w3.org/2000/svg">
<path fill-rule="evenodd" clip-rule="evenodd" d="M12 0C5.37259 0 0 5.37258 0 12C0 18.6274 5.37259 24 12 24H14.4C15.2837 24 16 23.2837 16 22.4V20.0122V20C16 17.7909 17.7909 16 20 16H16H22.4C23.2837 16 24 15.2837 24 14.4V9.6C24 8.71634 23.2837 8 22.4 8H17.6C16.7163 8 16 8.71634 16 9.6V11.9765L16.0001 12C16.0001 14.2091 14.2092 16 12 16C11.7185 16 11.4437 15.9709 11.1786 15.9156C9.36351 15.5368 8.00001 13.9276 8.00001 12C8.00001 9.8599 9.68069 8.11234 11.7942 8.00521C11.8283 8.00348 11.8625 8.00218 11.8968 8.00131C11.9311 8.00044 11.9655 8 12.0001 8H14.4C15.2837 8 16 7.28366 16 6.4V1.6C16 0.716344 15.2837 0 14.4 0H12Z" fill="#1B2E49"/>
</svg>
