<svg fill="none" viewBox="0 0 20 20" xmlns="http://www.w3.org/2000/svg" xmlns:xlink="http://www.w3.org/1999/xlink"><mask id="a" height="20" maskUnits="userSpaceOnUse" width="20" x="0" y="0"><path clip-rule="evenodd" d="m10 20c5.5228 0 10-4.4772 10-10 0-5.52285-4.4772-10-10-10-5.52285 0-10 4.47715-10 10 0 5.5228 4.47715 10 10 10z" fill="#fff" fill-rule="evenodd"/></mask><mask id="b" fill="#fff"><path clip-rule="evenodd" d="m7.33325 7.91797c-.27614 0-.5.22386-.5.5s.22386.5.5.5h5.33335c.2761 0 .5-.22386.5-.5s-.2239-.5-.5-.5zm0 1.83333c-.27614 0-.5.22386-.5.5 0 .2761.22386.5.5.5h4.66665c.2762 0 .5-.2239.5-.5 0-.27614-.2238-.5-.5-.5z" fill="#fff" fill-rule="evenodd"/></mask><g opacity=".9"><path clip-rule="evenodd" d="m10 20c5.5228 0 10-4.4772 10-10 0-5.52285-4.4772-10-10-10-5.52285 0-10 4.47715-10 10 0 5.5228 4.47715 10 10 10z" fill="#d8d8d8" fill-rule="evenodd"/><g mask="url(#a)"><path d="m0 0h20v20h-20z" fill="#1b841d"/><path d="m7.33341 5.33203h5.33329c1.4728 0 2.6667 1.19391 2.6667 2.66667v2.6667c0 1.4727-1.1939 2.6666-2.6667 2.6666h-2.6666l-2.66669 2v-2c-1.47275 0-2.66666-1.1939-2.66666-2.6666v-2.6667c0-1.47276 1.19391-2.66667 2.66666-2.66667z" stroke="#f3f3fa" stroke-linecap="round" stroke-linejoin="round"/><path d="m7.83325 8.41797c0 .27614-.22386.5-.5.5v-2c-.82843 0-1.5.67157-1.5 1.5zm-.5-.5c.27614 0 .5.22386.5.5h-2c0 .82843.67157 1.5 1.5 1.5zm5.33335 0h-5.33335v2h5.33335zm-.5.5c0-.27614.2238-.5.5-.5v2c.8284 0 1.5-.67157 1.5-1.5zm.5.5c-.2762 0-.5-.22386-.5-.5h2c0-.82843-.6716-1.5-1.5-1.5zm-5.33335 0h5.33335v-2h-5.33335zm.5 1.33333c0 .2761-.22386.5-.5.5v-2c-.82843 0-1.5.67157-1.5 1.5zm-.5-.5c.27614 0 .5.22386.5.5h-2c0 .8284.67157 1.5 1.5 1.5zm4.66665 0h-4.66665v2h4.66665zm-.5.5c0-.27614.2239-.5.5-.5v2c.8284 0 1.5-.6716 1.5-1.5zm.5.5c-.2761 0-.5-.2239-.5-.5h2c0-.82843-.6716-1.5-1.5-1.5zm-4.66665 0h4.66665v-2h-4.66665z" fill="#f3f3fa" mask="url(#b)" opacity=".5"/></g></g></svg>