<svg width="469" height="146" viewBox="0 0 469 146" fill="none" xmlns="http://www.w3.org/2000/svg">
<path d="M85.0845 48.8577C84.4731 50.6362 83.4823 52.2781 82.1728 53.6827L74.6973 60.7257L60.242 47.1067L74.6973 33.4876L82.1728 40.3944C83.4825 41.383 84.4562 42.7113 84.9737 44.2153C85.4911 45.7193 85.5297 47.3332 85.0845 48.8577ZM47.9136 80.1621C46.0709 79.5637 44.3773 78.6169 42.9368 77.3799L35.482 70.3564L49.9374 56.7373L64.3927 70.3564L56.8966 77.4188C55.8473 78.6527 54.4374 79.5701 52.841 80.0576C51.2447 80.5451 49.5317 80.5814 47.9136 80.1621ZM14.6663 45.1416C15.2873 43.3588 16.2927 41.7161 17.6193 40.3166L25.0948 33.293L39.5501 46.9121L25.0948 60.5312L17.5986 53.4687C16.2878 52.4762 15.3123 51.1453 14.7915 49.6388C14.2707 48.1323 14.2272 46.5154 14.6663 44.986V45.1416ZM51.8372 13.6816C53.7386 14.2606 55.4902 15.2083 56.9792 16.4638L64.434 23.4873L49.9787 37.1064L35.5233 23.4873L42.9368 16.6194C43.9861 15.3855 45.396 14.4681 46.9924 13.9806C48.5888 13.4931 50.3017 13.4568 51.9198 13.8761L51.8372 13.6816ZM92.4981 30.7638L67.1805 6.98878C64.2155 4.3773 60.6963 2.38795 56.8553 1.15204C48.244 -1.55232 39.6947 0.548906 32.7561 6.98878L7.41793 30.7638C4.6471 33.558 2.53573 36.8733 1.22278 40.4917C-1.64764 48.6048 0.582612 56.6789 7.41793 63.2161L32.6116 87.0494C35.5634 89.7048 39.0839 91.7347 42.9368 93.0029C45.2859 93.7506 47.747 94.1381 50.2265 94.1508C53.3907 94.0904 56.5098 93.4305 59.3977 92.2105C62.2856 90.9905 64.8833 89.2352 67.036 87.0494L92.4981 63.2939C95.307 60.5095 97.4542 57.1933 98.7965 53.566C101.667 45.4529 99.416 37.3788 92.4981 30.8611" fill="#00ADE5"/>
<path d="M445.623 44.9869H458.013C457.852 41.0735 456.152 37.3565 453.243 34.5586C449.319 30.6674 442.814 28.7219 436.413 28.7219C430.506 28.5063 424.715 30.302 420.099 33.7804C418.332 35.1694 416.921 36.9158 415.97 38.8898C415.019 40.8637 414.553 43.0143 414.606 45.1815C414.666 48.4554 415.936 51.607 418.198 54.0931C420.46 56.5792 423.571 58.244 426.996 58.8005C431.746 59.7733 437.115 60.0652 441.864 60.7461C443.318 60.8162 444.687 61.4112 445.687 62.4077C446.687 63.4041 447.241 64.7252 447.234 66.0965C447.234 71.6414 440.625 72.5169 436.289 72.5169C433.371 72.7315 430.471 71.936 428.132 70.2795C426.698 69.0834 425.737 67.4648 425.406 65.6879H413.243C413.74 69.6782 415.723 73.3731 418.839 76.1162C423.591 80.1197 429.817 82.2143 436.186 81.953C443.516 81.953 450.228 80.1825 454.565 76.1162C456.103 74.6658 457.31 72.9331 458.109 71.0255C458.908 69.118 459.283 67.0761 459.211 65.0264C459.211 57.0495 453.016 51.991 444.549 50.7264C439.283 49.9481 437.941 49.8509 433.088 49.2672C430.197 48.8781 426.893 47.808 426.893 44.1892C426.926 43.0084 427.338 41.8648 428.076 40.9095C428.813 39.9542 429.841 39.2322 431.023 38.8389C432.801 38.2083 434.702 37.943 436.599 38.0607C439.166 37.9891 441.669 38.8215 443.62 40.3954C444.865 41.6411 445.578 43.2762 445.623 44.9869V44.9869ZM377.208 43.9947C377.241 42.8139 377.653 41.6703 378.391 40.715C379.128 39.7597 380.156 39.0377 381.338 38.6443C383.116 38.0137 385.017 37.7484 386.913 37.8661C389.485 37.8027 391.992 38.6338 393.955 40.2008C395.271 41.4866 396.011 43.2007 396.02 44.9869H408.411C408.257 41.0757 406.564 37.3584 403.661 34.5586C399.737 30.6674 393.336 28.7219 386.81 28.7219C380.904 28.5063 375.112 30.302 370.496 33.7804C368.757 35.1657 367.369 36.8996 366.433 38.8554C365.497 40.8111 365.037 42.9393 365.086 45.0842C365.142 48.3592 366.411 51.5127 368.673 53.9996C370.936 56.4864 374.05 58.1502 377.476 58.7033C382.226 59.676 387.595 59.9679 392.365 60.6488C393.819 60.7189 395.188 61.314 396.188 62.3104C397.188 63.3068 397.742 64.6279 397.734 65.9992C397.734 71.5441 391.105 72.4196 386.769 72.4196C383.817 72.6586 380.875 71.8618 378.509 70.1822C377.083 68.9804 376.123 67.3644 375.783 65.5906H363.62C364.151 69.5433 366.13 73.1973 369.216 75.9216C373.968 79.9251 380.193 82.0197 386.562 81.7584C393.893 81.7584 400.625 79.9879 404.962 75.9216C406.497 74.4685 407.701 72.7354 408.5 70.8284C409.299 68.9215 409.676 66.881 409.608 64.8318C409.608 56.855 403.413 51.7965 394.926 50.5318C389.66 49.7536 388.318 49.6563 383.465 49.0726C380.574 48.6835 377.27 47.6135 377.27 43.9947H377.208ZM359.923 55.6682C360.458 49.4722 358.826 43.2817 355.277 38.0412C353.113 35.0478 350.178 32.6208 346.747 30.9874C343.315 29.3541 339.5 28.5679 335.659 28.7024C332.485 28.6164 329.327 29.1415 326.376 30.2455C323.425 31.3495 320.745 33.0091 318.498 35.1228C313.336 40.0841 310.754 47.3022 310.754 55.3763C310.599 59.1009 311.251 62.8163 312.671 66.2953C314.091 69.7744 316.25 72.944 319.015 75.6104C321.258 77.6604 323.913 79.2686 326.824 80.341C329.735 81.4133 332.844 81.9282 335.969 81.8557C339.351 81.9932 342.724 81.4264 345.847 80.1956C348.97 78.9648 351.767 77.1003 354.038 74.7349C356.389 72.0472 357.954 68.8283 358.581 65.3961H346.191C345.759 67.0172 344.866 68.4969 343.609 69.6763C342.559 70.5831 341.317 71.2689 339.964 71.6883C338.611 72.1076 337.178 72.2508 335.762 72.1083C332.78 72.0981 329.923 70.9794 327.812 68.9954C326.475 67.6794 325.436 66.1214 324.758 64.4157C324.08 62.71 323.777 60.8923 323.867 59.0729H359.717C359.717 58.0029 359.717 55.6682 359.717 55.6682H359.923ZM346.81 50.2205H323.785C323.715 47.3627 324.7 44.5706 326.573 42.3215C327.644 41.0578 329.015 40.0478 330.574 39.3721C332.134 38.6965 333.84 38.374 335.556 38.4303C337.056 38.3543 338.557 38.5746 339.962 39.0772C341.366 39.5798 342.644 40.3535 343.713 41.3487C345.931 43.8241 347.107 46.9816 347.017 50.2205H346.81ZM291.694 80.5716H304.621V46.7379C304.621 36.2123 297.91 28.6246 286.428 28.6246C283.299 28.4888 280.189 29.1376 277.413 30.5048C274.638 31.8721 272.297 33.9088 270.63 36.4069L269.701 29.8892H258.86V80.4743H271.766V59.8706C271.766 55.5903 271.766 50.3373 273.521 46.2515C275.277 42.1658 278.271 39.8117 282.814 39.8117C289.629 39.8117 291.694 43.411 291.694 49.3645V80.5716ZM250.826 40.7261C251.517 40.7341 252.207 40.7796 252.892 40.8623V29.325C252.334 29.325 251.776 29.2083 251.219 29.2083C244.92 29.2083 238.519 31.6402 236.02 37.477L234.905 29.8892H223.94V80.4743H237.053V55.0067C237.053 46.8352 241.802 40.6872 250.888 40.6872L250.826 40.7261ZM210.207 81.2915C212.429 81.3586 214.633 80.8898 216.609 79.9296V70.9604C216.067 71.0806 215.513 71.1458 214.957 71.155C212.891 71.155 211.962 70.2795 211.962 67.9448V49.1699C212.123 45.6977 211.598 42.2277 210.413 38.9362C207.295 31.3484 199.448 28.6246 190.259 28.6246C178.281 28.6246 168.679 33.6831 167.935 45.0842H180.45C180.759 40.3953 184.27 37.8661 190.259 37.8661C197.589 37.8661 199.345 41.0763 199.345 45.8624V48.9754L183.547 50.0454C173.222 50.7264 165.354 56.2713 165.354 65.9019C165.354 74.1706 171.983 81.7778 184.786 81.7778C192.427 81.7778 198.622 78.2564 201.1 74.1706C201.33 76.243 202.412 78.1483 204.114 79.4791C205.816 80.8098 208.003 81.4603 210.207 81.2915V81.2915ZM199.345 60.357C199.345 67.8475 193.666 72.0305 185.612 72.0305C184.666 72.1047 183.714 71.9984 182.812 71.718C181.911 71.4377 181.079 70.989 180.366 70.3987C179.652 69.8085 179.073 69.0888 178.661 68.2828C178.25 67.4767 178.015 66.6008 177.971 65.7073C177.971 61.6216 181.792 59.3842 185.715 59.0924L199.345 58.1196V60.357ZM146.81 80.4938H159.84V46.4461C159.84 35.94 153.067 28.1966 141.503 28.1966C138.653 28.1403 135.83 28.7169 133.262 29.8796C130.693 31.0423 128.451 32.7586 126.717 34.8894V9.5968H113.686V80.4938H126.717V53.6058C126.717 47.3216 130.042 39.4809 137.868 39.4809C144.724 39.4809 146.81 43.0997 146.81 48.9948V80.4938Z" fill="black"/>
<path d="M141.925 121.856C141.925 124.99 141.337 127.675 140.163 129.91C138.998 132.135 137.408 133.839 135.39 135.023C133.383 136.207 131.105 136.799 128.558 136.799C126.011 136.799 123.729 136.207 121.712 135.023C119.704 133.83 118.113 132.121 116.939 129.895C115.774 127.66 115.192 124.981 115.192 121.856C115.192 118.721 115.774 116.041 116.939 113.816C118.113 111.581 119.704 109.872 121.712 108.688C123.729 107.504 126.011 106.912 128.558 106.912C131.105 106.912 133.383 107.504 135.39 108.688C137.408 109.872 138.998 111.581 140.163 113.816C141.337 116.041 141.925 118.721 141.925 121.856ZM136.626 121.856C136.626 119.649 136.281 117.788 135.589 116.273C134.908 114.749 133.961 113.598 132.748 112.821C131.536 112.035 130.14 111.642 128.558 111.642C126.977 111.642 125.58 112.035 124.368 112.821C123.156 113.598 122.204 114.749 121.513 116.273C120.831 117.788 120.49 119.649 120.49 121.856C120.49 124.062 120.831 125.928 121.513 127.452C122.204 128.967 123.156 130.118 124.368 130.904C125.58 131.68 126.977 132.069 128.558 132.069C130.14 132.069 131.536 131.68 132.748 130.904C133.961 130.118 134.908 128.967 135.589 127.452C136.281 125.928 136.626 124.062 136.626 121.856ZM152.907 136.401V107.31H163.816C166.051 107.31 167.926 107.727 169.441 108.56C170.966 109.393 172.116 110.539 172.893 111.998C173.679 113.446 174.072 115.094 174.072 116.941C174.072 118.806 173.679 120.464 172.893 121.912C172.107 123.361 170.947 124.502 169.413 125.336C167.878 126.16 165.989 126.571 163.745 126.571H156.515V122.239H163.035C164.341 122.239 165.412 122.012 166.245 121.557C167.078 121.103 167.694 120.478 168.091 119.682C168.499 118.887 168.702 117.973 168.702 116.941C168.702 115.909 168.499 114.999 168.091 114.214C167.694 113.428 167.073 112.817 166.231 112.381C165.397 111.936 164.323 111.714 163.006 111.714H158.177V136.401H152.907ZM184.649 136.401V107.31H203.569V111.728H189.919V119.625H202.589V124.043H189.919V131.983H203.683V136.401H184.649ZM238.852 107.31V136.401H234.165L220.457 116.586H220.216V136.401H214.946V107.31H219.662L233.355 127.14H233.611V107.31H238.852ZM282.326 115.307C282.193 114.067 281.635 113.101 280.65 112.41C279.674 111.718 278.405 111.373 276.843 111.373C275.744 111.373 274.802 111.538 274.016 111.87C273.23 112.201 272.629 112.651 272.212 113.219C271.796 113.787 271.582 114.436 271.573 115.165C271.573 115.771 271.71 116.297 271.985 116.742C272.269 117.187 272.653 117.566 273.136 117.878C273.618 118.181 274.154 118.437 274.741 118.645C275.328 118.854 275.92 119.029 276.516 119.171L279.243 119.853C280.342 120.108 281.398 120.454 282.411 120.89C283.434 121.325 284.348 121.874 285.153 122.537C285.967 123.2 286.611 124 287.084 124.938C287.558 125.875 287.795 126.974 287.795 128.233C287.795 129.938 287.359 131.439 286.488 132.736C285.617 134.024 284.357 135.033 282.709 135.762C281.071 136.481 279.087 136.841 276.758 136.841C274.494 136.841 272.529 136.491 270.863 135.79C269.206 135.089 267.908 134.067 266.971 132.722C266.043 131.377 265.541 129.739 265.465 127.807H270.65C270.725 128.821 271.038 129.663 271.587 130.336C272.136 131.008 272.851 131.51 273.732 131.841C274.622 132.173 275.617 132.339 276.715 132.339C277.861 132.339 278.865 132.168 279.726 131.827C280.598 131.477 281.279 130.994 281.772 130.378C282.264 129.753 282.515 129.024 282.525 128.191C282.515 127.433 282.293 126.808 281.857 126.316C281.422 125.814 280.811 125.397 280.025 125.066C279.248 124.725 278.339 124.422 277.297 124.157L273.988 123.304C271.592 122.689 269.698 121.756 268.306 120.506C266.923 119.247 266.232 117.575 266.232 115.492C266.232 113.778 266.696 112.277 267.624 110.989C268.562 109.701 269.835 108.702 271.445 107.992C273.055 107.272 274.878 106.912 276.914 106.912C278.978 106.912 280.787 107.272 282.34 107.992C283.903 108.702 285.129 109.692 286.019 110.961C286.909 112.22 287.368 113.669 287.397 115.307H282.326ZM324.487 121.856C324.487 124.99 323.9 127.675 322.726 129.91C321.561 132.135 319.97 133.839 317.953 135.023C315.945 136.207 313.668 136.799 311.121 136.799C308.573 136.799 306.291 136.207 304.274 135.023C302.266 133.83 300.676 132.121 299.501 129.895C298.337 127.66 297.754 124.981 297.754 121.856C297.754 118.721 298.337 116.041 299.501 113.816C300.676 111.581 302.266 109.872 304.274 108.688C306.291 107.504 308.573 106.912 311.121 106.912C313.668 106.912 315.945 107.504 317.953 108.688C319.97 109.872 321.561 111.581 322.726 113.816C323.9 116.041 324.487 118.721 324.487 121.856ZM319.189 121.856C319.189 119.649 318.843 117.788 318.152 116.273C317.47 114.749 316.523 113.598 315.311 112.821C314.099 112.035 312.702 111.642 311.121 111.642C309.539 111.642 308.142 112.035 306.93 112.821C305.718 113.598 304.766 114.749 304.075 116.273C303.393 117.788 303.052 119.649 303.052 121.856C303.052 124.062 303.393 125.928 304.075 127.452C304.766 128.967 305.718 130.118 306.93 130.904C308.142 131.68 309.539 132.069 311.121 132.069C312.702 132.069 314.099 131.68 315.311 130.904C316.523 130.118 317.47 128.967 318.152 127.452C318.843 125.928 319.189 124.062 319.189 121.856ZM353.807 107.31H359.077V126.316C359.077 128.399 358.585 130.231 357.6 131.813C356.625 133.394 355.252 134.63 353.481 135.52C351.71 136.401 349.641 136.841 347.273 136.841C344.896 136.841 342.823 136.401 341.052 135.52C339.281 134.63 337.908 133.394 336.932 131.813C335.957 130.231 335.469 128.399 335.469 126.316V107.31H340.739V125.875C340.739 127.088 341.004 128.167 341.535 129.114C342.074 130.061 342.832 130.804 343.807 131.344C344.783 131.874 345.938 132.14 347.273 132.14C348.609 132.14 349.764 131.874 350.739 131.344C351.724 130.804 352.482 130.061 353.012 129.114C353.542 128.167 353.807 127.088 353.807 125.875V107.31ZM370.805 136.401V107.31H381.714C383.949 107.31 385.824 107.698 387.339 108.475C388.864 109.251 390.015 110.34 390.791 111.742C391.577 113.134 391.97 114.758 391.97 116.614C391.97 118.48 391.572 120.099 390.777 121.472C389.991 122.836 388.831 123.892 387.297 124.64C385.763 125.378 383.878 125.748 381.643 125.748H373.873V121.373H380.933C382.24 121.373 383.31 121.193 384.143 120.833C384.977 120.464 385.592 119.928 385.99 119.228C386.397 118.517 386.601 117.646 386.601 116.614C386.601 115.582 386.397 114.701 385.99 113.972C385.583 113.233 384.962 112.675 384.129 112.296C383.296 111.908 382.221 111.714 380.905 111.714H376.075V136.401H370.805ZM385.834 123.219L393.035 136.401H387.155L380.081 123.219H385.834ZM427.721 117.125H422.409C422.257 116.254 421.978 115.482 421.571 114.81C421.164 114.128 420.657 113.551 420.051 113.077C419.445 112.604 418.754 112.249 417.977 112.012C417.21 111.766 416.381 111.642 415.491 111.642C413.91 111.642 412.508 112.04 411.287 112.836C410.065 113.622 409.109 114.777 408.417 116.302C407.726 117.817 407.381 119.668 407.381 121.856C407.381 124.081 407.726 125.956 408.417 127.481C409.118 128.996 410.075 130.142 411.287 130.918C412.508 131.685 413.905 132.069 415.477 132.069C416.348 132.069 417.163 131.955 417.92 131.728C418.687 131.491 419.374 131.145 419.98 130.691C420.596 130.236 421.112 129.678 421.528 129.015C421.954 128.352 422.248 127.594 422.409 126.742L427.721 126.77C427.523 128.153 427.092 129.45 426.429 130.662C425.775 131.874 424.918 132.945 423.858 133.873C422.797 134.791 421.557 135.511 420.136 136.032C418.716 136.543 417.139 136.799 415.406 136.799C412.849 136.799 410.567 136.207 408.56 135.023C406.552 133.839 404.971 132.13 403.815 129.895C402.66 127.66 402.082 124.981 402.082 121.856C402.082 118.721 402.665 116.041 403.829 113.816C404.994 111.581 406.58 109.872 408.588 108.688C410.596 107.504 412.868 106.912 415.406 106.912C417.025 106.912 418.531 107.14 419.923 107.594C421.315 108.049 422.556 108.716 423.645 109.597C424.734 110.468 425.629 111.538 426.329 112.807C427.04 114.067 427.504 115.506 427.721 117.125ZM438.547 136.401V107.31H457.468V111.728H443.817V119.625H456.488V124.043H443.817V131.983H457.582V136.401H438.547Z" fill="#6B6D85"/>
</svg>